G04*
G04 #@! TF.GenerationSoftware,Altium Limited,Altium Designer,21.0.9 (235)*
G04*
G04 Layer_Physical_Order=3*
G04 Layer_Color=16440176*
%FSLAX25Y25*%
%MOIN*%
G70*
G04*
G04 #@! TF.SameCoordinates,E74DC3C6-926F-45D7-BB20-B057052BEC36*
G04*
G04*
G04 #@! TF.FilePolarity,Positive*
G04*
G01*
G75*
%ADD71C,0.08563*%
%ADD72R,0.04331X0.04331*%
%ADD73C,0.08268*%
%ADD74C,0.10925*%
%ADD76C,0.10335*%
%ADD77C,0.17303*%
%ADD78O,0.15748X0.11024*%
%ADD79O,0.18898X0.11024*%
%ADD81C,0.01772*%
G36*
X385697Y803D02*
X803D01*
Y392197D01*
X385697D01*
Y803D01*
D02*
G37*
%LPC*%
G36*
X299223Y385935D02*
X298512D01*
Y382130D01*
X302317D01*
Y382841D01*
X299223Y385935D01*
D02*
G37*
G36*
X295559D02*
X294848D01*
X291754Y382841D01*
Y382130D01*
X295559D01*
Y385935D01*
D02*
G37*
G36*
X23732Y387214D02*
X21272D01*
Y381642D01*
X30169D01*
X28716Y385149D01*
X23732Y387214D01*
D02*
G37*
G36*
X18319D02*
X15858D01*
X10874Y385149D01*
X9421Y381642D01*
X18319D01*
Y387214D01*
D02*
G37*
G36*
X248688Y385435D02*
X247976D01*
Y381630D01*
X251782D01*
Y382341D01*
X248688Y385435D01*
D02*
G37*
G36*
X245024D02*
X244312D01*
X241218Y382341D01*
Y381630D01*
X245024D01*
Y385435D01*
D02*
G37*
G36*
X198688D02*
X197976D01*
Y381630D01*
X201782D01*
Y382341D01*
X198688Y385435D01*
D02*
G37*
G36*
X195024D02*
X194312D01*
X191218Y382341D01*
Y381630D01*
X195024D01*
Y385435D01*
D02*
G37*
G36*
X150188Y385281D02*
X149476D01*
Y381476D01*
X153281D01*
Y382188D01*
X150188Y385281D01*
D02*
G37*
G36*
X146524D02*
X145812D01*
X142719Y382188D01*
Y381476D01*
X146524D01*
Y385281D01*
D02*
G37*
G36*
X101688Y384935D02*
X100976D01*
Y381130D01*
X104781D01*
Y381841D01*
X101688Y384935D01*
D02*
G37*
G36*
X98024D02*
X97312D01*
X94218Y381841D01*
Y381130D01*
X98024D01*
Y384935D01*
D02*
G37*
G36*
X49362Y385442D02*
X48476D01*
Y379870D01*
X55799D01*
X54346Y383378D01*
X49362Y385442D01*
D02*
G37*
G36*
X45524D02*
X44638D01*
X39654Y383378D01*
X38201Y379870D01*
X45524D01*
Y385442D01*
D02*
G37*
G36*
X285766Y385919D02*
X275234D01*
Y375388D01*
X285766D01*
Y385919D01*
D02*
G37*
G36*
X302317Y379177D02*
X298512D01*
Y375372D01*
X299223D01*
X302317Y378466D01*
Y379177D01*
D02*
G37*
G36*
X295559D02*
X291754D01*
Y378466D01*
X294848Y375372D01*
X295559D01*
Y379177D01*
D02*
G37*
G36*
X235230Y385419D02*
X224699D01*
Y374888D01*
X235230D01*
Y385419D01*
D02*
G37*
G36*
X185230D02*
X174699D01*
Y374888D01*
X185230D01*
Y385419D01*
D02*
G37*
G36*
X251782Y378677D02*
X247976D01*
Y374872D01*
X248688D01*
X251782Y377966D01*
Y378677D01*
D02*
G37*
G36*
X245024D02*
X241218D01*
Y377966D01*
X244312Y374872D01*
X245024D01*
Y378677D01*
D02*
G37*
G36*
X201782D02*
X197976D01*
Y374872D01*
X198688D01*
X201782Y377966D01*
Y378677D01*
D02*
G37*
G36*
X195024D02*
X191218D01*
Y377966D01*
X194312Y374872D01*
X195024D01*
Y378677D01*
D02*
G37*
G36*
X136730Y385266D02*
X126199D01*
Y374734D01*
X136730D01*
Y385266D01*
D02*
G37*
G36*
X153281Y378524D02*
X149476D01*
Y374718D01*
X150188D01*
X153281Y377812D01*
Y378524D01*
D02*
G37*
G36*
X146524D02*
X142719D01*
Y377812D01*
X145812Y374718D01*
X146524D01*
Y378524D01*
D02*
G37*
G36*
X88230Y384919D02*
X77699D01*
Y374388D01*
X88230D01*
Y384919D01*
D02*
G37*
G36*
X104781Y378177D02*
X100976D01*
Y374372D01*
X101688D01*
X104781Y377466D01*
Y378177D01*
D02*
G37*
G36*
X98024D02*
X94218D01*
Y377466D01*
X97312Y374372D01*
X98024D01*
Y378177D01*
D02*
G37*
G36*
X30169Y378689D02*
X21272D01*
Y373117D01*
X23732D01*
X28716Y375181D01*
X30169Y378689D01*
D02*
G37*
G36*
X18319D02*
X9421D01*
X10874Y375181D01*
X15858Y373117D01*
X18319D01*
Y378689D01*
D02*
G37*
G36*
X55799Y376917D02*
X48476D01*
Y371345D01*
X49362D01*
X54346Y373410D01*
X55799Y376917D01*
D02*
G37*
G36*
X45524D02*
X38201D01*
X39654Y373410D01*
X44638Y371345D01*
X45524D01*
Y376917D01*
D02*
G37*
G36*
X371442Y390748D02*
X360842D01*
X353346Y383253D01*
Y372653D01*
X360842Y365158D01*
X371442D01*
X378937Y372653D01*
Y383253D01*
X371442Y390748D01*
D02*
G37*
G36*
X68560Y370059D02*
X66440D01*
X64941Y368560D01*
Y366440D01*
X66440Y364941D01*
X68560D01*
X70059Y366440D01*
Y368560D01*
X68560Y370059D01*
D02*
G37*
G36*
X299217Y364266D02*
X294854D01*
X291770Y361181D01*
Y356819D01*
X294854Y353734D01*
X299217D01*
X302301Y356819D01*
Y361181D01*
X299217Y364266D01*
D02*
G37*
G36*
X282681D02*
X278319D01*
X275234Y361181D01*
Y356819D01*
X278319Y353734D01*
X282681D01*
X285766Y356819D01*
Y361181D01*
X282681Y364266D01*
D02*
G37*
G36*
X248681Y363766D02*
X244319D01*
X241234Y360681D01*
Y356319D01*
X244319Y353234D01*
X248681D01*
X251766Y356319D01*
Y360681D01*
X248681Y363766D01*
D02*
G37*
G36*
X232146D02*
X227783D01*
X224699Y360681D01*
Y356319D01*
X227783Y353234D01*
X232146D01*
X235230Y356319D01*
Y360681D01*
X232146Y363766D01*
D02*
G37*
G36*
X198681D02*
X194319D01*
X191234Y360681D01*
Y356319D01*
X194319Y353234D01*
X198681D01*
X201766Y356319D01*
Y360681D01*
X198681Y363766D01*
D02*
G37*
G36*
X182146D02*
X177783D01*
X174699Y360681D01*
Y356319D01*
X177783Y353234D01*
X182146D01*
X185230Y356319D01*
Y360681D01*
X182146Y363766D01*
D02*
G37*
G36*
X150181Y363612D02*
X145819D01*
X142734Y360528D01*
Y356165D01*
X145819Y353081D01*
X150181D01*
X153266Y356165D01*
Y360528D01*
X150181Y363612D01*
D02*
G37*
G36*
X133646D02*
X129283D01*
X126199Y360528D01*
Y356165D01*
X129283Y353081D01*
X133646D01*
X136730Y356165D01*
Y360528D01*
X133646Y363612D01*
D02*
G37*
G36*
X101681Y363266D02*
X97319D01*
X94234Y360181D01*
Y355819D01*
X97319Y352734D01*
X101681D01*
X104766Y355819D01*
Y360181D01*
X101681Y363266D01*
D02*
G37*
G36*
X85146D02*
X80783D01*
X77699Y360181D01*
Y355819D01*
X80783Y352734D01*
X85146D01*
X88230Y355819D01*
Y360181D01*
X85146Y363266D01*
D02*
G37*
G36*
X49362Y334655D02*
X48476D01*
Y329083D01*
X55799D01*
X54346Y332590D01*
X49362Y334655D01*
D02*
G37*
G36*
X45524D02*
X44638D01*
X39654Y332590D01*
X38201Y329083D01*
X45524D01*
Y334655D01*
D02*
G37*
G36*
X23732Y332883D02*
X21272D01*
Y327311D01*
X30169D01*
X28716Y330819D01*
X23732Y332883D01*
D02*
G37*
G36*
X18319D02*
X15858D01*
X10874Y330819D01*
X9421Y327311D01*
X18319D01*
Y332883D01*
D02*
G37*
G36*
X198275Y330870D02*
X196725D01*
X195630Y329775D01*
Y328225D01*
X196725Y327130D01*
X198275D01*
X199370Y328225D01*
Y329775D01*
X198275Y330870D01*
D02*
G37*
G36*
X55799Y326130D02*
X48476D01*
Y320558D01*
X49362D01*
X54346Y322622D01*
X55799Y326130D01*
D02*
G37*
G36*
X45524D02*
X38201D01*
X39654Y322622D01*
X44638Y320558D01*
X45524D01*
Y326130D01*
D02*
G37*
G36*
X142348Y324296D02*
X140799D01*
X139704Y323201D01*
Y321652D01*
X140799Y320556D01*
X142348D01*
X143444Y321652D01*
Y323201D01*
X142348Y324296D01*
D02*
G37*
G36*
X156275Y323870D02*
X154725D01*
X153630Y322775D01*
Y321225D01*
X154725Y320130D01*
X156275D01*
X157370Y321225D01*
Y322775D01*
X156275Y323870D01*
D02*
G37*
G36*
X198436Y323209D02*
X196887D01*
X195791Y322113D01*
Y320564D01*
X196887Y319469D01*
X198436D01*
X199531Y320564D01*
Y322113D01*
X198436Y323209D01*
D02*
G37*
G36*
X233437Y323207D02*
X231888D01*
X230793Y322112D01*
Y320563D01*
X231888Y319467D01*
X233437D01*
X234533Y320563D01*
Y322112D01*
X233437Y323207D01*
D02*
G37*
G36*
X30169Y324358D02*
X21272D01*
Y318786D01*
X23732D01*
X28716Y320851D01*
X30169Y324358D01*
D02*
G37*
G36*
X18319D02*
X9421D01*
X10874Y320851D01*
X15858Y318786D01*
X18319D01*
Y324358D01*
D02*
G37*
G36*
X233437Y315533D02*
X231888D01*
X230793Y314437D01*
Y312888D01*
X231888Y311793D01*
X233437D01*
X234533Y312888D01*
Y314437D01*
X233437Y315533D01*
D02*
G37*
G36*
X196744Y312831D02*
X195194D01*
X194099Y311735D01*
Y310186D01*
X195194Y309091D01*
X196744D01*
X197839Y310186D01*
Y311735D01*
X196744Y312831D01*
D02*
G37*
G36*
X149336Y312809D02*
X147787D01*
X146691Y311713D01*
Y310164D01*
X147787Y309068D01*
X149336D01*
X150432Y310164D01*
Y311713D01*
X149336Y312809D01*
D02*
G37*
G36*
X181775Y306870D02*
X180225D01*
X179130Y305775D01*
Y304225D01*
X180225Y303130D01*
X181775D01*
X182870Y304225D01*
Y305775D01*
X181775Y306870D01*
D02*
G37*
G36*
X63830Y304569D02*
X62630D01*
Y299583D01*
X67616D01*
Y300783D01*
X63830Y304569D01*
D02*
G37*
G36*
X59677D02*
X58477D01*
X54691Y300783D01*
Y299583D01*
X59677D01*
Y304569D01*
D02*
G37*
G36*
X350966Y305616D02*
X348445D01*
Y297441D01*
X356620D01*
Y299962D01*
X350966Y305616D01*
D02*
G37*
G36*
X345492D02*
X342971D01*
X337317Y299962D01*
Y297441D01*
X345492D01*
Y305616D01*
D02*
G37*
G36*
X251150Y300150D02*
X244850D01*
Y293850D01*
X251150D01*
Y300150D01*
D02*
G37*
G36*
X42170Y304553D02*
X36830D01*
X33053Y300777D01*
Y295436D01*
X36830Y291659D01*
X42170D01*
X45947Y295436D01*
Y300777D01*
X42170Y304553D01*
D02*
G37*
G36*
X67616Y296630D02*
X62630D01*
Y291644D01*
X63830D01*
X67616Y295429D01*
Y296630D01*
D02*
G37*
G36*
X59677D02*
X54691D01*
Y295429D01*
X58477Y291644D01*
X59677D01*
Y296630D01*
D02*
G37*
G36*
X13654Y305095D02*
X7865D01*
X3772Y301001D01*
Y295212D01*
X7865Y291118D01*
X13654D01*
X17748Y295212D01*
Y301001D01*
X13654Y305095D01*
D02*
G37*
G36*
X356620Y294488D02*
X348445D01*
Y286313D01*
X350966D01*
X356620Y291967D01*
Y294488D01*
D02*
G37*
G36*
X345492D02*
X337317D01*
Y291967D01*
X342971Y286313D01*
X345492D01*
Y294488D01*
D02*
G37*
G36*
X219275Y289370D02*
X217725D01*
X216630Y288275D01*
Y286725D01*
X217725Y285630D01*
X219275D01*
X220370Y286725D01*
Y288275D01*
X219275Y289370D01*
D02*
G37*
G36*
X155665Y278165D02*
X153976D01*
Y276476D01*
X155665D01*
Y278165D01*
D02*
G37*
G36*
X151024D02*
X149335D01*
Y276476D01*
X151024D01*
Y278165D01*
D02*
G37*
G36*
X63824Y288018D02*
X58483D01*
X54707Y284241D01*
Y278901D01*
X58483Y275124D01*
X63824D01*
X67600Y278901D01*
Y284241D01*
X63824Y288018D01*
D02*
G37*
G36*
X42170D02*
X36830D01*
X33053Y284241D01*
Y278901D01*
X36830Y275124D01*
X42170D01*
X45947Y278901D01*
Y284241D01*
X42170Y288018D01*
D02*
G37*
G36*
X155665Y273524D02*
X153976D01*
Y271835D01*
X155665D01*
Y273524D01*
D02*
G37*
G36*
X151024D02*
X149335D01*
Y271835D01*
X151024D01*
Y273524D01*
D02*
G37*
G36*
X269775Y274370D02*
X268225D01*
X267130Y273275D01*
Y271725D01*
X268225Y270630D01*
X269775D01*
X270870Y271725D01*
Y273275D01*
X269775Y274370D01*
D02*
G37*
G36*
X363296Y276526D02*
X358200D01*
X354596Y272922D01*
Y267826D01*
X358200Y264222D01*
X363296D01*
X366900Y267826D01*
Y272922D01*
X363296Y276526D01*
D02*
G37*
G36*
X331800D02*
X326704D01*
X323100Y272922D01*
Y267826D01*
X326704Y264222D01*
X331800D01*
X335403Y267826D01*
Y272922D01*
X331800Y276526D01*
D02*
G37*
G36*
X63824Y271482D02*
X58483D01*
X54707Y267706D01*
Y262365D01*
X58483Y258589D01*
X63824D01*
X67600Y262365D01*
Y267706D01*
X63824Y271482D01*
D02*
G37*
G36*
X42170D02*
X36830D01*
X33053Y267706D01*
Y262365D01*
X36830Y258589D01*
X42170D01*
X45947Y262365D01*
Y267706D01*
X42170Y271482D01*
D02*
G37*
G36*
X347548Y268652D02*
X342452D01*
X338848Y265048D01*
Y259952D01*
X342452Y256348D01*
X347548D01*
X351152Y259952D01*
Y265048D01*
X347548Y268652D01*
D02*
G37*
G36*
X42177Y254963D02*
X40976D01*
Y249976D01*
X45963D01*
Y251177D01*
X42177Y254963D01*
D02*
G37*
G36*
X38024D02*
X36823D01*
X33037Y251177D01*
Y249976D01*
X38024D01*
Y254963D01*
D02*
G37*
G36*
X363296Y260778D02*
X358200D01*
X354596Y257174D01*
Y252078D01*
X358200Y248474D01*
X363296D01*
X366900Y252078D01*
Y257174D01*
X363296Y260778D01*
D02*
G37*
G36*
X331800D02*
X326704D01*
X323100Y257174D01*
Y252078D01*
X326704Y248474D01*
X331800D01*
X335403Y252078D01*
Y257174D01*
X331800Y260778D01*
D02*
G37*
G36*
X347555Y252919D02*
X346476D01*
Y248228D01*
X351167D01*
Y249307D01*
X347555Y252919D01*
D02*
G37*
G36*
X343524D02*
X342445D01*
X338833Y249307D01*
Y248228D01*
X343524D01*
Y252919D01*
D02*
G37*
G36*
X63824Y254947D02*
X58483D01*
X54707Y251170D01*
Y245830D01*
X58483Y242053D01*
X63824D01*
X67600Y245830D01*
Y251170D01*
X63824Y254947D01*
D02*
G37*
G36*
X45963Y247024D02*
X40976D01*
Y242037D01*
X42177D01*
X45963Y245823D01*
Y247024D01*
D02*
G37*
G36*
X38024D02*
X33037D01*
Y245823D01*
X36823Y242037D01*
X38024D01*
Y247024D01*
D02*
G37*
G36*
X209775Y244870D02*
X208225D01*
X207130Y243775D01*
Y242225D01*
X208225Y241130D01*
X209775D01*
X210870Y242225D01*
Y243775D01*
X209775Y244870D01*
D02*
G37*
G36*
X351167Y245276D02*
X346476D01*
Y240585D01*
X347555D01*
X351167Y244197D01*
Y245276D01*
D02*
G37*
G36*
X343524D02*
X338833D01*
Y244197D01*
X342445Y240585D01*
X343524D01*
Y245276D01*
D02*
G37*
G36*
X363303Y245045D02*
X362224D01*
Y240354D01*
X366915D01*
Y241432D01*
X363303Y245045D01*
D02*
G37*
G36*
X359272D02*
X358193D01*
X354581Y241432D01*
Y240354D01*
X359272D01*
Y245045D01*
D02*
G37*
G36*
X63830Y238427D02*
X62630D01*
Y233441D01*
X67616D01*
Y234642D01*
X63830Y238427D01*
D02*
G37*
G36*
X59677D02*
X58477D01*
X54691Y234642D01*
Y233441D01*
X59677D01*
Y238427D01*
D02*
G37*
G36*
X331800Y245029D02*
X326704D01*
X323100Y241426D01*
Y236330D01*
X326704Y232726D01*
X331800D01*
X335403Y236330D01*
Y241426D01*
X331800Y245029D01*
D02*
G37*
G36*
X366915Y237402D02*
X362224D01*
Y232711D01*
X363303D01*
X366915Y236323D01*
Y237402D01*
D02*
G37*
G36*
X359272D02*
X354581D01*
Y236323D01*
X358193Y232711D01*
X359272D01*
Y237402D01*
D02*
G37*
G36*
X347555Y237171D02*
X346476D01*
Y232480D01*
X351167D01*
Y233559D01*
X347555Y237171D01*
D02*
G37*
G36*
X343524D02*
X342445D01*
X338833Y233559D01*
Y232480D01*
X343524D01*
Y237171D01*
D02*
G37*
G36*
X42170Y238411D02*
X36830D01*
X33053Y234635D01*
Y229294D01*
X36830Y225518D01*
X42170D01*
X45947Y229294D01*
Y234635D01*
X42170Y238411D01*
D02*
G37*
G36*
X67616Y230488D02*
X62630D01*
Y225502D01*
X63830D01*
X67616Y229288D01*
Y230488D01*
D02*
G37*
G36*
X59677D02*
X54691D01*
Y229288D01*
X58477Y225502D01*
X59677D01*
Y230488D01*
D02*
G37*
G36*
X351167Y229528D02*
X346476D01*
Y224837D01*
X347555D01*
X351167Y228449D01*
Y229528D01*
D02*
G37*
G36*
X343524D02*
X338833D01*
Y228449D01*
X342445Y224837D01*
X343524D01*
Y229528D01*
D02*
G37*
G36*
X331807Y229297D02*
X330728D01*
Y224606D01*
X335419D01*
Y225684D01*
X331807Y229297D01*
D02*
G37*
G36*
X327776D02*
X326697D01*
X323085Y225684D01*
Y224606D01*
X327776D01*
Y229297D01*
D02*
G37*
G36*
X363296Y229281D02*
X358200D01*
X354596Y225678D01*
Y220582D01*
X358200Y216978D01*
X363296D01*
X366900Y220582D01*
Y225678D01*
X363296Y229281D01*
D02*
G37*
G36*
X335419Y221654D02*
X330728D01*
Y216963D01*
X331807D01*
X335419Y220575D01*
Y221654D01*
D02*
G37*
G36*
X327776D02*
X323085D01*
Y220575D01*
X326697Y216963D01*
X327776D01*
Y221654D01*
D02*
G37*
G36*
X251775Y218870D02*
X250225D01*
X249130Y217775D01*
Y216225D01*
X250225Y215130D01*
X251775D01*
X252870Y216225D01*
Y217775D01*
X251775Y218870D01*
D02*
G37*
G36*
X246775D02*
X245225D01*
X244130Y217775D01*
Y216225D01*
X245225Y215130D01*
X246775D01*
X247870Y216225D01*
Y217775D01*
X246775Y218870D01*
D02*
G37*
G36*
X241775D02*
X240225D01*
X239130Y217775D01*
Y216225D01*
X240225Y215130D01*
X241775D01*
X242870Y216225D01*
Y217775D01*
X241775Y218870D01*
D02*
G37*
G36*
X236775D02*
X235225D01*
X234130Y217775D01*
Y216225D01*
X235225Y215130D01*
X236775D01*
X237870Y216225D01*
Y217775D01*
X236775Y218870D01*
D02*
G37*
G36*
X231775D02*
X230225D01*
X229130Y217775D01*
Y216225D01*
X230225Y215130D01*
X231775D01*
X232870Y216225D01*
Y217775D01*
X231775Y218870D01*
D02*
G37*
G36*
X227127Y218723D02*
X225578D01*
X224482Y217627D01*
Y216078D01*
X225578Y214982D01*
X227127D01*
X228223Y216078D01*
Y217627D01*
X227127Y218723D01*
D02*
G37*
G36*
X186150Y219150D02*
X179850D01*
Y212850D01*
X186150D01*
Y219150D01*
D02*
G37*
G36*
X347548Y221408D02*
X342452D01*
X338848Y217804D01*
Y212708D01*
X342452Y209104D01*
X347548D01*
X351152Y212708D01*
Y217804D01*
X347548Y221408D01*
D02*
G37*
G36*
X63824Y221876D02*
X58483D01*
X54707Y218099D01*
Y212759D01*
X58483Y208982D01*
X63824D01*
X67600Y212759D01*
Y218099D01*
X63824Y221876D01*
D02*
G37*
G36*
X42170D02*
X36830D01*
X33053Y218099D01*
Y212759D01*
X36830Y208982D01*
X42170D01*
X45947Y212759D01*
Y218099D01*
X42170Y221876D01*
D02*
G37*
G36*
X363296Y213533D02*
X358200D01*
X354596Y209930D01*
Y204834D01*
X358200Y201230D01*
X363296D01*
X366900Y204834D01*
Y209930D01*
X363296Y213533D01*
D02*
G37*
G36*
X331800D02*
X326704D01*
X323100Y209930D01*
Y204834D01*
X326704Y201230D01*
X331800D01*
X335403Y204834D01*
Y209930D01*
X331800Y213533D01*
D02*
G37*
G36*
X347555Y205675D02*
X346476D01*
Y200984D01*
X351167D01*
Y202063D01*
X347555Y205675D01*
D02*
G37*
G36*
X343524D02*
X342445D01*
X338833Y202063D01*
Y200984D01*
X343524D01*
Y205675D01*
D02*
G37*
G36*
X351167Y198031D02*
X346476D01*
Y193341D01*
X347555D01*
X351167Y196953D01*
Y198031D01*
D02*
G37*
G36*
X343524D02*
X338833D01*
Y196953D01*
X342445Y193341D01*
X343524D01*
Y198031D01*
D02*
G37*
G36*
X63824Y205341D02*
X58483D01*
X54707Y201564D01*
Y196223D01*
X58483Y192447D01*
X63824D01*
X67600Y196223D01*
Y201564D01*
X63824Y205341D01*
D02*
G37*
G36*
X42170D02*
X36830D01*
X33053Y201564D01*
Y196223D01*
X36830Y192447D01*
X42170D01*
X45947Y196223D01*
Y201564D01*
X42170Y205341D01*
D02*
G37*
G36*
X13654Y205882D02*
X7865D01*
X3772Y201788D01*
Y195999D01*
X7865Y191905D01*
X13654D01*
X17748Y195999D01*
Y201788D01*
X13654Y205882D01*
D02*
G37*
G36*
X105800Y216295D02*
X95200D01*
X87705Y208800D01*
Y198200D01*
X95200Y190705D01*
X105800D01*
X113295Y198200D01*
Y208800D01*
X105800Y216295D01*
D02*
G37*
G36*
X363296Y197785D02*
X358200D01*
X354596Y194182D01*
Y189086D01*
X358200Y185482D01*
X363296D01*
X366900Y189086D01*
Y194182D01*
X363296Y197785D01*
D02*
G37*
G36*
X331800D02*
X326704D01*
X323100Y194182D01*
Y189086D01*
X326704Y185482D01*
X331800D01*
X335403Y189086D01*
Y194182D01*
X331800Y197785D01*
D02*
G37*
G36*
X347548Y189911D02*
X342452D01*
X338848Y186308D01*
Y181212D01*
X342452Y177608D01*
X347548D01*
X351152Y181212D01*
Y186308D01*
X347548Y189911D01*
D02*
G37*
G36*
X363296Y182037D02*
X358200D01*
X354596Y178434D01*
Y173338D01*
X358200Y169734D01*
X363296D01*
X366900Y173338D01*
Y178434D01*
X363296Y182037D01*
D02*
G37*
G36*
X331800D02*
X326704D01*
X323100Y178434D01*
Y173338D01*
X326704Y169734D01*
X331800D01*
X335403Y173338D01*
Y178434D01*
X331800Y182037D01*
D02*
G37*
G36*
X347555Y174179D02*
X346476D01*
Y169488D01*
X351167D01*
Y170566D01*
X347555Y174179D01*
D02*
G37*
G36*
X343524D02*
X342445D01*
X338833Y170566D01*
Y169488D01*
X343524D01*
Y174179D01*
D02*
G37*
G36*
X351167Y166535D02*
X346476D01*
Y161845D01*
X347555D01*
X351167Y165457D01*
Y166535D01*
D02*
G37*
G36*
X343524D02*
X338833D01*
Y165457D01*
X342445Y161845D01*
X343524D01*
Y166535D01*
D02*
G37*
G36*
X331807Y166305D02*
X330728D01*
Y161614D01*
X335419D01*
Y162692D01*
X331807Y166305D01*
D02*
G37*
G36*
X327776D02*
X326697D01*
X323085Y162692D01*
Y161614D01*
X327776D01*
Y166305D01*
D02*
G37*
G36*
X128657Y166618D02*
X124417D01*
X121419Y163620D01*
Y159380D01*
X124417Y156382D01*
X128657D01*
X131655Y159380D01*
Y163620D01*
X128657Y166618D01*
D02*
G37*
G36*
X107003D02*
X102763D01*
X99765Y163620D01*
Y159380D01*
X102763Y156382D01*
X107003D01*
X110002Y159380D01*
Y163620D01*
X107003Y166618D01*
D02*
G37*
G36*
X363296Y166289D02*
X358200D01*
X354596Y162686D01*
Y157590D01*
X358200Y153986D01*
X363296D01*
X366900Y157590D01*
Y162686D01*
X363296Y166289D01*
D02*
G37*
G36*
X335419Y158661D02*
X330728D01*
Y153971D01*
X331807D01*
X335419Y157583D01*
Y158661D01*
D02*
G37*
G36*
X327776D02*
X323085D01*
Y157583D01*
X326697Y153971D01*
X327776D01*
Y158661D01*
D02*
G37*
G36*
X64324Y164018D02*
X58983D01*
X55207Y160241D01*
Y154901D01*
X58983Y151124D01*
X64324D01*
X68100Y154901D01*
Y160241D01*
X64324Y164018D01*
D02*
G37*
G36*
X42670D02*
X37330D01*
X33553Y160241D01*
Y154901D01*
X37330Y151124D01*
X42670D01*
X46447Y154901D01*
Y160241D01*
X42670Y164018D01*
D02*
G37*
G36*
X14154Y164559D02*
X8365D01*
X4272Y160466D01*
Y154676D01*
X8365Y150583D01*
X14154D01*
X18248Y154676D01*
Y160466D01*
X14154Y164559D01*
D02*
G37*
G36*
X271403Y147002D02*
X269283D01*
X267783Y145503D01*
Y143383D01*
X269283Y141884D01*
X271403D01*
X272902Y143383D01*
Y145503D01*
X271403Y147002D01*
D02*
G37*
G36*
X128657Y150083D02*
X124417D01*
X121419Y147085D01*
Y142845D01*
X124417Y139847D01*
X128657D01*
X131655Y142845D01*
Y147085D01*
X128657Y150083D01*
D02*
G37*
G36*
X107003D02*
X102763D01*
X99765Y147085D01*
Y142845D01*
X102763Y139847D01*
X107003D01*
X110002Y142845D01*
Y147085D01*
X107003Y150083D01*
D02*
G37*
G36*
X350966Y144199D02*
X348445D01*
Y136024D01*
X356620D01*
Y138545D01*
X350966Y144199D01*
D02*
G37*
G36*
X345492D02*
X342971D01*
X337317Y138545D01*
Y136024D01*
X345492D01*
Y144199D01*
D02*
G37*
G36*
X294150Y141150D02*
X287850D01*
Y134850D01*
X294150D01*
Y141150D01*
D02*
G37*
G36*
X64324Y147482D02*
X58983D01*
X55207Y143706D01*
Y138365D01*
X58983Y134589D01*
X64324D01*
X68100Y138365D01*
Y143706D01*
X64324Y147482D01*
D02*
G37*
G36*
X42670D02*
X37330D01*
X33553Y143706D01*
Y138365D01*
X37330Y134589D01*
X42670D01*
X46447Y138365D01*
Y143706D01*
X42670Y147482D01*
D02*
G37*
G36*
X356620Y133071D02*
X348445D01*
Y124896D01*
X350966D01*
X356620Y130549D01*
Y133071D01*
D02*
G37*
G36*
X345492D02*
X337317D01*
Y130549D01*
X342971Y124896D01*
X345492D01*
Y133071D01*
D02*
G37*
G36*
X128657Y133547D02*
X124417D01*
X121419Y130549D01*
Y126309D01*
X124417Y123311D01*
X128657D01*
X131655Y126309D01*
Y130549D01*
X128657Y133547D01*
D02*
G37*
G36*
X107003D02*
X102763D01*
X99765Y130549D01*
Y126309D01*
X102763Y123311D01*
X107003D01*
X110002Y126309D01*
Y130549D01*
X107003Y133547D01*
D02*
G37*
G36*
X64324Y130947D02*
X58983D01*
X55207Y127170D01*
Y121830D01*
X58983Y118053D01*
X64324D01*
X68100Y121830D01*
Y127170D01*
X64324Y130947D01*
D02*
G37*
G36*
X42670D02*
X37330D01*
X33553Y127170D01*
Y121830D01*
X37330Y118053D01*
X42670D01*
X46447Y121830D01*
Y127170D01*
X42670Y130947D01*
D02*
G37*
G36*
X128664Y117028D02*
X128013D01*
Y113370D01*
X131671D01*
Y114020D01*
X128664Y117028D01*
D02*
G37*
G36*
X107010D02*
X106360D01*
Y113370D01*
X110017D01*
Y114020D01*
X107010Y117028D01*
D02*
G37*
G36*
X103407D02*
X102757D01*
X99750Y114020D01*
Y113370D01*
X103407D01*
Y117028D01*
D02*
G37*
G36*
X125061D02*
X124410D01*
X121403Y114020D01*
Y113370D01*
X125061D01*
Y117028D01*
D02*
G37*
G36*
X64330Y114427D02*
X63130D01*
Y109441D01*
X68116D01*
Y110642D01*
X64330Y114427D01*
D02*
G37*
G36*
X42677D02*
X41476D01*
Y109441D01*
X46463D01*
Y110642D01*
X42677Y114427D01*
D02*
G37*
G36*
X60177D02*
X58977D01*
X55191Y110642D01*
Y109441D01*
X60177D01*
Y114427D01*
D02*
G37*
G36*
X38524D02*
X37323D01*
X33537Y110642D01*
Y109441D01*
X38524D01*
Y114427D01*
D02*
G37*
G36*
X131671Y110417D02*
X128013D01*
Y106760D01*
X128664D01*
X131671Y109767D01*
Y110417D01*
D02*
G37*
G36*
X125061D02*
X121403D01*
Y109767D01*
X124410Y106760D01*
X125061D01*
Y110417D01*
D02*
G37*
G36*
X110017D02*
X106360D01*
Y106760D01*
X107010D01*
X110017Y109767D01*
Y110417D01*
D02*
G37*
G36*
X103407D02*
X99750D01*
Y109767D01*
X102757Y106760D01*
X103407D01*
Y110417D01*
D02*
G37*
G36*
X168165Y105665D02*
X166476D01*
Y103976D01*
X168165D01*
Y105665D01*
D02*
G37*
G36*
X163524D02*
X161835D01*
Y103976D01*
X163524D01*
Y105665D01*
D02*
G37*
G36*
X68116Y106488D02*
X63130D01*
Y101502D01*
X64330D01*
X68116Y105288D01*
Y106488D01*
D02*
G37*
G36*
X60177D02*
X55191D01*
Y105288D01*
X58977Y101502D01*
X60177D01*
Y106488D01*
D02*
G37*
G36*
X46463D02*
X41476D01*
Y101502D01*
X42677D01*
X46463Y105288D01*
Y106488D01*
D02*
G37*
G36*
X38524D02*
X33537D01*
Y105288D01*
X37323Y101502D01*
X38524D01*
Y106488D01*
D02*
G37*
G36*
X168165Y101024D02*
X166476D01*
Y99335D01*
X168165D01*
Y101024D01*
D02*
G37*
G36*
X163524D02*
X161835D01*
Y99335D01*
X163524D01*
Y101024D01*
D02*
G37*
G36*
X274524Y97191D02*
X274306Y96973D01*
X274000Y96833D01*
X273694Y96973D01*
X273476Y97191D01*
Y96000D01*
Y94809D01*
X273694Y95027D01*
X274000Y95167D01*
X274306Y95027D01*
X274524Y94809D01*
Y96000D01*
Y97191D01*
D02*
G37*
G36*
X274315Y92202D02*
X274242Y92129D01*
X273902Y91796D01*
X273543Y92124D01*
X273476Y92191D01*
Y91000D01*
Y89809D01*
X273550Y89883D01*
X273890Y90215D01*
X274249Y89888D01*
X274315Y89821D01*
Y91012D01*
Y92202D01*
D02*
G37*
G36*
X128657Y100476D02*
X124417D01*
X121419Y97478D01*
Y93238D01*
X124417Y90240D01*
X128657D01*
X131655Y93238D01*
Y97478D01*
X128657Y100476D01*
D02*
G37*
G36*
X107003D02*
X102763D01*
X99765Y97478D01*
Y93238D01*
X102763Y90240D01*
X107003D01*
X110002Y93238D01*
Y97478D01*
X107003Y100476D01*
D02*
G37*
G36*
X298775Y89870D02*
X297225D01*
X296130Y88775D01*
Y87225D01*
X297225Y86130D01*
X298775D01*
X299870Y87225D01*
Y88775D01*
X298775Y89870D01*
D02*
G37*
G36*
X64324Y97876D02*
X58983D01*
X55207Y94099D01*
Y88759D01*
X58983Y84982D01*
X64324D01*
X68100Y88759D01*
Y94099D01*
X64324Y97876D01*
D02*
G37*
G36*
X42670D02*
X37330D01*
X33553Y94099D01*
Y88759D01*
X37330Y84982D01*
X42670D01*
X46447Y88759D01*
Y94099D01*
X42670Y97876D01*
D02*
G37*
G36*
X64324Y81340D02*
X58983D01*
X55207Y77564D01*
Y72223D01*
X58983Y68447D01*
X64324D01*
X68100Y72223D01*
Y77564D01*
X64324Y81340D01*
D02*
G37*
G36*
X42670D02*
X37330D01*
X33553Y77564D01*
Y72223D01*
X37330Y68447D01*
X42670D01*
X46447Y72223D01*
Y77564D01*
X42670Y81340D01*
D02*
G37*
G36*
X64324Y64805D02*
X58983D01*
X55207Y61029D01*
Y55688D01*
X58983Y51911D01*
X64324D01*
X68100Y55688D01*
Y61029D01*
X64324Y64805D01*
D02*
G37*
G36*
X42670D02*
X37330D01*
X33553Y61029D01*
Y55688D01*
X37330Y51911D01*
X42670D01*
X46447Y55688D01*
Y61029D01*
X42670Y64805D01*
D02*
G37*
G36*
X353750Y52196D02*
X351956D01*
X350687Y50928D01*
Y49134D01*
X351956Y47865D01*
X353750D01*
X355018Y49134D01*
Y50928D01*
X353750Y52196D01*
D02*
G37*
G36*
X343665Y45665D02*
X341976D01*
Y43976D01*
X343665D01*
Y45665D01*
D02*
G37*
G36*
X339024D02*
X337335D01*
Y43976D01*
X339024D01*
Y45665D01*
D02*
G37*
G36*
X317688Y43935D02*
X316976D01*
Y40130D01*
X320781D01*
Y40841D01*
X317688Y43935D01*
D02*
G37*
G36*
X314024D02*
X313312D01*
X310219Y40841D01*
Y40130D01*
X314024D01*
Y43935D01*
D02*
G37*
G36*
X286688D02*
X285976D01*
Y40130D01*
X289781D01*
Y40841D01*
X286688Y43935D01*
D02*
G37*
G36*
X283024D02*
X282312D01*
X279219Y40841D01*
Y40130D01*
X283024D01*
Y43935D01*
D02*
G37*
G36*
X343665Y41024D02*
X341976D01*
Y39335D01*
X343665D01*
Y41024D01*
D02*
G37*
G36*
X339024D02*
X337335D01*
Y39335D01*
X339024D01*
Y41024D01*
D02*
G37*
G36*
X64324Y48270D02*
X58983D01*
X55207Y44493D01*
Y39153D01*
X58983Y35376D01*
X64324D01*
X68100Y39153D01*
Y44493D01*
X64324Y48270D01*
D02*
G37*
G36*
X42670D02*
X37330D01*
X33553Y44493D01*
Y39153D01*
X37330Y35376D01*
X42670D01*
X46447Y39153D01*
Y44493D01*
X42670Y48270D01*
D02*
G37*
G36*
X14154Y48811D02*
X8365D01*
X4272Y44717D01*
Y38928D01*
X8365Y34835D01*
X14154D01*
X18248Y38928D01*
Y44717D01*
X14154Y48811D01*
D02*
G37*
G36*
X254717Y44766D02*
X250354D01*
X247270Y41681D01*
Y37319D01*
X250354Y34234D01*
X254717D01*
X257801Y37319D01*
Y41681D01*
X254717Y44766D01*
D02*
G37*
G36*
X238181D02*
X233819D01*
X230734Y41681D01*
Y37319D01*
X233819Y34234D01*
X238181D01*
X241266Y37319D01*
Y41681D01*
X238181Y44766D01*
D02*
G37*
G36*
X205217Y44419D02*
X200854D01*
X197770Y41335D01*
Y36972D01*
X200854Y33888D01*
X205217D01*
X208301Y36972D01*
Y41335D01*
X205217Y44419D01*
D02*
G37*
G36*
X188681D02*
X184319D01*
X181234Y41335D01*
Y36972D01*
X184319Y33888D01*
X188681D01*
X191766Y36972D01*
Y41335D01*
X188681Y44419D01*
D02*
G37*
G36*
X157681Y43919D02*
X153319D01*
X150234Y40835D01*
Y36472D01*
X153319Y33388D01*
X157681D01*
X160766Y36472D01*
Y40835D01*
X157681Y43919D01*
D02*
G37*
G36*
X141146D02*
X136783D01*
X133699Y40835D01*
Y36472D01*
X136783Y33388D01*
X141146D01*
X144230Y36472D01*
Y40835D01*
X141146Y43919D01*
D02*
G37*
G36*
X110217D02*
X105854D01*
X102770Y40835D01*
Y36472D01*
X105854Y33388D01*
X110217D01*
X113301Y36472D01*
Y40835D01*
X110217Y43919D01*
D02*
G37*
G36*
X93681D02*
X89319D01*
X86234Y40835D01*
Y36472D01*
X89319Y33388D01*
X93681D01*
X96766Y36472D01*
Y40835D01*
X93681Y43919D01*
D02*
G37*
G36*
X320781Y37177D02*
X316976D01*
Y33372D01*
X317688D01*
X320781Y36466D01*
Y37177D01*
D02*
G37*
G36*
X314024D02*
X310219D01*
Y36466D01*
X313312Y33372D01*
X314024D01*
Y37177D01*
D02*
G37*
G36*
X289781D02*
X285976D01*
Y33372D01*
X286688D01*
X289781Y36466D01*
Y37177D01*
D02*
G37*
G36*
X283024D02*
X279219D01*
Y36466D01*
X282312Y33372D01*
X283024D01*
Y37177D01*
D02*
G37*
G36*
X238188Y23128D02*
X237476D01*
Y19323D01*
X241282D01*
Y20034D01*
X238188Y23128D01*
D02*
G37*
G36*
X234524D02*
X233812D01*
X230718Y20034D01*
Y19323D01*
X234524D01*
Y23128D01*
D02*
G37*
G36*
X188688Y22782D02*
X187976D01*
Y18976D01*
X191781D01*
Y19688D01*
X188688Y22782D01*
D02*
G37*
G36*
X185024D02*
X184312D01*
X181219Y19688D01*
Y18976D01*
X185024D01*
Y22782D01*
D02*
G37*
G36*
X93688Y22282D02*
X92976D01*
Y18476D01*
X96781D01*
Y19188D01*
X93688Y22282D01*
D02*
G37*
G36*
X141152D02*
X140441D01*
Y18476D01*
X144246D01*
Y19188D01*
X141152Y22282D01*
D02*
G37*
G36*
X137488D02*
X136777D01*
X133683Y19188D01*
Y18476D01*
X137488D01*
Y22282D01*
D02*
G37*
G36*
X90024D02*
X89312D01*
X86219Y19188D01*
Y18476D01*
X90024D01*
Y22282D01*
D02*
G37*
G36*
X342650Y20150D02*
X336350D01*
Y13850D01*
X342650D01*
Y20150D01*
D02*
G37*
G36*
X257801Y23112D02*
X247270D01*
Y12581D01*
X257801D01*
Y23112D01*
D02*
G37*
G36*
X241282Y16370D02*
X237476D01*
Y12565D01*
X238188D01*
X241282Y15659D01*
Y16370D01*
D02*
G37*
G36*
X234524D02*
X230718D01*
Y15659D01*
X233812Y12565D01*
X234524D01*
Y16370D01*
D02*
G37*
G36*
X208301Y22766D02*
X197770D01*
Y12234D01*
X208301D01*
Y22766D01*
D02*
G37*
G36*
X191781Y16024D02*
X187976D01*
Y12218D01*
X188688D01*
X191781Y15312D01*
Y16024D01*
D02*
G37*
G36*
X185024D02*
X181219D01*
Y15312D01*
X184312Y12218D01*
X185024D01*
Y16024D01*
D02*
G37*
G36*
X320766Y22266D02*
X310234D01*
Y11734D01*
X320766D01*
Y22266D01*
D02*
G37*
G36*
X289766D02*
X279234D01*
Y11734D01*
X289766D01*
Y22266D01*
D02*
G37*
G36*
X160766D02*
X150234D01*
Y11734D01*
X160766D01*
Y22266D01*
D02*
G37*
G36*
X113301D02*
X102770D01*
Y11734D01*
X113301D01*
Y22266D01*
D02*
G37*
G36*
X144246Y15524D02*
X140441D01*
Y11718D01*
X141152D01*
X144246Y14812D01*
Y15524D01*
D02*
G37*
G36*
X137488D02*
X133683D01*
Y14812D01*
X136777Y11718D01*
X137488D01*
Y15524D01*
D02*
G37*
G36*
X96781D02*
X92976D01*
Y11718D01*
X93688D01*
X96781Y14812D01*
Y15524D01*
D02*
G37*
G36*
X90024D02*
X86219D01*
Y14812D01*
X89312Y11718D01*
X90024D01*
Y15524D01*
D02*
G37*
G36*
X371442Y28543D02*
X360842D01*
X353346Y21048D01*
Y10448D01*
X360842Y2953D01*
X371442D01*
X378937Y10448D01*
Y21048D01*
X371442Y28543D01*
D02*
G37*
%LPD*%
D71*
X284500Y38653D02*
D03*
X315500D02*
D03*
X297035Y380654D02*
D03*
X196500Y380153D02*
D03*
X246500D02*
D03*
X148000Y380000D02*
D03*
X236000Y17846D02*
D03*
X186500Y17500D02*
D03*
X138965Y17000D02*
D03*
X91500D02*
D03*
X99500Y379654D02*
D03*
D72*
X152500Y275000D02*
D03*
X340500Y42500D02*
D03*
X165000Y102500D02*
D03*
D73*
X104884Y111894D02*
D03*
X126537D02*
D03*
D74*
X40000Y107965D02*
D03*
X61654D02*
D03*
X39500Y248500D02*
D03*
X61154Y231965D02*
D03*
Y298106D02*
D03*
D76*
X329252Y160138D02*
D03*
Y223130D02*
D03*
X345000Y168012D02*
D03*
Y199508D02*
D03*
Y231004D02*
D03*
Y246752D02*
D03*
X360748Y238878D02*
D03*
D77*
X346969Y134547D02*
D03*
Y295965D02*
D03*
D78*
X47000Y327606D02*
D03*
Y378394D02*
D03*
D79*
X19795Y325835D02*
D03*
Y380165D02*
D03*
D81*
X267500Y91000D02*
D03*
X272000D02*
D03*
X275791Y91012D02*
D03*
X267500Y96000D02*
D03*
X272000D02*
D03*
X276000D02*
D03*
M02*
