G04*
G04 #@! TF.GenerationSoftware,Altium Limited,Altium Designer,21.0.9 (235)*
G04*
G04 Layer_Color=8421504*
%FSLAX25Y25*%
%MOIN*%
G70*
G04*
G04 #@! TF.SameCoordinates,91F4C2CD-C4D8-4C02-87E3-D191CECDD99B*
G04*
G04*
G04 #@! TF.FilePolarity,Positive*
G04*
G01*
G75*
%ADD14R,0.03347X0.03740*%
%ADD15R,0.04724X0.04724*%
%ADD16R,0.05315X0.01575*%
%ADD17R,0.06299X0.08268*%
%ADD18R,0.07480X0.07087*%
%ADD19R,0.07480X0.07480*%
%ADD20R,0.12598X0.06299*%
%ADD21R,0.03543X0.03937*%
%ADD22R,0.20079X0.12402*%
%ADD23O,0.12795X0.05906*%
%ADD24R,0.03740X0.03347*%
%ADD25R,0.03937X0.03543*%
%ADD26R,0.05118X0.07087*%
%ADD27R,0.12205X0.09449*%
%ADD28R,0.02559X0.06004*%
%ADD29R,0.02559X0.05906*%
%ADD30R,0.05807X0.01772*%
%ADD31R,0.09646X0.12402*%
D14*
X56559Y15000D02*
D03*
X51441D02*
D03*
X216441Y61500D02*
D03*
X221559D02*
D03*
X174059Y313500D02*
D03*
X168941D02*
D03*
D15*
X287500Y301134D02*
D03*
Y292866D02*
D03*
D16*
X369172Y49957D02*
D03*
Y52517D02*
D03*
Y55076D02*
D03*
Y57635D02*
D03*
Y60194D02*
D03*
D17*
X369665Y42871D02*
D03*
Y67280D02*
D03*
D18*
X379700Y40115D02*
D03*
Y70036D02*
D03*
D19*
Y50351D02*
D03*
Y59800D02*
D03*
D20*
X264595Y196363D02*
D03*
X284279D02*
D03*
D21*
X266843Y215500D02*
D03*
X272158D02*
D03*
X270342Y136500D02*
D03*
X275658D02*
D03*
X218843Y282000D02*
D03*
X224158D02*
D03*
X219342Y243000D02*
D03*
X224658D02*
D03*
X203842Y282000D02*
D03*
X209157D02*
D03*
D22*
X226000Y196079D02*
D03*
Y155921D02*
D03*
D23*
X49937Y356937D02*
D03*
Y349063D02*
D03*
Y366779D02*
D03*
Y339220D02*
D03*
D24*
X289437Y77941D02*
D03*
Y83059D02*
D03*
X298000Y83059D02*
D03*
Y77941D02*
D03*
X160500Y314059D02*
D03*
Y308941D02*
D03*
X146500Y316059D02*
D03*
Y310941D02*
D03*
D25*
X255000Y103342D02*
D03*
Y108658D02*
D03*
X193500Y305157D02*
D03*
Y299843D02*
D03*
X186000Y305157D02*
D03*
Y299843D02*
D03*
D26*
X281709Y125500D02*
D03*
X270291D02*
D03*
X281709Y115000D02*
D03*
X270291D02*
D03*
D27*
X271937Y93189D02*
D03*
D28*
X264437Y103866D02*
D03*
X269437D02*
D03*
X274437D02*
D03*
X279437D02*
D03*
Y82512D02*
D03*
X274437D02*
D03*
X269437D02*
D03*
X264437D02*
D03*
D29*
X219000Y250870D02*
D03*
X214000D02*
D03*
X209000D02*
D03*
X204000D02*
D03*
Y272130D02*
D03*
X209000D02*
D03*
X214000D02*
D03*
X219000D02*
D03*
D30*
X202933Y305984D02*
D03*
Y308543D02*
D03*
Y311102D02*
D03*
Y313661D02*
D03*
Y316220D02*
D03*
Y318779D02*
D03*
Y321339D02*
D03*
Y323898D02*
D03*
Y326457D02*
D03*
Y329016D02*
D03*
X226067D02*
D03*
Y326457D02*
D03*
Y323898D02*
D03*
Y321339D02*
D03*
Y318779D02*
D03*
Y316220D02*
D03*
Y313661D02*
D03*
Y311102D02*
D03*
Y308543D02*
D03*
Y305984D02*
D03*
D31*
X264158Y161000D02*
D03*
X288567D02*
D03*
M02*
