G04*
G04 #@! TF.GenerationSoftware,Altium Limited,Altium Designer,21.0.9 (235)*
G04*
G04 Layer_Physical_Order=1*
G04 Layer_Color=255*
%FSLAX25Y25*%
%MOIN*%
G70*
G04*
G04 #@! TF.SameCoordinates,BA8C7152-59F1-4345-8518-0593712C2385*
G04*
G04*
G04 #@! TF.FilePolarity,Positive*
G04*
G01*
G75*
%ADD13C,0.01000*%
%ADD14R,0.09646X0.12402*%
%ADD15R,0.02559X0.05906*%
%ADD16R,0.05807X0.01772*%
%ADD17R,0.20079X0.12402*%
%ADD18R,0.05315X0.01575*%
%ADD19R,0.06299X0.08268*%
%ADD20R,0.07480X0.07087*%
%ADD21R,0.07480X0.07480*%
%ADD22O,0.12795X0.05906*%
%ADD23R,0.12205X0.09449*%
%ADD24R,0.03740X0.03347*%
%ADD25R,0.04724X0.04724*%
%ADD26R,0.03347X0.03740*%
%ADD27R,0.12598X0.06299*%
%ADD28R,0.03543X0.03937*%
%ADD29R,0.03937X0.03543*%
%ADD30R,0.05118X0.07087*%
%ADD31R,0.02559X0.06004*%
%ADD64C,0.01968*%
%ADD65C,0.03937*%
%ADD66C,0.00800*%
%ADD67C,0.01181*%
%ADD68C,0.02953*%
%ADD69C,0.01575*%
%ADD70R,0.08563X0.08563*%
%ADD71C,0.08563*%
%ADD72R,0.04331X0.04331*%
%ADD73C,0.08268*%
%ADD74C,0.10925*%
%ADD75C,0.06004*%
%ADD76C,0.10335*%
%ADD77C,0.17303*%
%ADD78O,0.15748X0.11024*%
%ADD79O,0.18898X0.11024*%
%ADD80C,0.23622*%
%ADD81C,0.01772*%
%ADD82C,0.03150*%
%ADD83C,0.02362*%
G36*
X385697Y803D02*
X328057D01*
Y12845D01*
X327611Y13921D01*
X327889Y14337D01*
X336350D01*
Y13850D01*
X342650D01*
Y20150D01*
X336350D01*
Y19663D01*
X327889D01*
X327611Y20079D01*
X328057Y21155D01*
Y26600D01*
X327308Y28408D01*
X325500Y29157D01*
X135520D01*
X135168Y29511D01*
X135192Y34067D01*
X135609Y34344D01*
X138965Y32954D01*
X142995Y34623D01*
X144664Y38653D01*
X142995Y42684D01*
X138965Y44353D01*
X135657Y42983D01*
X135242Y43262D01*
X135564Y102762D01*
X135562Y102766D01*
X135564Y102769D01*
X135193Y103672D01*
X134825Y104574D01*
X134821Y104576D01*
X134820Y104579D01*
X134467Y104934D01*
X134464Y104935D01*
X134462Y104939D01*
X133562Y105312D01*
X132661Y105687D01*
X132658Y105686D01*
X132654Y105687D01*
X118500D01*
X116692Y104939D01*
X115943Y103131D01*
Y27684D01*
X98500D01*
X96692Y26935D01*
X95943Y25127D01*
Y21295D01*
X95443Y21083D01*
X92976Y22105D01*
Y17000D01*
Y11895D01*
X95443Y12917D01*
X95943Y12705D01*
Y803D01*
X803D01*
Y392197D01*
X365789D01*
X365888Y391697D01*
X356349Y387746D01*
X352292Y377953D01*
X356349Y368160D01*
X366142Y364103D01*
X375935Y368160D01*
X379991Y377953D01*
X375935Y387746D01*
X366395Y391697D01*
X366495Y392197D01*
X385697D01*
Y803D01*
D02*
G37*
G36*
X133007Y102776D02*
X132672Y40823D01*
X131773Y38653D01*
X132649Y36540D01*
X132600Y27500D01*
X133500Y26600D01*
X325500D01*
Y21155D01*
X320569D01*
Y22069D01*
X317862D01*
Y17000D01*
Y11931D01*
X320569D01*
Y12845D01*
X325500D01*
Y803D01*
X98500D01*
Y16539D01*
X98691Y17000D01*
X98500Y17461D01*
Y25127D01*
X118500D01*
Y103131D01*
X132654D01*
X133007Y102776D01*
D02*
G37*
%LPC*%
G36*
X298512Y385759D02*
Y382130D01*
X302140D01*
X301078Y384696D01*
X298512Y385759D01*
D02*
G37*
G36*
X295559D02*
X292993Y384696D01*
X291930Y382130D01*
X295559D01*
Y385759D01*
D02*
G37*
G36*
X23732Y387214D02*
X21272D01*
Y381642D01*
X30169D01*
X28716Y385149D01*
X23732Y387214D01*
D02*
G37*
G36*
X18319D02*
X15858D01*
X10874Y385149D01*
X9421Y381642D01*
X18319D01*
Y387214D01*
D02*
G37*
G36*
X247976Y385259D02*
Y381630D01*
X251605D01*
X250542Y384196D01*
X247976Y385259D01*
D02*
G37*
G36*
X245024D02*
X242458Y384196D01*
X241395Y381630D01*
X245024D01*
Y385259D01*
D02*
G37*
G36*
X197976D02*
Y381630D01*
X201605D01*
X200542Y384196D01*
X197976Y385259D01*
D02*
G37*
G36*
X195024D02*
X192458Y384196D01*
X191395Y381630D01*
X195024D01*
Y385259D01*
D02*
G37*
G36*
X149476Y385105D02*
Y381476D01*
X153105D01*
X152042Y384042D01*
X149476Y385105D01*
D02*
G37*
G36*
X146524D02*
X143958Y384042D01*
X142895Y381476D01*
X146524D01*
Y385105D01*
D02*
G37*
G36*
X100976Y384759D02*
Y381130D01*
X104605D01*
X103542Y383696D01*
X100976Y384759D01*
D02*
G37*
G36*
X98024D02*
X95458Y383696D01*
X94395Y381130D01*
X98024D01*
Y384759D01*
D02*
G37*
G36*
X49362Y385442D02*
X48476D01*
Y379870D01*
X55799D01*
X54346Y383378D01*
X49362Y385442D01*
D02*
G37*
G36*
X45524D02*
X44638D01*
X39654Y383378D01*
X38201Y379870D01*
X45524D01*
Y385442D01*
D02*
G37*
G36*
X302140Y379177D02*
X298512D01*
Y375548D01*
X301078Y376611D01*
X302140Y379177D01*
D02*
G37*
G36*
X295559D02*
X291930D01*
X292993Y376611D01*
X295559Y375548D01*
Y379177D01*
D02*
G37*
G36*
X285766Y385919D02*
X275234D01*
Y375388D01*
X285766D01*
Y385919D01*
D02*
G37*
G36*
X251605Y378677D02*
X247976D01*
Y375048D01*
X250542Y376111D01*
X251605Y378677D01*
D02*
G37*
G36*
X245024D02*
X241395D01*
X242458Y376111D01*
X245024Y375048D01*
Y378677D01*
D02*
G37*
G36*
X201605D02*
X197976D01*
Y375048D01*
X200542Y376111D01*
X201605Y378677D01*
D02*
G37*
G36*
X195024D02*
X191395D01*
X192458Y376111D01*
X195024Y375048D01*
Y378677D01*
D02*
G37*
G36*
X153105Y378524D02*
X149476D01*
Y374895D01*
X152042Y375958D01*
X153105Y378524D01*
D02*
G37*
G36*
X146524D02*
X142895D01*
X143958Y375958D01*
X146524Y374895D01*
Y378524D01*
D02*
G37*
G36*
X235230Y385419D02*
X224699D01*
Y374888D01*
X235230D01*
Y385419D01*
D02*
G37*
G36*
X185230D02*
X174699D01*
Y374888D01*
X185230D01*
Y385419D01*
D02*
G37*
G36*
X136730Y385266D02*
X126199D01*
Y374734D01*
X136730D01*
Y385266D01*
D02*
G37*
G36*
X104605Y378177D02*
X100976D01*
Y374548D01*
X103542Y375611D01*
X104605Y378177D01*
D02*
G37*
G36*
X98024D02*
X94395D01*
X95458Y375611D01*
X98024Y374548D01*
Y378177D01*
D02*
G37*
G36*
X88230Y384919D02*
X77699D01*
Y374388D01*
X88230D01*
Y384919D01*
D02*
G37*
G36*
X30169Y378689D02*
X21272D01*
Y373117D01*
X23732D01*
X28716Y375181D01*
X30169Y378689D01*
D02*
G37*
G36*
X18319D02*
X9421D01*
X10874Y375181D01*
X15858Y373117D01*
X18319D01*
Y378689D01*
D02*
G37*
G36*
X59382Y371041D02*
X52492D01*
X49479Y369793D01*
X48231Y366779D01*
X49479Y363766D01*
X52492Y362518D01*
X59382D01*
X62395Y363766D01*
X62469Y363944D01*
X67140D01*
X69400Y364880D01*
X70336Y367140D01*
X70228Y367399D01*
X70270Y367500D01*
X69459Y369459D01*
X67500Y370270D01*
X67399Y370228D01*
X67140Y370336D01*
X61084D01*
X59382Y371041D01*
D02*
G37*
G36*
X297035Y364700D02*
X293005Y363030D01*
X291336Y359000D01*
X292340Y356576D01*
X257399Y321636D01*
X257399Y321636D01*
X257399Y321636D01*
X253590Y317827D01*
X242252D01*
X242061Y318289D01*
X278076Y354304D01*
X280500Y353300D01*
X284530Y354970D01*
X286200Y359000D01*
X284530Y363030D01*
X280500Y364700D01*
X276470Y363030D01*
X274800Y359000D01*
X275804Y356576D01*
X239614Y320386D01*
X234743D01*
X234465Y320802D01*
X234687Y321337D01*
X234483Y321829D01*
X234398Y322291D01*
X235534Y322762D01*
X247636Y334864D01*
X247636Y334864D01*
X248107Y336000D01*
X248107Y336000D01*
Y353466D01*
X250530Y354470D01*
X252200Y358500D01*
X250530Y362530D01*
X246500Y364200D01*
X242470Y362530D01*
X240800Y358500D01*
X242470Y354470D01*
X244894Y353466D01*
Y336666D01*
X234022Y325794D01*
X233958Y325807D01*
X233793Y326349D01*
X235136Y327692D01*
X235136Y327692D01*
X235607Y328828D01*
Y354465D01*
X235607Y354465D01*
X235136Y355601D01*
X234660Y356076D01*
X235664Y358500D01*
X233995Y362530D01*
X229965Y364200D01*
X225934Y362530D01*
X224265Y358500D01*
X225934Y354470D01*
X229965Y352800D01*
X231893Y353599D01*
X232394Y353265D01*
Y329494D01*
X230963Y328063D01*
X229971D01*
Y330902D01*
X227543D01*
Y329016D01*
X226067D01*
Y328327D01*
X222179D01*
Y327539D01*
X222163D01*
Y327130D01*
X222179D01*
Y324587D01*
Y322028D01*
Y319468D01*
Y316910D01*
Y312988D01*
X222163D01*
Y312579D01*
X222179D01*
Y311791D01*
X226067D01*
Y310020D01*
X229971D01*
Y312055D01*
X231656D01*
X232663Y311638D01*
X233434Y311958D01*
X346631D01*
X359044Y299546D01*
Y276326D01*
X356040Y275082D01*
X354090Y270374D01*
X356040Y265666D01*
X360748Y263716D01*
X365456Y265666D01*
X367406Y270374D01*
X365456Y275082D01*
X362453Y276326D01*
Y300252D01*
X361953Y301457D01*
X348543Y314868D01*
X347337Y315367D01*
X256328D01*
X256137Y315829D01*
X259671Y319364D01*
X259671Y319364D01*
X294612Y354304D01*
X297035Y353300D01*
X301066Y354970D01*
X302735Y359000D01*
X301066Y363030D01*
X297035Y364700D01*
D02*
G37*
G36*
X82965Y363700D02*
X78934Y362030D01*
X77265Y358000D01*
X78934Y353970D01*
X82965Y352300D01*
X86995Y353970D01*
X88664Y358000D01*
X86995Y362030D01*
X82965Y363700D01*
D02*
G37*
G36*
X59382Y361198D02*
X52492D01*
X49479Y359950D01*
X48231Y356937D01*
X49479Y353924D01*
X51105Y353250D01*
Y352750D01*
X49479Y352076D01*
X48231Y349063D01*
X49479Y346050D01*
X52492Y344802D01*
X59382D01*
X62395Y346050D01*
X63643Y349063D01*
X62395Y352076D01*
X60769Y352750D01*
Y353250D01*
X62395Y353924D01*
X63643Y356937D01*
X62395Y359950D01*
X59382Y361198D01*
D02*
G37*
G36*
Y343499D02*
X57413D01*
Y340697D01*
X63049D01*
X62407Y342246D01*
X59382Y343499D01*
D02*
G37*
G36*
X54461D02*
X52492D01*
X49467Y342246D01*
X48825Y340697D01*
X54461D01*
Y343499D01*
D02*
G37*
G36*
X63049Y337744D02*
X57413D01*
Y334942D01*
X59382D01*
X62407Y336195D01*
X63049Y337744D01*
D02*
G37*
G36*
X54461D02*
X48825D01*
X49467Y336195D01*
X52492Y334942D01*
X54461D01*
Y337744D01*
D02*
G37*
G36*
X108732Y334870D02*
X107535D01*
Y333476D01*
X108732D01*
Y334870D01*
D02*
G37*
G36*
X224590Y330902D02*
X222163D01*
Y330492D01*
X224590D01*
Y330902D01*
D02*
G37*
G36*
X108732Y330524D02*
X107535D01*
Y329130D01*
X108732D01*
Y330524D01*
D02*
G37*
G36*
X55799Y376917D02*
X47000D01*
X38201D01*
X39654Y373410D01*
X44474Y371413D01*
X44374Y370913D01*
X19835D01*
Y335087D01*
X44374D01*
X44474Y334587D01*
X39654Y332590D01*
X38201Y329083D01*
X47000D01*
X55799D01*
X54346Y332590D01*
X49362Y334655D01*
X45786D01*
X45622Y335087D01*
X45622Y335155D01*
Y370845D01*
X45622Y370913D01*
X45786Y371345D01*
X49362D01*
X54346Y373410D01*
X55799Y376917D01*
D02*
G37*
G36*
X196500Y364200D02*
X192470Y362530D01*
X190800Y358500D01*
X192404Y354629D01*
X192364Y354590D01*
X191893Y353453D01*
X191893Y353453D01*
Y328586D01*
X191657Y328418D01*
X191431Y328341D01*
X181571Y338201D01*
Y353466D01*
X183995Y354470D01*
X185664Y358500D01*
X183995Y362530D01*
X179965Y364200D01*
X175934Y362530D01*
X174265Y358500D01*
X175934Y354470D01*
X178358Y353466D01*
Y337535D01*
X178358Y337535D01*
X178829Y336399D01*
X192466Y322762D01*
X192466Y322762D01*
X193602Y322291D01*
X193602Y322291D01*
X195581D01*
X195859Y321875D01*
X195637Y321339D01*
X195859Y320802D01*
X195582Y320386D01*
X190386D01*
X153326Y357446D01*
X153700Y358347D01*
X152030Y362377D01*
X148000Y364046D01*
X143970Y362377D01*
X142300Y358347D01*
X143970Y354316D01*
X148000Y352647D01*
X151946Y354281D01*
X187939Y318289D01*
X187748Y317827D01*
X175945D01*
X136655Y357117D01*
X137164Y358347D01*
X135495Y362377D01*
X131465Y364046D01*
X127434Y362377D01*
X125765Y358347D01*
X127434Y354316D01*
X131465Y352647D01*
X135082Y354146D01*
X172250Y316978D01*
X172252Y316819D01*
X171800Y316354D01*
X171737Y316354D01*
X167114D01*
Y316370D01*
X165917D01*
Y313500D01*
X164441D01*
Y312024D01*
X161768D01*
Y310630D01*
X161768D01*
X161720Y310150D01*
X157854D01*
Y311902D01*
Y317216D01*
X156606D01*
Y320434D01*
X156931Y320569D01*
X157524Y322000D01*
X156931Y323431D01*
X155500Y324024D01*
X154069Y323431D01*
X153476Y322000D01*
X153581Y321745D01*
X153393Y321291D01*
X153393Y321291D01*
Y317216D01*
X152146D01*
Y311902D01*
Y310293D01*
X151080Y309852D01*
X107799Y266571D01*
X67496D01*
X66088Y269970D01*
X62627Y271403D01*
X62725Y271894D01*
X98305D01*
X98305Y271893D01*
X99441Y272364D01*
X136411Y309334D01*
X139146D01*
Y308283D01*
X144854D01*
Y309334D01*
X147547D01*
X148561Y308914D01*
X149993Y309507D01*
X150586Y310939D01*
X149993Y312370D01*
X148561Y312963D01*
X147559Y312547D01*
X144854D01*
Y318717D01*
X143606D01*
Y321791D01*
X143606Y321791D01*
X143471Y322119D01*
X143598Y322426D01*
X143005Y323857D01*
X141574Y324450D01*
X140566Y324033D01*
X108716D01*
Y324854D01*
X102606D01*
Y329146D01*
X103386D01*
Y329130D01*
X104583D01*
Y332000D01*
Y334870D01*
X103386D01*
Y334854D01*
X102374D01*
Y353491D01*
X103530Y353970D01*
X105200Y358000D01*
X103530Y362030D01*
X99500Y363700D01*
X95470Y362030D01*
X93800Y358000D01*
X95470Y353970D01*
X99161Y352441D01*
Y334854D01*
X98283D01*
Y329146D01*
X99393D01*
Y324854D01*
X98283D01*
Y319146D01*
X108716D01*
Y320820D01*
X140393D01*
Y318717D01*
X139146D01*
Y312547D01*
X135746D01*
X135746Y312547D01*
X134610Y312077D01*
X134610Y312077D01*
X97640Y275107D01*
X63675D01*
X63578Y275597D01*
X66088Y276637D01*
X68132Y281571D01*
X66088Y286505D01*
X61154Y288549D01*
X56219Y286505D01*
X54176Y281571D01*
X56219Y276637D01*
X58729Y275597D01*
X58632Y275107D01*
X46382D01*
X46382Y275107D01*
X45246Y274636D01*
X45246Y274636D01*
X41709Y271099D01*
X39500Y272013D01*
X34566Y269970D01*
X32522Y265035D01*
X34566Y260101D01*
X39500Y258057D01*
X44434Y260101D01*
X46478Y265035D01*
X44636Y269482D01*
X47047Y271894D01*
X59582D01*
X59680Y271403D01*
X56219Y269970D01*
X54176Y265035D01*
X56219Y260101D01*
X61154Y258057D01*
X66088Y260101D01*
X67437Y263358D01*
X108465D01*
X108465Y263358D01*
X109601Y263829D01*
X152556Y306784D01*
X157854D01*
Y306937D01*
X179508D01*
X179605Y306446D01*
X179569Y306431D01*
X178976Y305000D01*
X179569Y303569D01*
X181000Y302976D01*
X182152Y303453D01*
X183047D01*
Y302614D01*
X183031D01*
Y301319D01*
X186000D01*
X188969D01*
Y302614D01*
X188953D01*
Y303453D01*
X190547D01*
Y302614D01*
X190532D01*
Y301319D01*
X193500D01*
X196468D01*
Y302614D01*
X196453D01*
Y304378D01*
X199045D01*
Y304114D01*
X206821D01*
Y306673D01*
Y309232D01*
Y311791D01*
Y314350D01*
Y316910D01*
Y319468D01*
Y322028D01*
Y324587D01*
Y327146D01*
Y330886D01*
X199045D01*
Y330614D01*
X198489D01*
X197500Y331024D01*
X196069Y330431D01*
X195797Y329776D01*
X195161Y329525D01*
X195106Y329550D01*
Y352788D01*
X195523Y353205D01*
X196500Y352800D01*
X200530Y354470D01*
X202200Y358500D01*
X200530Y362530D01*
X196500Y364200D01*
D02*
G37*
G36*
X23732Y332883D02*
X21272D01*
Y327311D01*
X30169D01*
X28716Y330819D01*
X23732Y332883D01*
D02*
G37*
G36*
X18319D02*
X15858D01*
X10874Y330819D01*
X9421Y327311D01*
X18319D01*
Y332883D01*
D02*
G37*
G36*
X55799Y326130D02*
X48476D01*
Y320558D01*
X49362D01*
X54346Y322622D01*
X55799Y326130D01*
D02*
G37*
G36*
X45524D02*
X38201D01*
X39654Y322622D01*
X44638Y320558D01*
X45524D01*
Y326130D01*
D02*
G37*
G36*
X30169Y324358D02*
X21272D01*
Y318786D01*
X23732D01*
X28716Y320851D01*
X30169Y324358D01*
D02*
G37*
G36*
X18319D02*
X9421D01*
X10874Y320851D01*
X15858Y318786D01*
X18319D01*
Y324358D01*
D02*
G37*
G36*
X162965Y316370D02*
X161768D01*
Y314976D01*
X162965D01*
Y316370D01*
D02*
G37*
G36*
X229971Y304508D02*
X227543D01*
Y304098D01*
X229971D01*
Y304508D01*
D02*
G37*
G36*
X224590D02*
X222163D01*
Y304098D01*
X224590D01*
Y304508D01*
D02*
G37*
G36*
X272362Y303496D02*
X270476D01*
Y301610D01*
X272362D01*
Y303496D01*
D02*
G37*
G36*
X295362D02*
X293476D01*
Y301610D01*
X295362D01*
Y303496D01*
D02*
G37*
G36*
X267524D02*
X265638D01*
Y301610D01*
X267524D01*
Y303496D01*
D02*
G37*
G36*
X290524D02*
X288638D01*
Y301610D01*
X290524D01*
Y303496D01*
D02*
G37*
G36*
X62630Y304490D02*
Y299583D01*
X67537D01*
X66100Y303053D01*
X62630Y304490D01*
D02*
G37*
G36*
X59677Y304490D02*
X56207Y303053D01*
X54770Y299583D01*
X59677D01*
Y304490D01*
D02*
G37*
G36*
X348445Y305800D02*
Y297441D01*
X356804D01*
X354356Y303352D01*
X348445Y305800D01*
D02*
G37*
G36*
X345492D02*
X339581Y303352D01*
X337133Y297441D01*
X345492D01*
Y305800D01*
D02*
G37*
G36*
X196468Y298366D02*
X194976D01*
Y297071D01*
X196468D01*
Y298366D01*
D02*
G37*
G36*
X192024D02*
X190532D01*
Y297071D01*
X192024D01*
Y298366D01*
D02*
G37*
G36*
X188969D02*
X187476D01*
Y297071D01*
X188969D01*
Y298366D01*
D02*
G37*
G36*
X184524D02*
X183031D01*
Y297071D01*
X184524D01*
Y298366D01*
D02*
G37*
G36*
X295362Y298657D02*
X293476D01*
Y296772D01*
X295362D01*
Y298657D01*
D02*
G37*
G36*
X290524D02*
X288638D01*
Y296772D01*
X290524D01*
Y298657D01*
D02*
G37*
G36*
X272362D02*
X270476D01*
Y296772D01*
X272362D01*
Y298657D01*
D02*
G37*
G36*
X267524D02*
X265638D01*
Y296772D01*
X267524D01*
Y298657D01*
D02*
G37*
G36*
X251150Y300150D02*
X244850D01*
Y293850D01*
X251150D01*
Y300150D01*
D02*
G37*
G36*
X59677Y296630D02*
X54770D01*
X56207Y293160D01*
X59677Y291723D01*
Y296630D01*
D02*
G37*
G36*
X67537D02*
X62630D01*
Y291723D01*
X66100Y293160D01*
X67537Y296630D01*
D02*
G37*
G36*
X39500Y305084D02*
X34566Y303041D01*
X32522Y298106D01*
X34566Y293172D01*
X39500Y291128D01*
X44434Y293172D01*
X46478Y298106D01*
X44434Y303041D01*
X39500Y305084D01*
D02*
G37*
G36*
X10760Y305670D02*
X5411Y303455D01*
X3196Y298106D01*
X5411Y292758D01*
X10760Y290542D01*
X16108Y292758D01*
X18324Y298106D01*
X16108Y303455D01*
X10760Y305670D01*
D02*
G37*
G36*
X356804Y294488D02*
X348445D01*
Y286129D01*
X354356Y288578D01*
X356804Y294488D01*
D02*
G37*
G36*
X345492D02*
X337133D01*
X339581Y288578D01*
X345492Y286129D01*
Y294488D01*
D02*
G37*
G36*
X226929Y284968D02*
X225634D01*
Y283476D01*
X226929D01*
Y284968D01*
D02*
G37*
G36*
X211929D02*
X210634D01*
Y283476D01*
X211929D01*
Y284968D01*
D02*
G37*
G36*
X226929Y280524D02*
X225634D01*
Y279031D01*
X226929D01*
Y280524D01*
D02*
G37*
G36*
X211929D02*
X210634D01*
Y279031D01*
X211929D01*
Y280524D01*
D02*
G37*
G36*
X207681Y284968D02*
X206386D01*
Y284953D01*
X201087D01*
Y279047D01*
X202394D01*
Y276067D01*
X201736D01*
Y268193D01*
X206236D01*
X206264Y268193D01*
X206736D01*
X206764Y268193D01*
X211227D01*
X211720Y268177D01*
X211757Y268177D01*
X212524D01*
Y272130D01*
Y276083D01*
X211757D01*
X211720Y276083D01*
X211227Y276067D01*
X206764D01*
X206736Y276067D01*
X206264D01*
X206236Y276067D01*
X205607D01*
Y279047D01*
X206386D01*
Y279031D01*
X207681D01*
Y282000D01*
Y284968D01*
D02*
G37*
G36*
X155665Y278165D02*
X153976D01*
Y276476D01*
X155665D01*
Y278165D01*
D02*
G37*
G36*
X151024D02*
X149335D01*
Y276476D01*
X151024D01*
Y278165D01*
D02*
G37*
G36*
X218500Y289524D02*
X217069Y288931D01*
X216476Y287500D01*
X216712Y286930D01*
Y284953D01*
X216087D01*
Y279047D01*
X216869D01*
Y276530D01*
X216369Y276080D01*
X216280Y276083D01*
X216243Y276083D01*
X215476D01*
Y272130D01*
Y268177D01*
X216243D01*
X216280Y268177D01*
X216773Y268193D01*
X221264D01*
Y276067D01*
X221131D01*
Y278637D01*
X221386Y279031D01*
X222681D01*
Y282000D01*
Y284968D01*
X221386D01*
X220973Y285179D01*
Y287158D01*
X220349Y288664D01*
X219978Y288818D01*
X219931Y288931D01*
X218500Y289524D01*
D02*
G37*
G36*
X39500Y288549D02*
X34566Y286505D01*
X32522Y281571D01*
X34566Y276637D01*
X39500Y274593D01*
X44434Y276637D01*
X46478Y281571D01*
X44434Y286505D01*
X39500Y288549D01*
D02*
G37*
G36*
X155665Y273524D02*
X153976D01*
Y271835D01*
X155665D01*
Y273524D01*
D02*
G37*
G36*
X151024D02*
X149335D01*
Y271835D01*
X151024D01*
Y273524D01*
D02*
G37*
G36*
X272346Y295213D02*
X265653D01*
Y288520D01*
X267393D01*
Y285717D01*
X266146D01*
Y280402D01*
Y275284D01*
X267393D01*
Y273508D01*
X266976Y272500D01*
X267569Y271069D01*
X269000Y270476D01*
X270431Y271069D01*
X271024Y272500D01*
X270606Y273508D01*
Y275284D01*
X271854D01*
Y280402D01*
Y285717D01*
X270606D01*
Y288520D01*
X272346D01*
Y290709D01*
X272469Y291004D01*
X272346Y291299D01*
Y295213D01*
D02*
G37*
G36*
X295346D02*
X288653D01*
Y288520D01*
X290393D01*
Y285216D01*
X289146D01*
Y279902D01*
Y274783D01*
X294854D01*
Y275893D01*
X325221D01*
X325318Y275403D01*
X324544Y275082D01*
X322594Y270374D01*
X324544Y265666D01*
X329252Y263716D01*
X333960Y265666D01*
X335910Y270374D01*
X333960Y275082D01*
X333186Y275403D01*
X333283Y275893D01*
X340335D01*
X347627Y268601D01*
X347349Y268185D01*
X345000Y269158D01*
X340292Y267208D01*
X338342Y262500D01*
X340292Y257792D01*
X345000Y255842D01*
X349708Y257792D01*
X351658Y262500D01*
X350685Y264849D01*
X351101Y265127D01*
X356326Y259903D01*
X356228Y259412D01*
X356040Y259334D01*
X354090Y254626D01*
X356040Y249918D01*
X360748Y247968D01*
X365456Y249918D01*
X367406Y254626D01*
X365456Y259334D01*
X360748Y261284D01*
X359857Y260915D01*
X342136Y278636D01*
X341000Y279107D01*
X341000Y279106D01*
X294854D01*
Y285216D01*
X293606D01*
Y288520D01*
X295346D01*
Y295213D01*
D02*
G37*
G36*
X216736Y254807D02*
X216264D01*
X216236Y254807D01*
X211764D01*
X211736Y254807D01*
X211264D01*
X211236Y254807D01*
X206764D01*
X206736Y254807D01*
X206264D01*
X206236Y254807D01*
X201736D01*
Y246933D01*
X206236D01*
X206264Y246933D01*
X206736D01*
X206869Y246477D01*
Y243000D01*
X207493Y241493D01*
X209000Y240869D01*
X216587D01*
Y240047D01*
X221886D01*
Y240032D01*
X223181D01*
Y243000D01*
X224658D01*
D01*
X223181D01*
Y245969D01*
X221886D01*
Y245953D01*
X221131D01*
Y246933D01*
X221264D01*
Y254807D01*
X216764D01*
X216736Y254807D01*
D02*
G37*
G36*
X40976Y254884D02*
Y249976D01*
X45884D01*
X44446Y253446D01*
X40976Y254884D01*
D02*
G37*
G36*
X38024D02*
X34554Y253446D01*
X33116Y249976D01*
X38024D01*
Y254884D01*
D02*
G37*
G36*
X346476Y252816D02*
Y248228D01*
X351064D01*
X349720Y251472D01*
X346476Y252816D01*
D02*
G37*
G36*
X343524Y252816D02*
X340280Y251472D01*
X338936Y248228D01*
X343524D01*
Y252816D01*
D02*
G37*
G36*
X329252Y261284D02*
X324544Y259334D01*
X322594Y254626D01*
X324544Y249918D01*
X329252Y247968D01*
X333960Y249918D01*
X335910Y254626D01*
X333960Y259334D01*
X329252Y261284D01*
D02*
G37*
G36*
X227429Y245969D02*
X226134D01*
Y244476D01*
X227429D01*
Y245969D01*
D02*
G37*
G36*
X45884Y247024D02*
X40976D01*
Y242116D01*
X44446Y243554D01*
X45884Y247024D01*
D02*
G37*
G36*
X38024D02*
X33116D01*
X34554Y243554D01*
X38024Y242116D01*
Y247024D01*
D02*
G37*
G36*
X61154Y255478D02*
X56219Y253434D01*
X54176Y248500D01*
X56219Y243566D01*
X61154Y241522D01*
X66088Y243566D01*
X68132Y248500D01*
X66088Y253434D01*
X61154Y255478D01*
D02*
G37*
G36*
X343524Y245276D02*
X338936D01*
X340280Y242032D01*
X343524Y240688D01*
Y245276D01*
D02*
G37*
G36*
X351064D02*
X346476D01*
Y240688D01*
X349720Y242032D01*
X351064Y245276D01*
D02*
G37*
G36*
X362224Y244942D02*
Y240354D01*
X366812D01*
X365468Y243598D01*
X362224Y244942D01*
D02*
G37*
G36*
X359272Y244942D02*
X356028Y243598D01*
X354684Y240354D01*
X359272D01*
Y244942D01*
D02*
G37*
G36*
X227429Y241524D02*
X226134D01*
Y240032D01*
X227429D01*
Y241524D01*
D02*
G37*
G36*
X62630Y238348D02*
Y233441D01*
X67537D01*
X66100Y236911D01*
X62630Y238348D01*
D02*
G37*
G36*
X59677Y238348D02*
X56207Y236911D01*
X54770Y233441D01*
X59677D01*
Y238348D01*
D02*
G37*
G36*
X366812Y237402D02*
X362224D01*
Y232814D01*
X365468Y234158D01*
X366812Y237402D01*
D02*
G37*
G36*
X359272D02*
X354684D01*
X356028Y234158D01*
X359272Y232814D01*
Y237402D01*
D02*
G37*
G36*
X346476Y237068D02*
Y232480D01*
X351064D01*
X349720Y235724D01*
X346476Y237068D01*
D02*
G37*
G36*
X343524D02*
X340280Y235724D01*
X338936Y232480D01*
X343524D01*
Y237068D01*
D02*
G37*
G36*
X329252Y245536D02*
X324544Y243586D01*
X322594Y238878D01*
X324544Y234170D01*
X329252Y232220D01*
X333960Y234170D01*
X335910Y238878D01*
X333960Y243586D01*
X329252Y245536D01*
D02*
G37*
G36*
X67537Y230488D02*
X62630D01*
Y225581D01*
X66100Y227018D01*
X67537Y230488D01*
D02*
G37*
G36*
X59677D02*
X54770D01*
X56207Y227018D01*
X59677Y225581D01*
Y230488D01*
D02*
G37*
G36*
X39500Y238943D02*
X34566Y236899D01*
X32522Y231965D01*
X34566Y227030D01*
X39500Y224987D01*
X44434Y227030D01*
X46478Y231965D01*
X44434Y236899D01*
X39500Y238943D01*
D02*
G37*
G36*
X351064Y229528D02*
X346476D01*
Y224940D01*
X349720Y226284D01*
X351064Y229528D01*
D02*
G37*
G36*
X343524D02*
X338936D01*
X340280Y226284D01*
X343524Y224940D01*
Y229528D01*
D02*
G37*
G36*
X330728Y229194D02*
Y224606D01*
X335316D01*
X333972Y227850D01*
X330728Y229194D01*
D02*
G37*
G36*
X327776Y229194D02*
X324532Y227850D01*
X323188Y224606D01*
X327776D01*
Y229194D01*
D02*
G37*
G36*
Y221654D02*
X323188D01*
X324532Y218410D01*
X327776Y217066D01*
Y221654D01*
D02*
G37*
G36*
X335316D02*
X330728D01*
Y217066D01*
X333972Y218410D01*
X335316Y221654D01*
D02*
G37*
G36*
X274929Y218468D02*
X273634D01*
Y216976D01*
X274929D01*
Y218468D01*
D02*
G37*
G36*
X360748Y229788D02*
X356040Y227838D01*
X354090Y223130D01*
X356040Y218422D01*
X360748Y216472D01*
X365456Y218422D01*
X367406Y223130D01*
X365456Y227838D01*
X360748Y229788D01*
D02*
G37*
G36*
X186150Y219150D02*
X179850D01*
Y212850D01*
X186150D01*
Y219150D01*
D02*
G37*
G36*
X274929Y214024D02*
X273634D01*
Y212531D01*
X274929D01*
Y214024D01*
D02*
G37*
G36*
X267500Y221065D02*
X211000Y221065D01*
X210247Y220753D01*
X209935Y220000D01*
X209935Y186000D01*
X210247Y185247D01*
X211000Y184935D01*
X265065Y184935D01*
X265819Y185247D01*
X268253Y187681D01*
X268565Y188435D01*
Y192214D01*
X268576Y192229D01*
X271878D01*
Y200497D01*
X269059D01*
X268565Y200997D01*
X268565Y212531D01*
X268576Y212547D01*
X269386D01*
Y212531D01*
X270681D01*
Y215500D01*
Y218468D01*
X269386D01*
Y218453D01*
X268576D01*
X268565Y218468D01*
Y220000D01*
X268253Y220753D01*
X267500Y221065D01*
D02*
G37*
G36*
X345000Y221914D02*
X340292Y219964D01*
X338342Y215256D01*
X340292Y210548D01*
X345000Y208597D01*
X349708Y210548D01*
X351658Y215256D01*
X349708Y219964D01*
X345000Y221914D01*
D02*
G37*
G36*
X61154Y222407D02*
X56219Y220363D01*
X54176Y215429D01*
X56219Y210495D01*
X61154Y208451D01*
X66088Y210495D01*
X68132Y215429D01*
X66088Y220363D01*
X61154Y222407D01*
D02*
G37*
G36*
X39500D02*
X34566Y220363D01*
X32522Y215429D01*
X34566Y210495D01*
X39500Y208451D01*
X44434Y210495D01*
X46478Y215429D01*
X44434Y220363D01*
X39500Y222407D01*
D02*
G37*
G36*
X346476Y205572D02*
Y200984D01*
X351064D01*
X349720Y204228D01*
X346476Y205572D01*
D02*
G37*
G36*
X343524D02*
X340280Y204228D01*
X338936Y200984D01*
X343524D01*
Y205572D01*
D02*
G37*
G36*
X360748Y214040D02*
X356040Y212090D01*
X354090Y207382D01*
X356040Y202674D01*
X360748Y200724D01*
X365456Y202674D01*
X367406Y207382D01*
X365456Y212090D01*
X360748Y214040D01*
D02*
G37*
G36*
X329252D02*
X324544Y212090D01*
X322594Y207382D01*
X324544Y202674D01*
X329252Y200724D01*
X333960Y202674D01*
X335910Y207382D01*
X333960Y212090D01*
X329252Y214040D01*
D02*
G37*
G36*
X291579Y200513D02*
X285756D01*
Y197840D01*
X291579D01*
Y200513D01*
D02*
G37*
G36*
X282803D02*
X276980D01*
Y197840D01*
X282803D01*
Y200513D01*
D02*
G37*
G36*
X351064Y198031D02*
X346476D01*
Y193444D01*
X349720Y194788D01*
X351064Y198031D01*
D02*
G37*
G36*
X343524D02*
X338936D01*
X340280Y194788D01*
X343524Y193444D01*
Y198031D01*
D02*
G37*
G36*
X291579Y194887D02*
X285756D01*
Y192214D01*
X291579D01*
Y194887D01*
D02*
G37*
G36*
X282803D02*
X276980D01*
Y192214D01*
X282803D01*
Y194887D01*
D02*
G37*
G36*
X61154Y205872D02*
X56219Y203828D01*
X54176Y198894D01*
X56219Y193959D01*
X61154Y191916D01*
X66088Y193959D01*
X68132Y198894D01*
X66088Y203828D01*
X61154Y205872D01*
D02*
G37*
G36*
X39500D02*
X34566Y203828D01*
X32522Y198894D01*
X34566Y193959D01*
X39500Y191916D01*
X44434Y193959D01*
X46478Y198894D01*
X44434Y203828D01*
X39500Y205872D01*
D02*
G37*
G36*
X10760Y206458D02*
X5411Y204242D01*
X3196Y198894D01*
X5411Y193545D01*
X10760Y191330D01*
X16108Y193545D01*
X18324Y198894D01*
X16108Y204242D01*
X10760Y206458D01*
D02*
G37*
G36*
X100500Y217350D02*
X90707Y213293D01*
X86651Y203500D01*
X90707Y193707D01*
X100500Y189650D01*
X110293Y193707D01*
X114349Y203500D01*
X110293Y213293D01*
X100500Y217350D01*
D02*
G37*
G36*
X360748Y198292D02*
X356040Y196342D01*
X354090Y191634D01*
X356040Y186926D01*
X360748Y184976D01*
X365456Y186926D01*
X367406Y191634D01*
X365456Y196342D01*
X360748Y198292D01*
D02*
G37*
G36*
X329252D02*
X324544Y196342D01*
X322594Y191634D01*
X324544Y186926D01*
X329252Y184976D01*
X333960Y186926D01*
X335910Y191634D01*
X333960Y196342D01*
X329252Y198292D01*
D02*
G37*
G36*
X345000Y190418D02*
X340292Y188468D01*
X338342Y183760D01*
X340292Y179052D01*
X345000Y177101D01*
X349708Y179052D01*
X351658Y183760D01*
X349708Y188468D01*
X345000Y190418D01*
D02*
G37*
G36*
X346476Y174076D02*
Y169488D01*
X351064D01*
X349720Y172732D01*
X346476Y174076D01*
D02*
G37*
G36*
X343524D02*
X340280Y172732D01*
X338936Y169488D01*
X343524D01*
Y174076D01*
D02*
G37*
G36*
X360748Y182544D02*
X356040Y180594D01*
X354090Y175886D01*
X356040Y171178D01*
X360748Y169227D01*
X365456Y171178D01*
X367406Y175886D01*
X365456Y180594D01*
X360748Y182544D01*
D02*
G37*
G36*
X329252D02*
X324544Y180594D01*
X322594Y175886D01*
X324544Y171178D01*
X329252Y169227D01*
X333960Y171178D01*
X335910Y175886D01*
X333960Y180594D01*
X329252Y182544D01*
D02*
G37*
G36*
X294390Y168201D02*
X290043D01*
Y162476D01*
X294390D01*
Y168201D01*
D02*
G37*
G36*
X287090D02*
X282744D01*
Y162476D01*
X287090D01*
Y168201D01*
D02*
G37*
G36*
X351064Y166535D02*
X346476D01*
Y161948D01*
X349720Y163292D01*
X351064Y166535D01*
D02*
G37*
G36*
X343524D02*
X338936D01*
X340280Y163292D01*
X343524Y161948D01*
Y166535D01*
D02*
G37*
G36*
X330728Y166202D02*
Y161614D01*
X335316D01*
X333972Y164858D01*
X330728Y166202D01*
D02*
G37*
G36*
X327776Y166202D02*
X324532Y164858D01*
X323188Y161614D01*
X327776D01*
Y166202D01*
D02*
G37*
G36*
X126537Y167040D02*
X122620Y165417D01*
X120997Y161500D01*
X122090Y158862D01*
X115334Y152106D01*
X66589D01*
X66492Y152597D01*
X66588Y152637D01*
X67730Y155394D01*
X99486D01*
X99486Y155394D01*
X100622Y155864D01*
X101938Y157180D01*
X104884Y155960D01*
X108801Y157583D01*
X110423Y161500D01*
X108801Y165417D01*
X104884Y167040D01*
X100966Y165417D01*
X99344Y161500D01*
X100038Y159824D01*
X98821Y158607D01*
X68203D01*
X66588Y162505D01*
X61654Y164549D01*
X56719Y162505D01*
X54676Y157571D01*
X56719Y152637D01*
X56815Y152597D01*
X56718Y152106D01*
X50165D01*
X46311Y155961D01*
X46978Y157571D01*
X44934Y162505D01*
X40000Y164549D01*
X35066Y162505D01*
X33022Y157571D01*
X35066Y152637D01*
X40000Y150593D01*
X44934Y152637D01*
X45065Y152663D01*
X48364Y149364D01*
X48364Y149364D01*
X49500Y148893D01*
X49500Y148893D01*
X100430D01*
X100764Y148393D01*
X99344Y144965D01*
X100038Y143288D01*
X99356Y142606D01*
X67981D01*
X66588Y145970D01*
X61654Y148013D01*
X56719Y145970D01*
X54676Y141035D01*
X56719Y136101D01*
X56730Y136097D01*
X56632Y135607D01*
X49165D01*
X46029Y138743D01*
X46978Y141035D01*
X44934Y145970D01*
X40000Y148013D01*
X35066Y145970D01*
X33022Y141035D01*
X35066Y136101D01*
X40000Y134057D01*
X44363Y135865D01*
X47364Y132864D01*
X47364Y132864D01*
X48500Y132394D01*
X48500Y132394D01*
X100444D01*
X100779Y131894D01*
X99344Y128429D01*
X99801Y127325D01*
X99523Y126910D01*
X67633D01*
X66588Y129434D01*
X61654Y131478D01*
X56719Y129434D01*
X54676Y124500D01*
X56702Y119606D01*
X56525Y119106D01*
X47665D01*
X45600Y121172D01*
X46978Y124500D01*
X44934Y129434D01*
X40000Y131478D01*
X35066Y129434D01*
X33022Y124500D01*
X35066Y119566D01*
X40000Y117522D01*
X43328Y118900D01*
X45864Y116364D01*
X45864Y116364D01*
X47000Y115893D01*
X100442D01*
X100776Y115393D01*
X99938Y113370D01*
X104884D01*
X109829D01*
X108991Y115393D01*
X109325Y115893D01*
X115500D01*
X115500Y115893D01*
X116636Y116364D01*
X124150Y123878D01*
X126537Y122889D01*
X130454Y124512D01*
X132077Y128429D01*
X130454Y132346D01*
X126537Y133969D01*
X122620Y132346D01*
X120997Y128429D01*
X121923Y126195D01*
X114834Y119106D01*
X66782D01*
X66605Y119606D01*
X68299Y123697D01*
X101757D01*
X101758Y123697D01*
X102346Y123940D01*
X104884Y122889D01*
X108801Y124512D01*
X110423Y128429D01*
X108988Y131894D01*
X109322Y132394D01*
X115633D01*
X115633Y132394D01*
X116769Y132864D01*
X124269Y140364D01*
X126537Y139425D01*
X130454Y141047D01*
X132077Y144965D01*
X130454Y148882D01*
X126537Y150504D01*
X122620Y148882D01*
X120997Y144965D01*
X121972Y142611D01*
X114967Y135607D01*
X66675D01*
X66577Y136097D01*
X66588Y136101D01*
X67951Y139393D01*
X100022D01*
X100022Y139393D01*
X101158Y139864D01*
X101938Y140645D01*
X104884Y139425D01*
X108801Y141047D01*
X110423Y144965D01*
X109003Y148393D01*
X109337Y148893D01*
X116000D01*
X116000Y148893D01*
X117136Y149364D01*
X124554Y156782D01*
X126537Y155960D01*
X130454Y157583D01*
X132077Y161500D01*
X130454Y165417D01*
X126537Y167040D01*
D02*
G37*
G36*
X327776Y158661D02*
X323188D01*
X324532Y155418D01*
X327776Y154074D01*
Y158661D01*
D02*
G37*
G36*
X335316D02*
X330728D01*
Y154074D01*
X333972Y155418D01*
X335316Y158661D01*
D02*
G37*
G36*
X294390Y159524D02*
X290043D01*
Y153799D01*
X294390D01*
Y159524D01*
D02*
G37*
G36*
X287090D02*
X282744D01*
Y153799D01*
X287090D01*
Y159524D01*
D02*
G37*
G36*
X360748Y166796D02*
X356040Y164846D01*
X354090Y160138D01*
X356040Y155430D01*
X360748Y153479D01*
X365456Y155430D01*
X367406Y160138D01*
X365456Y164846D01*
X360748Y166796D01*
D02*
G37*
G36*
X11260Y165135D02*
X5911Y162919D01*
X3696Y157571D01*
X5911Y152222D01*
X11260Y150007D01*
X16608Y152222D01*
X18824Y157571D01*
X16608Y162919D01*
X11260Y165135D01*
D02*
G37*
G36*
X278429Y139469D02*
X277134D01*
Y137976D01*
X278429D01*
Y139469D01*
D02*
G37*
G36*
X348445Y144383D02*
Y136024D01*
X356804D01*
X354356Y141934D01*
X348445Y144383D01*
D02*
G37*
G36*
X345492D02*
X339581Y141934D01*
X337133Y136024D01*
X345492D01*
Y144383D01*
D02*
G37*
G36*
X258959Y169204D02*
X215000D01*
X213795Y168705D01*
X213295Y167500D01*
Y145000D01*
X213795Y143795D01*
X215295Y142295D01*
X216500Y141796D01*
X248795Y141795D01*
X248795Y107854D01*
X249295Y106649D01*
X250500Y106150D01*
X252047D01*
Y100587D01*
X253394D01*
Y76000D01*
X253393Y76000D01*
X253864Y74864D01*
X255364Y73364D01*
X255364Y73364D01*
X256500Y72893D01*
X256500Y72894D01*
X261000D01*
X261000Y72893D01*
X262136Y73364D01*
X265573Y76801D01*
X265573Y76801D01*
X266044Y77937D01*
X266044Y77937D01*
Y78526D01*
X266673D01*
X266701Y78526D01*
X267173D01*
X267201Y78526D01*
X271673D01*
X271701Y78526D01*
X272173D01*
X272201Y78526D01*
X276673D01*
X276701Y78526D01*
X277173D01*
X277201Y78526D01*
X277831D01*
X278301Y77391D01*
X278887Y76805D01*
X278887Y76805D01*
X280023Y76334D01*
X280023Y76334D01*
X286583D01*
Y75283D01*
X292291D01*
Y76334D01*
X295146D01*
Y75283D01*
X300854D01*
Y80402D01*
Y85716D01*
X299606D01*
Y86992D01*
X300024Y88000D01*
X299431Y89431D01*
X298000Y90024D01*
X296569Y89431D01*
X295976Y88000D01*
X296393Y86992D01*
Y85716D01*
X295146D01*
Y79548D01*
X292291D01*
Y80386D01*
X292307D01*
Y81583D01*
X286567D01*
Y80386D01*
X286583D01*
Y79548D01*
X281701D01*
Y86498D01*
X277201D01*
X277173Y86498D01*
X276701D01*
X276673Y86498D01*
X272201D01*
X272173Y86498D01*
X271701D01*
X271673Y86498D01*
X267201D01*
X267173Y86498D01*
X266701D01*
X266673Y86498D01*
X262173D01*
Y78526D01*
X262173D01*
X262343Y78115D01*
X260334Y76107D01*
X257166D01*
X256607Y76666D01*
Y100587D01*
X257953D01*
Y106150D01*
X259406D01*
Y103390D01*
X259905Y102184D01*
X260295Y101795D01*
X261500Y101295D01*
X261757Y101402D01*
X262173Y101124D01*
Y99880D01*
X266701D01*
Y99880D01*
X267173D01*
Y99880D01*
X267201Y99880D01*
X271664D01*
X272154Y99864D01*
X272158Y99864D01*
Y99864D01*
X272961D01*
Y103866D01*
Y107868D01*
X272633D01*
Y110473D01*
X273835D01*
Y119527D01*
X272696D01*
Y120973D01*
X273835D01*
Y130027D01*
X273696D01*
Y133531D01*
X274181D01*
Y136500D01*
Y139469D01*
X273538D01*
Y141804D01*
X282676D01*
X287850Y136630D01*
Y134850D01*
X290888D01*
X291000Y134804D01*
X291112Y134850D01*
X294150D01*
Y137888D01*
X294196Y138000D01*
X294150Y138112D01*
Y141150D01*
X292370D01*
X286260Y147260D01*
X284000Y148196D01*
X270900D01*
X268640Y147260D01*
X268083Y146703D01*
X267695Y145767D01*
X267205Y145865D01*
Y153815D01*
X269965D01*
Y168185D01*
X260631D01*
X260540Y168406D01*
X260445Y168445D01*
X260396Y168535D01*
X260020Y168834D01*
X259479Y168989D01*
X258959Y169204D01*
D02*
G37*
G36*
X278429Y135024D02*
X277134D01*
Y133531D01*
X278429D01*
Y135024D01*
D02*
G37*
G36*
X285268Y130043D02*
X283185D01*
Y126976D01*
X285268D01*
Y130043D01*
D02*
G37*
G36*
X280232D02*
X278150D01*
Y126976D01*
X280232D01*
Y130043D01*
D02*
G37*
G36*
X356804Y133071D02*
X348445D01*
Y124712D01*
X354356Y127160D01*
X356804Y133071D01*
D02*
G37*
G36*
X345492D02*
X337133D01*
X339581Y127160D01*
X345492Y124712D01*
Y133071D01*
D02*
G37*
G36*
X285268Y124024D02*
X283185D01*
Y120957D01*
X285268D01*
Y124024D01*
D02*
G37*
G36*
X280232D02*
X278150D01*
Y120957D01*
X280232D01*
Y124024D01*
D02*
G37*
G36*
X285268Y119543D02*
X283185D01*
Y116476D01*
X285268D01*
Y119543D01*
D02*
G37*
G36*
X280232D02*
X278150D01*
Y116476D01*
X280232D01*
Y119543D01*
D02*
G37*
G36*
X128013Y116839D02*
Y113370D01*
X131482D01*
X130466Y115823D01*
X128013Y116839D01*
D02*
G37*
G36*
X125061D02*
X122608Y115823D01*
X121592Y113370D01*
X125061D01*
Y116839D01*
D02*
G37*
G36*
X285268Y113524D02*
X283185D01*
Y110457D01*
X285268D01*
Y113524D01*
D02*
G37*
G36*
X280232D02*
X278150D01*
Y110457D01*
X280232D01*
Y113524D01*
D02*
G37*
G36*
X63130Y114348D02*
Y109441D01*
X68037D01*
X66600Y112911D01*
X63130Y114348D01*
D02*
G37*
G36*
X41476D02*
Y109441D01*
X46384D01*
X44946Y112911D01*
X41476Y114348D01*
D02*
G37*
G36*
X60177Y114348D02*
X56707Y112911D01*
X55270Y109441D01*
X60177D01*
Y114348D01*
D02*
G37*
G36*
X38524D02*
X35054Y112911D01*
X33617Y109441D01*
X38524D01*
Y114348D01*
D02*
G37*
G36*
X131482Y110417D02*
X128013D01*
Y106948D01*
X130466Y107964D01*
X131482Y110417D01*
D02*
G37*
G36*
X109829D02*
X106360D01*
Y106948D01*
X108813Y107964D01*
X109829Y110417D01*
D02*
G37*
G36*
X125061D02*
X121592D01*
X122608Y107964D01*
X125061Y106948D01*
Y110417D01*
D02*
G37*
G36*
X103407D02*
X99938D01*
X100954Y107964D01*
X103407Y106948D01*
Y110417D01*
D02*
G37*
G36*
X168165Y105665D02*
X166476D01*
Y103976D01*
X168165D01*
Y105665D01*
D02*
G37*
G36*
X163524D02*
X161835D01*
Y103976D01*
X163524D01*
Y105665D01*
D02*
G37*
G36*
X68037Y106488D02*
X63130D01*
Y101581D01*
X66600Y103018D01*
X68037Y106488D01*
D02*
G37*
G36*
X46384D02*
X41476D01*
Y101581D01*
X44946Y103018D01*
X46384Y106488D01*
D02*
G37*
G36*
X60177D02*
X55270D01*
X56707Y103018D01*
X60177Y101581D01*
Y106488D01*
D02*
G37*
G36*
X38524D02*
X33617D01*
X35054Y103018D01*
X38524Y101581D01*
Y106488D01*
D02*
G37*
G36*
X276716Y107868D02*
X276680Y107868D01*
X275913D01*
Y103866D01*
Y99864D01*
X276680D01*
X276716Y99864D01*
X277210Y99880D01*
X281701D01*
Y107852D01*
X277210D01*
X276716Y107868D01*
D02*
G37*
G36*
X168165Y101024D02*
X166476D01*
Y99335D01*
X168165D01*
Y101024D01*
D02*
G37*
G36*
X163524D02*
X161835D01*
Y99335D01*
X163524D01*
Y101024D01*
D02*
G37*
G36*
X279039Y98913D02*
X273413D01*
Y94665D01*
X279039D01*
Y98913D01*
D02*
G37*
G36*
X270461D02*
X264835D01*
Y94665D01*
X270461D01*
Y98913D01*
D02*
G37*
G36*
X104884Y100898D02*
X100966Y99275D01*
X99344Y95358D01*
X100966Y91441D01*
X104884Y89819D01*
X108801Y91441D01*
X110423Y95358D01*
X108801Y99275D01*
X104884Y100898D01*
D02*
G37*
G36*
X279039Y91712D02*
X273413D01*
Y87464D01*
X279039D01*
Y91712D01*
D02*
G37*
G36*
X270461D02*
X264835D01*
Y87464D01*
X270461D01*
Y91712D01*
D02*
G37*
G36*
X292307Y85732D02*
X290913D01*
Y84535D01*
X292307D01*
Y85732D01*
D02*
G37*
G36*
X287961D02*
X286567D01*
Y84535D01*
X287961D01*
Y85732D01*
D02*
G37*
G36*
X61654Y98407D02*
X56719Y96363D01*
X54676Y91429D01*
X56719Y86495D01*
X61654Y84451D01*
X66588Y86495D01*
X68632Y91429D01*
X66588Y96363D01*
X61654Y98407D01*
D02*
G37*
G36*
X40000D02*
X35066Y96363D01*
X33022Y91429D01*
X35066Y86495D01*
X40000Y84451D01*
X44934Y86495D01*
X46978Y91429D01*
X44934Y96363D01*
X40000Y98407D01*
D02*
G37*
G36*
X378000Y74504D02*
X374736D01*
Y71437D01*
X378000D01*
Y74504D01*
D02*
G37*
G36*
X371783D02*
X368520D01*
Y71437D01*
X371783D01*
Y74504D01*
D02*
G37*
G36*
X367374Y72339D02*
X364701D01*
Y68681D01*
X367374D01*
Y72339D01*
D02*
G37*
G36*
X361748D02*
X359075D01*
Y68681D01*
X361748D01*
Y72339D01*
D02*
G37*
G36*
X61654Y81872D02*
X56719Y79828D01*
X54676Y74894D01*
X56719Y69959D01*
X61654Y67916D01*
X66588Y69959D01*
X68632Y74894D01*
X66588Y79828D01*
X61654Y81872D01*
D02*
G37*
G36*
X40000D02*
X35066Y79828D01*
X33022Y74894D01*
X35066Y69959D01*
X40000Y67916D01*
X44934Y69959D01*
X46978Y74894D01*
X44934Y79828D01*
X40000Y81872D01*
D02*
G37*
G36*
X378000Y68484D02*
X374736D01*
Y65417D01*
X378000D01*
Y68484D01*
D02*
G37*
G36*
X371783D02*
X368520D01*
Y65417D01*
X371783D01*
Y68484D01*
D02*
G37*
G36*
X367374Y65728D02*
X363224D01*
X359075D01*
Y62406D01*
X359075Y61905D01*
X359075Y61594D01*
X362732D01*
X366390D01*
Y61905D01*
X366821Y62071D01*
X367374D01*
Y65728D01*
D02*
G37*
G36*
X378000Y64465D02*
X374736D01*
Y61201D01*
X378000D01*
Y64465D01*
D02*
G37*
G36*
X371783D02*
X368520D01*
Y61201D01*
X371783D01*
Y64465D01*
D02*
G37*
G36*
X366374Y59331D02*
X362732D01*
X359090D01*
Y58642D01*
X359075D01*
Y58331D01*
X359090D01*
Y55787D01*
Y51874D01*
X354061D01*
X352853Y52375D01*
X351195Y51688D01*
X350509Y50031D01*
X351195Y48373D01*
X352853Y47687D01*
X353702Y48039D01*
X358620D01*
X359075Y47929D01*
X359075Y47539D01*
Y44272D01*
X363224D01*
X367374D01*
Y47929D01*
X366799D01*
X366374Y48110D01*
X366374Y48429D01*
Y53228D01*
Y55787D01*
Y58331D01*
X366390D01*
Y58642D01*
X366374D01*
Y59331D01*
D02*
G37*
G36*
X378000Y58248D02*
X373260D01*
X368520D01*
Y54984D01*
Y51752D01*
X373260D01*
X378000D01*
Y54984D01*
Y58248D01*
D02*
G37*
G36*
X61654Y65336D02*
X56719Y63292D01*
X54676Y58358D01*
X55286Y56885D01*
X49864Y51463D01*
X49393Y50327D01*
X49393Y50327D01*
Y17854D01*
X48783D01*
Y12146D01*
X59216D01*
Y17854D01*
X58166D01*
Y35478D01*
X58739Y36052D01*
X61654Y34845D01*
X66588Y36889D01*
X68632Y41823D01*
X66588Y46757D01*
X61654Y48801D01*
X56719Y46757D01*
X54676Y41823D01*
X56225Y38082D01*
X55423Y37280D01*
X54953Y36144D01*
X54953Y36144D01*
Y17854D01*
X52606D01*
Y49662D01*
X56427Y53482D01*
X56719Y53424D01*
X61654Y51380D01*
X66588Y53424D01*
X68632Y58358D01*
X66588Y63292D01*
X61654Y65336D01*
D02*
G37*
G36*
X40000D02*
X35066Y63292D01*
X33022Y58358D01*
X35066Y53424D01*
X40000Y51380D01*
X44934Y53424D01*
X46978Y58358D01*
X44934Y63292D01*
X40000Y65336D01*
D02*
G37*
G36*
X378000Y48799D02*
X374736D01*
Y45535D01*
X378000D01*
Y48799D01*
D02*
G37*
G36*
X371783D02*
X368520D01*
Y45535D01*
X371783D01*
Y48799D01*
D02*
G37*
G36*
X343665Y45665D02*
X341976D01*
Y43976D01*
X343665D01*
Y45665D01*
D02*
G37*
G36*
X339024D02*
X337335D01*
Y43976D01*
X339024D01*
Y45665D01*
D02*
G37*
G36*
X378000Y44583D02*
X374736D01*
Y41516D01*
X378000D01*
Y44583D01*
D02*
G37*
G36*
X371783D02*
X368520D01*
Y41516D01*
X371783D01*
Y44583D01*
D02*
G37*
G36*
X316976Y43759D02*
Y40130D01*
X320605D01*
X319542Y42696D01*
X316976Y43759D01*
D02*
G37*
G36*
X314024D02*
X311458Y42696D01*
X310395Y40130D01*
X314024D01*
Y43759D01*
D02*
G37*
G36*
X285976D02*
Y40130D01*
X289605D01*
X288542Y42696D01*
X285976Y43759D01*
D02*
G37*
G36*
X283024D02*
X280458Y42696D01*
X279395Y40130D01*
X283024D01*
Y43759D01*
D02*
G37*
G36*
X343665Y41024D02*
X341976D01*
Y39335D01*
X343665D01*
Y41024D01*
D02*
G37*
G36*
X339024D02*
X337335D01*
Y39335D01*
X339024D01*
Y41024D01*
D02*
G37*
G36*
X367374Y41319D02*
X364701D01*
Y37661D01*
X367374D01*
Y41319D01*
D02*
G37*
G36*
X361748D02*
X359075D01*
Y37661D01*
X361748D01*
Y41319D01*
D02*
G37*
G36*
X378000Y38563D02*
X374736D01*
Y35496D01*
X378000D01*
Y38563D01*
D02*
G37*
G36*
X371783D02*
X368520D01*
Y35496D01*
X371783D01*
Y38563D01*
D02*
G37*
G36*
X40000Y48801D02*
X35066Y46757D01*
X33022Y41823D01*
X35066Y36889D01*
X40000Y34845D01*
X44934Y36889D01*
X46978Y41823D01*
X44934Y46757D01*
X40000Y48801D01*
D02*
G37*
G36*
X11260Y49387D02*
X5911Y47171D01*
X3696Y41823D01*
X5911Y36474D01*
X11260Y34259D01*
X16608Y36474D01*
X18824Y41823D01*
X16608Y47171D01*
X11260Y49387D01*
D02*
G37*
G36*
X224217Y64354D02*
X213784D01*
Y63107D01*
X212500D01*
X211364Y62636D01*
X211364Y62636D01*
X201899Y53171D01*
X201429Y52035D01*
X201429Y52035D01*
Y44188D01*
X199005Y43184D01*
X197336Y39154D01*
X199005Y35123D01*
X203035Y33454D01*
X207066Y35123D01*
X208735Y39154D01*
X207066Y43184D01*
X204642Y44188D01*
Y51370D01*
X213165Y59894D01*
X213784D01*
Y58646D01*
X224217D01*
Y59894D01*
X227835D01*
X247244Y40484D01*
X246836Y39500D01*
X248505Y35470D01*
X252535Y33800D01*
X256566Y35470D01*
X258235Y39500D01*
X256566Y43530D01*
X252535Y45200D01*
X248673Y43600D01*
X229636Y62636D01*
X228500Y63107D01*
X228500Y63107D01*
X224217D01*
Y64354D01*
D02*
G37*
G36*
X236000Y45200D02*
X231970Y43530D01*
X230300Y39500D01*
X231970Y35470D01*
X236000Y33800D01*
X240030Y35470D01*
X241700Y39500D01*
X240030Y43530D01*
X236000Y45200D01*
D02*
G37*
G36*
X320605Y37177D02*
X316976D01*
Y33548D01*
X319542Y34611D01*
X320605Y37177D01*
D02*
G37*
G36*
X314024D02*
X310395D01*
X311458Y34611D01*
X314024Y33548D01*
Y37177D01*
D02*
G37*
G36*
X289605D02*
X285976D01*
Y33548D01*
X288542Y34611D01*
X289605Y37177D01*
D02*
G37*
G36*
X283024D02*
X279395D01*
X280458Y34611D01*
X283024Y33548D01*
Y37177D01*
D02*
G37*
G36*
X186500Y44853D02*
X182470Y43184D01*
X180800Y39154D01*
X182470Y35123D01*
X186500Y33454D01*
X190530Y35123D01*
X192200Y39154D01*
X190530Y43184D01*
X186500Y44853D01*
D02*
G37*
G36*
X155500Y44353D02*
X151470Y42684D01*
X149800Y38653D01*
X151470Y34623D01*
X155500Y32954D01*
X159530Y34623D01*
X161200Y38653D01*
X159530Y42684D01*
X155500Y44353D01*
D02*
G37*
G36*
X108035D02*
X104005Y42684D01*
X102336Y38653D01*
X104005Y34623D01*
X108035Y32954D01*
X112066Y34623D01*
X113735Y38653D01*
X112066Y42684D01*
X108035Y44353D01*
D02*
G37*
G36*
X91500D02*
X87470Y42684D01*
X85800Y38653D01*
X87470Y34623D01*
X91500Y32954D01*
X95530Y34623D01*
X97200Y38653D01*
X95530Y42684D01*
X91500Y44353D01*
D02*
G37*
G36*
X90024Y22105D02*
X87458Y21042D01*
X86395Y18476D01*
X90024D01*
Y22105D01*
D02*
G37*
G36*
Y15524D02*
X86395D01*
X87458Y12958D01*
X90024Y11895D01*
Y15524D01*
D02*
G37*
G36*
X366142Y29597D02*
X356349Y25541D01*
X352292Y15748D01*
X356349Y5955D01*
X366142Y1898D01*
X375935Y5955D01*
X379991Y15748D01*
X375935Y25541D01*
X366142Y29597D01*
D02*
G37*
%LPD*%
G36*
X194159Y311478D02*
X193945Y310961D01*
X194108Y310566D01*
X193831Y310150D01*
X172227D01*
X172216Y310646D01*
X172216D01*
Y311894D01*
X193881D01*
X194159Y311478D01*
D02*
G37*
G36*
X267500Y218468D02*
X264071D01*
Y216976D01*
X266843D01*
Y214024D01*
X264071D01*
Y212531D01*
X267500D01*
X267500Y200513D01*
X266071D01*
Y196363D01*
Y192214D01*
X267500D01*
Y188435D01*
X265065Y186000D01*
X211000Y186000D01*
X211000Y220000D01*
X267500Y220000D01*
Y218468D01*
D02*
G37*
%LPC*%
G36*
X263118Y200513D02*
X257295D01*
Y197840D01*
X263118D01*
Y200513D01*
D02*
G37*
G36*
X237039Y203279D02*
X227476D01*
Y197555D01*
X237039D01*
Y203279D01*
D02*
G37*
G36*
X224524D02*
X214961D01*
Y197555D01*
X224524D01*
Y203279D01*
D02*
G37*
G36*
X263118Y194887D02*
X257295D01*
Y192214D01*
X263118D01*
Y194887D01*
D02*
G37*
G36*
X237039Y194602D02*
X227476D01*
Y188878D01*
X237039D01*
Y194602D01*
D02*
G37*
G36*
X224524D02*
X214961D01*
Y188878D01*
X224524D01*
Y194602D01*
D02*
G37*
%LPD*%
G36*
X259335Y167201D02*
Y161500D01*
X264158D01*
Y161000D01*
X264657D01*
Y154799D01*
X265500D01*
Y106868D01*
X264937D01*
Y103866D01*
X263937D01*
Y106868D01*
X263158D01*
Y103500D01*
X262000D01*
X261500Y103000D01*
X261110Y103390D01*
Y107854D01*
X256968D01*
Y108158D01*
X253031D01*
Y107854D01*
X250500D01*
X250500Y143500D01*
X216500Y143500D01*
X215000Y145000D01*
Y167500D01*
X258959D01*
X259335Y167201D01*
D02*
G37*
%LPC*%
G36*
X236039Y162122D02*
X226500D01*
Y156421D01*
X236039D01*
Y162122D01*
D02*
G37*
G36*
X225500D02*
X215961D01*
Y156421D01*
X225500D01*
Y162122D01*
D02*
G37*
G36*
X263657Y160500D02*
X259335D01*
Y154799D01*
X263657D01*
Y160500D01*
D02*
G37*
G36*
X236039Y155421D02*
X226500D01*
Y149721D01*
X236039D01*
Y155421D01*
D02*
G37*
G36*
X225500D02*
X215961D01*
Y149721D01*
X225500D01*
Y155421D01*
D02*
G37*
G36*
X256968Y110429D02*
X255500D01*
Y109158D01*
X256968D01*
Y110429D01*
D02*
G37*
G36*
X254500D02*
X253031D01*
Y109158D01*
X254500D01*
Y110429D01*
D02*
G37*
G36*
X128899Y99707D02*
Y97720D01*
X130885D01*
X130304Y99125D01*
X128899Y99707D01*
D02*
G37*
G36*
X124175Y99707D02*
X122770Y99125D01*
X122189Y97720D01*
X124175D01*
Y99707D01*
D02*
G37*
G36*
Y92996D02*
X122189D01*
X122770Y91592D01*
X124175Y91010D01*
Y92996D01*
D02*
G37*
G36*
X130885D02*
X128899D01*
Y91010D01*
X130304Y91592D01*
X130885Y92996D01*
D02*
G37*
G36*
X257604Y22915D02*
X254898D01*
Y20209D01*
X257604D01*
Y22915D01*
D02*
G37*
G36*
X250173D02*
X247466D01*
Y20209D01*
X250173D01*
Y22915D01*
D02*
G37*
G36*
X208104Y22569D02*
X205398D01*
Y19862D01*
X208104D01*
Y22569D01*
D02*
G37*
G36*
X200673D02*
X197967D01*
Y19862D01*
X200673D01*
Y22569D01*
D02*
G37*
G36*
X113104Y22069D02*
X110398D01*
Y19362D01*
X113104D01*
Y22069D01*
D02*
G37*
G36*
X160569D02*
X157862D01*
Y19362D01*
X160569D01*
Y22069D01*
D02*
G37*
G36*
X313138D02*
X310431D01*
Y19362D01*
X313138D01*
Y22069D01*
D02*
G37*
G36*
X289569D02*
X286862D01*
Y19362D01*
X289569D01*
Y22069D01*
D02*
G37*
G36*
X282138D02*
X279431D01*
Y19362D01*
X282138D01*
Y22069D01*
D02*
G37*
G36*
X153138D02*
X150431D01*
Y19362D01*
X153138D01*
Y22069D01*
D02*
G37*
G36*
X105673D02*
X102966D01*
Y19362D01*
X105673D01*
Y22069D01*
D02*
G37*
G36*
X257604Y15484D02*
X254898D01*
Y12778D01*
X257604D01*
Y15484D01*
D02*
G37*
G36*
X250173D02*
X247466D01*
Y12778D01*
X250173D01*
Y15484D01*
D02*
G37*
G36*
X208104Y15138D02*
X205398D01*
Y12431D01*
X208104D01*
Y15138D01*
D02*
G37*
G36*
X200673D02*
X197967D01*
Y12431D01*
X200673D01*
Y15138D01*
D02*
G37*
G36*
X313138Y14638D02*
X310431D01*
Y11931D01*
X313138D01*
Y14638D01*
D02*
G37*
G36*
X289569D02*
X286862D01*
Y11931D01*
X289569D01*
Y14638D01*
D02*
G37*
G36*
X282138D02*
X279431D01*
Y11931D01*
X282138D01*
Y14638D01*
D02*
G37*
G36*
X160569D02*
X157862D01*
Y11931D01*
X160569D01*
Y14638D01*
D02*
G37*
G36*
X153138D02*
X150431D01*
Y11931D01*
X153138D01*
Y14638D01*
D02*
G37*
G36*
X113104D02*
X110398D01*
Y11931D01*
X113104D01*
Y14638D01*
D02*
G37*
G36*
X105673D02*
X102966D01*
Y11931D01*
X105673D01*
Y14638D01*
D02*
G37*
G36*
X236000Y25038D02*
X230915Y22931D01*
X228809Y17846D01*
X230915Y12762D01*
X236000Y10655D01*
X241085Y12762D01*
X243191Y17846D01*
X241085Y22931D01*
X236000Y25038D01*
D02*
G37*
G36*
X186500Y24691D02*
X181415Y22585D01*
X179309Y17500D01*
X181415Y12415D01*
X186500Y10309D01*
X191585Y12415D01*
X193691Y17500D01*
X191585Y22585D01*
X186500Y24691D01*
D02*
G37*
G36*
X138965Y24191D02*
X133880Y22085D01*
X131773Y17000D01*
X133880Y11915D01*
X138965Y9809D01*
X144049Y11915D01*
X146156Y17000D01*
X144049Y22085D01*
X138965Y24191D01*
D02*
G37*
%LPD*%
D13*
X49500Y150500D02*
X116000D01*
X42410Y157590D02*
X49500Y150500D01*
X40000Y124500D02*
X47000Y117500D01*
X115500D01*
X37846Y264965D02*
X46382Y273500D01*
X98305D02*
X135746Y310941D01*
X46382Y273500D02*
X98305D01*
X59500Y264965D02*
X108465D01*
X226067Y326457D02*
X231628D01*
X234000Y328828D01*
Y354465D01*
X154484Y308984D02*
X155000D01*
Y309441D02*
X155898Y308543D01*
X202933D01*
X202862Y311032D02*
X202933Y311102D01*
X195969Y310961D02*
X196040Y311032D01*
X202862D01*
X255000Y76000D02*
X256500Y74500D01*
X255000Y76000D02*
Y104342D01*
X42222Y140278D02*
X48500Y134000D01*
X115633D01*
X269000Y272500D02*
Y277941D01*
X292000Y282559D02*
Y291866D01*
Y277441D02*
X292059Y277500D01*
X358962Y256412D02*
X360748Y254626D01*
X358962Y256412D02*
Y259538D01*
X341000Y277500D02*
X358962Y259538D01*
X292059Y277500D02*
X341000D01*
X100941Y322000D02*
X101000Y322059D01*
X100768Y333173D02*
X101000Y332941D01*
Y322059D02*
Y332941D01*
X100768Y333173D02*
Y356732D01*
X99500Y358000D02*
X100768Y356732D01*
X107059Y322000D02*
X107485Y322426D01*
X141574D01*
X155000Y314559D02*
Y321291D01*
X155500Y321791D01*
Y322000D01*
X154000Y308500D02*
X154484Y308984D01*
X152216Y308716D02*
X154275D01*
X155000Y309441D01*
X108465Y264965D02*
X152216Y308716D01*
X135746Y310941D02*
X142000D01*
X170559Y313500D02*
X202772D01*
X202933Y313661D01*
X133153Y358347D02*
X175279Y316220D01*
X202933D01*
X179965Y337535D02*
X193602Y323898D01*
X179965Y337535D02*
Y358500D01*
X131465Y358347D02*
X133153D01*
X61689Y141000D02*
X100022D01*
X103986Y144965D01*
X56559Y15000D02*
Y36144D01*
X61654Y41238D01*
X62224Y157000D02*
X99486D01*
X103986Y161500D01*
X269000Y284059D02*
Y292866D01*
X270862Y291004D01*
X104774Y111894D02*
X104884D01*
X142000Y310941D02*
X148559D01*
X51000Y15441D02*
X51441Y15000D01*
X51000Y15441D02*
Y50327D01*
X58957Y58284D01*
X141574Y322217D02*
Y322426D01*
X142000Y316059D02*
Y321791D01*
X141574Y322217D02*
X142000Y321791D01*
X148559Y310941D02*
X148561Y310939D01*
X221559Y61500D02*
X228500D01*
X250500Y39500D01*
X212500Y61500D02*
X216441D01*
X203035Y52035D02*
X212500Y61500D01*
X203035Y39154D02*
Y52035D01*
X115633Y134000D02*
X126537Y144904D01*
X298000Y83059D02*
Y88000D01*
X115500Y117500D02*
X126429Y128429D01*
X116000Y150500D02*
X126769Y161268D01*
X232662Y313662D02*
X232663Y313663D01*
X226067Y313662D02*
X232662D01*
X181000Y305000D02*
X181158Y305157D01*
X218500Y287500D02*
X218843Y287158D01*
X226067Y313661D02*
X226067Y313662D01*
X218843Y282000D02*
X219000Y281842D01*
X205106Y321339D02*
X205106Y321339D01*
X232662Y321338D02*
X232663Y321337D01*
X226230D02*
X226231Y321338D01*
X197661Y321339D02*
X205106D01*
X197661Y321339D02*
X197661Y321339D01*
X226231Y321338D02*
X232662D01*
X204017Y329008D02*
X204024Y329000D01*
X197500Y329000D02*
X197508Y329008D01*
X204017D01*
X193500Y305984D02*
X202933D01*
X148000Y358347D02*
X150047D01*
X152058Y356335D01*
X152165D01*
X189720Y318779D02*
X202933D01*
X152165Y356335D02*
X189720Y318779D01*
X254256Y316220D02*
X258535Y320500D01*
X258535D01*
X226067Y316220D02*
X254256D01*
X258535Y320500D02*
X297035Y359000D01*
X240280Y318779D02*
X280500Y359000D01*
X226067Y318779D02*
X240280D01*
X229965Y358500D02*
X234000Y354465D01*
X229965Y358500D02*
Y358500D01*
X234398Y323898D02*
X246500Y336000D01*
Y358500D01*
X226067Y323898D02*
X234398D01*
X196335Y356289D02*
Y358815D01*
X193500Y353453D02*
X196335Y356289D01*
X193500Y328500D02*
Y353453D01*
Y328500D02*
X195543Y326457D01*
X202933D01*
X193602Y323898D02*
X202933D01*
X204000Y272130D02*
Y281842D01*
X256500Y74500D02*
X261000D01*
X264437Y77937D01*
Y82512D01*
X289437Y77941D02*
X298000D01*
X101758Y125303D02*
X104884Y128429D01*
X58957Y125303D02*
X101758D01*
X279437Y78527D02*
Y82512D01*
X280023Y77941D02*
X289437D01*
X279437Y78527D02*
X280023Y77941D01*
D14*
X288567Y161000D02*
D03*
X264158D02*
D03*
D15*
X219000Y272130D02*
D03*
X214000D02*
D03*
X209000D02*
D03*
X204000D02*
D03*
Y250870D02*
D03*
X209000D02*
D03*
X214000D02*
D03*
X219000D02*
D03*
D16*
X226067Y305984D02*
D03*
Y308543D02*
D03*
Y311102D02*
D03*
Y313661D02*
D03*
Y316220D02*
D03*
Y318779D02*
D03*
Y321339D02*
D03*
Y323898D02*
D03*
Y326457D02*
D03*
Y329016D02*
D03*
X202933D02*
D03*
Y326457D02*
D03*
Y323898D02*
D03*
Y321339D02*
D03*
Y318779D02*
D03*
Y316220D02*
D03*
Y313661D02*
D03*
Y311102D02*
D03*
Y308543D02*
D03*
Y305984D02*
D03*
D17*
X226000Y155921D02*
D03*
Y196079D02*
D03*
D18*
X362732Y49882D02*
D03*
Y52441D02*
D03*
Y55000D02*
D03*
Y57559D02*
D03*
Y60118D02*
D03*
D19*
X363224Y42795D02*
D03*
Y67205D02*
D03*
D20*
X373260Y40039D02*
D03*
Y69961D02*
D03*
D21*
Y50276D02*
D03*
Y59724D02*
D03*
D22*
X55937Y339220D02*
D03*
Y366779D02*
D03*
Y349063D02*
D03*
Y356937D02*
D03*
D23*
X271937Y93189D02*
D03*
D24*
X292000Y282559D02*
D03*
Y277441D02*
D03*
X269000Y283059D02*
D03*
Y277941D02*
D03*
X289437Y77941D02*
D03*
Y83059D02*
D03*
X298000Y83059D02*
D03*
Y77941D02*
D03*
X155000Y314559D02*
D03*
Y309441D02*
D03*
X142000Y316059D02*
D03*
Y310941D02*
D03*
D25*
X292000Y291866D02*
D03*
Y300134D02*
D03*
X269000D02*
D03*
Y291866D02*
D03*
D26*
X100941Y322000D02*
D03*
X106059D02*
D03*
X106059Y332000D02*
D03*
X100941D02*
D03*
X56559Y15000D02*
D03*
X51441D02*
D03*
X216441Y61500D02*
D03*
X221559D02*
D03*
X169559Y313500D02*
D03*
X164441D02*
D03*
D27*
X264595Y196363D02*
D03*
X284279D02*
D03*
D28*
X266843Y215500D02*
D03*
X272158D02*
D03*
X270342Y136500D02*
D03*
X275658D02*
D03*
X218843Y282000D02*
D03*
X224158D02*
D03*
X219342Y243000D02*
D03*
X224658D02*
D03*
X203842Y282000D02*
D03*
X209157D02*
D03*
D29*
X255000Y103342D02*
D03*
Y108658D02*
D03*
X193500Y305157D02*
D03*
Y299843D02*
D03*
X186000Y305157D02*
D03*
Y299843D02*
D03*
D30*
X281709Y125500D02*
D03*
X270291D02*
D03*
X281709Y115000D02*
D03*
X270291D02*
D03*
D31*
X264437Y103866D02*
D03*
X269437D02*
D03*
X274437D02*
D03*
X279437D02*
D03*
Y82512D02*
D03*
X274437D02*
D03*
X269437D02*
D03*
X264437D02*
D03*
D64*
X55937Y366779D02*
X56297Y367140D01*
X67140D02*
X67500Y367500D01*
X209000Y243000D02*
X219342D01*
X209000D02*
Y250870D01*
X218843Y282000D02*
Y287158D01*
X219000Y272130D02*
Y281842D01*
Y243342D02*
Y250870D01*
D65*
X56297Y367140D02*
X67140D01*
X270342Y144443D02*
X270900Y145000D01*
X284000D01*
X291000Y138000D01*
X270342Y136500D02*
Y144443D01*
X269437Y103866D02*
Y114728D01*
X269500Y114791D02*
Y122400D01*
X270500Y124709D02*
Y135658D01*
D66*
X61654Y41238D02*
Y41823D01*
D67*
X347337Y313663D02*
X360748Y300252D01*
X232663Y313663D02*
X347337D01*
X360748Y270374D02*
Y300252D01*
X186000Y305157D02*
X193500D01*
X181158D02*
X186000D01*
D68*
X315500Y17000D02*
X339500D01*
D69*
X352927Y49956D02*
X362658D01*
D70*
X284500Y17000D02*
D03*
X315500D02*
D03*
X280500Y380654D02*
D03*
X179965Y380153D02*
D03*
X229965D02*
D03*
X131465Y380000D02*
D03*
X252535Y17846D02*
D03*
X203035Y17500D02*
D03*
X155500Y17000D02*
D03*
X108035D02*
D03*
X82965Y379654D02*
D03*
D71*
X284500Y38653D02*
D03*
X315500D02*
D03*
X280500Y359000D02*
D03*
X297035Y380654D02*
D03*
Y359000D02*
D03*
X179965Y358500D02*
D03*
X196500Y380153D02*
D03*
Y358500D02*
D03*
X229965D02*
D03*
X246500Y380153D02*
D03*
Y358500D02*
D03*
X131465Y358347D02*
D03*
X148000Y380000D02*
D03*
Y358347D02*
D03*
X252535Y39500D02*
D03*
X236000Y17846D02*
D03*
Y39500D02*
D03*
X203035Y39154D02*
D03*
X186500Y17500D02*
D03*
Y39154D02*
D03*
X155500Y38653D02*
D03*
X138965Y17000D02*
D03*
Y38653D02*
D03*
X108035D02*
D03*
X91500Y17000D02*
D03*
Y38653D02*
D03*
X82965Y358000D02*
D03*
X99500Y379654D02*
D03*
Y358000D02*
D03*
D72*
X183000Y216000D02*
D03*
X152500Y275000D02*
D03*
X339500Y17000D02*
D03*
X248000Y297000D02*
D03*
X291000Y138000D02*
D03*
X340500Y42500D02*
D03*
X165000Y102500D02*
D03*
D73*
X104884Y95358D02*
D03*
Y111894D02*
D03*
Y128429D02*
D03*
Y144965D02*
D03*
Y161500D02*
D03*
X126537Y95358D02*
D03*
Y111894D02*
D03*
Y128429D02*
D03*
Y144965D02*
D03*
Y161500D02*
D03*
D74*
X40000Y41823D02*
D03*
Y58358D02*
D03*
Y74894D02*
D03*
Y91429D02*
D03*
Y107965D02*
D03*
Y124500D02*
D03*
Y141035D02*
D03*
Y157571D02*
D03*
X61654Y41823D02*
D03*
Y58358D02*
D03*
Y74894D02*
D03*
Y91429D02*
D03*
Y107965D02*
D03*
Y124500D02*
D03*
Y141035D02*
D03*
Y157571D02*
D03*
X39500Y198894D02*
D03*
Y215429D02*
D03*
Y231965D02*
D03*
Y248500D02*
D03*
Y265035D02*
D03*
Y281571D02*
D03*
Y298106D02*
D03*
X61154Y198894D02*
D03*
Y215429D02*
D03*
Y231965D02*
D03*
Y248500D02*
D03*
Y265035D02*
D03*
Y281571D02*
D03*
Y298106D02*
D03*
D75*
X11260Y157571D02*
D03*
Y41823D02*
D03*
X10760Y198894D02*
D03*
Y298106D02*
D03*
D76*
X329252Y160138D02*
D03*
Y175886D02*
D03*
Y191634D02*
D03*
Y207382D02*
D03*
Y223130D02*
D03*
Y238878D02*
D03*
Y254626D02*
D03*
Y270374D02*
D03*
X345000Y168012D02*
D03*
Y183760D02*
D03*
Y199508D02*
D03*
Y215256D02*
D03*
Y231004D02*
D03*
Y246752D02*
D03*
Y262500D02*
D03*
X360748Y160138D02*
D03*
Y175886D02*
D03*
Y191634D02*
D03*
Y207382D02*
D03*
Y223130D02*
D03*
Y238878D02*
D03*
Y254626D02*
D03*
Y270374D02*
D03*
D77*
X346969Y134547D02*
D03*
Y295965D02*
D03*
D78*
X47000Y327606D02*
D03*
Y378394D02*
D03*
D79*
X19795Y325835D02*
D03*
Y380165D02*
D03*
D80*
X100500Y203500D02*
D03*
X366142Y15748D02*
D03*
Y377953D02*
D03*
D81*
X267500Y91000D02*
D03*
X272000D02*
D03*
X275791Y91012D02*
D03*
X267500Y96000D02*
D03*
X272000D02*
D03*
X276000D02*
D03*
X195969Y310961D02*
D03*
X269000Y272500D02*
D03*
X155500Y322000D02*
D03*
X251000Y217000D02*
D03*
X246000D02*
D03*
X241000D02*
D03*
X236000D02*
D03*
X209000Y243000D02*
D03*
X231000Y217000D02*
D03*
X226353Y216852D02*
D03*
X141574Y322426D02*
D03*
X148561Y310939D02*
D03*
X298000Y88000D02*
D03*
X232663Y313663D02*
D03*
X181000Y305000D02*
D03*
X218500Y287500D02*
D03*
X197661Y321339D02*
D03*
X232663Y321337D02*
D03*
X197500Y329000D02*
D03*
D82*
X67500Y367500D02*
D03*
X270342Y144443D02*
D03*
D83*
X352853Y50031D02*
D03*
M02*
