G04*
G04 #@! TF.GenerationSoftware,Altium Limited,Altium Designer,21.0.9 (235)*
G04*
G04 Layer_Color=32768*
%FSLAX25Y25*%
%MOIN*%
G70*
G04*
G04 #@! TF.SameCoordinates,91F4C2CD-C4D8-4C02-87E3-D191CECDD99B*
G04*
G04*
G04 #@! TF.FilePolarity,Positive*
G04*
G01*
G75*
%ADD10C,0.00787*%
%ADD11C,0.00394*%
%ADD84C,0.00197*%
D10*
X37063Y353000D02*
X44937D01*
X41000Y349063D02*
Y356937D01*
D11*
X52130Y15000D02*
X55870D01*
X54000Y13130D02*
Y16870D01*
X217130Y61500D02*
X220870D01*
X219000Y59630D02*
Y63370D01*
X285531Y297000D02*
X289469D01*
X287500Y295031D02*
Y298969D01*
X275024Y6173D02*
Y52905D01*
Y6173D02*
X327976D01*
Y52905D01*
X275024D02*
X327976D01*
X361346Y32635D02*
Y77517D01*
X395645D01*
Y32635D02*
Y77517D01*
X361346Y32635D02*
X395645D01*
X68902Y181894D02*
Y312602D01*
X-20815Y181894D02*
X68902D01*
X-20815D02*
Y312602D01*
X68902D01*
X307205Y91634D02*
Y338878D01*
X471378D01*
Y91634D02*
Y338878D01*
X307205Y91634D02*
X471378D01*
X272468Y196363D02*
X276406D01*
X274437Y194395D02*
Y198332D01*
X269500Y213630D02*
Y217370D01*
X267630Y215500D02*
X271370D01*
X89135Y176067D02*
X137758D01*
X89135Y80791D02*
Y176067D01*
Y80791D02*
X137758D01*
Y176067D01*
X-21358Y172064D02*
X68358D01*
X-21358Y27182D02*
Y172064D01*
Y27182D02*
X68358D01*
Y172064D01*
X287567Y80500D02*
X291307D01*
X289437Y78630D02*
Y82370D01*
X296130Y80500D02*
X299870D01*
X298000Y78630D02*
Y82370D01*
X253130Y106000D02*
X256870D01*
X255000Y104130D02*
Y107870D01*
X274031Y125500D02*
X277969D01*
X276000Y123531D02*
Y127469D01*
X274031Y115000D02*
X277969D01*
X276000Y113031D02*
Y116969D01*
X273000Y134630D02*
Y138370D01*
X271130Y136500D02*
X274870D01*
X297630Y289000D02*
X301370D01*
X299500Y287130D02*
Y290870D01*
X221500Y280130D02*
Y283870D01*
X219630Y282000D02*
X223370D01*
X191630Y302500D02*
X195370D01*
X193500Y300630D02*
Y304370D01*
X184130Y302500D02*
X187870D01*
X186000Y300630D02*
Y304370D01*
X171500Y311630D02*
Y315370D01*
X169630Y313500D02*
X173370D01*
X222000Y241130D02*
Y244870D01*
X220130Y243000D02*
X223870D01*
X206500Y280130D02*
Y283870D01*
X204630Y282000D02*
X208370D01*
X158630Y311500D02*
X162370D01*
X160500Y309630D02*
Y313370D01*
X144630Y313500D02*
X148370D01*
X146500Y311630D02*
Y315370D01*
X276362Y159031D02*
Y162969D01*
X274394Y161000D02*
X278331D01*
D84*
X59315Y12047D02*
Y17953D01*
X48685Y12047D02*
Y17953D01*
Y12047D02*
X59315D01*
X48685Y17953D02*
X59315D01*
X213685Y58547D02*
Y64453D01*
X224315Y58547D02*
Y64453D01*
X213685D02*
X224315D01*
X213685Y58547D02*
X224315D01*
X264150Y7020D02*
Y47571D01*
X222811D02*
X264150D01*
X222811Y7020D02*
Y47571D01*
Y7020D02*
X264150D01*
X214650Y6673D02*
Y47224D01*
X173311D02*
X214650D01*
X173311Y6673D02*
Y47224D01*
Y6673D02*
X214650D01*
X167114Y6173D02*
Y46724D01*
X125776D02*
X167114D01*
X125776Y6173D02*
Y46724D01*
Y6173D02*
X167114D01*
X119650D02*
Y46724D01*
X78311D02*
X119650D01*
X78311Y6173D02*
Y46724D01*
Y6173D02*
X119650D01*
X291240Y289500D02*
Y304500D01*
X283760Y289500D02*
Y304500D01*
X291240D01*
X283760Y289500D02*
X291240D01*
X235516Y276016D02*
Y287984D01*
X247484D01*
Y276016D02*
Y287984D01*
X235516Y276016D02*
X247484D01*
X285016Y132016D02*
Y143984D01*
X296984D01*
Y132016D02*
Y143984D01*
X285016Y132016D02*
X296984D01*
X177016Y210016D02*
Y221984D01*
X188984D01*
Y210016D02*
Y221984D01*
X177016Y210016D02*
X188984D01*
X333516Y11016D02*
Y22984D01*
X345484D01*
Y11016D02*
Y22984D01*
X333516Y11016D02*
X345484D01*
X102016Y303516D02*
Y315484D01*
X113984D01*
Y303516D02*
Y315484D01*
X102016Y303516D02*
X113984D01*
X159016Y96516D02*
Y108484D01*
X170984D01*
Y96516D02*
Y108484D01*
X159016Y96516D02*
X170984D01*
X334016Y32016D02*
Y43984D01*
X345984D01*
Y32016D02*
Y43984D01*
X334016Y32016D02*
X345984D01*
X71350Y349929D02*
Y390480D01*
Y349929D02*
X112689D01*
Y390480D01*
X71350D02*
X112689D01*
X119850Y350276D02*
Y390827D01*
Y350276D02*
X161189D01*
Y390827D01*
X119850D02*
X161189D01*
X168350Y350429D02*
Y390980D01*
Y350429D02*
X209689D01*
Y390980D01*
X168350D02*
X209689D01*
X218350Y350429D02*
Y390980D01*
Y350429D02*
X259689D01*
Y390980D01*
X218350D02*
X259689D01*
X268886Y350929D02*
Y391480D01*
Y350929D02*
X310224D01*
Y391480D01*
X268886D02*
X310224D01*
X257508Y182190D02*
Y210537D01*
X291366Y182190D02*
Y210537D01*
X257508D02*
X291366D01*
X257508Y182190D02*
X291366D01*
X264185Y218453D02*
X274815D01*
X264185Y212547D02*
X274815D01*
X264185D02*
Y218453D01*
X274815Y212547D02*
Y218453D01*
X200803Y148736D02*
X251197D01*
Y203264D01*
X200803D02*
X251197D01*
X200803Y148736D02*
Y203264D01*
X-5457Y319535D02*
Y386465D01*
X57535D02*
X57535Y319535D01*
X-5457D02*
X57535D01*
X-5457Y386465D02*
X57535D01*
X286484Y75185D02*
Y85815D01*
X292390Y75185D02*
Y85815D01*
X286484Y75185D02*
X292390D01*
X286484Y85815D02*
X292390D01*
X300953Y75185D02*
Y85815D01*
X295047Y75185D02*
Y85815D01*
X300953D01*
X295047Y75185D02*
X300953D01*
X252047Y100685D02*
Y111315D01*
X257953Y100685D02*
Y111315D01*
X252047Y100685D02*
X257953D01*
X252047Y111315D02*
X257953D01*
X285252Y120972D02*
Y130028D01*
X266748Y120972D02*
Y130028D01*
Y120972D02*
X285252D01*
X266748Y130028D02*
X285252D01*
Y110472D02*
Y119528D01*
X266748Y110472D02*
Y119528D01*
Y110472D02*
X285252D01*
X266748Y119528D02*
X285252D01*
X261110Y78524D02*
X282764D01*
Y107854D01*
X261110D02*
X282764D01*
X261110Y78524D02*
Y107854D01*
X267685Y139453D02*
X278315D01*
X267685Y133547D02*
X278315D01*
X267685D02*
Y139453D01*
X278315Y133547D02*
Y139453D01*
X302453Y283685D02*
Y294315D01*
X296547Y283685D02*
Y294315D01*
Y283685D02*
X302453D01*
X296547Y294315D02*
X302453D01*
X216185Y284953D02*
X226815D01*
X216185Y279047D02*
X226815D01*
X216185D02*
Y284953D01*
X226815Y279047D02*
Y284953D01*
X196453Y297185D02*
Y307815D01*
X190547Y297185D02*
Y307815D01*
X196453D01*
X190547Y297185D02*
X196453D01*
X188953D02*
Y307815D01*
X183047Y297185D02*
Y307815D01*
X188953D01*
X183047Y297185D02*
X188953D01*
X166185Y310547D02*
X176815D01*
X166185Y316453D02*
X176815D01*
Y310547D02*
Y316453D01*
X166185Y310547D02*
Y316453D01*
X216685Y245953D02*
X227315D01*
X216685Y240047D02*
X227315D01*
X216685D02*
Y245953D01*
X227315Y240047D02*
Y245953D01*
X200870Y276067D02*
X222130D01*
X200870Y246933D02*
Y276067D01*
Y246933D02*
X222130D01*
Y276067D01*
X229953Y303524D02*
Y331476D01*
X199047D02*
X229953D01*
X199047Y303524D02*
Y331476D01*
Y303524D02*
X229953D01*
X201185Y284953D02*
X211815D01*
X201185Y279047D02*
X211815D01*
X201185D02*
Y284953D01*
X211815Y279047D02*
Y284953D01*
X163453Y306185D02*
Y316815D01*
X157547Y306185D02*
Y316815D01*
X163453D01*
X157547Y306185D02*
X163453D01*
X149453Y308185D02*
Y318815D01*
X143547Y308185D02*
Y318815D01*
X149453D01*
X143547Y308185D02*
X149453D01*
X258646Y174386D02*
X294079D01*
X258646Y147614D02*
X294079D01*
X258646D02*
Y174386D01*
X294079Y147614D02*
Y174386D01*
M02*
