G04*
G04 #@! TF.GenerationSoftware,Altium Limited,Altium Designer,21.0.9 (235)*
G04*
G04 Layer_Physical_Order=2*
G04 Layer_Color=36540*
%FSLAX25Y25*%
%MOIN*%
G70*
G04*
G04 #@! TF.SameCoordinates,BA8C7152-59F1-4345-8518-0593712C2385*
G04*
G04*
G04 #@! TF.FilePolarity,Positive*
G04*
G01*
G75*
%ADD70R,0.08563X0.08563*%
%ADD72R,0.04331X0.04331*%
%ADD73C,0.08268*%
%ADD81C,0.01772*%
%ADD82C,0.03150*%
%ADD83C,0.02362*%
G36*
X385697Y803D02*
X803D01*
Y392197D01*
X112100D01*
Y319500D01*
X113000Y318600D01*
X166627D01*
X167100Y318127D01*
Y263500D01*
X168000Y262600D01*
X248500D01*
X249136Y262864D01*
X252136Y265864D01*
X252400Y266500D01*
Y321627D01*
X255373Y324600D01*
X312500D01*
X313136Y324864D01*
X315636Y327364D01*
X315900Y328000D01*
Y392197D01*
X365789D01*
X365888Y391697D01*
X356349Y387746D01*
X352292Y377953D01*
X356349Y368160D01*
X366142Y364103D01*
X375935Y368160D01*
X379991Y377953D01*
X375935Y387746D01*
X366395Y391697D01*
X366495Y392197D01*
X385697D01*
Y803D01*
D02*
G37*
G36*
X314100Y328373D02*
X312127Y326400D01*
X255000D01*
X254364Y326136D01*
X250864Y322636D01*
X250600Y322000D01*
Y300165D01*
X248984D01*
Y297000D01*
Y293835D01*
X250600D01*
Y266873D01*
X248127Y264400D01*
X168900D01*
Y318500D01*
X168636Y319136D01*
X167636Y320136D01*
X167000Y320400D01*
X157420D01*
X157086Y320900D01*
X157133Y321016D01*
X153867D01*
X153914Y320900D01*
X153580Y320400D01*
X142892D01*
X142794Y320890D01*
X143017Y320983D01*
X143207Y321442D01*
X139940D01*
X140130Y320983D01*
X140354Y320890D01*
X140256Y320400D01*
X113900D01*
Y392197D01*
X314100D01*
Y328373D01*
D02*
G37*
%LPC*%
G36*
X88246Y384935D02*
X84441D01*
Y381130D01*
X88246D01*
Y384935D01*
D02*
G37*
G36*
X81488D02*
X77683D01*
Y381130D01*
X81488D01*
Y384935D01*
D02*
G37*
G36*
X88246Y378177D02*
X84441D01*
Y374372D01*
X88246D01*
Y378177D01*
D02*
G37*
G36*
X81488D02*
X77683D01*
Y374372D01*
X81488D01*
Y378177D01*
D02*
G37*
G36*
X99500Y385353D02*
X95470Y383684D01*
X93800Y379654D01*
X95470Y375623D01*
X99500Y373954D01*
X103530Y375623D01*
X105200Y379654D01*
X103530Y383684D01*
X99500Y385353D01*
D02*
G37*
G36*
X23732Y387197D02*
X15858D01*
X10886Y385137D01*
X8827Y380165D01*
X10886Y375194D01*
X15858Y373134D01*
X23732D01*
X28704Y375194D01*
X30764Y380165D01*
X28704Y385137D01*
X23732Y387197D01*
D02*
G37*
G36*
X49362Y385425D02*
X44638D01*
X39666Y383366D01*
X37606Y378394D01*
X39666Y373422D01*
X44638Y371362D01*
X49362D01*
X54334Y373422D01*
X56393Y378394D01*
X54334Y383366D01*
X49362Y385425D01*
D02*
G37*
G36*
X68976Y369675D02*
Y368976D01*
X69675D01*
X69471Y369471D01*
X68976Y369675D01*
D02*
G37*
G36*
X66024D02*
X65529Y369471D01*
X65325Y368976D01*
X66024D01*
Y369675D01*
D02*
G37*
G36*
X69675Y366024D02*
X68976D01*
Y365325D01*
X69471Y365529D01*
X69675Y366024D01*
D02*
G37*
G36*
X66024D02*
X65325D01*
X65529Y365529D01*
X66024Y365325D01*
Y366024D01*
D02*
G37*
G36*
X99500Y363700D02*
X95470Y362030D01*
X93800Y358000D01*
X95470Y353970D01*
X99500Y352300D01*
X103530Y353970D01*
X105200Y358000D01*
X103530Y362030D01*
X99500Y363700D01*
D02*
G37*
G36*
X82965D02*
X78934Y362030D01*
X77265Y358000D01*
X78934Y353970D01*
X82965Y352300D01*
X86995Y353970D01*
X88664Y358000D01*
X86995Y362030D01*
X82965Y363700D01*
D02*
G37*
G36*
X49362Y334638D02*
X44638D01*
X39666Y332578D01*
X37606Y327606D01*
X39666Y322634D01*
X44638Y320575D01*
X49362D01*
X54334Y322634D01*
X56393Y327606D01*
X54334Y332578D01*
X49362Y334638D01*
D02*
G37*
G36*
X23732Y332866D02*
X15858D01*
X10886Y330806D01*
X8827Y325835D01*
X10886Y320863D01*
X15858Y318803D01*
X23732D01*
X28704Y320863D01*
X30764Y325835D01*
X28704Y330806D01*
X23732Y332866D01*
D02*
G37*
G36*
X148561Y312963D02*
X147130Y312370D01*
X146537Y310939D01*
X147130Y309507D01*
X148561Y308914D01*
X149993Y309507D01*
X150586Y310939D01*
X149993Y312370D01*
X148561Y312963D01*
D02*
G37*
G36*
X61154Y305084D02*
X56219Y303041D01*
X54176Y298106D01*
X56219Y293172D01*
X61154Y291128D01*
X66088Y293172D01*
X68132Y298106D01*
X66088Y303041D01*
X61154Y305084D01*
D02*
G37*
G36*
X39500D02*
X34566Y303041D01*
X32522Y298106D01*
X34566Y293172D01*
X39500Y291128D01*
X44434Y293172D01*
X46478Y298106D01*
X44434Y303041D01*
X39500Y305084D01*
D02*
G37*
G36*
X10760Y305670D02*
X5411Y303455D01*
X3196Y298106D01*
X5411Y292758D01*
X10760Y290542D01*
X16108Y292758D01*
X18324Y298106D01*
X16108Y303455D01*
X10760Y305670D01*
D02*
G37*
G36*
X346969Y306394D02*
X339594Y303340D01*
X336539Y295965D01*
X339594Y288590D01*
X346969Y285535D01*
X354343Y288590D01*
X357398Y295965D01*
X354343Y303340D01*
X346969Y306394D01*
D02*
G37*
G36*
X61154Y288549D02*
X56219Y286505D01*
X54176Y281571D01*
X56219Y276637D01*
X61154Y274593D01*
X66088Y276637D01*
X68132Y281571D01*
X66088Y286505D01*
X61154Y288549D01*
D02*
G37*
G36*
X39500D02*
X34566Y286505D01*
X32522Y281571D01*
X34566Y276637D01*
X39500Y274593D01*
X44434Y276637D01*
X46478Y281571D01*
X44434Y286505D01*
X39500Y288549D01*
D02*
G37*
G36*
X155650Y278150D02*
X149350D01*
Y271850D01*
X155650D01*
Y278150D01*
D02*
G37*
G36*
X269000Y274524D02*
X267569Y273931D01*
X266976Y272500D01*
X267569Y271069D01*
X269000Y270476D01*
X270431Y271069D01*
X271024Y272500D01*
X270431Y273931D01*
X269000Y274524D01*
D02*
G37*
G36*
X360748Y277032D02*
X356040Y275082D01*
X354090Y270374D01*
X356040Y265666D01*
X360748Y263716D01*
X365456Y265666D01*
X367406Y270374D01*
X365456Y275082D01*
X360748Y277032D01*
D02*
G37*
G36*
X329252D02*
X324544Y275082D01*
X322594Y270374D01*
X324544Y265666D01*
X329252Y263716D01*
X333960Y265666D01*
X335910Y270374D01*
X333960Y275082D01*
X329252Y277032D01*
D02*
G37*
G36*
X61154Y272013D02*
X56219Y269970D01*
X54176Y265035D01*
X56219Y260101D01*
X61154Y258057D01*
X66088Y260101D01*
X68132Y265035D01*
X66088Y269970D01*
X61154Y272013D01*
D02*
G37*
G36*
X39500D02*
X34566Y269970D01*
X32522Y265035D01*
X34566Y260101D01*
X39500Y258057D01*
X44434Y260101D01*
X46478Y265035D01*
X44434Y269970D01*
X39500Y272013D01*
D02*
G37*
G36*
X345000Y269158D02*
X340292Y267208D01*
X338342Y262500D01*
X340292Y257792D01*
X345000Y255842D01*
X349708Y257792D01*
X351658Y262500D01*
X349708Y267208D01*
X345000Y269158D01*
D02*
G37*
G36*
X360748Y261284D02*
X356040Y259334D01*
X354090Y254626D01*
X356040Y249918D01*
X360748Y247968D01*
X365456Y249918D01*
X367406Y254626D01*
X365456Y259334D01*
X360748Y261284D01*
D02*
G37*
G36*
X329252D02*
X324544Y259334D01*
X322594Y254626D01*
X324544Y249918D01*
X329252Y247968D01*
X333960Y249918D01*
X335910Y254626D01*
X333960Y259334D01*
X329252Y261284D01*
D02*
G37*
G36*
X61154Y255478D02*
X56219Y253434D01*
X54176Y248500D01*
X56219Y243566D01*
X61154Y241522D01*
X66088Y243566D01*
X68132Y248500D01*
X66088Y253434D01*
X61154Y255478D01*
D02*
G37*
G36*
X39500D02*
X34566Y253434D01*
X32522Y248500D01*
X34566Y243566D01*
X39500Y241522D01*
X44434Y243566D01*
X46478Y248500D01*
X44434Y253434D01*
X39500Y255478D01*
D02*
G37*
G36*
X345000Y253410D02*
X340292Y251460D01*
X338342Y246752D01*
X340292Y242044D01*
X345000Y240094D01*
X349708Y242044D01*
X351658Y246752D01*
X349708Y251460D01*
X345000Y253410D01*
D02*
G37*
G36*
X360748Y245536D02*
X356040Y243586D01*
X354090Y238878D01*
X356040Y234170D01*
X360748Y232220D01*
X365456Y234170D01*
X367406Y238878D01*
X365456Y243586D01*
X360748Y245536D01*
D02*
G37*
G36*
X329252D02*
X324544Y243586D01*
X322594Y238878D01*
X324544Y234170D01*
X329252Y232220D01*
X333960Y234170D01*
X335910Y238878D01*
X333960Y243586D01*
X329252Y245536D01*
D02*
G37*
G36*
X61154Y238943D02*
X56219Y236899D01*
X54176Y231965D01*
X56219Y227030D01*
X61154Y224987D01*
X66088Y227030D01*
X68132Y231965D01*
X66088Y236899D01*
X61154Y238943D01*
D02*
G37*
G36*
X39500D02*
X34566Y236899D01*
X32522Y231965D01*
X34566Y227030D01*
X39500Y224987D01*
X44434Y227030D01*
X46478Y231965D01*
X44434Y236899D01*
X39500Y238943D01*
D02*
G37*
G36*
X345000Y237662D02*
X340292Y235712D01*
X338342Y231004D01*
X340292Y226296D01*
X345000Y224345D01*
X349708Y226296D01*
X351658Y231004D01*
X349708Y235712D01*
X345000Y237662D01*
D02*
G37*
G36*
X186165Y219165D02*
X184476D01*
Y217476D01*
X186165D01*
Y219165D01*
D02*
G37*
G36*
X181524D02*
X179835D01*
Y217476D01*
X181524D01*
Y219165D01*
D02*
G37*
G36*
X360748Y229788D02*
X356040Y227838D01*
X354090Y223130D01*
X356040Y218422D01*
X360748Y216472D01*
X365456Y218422D01*
X367406Y223130D01*
X365456Y227838D01*
X360748Y229788D01*
D02*
G37*
G36*
X329252D02*
X324544Y227838D01*
X322594Y223130D01*
X324544Y218422D01*
X329252Y216472D01*
X333960Y218422D01*
X335910Y223130D01*
X333960Y227838D01*
X329252Y229788D01*
D02*
G37*
G36*
X186165Y214524D02*
X184476D01*
Y212835D01*
X186165D01*
Y214524D01*
D02*
G37*
G36*
X181524D02*
X179835D01*
Y212835D01*
X181524D01*
Y214524D01*
D02*
G37*
G36*
X345000Y221914D02*
X340292Y219964D01*
X338342Y215256D01*
X340292Y210548D01*
X345000Y208597D01*
X349708Y210548D01*
X351658Y215256D01*
X349708Y219964D01*
X345000Y221914D01*
D02*
G37*
G36*
X61154Y222407D02*
X56219Y220363D01*
X54176Y215429D01*
X56219Y210495D01*
X61154Y208451D01*
X66088Y210495D01*
X68132Y215429D01*
X66088Y220363D01*
X61154Y222407D01*
D02*
G37*
G36*
X39500D02*
X34566Y220363D01*
X32522Y215429D01*
X34566Y210495D01*
X39500Y208451D01*
X44434Y210495D01*
X46478Y215429D01*
X44434Y220363D01*
X39500Y222407D01*
D02*
G37*
G36*
X360748Y214040D02*
X356040Y212090D01*
X354090Y207382D01*
X356040Y202674D01*
X360748Y200724D01*
X365456Y202674D01*
X367406Y207382D01*
X365456Y212090D01*
X360748Y214040D01*
D02*
G37*
G36*
X329252D02*
X324544Y212090D01*
X322594Y207382D01*
X324544Y202674D01*
X329252Y200724D01*
X333960Y202674D01*
X335910Y207382D01*
X333960Y212090D01*
X329252Y214040D01*
D02*
G37*
G36*
X345000Y206166D02*
X340292Y204216D01*
X338342Y199508D01*
X340292Y194800D01*
X345000Y192850D01*
X349708Y194800D01*
X351658Y199508D01*
X349708Y204216D01*
X345000Y206166D01*
D02*
G37*
G36*
X61154Y205872D02*
X56219Y203828D01*
X54176Y198894D01*
X56219Y193959D01*
X61154Y191916D01*
X66088Y193959D01*
X68132Y198894D01*
X66088Y203828D01*
X61154Y205872D01*
D02*
G37*
G36*
X39500D02*
X34566Y203828D01*
X32522Y198894D01*
X34566Y193959D01*
X39500Y191916D01*
X44434Y193959D01*
X46478Y198894D01*
X44434Y203828D01*
X39500Y205872D01*
D02*
G37*
G36*
X10760Y206458D02*
X5411Y204242D01*
X3196Y198894D01*
X5411Y193545D01*
X10760Y191330D01*
X16108Y193545D01*
X18324Y198894D01*
X16108Y204242D01*
X10760Y206458D01*
D02*
G37*
G36*
X100500Y217350D02*
X90707Y213293D01*
X86651Y203500D01*
X90707Y193707D01*
X100500Y189650D01*
X110293Y193707D01*
X114349Y203500D01*
X110293Y213293D01*
X100500Y217350D01*
D02*
G37*
G36*
X360748Y198292D02*
X356040Y196342D01*
X354090Y191634D01*
X356040Y186926D01*
X360748Y184976D01*
X365456Y186926D01*
X367406Y191634D01*
X365456Y196342D01*
X360748Y198292D01*
D02*
G37*
G36*
X329252D02*
X324544Y196342D01*
X322594Y191634D01*
X324544Y186926D01*
X329252Y184976D01*
X333960Y186926D01*
X335910Y191634D01*
X333960Y196342D01*
X329252Y198292D01*
D02*
G37*
G36*
X345000Y190418D02*
X340292Y188468D01*
X338342Y183760D01*
X340292Y179052D01*
X345000Y177101D01*
X349708Y179052D01*
X351658Y183760D01*
X349708Y188468D01*
X345000Y190418D01*
D02*
G37*
G36*
X360748Y182544D02*
X356040Y180594D01*
X354090Y175886D01*
X356040Y171178D01*
X360748Y169227D01*
X365456Y171178D01*
X367406Y175886D01*
X365456Y180594D01*
X360748Y182544D01*
D02*
G37*
G36*
X329252D02*
X324544Y180594D01*
X322594Y175886D01*
X324544Y171178D01*
X329252Y169227D01*
X333960Y171178D01*
X335910Y175886D01*
X333960Y180594D01*
X329252Y182544D01*
D02*
G37*
G36*
X345000Y174670D02*
X340292Y172720D01*
X338342Y168012D01*
X340292Y163304D01*
X345000Y161353D01*
X349708Y163304D01*
X351658Y168012D01*
X349708Y172720D01*
X345000Y174670D01*
D02*
G37*
G36*
X126537Y167040D02*
X122620Y165417D01*
X120997Y161500D01*
X122620Y157583D01*
X126537Y155960D01*
X130454Y157583D01*
X132077Y161500D01*
X130454Y165417D01*
X126537Y167040D01*
D02*
G37*
G36*
X104884D02*
X100966Y165417D01*
X99344Y161500D01*
X100966Y157583D01*
X104884Y155960D01*
X108801Y157583D01*
X110423Y161500D01*
X108801Y165417D01*
X104884Y167040D01*
D02*
G37*
G36*
X360748Y166796D02*
X356040Y164846D01*
X354090Y160138D01*
X356040Y155430D01*
X360748Y153479D01*
X365456Y155430D01*
X367406Y160138D01*
X365456Y164846D01*
X360748Y166796D01*
D02*
G37*
G36*
X329252D02*
X324544Y164846D01*
X322594Y160138D01*
X324544Y155430D01*
X329252Y153479D01*
X333960Y155430D01*
X335910Y160138D01*
X333960Y164846D01*
X329252Y166796D01*
D02*
G37*
G36*
X61654Y164549D02*
X56719Y162505D01*
X54676Y157571D01*
X56719Y152637D01*
X61654Y150593D01*
X66588Y152637D01*
X68632Y157571D01*
X66588Y162505D01*
X61654Y164549D01*
D02*
G37*
G36*
X40000D02*
X35066Y162505D01*
X33022Y157571D01*
X35066Y152637D01*
X40000Y150593D01*
X44934Y152637D01*
X46978Y157571D01*
X44934Y162505D01*
X40000Y164549D01*
D02*
G37*
G36*
X11260Y165135D02*
X5911Y162919D01*
X3696Y157571D01*
X5911Y152222D01*
X11260Y150007D01*
X16608Y152222D01*
X18824Y157571D01*
X16608Y162919D01*
X11260Y165135D01*
D02*
G37*
G36*
X270342Y147213D02*
X268384Y146402D01*
X267573Y144443D01*
X268384Y142484D01*
X270342Y141673D01*
X272301Y142484D01*
X273112Y144443D01*
X272301Y146402D01*
X270342Y147213D01*
D02*
G37*
G36*
X126537Y150504D02*
X122620Y148882D01*
X120997Y144965D01*
X122620Y141047D01*
X126537Y139425D01*
X130454Y141047D01*
X132077Y144965D01*
X130454Y148882D01*
X126537Y150504D01*
D02*
G37*
G36*
X104884D02*
X100966Y148882D01*
X99344Y144965D01*
X100966Y141047D01*
X104884Y139425D01*
X108801Y141047D01*
X110423Y144965D01*
X108801Y148882D01*
X104884Y150504D01*
D02*
G37*
G36*
X294150Y141150D02*
X287850D01*
Y134850D01*
X294150D01*
Y141150D01*
D02*
G37*
G36*
X61654Y148013D02*
X56719Y145970D01*
X54676Y141035D01*
X56719Y136101D01*
X61654Y134057D01*
X66588Y136101D01*
X68632Y141035D01*
X66588Y145970D01*
X61654Y148013D01*
D02*
G37*
G36*
X40000D02*
X35066Y145970D01*
X33022Y141035D01*
X35066Y136101D01*
X40000Y134057D01*
X44934Y136101D01*
X46978Y141035D01*
X44934Y145970D01*
X40000Y148013D01*
D02*
G37*
G36*
X346969Y144977D02*
X339594Y141922D01*
X336539Y134547D01*
X339594Y127172D01*
X346969Y124118D01*
X354343Y127172D01*
X357398Y134547D01*
X354343Y141922D01*
X346969Y144977D01*
D02*
G37*
G36*
X126537Y133969D02*
X122620Y132346D01*
X120997Y128429D01*
X122620Y124512D01*
X126537Y122889D01*
X130454Y124512D01*
X132077Y128429D01*
X130454Y132346D01*
X126537Y133969D01*
D02*
G37*
G36*
X104884D02*
X100966Y132346D01*
X99344Y128429D01*
X100966Y124512D01*
X104884Y122889D01*
X108801Y124512D01*
X110423Y128429D01*
X108801Y132346D01*
X104884Y133969D01*
D02*
G37*
G36*
X61654Y131478D02*
X56719Y129434D01*
X54676Y124500D01*
X56719Y119566D01*
X61654Y117522D01*
X66588Y119566D01*
X68632Y124500D01*
X66588Y129434D01*
X61654Y131478D01*
D02*
G37*
G36*
X40000D02*
X35066Y129434D01*
X33022Y124500D01*
X35066Y119566D01*
X40000Y117522D01*
X44934Y119566D01*
X46978Y124500D01*
X44934Y129434D01*
X40000Y131478D01*
D02*
G37*
G36*
X126537Y117434D02*
X122620Y115811D01*
X120997Y111894D01*
X122620Y107976D01*
X126537Y106354D01*
X130454Y107976D01*
X132077Y111894D01*
X130454Y115811D01*
X126537Y117434D01*
D02*
G37*
G36*
X104884D02*
X100966Y115811D01*
X99344Y111894D01*
X100966Y107976D01*
X104884Y106354D01*
X108801Y107976D01*
X110423Y111894D01*
X108801Y115811D01*
X104884Y117434D01*
D02*
G37*
G36*
X61654Y114943D02*
X56719Y112899D01*
X54676Y107965D01*
X56719Y103030D01*
X61654Y100987D01*
X66588Y103030D01*
X68632Y107965D01*
X66588Y112899D01*
X61654Y114943D01*
D02*
G37*
G36*
X40000D02*
X35066Y112899D01*
X33022Y107965D01*
X35066Y103030D01*
X40000Y100987D01*
X44934Y103030D01*
X46978Y107965D01*
X44934Y112899D01*
X40000Y114943D01*
D02*
G37*
G36*
X168150Y105650D02*
X161850D01*
Y99350D01*
X168150D01*
Y105650D01*
D02*
G37*
G36*
X106360Y100304D02*
Y96835D01*
X109829D01*
X108813Y99288D01*
X106360Y100304D01*
D02*
G37*
G36*
X103407Y100304D02*
X100954Y99288D01*
X99938Y96835D01*
X103407D01*
Y100304D01*
D02*
G37*
G36*
X276000Y98024D02*
X274569Y97431D01*
X274250Y96662D01*
X273750D01*
X273431Y97431D01*
X272000Y98024D01*
X270569Y97431D01*
X270145Y96409D01*
X269986Y96025D01*
X269514D01*
X269355Y96409D01*
X268931Y97431D01*
X267500Y98024D01*
X266069Y97431D01*
X265476Y96000D01*
X266069Y94569D01*
X267500Y93976D01*
X268931Y94569D01*
X269355Y95591D01*
X269514Y95975D01*
X269986D01*
X270145Y95591D01*
X270569Y94569D01*
X272000Y93976D01*
X273431Y94569D01*
X273750Y95338D01*
X274250D01*
X274569Y94569D01*
X276000Y93976D01*
X277431Y94569D01*
X278024Y96000D01*
X277431Y97431D01*
X276000Y98024D01*
D02*
G37*
G36*
X275791Y93036D02*
X274360Y92443D01*
X274143Y91920D01*
X273643D01*
X273431Y92431D01*
X272000Y93024D01*
X270569Y92431D01*
X270145Y91409D01*
X269986Y91025D01*
X269514D01*
X269355Y91409D01*
X268931Y92431D01*
X267500Y93024D01*
X266069Y92431D01*
X265476Y91000D01*
X266069Y89569D01*
X267500Y88976D01*
X268931Y89569D01*
X269355Y90591D01*
X269514Y90975D01*
X269986D01*
X270145Y90591D01*
X270569Y89569D01*
X272000Y88976D01*
X273431Y89569D01*
X273648Y90092D01*
X274148D01*
X274360Y89581D01*
X275791Y88988D01*
X277223Y89581D01*
X277816Y91012D01*
X277223Y92443D01*
X275791Y93036D01*
D02*
G37*
G36*
X103407Y93882D02*
X99938D01*
X100954Y91429D01*
X103407Y90413D01*
Y93882D01*
D02*
G37*
G36*
X109829D02*
X106360D01*
Y90413D01*
X108813Y91429D01*
X109829Y93882D01*
D02*
G37*
G36*
X126537Y100898D02*
X122620Y99275D01*
X120997Y95358D01*
X122620Y91441D01*
X126537Y89819D01*
X130454Y91441D01*
X132077Y95358D01*
X130454Y99275D01*
X126537Y100898D01*
D02*
G37*
G36*
X61654Y98407D02*
X56719Y96363D01*
X54676Y91429D01*
X56719Y86495D01*
X61654Y84451D01*
X66588Y86495D01*
X68632Y91429D01*
X66588Y96363D01*
X61654Y98407D01*
D02*
G37*
G36*
X40000D02*
X35066Y96363D01*
X33022Y91429D01*
X35066Y86495D01*
X40000Y84451D01*
X44934Y86495D01*
X46978Y91429D01*
X44934Y96363D01*
X40000Y98407D01*
D02*
G37*
G36*
X61654Y81872D02*
X56719Y79828D01*
X54676Y74894D01*
X56719Y69959D01*
X61654Y67916D01*
X66588Y69959D01*
X68632Y74894D01*
X66588Y79828D01*
X61654Y81872D01*
D02*
G37*
G36*
X40000D02*
X35066Y79828D01*
X33022Y74894D01*
X35066Y69959D01*
X40000Y67916D01*
X44934Y69959D01*
X46978Y74894D01*
X44934Y79828D01*
X40000Y81872D01*
D02*
G37*
G36*
X354329Y51780D02*
Y51507D01*
X354602D01*
X354522Y51700D01*
X354329Y51780D01*
D02*
G37*
G36*
X351376D02*
X351183Y51700D01*
X351103Y51507D01*
X351376D01*
Y51780D01*
D02*
G37*
G36*
X61654Y65336D02*
X56719Y63292D01*
X54676Y58358D01*
X56719Y53424D01*
X61654Y51380D01*
X66588Y53424D01*
X68632Y58358D01*
X66588Y63292D01*
X61654Y65336D01*
D02*
G37*
G36*
X40000D02*
X35066Y63292D01*
X33022Y58358D01*
X35066Y53424D01*
X40000Y51380D01*
X44934Y53424D01*
X46978Y58358D01*
X44934Y63292D01*
X40000Y65336D01*
D02*
G37*
G36*
X354602Y48554D02*
X354329D01*
Y48281D01*
X354522Y48361D01*
X354602Y48554D01*
D02*
G37*
G36*
X351376D02*
X351103D01*
X351183Y48361D01*
X351376Y48281D01*
Y48554D01*
D02*
G37*
G36*
X343650Y45650D02*
X337350D01*
Y39350D01*
X343650D01*
Y45650D01*
D02*
G37*
G36*
X61654Y48801D02*
X56719Y46757D01*
X54676Y41823D01*
X56719Y36889D01*
X61654Y34845D01*
X66588Y36889D01*
X68632Y41823D01*
X66588Y46757D01*
X61654Y48801D01*
D02*
G37*
G36*
X40000D02*
X35066Y46757D01*
X33022Y41823D01*
X35066Y36889D01*
X40000Y34845D01*
X44934Y36889D01*
X46978Y41823D01*
X44934Y46757D01*
X40000Y48801D01*
D02*
G37*
G36*
X11260Y49387D02*
X5911Y47171D01*
X3696Y41823D01*
X5911Y36474D01*
X11260Y34259D01*
X16608Y36474D01*
X18824Y41823D01*
X16608Y47171D01*
X11260Y49387D01*
D02*
G37*
G36*
X252535Y45200D02*
X248505Y43530D01*
X246836Y39500D01*
X248505Y35470D01*
X252535Y33800D01*
X256566Y35470D01*
X258235Y39500D01*
X256566Y43530D01*
X252535Y45200D01*
D02*
G37*
G36*
X236000D02*
X231970Y43530D01*
X230300Y39500D01*
X231970Y35470D01*
X236000Y33800D01*
X240030Y35470D01*
X241700Y39500D01*
X240030Y43530D01*
X236000Y45200D01*
D02*
G37*
G36*
X203035Y44853D02*
X199005Y43184D01*
X197336Y39154D01*
X199005Y35123D01*
X203035Y33454D01*
X207066Y35123D01*
X208735Y39154D01*
X207066Y43184D01*
X203035Y44853D01*
D02*
G37*
G36*
X186500D02*
X182470Y43184D01*
X180800Y39154D01*
X182470Y35123D01*
X186500Y33454D01*
X190530Y35123D01*
X192200Y39154D01*
X190530Y43184D01*
X186500Y44853D01*
D02*
G37*
G36*
X315500Y44353D02*
X311470Y42684D01*
X309800Y38653D01*
X311470Y34623D01*
X315500Y32954D01*
X319530Y34623D01*
X321200Y38653D01*
X319530Y42684D01*
X315500Y44353D01*
D02*
G37*
G36*
X284500D02*
X280470Y42684D01*
X278800Y38653D01*
X280470Y34623D01*
X284500Y32954D01*
X288530Y34623D01*
X290200Y38653D01*
X288530Y42684D01*
X284500Y44353D01*
D02*
G37*
G36*
X155500D02*
X151470Y42684D01*
X149800Y38653D01*
X151470Y34623D01*
X155500Y32954D01*
X159530Y34623D01*
X161200Y38653D01*
X159530Y42684D01*
X155500Y44353D01*
D02*
G37*
G36*
X138965D02*
X134934Y42684D01*
X133265Y38653D01*
X134934Y34623D01*
X138965Y32954D01*
X142995Y34623D01*
X144664Y38653D01*
X142995Y42684D01*
X138965Y44353D01*
D02*
G37*
G36*
X108035D02*
X104005Y42684D01*
X102336Y38653D01*
X104005Y34623D01*
X108035Y32954D01*
X112066Y34623D01*
X113735Y38653D01*
X112066Y42684D01*
X108035Y44353D01*
D02*
G37*
G36*
X91500D02*
X87470Y42684D01*
X85800Y38653D01*
X87470Y34623D01*
X91500Y32954D01*
X95530Y34623D01*
X97200Y38653D01*
X95530Y42684D01*
X91500Y44353D01*
D02*
G37*
G36*
X342650Y20150D02*
X336350D01*
Y13850D01*
X342650D01*
Y20150D01*
D02*
G37*
G36*
X257801Y23112D02*
X247270D01*
Y12581D01*
X257801D01*
Y23112D01*
D02*
G37*
G36*
X208301Y22766D02*
X197770D01*
Y12234D01*
X208301D01*
Y22766D01*
D02*
G37*
G36*
X236000Y23546D02*
X231970Y21877D01*
X230300Y17846D01*
X231970Y13816D01*
X236000Y12147D01*
X240030Y13816D01*
X241700Y17846D01*
X240030Y21877D01*
X236000Y23546D01*
D02*
G37*
G36*
X186500Y23200D02*
X182470Y21530D01*
X180800Y17500D01*
X182470Y13470D01*
X186500Y11800D01*
X190530Y13470D01*
X192200Y17500D01*
X190530Y21530D01*
X186500Y23200D01*
D02*
G37*
G36*
X320766Y22266D02*
X310234D01*
Y11734D01*
X320766D01*
Y22266D01*
D02*
G37*
G36*
X289766D02*
X279234D01*
Y11734D01*
X289766D01*
Y22266D01*
D02*
G37*
G36*
X160766D02*
X150234D01*
Y11734D01*
X160766D01*
Y22266D01*
D02*
G37*
G36*
X113301D02*
X102770D01*
Y11734D01*
X113301D01*
Y22266D01*
D02*
G37*
G36*
X138965Y22700D02*
X134934Y21030D01*
X133265Y17000D01*
X134934Y12970D01*
X138965Y11300D01*
X142995Y12970D01*
X144664Y17000D01*
X142995Y21030D01*
X138965Y22700D01*
D02*
G37*
G36*
X91500D02*
X87470Y21030D01*
X85800Y17000D01*
X87470Y12970D01*
X91500Y11300D01*
X95530Y12970D01*
X97200Y17000D01*
X95530Y21030D01*
X91500Y22700D01*
D02*
G37*
G36*
X366142Y29597D02*
X356349Y25541D01*
X352292Y15748D01*
X356349Y5955D01*
X366142Y1898D01*
X375935Y5955D01*
X379991Y15748D01*
X375935Y25541D01*
X366142Y29597D01*
D02*
G37*
G36*
X285782Y385935D02*
X281484D01*
Y381638D01*
X285782D01*
Y385935D01*
D02*
G37*
G36*
X279516D02*
X275219D01*
Y381638D01*
X279516D01*
Y385935D01*
D02*
G37*
G36*
X235246Y385435D02*
X230949D01*
Y381138D01*
X235246D01*
Y385435D01*
D02*
G37*
G36*
X228980D02*
X224683D01*
Y381138D01*
X228980D01*
Y385435D01*
D02*
G37*
G36*
X185246D02*
X180949D01*
Y381138D01*
X185246D01*
Y385435D01*
D02*
G37*
G36*
X178980D02*
X174683D01*
Y381138D01*
X178980D01*
Y385435D01*
D02*
G37*
G36*
X136746Y385281D02*
X132449D01*
Y380984D01*
X136746D01*
Y385281D01*
D02*
G37*
G36*
X130480D02*
X126183D01*
Y380984D01*
X130480D01*
Y385281D01*
D02*
G37*
G36*
X285782Y379669D02*
X281484D01*
Y375372D01*
X285782D01*
Y379669D01*
D02*
G37*
G36*
X279516D02*
X275219D01*
Y375372D01*
X279516D01*
Y379669D01*
D02*
G37*
G36*
X297035Y386353D02*
X293005Y384684D01*
X291336Y380654D01*
X293005Y376623D01*
X297035Y374954D01*
X301066Y376623D01*
X302735Y380654D01*
X301066Y384684D01*
X297035Y386353D01*
D02*
G37*
G36*
X235246Y379169D02*
X230949D01*
Y374872D01*
X235246D01*
Y379169D01*
D02*
G37*
G36*
X228980D02*
X224683D01*
Y374872D01*
X228980D01*
Y379169D01*
D02*
G37*
G36*
X185246D02*
X180949D01*
Y374872D01*
X185246D01*
Y379169D01*
D02*
G37*
G36*
X178980D02*
X174683D01*
Y374872D01*
X178980D01*
Y379169D01*
D02*
G37*
G36*
X136746Y379016D02*
X132449D01*
Y374718D01*
X136746D01*
Y379016D01*
D02*
G37*
G36*
X130480D02*
X126183D01*
Y374718D01*
X130480D01*
Y379016D01*
D02*
G37*
G36*
X246500Y385853D02*
X242470Y384184D01*
X240800Y380153D01*
X242470Y376123D01*
X246500Y374454D01*
X250530Y376123D01*
X252200Y380153D01*
X250530Y384184D01*
X246500Y385853D01*
D02*
G37*
G36*
X196500D02*
X192470Y384184D01*
X190800Y380153D01*
X192470Y376123D01*
X196500Y374454D01*
X200530Y376123D01*
X202200Y380153D01*
X200530Y384184D01*
X196500Y385853D01*
D02*
G37*
G36*
X148000Y385700D02*
X143970Y384030D01*
X142300Y380000D01*
X143970Y375970D01*
X148000Y374300D01*
X152030Y375970D01*
X153700Y380000D01*
X152030Y384030D01*
X148000Y385700D01*
D02*
G37*
G36*
X297035Y364700D02*
X293005Y363030D01*
X291336Y359000D01*
X293005Y354970D01*
X297035Y353300D01*
X301066Y354970D01*
X302735Y359000D01*
X301066Y363030D01*
X297035Y364700D01*
D02*
G37*
G36*
X280500D02*
X276470Y363030D01*
X274800Y359000D01*
X276470Y354970D01*
X280500Y353300D01*
X284530Y354970D01*
X286200Y359000D01*
X284530Y363030D01*
X280500Y364700D01*
D02*
G37*
G36*
X246500Y364200D02*
X242470Y362530D01*
X240800Y358500D01*
X242470Y354470D01*
X246500Y352800D01*
X250530Y354470D01*
X252200Y358500D01*
X250530Y362530D01*
X246500Y364200D01*
D02*
G37*
G36*
X229965D02*
X225934Y362530D01*
X224265Y358500D01*
X225934Y354470D01*
X229965Y352800D01*
X233995Y354470D01*
X235664Y358500D01*
X233995Y362530D01*
X229965Y364200D01*
D02*
G37*
G36*
X196500D02*
X192470Y362530D01*
X190800Y358500D01*
X192470Y354470D01*
X196500Y352800D01*
X200530Y354470D01*
X202200Y358500D01*
X200530Y362530D01*
X196500Y364200D01*
D02*
G37*
G36*
X179965D02*
X175934Y362530D01*
X174265Y358500D01*
X175934Y354470D01*
X179965Y352800D01*
X183995Y354470D01*
X185664Y358500D01*
X183995Y362530D01*
X179965Y364200D01*
D02*
G37*
G36*
X148000Y364046D02*
X143970Y362377D01*
X142300Y358347D01*
X143970Y354316D01*
X148000Y352647D01*
X152030Y354316D01*
X153700Y358347D01*
X152030Y362377D01*
X148000Y364046D01*
D02*
G37*
G36*
X131465D02*
X127434Y362377D01*
X125765Y358347D01*
X127434Y354316D01*
X131465Y352647D01*
X135495Y354316D01*
X137164Y358347D01*
X135495Y362377D01*
X131465Y364046D01*
D02*
G37*
G36*
X198484Y330633D02*
Y329984D01*
X199134D01*
X198943Y330443D01*
X198484Y330633D01*
D02*
G37*
G36*
X196516D02*
X196057Y330443D01*
X195867Y329984D01*
X196516D01*
Y330633D01*
D02*
G37*
G36*
X199134Y328016D02*
X198484D01*
Y327366D01*
X198943Y327557D01*
X199134Y328016D01*
D02*
G37*
G36*
X196516D02*
X195867D01*
X196057Y327557D01*
X196516Y327366D01*
Y328016D01*
D02*
G37*
G36*
X142558Y324060D02*
Y323410D01*
X143207D01*
X143017Y323869D01*
X142558Y324060D01*
D02*
G37*
G36*
X140590D02*
X140130Y323869D01*
X139940Y323410D01*
X140590D01*
Y324060D01*
D02*
G37*
G36*
X156484Y323634D02*
Y322984D01*
X157133D01*
X156943Y323443D01*
X156484Y323634D01*
D02*
G37*
G36*
X154516D02*
X154057Y323443D01*
X153867Y322984D01*
X154516D01*
Y323634D01*
D02*
G37*
G36*
X198645Y322972D02*
Y322323D01*
X199295D01*
X199104Y322782D01*
X198645Y322972D01*
D02*
G37*
G36*
X196677D02*
X196218Y322782D01*
X196028Y322323D01*
X196677D01*
Y322972D01*
D02*
G37*
G36*
X233647Y322971D02*
Y322321D01*
X234296D01*
X234106Y322780D01*
X233647Y322971D01*
D02*
G37*
G36*
X231679D02*
X231220Y322780D01*
X231029Y322321D01*
X231679D01*
Y322971D01*
D02*
G37*
G36*
X199295Y320355D02*
X198645D01*
Y319705D01*
X199104Y319896D01*
X199295Y320355D01*
D02*
G37*
G36*
X196677D02*
X196028D01*
X196218Y319896D01*
X196677Y319705D01*
Y320355D01*
D02*
G37*
G36*
X234296Y320353D02*
X233647D01*
Y319704D01*
X234106Y319894D01*
X234296Y320353D01*
D02*
G37*
G36*
X231679D02*
X231029D01*
X231220Y319894D01*
X231679Y319704D01*
Y320353D01*
D02*
G37*
G36*
X233647Y315296D02*
Y314647D01*
X234296D01*
X234106Y315106D01*
X233647Y315296D01*
D02*
G37*
G36*
X231678D02*
X231219Y315106D01*
X231029Y314647D01*
X231678D01*
Y315296D01*
D02*
G37*
G36*
X234296Y312678D02*
X233647D01*
Y312029D01*
X234106Y312219D01*
X234296Y312678D01*
D02*
G37*
G36*
X231678D02*
X231029D01*
X231219Y312219D01*
X231678Y312029D01*
Y312678D01*
D02*
G37*
G36*
X195969Y312985D02*
X194538Y312392D01*
X193945Y310961D01*
X194538Y309529D01*
X195969Y308937D01*
X197400Y309529D01*
X197993Y310961D01*
X197400Y312392D01*
X195969Y312985D01*
D02*
G37*
G36*
X181984Y306633D02*
Y305984D01*
X182633D01*
X182443Y306443D01*
X181984Y306633D01*
D02*
G37*
G36*
X180016D02*
X179557Y306443D01*
X179367Y305984D01*
X180016D01*
Y306633D01*
D02*
G37*
G36*
X182633Y304016D02*
X181984D01*
Y303366D01*
X182443Y303557D01*
X182633Y304016D01*
D02*
G37*
G36*
X180016D02*
X179367D01*
X179557Y303557D01*
X180016Y303366D01*
Y304016D01*
D02*
G37*
G36*
X247016Y300165D02*
X244835D01*
Y297984D01*
X247016D01*
Y300165D01*
D02*
G37*
G36*
Y296016D02*
X244835D01*
Y293835D01*
X247016D01*
Y296016D01*
D02*
G37*
G36*
X219484Y289134D02*
Y288484D01*
X220133D01*
X219943Y288943D01*
X219484Y289134D01*
D02*
G37*
G36*
X217516D02*
X217057Y288943D01*
X216866Y288484D01*
X217516D01*
Y289134D01*
D02*
G37*
G36*
X220133Y286516D02*
X219484D01*
Y285866D01*
X219943Y286057D01*
X220133Y286516D01*
D02*
G37*
G36*
X217516D02*
X216866D01*
X217057Y286057D01*
X217516Y285866D01*
Y286516D01*
D02*
G37*
%LPD*%
D70*
X280500Y380654D02*
D03*
X179965Y380153D02*
D03*
X229965D02*
D03*
X131465Y380000D02*
D03*
X82965Y379654D02*
D03*
D72*
X183000Y216000D02*
D03*
X248000Y297000D02*
D03*
D73*
X104884Y95358D02*
D03*
D81*
X155500Y322000D02*
D03*
X251000Y217000D02*
D03*
X246000D02*
D03*
X241000D02*
D03*
X236000D02*
D03*
X209000Y243000D02*
D03*
X231000Y217000D02*
D03*
X226353Y216852D02*
D03*
X141574Y322426D02*
D03*
X298000Y88000D02*
D03*
X232663Y313663D02*
D03*
X181000Y305000D02*
D03*
X218500Y287500D02*
D03*
X197661Y321339D02*
D03*
X232663Y321337D02*
D03*
X197500Y329000D02*
D03*
D82*
X67500Y367500D02*
D03*
D83*
X352853Y50031D02*
D03*
M02*
