G04*
G04 #@! TF.GenerationSoftware,Altium Limited,Altium Designer,21.0.9 (235)*
G04*
G04 Layer_Color=8421504*
%FSLAX25Y25*%
%MOIN*%
G70*
G04*
G04 #@! TF.SameCoordinates,E74DC3C6-926F-45D7-BB20-B057052BEC36*
G04*
G04*
G04 #@! TF.FilePolarity,Positive*
G04*
G01*
G75*
%ADD14R,0.09646X0.12402*%
%ADD15R,0.02559X0.05906*%
%ADD16R,0.05807X0.01772*%
%ADD17R,0.20079X0.12402*%
%ADD18R,0.05315X0.01575*%
%ADD19R,0.06299X0.08268*%
%ADD20R,0.07480X0.07087*%
%ADD21R,0.07480X0.07480*%
%ADD22O,0.12795X0.05906*%
%ADD23R,0.12205X0.09449*%
%ADD24R,0.03740X0.03347*%
%ADD25R,0.04724X0.04724*%
%ADD26R,0.03347X0.03740*%
%ADD27R,0.12598X0.06299*%
%ADD28R,0.03543X0.03937*%
%ADD29R,0.03937X0.03543*%
%ADD30R,0.05118X0.07087*%
%ADD31R,0.02559X0.06004*%
D14*
X288567Y161000D02*
D03*
X264158D02*
D03*
D15*
X219000Y272130D02*
D03*
X214000D02*
D03*
X209000D02*
D03*
X204000D02*
D03*
Y250870D02*
D03*
X209000D02*
D03*
X214000D02*
D03*
X219000D02*
D03*
D16*
X226067Y305984D02*
D03*
Y308543D02*
D03*
Y311102D02*
D03*
Y313661D02*
D03*
Y316220D02*
D03*
Y318779D02*
D03*
Y321339D02*
D03*
Y323898D02*
D03*
Y326457D02*
D03*
Y329016D02*
D03*
X202933D02*
D03*
Y326457D02*
D03*
Y323898D02*
D03*
Y321339D02*
D03*
Y318779D02*
D03*
Y316220D02*
D03*
Y313661D02*
D03*
Y311102D02*
D03*
Y308543D02*
D03*
Y305984D02*
D03*
D17*
X226000Y155921D02*
D03*
Y196079D02*
D03*
D18*
X362732Y49882D02*
D03*
Y52441D02*
D03*
Y55000D02*
D03*
Y57559D02*
D03*
Y60118D02*
D03*
D19*
X363224Y42795D02*
D03*
Y67205D02*
D03*
D20*
X373260Y40039D02*
D03*
Y69961D02*
D03*
D21*
Y50276D02*
D03*
Y59724D02*
D03*
D22*
X55937Y339220D02*
D03*
Y366779D02*
D03*
Y349063D02*
D03*
Y356937D02*
D03*
D23*
X271937Y93189D02*
D03*
D24*
X292000Y282559D02*
D03*
Y277441D02*
D03*
X269000Y283059D02*
D03*
Y277941D02*
D03*
X289437Y77941D02*
D03*
Y83059D02*
D03*
X298000Y83059D02*
D03*
Y77941D02*
D03*
X155000Y314559D02*
D03*
Y309441D02*
D03*
X142000Y316059D02*
D03*
Y310941D02*
D03*
D25*
X292000Y291866D02*
D03*
Y300134D02*
D03*
X269000D02*
D03*
Y291866D02*
D03*
D26*
X100941Y322000D02*
D03*
X106059D02*
D03*
X106059Y332000D02*
D03*
X100941D02*
D03*
X56559Y15000D02*
D03*
X51441D02*
D03*
X216441Y61500D02*
D03*
X221559D02*
D03*
X169559Y313500D02*
D03*
X164441D02*
D03*
D27*
X264595Y196363D02*
D03*
X284279D02*
D03*
D28*
X266843Y215500D02*
D03*
X272158D02*
D03*
X270342Y136500D02*
D03*
X275658D02*
D03*
X218843Y282000D02*
D03*
X224158D02*
D03*
X219342Y243000D02*
D03*
X224658D02*
D03*
X203842Y282000D02*
D03*
X209157D02*
D03*
D29*
X255000Y103342D02*
D03*
Y108658D02*
D03*
X193500Y305157D02*
D03*
Y299843D02*
D03*
X186000Y305157D02*
D03*
Y299843D02*
D03*
D30*
X281709Y125500D02*
D03*
X270291D02*
D03*
X281709Y115000D02*
D03*
X270291D02*
D03*
D31*
X264437Y103866D02*
D03*
X269437D02*
D03*
X274437D02*
D03*
X279437D02*
D03*
Y82512D02*
D03*
X274437D02*
D03*
X269437D02*
D03*
X264437D02*
D03*
M02*
