M48
;Layer_Color=9474304
;FILE_FORMAT=2:5
INCH,TZ
;TYPE=PLATED
T1F00S00C0.00984
T2F00S00C0.02756
T4F00S00C0.05512
T5F00S00C0.05709
T6F00S00C0.06890
T7F00S00C0.07283
T8F00S00C0.11535
;TYPE=NON_PLATED
T9F00S00C0.12008
T10F00S00C0.13386
T11F00S00C0.13386
%
T01
X352853Y50031
X298000Y88000
X275791Y91012
X272000Y91000
X267500
Y96000
X272000
X276000
X270342Y144443
X209000Y243000
X195969Y310961
X197661Y321339
X197500Y329000
X181000Y305000
X148561Y310939
X155500Y322000
X141574Y322426
X67500Y367500
X232663Y321337
X232663Y313663
X218500Y287500
X269000Y272500
X251000Y217000
X246000
X241000
X236000
X231000
X226353Y216852
T02
X339500Y17000
X340500Y42500
X291000Y138000
X165000Y102500
X183000Y216000
X152500Y275000
X248000Y297000
T04
X104884Y95358
Y111894
Y128429
Y144965
Y161500
X126537
Y144965
Y128429
Y111894
Y95358
T05
X91500Y17000
X108035
Y38653
X91500
X138965
X155500
Y17000
X138965
X186500Y17500
X203035
Y39154
X186500
X236000Y39500
X252535
Y17846
X236000
X284500Y17000
Y38653
X315500
Y17000
X196500Y358500
X179965
X148000Y358347
X131465
X99500Y358000
X82965
X229965Y358500
X246500
X280500Y359000
X297035
Y380654
X280500
X246500Y380153
X229965
X196500
X179965
X148000Y380000
X131465
X99500Y379654
X82965
T06
X329252Y160138
Y175886
Y191634
Y207382
X345000Y199508
Y183760
Y168012
X360748Y175886
Y160138
Y191634
Y207382
Y223130
Y238878
Y254626
Y270374
X345000Y262500
Y246752
Y231004
Y215256
X329252Y223130
Y238878
Y254626
Y270374
T07
X40000Y41823
X61654
Y58358
Y74894
Y91429
Y107965
Y124500
Y141035
Y157571
X61154Y198894
X39500
X40000Y157571
Y141035
Y124500
Y107965
Y91429
Y74894
Y58358
X39500Y215429
Y231965
Y248500
Y265035
Y281571
Y298106
X61154
Y281571
Y265035
Y248500
Y231965
Y215429
T08
X346969Y134547
Y295965
T09
X11260Y41823
Y157571
X10760Y198894
Y298106
T10
X366142Y377953
T11
X366142Y15748
X100500Y203500
M30
