G04*
G04 #@! TF.GenerationSoftware,Altium Limited,Altium Designer,21.0.9 (235)*
G04*
G04 Layer_Color=255*
%FSLAX25Y25*%
%MOIN*%
G70*
G04*
G04 #@! TF.SameCoordinates,91F4C2CD-C4D8-4C02-87E3-D191CECDD99B*
G04*
G04*
G04 #@! TF.FilePolarity,Positive*
G04*
G01*
G75*
%ADD24R,0.03740X0.03347*%
%ADD68C,0.08563*%
%ADD69R,0.08563X0.08563*%
%ADD70C,0.23622*%
%ADD71R,0.04331X0.04331*%
%ADD72C,0.06004*%
%ADD73C,0.10925*%
%ADD74C,0.10335*%
%ADD75C,0.17303*%
%ADD76C,0.08268*%
%ADD77O,0.15748X0.11024*%
%ADD78O,0.18898X0.11024*%
D24*
X299500Y286441D02*
D03*
Y291559D02*
D03*
D68*
X236000Y39500D02*
D03*
Y17846D02*
D03*
X252535Y39500D02*
D03*
X186500Y39154D02*
D03*
Y17500D02*
D03*
X203035Y39154D02*
D03*
X138965Y38653D02*
D03*
Y17000D02*
D03*
X155500Y38653D02*
D03*
X91500D02*
D03*
Y17000D02*
D03*
X108035Y38653D02*
D03*
X301500D02*
D03*
Y17000D02*
D03*
X99500Y358000D02*
D03*
Y379654D02*
D03*
X82965Y358000D02*
D03*
X148000Y358347D02*
D03*
Y380000D02*
D03*
X131465Y358347D02*
D03*
X196500Y358500D02*
D03*
Y380153D02*
D03*
X179965Y358500D02*
D03*
X246500D02*
D03*
Y380153D02*
D03*
X229965Y358500D02*
D03*
X297035Y359000D02*
D03*
Y380654D02*
D03*
X280500Y359000D02*
D03*
D69*
X252535Y17846D02*
D03*
X203035Y17500D02*
D03*
X155500Y17000D02*
D03*
X108035D02*
D03*
X82965Y379654D02*
D03*
X131465Y380000D02*
D03*
X179965Y380153D02*
D03*
X229965D02*
D03*
X280500Y380654D02*
D03*
D70*
X100500Y203500D02*
D03*
X366142Y15748D02*
D03*
Y377953D02*
D03*
D71*
X241500Y282000D02*
D03*
X291000Y138000D02*
D03*
X183000Y216000D02*
D03*
X339500Y17000D02*
D03*
X108000Y309500D02*
D03*
X165000Y102500D02*
D03*
X340000Y38000D02*
D03*
D72*
X320004Y36843D02*
D03*
X282996D02*
D03*
X9106Y198823D02*
D03*
Y298035D02*
D03*
X8563Y41749D02*
D03*
Y157497D02*
D03*
D73*
X37846Y198823D02*
D03*
Y215358D02*
D03*
Y231894D02*
D03*
Y248429D02*
D03*
Y264965D02*
D03*
Y281500D02*
D03*
Y298035D02*
D03*
X59500Y198823D02*
D03*
Y215358D02*
D03*
Y231894D02*
D03*
Y248429D02*
D03*
Y264965D02*
D03*
Y281500D02*
D03*
Y298035D02*
D03*
X58957Y157497D02*
D03*
Y140961D02*
D03*
Y124426D02*
D03*
Y107890D02*
D03*
Y91355D02*
D03*
Y74819D02*
D03*
Y58284D02*
D03*
Y41749D02*
D03*
X37303Y157497D02*
D03*
Y140961D02*
D03*
Y124426D02*
D03*
Y107890D02*
D03*
Y91355D02*
D03*
Y74819D02*
D03*
Y58284D02*
D03*
Y41749D02*
D03*
D74*
X329252Y160138D02*
D03*
Y175886D02*
D03*
Y191634D02*
D03*
Y207382D02*
D03*
Y223130D02*
D03*
Y238878D02*
D03*
Y254626D02*
D03*
Y270374D02*
D03*
X345000Y168012D02*
D03*
Y183760D02*
D03*
Y199508D02*
D03*
Y215256D02*
D03*
Y231004D02*
D03*
Y246752D02*
D03*
Y262500D02*
D03*
X360748Y160138D02*
D03*
Y175886D02*
D03*
Y191634D02*
D03*
Y207382D02*
D03*
Y223130D02*
D03*
Y238878D02*
D03*
Y254626D02*
D03*
Y270374D02*
D03*
D75*
X346969Y134547D02*
D03*
Y295965D02*
D03*
D76*
X126537Y161500D02*
D03*
Y144965D02*
D03*
Y128429D02*
D03*
Y111894D02*
D03*
Y95358D02*
D03*
X104884Y161500D02*
D03*
Y144965D02*
D03*
Y128429D02*
D03*
Y111894D02*
D03*
Y95358D02*
D03*
D77*
X41000Y378394D02*
D03*
Y327606D02*
D03*
D78*
X13795Y380165D02*
D03*
Y325835D02*
D03*
M02*
