G04*
G04 #@! TF.GenerationSoftware,Altium Limited,Altium Designer,21.0.9 (235)*
G04*
G04 Layer_Color=8388736*
%FSLAX25Y25*%
%MOIN*%
G70*
G04*
G04 #@! TF.SameCoordinates,E74DC3C6-926F-45D7-BB20-B057052BEC36*
G04*
G04*
G04 #@! TF.FilePolarity,Negative*
G04*
G01*
G75*
%ADD32R,0.10236X0.12992*%
%ADD33R,0.03150X0.06496*%
%ADD34R,0.06398X0.02362*%
%ADD35R,0.20669X0.12992*%
%ADD36R,0.05906X0.02165*%
%ADD37R,0.06890X0.08858*%
%ADD38R,0.08071X0.07677*%
%ADD39R,0.08071X0.08071*%
%ADD40O,0.13386X0.06496*%
%ADD41R,0.12795X0.10039*%
%ADD42R,0.04331X0.03937*%
%ADD43R,0.05315X0.05315*%
%ADD44R,0.03937X0.04331*%
%ADD45R,0.13189X0.06890*%
%ADD46R,0.04134X0.04528*%
%ADD47R,0.04528X0.04134*%
%ADD48R,0.05709X0.07677*%
%ADD49R,0.03150X0.06594*%
%ADD50R,0.09153X0.09153*%
%ADD51C,0.09153*%
%ADD52R,0.04921X0.04921*%
%ADD53C,0.08858*%
%ADD54C,0.11516*%
%ADD55C,0.06594*%
%ADD56C,0.10925*%
%ADD57C,0.17894*%
%ADD58O,0.16339X0.11614*%
%ADD59O,0.19488X0.11614*%
%ADD60C,0.24213*%
%ADD61C,0.02362*%
%ADD62C,0.03740*%
%ADD63C,0.02953*%
D32*
X288567Y161000D02*
D03*
X264158D02*
D03*
D33*
X219000Y272130D02*
D03*
X214000D02*
D03*
X209000D02*
D03*
X204000D02*
D03*
Y250870D02*
D03*
X209000D02*
D03*
X214000D02*
D03*
X219000D02*
D03*
D34*
X226067Y305984D02*
D03*
Y308543D02*
D03*
Y311102D02*
D03*
Y313661D02*
D03*
Y316220D02*
D03*
Y318779D02*
D03*
Y321339D02*
D03*
Y323898D02*
D03*
Y326457D02*
D03*
Y329016D02*
D03*
X202933D02*
D03*
Y326457D02*
D03*
Y323898D02*
D03*
Y321339D02*
D03*
Y318779D02*
D03*
Y316220D02*
D03*
Y313661D02*
D03*
Y311102D02*
D03*
Y308543D02*
D03*
Y305984D02*
D03*
D35*
X226000Y155921D02*
D03*
Y196079D02*
D03*
D36*
X362732Y49882D02*
D03*
Y52441D02*
D03*
Y55000D02*
D03*
Y57559D02*
D03*
Y60118D02*
D03*
D37*
X363224Y42795D02*
D03*
Y67205D02*
D03*
D38*
X373260Y40039D02*
D03*
Y69961D02*
D03*
D39*
Y50276D02*
D03*
Y59724D02*
D03*
D40*
X55937Y339220D02*
D03*
Y366779D02*
D03*
Y349063D02*
D03*
Y356937D02*
D03*
D41*
X271937Y93189D02*
D03*
D42*
X292000Y282559D02*
D03*
Y277441D02*
D03*
X269000Y283059D02*
D03*
Y277941D02*
D03*
X289437Y77941D02*
D03*
Y83059D02*
D03*
X298000Y83059D02*
D03*
Y77941D02*
D03*
X155000Y314559D02*
D03*
Y309441D02*
D03*
X142000Y316059D02*
D03*
Y310941D02*
D03*
D43*
X292000Y291866D02*
D03*
Y300134D02*
D03*
X269000D02*
D03*
Y291866D02*
D03*
D44*
X100941Y322000D02*
D03*
X106059D02*
D03*
X106059Y332000D02*
D03*
X100941D02*
D03*
X56559Y15000D02*
D03*
X51441D02*
D03*
X216441Y61500D02*
D03*
X221559D02*
D03*
X169559Y313500D02*
D03*
X164441D02*
D03*
D45*
X264595Y196363D02*
D03*
X284279D02*
D03*
D46*
X266843Y215500D02*
D03*
X272158D02*
D03*
X270342Y136500D02*
D03*
X275658D02*
D03*
X218843Y282000D02*
D03*
X224158D02*
D03*
X219342Y243000D02*
D03*
X224658D02*
D03*
X203842Y282000D02*
D03*
X209157D02*
D03*
D47*
X255000Y103342D02*
D03*
Y108658D02*
D03*
X193500Y305157D02*
D03*
Y299843D02*
D03*
X186000Y305157D02*
D03*
Y299843D02*
D03*
D48*
X281709Y125500D02*
D03*
X270291D02*
D03*
X281709Y115000D02*
D03*
X270291D02*
D03*
D49*
X264437Y103866D02*
D03*
X269437D02*
D03*
X274437D02*
D03*
X279437D02*
D03*
Y82512D02*
D03*
X274437D02*
D03*
X269437D02*
D03*
X264437D02*
D03*
D50*
X284500Y17000D02*
D03*
X315500D02*
D03*
X280500Y380654D02*
D03*
X179965Y380153D02*
D03*
X229965D02*
D03*
X131465Y380000D02*
D03*
X252535Y17846D02*
D03*
X203035Y17500D02*
D03*
X155500Y17000D02*
D03*
X108035D02*
D03*
X82965Y379654D02*
D03*
D51*
X284500Y38653D02*
D03*
X315500D02*
D03*
X280500Y359000D02*
D03*
X297035Y380654D02*
D03*
Y359000D02*
D03*
X179965Y358500D02*
D03*
X196500Y380153D02*
D03*
Y358500D02*
D03*
X229965D02*
D03*
X246500Y380153D02*
D03*
Y358500D02*
D03*
X131465Y358347D02*
D03*
X148000Y380000D02*
D03*
Y358347D02*
D03*
X252535Y39500D02*
D03*
X236000Y17846D02*
D03*
Y39500D02*
D03*
X203035Y39154D02*
D03*
X186500Y17500D02*
D03*
Y39154D02*
D03*
X155500Y38653D02*
D03*
X138965Y17000D02*
D03*
Y38653D02*
D03*
X108035D02*
D03*
X91500Y17000D02*
D03*
Y38653D02*
D03*
X82965Y358000D02*
D03*
X99500Y379654D02*
D03*
Y358000D02*
D03*
D52*
X183000Y216000D02*
D03*
X152500Y275000D02*
D03*
X339500Y17000D02*
D03*
X248000Y297000D02*
D03*
X291000Y138000D02*
D03*
X340500Y42500D02*
D03*
X165000Y102500D02*
D03*
D53*
X104884Y95358D02*
D03*
Y111894D02*
D03*
Y128429D02*
D03*
Y144965D02*
D03*
Y161500D02*
D03*
X126537Y95358D02*
D03*
Y111894D02*
D03*
Y128429D02*
D03*
Y144965D02*
D03*
Y161500D02*
D03*
D54*
X40000Y41823D02*
D03*
Y58358D02*
D03*
Y74894D02*
D03*
Y91429D02*
D03*
Y107965D02*
D03*
Y124500D02*
D03*
Y141035D02*
D03*
Y157571D02*
D03*
X61654Y41823D02*
D03*
Y58358D02*
D03*
Y74894D02*
D03*
Y91429D02*
D03*
Y107965D02*
D03*
Y124500D02*
D03*
Y141035D02*
D03*
Y157571D02*
D03*
X39500Y198894D02*
D03*
Y215429D02*
D03*
Y231965D02*
D03*
Y248500D02*
D03*
Y265035D02*
D03*
Y281571D02*
D03*
Y298106D02*
D03*
X61154Y198894D02*
D03*
Y215429D02*
D03*
Y231965D02*
D03*
Y248500D02*
D03*
Y265035D02*
D03*
Y281571D02*
D03*
Y298106D02*
D03*
D55*
X11260Y157571D02*
D03*
Y41823D02*
D03*
X10760Y198894D02*
D03*
Y298106D02*
D03*
D56*
X329252Y160138D02*
D03*
Y175886D02*
D03*
Y191634D02*
D03*
Y207382D02*
D03*
Y223130D02*
D03*
Y238878D02*
D03*
Y254626D02*
D03*
Y270374D02*
D03*
X345000Y168012D02*
D03*
Y183760D02*
D03*
Y199508D02*
D03*
Y215256D02*
D03*
Y231004D02*
D03*
Y246752D02*
D03*
Y262500D02*
D03*
X360748Y160138D02*
D03*
Y175886D02*
D03*
Y191634D02*
D03*
Y207382D02*
D03*
Y223130D02*
D03*
Y238878D02*
D03*
Y254626D02*
D03*
Y270374D02*
D03*
D57*
X346969Y134547D02*
D03*
Y295965D02*
D03*
D58*
X47000Y327606D02*
D03*
Y378394D02*
D03*
D59*
X19795Y325835D02*
D03*
Y380165D02*
D03*
D60*
X100500Y203500D02*
D03*
X366142Y15748D02*
D03*
Y377953D02*
D03*
D61*
X267500Y91000D02*
D03*
X272000D02*
D03*
X275791Y91012D02*
D03*
X267500Y96000D02*
D03*
X272000D02*
D03*
X276000D02*
D03*
X195969Y310961D02*
D03*
X269000Y272500D02*
D03*
X155500Y322000D02*
D03*
X251000Y217000D02*
D03*
X246000D02*
D03*
X241000D02*
D03*
X236000D02*
D03*
X209000Y243000D02*
D03*
X231000Y217000D02*
D03*
X226353Y216852D02*
D03*
X141574Y322426D02*
D03*
X148561Y310939D02*
D03*
X298000Y88000D02*
D03*
X232663Y313663D02*
D03*
X181000Y305000D02*
D03*
X218500Y287500D02*
D03*
X197661Y321339D02*
D03*
X232663Y321337D02*
D03*
X197500Y329000D02*
D03*
D62*
X67500Y367500D02*
D03*
X270342Y144443D02*
D03*
D63*
X352853Y50031D02*
D03*
M02*
