G04*
G04 #@! TF.GenerationSoftware,Altium Limited,Altium Designer,21.0.9 (235)*
G04*
G04 Layer_Color=128*
%FSLAX25Y25*%
%MOIN*%
G70*
G04*
G04 #@! TF.SameCoordinates,BA8C7152-59F1-4345-8518-0593712C2385*
G04*
G04*
G04 #@! TF.FilePolarity,Positive*
G04*
G01*
G75*
%ADD86C,0.00200*%
D86*
X281646Y17000D02*
X287354D01*
X284500Y14146D02*
Y19854D01*
X281646Y38653D02*
X287354D01*
X284500Y35799D02*
Y41508D01*
X312646Y17000D02*
X318354D01*
X315500Y14146D02*
Y19854D01*
X312646Y38653D02*
X318354D01*
X315500Y35799D02*
Y41508D01*
X277646Y380654D02*
X283354D01*
X280500Y377799D02*
Y383508D01*
X277646Y359000D02*
X283354D01*
X280500Y356146D02*
Y361854D01*
X294181Y380654D02*
X299890D01*
X297035Y377799D02*
Y383508D01*
X294181Y359000D02*
X299890D01*
X297035Y356146D02*
Y361854D01*
X177110Y380153D02*
X182819D01*
X179965Y377299D02*
Y383008D01*
X177110Y358500D02*
X182819D01*
X179965Y355646D02*
Y361354D01*
X193646Y380153D02*
X199354D01*
X196500Y377299D02*
Y383008D01*
X193646Y358500D02*
X199354D01*
X196500Y355646D02*
Y361354D01*
X227110Y380153D02*
X232819D01*
X229965Y377299D02*
Y383008D01*
X227110Y358500D02*
X232819D01*
X229965Y355646D02*
Y361354D01*
X243646Y380153D02*
X249354D01*
X246500Y377299D02*
Y383008D01*
X243646Y358500D02*
X249354D01*
X246500Y355646D02*
Y361354D01*
X128610Y380000D02*
X134319D01*
X131465Y377146D02*
Y382854D01*
X128610Y358347D02*
X134319D01*
X131465Y355492D02*
Y361201D01*
X145146Y380000D02*
X150854D01*
X148000Y377146D02*
Y382854D01*
X145146Y358347D02*
X150854D01*
X148000Y355492D02*
Y361201D01*
X249681Y17846D02*
X255390D01*
X252535Y14992D02*
Y20701D01*
X249681Y39500D02*
X255390D01*
X252535Y36646D02*
Y42354D01*
X233146Y17846D02*
X238854D01*
X236000Y14992D02*
Y20701D01*
X233146Y39500D02*
X238854D01*
X236000Y36646D02*
Y42354D01*
X200181Y17500D02*
X205890D01*
X203035Y14646D02*
Y20354D01*
X200181Y39154D02*
X205890D01*
X203035Y36299D02*
Y42008D01*
X183646Y17500D02*
X189354D01*
X186500Y14646D02*
Y20354D01*
X183646Y39154D02*
X189354D01*
X186500Y36299D02*
Y42008D01*
X152646Y17000D02*
X158354D01*
X155500Y14146D02*
Y19854D01*
X152646Y38653D02*
X158354D01*
X155500Y35799D02*
Y41508D01*
X136110Y17000D02*
X141819D01*
X138965Y14146D02*
Y19854D01*
X136110Y38653D02*
X141819D01*
X138965Y35799D02*
Y41508D01*
X105181Y17000D02*
X110890D01*
X108035Y14146D02*
Y19854D01*
X105181Y38653D02*
X110890D01*
X108035Y35799D02*
Y41508D01*
X88646Y17000D02*
X94354D01*
X91500Y14146D02*
Y19854D01*
X88646Y38653D02*
X94354D01*
X91500Y35799D02*
Y41508D01*
X80110Y379654D02*
X85819D01*
X82965Y376799D02*
Y382508D01*
X80110Y358000D02*
X85819D01*
X82965Y355146D02*
Y360854D01*
X96646Y379654D02*
X102354D01*
X99500Y376799D02*
Y382508D01*
X96646Y358000D02*
X102354D01*
X99500Y355146D02*
Y360854D01*
X181622Y216000D02*
X184378D01*
X183000Y214622D02*
Y217378D01*
X151122Y275000D02*
X153878D01*
X152500Y273622D02*
Y276378D01*
X338122Y17000D02*
X340878D01*
X339500Y15622D02*
Y18378D01*
X246622Y297000D02*
X249378D01*
X248000Y295622D02*
Y298378D01*
X289622Y138000D02*
X292378D01*
X291000Y136622D02*
Y139378D01*
X339122Y42500D02*
X341878D01*
X340500Y41122D02*
Y43878D01*
X163622Y102500D02*
X166378D01*
X165000Y101122D02*
Y103878D01*
X102128Y95358D02*
X107639D01*
X104884Y92602D02*
Y98114D01*
X102128Y111894D02*
X107639D01*
X104884Y109138D02*
Y114650D01*
X102128Y128429D02*
X107639D01*
X104884Y125673D02*
Y131185D01*
X102128Y144965D02*
X107639D01*
X104884Y142209D02*
Y147721D01*
X102128Y161500D02*
X107639D01*
X104884Y158744D02*
Y164256D01*
X123781Y95358D02*
X129293D01*
X126537Y92602D02*
Y98114D01*
X123781Y111894D02*
X129293D01*
X126537Y109138D02*
Y114650D01*
X123781Y128429D02*
X129293D01*
X126537Y125673D02*
Y131185D01*
X123781Y144965D02*
X129293D01*
X126537Y142209D02*
Y147721D01*
X123781Y161500D02*
X129293D01*
X126537Y158744D02*
Y164256D01*
X36358Y41823D02*
X43642D01*
X40000Y38181D02*
Y45465D01*
X36358Y58358D02*
X43642D01*
X40000Y54716D02*
Y62000D01*
X36358Y74894D02*
X43642D01*
X40000Y71252D02*
Y78535D01*
X36358Y91429D02*
X43642D01*
X40000Y87787D02*
Y95071D01*
X36358Y107965D02*
X43642D01*
X40000Y104323D02*
Y111606D01*
X36358Y124500D02*
X43642D01*
X40000Y120858D02*
Y128142D01*
X36358Y141035D02*
X43642D01*
X40000Y137394D02*
Y144677D01*
X36358Y157571D02*
X43642D01*
X40000Y153929D02*
Y161213D01*
X58012Y41823D02*
X65295D01*
X61654Y38181D02*
Y45465D01*
X58012Y58358D02*
X65295D01*
X61654Y54716D02*
Y62000D01*
X58012Y74894D02*
X65295D01*
X61654Y71252D02*
Y78535D01*
X58012Y91429D02*
X65295D01*
X61654Y87787D02*
Y95071D01*
X58012Y107965D02*
X65295D01*
X61654Y104323D02*
Y111606D01*
X58012Y124500D02*
X65295D01*
X61654Y120858D02*
Y128142D01*
X58012Y141035D02*
X65295D01*
X61654Y137394D02*
Y144677D01*
X58012Y157571D02*
X65295D01*
X61654Y153929D02*
Y161213D01*
X5256Y157571D02*
X17264D01*
X11260Y151567D02*
Y163575D01*
X5256Y41823D02*
X17264D01*
X11260Y35819D02*
Y47827D01*
X35858Y198894D02*
X43142D01*
X39500Y195252D02*
Y202535D01*
X35858Y215429D02*
X43142D01*
X39500Y211787D02*
Y219071D01*
X35858Y231965D02*
X43142D01*
X39500Y228323D02*
Y235606D01*
X35858Y248500D02*
X43142D01*
X39500Y244858D02*
Y252142D01*
X35858Y265035D02*
X43142D01*
X39500Y261394D02*
Y268677D01*
X35858Y281571D02*
X43142D01*
X39500Y277929D02*
Y285213D01*
X35858Y298106D02*
X43142D01*
X39500Y294465D02*
Y301748D01*
X57512Y198894D02*
X64795D01*
X61154Y195252D02*
Y202535D01*
X57512Y215429D02*
X64795D01*
X61154Y211787D02*
Y219071D01*
X57512Y231965D02*
X64795D01*
X61154Y228323D02*
Y235606D01*
X57512Y248500D02*
X64795D01*
X61154Y244858D02*
Y252142D01*
X57512Y265035D02*
X64795D01*
X61154Y261394D02*
Y268677D01*
X57512Y281571D02*
X64795D01*
X61154Y277929D02*
Y285213D01*
X57512Y298106D02*
X64795D01*
X61154Y294465D02*
Y301748D01*
X4756Y198894D02*
X16764D01*
X10760Y192890D02*
Y204898D01*
X4756Y298106D02*
X16764D01*
X10760Y292102D02*
Y304110D01*
X325807Y160138D02*
X332697D01*
X329252Y156693D02*
Y163583D01*
X325807Y175886D02*
X332697D01*
X329252Y172441D02*
Y179331D01*
X325807Y191634D02*
X332697D01*
X329252Y188189D02*
Y195079D01*
X325807Y207382D02*
X332697D01*
X329252Y203937D02*
Y210827D01*
X325807Y223130D02*
X332697D01*
X329252Y219685D02*
Y226575D01*
X325807Y238878D02*
X332697D01*
X329252Y235433D02*
Y242323D01*
X325807Y254626D02*
X332697D01*
X329252Y251181D02*
Y258071D01*
X325807Y270374D02*
X332697D01*
X329252Y266929D02*
Y273819D01*
X341555Y168012D02*
X348445D01*
X345000Y164567D02*
Y171457D01*
X341555Y183760D02*
X348445D01*
X345000Y180315D02*
Y187205D01*
X341555Y199508D02*
X348445D01*
X345000Y196063D02*
Y202953D01*
X341555Y215256D02*
X348445D01*
X345000Y211811D02*
Y218701D01*
X341555Y231004D02*
X348445D01*
X345000Y227559D02*
Y234449D01*
X341555Y246752D02*
X348445D01*
X345000Y243307D02*
Y250197D01*
X341555Y262500D02*
X348445D01*
X345000Y259055D02*
Y265945D01*
X357303Y160138D02*
X364193D01*
X360748Y156693D02*
Y163583D01*
X357303Y175886D02*
X364193D01*
X360748Y172441D02*
Y179331D01*
X357303Y191634D02*
X364193D01*
X360748Y188189D02*
Y195079D01*
X357303Y207382D02*
X364193D01*
X360748Y203937D02*
Y210827D01*
X357303Y223130D02*
X364193D01*
X360748Y219685D02*
Y226575D01*
X357303Y238878D02*
X364193D01*
X360748Y235433D02*
Y242323D01*
X357303Y254626D02*
X364193D01*
X360748Y251181D02*
Y258071D01*
X357303Y270374D02*
X364193D01*
X360748Y266929D02*
Y273819D01*
X341201Y134547D02*
X352736D01*
X346969Y128779D02*
Y140315D01*
X341201Y295965D02*
X352736D01*
X346969Y290197D02*
Y301732D01*
X45622Y327606D02*
X48378D01*
X47000Y326228D02*
Y328984D01*
X18417Y325835D02*
X21173D01*
X19795Y324457D02*
Y327213D01*
X18417Y380165D02*
X21173D01*
X19795Y378787D02*
Y381543D01*
X45622Y378394D02*
X48378D01*
X47000Y377016D02*
Y379772D01*
X93807Y203500D02*
X107193D01*
X100500Y196807D02*
Y210193D01*
X359449Y15748D02*
X372835D01*
X366142Y9055D02*
Y22441D01*
X359449Y377953D02*
X372835D01*
X366142Y371260D02*
Y384646D01*
X267008Y91000D02*
X267992D01*
X267500Y90508D02*
Y91492D01*
X271508Y91000D02*
X272492D01*
X272000Y90508D02*
Y91492D01*
X275299Y91012D02*
X276284D01*
X275791Y90520D02*
Y91504D01*
X267008Y96000D02*
X267992D01*
X267500Y95508D02*
Y96492D01*
X271508Y96000D02*
X272492D01*
X272000Y95508D02*
Y96492D01*
X67008Y367500D02*
X67992D01*
X67500Y367008D02*
Y367992D01*
X275508Y96000D02*
X276492D01*
X276000Y95508D02*
Y96492D01*
X195477Y310961D02*
X196461D01*
X195969Y310469D02*
Y311453D01*
X268508Y272500D02*
X269492D01*
X269000Y272008D02*
Y272992D01*
X155008Y322000D02*
X155992D01*
X155500Y321508D02*
Y322492D01*
X250508Y217000D02*
X251492D01*
X251000Y216508D02*
Y217492D01*
X245508Y217000D02*
X246492D01*
X246000Y216508D02*
Y217492D01*
X240508Y217000D02*
X241492D01*
X241000Y216508D02*
Y217492D01*
X235508Y217000D02*
X236492D01*
X236000Y216508D02*
Y217492D01*
X208508Y243000D02*
X209492D01*
X209000Y242508D02*
Y243492D01*
X230508Y217000D02*
X231492D01*
X231000Y216508D02*
Y217492D01*
X225860Y216852D02*
X226845D01*
X226353Y216360D02*
Y217345D01*
X141082Y322426D02*
X142066D01*
X141574Y321934D02*
Y322918D01*
X148069Y310939D02*
X149054D01*
X148561Y310447D02*
Y311431D01*
X352361Y50031D02*
X353345D01*
X352853Y49539D02*
Y50523D01*
X269850Y144443D02*
X270835D01*
X270342Y143951D02*
Y144935D01*
X297508Y88000D02*
X298492D01*
X298000Y87508D02*
Y88492D01*
X232171Y313663D02*
X233155D01*
X232663Y313171D02*
Y314155D01*
X180508Y305000D02*
X181492D01*
X181000Y304508D02*
Y305492D01*
X218008Y287500D02*
X218992D01*
X218500Y287008D02*
Y287992D01*
X197169Y321339D02*
X198153D01*
X197661Y320847D02*
Y321831D01*
X232171Y321337D02*
X233155D01*
X232663Y320845D02*
Y321829D01*
X197008Y329000D02*
X197992D01*
X197500Y328508D02*
Y329492D01*
M02*
