G04*
G04 #@! TF.GenerationSoftware,Altium Limited,Altium Designer,21.0.9 (235)*
G04*
G04 Layer_Color=8388736*
%FSLAX25Y25*%
%MOIN*%
G70*
G04*
G04 #@! TF.SameCoordinates,7D8DD78A-8103-400F-A0AB-957E78C66F27*
G04*
G04*
G04 #@! TF.FilePolarity,Negative*
G04*
G01*
G75*
%ADD32R,0.05906X0.02165*%
%ADD33R,0.06890X0.08858*%
%ADD34R,0.08071X0.07677*%
%ADD35R,0.08071X0.08071*%
%ADD36R,0.11614X0.04528*%
%ADD37R,0.03150X0.06594*%
%ADD38R,0.12795X0.10039*%
%ADD39R,0.03150X0.06496*%
%ADD40R,0.06398X0.02362*%
%ADD41R,0.20669X0.12992*%
%ADD42R,0.10236X0.12992*%
%ADD43R,0.04331X0.03937*%
%ADD44R,0.05315X0.05315*%
%ADD45R,0.03937X0.04331*%
%ADD46R,0.13189X0.06890*%
%ADD47R,0.04134X0.04528*%
%ADD48R,0.04528X0.04134*%
%ADD49R,0.05709X0.07677*%
%ADD50C,0.11516*%
%ADD51C,0.06594*%
%ADD52C,0.14173*%
%ADD53R,0.09153X0.09153*%
%ADD54C,0.09153*%
%ADD55R,0.04921X0.04921*%
%ADD56C,0.08858*%
%ADD57C,0.17894*%
%ADD58C,0.10925*%
%ADD59C,0.24213*%
%ADD60C,0.03740*%
%ADD61C,0.02953*%
%ADD62C,0.02362*%
D32*
X358472Y50106D02*
D03*
Y52665D02*
D03*
Y55224D02*
D03*
Y57784D02*
D03*
Y60343D02*
D03*
D33*
X358965Y43020D02*
D03*
Y67429D02*
D03*
D34*
X369000Y40264D02*
D03*
Y70185D02*
D03*
D35*
Y50500D02*
D03*
Y59949D02*
D03*
D36*
X42000Y341158D02*
D03*
Y351000D02*
D03*
Y358874D02*
D03*
Y368717D02*
D03*
D37*
X264437Y82512D02*
D03*
X269437D02*
D03*
X274437D02*
D03*
X279437D02*
D03*
Y103866D02*
D03*
X274437D02*
D03*
X269437D02*
D03*
X264437D02*
D03*
D38*
X271937Y93189D02*
D03*
D39*
X219000Y272130D02*
D03*
X214000D02*
D03*
X209000D02*
D03*
X204000D02*
D03*
Y250870D02*
D03*
X209000D02*
D03*
X214000D02*
D03*
X219000D02*
D03*
D40*
X226067Y305984D02*
D03*
Y308543D02*
D03*
Y311102D02*
D03*
Y313661D02*
D03*
Y316220D02*
D03*
Y318779D02*
D03*
Y321339D02*
D03*
Y323898D02*
D03*
Y326457D02*
D03*
Y329016D02*
D03*
X202933D02*
D03*
Y326457D02*
D03*
Y323898D02*
D03*
Y321339D02*
D03*
Y318779D02*
D03*
Y316220D02*
D03*
Y313661D02*
D03*
Y311102D02*
D03*
Y308543D02*
D03*
Y305984D02*
D03*
D41*
X226000Y155921D02*
D03*
Y196079D02*
D03*
D42*
X288567Y161000D02*
D03*
X264158D02*
D03*
D43*
X292000Y282559D02*
D03*
Y277441D02*
D03*
X269000Y283059D02*
D03*
Y277941D02*
D03*
X289437Y77941D02*
D03*
Y83059D02*
D03*
X298000Y83059D02*
D03*
Y77941D02*
D03*
X155000Y314559D02*
D03*
Y309441D02*
D03*
X142000Y316059D02*
D03*
Y310941D02*
D03*
D44*
X292000Y291866D02*
D03*
Y300134D02*
D03*
X269000D02*
D03*
Y291866D02*
D03*
D45*
X100941Y322000D02*
D03*
X106059D02*
D03*
X106059Y332000D02*
D03*
X100941D02*
D03*
X56559Y15000D02*
D03*
X51441D02*
D03*
X216441Y61500D02*
D03*
X221559D02*
D03*
X169559Y313500D02*
D03*
X164441D02*
D03*
D46*
X264595Y196363D02*
D03*
X284279D02*
D03*
D47*
X266843Y215500D02*
D03*
X272158D02*
D03*
X270342Y136500D02*
D03*
X275658D02*
D03*
X218843Y282000D02*
D03*
X224158D02*
D03*
X219342Y243000D02*
D03*
X224658D02*
D03*
X203842Y282000D02*
D03*
X209157D02*
D03*
D48*
X255000Y103342D02*
D03*
Y108658D02*
D03*
X193500Y305157D02*
D03*
Y299843D02*
D03*
X186000Y305157D02*
D03*
Y299843D02*
D03*
D49*
X281709Y125500D02*
D03*
X270291D02*
D03*
X281709Y115000D02*
D03*
X270291D02*
D03*
D50*
X41000Y42394D02*
D03*
Y58929D02*
D03*
Y75465D02*
D03*
Y92000D02*
D03*
Y108535D02*
D03*
Y125071D02*
D03*
Y141606D02*
D03*
Y158142D02*
D03*
X62653Y42394D02*
D03*
Y58929D02*
D03*
Y75465D02*
D03*
Y92000D02*
D03*
Y108535D02*
D03*
Y125071D02*
D03*
Y141606D02*
D03*
Y158142D02*
D03*
X61154Y298106D02*
D03*
Y281571D02*
D03*
Y265035D02*
D03*
Y248500D02*
D03*
Y231965D02*
D03*
Y215429D02*
D03*
Y198894D02*
D03*
X39500Y298106D02*
D03*
Y281571D02*
D03*
Y265035D02*
D03*
Y248500D02*
D03*
Y231965D02*
D03*
Y215429D02*
D03*
Y198894D02*
D03*
D51*
X12260Y158142D02*
D03*
Y42394D02*
D03*
X10760Y298106D02*
D03*
Y198894D02*
D03*
D52*
X26646Y329071D02*
D03*
Y380803D02*
D03*
D53*
X284500Y17000D02*
D03*
X315500D02*
D03*
X280000Y379153D02*
D03*
X180000D02*
D03*
X229500D02*
D03*
X131500Y379000D02*
D03*
X252535Y17846D02*
D03*
X203035Y17500D02*
D03*
X155500Y17000D02*
D03*
X108035D02*
D03*
X83598Y379020D02*
D03*
D54*
X284500Y38653D02*
D03*
X315500D02*
D03*
X280000Y357500D02*
D03*
X296535Y379153D02*
D03*
Y357500D02*
D03*
X180000D02*
D03*
X196535Y379153D02*
D03*
Y357500D02*
D03*
X229500D02*
D03*
X246035Y379153D02*
D03*
Y357500D02*
D03*
X131500Y357347D02*
D03*
X148035Y379000D02*
D03*
Y357347D02*
D03*
X252535Y39500D02*
D03*
X236000Y17846D02*
D03*
Y39500D02*
D03*
X203035Y39154D02*
D03*
X186500Y17500D02*
D03*
Y39154D02*
D03*
X155500Y38653D02*
D03*
X138965Y17000D02*
D03*
Y38653D02*
D03*
X108035D02*
D03*
X91500Y17000D02*
D03*
Y38653D02*
D03*
X83598Y357366D02*
D03*
X100134Y379020D02*
D03*
Y357366D02*
D03*
D55*
X183000Y216000D02*
D03*
X152500Y275000D02*
D03*
X339500Y17000D02*
D03*
X248000Y297000D02*
D03*
X291000Y138000D02*
D03*
X340500Y42500D02*
D03*
X165000Y102500D02*
D03*
D56*
X104884Y95358D02*
D03*
Y111894D02*
D03*
Y128429D02*
D03*
Y144965D02*
D03*
Y161500D02*
D03*
X126537Y95358D02*
D03*
Y111894D02*
D03*
Y128429D02*
D03*
Y144965D02*
D03*
Y161500D02*
D03*
D57*
X346969Y295965D02*
D03*
Y134547D02*
D03*
D58*
X360748Y270374D02*
D03*
Y254626D02*
D03*
Y238878D02*
D03*
Y223130D02*
D03*
Y207382D02*
D03*
Y191634D02*
D03*
Y175886D02*
D03*
Y160138D02*
D03*
X345000Y262500D02*
D03*
Y246752D02*
D03*
Y231004D02*
D03*
Y215256D02*
D03*
Y199508D02*
D03*
Y183760D02*
D03*
Y168012D02*
D03*
X329252Y270374D02*
D03*
Y254626D02*
D03*
Y238878D02*
D03*
Y223130D02*
D03*
Y207382D02*
D03*
Y191634D02*
D03*
Y175886D02*
D03*
Y160138D02*
D03*
D59*
X100500Y203500D02*
D03*
X363500Y19000D02*
D03*
X351000Y371000D02*
D03*
D60*
X60547Y368437D02*
D03*
X270342Y144443D02*
D03*
D61*
X350646Y50106D02*
D03*
D62*
X267500Y91000D02*
D03*
X272000D02*
D03*
X275791Y91012D02*
D03*
X267500Y96000D02*
D03*
X272000D02*
D03*
X276000D02*
D03*
X195969Y310961D02*
D03*
X269000Y272500D02*
D03*
X155500Y322000D02*
D03*
X251000Y217000D02*
D03*
X246000D02*
D03*
X241000D02*
D03*
X236000D02*
D03*
X209000Y243000D02*
D03*
X231000Y217000D02*
D03*
X226353Y216852D02*
D03*
X141574Y322426D02*
D03*
X148561Y310939D02*
D03*
X298000Y88000D02*
D03*
X232663Y313663D02*
D03*
X181000Y305000D02*
D03*
X218500Y287500D02*
D03*
X197661Y321339D02*
D03*
X232663Y321337D02*
D03*
X197500Y329000D02*
D03*
M02*
