G04*
G04 #@! TF.GenerationSoftware,Altium Limited,Altium Designer,21.0.9 (235)*
G04*
G04 Layer_Color=16711935*
%FSLAX25Y25*%
%MOIN*%
G70*
G04*
G04 #@! TF.SameCoordinates,E74DC3C6-926F-45D7-BB20-B057052BEC36*
G04*
G04*
G04 #@! TF.FilePolarity,Positive*
G04*
G01*
G75*
%ADD10C,0.00394*%
%ADD11C,0.00787*%
%ADD85R,0.03765X0.24488*%
D10*
X290358Y148756D02*
Y173244D01*
X262366Y148756D02*
Y173244D01*
Y148756D02*
X290358D01*
X262366Y173244D02*
X290358D01*
X273870Y9717D02*
Y48299D01*
X296705D01*
Y9717D02*
Y48299D01*
X273870Y9717D02*
X296705D01*
X304870D02*
Y48299D01*
X327705D01*
Y9717D02*
Y48299D01*
X304870Y9717D02*
X327705D01*
X269870Y390496D02*
X309240D01*
Y351913D02*
Y390496D01*
X269870Y351913D02*
X309240D01*
X269870D02*
Y390496D01*
X169335Y389996D02*
X208705D01*
Y351413D02*
Y389996D01*
X169335Y351413D02*
X208705D01*
X169335D02*
Y389996D01*
X219335D02*
X258705D01*
Y351413D02*
Y389996D01*
X219335Y351413D02*
X258705D01*
X219335D02*
Y389996D01*
X120835Y389843D02*
X160205D01*
Y351260D02*
Y389843D01*
X120835Y351260D02*
X160205D01*
X120835D02*
Y389843D01*
X223795Y8004D02*
X263165D01*
X223795D02*
Y46587D01*
X263165D01*
Y8004D02*
Y46587D01*
X174295Y7658D02*
X213665D01*
X174295D02*
Y46240D01*
X213665D01*
Y7658D02*
Y46240D01*
X126760Y7158D02*
X166130D01*
X126760D02*
Y45740D01*
X166130D01*
Y7158D02*
Y45740D01*
X79295Y7158D02*
X118665D01*
X79295D02*
Y45740D01*
X118665D01*
Y7158D02*
Y45740D01*
X72335Y389496D02*
X111705D01*
Y350913D02*
Y389496D01*
X72335Y350913D02*
X111705D01*
X72335D02*
Y389496D01*
X178000Y211000D02*
Y221000D01*
X188000D01*
Y211000D02*
Y221000D01*
X178000Y211000D02*
X188000D01*
X147500Y270000D02*
Y280000D01*
X157500D01*
Y270000D02*
Y280000D01*
X147500Y270000D02*
X157500D01*
X334500Y12000D02*
Y22000D01*
X344500D01*
Y12000D02*
Y22000D01*
X334500Y12000D02*
X344500D01*
X243000Y292000D02*
Y302000D01*
X253000D01*
Y292000D02*
Y302000D01*
X243000Y292000D02*
X253000D01*
X286000Y133000D02*
Y143000D01*
X296000D01*
Y133000D02*
Y143000D01*
X286000Y133000D02*
X296000D01*
X335500Y37500D02*
Y47500D01*
X345500D01*
Y37500D02*
Y47500D01*
X335500Y37500D02*
X345500D01*
X160000Y97500D02*
Y107500D01*
X170000D01*
Y97500D02*
Y107500D01*
X160000Y97500D02*
X170000D01*
X221146Y253823D02*
Y269177D01*
X201854Y253823D02*
X221146D01*
X201854D02*
Y269177D01*
X221146D01*
X216146D02*
X221146Y264177D01*
X205839Y304705D02*
X223161D01*
X205839D02*
Y330295D01*
X223161D01*
Y304705D02*
Y330295D01*
X220602Y304705D02*
X223161Y307264D01*
X202378Y152378D02*
Y199622D01*
X249622D01*
Y152378D02*
Y199622D01*
X202378Y152378D02*
X249622D01*
X1331Y326425D02*
Y379575D01*
Y326425D02*
X56055D01*
X1331Y379575D02*
X56055D01*
Y326425D02*
Y379575D01*
X290130Y283445D02*
X293870D01*
X290130Y276555D02*
X293870D01*
Y283445D01*
X290130Y276555D02*
Y283445D01*
X289342Y291669D02*
X294657D01*
X289342Y300331D02*
X294657D01*
X289342Y291669D02*
Y300331D01*
X294657Y291669D02*
Y300331D01*
X100055Y320130D02*
Y323870D01*
X106945Y320130D02*
Y323870D01*
X100055D02*
X106945D01*
X100055Y320130D02*
X106945D01*
X106945Y330130D02*
Y333870D01*
X100055Y330130D02*
Y333870D01*
Y330130D02*
X106945D01*
X100055Y333870D02*
X106945D01*
X267130Y283945D02*
X270870D01*
X267130Y277055D02*
X270870D01*
Y283945D01*
X267130Y277055D02*
Y283945D01*
X57445Y13130D02*
Y16870D01*
X50555Y13130D02*
Y16870D01*
Y13130D02*
X57445D01*
X50555Y16870D02*
X57445D01*
X215555Y59630D02*
Y63370D01*
X222445Y59630D02*
Y63370D01*
X215555D02*
X222445D01*
X215555Y59630D02*
X222445D01*
X271657Y291669D02*
Y300331D01*
X266342Y291669D02*
Y300331D01*
X271657D01*
X266342Y291669D02*
X271657D01*
X261445Y205025D02*
X265776Y209355D01*
X287429D01*
Y183371D02*
Y209355D01*
X265776Y183371D02*
X287429D01*
X261445Y187702D02*
X265776Y183371D01*
X261445Y187702D02*
Y205025D01*
X266055Y217370D02*
X272945D01*
X266055Y213630D02*
X272945D01*
X266055D02*
Y217370D01*
X272945Y213630D02*
Y217370D01*
X287567Y77055D02*
Y83945D01*
X291307Y77055D02*
Y83945D01*
X287567Y77055D02*
X291307D01*
X287567Y83945D02*
X291307D01*
X299870Y77055D02*
Y83945D01*
X296130Y77055D02*
Y83945D01*
X299870D01*
X296130Y77055D02*
X299870D01*
X253130Y102555D02*
Y109445D01*
X256870Y102555D02*
Y109445D01*
X253130Y102555D02*
X256870D01*
X253130Y109445D02*
X256870D01*
X282693Y121957D02*
Y129043D01*
X269307Y121957D02*
Y129043D01*
Y121957D02*
X282693D01*
X269307Y129043D02*
X282693D01*
Y111457D02*
Y118543D01*
X269307Y111457D02*
Y118543D01*
Y111457D02*
X282693D01*
X269307Y118543D02*
X282693D01*
X262291Y90512D02*
X267291Y85512D01*
X262291D02*
X281583D01*
Y100866D01*
X262291D02*
X281583D01*
X262291Y85512D02*
Y100866D01*
X269555Y138370D02*
X276445D01*
X269555Y134630D02*
X276445D01*
X269555D02*
Y138370D01*
X276445Y134630D02*
Y138370D01*
X218055Y283870D02*
X224945D01*
X218055Y280130D02*
X224945D01*
X218055D02*
Y283870D01*
X224945Y280130D02*
Y283870D01*
X195370Y299055D02*
Y305945D01*
X191630Y299055D02*
Y305945D01*
X195370D01*
X191630Y299055D02*
X195370D01*
X187870D02*
Y305945D01*
X184130Y299055D02*
Y305945D01*
X187870D01*
X184130Y299055D02*
X187870D01*
X163555Y311630D02*
X170445D01*
X163555Y315370D02*
X170445D01*
Y311630D02*
Y315370D01*
X163555Y311630D02*
Y315370D01*
X218555Y244870D02*
X225445D01*
X218555Y241130D02*
X225445D01*
X218555D02*
Y244870D01*
X225445Y241130D02*
Y244870D01*
X203055Y283870D02*
X209945D01*
X203055Y280130D02*
X209945D01*
X203055D02*
Y283870D01*
X209945Y280130D02*
Y283870D01*
X156870Y308555D02*
Y315445D01*
X153130Y308555D02*
Y315445D01*
X156870D01*
X153130Y308555D02*
X156870D01*
X143870Y310055D02*
Y316945D01*
X140130Y310055D02*
Y316945D01*
X143870D01*
X140130Y310055D02*
X143870D01*
D11*
X365386Y40039D02*
Y69961D01*
X385268D01*
Y40039D02*
Y69961D01*
X365386Y40039D02*
X385268D01*
X96025Y84728D02*
Y172130D01*
Y84728D02*
X133820D01*
Y172130D01*
X96025D02*
X133820D01*
X3776Y31193D02*
Y65445D01*
Y133949D02*
Y168201D01*
X35669Y31193D02*
Y168201D01*
X3697Y31193D02*
X35669D01*
X3776Y65445D02*
Y133949D01*
X3697Y168201D02*
X35669D01*
X35169Y187894D02*
Y308736D01*
X3276Y188264D02*
Y308736D01*
X313504Y126673D02*
Y303839D01*
X383583D01*
Y126673D02*
Y303839D01*
X313504Y126673D02*
X383583D01*
Y95571D02*
Y126673D01*
Y95571D02*
X391457D01*
Y334941D01*
X383583D02*
X391457D01*
X383583Y303839D02*
Y334941D01*
X391457Y129823D02*
X467441D01*
Y300689D01*
X391457D02*
X467441D01*
D85*
X264249Y161000D02*
D03*
M02*
