G04*
G04 #@! TF.GenerationSoftware,Altium Limited,Altium Designer,21.0.9 (235)*
G04*
G04 Layer_Color=255*
%FSLAX25Y25*%
%MOIN*%
G70*
G04*
G04 #@! TF.SameCoordinates,91F4C2CD-C4D8-4C02-87E3-D191CECDD99B*
G04*
G04*
G04 #@! TF.FilePolarity,Positive*
G04*
G01*
G75*
%ADD14R,0.03347X0.03740*%
%ADD15R,0.04724X0.04724*%
%ADD16R,0.05315X0.01575*%
%ADD17R,0.06299X0.08268*%
%ADD18R,0.07480X0.07087*%
%ADD19R,0.07480X0.07480*%
%ADD20R,0.12598X0.06299*%
%ADD21R,0.03543X0.03937*%
%ADD22R,0.20079X0.12402*%
%ADD23O,0.12795X0.05906*%
%ADD24R,0.03740X0.03347*%
%ADD25R,0.03937X0.03543*%
%ADD26R,0.05118X0.07087*%
%ADD27R,0.12205X0.09449*%
%ADD28R,0.02559X0.06004*%
%ADD29R,0.02559X0.05906*%
%ADD30R,0.05807X0.01772*%
%ADD31R,0.09646X0.12402*%
%ADD68C,0.08563*%
%ADD69R,0.08563X0.08563*%
%ADD70C,0.23622*%
%ADD71R,0.04331X0.04331*%
%ADD72C,0.06004*%
%ADD73C,0.10925*%
%ADD74C,0.10335*%
%ADD75C,0.17303*%
%ADD76C,0.08268*%
%ADD77O,0.15748X0.11024*%
%ADD78O,0.18898X0.11024*%
D14*
X56559Y15000D02*
D03*
X51441D02*
D03*
X216441Y61500D02*
D03*
X221559D02*
D03*
X174059Y313500D02*
D03*
X168941D02*
D03*
D15*
X287500Y301134D02*
D03*
Y292866D02*
D03*
D16*
X369172Y49957D02*
D03*
Y52517D02*
D03*
Y55076D02*
D03*
Y57635D02*
D03*
Y60194D02*
D03*
D17*
X369665Y42871D02*
D03*
Y67280D02*
D03*
D18*
X379700Y40115D02*
D03*
Y70036D02*
D03*
D19*
Y50351D02*
D03*
Y59800D02*
D03*
D20*
X264595Y196363D02*
D03*
X284279D02*
D03*
D21*
X266843Y215500D02*
D03*
X272158D02*
D03*
X270342Y136500D02*
D03*
X275658D02*
D03*
X218843Y282000D02*
D03*
X224158D02*
D03*
X219342Y243000D02*
D03*
X224658D02*
D03*
X203842Y282000D02*
D03*
X209157D02*
D03*
D22*
X226000Y196079D02*
D03*
Y155921D02*
D03*
D23*
X49937Y356937D02*
D03*
Y349063D02*
D03*
Y366779D02*
D03*
Y339220D02*
D03*
D24*
X289437Y77941D02*
D03*
Y83059D02*
D03*
X298000Y83059D02*
D03*
Y77941D02*
D03*
X160500Y314059D02*
D03*
Y308941D02*
D03*
X146500Y316059D02*
D03*
Y310941D02*
D03*
D25*
X255000Y103342D02*
D03*
Y108658D02*
D03*
X193500Y305157D02*
D03*
Y299843D02*
D03*
X186000Y305157D02*
D03*
Y299843D02*
D03*
D26*
X281709Y125500D02*
D03*
X270291D02*
D03*
X281709Y115000D02*
D03*
X270291D02*
D03*
D27*
X271937Y93189D02*
D03*
D28*
X264437Y103866D02*
D03*
X269437D02*
D03*
X274437D02*
D03*
X279437D02*
D03*
Y82512D02*
D03*
X274437D02*
D03*
X269437D02*
D03*
X264437D02*
D03*
D29*
X219000Y250870D02*
D03*
X214000D02*
D03*
X209000D02*
D03*
X204000D02*
D03*
Y272130D02*
D03*
X209000D02*
D03*
X214000D02*
D03*
X219000D02*
D03*
D30*
X202933Y305984D02*
D03*
Y308543D02*
D03*
Y311102D02*
D03*
Y313661D02*
D03*
Y316220D02*
D03*
Y318779D02*
D03*
Y321339D02*
D03*
Y323898D02*
D03*
Y326457D02*
D03*
Y329016D02*
D03*
X226067D02*
D03*
Y326457D02*
D03*
Y323898D02*
D03*
Y321339D02*
D03*
Y318779D02*
D03*
Y316220D02*
D03*
Y313661D02*
D03*
Y311102D02*
D03*
Y308543D02*
D03*
Y305984D02*
D03*
D31*
X264158Y161000D02*
D03*
X288567D02*
D03*
D68*
X236000Y39500D02*
D03*
Y17846D02*
D03*
X252535Y39500D02*
D03*
X186500Y39154D02*
D03*
Y17500D02*
D03*
X203035Y39154D02*
D03*
X138965Y38653D02*
D03*
Y17000D02*
D03*
X155500Y38653D02*
D03*
X91500D02*
D03*
Y17000D02*
D03*
X108035Y38653D02*
D03*
X301500D02*
D03*
Y17000D02*
D03*
X99500Y358000D02*
D03*
Y379654D02*
D03*
X82965Y358000D02*
D03*
X148000Y358347D02*
D03*
Y380000D02*
D03*
X131465Y358347D02*
D03*
X196500Y358500D02*
D03*
Y380153D02*
D03*
X179965Y358500D02*
D03*
X246500D02*
D03*
Y380153D02*
D03*
X229965Y358500D02*
D03*
X297035Y359000D02*
D03*
Y380654D02*
D03*
X280500Y359000D02*
D03*
D69*
X252535Y17846D02*
D03*
X203035Y17500D02*
D03*
X155500Y17000D02*
D03*
X108035D02*
D03*
X82965Y379654D02*
D03*
X131465Y380000D02*
D03*
X179965Y380153D02*
D03*
X229965D02*
D03*
X280500Y380654D02*
D03*
D70*
X100500Y203500D02*
D03*
X366142Y15748D02*
D03*
Y377953D02*
D03*
D71*
X241500Y282000D02*
D03*
X291000Y138000D02*
D03*
X183000Y216000D02*
D03*
X339500Y17000D02*
D03*
X108000Y309500D02*
D03*
X165000Y102500D02*
D03*
X340000Y38000D02*
D03*
D72*
X320004Y36843D02*
D03*
X282996D02*
D03*
X9106Y198823D02*
D03*
Y298035D02*
D03*
X8563Y41749D02*
D03*
Y157497D02*
D03*
D73*
X37846Y198823D02*
D03*
Y215358D02*
D03*
Y231894D02*
D03*
Y248429D02*
D03*
Y264965D02*
D03*
Y281500D02*
D03*
Y298035D02*
D03*
X59500Y198823D02*
D03*
Y215358D02*
D03*
Y231894D02*
D03*
Y248429D02*
D03*
Y264965D02*
D03*
Y281500D02*
D03*
Y298035D02*
D03*
X58957Y157497D02*
D03*
Y140961D02*
D03*
Y124426D02*
D03*
Y107890D02*
D03*
Y91355D02*
D03*
Y74819D02*
D03*
Y58284D02*
D03*
Y41749D02*
D03*
X37303Y157497D02*
D03*
Y140961D02*
D03*
Y124426D02*
D03*
Y107890D02*
D03*
Y91355D02*
D03*
Y74819D02*
D03*
Y58284D02*
D03*
Y41749D02*
D03*
D74*
X329252Y160138D02*
D03*
Y175886D02*
D03*
Y191634D02*
D03*
Y207382D02*
D03*
Y223130D02*
D03*
Y238878D02*
D03*
Y254626D02*
D03*
Y270374D02*
D03*
X345000Y168012D02*
D03*
Y183760D02*
D03*
Y199508D02*
D03*
Y215256D02*
D03*
Y231004D02*
D03*
Y246752D02*
D03*
Y262500D02*
D03*
X360748Y160138D02*
D03*
Y175886D02*
D03*
Y191634D02*
D03*
Y207382D02*
D03*
Y223130D02*
D03*
Y238878D02*
D03*
Y254626D02*
D03*
Y270374D02*
D03*
D75*
X346969Y134547D02*
D03*
Y295965D02*
D03*
D76*
X126537Y161500D02*
D03*
Y144965D02*
D03*
Y128429D02*
D03*
Y111894D02*
D03*
Y95358D02*
D03*
X104884Y161500D02*
D03*
Y144965D02*
D03*
Y128429D02*
D03*
Y111894D02*
D03*
Y95358D02*
D03*
D77*
X41000Y378394D02*
D03*
Y327606D02*
D03*
D78*
X13795Y380165D02*
D03*
Y325835D02*
D03*
M02*
