G04*
G04 #@! TF.GenerationSoftware,Altium Limited,Altium Designer,21.0.9 (235)*
G04*
G04 Layer_Color=255*
%FSLAX25Y25*%
%MOIN*%
G70*
G04*
G04 #@! TF.SameCoordinates,BA8C7152-59F1-4345-8518-0593712C2385*
G04*
G04*
G04 #@! TF.FilePolarity,Positive*
G04*
G01*
G75*
%ADD14R,0.09646X0.12402*%
%ADD15R,0.02559X0.05906*%
%ADD16R,0.05807X0.01772*%
%ADD17R,0.20079X0.12402*%
%ADD18R,0.05315X0.01575*%
%ADD19R,0.06299X0.08268*%
%ADD20R,0.07480X0.07087*%
%ADD21R,0.07480X0.07480*%
%ADD22O,0.12795X0.05906*%
%ADD23R,0.12205X0.09449*%
%ADD24R,0.03740X0.03347*%
%ADD25R,0.04724X0.04724*%
%ADD26R,0.03347X0.03740*%
%ADD27R,0.12598X0.06299*%
%ADD28R,0.03543X0.03937*%
%ADD29R,0.03937X0.03543*%
%ADD30R,0.05118X0.07087*%
%ADD31R,0.02559X0.06004*%
%ADD70R,0.08563X0.08563*%
%ADD71C,0.08563*%
%ADD72R,0.04331X0.04331*%
%ADD73C,0.08268*%
%ADD74C,0.10925*%
%ADD75C,0.06004*%
%ADD76C,0.10335*%
%ADD77C,0.17303*%
%ADD78O,0.15748X0.11024*%
%ADD79O,0.18898X0.11024*%
%ADD80C,0.23622*%
D14*
X288567Y161000D02*
D03*
X264158D02*
D03*
D15*
X219000Y272130D02*
D03*
X214000D02*
D03*
X209000D02*
D03*
X204000D02*
D03*
Y250870D02*
D03*
X209000D02*
D03*
X214000D02*
D03*
X219000D02*
D03*
D16*
X226067Y305984D02*
D03*
Y308543D02*
D03*
Y311102D02*
D03*
Y313661D02*
D03*
Y316220D02*
D03*
Y318779D02*
D03*
Y321339D02*
D03*
Y323898D02*
D03*
Y326457D02*
D03*
Y329016D02*
D03*
X202933D02*
D03*
Y326457D02*
D03*
Y323898D02*
D03*
Y321339D02*
D03*
Y318779D02*
D03*
Y316220D02*
D03*
Y313661D02*
D03*
Y311102D02*
D03*
Y308543D02*
D03*
Y305984D02*
D03*
D17*
X226000Y155921D02*
D03*
Y196079D02*
D03*
D18*
X362732Y49882D02*
D03*
Y52441D02*
D03*
Y55000D02*
D03*
Y57559D02*
D03*
Y60118D02*
D03*
D19*
X363224Y42795D02*
D03*
Y67205D02*
D03*
D20*
X373260Y40039D02*
D03*
Y69961D02*
D03*
D21*
Y50276D02*
D03*
Y59724D02*
D03*
D22*
X55937Y339220D02*
D03*
Y366779D02*
D03*
Y349063D02*
D03*
Y356937D02*
D03*
D23*
X271937Y93189D02*
D03*
D24*
X292000Y282559D02*
D03*
Y277441D02*
D03*
X269000Y283059D02*
D03*
Y277941D02*
D03*
X289437Y77941D02*
D03*
Y83059D02*
D03*
X298000Y83059D02*
D03*
Y77941D02*
D03*
X155000Y314559D02*
D03*
Y309441D02*
D03*
X142000Y316059D02*
D03*
Y310941D02*
D03*
D25*
X292000Y291866D02*
D03*
Y300134D02*
D03*
X269000D02*
D03*
Y291866D02*
D03*
D26*
X100941Y322000D02*
D03*
X106059D02*
D03*
X106059Y332000D02*
D03*
X100941D02*
D03*
X56559Y15000D02*
D03*
X51441D02*
D03*
X216441Y61500D02*
D03*
X221559D02*
D03*
X169559Y313500D02*
D03*
X164441D02*
D03*
D27*
X264595Y196363D02*
D03*
X284279D02*
D03*
D28*
X266843Y215500D02*
D03*
X272158D02*
D03*
X270342Y136500D02*
D03*
X275658D02*
D03*
X218843Y282000D02*
D03*
X224158D02*
D03*
X219342Y243000D02*
D03*
X224658D02*
D03*
X203842Y282000D02*
D03*
X209157D02*
D03*
D29*
X255000Y103342D02*
D03*
Y108658D02*
D03*
X193500Y305157D02*
D03*
Y299843D02*
D03*
X186000Y305157D02*
D03*
Y299843D02*
D03*
D30*
X281709Y125500D02*
D03*
X270291D02*
D03*
X281709Y115000D02*
D03*
X270291D02*
D03*
D31*
X264437Y103866D02*
D03*
X269437D02*
D03*
X274437D02*
D03*
X279437D02*
D03*
Y82512D02*
D03*
X274437D02*
D03*
X269437D02*
D03*
X264437D02*
D03*
D70*
X284500Y17000D02*
D03*
X315500D02*
D03*
X280500Y380654D02*
D03*
X179965Y380153D02*
D03*
X229965D02*
D03*
X131465Y380000D02*
D03*
X252535Y17846D02*
D03*
X203035Y17500D02*
D03*
X155500Y17000D02*
D03*
X108035D02*
D03*
X82965Y379654D02*
D03*
D71*
X284500Y38653D02*
D03*
X315500D02*
D03*
X280500Y359000D02*
D03*
X297035Y380654D02*
D03*
Y359000D02*
D03*
X179965Y358500D02*
D03*
X196500Y380153D02*
D03*
Y358500D02*
D03*
X229965D02*
D03*
X246500Y380153D02*
D03*
Y358500D02*
D03*
X131465Y358347D02*
D03*
X148000Y380000D02*
D03*
Y358347D02*
D03*
X252535Y39500D02*
D03*
X236000Y17846D02*
D03*
Y39500D02*
D03*
X203035Y39154D02*
D03*
X186500Y17500D02*
D03*
Y39154D02*
D03*
X155500Y38653D02*
D03*
X138965Y17000D02*
D03*
Y38653D02*
D03*
X108035D02*
D03*
X91500Y17000D02*
D03*
Y38653D02*
D03*
X82965Y358000D02*
D03*
X99500Y379654D02*
D03*
Y358000D02*
D03*
D72*
X183000Y216000D02*
D03*
X152500Y275000D02*
D03*
X339500Y17000D02*
D03*
X248000Y297000D02*
D03*
X291000Y138000D02*
D03*
X340500Y42500D02*
D03*
X165000Y102500D02*
D03*
D73*
X104884Y95358D02*
D03*
Y111894D02*
D03*
Y128429D02*
D03*
Y144965D02*
D03*
Y161500D02*
D03*
X126537Y95358D02*
D03*
Y111894D02*
D03*
Y128429D02*
D03*
Y144965D02*
D03*
Y161500D02*
D03*
D74*
X40000Y41823D02*
D03*
Y58358D02*
D03*
Y74894D02*
D03*
Y91429D02*
D03*
Y107965D02*
D03*
Y124500D02*
D03*
Y141035D02*
D03*
Y157571D02*
D03*
X61654Y41823D02*
D03*
Y58358D02*
D03*
Y74894D02*
D03*
Y91429D02*
D03*
Y107965D02*
D03*
Y124500D02*
D03*
Y141035D02*
D03*
Y157571D02*
D03*
X39500Y198894D02*
D03*
Y215429D02*
D03*
Y231965D02*
D03*
Y248500D02*
D03*
Y265035D02*
D03*
Y281571D02*
D03*
Y298106D02*
D03*
X61154Y198894D02*
D03*
Y215429D02*
D03*
Y231965D02*
D03*
Y248500D02*
D03*
Y265035D02*
D03*
Y281571D02*
D03*
Y298106D02*
D03*
D75*
X11260Y157571D02*
D03*
Y41823D02*
D03*
X10760Y198894D02*
D03*
Y298106D02*
D03*
D76*
X329252Y160138D02*
D03*
Y175886D02*
D03*
Y191634D02*
D03*
Y207382D02*
D03*
Y223130D02*
D03*
Y238878D02*
D03*
Y254626D02*
D03*
Y270374D02*
D03*
X345000Y168012D02*
D03*
Y183760D02*
D03*
Y199508D02*
D03*
Y215256D02*
D03*
Y231004D02*
D03*
Y246752D02*
D03*
Y262500D02*
D03*
X360748Y160138D02*
D03*
Y175886D02*
D03*
Y191634D02*
D03*
Y207382D02*
D03*
Y223130D02*
D03*
Y238878D02*
D03*
Y254626D02*
D03*
Y270374D02*
D03*
D77*
X346969Y134547D02*
D03*
Y295965D02*
D03*
D78*
X47000Y327606D02*
D03*
Y378394D02*
D03*
D79*
X19795Y325835D02*
D03*
Y380165D02*
D03*
D80*
X100500Y203500D02*
D03*
X366142Y15748D02*
D03*
Y377953D02*
D03*
M02*
