G04*
G04 #@! TF.GenerationSoftware,Altium Limited,Altium Designer,21.0.9 (235)*
G04*
G04 Layer_Color=16711935*
%FSLAX25Y25*%
%MOIN*%
G70*
G04*
G04 #@! TF.SameCoordinates,E74DC3C6-926F-45D7-BB20-B057052BEC36*
G04*
G04*
G04 #@! TF.FilePolarity,Negative*
G04*
G01*
G75*
%ADD50R,0.09153X0.09153*%
%ADD51C,0.09153*%
%ADD52R,0.04921X0.04921*%
%ADD53C,0.08858*%
%ADD54C,0.11516*%
%ADD55C,0.06594*%
%ADD56C,0.10925*%
%ADD57C,0.17894*%
%ADD58O,0.16339X0.11614*%
%ADD59O,0.19488X0.11614*%
%ADD60C,0.24213*%
%ADD61C,0.02362*%
%ADD62C,0.03740*%
%ADD63C,0.02953*%
D50*
X284500Y17000D02*
D03*
X315500D02*
D03*
X280500Y380654D02*
D03*
X179965Y380153D02*
D03*
X229965D02*
D03*
X131465Y380000D02*
D03*
X252535Y17846D02*
D03*
X203035Y17500D02*
D03*
X155500Y17000D02*
D03*
X108035D02*
D03*
X82965Y379654D02*
D03*
D51*
X284500Y38653D02*
D03*
X315500D02*
D03*
X280500Y359000D02*
D03*
X297035Y380654D02*
D03*
Y359000D02*
D03*
X179965Y358500D02*
D03*
X196500Y380153D02*
D03*
Y358500D02*
D03*
X229965D02*
D03*
X246500Y380153D02*
D03*
Y358500D02*
D03*
X131465Y358347D02*
D03*
X148000Y380000D02*
D03*
Y358347D02*
D03*
X252535Y39500D02*
D03*
X236000Y17846D02*
D03*
Y39500D02*
D03*
X203035Y39154D02*
D03*
X186500Y17500D02*
D03*
Y39154D02*
D03*
X155500Y38653D02*
D03*
X138965Y17000D02*
D03*
Y38653D02*
D03*
X108035D02*
D03*
X91500Y17000D02*
D03*
Y38653D02*
D03*
X82965Y358000D02*
D03*
X99500Y379654D02*
D03*
Y358000D02*
D03*
D52*
X183000Y216000D02*
D03*
X152500Y275000D02*
D03*
X339500Y17000D02*
D03*
X248000Y297000D02*
D03*
X291000Y138000D02*
D03*
X340500Y42500D02*
D03*
X165000Y102500D02*
D03*
D53*
X104884Y95358D02*
D03*
Y111894D02*
D03*
Y128429D02*
D03*
Y144965D02*
D03*
Y161500D02*
D03*
X126537Y95358D02*
D03*
Y111894D02*
D03*
Y128429D02*
D03*
Y144965D02*
D03*
Y161500D02*
D03*
D54*
X40000Y41823D02*
D03*
Y58358D02*
D03*
Y74894D02*
D03*
Y91429D02*
D03*
Y107965D02*
D03*
Y124500D02*
D03*
Y141035D02*
D03*
Y157571D02*
D03*
X61654Y41823D02*
D03*
Y58358D02*
D03*
Y74894D02*
D03*
Y91429D02*
D03*
Y107965D02*
D03*
Y124500D02*
D03*
Y141035D02*
D03*
Y157571D02*
D03*
X39500Y198894D02*
D03*
Y215429D02*
D03*
Y231965D02*
D03*
Y248500D02*
D03*
Y265035D02*
D03*
Y281571D02*
D03*
Y298106D02*
D03*
X61154Y198894D02*
D03*
Y215429D02*
D03*
Y231965D02*
D03*
Y248500D02*
D03*
Y265035D02*
D03*
Y281571D02*
D03*
Y298106D02*
D03*
D55*
X11260Y157571D02*
D03*
Y41823D02*
D03*
X10760Y198894D02*
D03*
Y298106D02*
D03*
D56*
X329252Y160138D02*
D03*
Y175886D02*
D03*
Y191634D02*
D03*
Y207382D02*
D03*
Y223130D02*
D03*
Y238878D02*
D03*
Y254626D02*
D03*
Y270374D02*
D03*
X345000Y168012D02*
D03*
Y183760D02*
D03*
Y199508D02*
D03*
Y215256D02*
D03*
Y231004D02*
D03*
Y246752D02*
D03*
Y262500D02*
D03*
X360748Y160138D02*
D03*
Y175886D02*
D03*
Y191634D02*
D03*
Y207382D02*
D03*
Y223130D02*
D03*
Y238878D02*
D03*
Y254626D02*
D03*
Y270374D02*
D03*
D57*
X346969Y134547D02*
D03*
Y295965D02*
D03*
D58*
X47000Y327606D02*
D03*
Y378394D02*
D03*
D59*
X19795Y325835D02*
D03*
Y380165D02*
D03*
D60*
X100500Y203500D02*
D03*
X366142Y15748D02*
D03*
Y377953D02*
D03*
D61*
X267500Y91000D02*
D03*
X272000D02*
D03*
X275791Y91012D02*
D03*
X267500Y96000D02*
D03*
X272000D02*
D03*
X276000D02*
D03*
X195969Y310961D02*
D03*
X269000Y272500D02*
D03*
X155500Y322000D02*
D03*
X251000Y217000D02*
D03*
X246000D02*
D03*
X241000D02*
D03*
X236000D02*
D03*
X209000Y243000D02*
D03*
X231000Y217000D02*
D03*
X226353Y216852D02*
D03*
X141574Y322426D02*
D03*
X148561Y310939D02*
D03*
X298000Y88000D02*
D03*
X232663Y313663D02*
D03*
X181000Y305000D02*
D03*
X218500Y287500D02*
D03*
X197661Y321339D02*
D03*
X232663Y321337D02*
D03*
X197500Y329000D02*
D03*
D62*
X67500Y367500D02*
D03*
X270342Y144443D02*
D03*
D63*
X352853Y50031D02*
D03*
M02*
