G04*
G04 #@! TF.GenerationSoftware,Altium Limited,Altium Designer,21.0.9 (235)*
G04*
G04 Layer_Color=2752767*
%FSLAX25Y25*%
%MOIN*%
G70*
G04*
G04 #@! TF.SameCoordinates,91F4C2CD-C4D8-4C02-87E3-D191CECDD99B*
G04*
G04*
G04 #@! TF.FilePolarity,Positive*
G04*
G01*
G75*
%ADD85C,0.00200*%
%ADD86C,0.00267*%
%ADD87C,0.00133*%
D85*
X235200Y38700D02*
Y40300D01*
X236800D01*
Y38700D01*
X235200D01*
Y17047D02*
Y18646D01*
X236800D01*
Y17047D01*
X235200D01*
X251735Y38700D02*
Y40300D01*
X253335D01*
Y38700D01*
X251735D01*
Y17047D02*
Y18646D01*
X253335D01*
Y17047D01*
X251735D01*
X185700Y38353D02*
Y39954D01*
X187300D01*
Y38353D01*
X185700D01*
Y16700D02*
Y18300D01*
X187300D01*
Y16700D01*
X185700D01*
X202235Y38353D02*
Y39954D01*
X203835D01*
Y38353D01*
X202235D01*
Y16700D02*
Y18300D01*
X203835D01*
Y16700D01*
X202235D01*
X138165Y37854D02*
Y39454D01*
X139765D01*
Y37854D01*
X138165D01*
Y16200D02*
Y17800D01*
X139765D01*
Y16200D01*
X138165D01*
X154700Y37854D02*
Y39454D01*
X156300D01*
Y37854D01*
X154700D01*
Y16200D02*
Y17800D01*
X156300D01*
Y16200D01*
X154700D01*
X90700Y37854D02*
Y39454D01*
X92300D01*
Y37854D01*
X90700D01*
Y16200D02*
Y17800D01*
X92300D01*
Y16200D01*
X90700D01*
X107235Y37854D02*
Y39454D01*
X108835D01*
Y37854D01*
X107235D01*
Y16200D02*
Y17800D01*
X108835D01*
Y16200D01*
X107235D01*
X241500Y281200D02*
X240700Y282800D01*
X242300D01*
X241500Y281200D01*
X320004Y36042D02*
X320404Y36443D01*
X320804D01*
X320404Y36843D01*
X320804Y37242D01*
X320404D01*
X320004Y37642D01*
X319604Y37242D01*
X319204D01*
X319604Y36843D01*
X319204Y36443D01*
X319604D01*
X320004Y36042D01*
X282996D02*
X283396Y36443D01*
X283796D01*
X283396Y36843D01*
X283796Y37242D01*
X283396D01*
X282996Y37642D01*
X282596Y37242D01*
X282196D01*
X282596Y36843D01*
X282196Y36443D01*
X282596D01*
X282996Y36042D01*
X300700Y37854D02*
Y39454D01*
X302300D01*
Y37854D01*
X300700D01*
Y16200D02*
Y17800D01*
X302300D01*
Y16200D01*
X300700D01*
X291000Y137200D02*
X290200Y138800D01*
X291800D01*
X291000Y137200D01*
X183000Y215200D02*
X182200Y216800D01*
X183800D01*
X183000Y215200D01*
X339500Y16200D02*
X338700Y17800D01*
X340300D01*
X339500Y16200D01*
X108000Y308700D02*
X107200Y310300D01*
X108800D01*
X108000Y308700D01*
X165000Y101700D02*
X164200Y103300D01*
X165800D01*
X165000Y101700D01*
X340000Y37200D02*
X339200Y38800D01*
X340800D01*
X340000Y37200D01*
X37047Y198023D02*
X37446Y198823D01*
X37047Y199623D01*
X37846Y199223D01*
X38647Y199623D01*
X38247Y198823D01*
X38647Y198023D01*
X37846Y198423D01*
X37047Y198023D01*
Y214558D02*
X37446Y215358D01*
X37047Y216158D01*
X37846Y215758D01*
X38647Y216158D01*
X38247Y215358D01*
X38647Y214558D01*
X37846Y214958D01*
X37047Y214558D01*
Y231094D02*
X37446Y231894D01*
X37047Y232694D01*
X37846Y232294D01*
X38647Y232694D01*
X38247Y231894D01*
X38647Y231094D01*
X37846Y231494D01*
X37047Y231094D01*
Y247629D02*
X37446Y248429D01*
X37047Y249229D01*
X37846Y248829D01*
X38647Y249229D01*
X38247Y248429D01*
X38647Y247629D01*
X37846Y248029D01*
X37047Y247629D01*
Y264165D02*
X37446Y264965D01*
X37047Y265765D01*
X37846Y265365D01*
X38647Y265765D01*
X38247Y264965D01*
X38647Y264165D01*
X37846Y264565D01*
X37047Y264165D01*
Y280700D02*
X37446Y281500D01*
X37047Y282300D01*
X37846Y281900D01*
X38647Y282300D01*
X38247Y281500D01*
X38647Y280700D01*
X37846Y281100D01*
X37047Y280700D01*
Y297235D02*
X37446Y298035D01*
X37047Y298835D01*
X37846Y298435D01*
X38647Y298835D01*
X38247Y298035D01*
X38647Y297235D01*
X37846Y297635D01*
X37047Y297235D01*
X58700Y198023D02*
X59100Y198823D01*
X58700Y199623D01*
X59500Y199223D01*
X60300Y199623D01*
X59900Y198823D01*
X60300Y198023D01*
X59500Y198423D01*
X58700Y198023D01*
Y214558D02*
X59100Y215358D01*
X58700Y216158D01*
X59500Y215758D01*
X60300Y216158D01*
X59900Y215358D01*
X60300Y214558D01*
X59500Y214958D01*
X58700Y214558D01*
Y231094D02*
X59100Y231894D01*
X58700Y232694D01*
X59500Y232294D01*
X60300Y232694D01*
X59900Y231894D01*
X60300Y231094D01*
X59500Y231494D01*
X58700Y231094D01*
Y247629D02*
X59100Y248429D01*
X58700Y249229D01*
X59500Y248829D01*
X60300Y249229D01*
X59900Y248429D01*
X60300Y247629D01*
X59500Y248029D01*
X58700Y247629D01*
Y264165D02*
X59100Y264965D01*
X58700Y265765D01*
X59500Y265365D01*
X60300Y265765D01*
X59900Y264965D01*
X60300Y264165D01*
X59500Y264565D01*
X58700Y264165D01*
Y280700D02*
X59100Y281500D01*
X58700Y282300D01*
X59500Y281900D01*
X60300Y282300D01*
X59900Y281500D01*
X60300Y280700D01*
X59500Y281100D01*
X58700Y280700D01*
Y297235D02*
X59100Y298035D01*
X58700Y298835D01*
X59500Y298435D01*
X60300Y298835D01*
X59900Y298035D01*
X60300Y297235D01*
X59500Y297635D01*
X58700Y297235D01*
X9106Y198023D02*
X9506Y198423D01*
X9906D01*
X9506Y198823D01*
X9906Y199223D01*
X9506D01*
X9106Y199623D01*
X8706Y199223D01*
X8306D01*
X8706Y198823D01*
X8306Y198423D01*
X8706D01*
X9106Y198023D01*
Y297235D02*
X9506Y297635D01*
X9906D01*
X9506Y298035D01*
X9906Y298435D01*
X9506D01*
X9106Y298835D01*
X8706Y298435D01*
X8306D01*
X8706Y298035D01*
X8306Y297635D01*
X8706D01*
X9106Y297235D01*
X98700Y357200D02*
Y358800D01*
X100300D01*
Y357200D01*
X98700D01*
Y378854D02*
Y380453D01*
X100300D01*
Y378854D01*
X98700D01*
X82165Y357200D02*
Y358800D01*
X83765D01*
Y357200D01*
X82165D01*
Y378854D02*
Y380453D01*
X83765D01*
Y378854D01*
X82165D01*
X147200Y357546D02*
Y359146D01*
X148800D01*
Y357546D01*
X147200D01*
Y379200D02*
Y380800D01*
X148800D01*
Y379200D01*
X147200D01*
X130665Y357546D02*
Y359146D01*
X132265D01*
Y357546D01*
X130665D01*
Y379200D02*
Y380800D01*
X132265D01*
Y379200D01*
X130665D01*
X195700Y357700D02*
Y359300D01*
X197300D01*
Y357700D01*
X195700D01*
Y379353D02*
Y380954D01*
X197300D01*
Y379353D01*
X195700D01*
X179165Y357700D02*
Y359300D01*
X180765D01*
Y357700D01*
X179165D01*
Y379353D02*
Y380954D01*
X180765D01*
Y379353D01*
X179165D01*
X245700Y357700D02*
Y359300D01*
X247300D01*
Y357700D01*
X245700D01*
Y379353D02*
Y380954D01*
X247300D01*
Y379353D01*
X245700D01*
X229165Y357700D02*
Y359300D01*
X230765D01*
Y357700D01*
X229165D01*
Y379353D02*
Y380954D01*
X230765D01*
Y379353D01*
X229165D01*
X328852Y159738D02*
Y159338D01*
X329652D01*
Y159738D01*
X330052D01*
Y160538D01*
X329652D01*
Y160938D01*
X328852D01*
Y160538D01*
X328452D01*
Y159738D01*
X328852D01*
Y175486D02*
Y175086D01*
X329652D01*
Y175486D01*
X330052D01*
Y176286D01*
X329652D01*
Y176686D01*
X328852D01*
Y176286D01*
X328452D01*
Y175486D01*
X328852D01*
Y191234D02*
Y190834D01*
X329652D01*
Y191234D01*
X330052D01*
Y192034D01*
X329652D01*
Y192434D01*
X328852D01*
Y192034D01*
X328452D01*
Y191234D01*
X328852D01*
Y206982D02*
Y206582D01*
X329652D01*
Y206982D01*
X330052D01*
Y207782D01*
X329652D01*
Y208182D01*
X328852D01*
Y207782D01*
X328452D01*
Y206982D01*
X328852D01*
Y222730D02*
Y222330D01*
X329652D01*
Y222730D01*
X330052D01*
Y223530D01*
X329652D01*
Y223930D01*
X328852D01*
Y223530D01*
X328452D01*
Y222730D01*
X328852D01*
Y238478D02*
Y238078D01*
X329652D01*
Y238478D01*
X330052D01*
Y239278D01*
X329652D01*
Y239678D01*
X328852D01*
Y239278D01*
X328452D01*
Y238478D01*
X328852D01*
Y254226D02*
Y253826D01*
X329652D01*
Y254226D01*
X330052D01*
Y255026D01*
X329652D01*
Y255426D01*
X328852D01*
Y255026D01*
X328452D01*
Y254226D01*
X328852D01*
Y269974D02*
Y269574D01*
X329652D01*
Y269974D01*
X330052D01*
Y270774D01*
X329652D01*
Y271174D01*
X328852D01*
Y270774D01*
X328452D01*
Y269974D01*
X328852D01*
X344600Y167612D02*
Y167212D01*
X345400D01*
Y167612D01*
X345800D01*
Y168412D01*
X345400D01*
Y168812D01*
X344600D01*
Y168412D01*
X344200D01*
Y167612D01*
X344600D01*
Y183360D02*
Y182960D01*
X345400D01*
Y183360D01*
X345800D01*
Y184160D01*
X345400D01*
Y184560D01*
X344600D01*
Y184160D01*
X344200D01*
Y183360D01*
X344600D01*
Y199108D02*
Y198708D01*
X345400D01*
Y199108D01*
X345800D01*
Y199908D01*
X345400D01*
Y200308D01*
X344600D01*
Y199908D01*
X344200D01*
Y199108D01*
X344600D01*
Y214856D02*
Y214456D01*
X345400D01*
Y214856D01*
X345800D01*
Y215656D01*
X345400D01*
Y216056D01*
X344600D01*
Y215656D01*
X344200D01*
Y214856D01*
X344600D01*
Y230604D02*
Y230204D01*
X345400D01*
Y230604D01*
X345800D01*
Y231404D01*
X345400D01*
Y231804D01*
X344600D01*
Y231404D01*
X344200D01*
Y230604D01*
X344600D01*
Y246352D02*
Y245952D01*
X345400D01*
Y246352D01*
X345800D01*
Y247152D01*
X345400D01*
Y247552D01*
X344600D01*
Y247152D01*
X344200D01*
Y246352D01*
X344600D01*
Y262100D02*
Y261700D01*
X345400D01*
Y262100D01*
X345800D01*
Y262900D01*
X345400D01*
Y263300D01*
X344600D01*
Y262900D01*
X344200D01*
Y262100D01*
X344600D01*
X360348Y159738D02*
Y159338D01*
X361148D01*
Y159738D01*
X361548D01*
Y160538D01*
X361148D01*
Y160938D01*
X360348D01*
Y160538D01*
X359948D01*
Y159738D01*
X360348D01*
Y175486D02*
Y175086D01*
X361148D01*
Y175486D01*
X361548D01*
Y176286D01*
X361148D01*
Y176686D01*
X360348D01*
Y176286D01*
X359948D01*
Y175486D01*
X360348D01*
Y191234D02*
Y190834D01*
X361148D01*
Y191234D01*
X361548D01*
Y192034D01*
X361148D01*
Y192434D01*
X360348D01*
Y192034D01*
X359948D01*
Y191234D01*
X360348D01*
Y206982D02*
Y206582D01*
X361148D01*
Y206982D01*
X361548D01*
Y207782D01*
X361148D01*
Y208182D01*
X360348D01*
Y207782D01*
X359948D01*
Y206982D01*
X360348D01*
Y222730D02*
Y222330D01*
X361148D01*
Y222730D01*
X361548D01*
Y223530D01*
X361148D01*
Y223930D01*
X360348D01*
Y223530D01*
X359948D01*
Y222730D01*
X360348D01*
Y238478D02*
Y238078D01*
X361148D01*
Y238478D01*
X361548D01*
Y239278D01*
X361148D01*
Y239678D01*
X360348D01*
Y239278D01*
X359948D01*
Y238478D01*
X360348D01*
Y254226D02*
Y253826D01*
X361148D01*
Y254226D01*
X361548D01*
Y255026D01*
X361148D01*
Y255426D01*
X360348D01*
Y255026D01*
X359948D01*
Y254226D01*
X360348D01*
Y269974D02*
Y269574D01*
X361148D01*
Y269974D01*
X361548D01*
Y270774D01*
X361148D01*
Y271174D01*
X360348D01*
Y270774D01*
X359948D01*
Y269974D01*
X360348D01*
X346168Y133747D02*
X346568D01*
X346969Y134147D01*
X347369Y133747D01*
X347768D01*
Y134147D01*
X347369Y134547D01*
X347768Y134947D01*
Y135347D01*
X347369D01*
X346969Y134947D01*
X346568Y135347D01*
X346168D01*
Y134947D01*
X346568Y134547D01*
X346168Y134147D01*
Y133747D01*
Y295165D02*
X346568D01*
X346969Y295565D01*
X347369Y295165D01*
X347768D01*
Y295565D01*
X347369Y295965D01*
X347768Y296365D01*
Y296765D01*
X347369D01*
X346969Y296365D01*
X346568Y296765D01*
X346168D01*
Y296365D01*
X346568Y295965D01*
X346168Y295565D01*
Y295165D01*
X296235Y358200D02*
Y359800D01*
X297835D01*
Y358200D01*
X296235D01*
Y379854D02*
Y381453D01*
X297835D01*
Y379854D01*
X296235D01*
X279700Y358200D02*
Y359800D01*
X281300D01*
Y358200D01*
X279700D01*
Y379854D02*
Y381453D01*
X281300D01*
Y379854D01*
X279700D01*
X125737Y161500D02*
X126537Y162300D01*
X127337Y161500D01*
X126537Y160700D01*
X125737Y161500D01*
Y144965D02*
X126537Y145765D01*
X127337Y144965D01*
X126537Y144165D01*
X125737Y144965D01*
Y128429D02*
X126537Y129229D01*
X127337Y128429D01*
X126537Y127629D01*
X125737Y128429D01*
Y111894D02*
X126537Y112694D01*
X127337Y111894D01*
X126537Y111094D01*
X125737Y111894D01*
Y95358D02*
X126537Y96158D01*
X127337Y95358D01*
X126537Y94558D01*
X125737Y95358D01*
X104084Y161500D02*
X104884Y162300D01*
X105684Y161500D01*
X104884Y160700D01*
X104084Y161500D01*
Y144965D02*
X104884Y145765D01*
X105684Y144965D01*
X104884Y144165D01*
X104084Y144965D01*
Y128429D02*
X104884Y129229D01*
X105684Y128429D01*
X104884Y127629D01*
X104084Y128429D01*
Y111894D02*
X104884Y112694D01*
X105684Y111894D01*
X104884Y111094D01*
X104084Y111894D01*
Y95358D02*
X104884Y96158D01*
X105684Y95358D01*
X104884Y94558D01*
X104084Y95358D01*
X8563Y40949D02*
X8963Y41349D01*
X9363D01*
X8963Y41749D01*
X9363Y42149D01*
X8963D01*
X8563Y42549D01*
X8163Y42149D01*
X7763D01*
X8163Y41749D01*
X7763Y41349D01*
X8163D01*
X8563Y40949D01*
Y156697D02*
X8963Y157097D01*
X9363D01*
X8963Y157497D01*
X9363Y157897D01*
X8963D01*
X8563Y158297D01*
X8163Y157897D01*
X7763D01*
X8163Y157497D01*
X7763Y157097D01*
X8163D01*
X8563Y156697D01*
X58157D02*
X58557Y157497D01*
X58157Y158297D01*
X58957Y157897D01*
X59757Y158297D01*
X59357Y157497D01*
X59757Y156697D01*
X58957Y157097D01*
X58157Y156697D01*
Y140161D02*
X58557Y140961D01*
X58157Y141761D01*
X58957Y141361D01*
X59757Y141761D01*
X59357Y140961D01*
X59757Y140161D01*
X58957Y140561D01*
X58157Y140161D01*
Y123626D02*
X58557Y124426D01*
X58157Y125226D01*
X58957Y124826D01*
X59757Y125226D01*
X59357Y124426D01*
X59757Y123626D01*
X58957Y124026D01*
X58157Y123626D01*
Y107090D02*
X58557Y107890D01*
X58157Y108690D01*
X58957Y108290D01*
X59757Y108690D01*
X59357Y107890D01*
X59757Y107090D01*
X58957Y107490D01*
X58157Y107090D01*
Y90555D02*
X58557Y91355D01*
X58157Y92155D01*
X58957Y91755D01*
X59757Y92155D01*
X59357Y91355D01*
X59757Y90555D01*
X58957Y90955D01*
X58157Y90555D01*
Y74019D02*
X58557Y74819D01*
X58157Y75620D01*
X58957Y75220D01*
X59757Y75620D01*
X59357Y74819D01*
X59757Y74019D01*
X58957Y74419D01*
X58157Y74019D01*
Y57484D02*
X58557Y58284D01*
X58157Y59084D01*
X58957Y58684D01*
X59757Y59084D01*
X59357Y58284D01*
X59757Y57484D01*
X58957Y57884D01*
X58157Y57484D01*
Y40949D02*
X58557Y41749D01*
X58157Y42549D01*
X58957Y42149D01*
X59757Y42549D01*
X59357Y41749D01*
X59757Y40949D01*
X58957Y41349D01*
X58157Y40949D01*
X36503Y156697D02*
X36903Y157497D01*
X36503Y158297D01*
X37303Y157897D01*
X38103Y158297D01*
X37703Y157497D01*
X38103Y156697D01*
X37303Y157097D01*
X36503Y156697D01*
Y140161D02*
X36903Y140961D01*
X36503Y141761D01*
X37303Y141361D01*
X38103Y141761D01*
X37703Y140961D01*
X38103Y140161D01*
X37303Y140561D01*
X36503Y140161D01*
Y123626D02*
X36903Y124426D01*
X36503Y125226D01*
X37303Y124826D01*
X38103Y125226D01*
X37703Y124426D01*
X38103Y123626D01*
X37303Y124026D01*
X36503Y123626D01*
Y107090D02*
X36903Y107890D01*
X36503Y108690D01*
X37303Y108290D01*
X38103Y108690D01*
X37703Y107890D01*
X38103Y107090D01*
X37303Y107490D01*
X36503Y107090D01*
Y90555D02*
X36903Y91355D01*
X36503Y92155D01*
X37303Y91755D01*
X38103Y92155D01*
X37703Y91355D01*
X38103Y90555D01*
X37303Y90955D01*
X36503Y90555D01*
Y74019D02*
X36903Y74819D01*
X36503Y75620D01*
X37303Y75220D01*
X38103Y75620D01*
X37703Y74819D01*
X38103Y74019D01*
X37303Y74419D01*
X36503Y74019D01*
Y57484D02*
X36903Y58284D01*
X36503Y59084D01*
X37303Y58684D01*
X38103Y59084D01*
X37703Y58284D01*
X38103Y57484D01*
X37303Y57884D01*
X36503Y57484D01*
Y40949D02*
X36903Y41749D01*
X36503Y42549D01*
X37303Y42149D01*
X38103Y42549D01*
X37703Y41749D01*
X38103Y40949D01*
X37303Y41349D01*
X36503Y40949D01*
X40200Y377594D02*
Y379194D01*
X41800D01*
Y377594D01*
X40200D01*
X40600Y377994D02*
Y378794D01*
X41400D01*
Y377994D01*
X40600D01*
X40200Y326806D02*
Y328406D01*
X41800D01*
Y326806D01*
X40200D01*
X40600Y327206D02*
Y328006D01*
X41400D01*
Y327206D01*
X40600D01*
X146074Y321626D02*
X145274Y323226D01*
X146874D01*
X146074Y321626D01*
Y322026D02*
X145674Y322826D01*
X146474D01*
X146074Y322026D01*
X195969Y310161D02*
X195169Y311761D01*
X196769D01*
X195969Y310161D01*
Y310561D02*
X195569Y311361D01*
X196369D01*
X195969Y310561D01*
X153061Y310139D02*
X152261Y311739D01*
X153861D01*
X153061Y310139D01*
Y310539D02*
X152661Y311339D01*
X153461D01*
X153061Y310539D01*
X359293Y49306D02*
X358493Y50906D01*
X360093D01*
X359293Y49306D01*
Y49706D02*
X358893Y50506D01*
X359693D01*
X359293Y49706D01*
X61500Y366700D02*
X61900Y367100D01*
X62300D01*
X61900Y367500D01*
X62300Y367900D01*
X61900D01*
X61500Y368300D01*
X61100Y367900D01*
X60700D01*
X61100Y367500D01*
X60700Y367100D01*
X61100D01*
X61500Y366700D01*
Y367100D02*
X61700Y367300D01*
X61900D01*
X61700Y367500D01*
X61900Y367700D01*
X61700D01*
X61500Y367900D01*
X61300Y367700D01*
X61100D01*
X61300Y367500D01*
X61100Y367300D01*
X61300D01*
X61500Y367100D01*
X232000Y216200D02*
X232400Y216600D01*
X232800D01*
X232400Y217000D01*
X232800Y217400D01*
X232400D01*
X232000Y217800D01*
X231600Y217400D01*
X231200D01*
X231600Y217000D01*
X231200Y216600D01*
X231600D01*
X232000Y216200D01*
Y216600D02*
X232200Y216800D01*
X232400D01*
X232200Y217000D01*
X232400Y217200D01*
X232200D01*
X232000Y217400D01*
X231800Y217200D01*
X231600D01*
X231800Y217000D01*
X231600Y216800D01*
X231800D01*
X232000Y216600D01*
X226500Y216200D02*
X226900Y216600D01*
X227300D01*
X226900Y217000D01*
X227300Y217400D01*
X226900D01*
X226500Y217800D01*
X226100Y217400D01*
X225700D01*
X226100Y217000D01*
X225700Y216600D01*
X226100D01*
X226500Y216200D01*
Y216600D02*
X226700Y216800D01*
X226900D01*
X226700Y217000D01*
X226900Y217200D01*
X226700D01*
X226500Y217400D01*
X226300Y217200D01*
X226100D01*
X226300Y217000D01*
X226100Y216800D01*
X226300D01*
X226500Y216600D01*
X270342Y143643D02*
X270743Y144043D01*
X271143D01*
X270743Y144443D01*
X271143Y144843D01*
X270743D01*
X270342Y145243D01*
X269942Y144843D01*
X269543D01*
X269942Y144443D01*
X269543Y144043D01*
X269942D01*
X270342Y143643D01*
Y144043D02*
X270543Y144243D01*
X270743D01*
X270543Y144443D01*
X270743Y144643D01*
X270543D01*
X270342Y144843D01*
X270143Y144643D01*
X269942D01*
X270143Y144443D01*
X269942Y144243D01*
X270143D01*
X270342Y144043D01*
X250500Y216200D02*
X250900Y216600D01*
X251300D01*
X250900Y217000D01*
X251300Y217400D01*
X250900D01*
X250500Y217800D01*
X250100Y217400D01*
X249700D01*
X250100Y217000D01*
X249700Y216600D01*
X250100D01*
X250500Y216200D01*
Y216600D02*
X250700Y216800D01*
X250900D01*
X250700Y217000D01*
X250900Y217200D01*
X250700D01*
X250500Y217400D01*
X250300Y217200D01*
X250100D01*
X250300Y217000D01*
X250100Y216800D01*
X250300D01*
X250500Y216600D01*
X246000Y216200D02*
X246400Y216600D01*
X246800D01*
X246400Y217000D01*
X246800Y217400D01*
X246400D01*
X246000Y217800D01*
X245600Y217400D01*
X245200D01*
X245600Y217000D01*
X245200Y216600D01*
X245600D01*
X246000Y216200D01*
Y216600D02*
X246200Y216800D01*
X246400D01*
X246200Y217000D01*
X246400Y217200D01*
X246200D01*
X246000Y217400D01*
X245800Y217200D01*
X245600D01*
X245800Y217000D01*
X245600Y216800D01*
X245800D01*
X246000Y216600D01*
X241500Y216200D02*
X241900Y216600D01*
X242300D01*
X241900Y217000D01*
X242300Y217400D01*
X241900D01*
X241500Y217800D01*
X241100Y217400D01*
X240700D01*
X241100Y217000D01*
X240700Y216600D01*
X241100D01*
X241500Y216200D01*
Y216600D02*
X241700Y216800D01*
X241900D01*
X241700Y217000D01*
X241900Y217200D01*
X241700D01*
X241500Y217400D01*
X241300Y217200D01*
X241100D01*
X241300Y217000D01*
X241100Y216800D01*
X241300D01*
X241500Y216600D01*
X237000Y216200D02*
X237400Y216600D01*
X237800D01*
X237400Y217000D01*
X237800Y217400D01*
X237400D01*
X237000Y217800D01*
X236600Y217400D01*
X236200D01*
X236600Y217000D01*
X236200Y216600D01*
X236600D01*
X237000Y216200D01*
Y216600D02*
X237200Y216800D01*
X237400D01*
X237200Y217000D01*
X237400Y217200D01*
X237200D01*
X237000Y217400D01*
X236800Y217200D01*
X236600D01*
X236800Y217000D01*
X236600Y216800D01*
X236800D01*
X237000Y216600D01*
X298000Y87200D02*
X298400Y87600D01*
X298800D01*
X298400Y88000D01*
X298800Y88400D01*
X298400D01*
X298000Y88800D01*
X297600Y88400D01*
X297200D01*
X297600Y88000D01*
X297200Y87600D01*
X297600D01*
X298000Y87200D01*
Y87600D02*
X298200Y87800D01*
X298400D01*
X298200Y88000D01*
X298400Y88200D01*
X298200D01*
X298000Y88400D01*
X297800Y88200D01*
X297600D01*
X297800Y88000D01*
X297600Y87800D01*
X297800D01*
X298000Y87600D01*
X209000Y242200D02*
X209400Y242600D01*
X209800D01*
X209400Y243000D01*
X209800Y243400D01*
X209400D01*
X209000Y243800D01*
X208600Y243400D01*
X208200D01*
X208600Y243000D01*
X208200Y242600D01*
X208600D01*
X209000Y242200D01*
Y242600D02*
X209200Y242800D01*
X209400D01*
X209200Y243000D01*
X209400Y243200D01*
X209200D01*
X209000Y243400D01*
X208800Y243200D01*
X208600D01*
X208800Y243000D01*
X208600Y242800D01*
X208800D01*
X209000Y242600D01*
X232663Y312863D02*
X231863Y314463D01*
X233463D01*
X232663Y312863D01*
Y313263D02*
X232263Y314063D01*
X233063D01*
X232663Y313263D01*
X181000Y304200D02*
X180200Y305800D01*
X181800D01*
X181000Y304200D01*
Y304600D02*
X180600Y305400D01*
X181400D01*
X181000Y304600D01*
X218500Y286700D02*
X218900Y287100D01*
X219300D01*
X218900Y287500D01*
X219300Y287900D01*
X218900D01*
X218500Y288300D01*
X218100Y287900D01*
X217700D01*
X218100Y287500D01*
X217700Y287100D01*
X218100D01*
X218500Y286700D01*
Y287100D02*
X218700Y287300D01*
X218900D01*
X218700Y287500D01*
X218900Y287700D01*
X218700D01*
X218500Y287900D01*
X218300Y287700D01*
X218100D01*
X218300Y287500D01*
X218100Y287300D01*
X218300D01*
X218500Y287100D01*
X293000Y290700D02*
X292200Y292300D01*
X293800D01*
X293000Y290700D01*
Y291100D02*
X292600Y291900D01*
X293400D01*
X293000Y291100D01*
X197661Y320539D02*
X196861Y322139D01*
X198461D01*
X197661Y320539D01*
Y320939D02*
X197261Y321739D01*
X198061D01*
X197661Y320939D01*
X232663Y320537D02*
X231863Y322137D01*
X233463D01*
X232663Y320537D01*
Y320937D02*
X232263Y321737D01*
X233063D01*
X232663Y320937D01*
X197500Y328200D02*
X196700Y329800D01*
X198300D01*
X197500Y328200D01*
Y328600D02*
X197100Y329400D01*
X197900D01*
X197500Y328600D01*
D86*
X101300Y203500D02*
G03*
X101300Y203500I-800J0D01*
G01*
X366942Y15748D02*
G03*
X366942Y15748I-800J0D01*
G01*
Y377953D02*
G03*
X366942Y377953I-800J0D01*
G01*
X14595Y380165D02*
G03*
X14595Y380165I-800J0D01*
G01*
Y325835D02*
G03*
X14595Y325835I-800J0D01*
G01*
D87*
X14195Y380165D02*
G03*
X14195Y380165I-400J0D01*
G01*
Y325835D02*
G03*
X14195Y325835I-400J0D01*
G01*
M02*
