G04*
G04 #@! TF.GenerationSoftware,Altium Limited,Altium Designer,21.0.9 (235)*
G04*
G04 Layer_Color=8388736*
%FSLAX25Y25*%
%MOIN*%
G70*
G04*
G04 #@! TF.SameCoordinates,91F4C2CD-C4D8-4C02-87E3-D191CECDD99B*
G04*
G04*
G04 #@! TF.FilePolarity,Negative*
G04*
G01*
G75*
%ADD32R,0.03937X0.04331*%
%ADD33R,0.05315X0.05315*%
%ADD34R,0.05906X0.02165*%
%ADD35R,0.06890X0.08858*%
%ADD36R,0.08071X0.07677*%
%ADD37R,0.08071X0.08071*%
%ADD38R,0.13189X0.06890*%
%ADD39R,0.04134X0.04528*%
%ADD40R,0.20669X0.12992*%
%ADD41O,0.13386X0.06496*%
%ADD42R,0.04331X0.03937*%
%ADD43R,0.04528X0.04134*%
%ADD44R,0.05709X0.07677*%
%ADD45R,0.12795X0.10039*%
%ADD46R,0.03150X0.06594*%
%ADD47R,0.03150X0.06496*%
%ADD48R,0.06398X0.02362*%
%ADD49R,0.10236X0.12992*%
%ADD50C,0.09153*%
%ADD51R,0.09153X0.09153*%
%ADD52C,0.24213*%
%ADD53R,0.04921X0.04921*%
%ADD54C,0.06594*%
%ADD55C,0.11516*%
%ADD56C,0.10925*%
%ADD57C,0.17894*%
%ADD58C,0.08858*%
%ADD59O,0.16339X0.11614*%
%ADD60O,0.19488X0.11614*%
%ADD61C,0.02362*%
%ADD62C,0.02953*%
%ADD63C,0.03740*%
%ADD64C,0.03347*%
D32*
X56559Y15000D02*
D03*
X51441D02*
D03*
X216441Y61500D02*
D03*
X221559D02*
D03*
X174059Y313500D02*
D03*
X168941D02*
D03*
D33*
X287500Y301134D02*
D03*
Y292866D02*
D03*
D34*
X369172Y49957D02*
D03*
Y52517D02*
D03*
Y55076D02*
D03*
Y57635D02*
D03*
Y60194D02*
D03*
D35*
X369665Y42871D02*
D03*
Y67280D02*
D03*
D36*
X379700Y40115D02*
D03*
Y70036D02*
D03*
D37*
Y50351D02*
D03*
Y59800D02*
D03*
D38*
X264595Y196363D02*
D03*
X284279D02*
D03*
D39*
X266843Y215500D02*
D03*
X272158D02*
D03*
X270342Y136500D02*
D03*
X275658D02*
D03*
X218843Y282000D02*
D03*
X224158D02*
D03*
X219342Y243000D02*
D03*
X224658D02*
D03*
X203842Y282000D02*
D03*
X209157D02*
D03*
D40*
X226000Y196079D02*
D03*
Y155921D02*
D03*
D41*
X49937Y356937D02*
D03*
Y349063D02*
D03*
Y366779D02*
D03*
Y339220D02*
D03*
D42*
X289437Y77941D02*
D03*
Y83059D02*
D03*
X298000Y83059D02*
D03*
Y77941D02*
D03*
X160500Y314059D02*
D03*
Y308941D02*
D03*
X146500Y316059D02*
D03*
Y310941D02*
D03*
D43*
X255000Y103342D02*
D03*
Y108658D02*
D03*
X193500Y305157D02*
D03*
Y299843D02*
D03*
X186000Y305157D02*
D03*
Y299843D02*
D03*
D44*
X281709Y125500D02*
D03*
X270291D02*
D03*
X281709Y115000D02*
D03*
X270291D02*
D03*
D45*
X271937Y93189D02*
D03*
D46*
X264437Y103866D02*
D03*
X269437D02*
D03*
X274437D02*
D03*
X279437D02*
D03*
Y82512D02*
D03*
X274437D02*
D03*
X269437D02*
D03*
X264437D02*
D03*
D47*
X219000Y250870D02*
D03*
X214000D02*
D03*
X209000D02*
D03*
X204000D02*
D03*
Y272130D02*
D03*
X209000D02*
D03*
X214000D02*
D03*
X219000D02*
D03*
D48*
X202933Y305984D02*
D03*
Y308543D02*
D03*
Y311102D02*
D03*
Y313661D02*
D03*
Y316220D02*
D03*
Y318779D02*
D03*
Y321339D02*
D03*
Y323898D02*
D03*
Y326457D02*
D03*
Y329016D02*
D03*
X226067D02*
D03*
Y326457D02*
D03*
Y323898D02*
D03*
Y321339D02*
D03*
Y318779D02*
D03*
Y316220D02*
D03*
Y313661D02*
D03*
Y311102D02*
D03*
Y308543D02*
D03*
Y305984D02*
D03*
D49*
X264158Y161000D02*
D03*
X288567D02*
D03*
D50*
X236000Y39500D02*
D03*
Y17846D02*
D03*
X252535Y39500D02*
D03*
X186500Y39154D02*
D03*
Y17500D02*
D03*
X203035Y39154D02*
D03*
X138965Y38653D02*
D03*
Y17000D02*
D03*
X155500Y38653D02*
D03*
X91500D02*
D03*
Y17000D02*
D03*
X108035Y38653D02*
D03*
X301500D02*
D03*
Y17000D02*
D03*
X99500Y358000D02*
D03*
Y379654D02*
D03*
X82965Y358000D02*
D03*
X148000Y358347D02*
D03*
Y380000D02*
D03*
X131465Y358347D02*
D03*
X196500Y358500D02*
D03*
Y380153D02*
D03*
X179965Y358500D02*
D03*
X246500D02*
D03*
Y380153D02*
D03*
X229965Y358500D02*
D03*
X297035Y359000D02*
D03*
Y380654D02*
D03*
X280500Y359000D02*
D03*
D51*
X252535Y17846D02*
D03*
X203035Y17500D02*
D03*
X155500Y17000D02*
D03*
X108035D02*
D03*
X82965Y379654D02*
D03*
X131465Y380000D02*
D03*
X179965Y380153D02*
D03*
X229965D02*
D03*
X280500Y380654D02*
D03*
D52*
X100500Y203500D02*
D03*
X366142Y15748D02*
D03*
Y377953D02*
D03*
D53*
X241500Y282000D02*
D03*
X291000Y138000D02*
D03*
X183000Y216000D02*
D03*
X339500Y17000D02*
D03*
X108000Y309500D02*
D03*
X165000Y102500D02*
D03*
X340000Y38000D02*
D03*
D54*
X320004Y36843D02*
D03*
X282996D02*
D03*
X9106Y198823D02*
D03*
Y298035D02*
D03*
X8563Y41749D02*
D03*
Y157497D02*
D03*
D55*
X37846Y198823D02*
D03*
Y215358D02*
D03*
Y231894D02*
D03*
Y248429D02*
D03*
Y264965D02*
D03*
Y281500D02*
D03*
Y298035D02*
D03*
X59500Y198823D02*
D03*
Y215358D02*
D03*
Y231894D02*
D03*
Y248429D02*
D03*
Y264965D02*
D03*
Y281500D02*
D03*
Y298035D02*
D03*
X58957Y157497D02*
D03*
Y140961D02*
D03*
Y124426D02*
D03*
Y107890D02*
D03*
Y91355D02*
D03*
Y74819D02*
D03*
Y58284D02*
D03*
Y41749D02*
D03*
X37303Y157497D02*
D03*
Y140961D02*
D03*
Y124426D02*
D03*
Y107890D02*
D03*
Y91355D02*
D03*
Y74819D02*
D03*
Y58284D02*
D03*
Y41749D02*
D03*
D56*
X329252Y160138D02*
D03*
Y175886D02*
D03*
Y191634D02*
D03*
Y207382D02*
D03*
Y223130D02*
D03*
Y238878D02*
D03*
Y254626D02*
D03*
Y270374D02*
D03*
X345000Y168012D02*
D03*
Y183760D02*
D03*
Y199508D02*
D03*
Y215256D02*
D03*
Y231004D02*
D03*
Y246752D02*
D03*
Y262500D02*
D03*
X360748Y160138D02*
D03*
Y175886D02*
D03*
Y191634D02*
D03*
Y207382D02*
D03*
Y223130D02*
D03*
Y238878D02*
D03*
Y254626D02*
D03*
Y270374D02*
D03*
D57*
X346969Y134547D02*
D03*
Y295965D02*
D03*
D58*
X126537Y161500D02*
D03*
Y144965D02*
D03*
Y128429D02*
D03*
Y111894D02*
D03*
Y95358D02*
D03*
X104884Y161500D02*
D03*
Y144965D02*
D03*
Y128429D02*
D03*
Y111894D02*
D03*
Y95358D02*
D03*
D59*
X41000Y378394D02*
D03*
Y327606D02*
D03*
D60*
X13795Y380165D02*
D03*
Y325835D02*
D03*
D61*
X146074Y322426D02*
D03*
X195969Y310961D02*
D03*
X153061Y310939D02*
D03*
X232000Y217000D02*
D03*
X226500D02*
D03*
X250500D02*
D03*
X246000D02*
D03*
X241500D02*
D03*
X237000D02*
D03*
X298000Y88000D02*
D03*
X209000Y243000D02*
D03*
X232663Y313663D02*
D03*
X181000Y305000D02*
D03*
X218500Y287500D02*
D03*
X293000Y291500D02*
D03*
X197661Y321339D02*
D03*
X232663Y321337D02*
D03*
X197500Y329000D02*
D03*
D62*
X359293Y50106D02*
D03*
D63*
X61500Y367500D02*
D03*
D64*
X270342Y144443D02*
D03*
M02*
