G04*
G04 #@! TF.GenerationSoftware,Altium Limited,Altium Designer,21.0.9 (235)*
G04*
G04 Layer_Color=128*
%FSLAX25Y25*%
%MOIN*%
G70*
G04*
G04 #@! TF.SameCoordinates,7D8DD78A-8103-400F-A0AB-957E78C66F27*
G04*
G04*
G04 #@! TF.FilePolarity,Positive*
G04*
G01*
G75*
%ADD85C,0.00200*%
D85*
X37358Y42394D02*
X44642D01*
X41000Y38752D02*
Y46035D01*
X37358Y58929D02*
X44642D01*
X41000Y55287D02*
Y62571D01*
X37358Y75465D02*
X44642D01*
X41000Y71823D02*
Y79106D01*
X37358Y92000D02*
X44642D01*
X41000Y88358D02*
Y95642D01*
X37358Y108535D02*
X44642D01*
X41000Y104894D02*
Y112177D01*
X37358Y125071D02*
X44642D01*
X41000Y121429D02*
Y128713D01*
X37358Y141606D02*
X44642D01*
X41000Y137965D02*
Y145248D01*
X37358Y158142D02*
X44642D01*
X41000Y154500D02*
Y161784D01*
X59012Y42394D02*
X66295D01*
X62653Y38752D02*
Y46035D01*
X59012Y58929D02*
X66295D01*
X62653Y55287D02*
Y62571D01*
X59012Y75465D02*
X66295D01*
X62653Y71823D02*
Y79106D01*
X59012Y92000D02*
X66295D01*
X62653Y88358D02*
Y95642D01*
X59012Y108535D02*
X66295D01*
X62653Y104894D02*
Y112177D01*
X59012Y125071D02*
X66295D01*
X62653Y121429D02*
Y128713D01*
X59012Y141606D02*
X66295D01*
X62653Y137965D02*
Y145248D01*
X59012Y158142D02*
X66295D01*
X62653Y154500D02*
Y161784D01*
X6256Y158142D02*
X18264D01*
X12260Y152138D02*
Y164146D01*
X6256Y42394D02*
X18264D01*
X12260Y36390D02*
Y48398D01*
X22118Y329071D02*
X31173D01*
X26646Y324543D02*
Y333598D01*
X22118Y380803D02*
X31173D01*
X26646Y376276D02*
Y385331D01*
X4756Y298106D02*
X16764D01*
X10760Y292102D02*
Y304110D01*
X4756Y198894D02*
X16764D01*
X10760Y192890D02*
Y204898D01*
X57512Y298106D02*
X64795D01*
X61154Y294465D02*
Y301748D01*
X57512Y281571D02*
X64795D01*
X61154Y277929D02*
Y285213D01*
X57512Y265035D02*
X64795D01*
X61154Y261394D02*
Y268677D01*
X57512Y248500D02*
X64795D01*
X61154Y244858D02*
Y252142D01*
X57512Y231965D02*
X64795D01*
X61154Y228323D02*
Y235606D01*
X57512Y215429D02*
X64795D01*
X61154Y211787D02*
Y219071D01*
X57512Y198894D02*
X64795D01*
X61154Y195252D02*
Y202535D01*
X35858Y298106D02*
X43142D01*
X39500Y294465D02*
Y301748D01*
X35858Y281571D02*
X43142D01*
X39500Y277929D02*
Y285213D01*
X35858Y265035D02*
X43142D01*
X39500Y261394D02*
Y268677D01*
X35858Y248500D02*
X43142D01*
X39500Y244858D02*
Y252142D01*
X35858Y231965D02*
X43142D01*
X39500Y228323D02*
Y235606D01*
X35858Y215429D02*
X43142D01*
X39500Y211787D02*
Y219071D01*
X35858Y198894D02*
X43142D01*
X39500Y195252D02*
Y202535D01*
X281646Y17000D02*
X287354D01*
X284500Y14146D02*
Y19854D01*
X281646Y38653D02*
X287354D01*
X284500Y35799D02*
Y41508D01*
X312646Y17000D02*
X318354D01*
X315500Y14146D02*
Y19854D01*
X312646Y38653D02*
X318354D01*
X315500Y35799D02*
Y41508D01*
X277146Y379153D02*
X282854D01*
X280000Y376299D02*
Y382008D01*
X277146Y357500D02*
X282854D01*
X280000Y354646D02*
Y360354D01*
X293681Y379153D02*
X299390D01*
X296535Y376299D02*
Y382008D01*
X293681Y357500D02*
X299390D01*
X296535Y354646D02*
Y360354D01*
X177146Y379153D02*
X182854D01*
X180000Y376299D02*
Y382008D01*
X177146Y357500D02*
X182854D01*
X180000Y354646D02*
Y360354D01*
X193681Y379153D02*
X199390D01*
X196535Y376299D02*
Y382008D01*
X193681Y357500D02*
X199390D01*
X196535Y354646D02*
Y360354D01*
X226646Y379153D02*
X232354D01*
X229500Y376299D02*
Y382008D01*
X226646Y357500D02*
X232354D01*
X229500Y354646D02*
Y360354D01*
X243181Y379153D02*
X248890D01*
X246035Y376299D02*
Y382008D01*
X243181Y357500D02*
X248890D01*
X246035Y354646D02*
Y360354D01*
X128646Y379000D02*
X134354D01*
X131500Y376146D02*
Y381854D01*
X128646Y357347D02*
X134354D01*
X131500Y354492D02*
Y360201D01*
X145181Y379000D02*
X150890D01*
X148035Y376146D02*
Y381854D01*
X145181Y357347D02*
X150890D01*
X148035Y354492D02*
Y360201D01*
X249681Y17846D02*
X255390D01*
X252535Y14992D02*
Y20701D01*
X249681Y39500D02*
X255390D01*
X252535Y36646D02*
Y42354D01*
X233146Y17846D02*
X238854D01*
X236000Y14992D02*
Y20701D01*
X233146Y39500D02*
X238854D01*
X236000Y36646D02*
Y42354D01*
X200181Y17500D02*
X205890D01*
X203035Y14646D02*
Y20354D01*
X200181Y39154D02*
X205890D01*
X203035Y36299D02*
Y42008D01*
X183646Y17500D02*
X189354D01*
X186500Y14646D02*
Y20354D01*
X183646Y39154D02*
X189354D01*
X186500Y36299D02*
Y42008D01*
X152646Y17000D02*
X158354D01*
X155500Y14146D02*
Y19854D01*
X152646Y38653D02*
X158354D01*
X155500Y35799D02*
Y41508D01*
X136110Y17000D02*
X141819D01*
X138965Y14146D02*
Y19854D01*
X136110Y38653D02*
X141819D01*
X138965Y35799D02*
Y41508D01*
X105181Y17000D02*
X110890D01*
X108035Y14146D02*
Y19854D01*
X105181Y38653D02*
X110890D01*
X108035Y35799D02*
Y41508D01*
X88646Y17000D02*
X94354D01*
X91500Y14146D02*
Y19854D01*
X88646Y38653D02*
X94354D01*
X91500Y35799D02*
Y41508D01*
X80744Y379020D02*
X86453D01*
X83598Y376165D02*
Y381874D01*
X80744Y357366D02*
X86453D01*
X83598Y354512D02*
Y360221D01*
X97280Y379020D02*
X102988D01*
X100134Y376165D02*
Y381874D01*
X97280Y357366D02*
X102988D01*
X100134Y354512D02*
Y360221D01*
X181622Y216000D02*
X184378D01*
X183000Y214622D02*
Y217378D01*
X151122Y275000D02*
X153878D01*
X152500Y273622D02*
Y276378D01*
X338122Y17000D02*
X340878D01*
X339500Y15622D02*
Y18378D01*
X246622Y297000D02*
X249378D01*
X248000Y295622D02*
Y298378D01*
X289622Y138000D02*
X292378D01*
X291000Y136622D02*
Y139378D01*
X339122Y42500D02*
X341878D01*
X340500Y41122D02*
Y43878D01*
X163622Y102500D02*
X166378D01*
X165000Y101122D02*
Y103878D01*
X102128Y95358D02*
X107639D01*
X104884Y92602D02*
Y98114D01*
X102128Y111894D02*
X107639D01*
X104884Y109138D02*
Y114650D01*
X102128Y128429D02*
X107639D01*
X104884Y125673D02*
Y131185D01*
X102128Y144965D02*
X107639D01*
X104884Y142209D02*
Y147721D01*
X102128Y161500D02*
X107639D01*
X104884Y158744D02*
Y164256D01*
X123781Y95358D02*
X129293D01*
X126537Y92602D02*
Y98114D01*
X123781Y111894D02*
X129293D01*
X126537Y109138D02*
Y114650D01*
X123781Y128429D02*
X129293D01*
X126537Y125673D02*
Y131185D01*
X123781Y144965D02*
X129293D01*
X126537Y142209D02*
Y147721D01*
X123781Y161500D02*
X129293D01*
X126537Y158744D02*
Y164256D01*
X341201Y295965D02*
X352736D01*
X346969Y290197D02*
Y301732D01*
X341201Y134547D02*
X352736D01*
X346969Y128779D02*
Y140315D01*
X357303Y270374D02*
X364193D01*
X360748Y266929D02*
Y273819D01*
X357303Y254626D02*
X364193D01*
X360748Y251181D02*
Y258071D01*
X357303Y238878D02*
X364193D01*
X360748Y235433D02*
Y242323D01*
X357303Y223130D02*
X364193D01*
X360748Y219685D02*
Y226575D01*
X357303Y207382D02*
X364193D01*
X360748Y203937D02*
Y210827D01*
X357303Y191634D02*
X364193D01*
X360748Y188189D02*
Y195079D01*
X357303Y175886D02*
X364193D01*
X360748Y172441D02*
Y179331D01*
X357303Y160138D02*
X364193D01*
X360748Y156693D02*
Y163583D01*
X341555Y262500D02*
X348445D01*
X345000Y259055D02*
Y265945D01*
X341555Y246752D02*
X348445D01*
X345000Y243307D02*
Y250197D01*
X341555Y231004D02*
X348445D01*
X345000Y227559D02*
Y234449D01*
X341555Y215256D02*
X348445D01*
X345000Y211811D02*
Y218701D01*
X341555Y199508D02*
X348445D01*
X345000Y196063D02*
Y202953D01*
X341555Y183760D02*
X348445D01*
X345000Y180315D02*
Y187205D01*
X341555Y168012D02*
X348445D01*
X345000Y164567D02*
Y171457D01*
X325807Y270374D02*
X332697D01*
X329252Y266929D02*
Y273819D01*
X325807Y254626D02*
X332697D01*
X329252Y251181D02*
Y258071D01*
X325807Y238878D02*
X332697D01*
X329252Y235433D02*
Y242323D01*
X325807Y223130D02*
X332697D01*
X329252Y219685D02*
Y226575D01*
X325807Y207382D02*
X332697D01*
X329252Y203937D02*
Y210827D01*
X325807Y191634D02*
X332697D01*
X329252Y188189D02*
Y195079D01*
X325807Y175886D02*
X332697D01*
X329252Y172441D02*
Y179331D01*
X325807Y160138D02*
X332697D01*
X329252Y156693D02*
Y163583D01*
X93807Y203500D02*
X107193D01*
X100500Y196807D02*
Y210193D01*
X356807Y19000D02*
X370193D01*
X363500Y12307D02*
Y25693D01*
X344307Y371000D02*
X357693D01*
X351000Y364307D02*
Y377693D01*
X60055Y368437D02*
X61039D01*
X60547Y367945D02*
Y368929D01*
X350153Y50106D02*
X351138D01*
X350646Y49614D02*
Y50598D01*
X267008Y91000D02*
X267992D01*
X267500Y90508D02*
Y91492D01*
X271508Y91000D02*
X272492D01*
X272000Y90508D02*
Y91492D01*
X275299Y91012D02*
X276284D01*
X275791Y90520D02*
Y91504D01*
X267008Y96000D02*
X267992D01*
X267500Y95508D02*
Y96492D01*
X271508Y96000D02*
X272492D01*
X272000Y95508D02*
Y96492D01*
X275508Y96000D02*
X276492D01*
X276000Y95508D02*
Y96492D01*
X195477Y310961D02*
X196461D01*
X195969Y310469D02*
Y311453D01*
X268508Y272500D02*
X269492D01*
X269000Y272008D02*
Y272992D01*
X155008Y322000D02*
X155992D01*
X155500Y321508D02*
Y322492D01*
X250508Y217000D02*
X251492D01*
X251000Y216508D02*
Y217492D01*
X245508Y217000D02*
X246492D01*
X246000Y216508D02*
Y217492D01*
X240508Y217000D02*
X241492D01*
X241000Y216508D02*
Y217492D01*
X235508Y217000D02*
X236492D01*
X236000Y216508D02*
Y217492D01*
X208508Y243000D02*
X209492D01*
X209000Y242508D02*
Y243492D01*
X230508Y217000D02*
X231492D01*
X231000Y216508D02*
Y217492D01*
X225860Y216852D02*
X226845D01*
X226353Y216360D02*
Y217345D01*
X141082Y322426D02*
X142066D01*
X141574Y321934D02*
Y322918D01*
X148069Y310939D02*
X149054D01*
X148561Y310447D02*
Y311431D01*
X269850Y144443D02*
X270835D01*
X270342Y143951D02*
Y144935D01*
X297508Y88000D02*
X298492D01*
X298000Y87508D02*
Y88492D01*
X232171Y313663D02*
X233155D01*
X232663Y313171D02*
Y314155D01*
X180508Y305000D02*
X181492D01*
X181000Y304508D02*
Y305492D01*
X218008Y287500D02*
X218992D01*
X218500Y287008D02*
Y287992D01*
X197169Y321339D02*
X198153D01*
X197661Y320847D02*
Y321831D01*
X232171Y321337D02*
X233155D01*
X232663Y320845D02*
Y321829D01*
X197008Y329000D02*
X197992D01*
X197500Y328508D02*
Y329492D01*
M02*
