M48
;Layer_Color=9474304
;FILE_FORMAT=2:5
INCH,TZ
;TYPE=PLATED
T1F00S00C0.00984
T2F00S00C0.02756
T3F00S00C0.05512
T4F00S00C0.05709
T5F00S00C0.06890
T6F00S00C0.07283
T7F00S00C0.09055
T8F00S00C0.11535
;TYPE=NON_PLATED
T9F00S00C0.12008
T10F00S00C0.13386
T11F00S00C0.13386
%
T01
X350646Y50106
X298000Y88000
X275791Y91012
X272000Y91000
X267500
Y96000
X272000
X276000
X270342Y144443
X209000Y243000
X195969Y310961
X197661Y321339
X197500Y329000
X181000Y305000
X148561Y310939
X155500Y322000
X141574Y322426
X60547Y368437
X232663Y321337
X232663Y313663
X218500Y287500
X269000Y272500
X251000Y217000
X246000
X241000
X236000
X231000
X226353Y216852
T02
X339500Y17000
X340500Y42500
X291000Y138000
X165000Y102500
X183000Y216000
X152500Y275000
X248000Y297000
T03
X104884Y95358
Y111894
Y128429
Y144965
Y161500
X126537
Y144965
Y128429
Y111894
Y95358
T04
X91500Y17000
X108035
Y38653
X91500
X138965
X155500
Y17000
X138965
X186500Y17500
X203035
Y39154
X186500
X236000Y39500
X252535
Y17846
X236000
X284500Y17000
Y38653
X315500
Y17000
X196535Y357500
X180000
X148035Y357347
X131500
X100134Y357366
X83598
X229500Y357500
X246035
X280000
X296535
Y379153
X280000
X246035
X229500
X196535
X180000
X148035Y379000
X131500
X100134Y379020
X83598
T05
X329252Y160138
Y175886
Y191634
Y207382
X345000Y199508
Y183760
Y168012
X360748Y175886
Y191634
Y207382
Y160138
Y223130
Y238878
Y254626
Y270374
X345000Y262500
Y246752
Y231004
Y215256
X329252Y223130
Y238878
Y254626
Y270374
T06
X41000Y42394
X62653
Y58929
Y75465
Y92000
Y108535
Y125071
Y141606
Y158142
X61154Y198894
X39500
X41000Y158142
Y141606
Y125071
Y108535
Y92000
Y75465
Y58929
X39500Y215429
Y231965
Y248500
Y265035
Y281571
Y298106
X61154
Y281571
Y265035
Y248500
Y231965
Y215429
T07
X26646Y329071
Y380803
T08
X346969Y134547
Y295965
T09
X12260Y42394
Y158142
X10760Y198894
Y298106
T10
X351000Y371000
T11
X363500Y19000
X100500Y203500
M30
