G04*
G04 #@! TF.GenerationSoftware,Altium Limited,Altium Designer,21.0.9 (235)*
G04*
G04 Layer_Color=2752767*
%FSLAX25Y25*%
%MOIN*%
G70*
G04*
G04 #@! TF.SameCoordinates,BA8C7152-59F1-4345-8518-0593712C2385*
G04*
G04*
G04 #@! TF.FilePolarity,Positive*
G04*
G01*
G75*
%ADD86C,0.00200*%
%ADD87C,0.00267*%
%ADD88C,0.00133*%
D86*
X283700Y16200D02*
Y17800D01*
X285300D01*
Y16200D01*
X283700D01*
Y37854D02*
Y39454D01*
X285300D01*
Y37854D01*
X283700D01*
X314700Y16200D02*
Y17800D01*
X316300D01*
Y16200D01*
X314700D01*
Y37854D02*
Y39454D01*
X316300D01*
Y37854D01*
X314700D01*
X279700Y379854D02*
Y381453D01*
X281300D01*
Y379854D01*
X279700D01*
Y358200D02*
Y359800D01*
X281300D01*
Y358200D01*
X279700D01*
X296235Y379854D02*
Y381453D01*
X297835D01*
Y379854D01*
X296235D01*
Y358200D02*
Y359800D01*
X297835D01*
Y358200D01*
X296235D01*
X179165Y379353D02*
Y380954D01*
X180765D01*
Y379353D01*
X179165D01*
Y357700D02*
Y359300D01*
X180765D01*
Y357700D01*
X179165D01*
X195700Y379353D02*
Y380954D01*
X197300D01*
Y379353D01*
X195700D01*
Y357700D02*
Y359300D01*
X197300D01*
Y357700D01*
X195700D01*
X229165Y379353D02*
Y380954D01*
X230765D01*
Y379353D01*
X229165D01*
Y357700D02*
Y359300D01*
X230765D01*
Y357700D01*
X229165D01*
X245700Y379353D02*
Y380954D01*
X247300D01*
Y379353D01*
X245700D01*
Y357700D02*
Y359300D01*
X247300D01*
Y357700D01*
X245700D01*
X130665Y379200D02*
Y380800D01*
X132265D01*
Y379200D01*
X130665D01*
Y357546D02*
Y359146D01*
X132265D01*
Y357546D01*
X130665D01*
X147200Y379200D02*
Y380800D01*
X148800D01*
Y379200D01*
X147200D01*
Y357546D02*
Y359146D01*
X148800D01*
Y357546D01*
X147200D01*
X251735Y17047D02*
Y18646D01*
X253335D01*
Y17047D01*
X251735D01*
Y38700D02*
Y40300D01*
X253335D01*
Y38700D01*
X251735D01*
X235200Y17047D02*
Y18646D01*
X236800D01*
Y17047D01*
X235200D01*
Y38700D02*
Y40300D01*
X236800D01*
Y38700D01*
X235200D01*
X202235Y16700D02*
Y18300D01*
X203835D01*
Y16700D01*
X202235D01*
Y38353D02*
Y39954D01*
X203835D01*
Y38353D01*
X202235D01*
X185700Y16700D02*
Y18300D01*
X187300D01*
Y16700D01*
X185700D01*
Y38353D02*
Y39954D01*
X187300D01*
Y38353D01*
X185700D01*
X154700Y16200D02*
Y17800D01*
X156300D01*
Y16200D01*
X154700D01*
Y37854D02*
Y39454D01*
X156300D01*
Y37854D01*
X154700D01*
X138165Y16200D02*
Y17800D01*
X139765D01*
Y16200D01*
X138165D01*
Y37854D02*
Y39454D01*
X139765D01*
Y37854D01*
X138165D01*
X107235Y16200D02*
Y17800D01*
X108835D01*
Y16200D01*
X107235D01*
Y37854D02*
Y39454D01*
X108835D01*
Y37854D01*
X107235D01*
X90700Y16200D02*
Y17800D01*
X92300D01*
Y16200D01*
X90700D01*
Y37854D02*
Y39454D01*
X92300D01*
Y37854D01*
X90700D01*
X82165Y378854D02*
Y380453D01*
X83765D01*
Y378854D01*
X82165D01*
Y357200D02*
Y358800D01*
X83765D01*
Y357200D01*
X82165D01*
X98700Y378854D02*
Y380453D01*
X100300D01*
Y378854D01*
X98700D01*
Y357200D02*
Y358800D01*
X100300D01*
Y357200D01*
X98700D01*
X104884Y94558D02*
X104084Y96158D01*
X105684D01*
X104884Y94558D01*
Y111094D02*
X104084Y112694D01*
X105684D01*
X104884Y111094D01*
Y127629D02*
X104084Y129229D01*
X105684D01*
X104884Y127629D01*
Y144165D02*
X104084Y145765D01*
X105684D01*
X104884Y144165D01*
Y160700D02*
X104084Y162300D01*
X105684D01*
X104884Y160700D01*
X126537Y94558D02*
X125737Y96158D01*
X127337D01*
X126537Y94558D01*
Y111094D02*
X125737Y112694D01*
X127337D01*
X126537Y111094D01*
Y127629D02*
X125737Y129229D01*
X127337D01*
X126537Y127629D01*
Y144165D02*
X125737Y145765D01*
X127337D01*
X126537Y144165D01*
Y160700D02*
X125737Y162300D01*
X127337D01*
X126537Y160700D01*
X40000Y41023D02*
X40400Y41423D01*
X40800D01*
X40400Y41823D01*
X40800Y42223D01*
X40400D01*
X40000Y42623D01*
X39600Y42223D01*
X39200D01*
X39600Y41823D01*
X39200Y41423D01*
X39600D01*
X40000Y41023D01*
Y57558D02*
X40400Y57958D01*
X40800D01*
X40400Y58358D01*
X40800Y58758D01*
X40400D01*
X40000Y59158D01*
X39600Y58758D01*
X39200D01*
X39600Y58358D01*
X39200Y57958D01*
X39600D01*
X40000Y57558D01*
Y74094D02*
X40400Y74494D01*
X40800D01*
X40400Y74894D01*
X40800Y75294D01*
X40400D01*
X40000Y75694D01*
X39600Y75294D01*
X39200D01*
X39600Y74894D01*
X39200Y74494D01*
X39600D01*
X40000Y74094D01*
Y90629D02*
X40400Y91029D01*
X40800D01*
X40400Y91429D01*
X40800Y91829D01*
X40400D01*
X40000Y92229D01*
X39600Y91829D01*
X39200D01*
X39600Y91429D01*
X39200Y91029D01*
X39600D01*
X40000Y90629D01*
Y107165D02*
X40400Y107565D01*
X40800D01*
X40400Y107965D01*
X40800Y108365D01*
X40400D01*
X40000Y108765D01*
X39600Y108365D01*
X39200D01*
X39600Y107965D01*
X39200Y107565D01*
X39600D01*
X40000Y107165D01*
Y123700D02*
X40400Y124100D01*
X40800D01*
X40400Y124500D01*
X40800Y124900D01*
X40400D01*
X40000Y125300D01*
X39600Y124900D01*
X39200D01*
X39600Y124500D01*
X39200Y124100D01*
X39600D01*
X40000Y123700D01*
Y140235D02*
X40400Y140635D01*
X40800D01*
X40400Y141035D01*
X40800Y141435D01*
X40400D01*
X40000Y141835D01*
X39600Y141435D01*
X39200D01*
X39600Y141035D01*
X39200Y140635D01*
X39600D01*
X40000Y140235D01*
Y156771D02*
X40400Y157171D01*
X40800D01*
X40400Y157571D01*
X40800Y157971D01*
X40400D01*
X40000Y158371D01*
X39600Y157971D01*
X39200D01*
X39600Y157571D01*
X39200Y157171D01*
X39600D01*
X40000Y156771D01*
X61654Y41023D02*
X62054Y41423D01*
X62454D01*
X62054Y41823D01*
X62454Y42223D01*
X62054D01*
X61654Y42623D01*
X61253Y42223D01*
X60853D01*
X61253Y41823D01*
X60853Y41423D01*
X61253D01*
X61654Y41023D01*
Y57558D02*
X62054Y57958D01*
X62454D01*
X62054Y58358D01*
X62454Y58758D01*
X62054D01*
X61654Y59158D01*
X61253Y58758D01*
X60853D01*
X61253Y58358D01*
X60853Y57958D01*
X61253D01*
X61654Y57558D01*
Y74094D02*
X62054Y74494D01*
X62454D01*
X62054Y74894D01*
X62454Y75294D01*
X62054D01*
X61654Y75694D01*
X61253Y75294D01*
X60853D01*
X61253Y74894D01*
X60853Y74494D01*
X61253D01*
X61654Y74094D01*
Y90629D02*
X62054Y91029D01*
X62454D01*
X62054Y91429D01*
X62454Y91829D01*
X62054D01*
X61654Y92229D01*
X61253Y91829D01*
X60853D01*
X61253Y91429D01*
X60853Y91029D01*
X61253D01*
X61654Y90629D01*
Y107165D02*
X62054Y107565D01*
X62454D01*
X62054Y107965D01*
X62454Y108365D01*
X62054D01*
X61654Y108765D01*
X61253Y108365D01*
X60853D01*
X61253Y107965D01*
X60853Y107565D01*
X61253D01*
X61654Y107165D01*
Y123700D02*
X62054Y124100D01*
X62454D01*
X62054Y124500D01*
X62454Y124900D01*
X62054D01*
X61654Y125300D01*
X61253Y124900D01*
X60853D01*
X61253Y124500D01*
X60853Y124100D01*
X61253D01*
X61654Y123700D01*
Y140235D02*
X62054Y140635D01*
X62454D01*
X62054Y141035D01*
X62454Y141435D01*
X62054D01*
X61654Y141835D01*
X61253Y141435D01*
X60853D01*
X61253Y141035D01*
X60853Y140635D01*
X61253D01*
X61654Y140235D01*
Y156771D02*
X62054Y157171D01*
X62454D01*
X62054Y157571D01*
X62454Y157971D01*
X62054D01*
X61654Y158371D01*
X61253Y157971D01*
X60853D01*
X61253Y157571D01*
X60853Y157171D01*
X61253D01*
X61654Y156771D01*
X10460D02*
X10860Y157571D01*
X10460Y158371D01*
X11260Y157971D01*
X12060Y158371D01*
X11660Y157571D01*
X12060Y156771D01*
X11260Y157171D01*
X10460Y156771D01*
Y41023D02*
X10860Y41823D01*
X10460Y42623D01*
X11260Y42223D01*
X12060Y42623D01*
X11660Y41823D01*
X12060Y41023D01*
X11260Y41423D01*
X10460Y41023D01*
X39500Y198094D02*
X39900Y198494D01*
X40300D01*
X39900Y198894D01*
X40300Y199294D01*
X39900D01*
X39500Y199694D01*
X39100Y199294D01*
X38700D01*
X39100Y198894D01*
X38700Y198494D01*
X39100D01*
X39500Y198094D01*
Y214629D02*
X39900Y215029D01*
X40300D01*
X39900Y215429D01*
X40300Y215829D01*
X39900D01*
X39500Y216229D01*
X39100Y215829D01*
X38700D01*
X39100Y215429D01*
X38700Y215029D01*
X39100D01*
X39500Y214629D01*
Y231165D02*
X39900Y231565D01*
X40300D01*
X39900Y231965D01*
X40300Y232365D01*
X39900D01*
X39500Y232765D01*
X39100Y232365D01*
X38700D01*
X39100Y231965D01*
X38700Y231565D01*
X39100D01*
X39500Y231165D01*
Y247700D02*
X39900Y248100D01*
X40300D01*
X39900Y248500D01*
X40300Y248900D01*
X39900D01*
X39500Y249300D01*
X39100Y248900D01*
X38700D01*
X39100Y248500D01*
X38700Y248100D01*
X39100D01*
X39500Y247700D01*
Y264235D02*
X39900Y264635D01*
X40300D01*
X39900Y265035D01*
X40300Y265435D01*
X39900D01*
X39500Y265835D01*
X39100Y265435D01*
X38700D01*
X39100Y265035D01*
X38700Y264635D01*
X39100D01*
X39500Y264235D01*
Y280771D02*
X39900Y281171D01*
X40300D01*
X39900Y281571D01*
X40300Y281971D01*
X39900D01*
X39500Y282371D01*
X39100Y281971D01*
X38700D01*
X39100Y281571D01*
X38700Y281171D01*
X39100D01*
X39500Y280771D01*
Y297306D02*
X39900Y297706D01*
X40300D01*
X39900Y298106D01*
X40300Y298506D01*
X39900D01*
X39500Y298906D01*
X39100Y298506D01*
X38700D01*
X39100Y298106D01*
X38700Y297706D01*
X39100D01*
X39500Y297306D01*
X61154Y198094D02*
X61554Y198494D01*
X61954D01*
X61554Y198894D01*
X61954Y199294D01*
X61554D01*
X61154Y199694D01*
X60754Y199294D01*
X60353D01*
X60754Y198894D01*
X60353Y198494D01*
X60754D01*
X61154Y198094D01*
Y214629D02*
X61554Y215029D01*
X61954D01*
X61554Y215429D01*
X61954Y215829D01*
X61554D01*
X61154Y216229D01*
X60754Y215829D01*
X60353D01*
X60754Y215429D01*
X60353Y215029D01*
X60754D01*
X61154Y214629D01*
Y231165D02*
X61554Y231565D01*
X61954D01*
X61554Y231965D01*
X61954Y232365D01*
X61554D01*
X61154Y232765D01*
X60754Y232365D01*
X60353D01*
X60754Y231965D01*
X60353Y231565D01*
X60754D01*
X61154Y231165D01*
Y247700D02*
X61554Y248100D01*
X61954D01*
X61554Y248500D01*
X61954Y248900D01*
X61554D01*
X61154Y249300D01*
X60754Y248900D01*
X60353D01*
X60754Y248500D01*
X60353Y248100D01*
X60754D01*
X61154Y247700D01*
Y264235D02*
X61554Y264635D01*
X61954D01*
X61554Y265035D01*
X61954Y265435D01*
X61554D01*
X61154Y265835D01*
X60754Y265435D01*
X60353D01*
X60754Y265035D01*
X60353Y264635D01*
X60754D01*
X61154Y264235D01*
Y280771D02*
X61554Y281171D01*
X61954D01*
X61554Y281571D01*
X61954Y281971D01*
X61554D01*
X61154Y282371D01*
X60754Y281971D01*
X60353D01*
X60754Y281571D01*
X60353Y281171D01*
X60754D01*
X61154Y280771D01*
Y297306D02*
X61554Y297706D01*
X61954D01*
X61554Y298106D01*
X61954Y298506D01*
X61554D01*
X61154Y298906D01*
X60754Y298506D01*
X60353D01*
X60754Y298106D01*
X60353Y297706D01*
X60754D01*
X61154Y297306D01*
X9960Y198094D02*
X10360Y198894D01*
X9960Y199694D01*
X10760Y199294D01*
X11560Y199694D01*
X11160Y198894D01*
X11560Y198094D01*
X10760Y198494D01*
X9960Y198094D01*
Y297306D02*
X10360Y298106D01*
X9960Y298906D01*
X10760Y298506D01*
X11560Y298906D01*
X11160Y298106D01*
X11560Y297306D01*
X10760Y297706D01*
X9960Y297306D01*
X328852Y159738D02*
Y159338D01*
X329652D01*
Y159738D01*
X330052D01*
Y160538D01*
X329652D01*
Y160938D01*
X328852D01*
Y160538D01*
X328452D01*
Y159738D01*
X328852D01*
Y175486D02*
Y175086D01*
X329652D01*
Y175486D01*
X330052D01*
Y176286D01*
X329652D01*
Y176686D01*
X328852D01*
Y176286D01*
X328452D01*
Y175486D01*
X328852D01*
Y191234D02*
Y190834D01*
X329652D01*
Y191234D01*
X330052D01*
Y192034D01*
X329652D01*
Y192434D01*
X328852D01*
Y192034D01*
X328452D01*
Y191234D01*
X328852D01*
Y206982D02*
Y206582D01*
X329652D01*
Y206982D01*
X330052D01*
Y207782D01*
X329652D01*
Y208182D01*
X328852D01*
Y207782D01*
X328452D01*
Y206982D01*
X328852D01*
Y222730D02*
Y222330D01*
X329652D01*
Y222730D01*
X330052D01*
Y223530D01*
X329652D01*
Y223930D01*
X328852D01*
Y223530D01*
X328452D01*
Y222730D01*
X328852D01*
Y238478D02*
Y238078D01*
X329652D01*
Y238478D01*
X330052D01*
Y239278D01*
X329652D01*
Y239678D01*
X328852D01*
Y239278D01*
X328452D01*
Y238478D01*
X328852D01*
Y254226D02*
Y253826D01*
X329652D01*
Y254226D01*
X330052D01*
Y255026D01*
X329652D01*
Y255426D01*
X328852D01*
Y255026D01*
X328452D01*
Y254226D01*
X328852D01*
Y269974D02*
Y269574D01*
X329652D01*
Y269974D01*
X330052D01*
Y270774D01*
X329652D01*
Y271174D01*
X328852D01*
Y270774D01*
X328452D01*
Y269974D01*
X328852D01*
X344600Y167612D02*
Y167212D01*
X345400D01*
Y167612D01*
X345800D01*
Y168412D01*
X345400D01*
Y168812D01*
X344600D01*
Y168412D01*
X344200D01*
Y167612D01*
X344600D01*
Y183360D02*
Y182960D01*
X345400D01*
Y183360D01*
X345800D01*
Y184160D01*
X345400D01*
Y184560D01*
X344600D01*
Y184160D01*
X344200D01*
Y183360D01*
X344600D01*
Y199108D02*
Y198708D01*
X345400D01*
Y199108D01*
X345800D01*
Y199908D01*
X345400D01*
Y200308D01*
X344600D01*
Y199908D01*
X344200D01*
Y199108D01*
X344600D01*
Y214856D02*
Y214456D01*
X345400D01*
Y214856D01*
X345800D01*
Y215656D01*
X345400D01*
Y216056D01*
X344600D01*
Y215656D01*
X344200D01*
Y214856D01*
X344600D01*
Y230604D02*
Y230204D01*
X345400D01*
Y230604D01*
X345800D01*
Y231404D01*
X345400D01*
Y231804D01*
X344600D01*
Y231404D01*
X344200D01*
Y230604D01*
X344600D01*
Y246352D02*
Y245952D01*
X345400D01*
Y246352D01*
X345800D01*
Y247152D01*
X345400D01*
Y247552D01*
X344600D01*
Y247152D01*
X344200D01*
Y246352D01*
X344600D01*
Y262100D02*
Y261700D01*
X345400D01*
Y262100D01*
X345800D01*
Y262900D01*
X345400D01*
Y263300D01*
X344600D01*
Y262900D01*
X344200D01*
Y262100D01*
X344600D01*
X360348Y159738D02*
Y159338D01*
X361148D01*
Y159738D01*
X361548D01*
Y160538D01*
X361148D01*
Y160938D01*
X360348D01*
Y160538D01*
X359948D01*
Y159738D01*
X360348D01*
Y175486D02*
Y175086D01*
X361148D01*
Y175486D01*
X361548D01*
Y176286D01*
X361148D01*
Y176686D01*
X360348D01*
Y176286D01*
X359948D01*
Y175486D01*
X360348D01*
Y191234D02*
Y190834D01*
X361148D01*
Y191234D01*
X361548D01*
Y192034D01*
X361148D01*
Y192434D01*
X360348D01*
Y192034D01*
X359948D01*
Y191234D01*
X360348D01*
Y206982D02*
Y206582D01*
X361148D01*
Y206982D01*
X361548D01*
Y207782D01*
X361148D01*
Y208182D01*
X360348D01*
Y207782D01*
X359948D01*
Y206982D01*
X360348D01*
Y222730D02*
Y222330D01*
X361148D01*
Y222730D01*
X361548D01*
Y223530D01*
X361148D01*
Y223930D01*
X360348D01*
Y223530D01*
X359948D01*
Y222730D01*
X360348D01*
Y238478D02*
Y238078D01*
X361148D01*
Y238478D01*
X361548D01*
Y239278D01*
X361148D01*
Y239678D01*
X360348D01*
Y239278D01*
X359948D01*
Y238478D01*
X360348D01*
Y254226D02*
Y253826D01*
X361148D01*
Y254226D01*
X361548D01*
Y255026D01*
X361148D01*
Y255426D01*
X360348D01*
Y255026D01*
X359948D01*
Y254226D01*
X360348D01*
Y269974D02*
Y269574D01*
X361148D01*
Y269974D01*
X361548D01*
Y270774D01*
X361148D01*
Y271174D01*
X360348D01*
Y270774D01*
X359948D01*
Y269974D01*
X360348D01*
X346168Y133747D02*
X346568D01*
X346969Y134147D01*
X347369Y133747D01*
X347768D01*
Y134147D01*
X347369Y134547D01*
X347768Y134947D01*
Y135347D01*
X347369D01*
X346969Y134947D01*
X346568Y135347D01*
X346168D01*
Y134947D01*
X346568Y134547D01*
X346168Y134147D01*
Y133747D01*
Y295165D02*
X346568D01*
X346969Y295565D01*
X347369Y295165D01*
X347768D01*
Y295565D01*
X347369Y295965D01*
X347768Y296365D01*
Y296765D01*
X347369D01*
X346969Y296365D01*
X346568Y296765D01*
X346168D01*
Y296365D01*
X346568Y295965D01*
X346168Y295565D01*
Y295165D01*
X46200Y327606D02*
X47000Y328406D01*
X47800Y327606D01*
X47000Y326806D01*
X46200Y327606D01*
X18995Y325035D02*
Y326635D01*
X20595D01*
Y325035D01*
X18995D01*
X19395Y325435D02*
Y326235D01*
X20195D01*
Y325435D01*
X19395D01*
X18995Y379365D02*
Y380965D01*
X20595D01*
Y379365D01*
X18995D01*
X19395Y379765D02*
Y380565D01*
X20195D01*
Y379765D01*
X19395D01*
X46200Y378394D02*
X47000Y379194D01*
X47800Y378394D01*
X47000Y377594D01*
X46200Y378394D01*
X267500Y90200D02*
X266700Y91800D01*
X268300D01*
X267500Y90200D01*
Y90600D02*
X267100Y91400D01*
X267900D01*
X267500Y90600D01*
X272000Y90200D02*
X271200Y91800D01*
X272800D01*
X272000Y90200D01*
Y90600D02*
X271600Y91400D01*
X272400D01*
X272000Y90600D01*
X275791Y90212D02*
X274991Y91812D01*
X276591D01*
X275791Y90212D01*
Y90612D02*
X275391Y91412D01*
X276191D01*
X275791Y90612D01*
X267500Y95200D02*
X266700Y96800D01*
X268300D01*
X267500Y95200D01*
Y95600D02*
X267100Y96400D01*
X267900D01*
X267500Y95600D01*
X272000Y95200D02*
X271200Y96800D01*
X272800D01*
X272000Y95200D01*
Y95600D02*
X271600Y96400D01*
X272400D01*
X272000Y95600D01*
X67500Y366700D02*
X66700Y368300D01*
X68300D01*
X67500Y366700D01*
Y367100D02*
X67100Y367900D01*
X67900D01*
X67500Y367100D01*
X276000Y95200D02*
X275200Y96800D01*
X276800D01*
X276000Y95200D01*
Y95600D02*
X275600Y96400D01*
X276400D01*
X276000Y95600D01*
X195969Y310161D02*
X195169Y311761D01*
X196769D01*
X195969Y310161D01*
Y310561D02*
X195569Y311361D01*
X196369D01*
X195969Y310561D01*
X269000Y271700D02*
X268200Y273300D01*
X269800D01*
X269000Y271700D01*
Y272100D02*
X268600Y272900D01*
X269400D01*
X269000Y272100D01*
X155500Y321200D02*
X154700Y322800D01*
X156300D01*
X155500Y321200D01*
Y321600D02*
X155100Y322400D01*
X155900D01*
X155500Y321600D01*
X251000Y216200D02*
X250200Y217800D01*
X251800D01*
X251000Y216200D01*
Y216600D02*
X250600Y217400D01*
X251400D01*
X251000Y216600D01*
X246000Y216200D02*
X245200Y217800D01*
X246800D01*
X246000Y216200D01*
Y216600D02*
X245600Y217400D01*
X246400D01*
X246000Y216600D01*
X241000Y216200D02*
X240200Y217800D01*
X241800D01*
X241000Y216200D01*
Y216600D02*
X240600Y217400D01*
X241400D01*
X241000Y216600D01*
X236000Y216200D02*
X235200Y217800D01*
X236800D01*
X236000Y216200D01*
Y216600D02*
X235600Y217400D01*
X236400D01*
X236000Y216600D01*
X209000Y242200D02*
X208200Y243800D01*
X209800D01*
X209000Y242200D01*
Y242600D02*
X208600Y243400D01*
X209400D01*
X209000Y242600D01*
X231000Y216200D02*
X230200Y217800D01*
X231800D01*
X231000Y216200D01*
Y216600D02*
X230600Y217400D01*
X231400D01*
X231000Y216600D01*
X226353Y216053D02*
X225553Y217653D01*
X227152D01*
X226353Y216053D01*
Y216453D02*
X225953Y217252D01*
X226752D01*
X226353Y216453D01*
X141574Y321626D02*
X140774Y323226D01*
X142374D01*
X141574Y321626D01*
Y322026D02*
X141174Y322826D01*
X141974D01*
X141574Y322026D01*
X148561Y310139D02*
X147761Y311739D01*
X149361D01*
X148561Y310139D01*
Y310539D02*
X148161Y311339D01*
X148961D01*
X148561Y310539D01*
X352853Y49231D02*
X352053Y50831D01*
X353653D01*
X352853Y49231D01*
Y49631D02*
X352453Y50431D01*
X353253D01*
X352853Y49631D01*
X270342Y143643D02*
X269543Y145243D01*
X271143D01*
X270342Y143643D01*
Y144043D02*
X269942Y144843D01*
X270743D01*
X270342Y144043D01*
X298000Y87200D02*
X297200Y88800D01*
X298800D01*
X298000Y87200D01*
Y87600D02*
X297600Y88400D01*
X298400D01*
X298000Y87600D01*
X232663Y312863D02*
X231863Y314463D01*
X233463D01*
X232663Y312863D01*
Y313263D02*
X232263Y314063D01*
X233063D01*
X232663Y313263D01*
X181000Y304200D02*
X180200Y305800D01*
X181800D01*
X181000Y304200D01*
Y304600D02*
X180600Y305400D01*
X181400D01*
X181000Y304600D01*
X218500Y286700D02*
X217700Y288300D01*
X219300D01*
X218500Y286700D01*
Y287100D02*
X218100Y287900D01*
X218900D01*
X218500Y287100D01*
X197661Y320539D02*
X196861Y322139D01*
X198461D01*
X197661Y320539D01*
Y320939D02*
X197261Y321739D01*
X198061D01*
X197661Y320939D01*
X232663Y320537D02*
X231863Y322137D01*
X233463D01*
X232663Y320537D01*
Y320937D02*
X232263Y321737D01*
X233063D01*
X232663Y320937D01*
X197500Y328200D02*
X196700Y329800D01*
X198300D01*
X197500Y328200D01*
Y328600D02*
X197100Y329400D01*
X197900D01*
X197500Y328600D01*
D87*
X183800Y216000D02*
G03*
X183800Y216000I-800J0D01*
G01*
X153300Y275000D02*
G03*
X153300Y275000I-800J0D01*
G01*
X340300Y17000D02*
G03*
X340300Y17000I-800J0D01*
G01*
X248800Y297000D02*
G03*
X248800Y297000I-800J0D01*
G01*
X291800Y138000D02*
G03*
X291800Y138000I-800J0D01*
G01*
X341300Y42500D02*
G03*
X341300Y42500I-800J0D01*
G01*
X165800Y102500D02*
G03*
X165800Y102500I-800J0D01*
G01*
X101300Y203500D02*
G03*
X101300Y203500I-800J0D01*
G01*
X366942Y15748D02*
G03*
X366942Y15748I-800J0D01*
G01*
Y377953D02*
G03*
X366942Y377953I-800J0D01*
G01*
D88*
X100900Y203500D02*
G03*
X100900Y203500I-400J0D01*
G01*
X366542Y15748D02*
G03*
X366542Y15748I-400J0D01*
G01*
Y377953D02*
G03*
X366542Y377953I-400J0D01*
G01*
M02*
