%FSTAX23Y23*%
%MOIN*%
%SFA1B1*%

%IPPOS*%
%ADD14R,0.096460X0.124020*%
%ADD15R,0.025590X0.059060*%
%ADD16R,0.058070X0.017720*%
%ADD17R,0.200790X0.124020*%
%ADD18R,0.053150X0.015750*%
%ADD19R,0.062990X0.082680*%
%ADD20R,0.074800X0.070870*%
%ADD21R,0.074800X0.074800*%
%ADD22O,0.127950X0.059060*%
%ADD23R,0.122050X0.094490*%
%ADD24R,0.037400X0.033470*%
%ADD25R,0.047240X0.047240*%
%ADD26R,0.033470X0.037400*%
%ADD27R,0.125980X0.062990*%
%ADD28R,0.035430X0.039370*%
%ADD29R,0.039370X0.035430*%
%ADD30R,0.051180X0.070870*%
%ADD31R,0.025590X0.060040*%
%ADD70R,0.085630X0.085630*%
%ADD71C,0.085630*%
%ADD72R,0.043310X0.043310*%
%ADD73C,0.082680*%
%ADD74C,0.109250*%
%ADD75C,0.060040*%
%ADD76C,0.103350*%
%ADD77C,0.173030*%
%ADD78O,0.157480X0.110240*%
%ADD79O,0.188980X0.110240*%
%ADD80C,0.236220*%
%LNmainpcb-1*%
%LPD*%
G54D14*
X02885Y0161D03*
X02641D03*
G54D15*
X0219Y02721D03*
X0214D03*
X0209D03*
X0204D03*
Y02508D03*
X0209D03*
X0214D03*
X0219D03*
G54D16*
X0226Y03059D03*
Y03085D03*
Y03111D03*
Y03136D03*
Y03162D03*
Y03187D03*
Y03213D03*
Y03238D03*
Y03264D03*
Y0329D03*
X02029D03*
Y03264D03*
Y03238D03*
Y03213D03*
Y03187D03*
Y03162D03*
Y03136D03*
Y03111D03*
Y03085D03*
Y03059D03*
G54D17*
X0226Y01559D03*
Y0196D03*
G54D18*
X03627Y00498D03*
Y00524D03*
Y0055D03*
Y00575D03*
Y00601D03*
G54D19*
X03632Y00427D03*
Y00672D03*
G54D20*
X03732Y004D03*
Y00699D03*
G54D21*
X03732Y00502D03*
Y00597D03*
G54D22*
X00559Y03392D03*
Y03667D03*
Y0349D03*
Y03569D03*
G54D23*
X02719Y00931D03*
G54D24*
X0292Y02825D03*
Y02774D03*
X0269Y0283D03*
Y02779D03*
X02894Y00779D03*
Y0083D03*
X0298D03*
Y00779D03*
X0155Y03145D03*
Y03094D03*
X0142Y0316D03*
Y03109D03*
G54D25*
X0292Y02918D03*
Y03001D03*
X0269D03*
Y02918D03*
G54D26*
X01009Y0322D03*
X0106D03*
Y0332D03*
X01009D03*
X00565Y0015D03*
X00514D03*
X02164Y00615D03*
X02215D03*
X01695Y03135D03*
X01644D03*
G54D27*
X02645Y01963D03*
X02842D03*
G54D28*
X02668Y02155D03*
X02721D03*
X02703Y01365D03*
X02756D03*
X02188Y0282D03*
X02241D03*
X02193Y0243D03*
X02246D03*
X02038Y0282D03*
X02091D03*
G54D29*
X0255Y01033D03*
Y01086D03*
X01935Y03051D03*
Y02998D03*
X0186Y03051D03*
Y02998D03*
G54D30*
X02817Y01255D03*
X02702D03*
X02817Y0115D03*
X02702D03*
G54D31*
X02644Y01038D03*
X02694D03*
X02744D03*
X02794D03*
Y00825D03*
X02744D03*
X02694D03*
X02644D03*
G54D70*
X02845Y0017D03*
X03155D03*
X02805Y03806D03*
X01799Y03801D03*
X02299D03*
X01314Y038D03*
X02525Y00178D03*
X0203Y00175D03*
X01555Y0017D03*
X0108D03*
X00829Y03796D03*
G54D71*
X02845Y00386D03*
X03155D03*
X02805Y0359D03*
X0297Y03806D03*
Y0359D03*
X01799Y03585D03*
X01965Y03801D03*
Y03585D03*
X02299D03*
X02465Y03801D03*
Y03585D03*
X01314Y03583D03*
X0148Y038D03*
Y03583D03*
X02525Y00395D03*
X0236Y00178D03*
Y00395D03*
X0203Y00391D03*
X01865Y00175D03*
Y00391D03*
X01555Y00386D03*
X01389Y0017D03*
Y00386D03*
X0108D03*
X00915Y0017D03*
Y00386D03*
X00829Y0358D03*
X00995Y03796D03*
Y0358D03*
G54D72*
X0183Y0216D03*
X01525Y0275D03*
X03395Y0017D03*
X0248Y0297D03*
X0291Y0138D03*
X03405Y00425D03*
X0165Y01025D03*
G54D73*
X01048Y00953D03*
Y01118D03*
Y01284D03*
Y01449D03*
Y01615D03*
X01265Y00953D03*
Y01118D03*
Y01284D03*
Y01449D03*
Y01615D03*
G54D74*
X004Y00418D03*
Y00583D03*
Y00748D03*
Y00914D03*
Y01079D03*
Y01245D03*
Y0141D03*
Y01575D03*
X00616Y00418D03*
Y00583D03*
Y00748D03*
Y00914D03*
Y01079D03*
Y01245D03*
Y0141D03*
Y01575D03*
X00395Y01988D03*
Y02154D03*
Y02319D03*
Y02485D03*
Y0265D03*
Y02815D03*
Y02981D03*
X00611Y01988D03*
Y02154D03*
Y02319D03*
Y02485D03*
Y0265D03*
Y02815D03*
Y02981D03*
G54D75*
X00112Y01575D03*
Y00418D03*
X00107Y01988D03*
Y02981D03*
G54D76*
X03292Y01601D03*
Y01758D03*
Y01916D03*
Y02073D03*
Y02231D03*
Y02388D03*
Y02546D03*
Y02703D03*
X0345Y0168D03*
Y01837D03*
Y01995D03*
Y02152D03*
Y0231D03*
Y02467D03*
Y02625D03*
X03607Y01601D03*
Y01758D03*
Y01916D03*
Y02073D03*
Y02231D03*
Y02388D03*
Y02546D03*
Y02703D03*
G54D77*
X03469Y01345D03*
Y02959D03*
G54D78*
X0047Y03276D03*
Y03783D03*
G54D79*
X00197Y03258D03*
Y03801D03*
G54D80*
X01005Y02035D03*
X03661Y00157D03*
Y03779D03*
M02*