%FSTAX23Y23*%
%MOIN*%
%SFA1B1*%

%IPPOS*%
%ADD10C,0.003940*%
%ADD11C,0.007870*%
%ADD12C,0.005910*%
%ADD13C,0.010000*%
%LNmainpcb-1*%
%LPD*%
G54D10*
X0359Y00471D02*
D01*
X0359Y00471*
X0359Y00471*
X0359Y00471*
X0359Y00471*
X03591Y00471*
X03591Y00471*
X03591Y00471*
X03591Y00471*
X03591Y00471*
X03591Y00471*
X03591Y00471*
X03591Y00471*
X03591Y00472*
X03592Y00472*
X03592Y00472*
X03592Y00472*
X03592Y00472*
X03592Y00472*
X03592Y00472*
X03592Y00472*
X03592Y00473*
X03592Y00473*
Y00473*
X03592Y00473*
X03592Y00473*
X03592Y00473*
X03592Y00473*
X03592Y00473*
X03592Y00474*
X03592Y00474*
X03592Y00474*
X03591Y00474*
X03591Y00474*
X03591Y00474*
X03591Y00474*
X03591Y00474*
X03591Y00474*
X03591Y00474*
X03591Y00475*
X03591Y00475*
X0359Y00475*
X0359Y00475*
X0359Y00475*
X0359Y00475*
X0359Y00475*
D01*
X0359Y00475*
X0359Y00475*
X03589Y00475*
X03589Y00475*
X03589Y00475*
X03589Y00475*
X03589Y00474*
X03589Y00474*
X03589Y00474*
X03589Y00474*
X03589Y00474*
X03588Y00474*
X03588Y00474*
X03588Y00474*
X03588Y00474*
X03588Y00474*
X03588Y00473*
X03588Y00473*
X03588Y00473*
X03588Y00473*
X03588Y00473*
X03588Y00473*
Y00473*
X03588Y00473*
X03588Y00472*
X03588Y00472*
X03588Y00472*
X03588Y00472*
X03588Y00472*
X03588Y00472*
X03588Y00472*
X03588Y00472*
X03588Y00471*
X03589Y00471*
X03589Y00471*
X03589Y00471*
X03589Y00471*
X03589Y00471*
X03589Y00471*
X03589Y00471*
X03589Y00471*
X03589Y00471*
X0359Y00471*
X0359Y00471*
X0359Y00471*
X03784Y004D02*
X03852D01*
Y00699*
X03784D02*
X03852D01*
X03674Y004D02*
X03682D01*
X03674Y00699D02*
X03682D01*
X01338Y00847D02*
Y01721D01*
X0096Y00847D02*
X01338D01*
X0096D02*
Y01721D01*
X01338*
X00036Y01682D02*
X00356D01*
X00037Y00311D02*
Y01682D01*
X00036Y00311D02*
X00356D01*
X00351Y03075D02*
Y03087D01*
X00032Y01882D02*
Y03087D01*
X00351Y01882D02*
Y01894D01*
X03627Y01266D02*
X03835D01*
Y03038*
X03627D02*
X03835D01*
X03135D02*
X03312D01*
X03135Y01266D02*
Y03038D01*
Y01266D02*
X03312D01*
G54D11*
X00934Y00957D02*
D01*
X00934Y00957*
X00934Y00957*
X00933Y00957*
X00933Y00957*
X00933Y00957*
X00933Y00957*
X00932Y00957*
X00932Y00956*
X00932Y00956*
X00932Y00956*
X00931Y00956*
X00931Y00956*
X00931Y00956*
X00931Y00955*
X00931Y00955*
X00931Y00955*
X00931Y00955*
X0093Y00954*
X0093Y00954*
X0093Y00954*
X0093Y00953*
X0093Y00953*
Y00953*
X0093Y00953*
X0093Y00952*
X0093Y00952*
X0093Y00952*
X00931Y00952*
X00931Y00951*
X00931Y00951*
X00931Y00951*
X00931Y00951*
X00931Y0095*
X00931Y0095*
X00932Y0095*
X00932Y0095*
X00932Y0095*
X00932Y0095*
X00933Y00949*
X00933Y00949*
X00933Y00949*
X00933Y00949*
X00934Y00949*
X00934Y00949*
X00934Y00949*
D01*
X00934Y00949*
X00935Y00949*
X00935Y00949*
X00935Y00949*
X00936Y00949*
X00936Y00949*
X00936Y0095*
X00936Y0095*
X00936Y0095*
X00937Y0095*
X00937Y0095*
X00937Y0095*
X00937Y00951*
X00937Y00951*
X00938Y00951*
X00938Y00951*
X00938Y00952*
X00938Y00952*
X00938Y00952*
X00938Y00952*
X00938Y00953*
X00938Y00953*
Y00953*
X00938Y00954*
X00938Y00954*
X00938Y00954*
X00938Y00954*
X00938Y00955*
X00938Y00955*
X00938Y00955*
X00937Y00955*
X00937Y00956*
X00937Y00956*
X00937Y00956*
X00937Y00956*
X00936Y00956*
X00936Y00956*
X00936Y00957*
X00936Y00957*
X00936Y00957*
X00935Y00957*
X00935Y00957*
X00935Y00957*
X00934Y00957*
X00934*
X00396Y00343D02*
D01*
X00396Y00343*
X00396Y00342*
X00396Y00342*
X00396Y00342*
X00396Y00342*
X00396Y00341*
X00396Y00341*
X00396Y00341*
X00396Y00341*
X00396Y0034*
X00397Y0034*
X00397Y0034*
X00397Y0034*
X00397Y0034*
X00398Y0034*
X00398Y00339*
X00398Y00339*
X00398Y00339*
X00399Y00339*
X00399Y00339*
X00399Y00339*
X00399Y00339*
X004*
X004Y00339*
X004Y00339*
X004Y00339*
X00401Y00339*
X00401Y00339*
X00401Y00339*
X00401Y0034*
X00402Y0034*
X00402Y0034*
X00402Y0034*
X00402Y0034*
X00403Y0034*
X00403Y00341*
X00403Y00341*
X00403Y00341*
X00403Y00341*
X00403Y00342*
X00403Y00342*
X00403Y00342*
X00403Y00342*
X00403Y00343*
X00403Y00343*
D01*
X00403Y00343*
X00403Y00343*
X00403Y00344*
X00403Y00344*
X00403Y00344*
X00403Y00345*
X00403Y00345*
X00403Y00345*
X00403Y00345*
X00403Y00345*
X00402Y00346*
X00402Y00346*
X00402Y00346*
X00402Y00346*
X00401Y00346*
X00401Y00346*
X00401Y00347*
X00401Y00347*
X004Y00347*
X004Y00347*
X004Y00347*
X004Y00347*
X00399*
X00399Y00347*
X00399Y00347*
X00399Y00347*
X00398Y00347*
X00398Y00347*
X00398Y00346*
X00398Y00346*
X00397Y00346*
X00397Y00346*
X00397Y00346*
X00397Y00346*
X00396Y00345*
X00396Y00345*
X00396Y00345*
X00396Y00345*
X00396Y00345*
X00396Y00344*
X00396Y00344*
X00396Y00344*
X00396Y00343*
X00396Y00343*
X00396Y00343*
X00395Y01859D02*
D01*
X00395Y01859*
X00395Y01859*
X00395Y01859*
X00396Y01859*
X00396Y01859*
X00396Y01859*
X00396Y01859*
X00397Y01859*
X00397Y01859*
X00397Y01859*
X00397Y0186*
X00397Y0186*
X00398Y0186*
X00398Y0186*
X00398Y0186*
X00398Y01861*
X00398Y01861*
X00398Y01861*
X00398Y01862*
X00398Y01862*
X00398Y01862*
X00398Y01862*
Y01863*
X00398Y01863*
X00398Y01863*
X00398Y01863*
X00398Y01864*
X00398Y01864*
X00398Y01864*
X00398Y01864*
X00398Y01865*
X00398Y01865*
X00397Y01865*
X00397Y01865*
X00397Y01865*
X00397Y01866*
X00397Y01866*
X00396Y01866*
X00396Y01866*
X00396Y01866*
X00396Y01866*
X00395Y01866*
X00395Y01866*
X00395Y01866*
X00395*
D01*
X00394Y01866*
X00394Y01866*
X00394Y01866*
X00393Y01866*
X00393Y01866*
X00393Y01866*
X00393Y01866*
X00392Y01866*
X00392Y01866*
X00392Y01865*
X00392Y01865*
X00392Y01865*
X00391Y01865*
X00391Y01865*
X00391Y01864*
X00391Y01864*
X00391Y01864*
X00391Y01864*
X00391Y01863*
X00391Y01863*
X00391Y01863*
X00391Y01863*
Y01862*
X00391Y01862*
X00391Y01862*
X00391Y01861*
X00391Y01861*
X00391Y01861*
X00391Y01861*
X00391Y0186*
X00391Y0186*
X00391Y0186*
X00392Y0186*
X00392Y0186*
X00392Y01859*
X00392Y01859*
X00392Y01859*
X00393Y01859*
X00393Y01859*
X00393Y01859*
X00393Y01859*
X00394Y01859*
X00394Y01859*
X00394Y01859*
X00395Y01859*
X03115Y01605D02*
D01*
X03115Y01605*
X03114Y01605*
X03114Y01605*
X03114Y01605*
X03114Y01605*
X03113Y01604*
X03113Y01604*
X03113Y01604*
X03113Y01604*
X03112Y01604*
X03112Y01604*
X03112Y01604*
X03112Y01603*
X03112Y01603*
X03111Y01603*
X03111Y01603*
X03111Y01602*
X03111Y01602*
X03111Y01602*
X03111Y01602*
X03111Y01601*
X03111Y01601*
Y01601*
X03111Y016*
X03111Y016*
X03111Y016*
X03111Y016*
X03111Y01599*
X03111Y01599*
X03111Y01599*
X03112Y01599*
X03112Y01598*
X03112Y01598*
X03112Y01598*
X03112Y01598*
X03113Y01598*
X03113Y01598*
X03113Y01597*
X03113Y01597*
X03114Y01597*
X03114Y01597*
X03114Y01597*
X03114Y01597*
X03115Y01597*
X03115Y01597*
D01*
X03115Y01597*
X03115Y01597*
X03116Y01597*
X03116Y01597*
X03116Y01597*
X03116Y01597*
X03117Y01597*
X03117Y01598*
X03117Y01598*
X03117Y01598*
X03118Y01598*
X03118Y01598*
X03118Y01598*
X03118Y01599*
X03118Y01599*
X03118Y01599*
X03119Y01599*
X03119Y016*
X03119Y016*
X03119Y016*
X03119Y016*
X03119Y01601*
Y01601*
X03119Y01601*
X03119Y01602*
X03119Y01602*
X03119Y01602*
X03119Y01602*
X03118Y01603*
X03118Y01603*
X03118Y01603*
X03118Y01603*
X03118Y01604*
X03118Y01604*
X03117Y01604*
X03117Y01604*
X03117Y01604*
X03117Y01604*
X03116Y01604*
X03116Y01605*
X03116Y01605*
X03116Y01605*
X03115Y01605*
X03115Y01605*
X03115*
X0257Y0148D02*
X02956D01*
X0257Y01739D02*
X02956D01*
Y0148D02*
Y01532D01*
Y01687D02*
Y01739D01*
X0257Y01629D02*
Y01739D01*
Y01629D02*
X02578D01*
Y01739*
Y0148D02*
Y0159D01*
X0257D02*
X02578D01*
X0257Y0148D02*
Y0159D01*
X02747D02*
Y01629D01*
Y0161D02*
X02775Y01594D01*
X02747Y0161D02*
X02775Y01629D01*
Y01594D02*
Y01629D01*
X0274Y0161D02*
X02747D01*
X02775D02*
X02787D01*
X02845Y00097D02*
X02967D01*
Y00482*
X02738D02*
X02967D01*
X02738Y0017D02*
Y00482D01*
X03155Y00097D02*
X03277D01*
Y00482*
X03048D02*
X03277D01*
X03048Y0017D02*
Y00482D01*
X02805Y03904D02*
X03092D01*
Y03519D02*
Y03904D01*
X02698Y03519D02*
X03092D01*
X02698D02*
Y03806D01*
X01799Y03899D02*
X02087D01*
Y03514D02*
Y03899D01*
X01693Y03514D02*
X02087D01*
X01693D02*
Y03801D01*
X02299Y03899D02*
X02587D01*
Y03514D02*
Y03899D01*
X02193Y03514D02*
X02587D01*
X02193D02*
Y03801D01*
X01314Y03898D02*
X01602D01*
Y03512D02*
Y03898D01*
X01208Y03512D02*
X01602D01*
X01208D02*
Y038D01*
X02237Y0008D02*
X02525D01*
X02237D02*
Y00465D01*
X02631*
Y00178D02*
Y00465D01*
X01742Y00076D02*
X0203D01*
X01742D02*
Y00462D01*
X02136*
Y00175D02*
Y00462D01*
X01267Y00071D02*
X01555D01*
X01267D02*
Y00457D01*
X01661*
Y0017D02*
Y00457D01*
X00792Y00071D02*
X0108D01*
X00792D02*
Y00457D01*
X01186*
Y0017D02*
Y00457D01*
X00829Y03894D02*
X01117D01*
Y03509D02*
Y03894D01*
X00723Y03509D02*
X01117D01*
X00723D02*
Y03796D01*
X0178Y0211D02*
Y0216D01*
Y0211D02*
X0188D01*
Y0221*
X0183D02*
X0188D01*
X01475Y027D02*
Y0275D01*
Y027D02*
X01575D01*
Y028*
X01525D02*
X01575D01*
X03345Y0012D02*
Y0017D01*
Y0012D02*
X03445D01*
Y0022*
X03395D02*
X03445D01*
X0243Y0292D02*
Y0297D01*
Y0292D02*
X0253D01*
Y0302*
X0248D02*
X0253D01*
X0286Y0133D02*
Y0138D01*
Y0133D02*
X0296D01*
Y0143*
X0291D02*
X0296D01*
X03355Y00375D02*
Y00425D01*
Y00375D02*
X03455D01*
Y00475*
X03405D02*
X03455D01*
X016Y00975D02*
Y01025D01*
Y00975D02*
X017D01*
Y01075*
X0165D02*
X017D01*
X02211Y02552D02*
Y02677D01*
X02018Y02552D02*
X02211D01*
X02018D02*
Y02677D01*
X02211*
X02216Y02691D02*
Y0275D01*
X02072Y03047D02*
X02217D01*
X02072D02*
Y03302D01*
X02217*
Y03047D02*
Y03302D01*
X02231Y03037D02*
X02289D01*
X02023Y01523D02*
Y01996D01*
X02496Y01523D02*
Y01996D01*
X0056Y0327D02*
Y03348D01*
X00304Y03262D02*
X00383D01*
X00304Y03797D02*
X00383D01*
X00013Y03262D02*
X00092D01*
X00013D02*
Y03797D01*
X00092*
X0056Y03711D02*
Y03789D01*
X02614Y0205D02*
X02657Y02093D01*
X02614Y02006D02*
Y0205D01*
X02657Y02093D02*
X02874D01*
Y02006D02*
Y02093D01*
X02614Y01877D02*
X02657Y01833D01*
X02614Y01877D02*
Y0192D01*
X02657Y01833D02*
X02874D01*
Y0192*
X02617Y00795D02*
Y00855D01*
G54D12*
X02892Y028D02*
X02947D01*
X0294Y0285D02*
X02947D01*
Y0275D02*
Y0285D01*
X0294Y0275D02*
X02947D01*
X02892D02*
X029D01*
X02892D02*
Y0285D01*
X029*
X0291Y03035D02*
Y0304D01*
X02884D02*
X0291D01*
X02884Y03035D02*
Y0304D01*
X02955Y03035D02*
Y0304D01*
X0293D02*
X02955D01*
X0293Y03035D02*
Y0304D01*
X02884Y0288D02*
X02892D01*
X02884D02*
Y03035D01*
X0291*
X02947Y0288D02*
X02955D01*
Y03035*
X0293D02*
X02955D01*
X02884Y0296D02*
X02955D01*
X0292D02*
Y0297D01*
X0291Y0295D02*
X0293D01*
X0291D02*
X0292Y0296D01*
X0293Y0295*
X01035Y03192D02*
Y03247D01*
X00985Y0324D02*
Y03247D01*
X01085*
Y0324D02*
Y03247D01*
Y03192D02*
Y032D01*
X00985Y03192D02*
X01085D01*
X00985D02*
Y032D01*
X01035Y03292D02*
Y03347D01*
X01085Y03292D02*
Y033D01*
X00985Y03292D02*
X01085D01*
X00985D02*
Y033D01*
Y0334D02*
Y03347D01*
X01085*
Y0334D02*
Y03347D01*
X02662Y02805D02*
X02717D01*
X0271Y02855D02*
X02717D01*
Y02755D02*
Y02855D01*
X0271Y02755D02*
X02717D01*
X02662D02*
X0267D01*
X02662D02*
Y02855D01*
X0267*
X0054Y00122D02*
Y00177D01*
X0059Y00122D02*
Y0013D01*
X0049Y00122D02*
X0059D01*
X0049D02*
Y0013D01*
Y0017D02*
Y00177D01*
X0059*
Y0017D02*
Y00177D01*
X0219Y00587D02*
Y00642D01*
X0214Y00635D02*
Y00642D01*
X0224*
Y00635D02*
Y00642D01*
Y00587D02*
Y00595D01*
X0214Y00587D02*
X0224D01*
X0214D02*
Y00595D01*
X0269Y0296D02*
X027Y0295D01*
X0268D02*
X0269Y0296D01*
X0268Y0295D02*
X027D01*
X0269Y0296D02*
Y0297D01*
X02654Y0296D02*
X02725D01*
X027Y03035D02*
X02725D01*
Y0288D02*
Y03035D01*
X02717Y0288D02*
X02725D01*
X02654Y03035D02*
X0268D01*
X02654Y0288D02*
Y03035D01*
Y0288D02*
X02662D01*
X027Y03035D02*
Y0304D01*
X02725*
Y03035D02*
Y0304D01*
X02654Y03035D02*
Y0304D01*
X0268*
Y03035D02*
Y0304D01*
X02695Y02127D02*
Y02182D01*
X0275Y02127D02*
Y02139D01*
X02639Y02127D02*
X0275D01*
X02639D02*
Y02139D01*
Y0217D02*
Y02182D01*
X0275*
Y0217D02*
Y02182D01*
X02866Y00855D02*
X02874D01*
X02866Y00755D02*
Y00855D01*
Y00755D02*
X02874D01*
X02914D02*
X02921D01*
Y00855*
X02914D02*
X02921D01*
X02866Y00805D02*
X02921D01*
X03Y00755D02*
X03007D01*
Y00855*
X03D02*
X03007D01*
X02952D02*
X0296D01*
X02952Y00755D02*
Y00855D01*
Y00755D02*
X0296D01*
X02952Y00805D02*
X03007D01*
X02522Y0106D02*
X02577D01*
X02565Y01115D02*
X02577D01*
Y01004D02*
Y01115D01*
X02565Y01004D02*
X02577D01*
X02522D02*
X02534D01*
X02522D02*
Y01115D01*
X02534*
X02853Y01289D02*
Y01299D01*
X02666D02*
X02853D01*
X02666Y01289D02*
Y01299D01*
Y0121D02*
Y0122D01*
Y0121D02*
X02853D01*
Y0122*
X0276Y0121D02*
Y01299D01*
X02853Y01184D02*
Y01194D01*
X02666D02*
X02853D01*
X02666Y01184D02*
Y01194D01*
Y01105D02*
Y01115D01*
Y01105D02*
X02853D01*
Y01115*
X0276Y01105D02*
Y01194D01*
X0273Y01337D02*
Y01392D01*
X02785Y01337D02*
Y01349D01*
X02674Y01337D02*
X02785D01*
X02674D02*
Y01349D01*
Y0138D02*
Y01392D01*
X02785*
Y0138D02*
Y01392D01*
X02215Y02792D02*
Y02847D01*
X0227Y02792D02*
Y02804D01*
X02159Y02792D02*
X0227D01*
X02159D02*
Y02804D01*
Y02835D02*
Y02847D01*
X0227*
Y02835D02*
Y02847D01*
X01907Y03025D02*
X01962D01*
X01907Y02969D02*
X01919D01*
X01907D02*
Y0308D01*
X01919*
X0195D02*
X01962D01*
Y02969D02*
Y0308D01*
X0195Y02969D02*
X01962D01*
X01832Y03025D02*
X01887D01*
X01832Y02969D02*
X01844D01*
X01832D02*
Y0308D01*
X01844*
X01875D02*
X01887D01*
Y02969D02*
Y0308D01*
X01875Y02969D02*
X01887D01*
X0162Y03107D02*
Y03115D01*
Y03107D02*
X0172D01*
Y03115*
Y03155D02*
Y03162D01*
X0162D02*
X0172D01*
X0162Y03155D02*
Y03162D01*
X0167Y03107D02*
Y03162D01*
X0222Y02402D02*
Y02457D01*
X02275Y02402D02*
Y02414D01*
X02164Y02402D02*
X02275D01*
X02164D02*
Y02414D01*
Y02445D02*
Y02457D01*
X02275*
Y02445D02*
Y02457D01*
X02065Y02792D02*
Y02847D01*
X0212Y02792D02*
Y02804D01*
X02009Y02792D02*
X0212D01*
X02009D02*
Y02804D01*
Y02835D02*
Y02847D01*
X0212*
Y02835D02*
Y02847D01*
X0157Y0307D02*
X01577D01*
Y0317*
X0157D02*
X01577D01*
X01522D02*
X0153D01*
X01522Y0307D02*
Y0317D01*
Y0307D02*
X0153D01*
X01522Y0312D02*
X01577D01*
X0144Y03085D02*
X01447D01*
Y03185*
X0144D02*
X01447D01*
X01392D02*
X014D01*
X01392Y03085D02*
Y03185D01*
Y03085D02*
X014D01*
X01392Y03135D02*
X01447D01*
G54D13*
X03055Y02815D02*
X02995D01*
Y02844*
X03005Y02854*
X03025*
X03035Y02844*
Y02815*
X03005Y02914D02*
X02995Y02904D01*
Y02884*
X03005Y02874*
X03045*
X03055Y02884*
Y02904*
X03045Y02914*
X03025*
Y02894*
X03065Y02934D02*
Y02974D01*
X03055Y02994D02*
X02995D01*
X03055Y03034*
X02995*
X03124Y00589D02*
X03085D01*
Y00559*
X03104*
X03085*
Y0053*
X03144D02*
Y00569D01*
X03164Y00589*
X03184Y00569*
Y0053*
Y00559*
X03144*
X03204Y0053D02*
Y00589D01*
X03244Y0053*
Y00589*
X02765Y02874D02*
X02755Y02864D01*
Y02845*
X02765Y02835*
X02775*
X02785Y02845*
Y02864*
X02795Y02874*
X02805*
X02815Y02864*
Y02845*
X02805Y02835*
X02755Y02894D02*
Y02934D01*
Y02914*
X02815*
Y02954D02*
X02775D01*
X02755Y02974*
X02775Y02994*
X02815*
X02785*
Y02954*
X02755Y03014D02*
Y03054D01*
Y03034*
X02815*
X03334Y00769D02*
X03295D01*
Y0071*
X03334*
X03295Y00739D02*
X03314D01*
X03354Y00769D02*
X03394Y0071D01*
Y00769D02*
X03354Y0071D01*
X03514Y00769D02*
X03474D01*
Y00739*
X03494Y00749*
X03504*
X03514Y00739*
Y0072*
X03504Y0071*
X03484*
X03474Y0072*
X03534Y00769D02*
Y00729D01*
X03554Y0071*
X03574Y00729*
Y00769*
X0176Y0056D02*
Y00619D01*
X01779Y00599*
X01799Y00619*
Y0056*
X01849Y00619D02*
X01829D01*
X01819Y00609*
Y0057*
X01829Y0056*
X01849*
X01859Y0057*
Y00609*
X01849Y00619*
X01879D02*
X01919D01*
X01899*
Y0056*
X01969Y00619D02*
X01949D01*
X01939Y00609*
Y0057*
X01949Y0056*
X01969*
X01979Y0057*
Y00609*
X01969Y00619*
X01999Y0056D02*
Y00619D01*
X02029*
X02039Y00609*
Y00589*
X02029Y00579*
X01999*
X02019D02*
X02039Y0056D01*
X02099D02*
X02059D01*
X02099Y00599*
Y00609*
X02089Y00619*
X02069*
X02059Y00609*
X008Y0054D02*
Y00599D01*
X00819Y00579*
X00839Y00599*
Y0054*
X00889Y00599D02*
X00869D01*
X00859Y00589*
Y0055*
X00869Y0054*
X00889*
X00899Y0055*
Y00589*
X00889Y00599*
X00919D02*
X00959D01*
X00939*
Y0054*
X01009Y00599D02*
X00989D01*
X00979Y00589*
Y0055*
X00989Y0054*
X01009*
X01019Y0055*
Y00589*
X01009Y00599*
X01039Y0054D02*
Y00599D01*
X01069*
X01079Y00589*
Y00569*
X01069Y00559*
X01039*
X01059D02*
X01079Y0054D01*
X01129D02*
Y00599D01*
X01099Y00569*
X01139*
X0131Y00545D02*
Y00604D01*
X01329Y00584*
X01349Y00604*
Y00545*
X01399Y00604D02*
X01379D01*
X01369Y00594*
Y00555*
X01379Y00545*
X01399*
X01409Y00555*
Y00594*
X01399Y00604*
X01429D02*
X01469D01*
X01449*
Y00545*
X01519Y00604D02*
X01499D01*
X01489Y00594*
Y00555*
X01499Y00545*
X01519*
X01529Y00555*
Y00594*
X01519Y00604*
X01549Y00545D02*
Y00604D01*
X01579*
X01589Y00594*
Y00574*
X01579Y00564*
X01549*
X01569D02*
X01589Y00545D01*
X01609Y00594D02*
X01619Y00604D01*
X01639*
X01649Y00594*
Y00584*
X01639Y00574*
X01629*
X01639*
X01649Y00564*
Y00555*
X01639Y00545*
X01619*
X01609Y00555*
X02765Y0054D02*
X02784D01*
X02775*
Y00599*
X02765Y00589*
X02854Y0054D02*
X02814D01*
X02854Y00579*
Y00589*
X02844Y00599*
X02824*
X02814Y00589*
X02874Y00599D02*
Y00559D01*
X02894Y0054*
X02914Y00559*
Y00599*
X01429Y01314D02*
X01419Y01324D01*
X014*
X0139Y01314*
Y01304*
X014Y01294*
X01419*
X01429Y01284*
Y01275*
X01419Y01265*
X014*
X0139Y01275*
X01449Y01324D02*
X01489D01*
X01469*
Y01265*
X01549Y01324D02*
X01509D01*
Y01265*
X01549*
X01509Y01294D02*
X01529D01*
X01569Y01265D02*
Y01324D01*
X01599*
X01609Y01314*
Y01294*
X01599Y01284*
X01569*
X01629Y01265D02*
X01649D01*
X01639*
Y01324*
X01629Y01314*
X01429Y01489D02*
X01419Y01499D01*
X014*
X0139Y01489*
Y01479*
X014Y01469*
X01419*
X01429Y01459*
Y0145*
X01419Y0144*
X014*
X0139Y0145*
X01449Y01499D02*
X01489D01*
X01469*
Y0144*
X01549Y01499D02*
X01509D01*
Y0144*
X01549*
X01509Y01469D02*
X01529D01*
X01569Y0144D02*
Y01499D01*
X01599*
X01609Y01489*
Y01469*
X01599Y01459*
X01569*
X01669Y0144D02*
X01629D01*
X01669Y01479*
Y01489*
X01659Y01499*
X01639*
X01629Y01489*
X01424Y01659D02*
X01414Y01669D01*
X01395*
X01385Y01659*
Y01649*
X01395Y01639*
X01414*
X01424Y01629*
Y0162*
X01414Y0161*
X01395*
X01385Y0162*
X01444Y01669D02*
X01484D01*
X01464*
Y0161*
X01544Y01669D02*
X01504D01*
Y0161*
X01544*
X01504Y01639D02*
X01524D01*
X01564Y0161D02*
Y01669D01*
X01594*
X01604Y01659*
Y01639*
X01594Y01629*
X01564*
X01624Y01659D02*
X01634Y01669D01*
X01654*
X01664Y01659*
Y01649*
X01654Y01639*
X01644*
X01654*
X01664Y01629*
Y0162*
X01654Y0161*
X01634*
X01624Y0162*
X023Y00555D02*
Y00614D01*
X02319Y00594*
X02339Y00614*
Y00555*
X02389Y00614D02*
X02369D01*
X02359Y00604*
Y00565*
X02369Y00555*
X02389*
X02399Y00565*
Y00604*
X02389Y00614*
X02419D02*
X02459D01*
X02439*
Y00555*
X02509Y00614D02*
X02489D01*
X02479Y00604*
Y00565*
X02489Y00555*
X02509*
X02519Y00565*
Y00604*
X02509Y00614*
X02539Y00555D02*
Y00614D01*
X02569*
X02579Y00604*
Y00584*
X02569Y00574*
X02539*
X02559D02*
X02579Y00555D01*
X02599D02*
X02619D01*
X02609*
Y00614*
X02599Y00604*
X02764Y03354D02*
X02725D01*
Y03295*
X02764*
X02725Y03324D02*
X02744D01*
X02784Y03295D02*
Y03354D01*
X02824Y03295*
Y03354*
X02884Y03344D02*
X02874Y03354D01*
X02854*
X02844Y03344*
Y03305*
X02854Y03295*
X02874*
X02884Y03305*
X02904Y03295D02*
X02924D01*
X02914*
Y03354*
X02904Y03344*
X02274Y03394D02*
X02235D01*
Y03335*
X02274*
X02235Y03364D02*
X02254D01*
X02294Y03335D02*
Y03394D01*
X02334Y03335*
Y03394*
X02394Y03384D02*
X02384Y03394D01*
X02364*
X02354Y03384*
Y03345*
X02364Y03335*
X02384*
X02394Y03345*
X02454Y03335D02*
X02414D01*
X02454Y03374*
Y03384*
X02444Y03394*
X02424*
X02414Y03384*
X01759Y03374D02*
X0172D01*
Y03315*
X01759*
X0172Y03344D02*
X01739D01*
X01779Y03315D02*
Y03374D01*
X01819Y03315*
Y03374*
X01879Y03364D02*
X01869Y03374D01*
X01849*
X01839Y03364*
Y03325*
X01849Y03315*
X01869*
X01879Y03325*
X01899Y03364D02*
X01909Y03374D01*
X01929*
X01939Y03364*
Y03354*
X01929Y03344*
X01919*
X01929*
X01939Y03334*
Y03325*
X01929Y03315*
X01909*
X01899Y03325*
X01269Y03354D02*
X0123D01*
Y03295*
X01269*
X0123Y03324D02*
X01249D01*
X01289Y03295D02*
Y03354D01*
X01329Y03295*
Y03354*
X01389Y03344D02*
X01379Y03354D01*
X01359*
X01349Y03344*
Y03305*
X01359Y03295*
X01379*
X01389Y03305*
X01439Y03295D02*
Y03354D01*
X01409Y03324*
X01449*
X0068Y03339D02*
Y0328D01*
X00719*
X00739Y03339D02*
X00759D01*
X00749*
Y0328*
X00739*
X00759*
X00789Y03339D02*
Y0328D01*
X00819*
X00829Y0329*
Y03329*
X00819Y03339*
X00789*
X00849Y0328D02*
Y03319D01*
X00869Y03339*
X00889Y03319*
Y0328*
Y03309*
X00849*
X00909Y0328D02*
Y03339D01*
X00939*
X00949Y03329*
Y03309*
X00939Y03299*
X00909*
X00929D02*
X00949Y0328D01*
X0353Y03549D02*
X0351D01*
X0352*
Y035*
X0351Y0349*
X035*
X0349Y035*
X03589Y0349D02*
X0355D01*
X03589Y0353*
Y03539*
X03579Y03549*
X03559*
X0355Y03539*
X0285Y0265D02*
Y02709D01*
X0288*
X0289Y02699*
Y0268*
X0288Y0267*
X0285*
X0287D02*
X0289Y0265D01*
X0291D02*
X0293D01*
X0292*
Y02709*
X0291Y02699*
X02989Y0265D02*
Y02709D01*
X02959Y0268*
X02999*
X02892Y03132D02*
Y03073D01*
X02921*
X02931Y03083*
Y03122*
X02921Y03132*
X02892*
X02951Y03122D02*
X02961Y03132D01*
X02981*
X02991Y03122*
Y03112*
X02981Y03102*
X02971*
X02981*
X02991Y03092*
Y03083*
X02981Y03073*
X02961*
X02951Y03083*
X00975Y0308D02*
Y03139D01*
X01005*
X01015Y03129*
Y0311*
X01005Y031*
X00975*
X00995D02*
X01015Y0308D01*
X01035D02*
X01055D01*
X01045*
Y03139*
X01035Y03129*
X01084D02*
X01094Y03139D01*
X01114*
X01124Y03129*
Y0312*
X01114Y0311*
X01104*
X01114*
X01124Y031*
Y0309*
X01114Y0308*
X01094*
X01084Y0309*
X00975Y0338D02*
Y03439D01*
X01005*
X01015Y03429*
Y0341*
X01005Y034*
X00975*
X00995D02*
X01015Y0338D01*
X01035D02*
X01055D01*
X01045*
Y03439*
X01035Y03429*
X01124Y0338D02*
X01084D01*
X01124Y0342*
Y03429*
X01114Y03439*
X01094*
X01084Y03429*
X03125Y00699D02*
X03105D01*
X03115*
Y0065*
X03105Y0064*
X03095*
X03085Y0065*
X03145Y0064D02*
X03165D01*
X03155*
Y00699*
X03145Y00689*
X03194Y0065D02*
X03204Y0064D01*
X03224*
X03234Y0065*
Y00689*
X03224Y00699*
X03204*
X03194Y00689*
Y0068*
X03204Y0067*
X03234*
X006Y00195D02*
Y00254D01*
X0063*
X0064Y00244*
Y00225*
X0063Y00215*
X006*
X0062D02*
X0064Y00195D01*
X0066D02*
X0068D01*
X0067*
Y00254*
X0066Y00244*
X00709Y00195D02*
X00729D01*
X00719*
Y00254*
X00709Y00244*
X02115Y007D02*
Y00759D01*
X02145*
X02155Y00749*
Y0073*
X02145Y0072*
X02115*
X02135D02*
X02155Y007D01*
X02175D02*
X02195D01*
X02185*
Y00759*
X02175Y00749*
X02225D02*
X02235Y00759D01*
X02255*
X02265Y00749*
Y0071*
X02255Y007*
X02235*
X02225Y0071*
Y00749*
X01599Y01175D02*
X01638D01*
X01618*
Y01116*
X01658D02*
Y01175D01*
X01688*
X01698Y01165*
Y01145*
X01688Y01135*
X01658*
X01718Y01175D02*
X01758D01*
Y01165*
X01718Y01126*
Y01116*
X0332Y00599D02*
X0336D01*
X0334*
Y0054*
X0338D02*
Y00599D01*
X0341*
X03419Y00589*
Y0057*
X0341Y0056*
X0338*
X03479Y00599D02*
X03459Y00589D01*
X03439Y0057*
Y0055*
X03449Y0054*
X03469*
X03479Y0055*
Y0056*
X03469Y0057*
X03439*
X0298Y01434D02*
X0302D01*
X03*
Y01375*
X0304D02*
Y01434D01*
X0307*
X03079Y01424*
Y01405*
X0307Y01395*
X0304*
X03139Y01434D02*
X03099D01*
Y01405*
X03119Y01415*
X03129*
X03139Y01405*
Y01385*
X03129Y01375*
X03109*
X03099Y01385*
X024Y02879D02*
X0244D01*
X0242*
Y0282*
X0246D02*
Y02879D01*
X0249*
X02499Y02869*
Y0285*
X0249Y0284*
X0246*
X02549Y0282D02*
Y02879D01*
X02519Y0285*
X02559*
X03344Y0032D02*
X03383D01*
X03363*
Y00261*
X03403D02*
Y0032D01*
X03433*
X03443Y0031*
Y0029*
X03433Y0028*
X03403*
X03463Y0031D02*
X03473Y0032D01*
X03493*
X03503Y0031*
Y003*
X03493Y0029*
X03483*
X03493*
X03503Y0028*
Y00271*
X03493Y00261*
X03473*
X03463Y00271*
X01474Y029D02*
X01513D01*
X01493*
Y02841*
X01533D02*
Y029D01*
X01563*
X01573Y0289*
Y0287*
X01563Y0286*
X01533*
X01633Y02841D02*
X01593D01*
X01633Y0288*
Y0289*
X01623Y029*
X01603*
X01593Y0289*
X01779Y0231D02*
X01818D01*
X01798*
Y02251*
X01838D02*
Y0231D01*
X01868*
X01878Y023*
Y0228*
X01868Y0227*
X01838*
X01898Y02251D02*
X01918D01*
X01908*
Y0231*
X01898Y023*
X03596Y00865D02*
X03576D01*
X03586*
Y00816*
X03576Y00806*
X03567*
X03557Y00816*
X03616Y00806D02*
X03636D01*
X03626*
Y00865*
X03616Y00855*
X03666D02*
X03676Y00865D01*
X03696*
X03706Y00855*
Y00845*
X03696Y00835*
X03706Y00825*
Y00816*
X03696Y00806*
X03676*
X03666Y00816*
Y00825*
X03676Y00835*
X03666Y00845*
Y00855*
X03676Y00835D02*
X03696D01*
X00211Y00215D02*
X00191D01*
X00201*
Y00165*
X00191Y00155*
X00181*
X00171Y00165*
X00231Y00155D02*
X00251D01*
X00241*
Y00215*
X00231Y00205*
X00281Y00215D02*
X00321D01*
Y00205*
X00281Y00165*
Y00155*
X00745Y03429D02*
X00725D01*
X00735*
Y0338*
X00725Y0337*
X00715*
X00705Y0338*
X00765Y0337D02*
X00785D01*
X00775*
Y03429*
X00765Y03419*
X00854Y03429D02*
X00814D01*
Y034*
X00834Y0341*
X00844*
X00854Y034*
Y0338*
X00844Y0337*
X00824*
X00814Y0338*
X00411Y01805D02*
X00391D01*
X00401*
Y01755*
X00391Y01745*
X00381*
X00371Y01755*
X00431Y01745D02*
X00451D01*
X00441*
Y01805*
X00431Y01795*
X00521Y01805D02*
X00501Y01795D01*
X00481Y01775*
Y01755*
X00491Y01745*
X00511*
X00521Y01755*
Y01765*
X00511Y01775*
X00481*
X00635Y03209D02*
X00615D01*
X00625*
Y0316*
X00615Y0315*
X00605*
X00595Y0316*
X00655Y03199D02*
X00664Y03209D01*
X00684*
X00694Y03199*
Y0319*
X00684Y0318*
X00674*
X00684*
X00694Y0317*
Y0316*
X00684Y0315*
X00664*
X00655Y0316*
X0084Y00704D02*
X0082D01*
X0083*
Y00655*
X0082Y00645*
X0081*
X008Y00655*
X0086Y00645D02*
X0088D01*
X0087*
Y00704*
X0086Y00694*
X00949Y00645D02*
X00909D01*
X00949Y00685*
Y00694*
X00939Y00704*
X00919*
X00909Y00694*
X01445Y00719D02*
X01425D01*
X01435*
Y0067*
X01425Y0066*
X01415*
X01405Y0067*
X01465Y0066D02*
X01485D01*
X01475*
Y00719*
X01465Y00709*
X01514Y0066D02*
X01534D01*
X01524*
Y00719*
X01514Y00709*
X0187Y00719D02*
X0185D01*
X0186*
Y0067*
X0185Y0066*
X0184*
X0183Y0067*
X0189Y0066D02*
X0191D01*
X019*
Y00719*
X0189Y00709*
X01939D02*
X01949Y00719D01*
X01969*
X01979Y00709*
Y0067*
X01969Y0066*
X01949*
X01939Y0067*
Y00709*
X02355Y00719D02*
X02335D01*
X02345*
Y0067*
X02335Y0066*
X02325*
X02315Y0067*
X02375D02*
X02384Y0066D01*
X02404*
X02414Y0067*
Y00709*
X02404Y00719*
X02384*
X02375Y00709*
Y007*
X02384Y0069*
X02414*
X0126Y03439D02*
X0124D01*
X0125*
Y0339*
X0124Y0338*
X0123*
X0122Y0339*
X0128Y03429D02*
X01289Y03439D01*
X01309*
X01319Y03429*
Y0342*
X01309Y0341*
X01319Y034*
Y0339*
X01309Y0338*
X01289*
X0128Y0339*
Y034*
X01289Y0341*
X0128Y0342*
Y03429*
X01289Y0341D02*
X01309D01*
X02245Y03479D02*
X02225D01*
X02235*
Y0343*
X02225Y0342*
X02215*
X02205Y0343*
X02265Y03479D02*
X02304D01*
Y03469*
X02265Y0343*
Y0342*
X0175Y03464D02*
X0173D01*
X0174*
Y03415*
X0173Y03405*
X0172*
X0171Y03415*
X01809Y03464D02*
X01789Y03454D01*
X0177Y03435*
Y03415*
X01779Y03405*
X01799*
X01809Y03415*
Y03425*
X01799Y03435*
X0177*
X0275Y03444D02*
X0273D01*
X0274*
Y03395*
X0273Y03385*
X0272*
X0271Y03395*
X02809Y03444D02*
X0277D01*
Y03415*
X02789Y03425*
X02799*
X02809Y03415*
Y03395*
X02799Y03385*
X02779*
X0277Y03395*
X0226Y02634D02*
X0228D01*
X0227*
Y02575*
X0226*
X0228*
X02349Y02624D02*
X0234Y02634D01*
X0232*
X0231Y02624*
Y02585*
X0232Y02575*
X0234*
X02349Y02585*
X02369Y02624D02*
X02379Y02634D01*
X02399*
X02409Y02624*
Y02615*
X02399Y02605*
X02389*
X02399*
X02409Y02595*
Y02585*
X02399Y02575*
X02379*
X02369Y02585*
X0225Y02924D02*
X0224Y02934D01*
X0222*
X0221Y02924*
Y02885*
X0222Y02875*
X0224*
X0225Y02885*
X0227Y02875D02*
X0229D01*
X0228*
Y02934*
X0227Y02924*
X02319Y02934D02*
X02359D01*
Y02924*
X02319Y02885*
Y02875*
X02035Y02919D02*
X02025Y02929D01*
X02005*
X01995Y02919*
Y0288*
X02005Y0287*
X02025*
X02035Y0288*
X02055Y0287D02*
X02075D01*
X02065*
Y02929*
X02055Y02919*
X02144Y02929D02*
X02124Y02919D01*
X02104Y029*
Y0288*
X02114Y0287*
X02134*
X02144Y0288*
Y0289*
X02134Y029*
X02104*
X02365Y02449D02*
X02355Y02459D01*
X02335*
X02325Y02449*
Y0241*
X02335Y024*
X02355*
X02365Y0241*
X02385Y024D02*
X02405D01*
X02395*
Y02459*
X02385Y02449*
X02474Y02459D02*
X02434D01*
Y0243*
X02454Y0244*
X02464*
X02474Y0243*
Y0241*
X02464Y024*
X02444*
X02434Y0241*
X0264Y0264D02*
Y02699D01*
X0267*
X0268Y02689*
Y0267*
X0267Y0266*
X0264*
X0266D02*
X0268Y0264D01*
X027Y0265D02*
X02709Y0264D01*
X02729*
X02739Y0265*
Y02689*
X02729Y02699*
X02709*
X027Y02689*
Y0268*
X02709Y0267*
X02739*
X02934Y00925D02*
X02875D01*
Y00955*
X02885Y00965*
X02905*
X02915Y00955*
Y00925*
Y00945D02*
X02934Y00965D01*
X02875Y01024D02*
Y00985D01*
X02905*
X02895Y01004*
Y01014*
X02905Y01024*
X02924*
X02934Y01014*
Y00994*
X02924Y00985*
X03029Y0092D02*
X0297D01*
Y0095*
X0298Y0096*
X03*
X0301Y0095*
Y0092*
Y0094D02*
X03029Y0096D01*
Y01009D02*
X0297D01*
X03Y0098*
Y01019*
X0163Y03205D02*
Y03264D01*
X0166*
X0167Y03254*
Y03235*
X0166Y03225*
X0163*
X0165D02*
X0167Y03205D01*
X0169Y03254D02*
X01699Y03264D01*
X01719*
X01729Y03254*
Y03245*
X01719Y03235*
X01709*
X01719*
X01729Y03225*
Y03215*
X01719Y03205*
X01699*
X0169Y03215*
X0151Y02965D02*
Y03024D01*
X0154*
X0155Y03014*
Y02995*
X0154Y02985*
X0151*
X0153D02*
X0155Y02965D01*
X01609D02*
X0157D01*
X01609Y03005*
Y03014*
X01599Y03024*
X01579*
X0157Y03014*
X0133Y02955D02*
Y03014D01*
X0136*
X0137Y03004*
Y02985*
X0136Y02975*
X0133*
X0135D02*
X0137Y02955D01*
X01389D02*
X01409D01*
X01399*
Y03014*
X01389Y03004*
X01865Y01789D02*
Y0173D01*
X01905*
X01924D02*
X01944D01*
X01934*
Y01789*
X01924Y01779*
X01015Y01844D02*
X00995D01*
X01005*
Y01795*
X00995Y01785*
X00985*
X00975Y01795*
X01035Y01785D02*
X01055D01*
X01045*
Y01844*
X01035Y01834*
X01114Y01785D02*
Y01844D01*
X01084Y01815*
X01124*
X02795Y00681D02*
X02775D01*
X02785*
Y00631*
X02775Y00621*
X02765*
X02755Y00631*
X02844Y00621D02*
Y00681D01*
X02815Y00651*
X02854*
X02405Y00919D02*
X02425D01*
X02415*
Y0086*
X02405*
X02425*
X02495Y00909D02*
X02485Y00919D01*
X02465*
X02455Y00909*
Y0087*
X02465Y0086*
X02485*
X02495Y0087*
X02554Y0086D02*
X02514D01*
X02554Y009*
Y00909*
X02544Y00919*
X02524*
X02514Y00909*
X02375Y03114D02*
X02395D01*
X02385*
Y03055*
X02375*
X02395*
X02464Y03104D02*
X02454Y03114D01*
X02435*
X02425Y03104*
Y03065*
X02435Y03055*
X02454*
X02464Y03065*
X02484Y03055D02*
X02504D01*
X02494*
Y03114*
X02484Y03104*
X0263Y03139D02*
Y0308D01*
X0266*
X0267Y0309*
Y03129*
X0266Y03139*
X0263*
X02729Y0308D02*
X0269D01*
X02729Y0312*
Y03129*
X02719Y03139*
X02699*
X0269Y03129*
X0301Y01644D02*
Y01585D01*
X0304*
X0305Y01595*
Y01634*
X0304Y01644*
X0301*
X03069Y01585D02*
X03089D01*
X03079*
Y01644*
X03069Y01634*
X0273Y02279D02*
X0272Y02289D01*
X027*
X0269Y02279*
Y0224*
X027Y0223*
X0272*
X0273Y0224*
X0275Y02279D02*
X02759Y02289D01*
X02779*
X02789Y02279*
Y0227*
X02779Y0226*
X02789Y0225*
Y0224*
X02779Y0223*
X02759*
X0275Y0224*
Y0225*
X02759Y0226*
X0275Y0227*
Y02279*
X02759Y0226D02*
X02779D01*
X0299Y01979D02*
X0298Y01989D01*
X0296*
X0295Y01979*
Y0194*
X0296Y0193*
X0298*
X0299Y0194*
X0301Y01989D02*
X03049D01*
Y01979*
X0301Y0194*
Y0193*
X0242Y01089D02*
X0241Y01099D01*
X0239*
X0238Y01089*
Y0105*
X0239Y0104*
X0241*
X0242Y0105*
X02479Y01099D02*
X02459Y01089D01*
X0244Y0107*
Y0105*
X02449Y0104*
X02469*
X02479Y0105*
Y0106*
X02469Y0107*
X0244*
X02575Y01384D02*
X02565Y01394D01*
X02545*
X02535Y01384*
Y01345*
X02545Y01335*
X02565*
X02575Y01345*
X02634Y01394D02*
X02595D01*
Y01365*
X02614Y01375*
X02624*
X02634Y01365*
Y01345*
X02624Y01335*
X02604*
X02595Y01345*
X02925Y01284D02*
X02915Y01294D01*
X02895*
X02885Y01284*
Y01245*
X02895Y01235*
X02915*
X02925Y01245*
X02974Y01235D02*
Y01294D01*
X02945Y01265*
X02984*
X0292Y01169D02*
X0291Y01179D01*
X0289*
X0288Y01169*
Y0113*
X0289Y0112*
X0291*
X0292Y0113*
X0294Y01169D02*
X02949Y01179D01*
X02969*
X02979Y01169*
Y0116*
X02969Y0115*
X02959*
X02969*
X02979Y0114*
Y0113*
X02969Y0112*
X02949*
X0294Y0113*
X0191Y02885D02*
X019Y02875D01*
Y02855*
X0191Y02845*
X01949*
X01959Y02855*
Y02875*
X01949Y02885*
X01959Y02944D02*
Y02905D01*
X0192Y02944*
X0191*
X019Y02934*
Y02914*
X0191Y02905*
X01805Y029D02*
X01795Y0289D01*
Y0287*
X01805Y0286*
X01844*
X01854Y0287*
Y0289*
X01844Y029*
X01854Y02919D02*
Y02939D01*
Y02929*
X01795*
X01805Y02919*
M02*