%FSTAX23Y23*%
%MOIN*%
%SFA1B1*%

%IPPOS*%
%ADD13C,0.010000*%
%ADD65C,0.039370*%
%ADD70R,0.085630X0.085630*%
%ADD71C,0.085630*%
%ADD72R,0.043310X0.043310*%
%ADD73C,0.082680*%
%ADD74C,0.109250*%
%ADD75C,0.060040*%
%ADD76C,0.103350*%
%ADD77C,0.173030*%
%ADD78O,0.157480X0.110240*%
%ADD79O,0.188980X0.110240*%
%ADD80C,0.236220*%
%ADD81C,0.017720*%
%ADD82C,0.031500*%
%ADD83C,0.023620*%
%LNmainpcb-1*%
%LPD*%
G36*
X03856Y00008D02*
X00008D01*
Y03921*
X03856*
Y00008*
G37*
%LNmainpcb-2*%
%LPC*%
G36*
X02985Y03857D02*
Y03821D01*
X03021*
X03016Y03833*
X03008Y03844*
X02996Y03852*
X02985Y03857*
G37*
G36*
X02955D02*
X02943Y03852D01*
X02932Y03844*
X02924Y03833*
X02919Y03821*
X02955*
Y03857*
G37*
G36*
X00237Y03867D02*
X00212D01*
Y03816*
X003*
X00297Y03826*
X00291Y03838*
X00283Y03847*
X00273Y03856*
X00262Y03862*
X0025Y03865*
X00237Y03867*
G37*
G36*
X00183D02*
X00158D01*
X00145Y03865*
X00133Y03862*
X00122Y03856*
X00112Y03847*
X00104Y03838*
X00098Y03826*
X00095Y03816*
X00183*
Y03867*
G37*
G36*
X02479Y03852D02*
Y03816D01*
X02516*
X02511Y03828*
X02502Y03839*
X02491Y03847*
X02479Y03852*
G37*
G36*
X0245D02*
X02438Y03847D01*
X02427Y03839*
X02418Y03828*
X02413Y03816*
X0245*
Y03852*
G37*
G36*
X01979D02*
Y03816D01*
X02016*
X02011Y03828*
X02002Y03839*
X01991Y03847*
X01979Y03852*
G37*
G36*
X0195D02*
X01938Y03847D01*
X01927Y03839*
X01918Y03828*
X01913Y03816*
X0195*
Y03852*
G37*
G36*
X01494Y03851D02*
Y03814D01*
X01531*
X01526Y03826*
X01517Y03837*
X01506Y03846*
X01494Y03851*
G37*
G36*
X01465D02*
X01453Y03846D01*
X01442Y03837*
X01433Y03826*
X01428Y03814*
X01465*
Y03851*
G37*
G36*
X01009Y03847D02*
Y03811D01*
X01046*
X01041Y03823*
X01032Y03834*
X01021Y03842*
X01009Y03847*
G37*
G36*
X0098D02*
X00968Y03842D01*
X00957Y03834*
X00948Y03823*
X00943Y03811*
X0098*
Y03847*
G37*
G36*
X00493Y03849D02*
X00484D01*
Y03798*
X00557*
X00554Y03808*
X00548Y0382*
X00539Y0383*
X00529Y03838*
X00518Y03844*
X00506Y03848*
X00493Y03849*
G37*
G36*
X00455D02*
X00446D01*
X00433Y03848*
X00421Y03844*
X0041Y03838*
X004Y0383*
X00391Y0382*
X00385Y03808*
X00382Y03798*
X00455*
Y03849*
G37*
G36*
X03021Y03791D02*
X02985D01*
Y03755*
X02996Y0376*
X03008Y03768*
X03016Y03779*
X03021Y03791*
G37*
G36*
X02955D02*
X02919D01*
X02924Y03779*
X02932Y03768*
X02943Y0376*
X02955Y03755*
Y03791*
G37*
G36*
X02857Y03859D02*
X02752D01*
Y03753*
X02857*
Y03859*
G37*
G36*
X02516Y03786D02*
X02479D01*
Y0375*
X02491Y03755*
X02502Y03763*
X02511Y03774*
X02516Y03786*
G37*
G36*
X0245D02*
X02413D01*
X02418Y03774*
X02427Y03763*
X02438Y03755*
X0245Y0375*
Y03786*
G37*
G36*
X02016D02*
X01979D01*
Y0375*
X01991Y03755*
X02002Y03763*
X02011Y03774*
X02016Y03786*
G37*
G36*
X0195D02*
X01913D01*
X01918Y03774*
X01927Y03763*
X01938Y03755*
X0195Y0375*
Y03786*
G37*
G36*
X01531Y03785D02*
X01494D01*
Y03748*
X01506Y03753*
X01517Y03762*
X01526Y03773*
X01531Y03785*
G37*
G36*
X01465D02*
X01428D01*
X01433Y03773*
X01442Y03762*
X01453Y03753*
X01465Y03748*
Y03785*
G37*
G36*
X02352Y03854D02*
X02246D01*
Y03748*
X02352*
Y03854*
G37*
G36*
X01852D02*
X01746D01*
Y03748*
X01852*
Y03854*
G37*
G36*
X01367Y03852D02*
X01261D01*
Y03747*
X01367*
Y03852*
G37*
G36*
X01046Y03781D02*
X01009D01*
Y03745*
X01021Y0375*
X01032Y03758*
X01041Y03769*
X01046Y03781*
G37*
G36*
X0098D02*
X00943D01*
X00948Y03769*
X00957Y03758*
X00968Y0375*
X0098Y03745*
Y03781*
G37*
G36*
X00882Y03849D02*
X00776D01*
Y03743*
X00882*
Y03849*
G37*
G36*
X003Y03786D02*
X00212D01*
Y03736*
X00237*
X0025Y03737*
X00262Y03741*
X00273Y03747*
X00283Y03755*
X00291Y03765*
X00297Y03776*
X003Y03786*
G37*
G36*
X00183D02*
X00095D01*
X00098Y03776*
X00104Y03765*
X00112Y03755*
X00122Y03747*
X00133Y03741*
X00145Y03737*
X00158Y03736*
X00183*
Y03786*
G37*
G36*
X00557Y03769D02*
X00484D01*
Y03718*
X00493*
X00506Y03719*
X00518Y03723*
X00529Y03729*
X00539Y03737*
X00548Y03747*
X00554Y03758*
X00557Y03769*
G37*
G36*
X00455D02*
X00382D01*
X00385Y03758*
X00391Y03747*
X004Y03737*
X0041Y03729*
X00421Y03723*
X00433Y03719*
X00446Y03718*
X00455*
Y03769*
G37*
G36*
X03661Y03907D02*
X03641Y03906D01*
X03621Y03901*
X03603Y03893*
X03585Y03883*
X0357Y0387*
X03557Y03854*
X03547Y03837*
X03539Y03819*
X03534Y03799*
X03533Y03779*
X03534Y03759*
X03539Y03739*
X03547Y03721*
X03557Y03704*
X0357Y03688*
X03585Y03675*
X03603Y03665*
X03621Y03657*
X03641Y03652*
X03661Y03651*
X03681Y03652*
X03701Y03657*
X03719Y03665*
X03736Y03675*
X03752Y03688*
X03765Y03704*
X03775Y03721*
X03783Y03739*
X03788Y03759*
X03789Y03779*
X03788Y03799*
X03783Y03819*
X03775Y03837*
X03765Y03854*
X03752Y0387*
X03736Y03883*
X03719Y03893*
X03701Y03901*
X03681Y03906*
X03661Y03907*
G37*
G36*
X00675Y037D02*
X00668Y03699D01*
X00662Y03697*
X00656Y03693*
X00652Y03687*
X0065Y03681*
X00649Y03675*
X0065Y03668*
X00652Y03662*
X00656Y03656*
X00662Y03652*
X00668Y0365*
X00675Y03649*
X00681Y0365*
X00687Y03652*
X00693Y03656*
X00697Y03662*
X00699Y03668*
X007Y03675*
X00699Y03681*
X00697Y03687*
X00693Y03693*
X00687Y03697*
X00681Y03699*
X00675Y037*
G37*
G36*
X0297Y03643D02*
X02956Y03641D01*
X02943Y03636*
X02932Y03627*
X02924Y03616*
X02919Y03603*
X02917Y0359*
X02919Y03576*
X02924Y03563*
X02932Y03552*
X02943Y03544*
X02956Y03538*
X0297Y03536*
X02984Y03538*
X02996Y03544*
X03007Y03552*
X03016Y03563*
X03021Y03576*
X03023Y0359*
X03021Y03603*
X03016Y03616*
X03007Y03627*
X02996Y03636*
X02984Y03641*
X0297Y03643*
G37*
G36*
X02805D02*
X02791Y03641D01*
X02778Y03636*
X02767Y03627*
X02759Y03616*
X02753Y03603*
X02751Y0359*
X02753Y03576*
X02759Y03563*
X02767Y03552*
X02778Y03544*
X02791Y03538*
X02805Y03536*
X02818Y03538*
X02831Y03544*
X02842Y03552*
X02851Y03563*
X02856Y03576*
X02858Y0359*
X02856Y03603*
X02851Y03616*
X02842Y03627*
X02831Y03636*
X02818Y03641*
X02805Y03643*
G37*
G36*
X02465Y03638D02*
X02451Y03636D01*
X02438Y03631*
X02427Y03622*
X02419Y03611*
X02413Y03598*
X02411Y03585*
X02413Y03571*
X02419Y03558*
X02427Y03547*
X02438Y03539*
X02451Y03533*
X02465Y03531*
X02478Y03533*
X02491Y03539*
X02502Y03547*
X02511Y03558*
X02516Y03571*
X02518Y03585*
X02516Y03598*
X02511Y03611*
X02502Y03622*
X02491Y03631*
X02478Y03636*
X02465Y03638*
G37*
G36*
X02299D02*
X02285Y03636D01*
X02273Y03631*
X02262Y03622*
X02253Y03611*
X02248Y03598*
X02246Y03585*
X02248Y03571*
X02253Y03558*
X02262Y03547*
X02273Y03539*
X02285Y03533*
X02299Y03531*
X02313Y03533*
X02326Y03539*
X02337Y03547*
X02345Y03558*
X0235Y03571*
X02352Y03585*
X0235Y03598*
X02345Y03611*
X02337Y03622*
X02326Y03631*
X02313Y03636*
X02299Y03638*
G37*
G36*
X01965D02*
X01951Y03636D01*
X01938Y03631*
X01927Y03622*
X01919Y03611*
X01913Y03598*
X01911Y03585*
X01913Y03571*
X01919Y03558*
X01927Y03547*
X01938Y03539*
X01951Y03533*
X01965Y03531*
X01978Y03533*
X01991Y03539*
X02002Y03547*
X02011Y03558*
X02016Y03571*
X02018Y03585*
X02016Y03598*
X02011Y03611*
X02002Y03622*
X01991Y03631*
X01978Y03636*
X01965Y03638*
G37*
G36*
X01799D02*
X01785Y03636D01*
X01773Y03631*
X01762Y03622*
X01753Y03611*
X01748Y03598*
X01746Y03585*
X01748Y03571*
X01753Y03558*
X01762Y03547*
X01773Y03539*
X01785Y03533*
X01799Y03531*
X01813Y03533*
X01826Y03539*
X01837Y03547*
X01845Y03558*
X0185Y03571*
X01852Y03585*
X0185Y03598*
X01845Y03611*
X01837Y03622*
X01826Y03631*
X01813Y03636*
X01799Y03638*
G37*
G36*
X0148Y03636D02*
X01466Y03634D01*
X01453Y03629*
X01442Y03621*
X01434Y0361*
X01428Y03597*
X01426Y03583*
X01428Y03569*
X01434Y03556*
X01442Y03545*
X01453Y03537*
X01466Y03532*
X0148Y0353*
X01493Y03532*
X01506Y03537*
X01517Y03545*
X01526Y03556*
X01531Y03569*
X01533Y03583*
X01531Y03597*
X01526Y0361*
X01517Y03621*
X01506Y03629*
X01493Y03634*
X0148Y03636*
G37*
G36*
X01314D02*
X013Y03634D01*
X01288Y03629*
X01277Y03621*
X01268Y0361*
X01263Y03597*
X01261Y03583*
X01263Y03569*
X01268Y03556*
X01277Y03545*
X01288Y03537*
X013Y03532*
X01314Y0353*
X01328Y03532*
X01341Y03537*
X01352Y03545*
X0136Y03556*
X01365Y03569*
X01367Y03583*
X01365Y03597*
X0136Y0361*
X01352Y03621*
X01341Y03629*
X01328Y03634*
X01314Y03636*
G37*
G36*
X00995Y03633D02*
X00981Y03631D01*
X00968Y03626*
X00957Y03617*
X00949Y03606*
X00943Y03593*
X00941Y0358*
X00943Y03566*
X00949Y03553*
X00957Y03542*
X00968Y03534*
X00981Y03528*
X00995Y03526*
X01008Y03528*
X01021Y03534*
X01032Y03542*
X01041Y03553*
X01046Y03566*
X01048Y0358*
X01046Y03593*
X01041Y03606*
X01032Y03617*
X01021Y03626*
X01008Y03631*
X00995Y03633*
G37*
G36*
X00493Y03341D02*
X00484D01*
Y0329*
X00557*
X00554Y03301*
X00548Y03312*
X00539Y03322*
X00529Y0333*
X00518Y03336*
X00506Y0334*
X00493Y03341*
G37*
G36*
X00455D02*
X00446D01*
X00433Y0334*
X00421Y03336*
X0041Y0333*
X004Y03322*
X00391Y03312*
X00385Y03301*
X00382Y0329*
X00455*
Y03341*
G37*
G36*
X00237Y03323D02*
X00212D01*
Y03273*
X003*
X00297Y03283*
X00291Y03294*
X00283Y03304*
X00273Y03312*
X00262Y03318*
X0025Y03322*
X00237Y03323*
G37*
G36*
X00183D02*
X00158D01*
X00145Y03322*
X00133Y03318*
X00122Y03312*
X00112Y03304*
X00104Y03294*
X00098Y03283*
X00095Y03273*
X00183*
Y03323*
G37*
G36*
X01975Y03309D02*
X01967Y03307D01*
X01961Y03303*
X01957Y03297*
X01955Y0329*
X01957Y03282*
X01961Y03276*
X01967Y03272*
X01975Y0327*
X01982Y03272*
X01988Y03276*
X01992Y03282*
X01994Y0329*
X01992Y03297*
X01988Y03303*
X01982Y03307*
X01975Y03309*
G37*
G36*
X00557Y03261D02*
X00484D01*
Y0321*
X00493*
X00506Y03211*
X00518Y03215*
X00529Y03221*
X00539Y03229*
X00548Y03239*
X00554Y03251*
X00557Y03261*
G37*
G36*
X00455D02*
X00382D01*
X00385Y03251*
X00391Y03239*
X004Y03229*
X0041Y03221*
X00421Y03215*
X00433Y03211*
X00446Y0321*
X00455*
Y03261*
G37*
G36*
X01415Y03243D02*
X01408Y03241D01*
X01402Y03237*
X01398Y03231*
X01396Y03224*
X01398Y03216*
X01402Y0321*
X01408Y03206*
X01415Y03205*
X01423Y03206*
X01429Y0321*
X01433Y03216*
X01434Y03224*
X01433Y03231*
X01429Y03237*
X01423Y03241*
X01415Y03243*
G37*
G36*
X01555Y03239D02*
X01547Y03237D01*
X01541Y03233*
X01537Y03227*
X01535Y0322*
X01537Y03212*
X01541Y03206*
X01547Y03202*
X01555Y032*
X01562Y03202*
X01568Y03206*
X01572Y03212*
X01574Y0322*
X01572Y03227*
X01568Y03233*
X01562Y03237*
X01555Y03239*
G37*
G36*
X03314Y03195D02*
D01*
X02445*
X02439Y03194*
X02434Y0319*
X02163Y0292*
X00645*
X00643Y02925*
X00647Y02927*
X00657Y02935*
X00665Y02944*
X00671Y02956*
X00674Y02966*
X00611*
X00548*
X00551Y02956*
X00557Y02944*
X00565Y02935*
X00575Y02927*
X00579Y02925*
X00577Y0292*
X00473*
X00468Y02918*
X00463Y02915*
X00421Y02874*
X00419Y02875*
X00407Y02879*
X00395Y0288*
X00382Y02879*
X0037Y02875*
X00359Y02869*
X00349Y02861*
X00341Y02851*
X00335Y0284*
X00331Y02828*
X0033Y02815*
X00331Y02803*
X00335Y0279*
X00341Y02779*
X00349Y02769*
X00359Y02761*
X0037Y02755*
X00382Y02752*
X00395Y0275*
X00407Y02752*
X00419Y02755*
X0043Y02761*
X0044Y02769*
X00448Y02779*
X00454Y0279*
X00458Y02803*
X00459Y02815*
X00458Y02828*
X00454Y0284*
X00448Y02851*
X00445Y02855*
X0048Y02889*
X02166*
X02169Y02884*
X02167Y02882*
X02165Y02875*
X02167Y02867*
X02171Y02861*
X02177Y02857*
X02185Y02855*
X02192Y02857*
X02198Y02861*
X02202Y02867*
X02204Y02875*
X02202Y02882*
X02198Y02888*
X02192Y02892*
X02187Y02893*
X02185Y02898*
X02451Y03164*
X03314*
X03314Y03164*
X03443*
X03714Y02893*
Y02276*
X0368Y02241*
X03668*
X03668Y02243*
X03664Y02254*
X03658Y02265*
X03651Y02275*
X03641Y02282*
X03631Y02288*
X03619Y02291*
X03607Y02293*
X03595Y02291*
X03583Y02288*
X03573Y02282*
X03563Y02275*
X03556Y02265*
X0355Y02254*
X03546Y02243*
X03545Y02231*
X03546Y02219*
X0355Y02207*
X03556Y02196*
X03563Y02187*
X03573Y02179*
X03583Y02174*
X03595Y0217*
X03607Y02169*
X03619Y0217*
X03631Y02174*
X03641Y02179*
X03651Y02187*
X03658Y02196*
X03664Y02207*
X03665Y02211*
X03686*
X03692Y02212*
X03697Y02215*
X0374Y02259*
X03743Y02264*
X03745Y0227*
Y029*
X03743Y02905*
X0374Y0291*
X0346Y0319*
X03455Y03193*
X0345Y03195*
X03314*
X03314Y03195*
G37*
G36*
X01976Y03232D02*
X01969Y03231D01*
X01963Y03226*
X01958Y0322*
X01957Y03213*
X01958Y03206*
X01963Y03199*
X01969Y03195*
X01976Y03194*
X01983Y03195*
X0199Y03199*
X01994Y03206*
X01995Y03213*
X01994Y0322*
X0199Y03226*
X01983Y03231*
X01976Y03232*
G37*
G36*
X02326Y03232D02*
X02319Y0323D01*
X02313Y03226*
X02309Y0322*
X02307Y03213*
X02309Y03206*
X02313Y03199*
X02319Y03195*
X02326Y03194*
X02333Y03195*
X0234Y03199*
X02344Y03206*
X02345Y03213*
X02344Y0322*
X0234Y03226*
X02333Y0323*
X02326Y03232*
G37*
G36*
X003Y03243D02*
X00212D01*
Y03192*
X00237*
X0025Y03194*
X00262Y03197*
X00273Y03203*
X00283Y03212*
X00291Y03221*
X00297Y03233*
X003Y03243*
G37*
G36*
X00183D02*
X00095D01*
X00098Y03233*
X00104Y03221*
X00112Y03212*
X00122Y03203*
X00133Y03197*
X00145Y03194*
X00158Y03192*
X00183*
Y03243*
G37*
G36*
X01959Y03128D02*
X01952Y03127D01*
X01948Y03124*
X0153*
X0153Y03124*
X01496*
X01492Y03127*
X01485Y03128*
X01478Y03127*
X01472Y03122*
X01468Y03116*
X01466Y03109*
X01468Y03102*
X01472Y03095*
X01478Y03091*
X01485Y0309*
X01492Y03091*
X01496Y03094*
X0153*
X0153Y03094*
X01949*
X01952Y03091*
X01959Y0309*
X01966Y03091*
X01973Y03096*
X01977Y03102*
X01978Y03109*
X01977Y03116*
X01973Y03123*
X01966Y03127*
X01959Y03128*
G37*
G36*
X02326Y03155D02*
X02319Y03154D01*
X02313Y0315*
X02309Y03143*
X02307Y03136*
X02309Y03129*
X02313Y03123*
X02319Y03119*
X02326Y03117*
X02333Y03119*
X0234Y03123*
X02344Y03129*
X02345Y03136*
X02344Y03143*
X0234Y0315*
X02333Y03154*
X02326Y03155*
G37*
G36*
X00829Y03633D02*
X00815Y03631D01*
X00803Y03626*
X00792Y03617*
X00783Y03606*
X00778Y03593*
X00776Y0358*
X00778Y03566*
X00783Y03553*
X00792Y03542*
X00803Y03534*
X00814Y03529*
Y03432*
X00421Y03039*
X00419Y0304*
X00407Y03044*
X00395Y03045*
X00382Y03044*
X0037Y0304*
X00359Y03034*
X00349Y03026*
X00341Y03017*
X00335Y03005*
X00331Y02993*
X0033Y02981*
X00331Y02968*
X00335Y02956*
X00341Y02945*
X00349Y02935*
X00359Y02927*
X0037Y02921*
X00382Y02917*
X00395Y02916*
X00407Y02917*
X00419Y02921*
X0043Y02927*
X0044Y02935*
X00448Y02945*
X00454Y02956*
X00458Y02968*
X00459Y02981*
X00458Y02993*
X00454Y03005*
X00448Y03017*
X00445Y0302*
X0084Y03415*
X00843Y0342*
X00844Y03426*
Y03529*
X00856Y03534*
X00867Y03542*
X00875Y03553*
X0088Y03566*
X00882Y0358*
X0088Y03593*
X00875Y03606*
X00867Y03617*
X00856Y03626*
X00843Y03631*
X00829Y03633*
G37*
G36*
X0181Y03069D02*
X01802Y03067D01*
X01796Y03063*
X01792Y03057*
X0179Y0305*
X01792Y03042*
X01796Y03036*
X01802Y03032*
X0181Y0303*
X01817Y03032*
X01823Y03036*
X01827Y03042*
X01829Y0305*
X01827Y03057*
X01823Y03063*
X01817Y03067*
X0181Y03069*
G37*
G36*
X00626Y03044D02*
Y02995D01*
X00674*
X00671Y03005*
X00665Y03017*
X00657Y03026*
X00647Y03035*
X00636Y03041*
X00626Y03044*
G37*
G36*
X00596D02*
X00586Y03041D01*
X00575Y03035*
X00565Y03026*
X00557Y03017*
X00551Y03005*
X00548Y02995*
X00596*
Y03044*
G37*
G36*
X03484Y03055D02*
Y02974D01*
X03565*
X03564Y02978*
X03559Y02996*
X0355Y03013*
X03538Y03028*
X03523Y0304*
X03506Y03049*
X03488Y03054*
X03484Y03055*
G37*
G36*
X03454D02*
X0345Y03054D01*
X03432Y03049*
X03415Y0304*
X03401Y03028*
X03389Y03013*
X0338Y02996*
X03374Y02978*
X03374Y02974*
X03454*
Y03055*
G37*
G36*
X02511Y03001D02*
X02448D01*
Y02938*
X02511*
Y03001*
G37*
G36*
X00107Y03051D02*
X00093Y03049D01*
X0008Y03045*
X00068Y03039*
X00057Y0303*
X00049Y0302*
X00042Y03007*
X00038Y02994*
X00037Y02981*
X00038Y02967*
X00042Y02954*
X00049Y02942*
X00057Y02931*
X00068Y02922*
X0008Y02916*
X00093Y02912*
X00107Y0291*
X00121Y02912*
X00134Y02916*
X00146Y02922*
X00157Y02931*
X00165Y02942*
X00172Y02954*
X00176Y02967*
X00177Y02981*
X00176Y02994*
X00172Y03007*
X00165Y0302*
X00157Y0303*
X00146Y03039*
X00134Y03045*
X00121Y03049*
X00107Y03051*
G37*
G36*
X03565Y02944D02*
X03484D01*
Y02864*
X03488Y02864*
X03506Y0287*
X03523Y02879*
X03538Y02891*
X0355Y02905*
X03559Y02922*
X03564Y0294*
X03565Y02944*
G37*
G36*
X03454D02*
X03374D01*
X03374Y0294*
X0338Y02922*
X03389Y02905*
X03401Y02891*
X03415Y02879*
X03432Y0287*
X0345Y02864*
X03454Y02864*
Y02944*
G37*
G36*
X01556Y02781D02*
X01539D01*
Y02764*
X01556*
Y02781*
G37*
G36*
X0151D02*
X01493D01*
Y02764*
X0151*
Y02781*
G37*
G36*
X03292Y02765D02*
X0328Y02764D01*
X03268Y0276*
X03258Y02755*
X03248Y02747*
X03241Y02739*
X03239Y02739*
X02702*
X02697Y02742*
X0269Y02744*
X02682Y02742*
X02676Y02738*
X02672Y02732*
X0267Y02725*
X02672Y02717*
X02676Y02711*
X02682Y02707*
X0269Y02705*
X02697Y02707*
X02699Y02709*
X03227*
X0323Y02705*
X0323Y02703*
X03231Y02691*
X03235Y0268*
X03241Y02669*
X03248Y0266*
X03258Y02652*
X03268Y02646*
X0328Y02643*
X03292Y02641*
X03304Y02643*
X03316Y02646*
X03326Y02652*
X03336Y0266*
X03343Y02669*
X03349Y0268*
X03353Y02691*
X03354Y02703*
X03353Y02715*
X03349Y02727*
X03343Y02738*
X03336Y02747*
X03326Y02755*
X03316Y0276*
X03304Y02764*
X03292Y02765*
G37*
G36*
X01556Y02735D02*
X01539D01*
Y02718*
X01556*
Y02735*
G37*
G36*
X0151D02*
X01493D01*
Y02718*
X0151*
Y02735*
G37*
G36*
X03607Y02765D02*
X03595Y02764D01*
X03583Y0276*
X03573Y02755*
X03563Y02747*
X03556Y02738*
X0355Y02727*
X03546Y02715*
X03545Y02703*
X03546Y02691*
X0355Y0268*
X03556Y02669*
X03563Y0266*
X03573Y02652*
X03583Y02646*
X03595Y02643*
X03607Y02641*
X03619Y02643*
X03631Y02646*
X03641Y02652*
X03651Y0266*
X03658Y02669*
X03664Y0268*
X03668Y02691*
X03669Y02703*
X03668Y02715*
X03664Y02727*
X03658Y02738*
X03651Y02747*
X03641Y02755*
X03631Y0276*
X03619Y02764*
X03607Y02765*
G37*
G36*
X00611Y02715D02*
X00598Y02713D01*
X00586Y0271*
X00575Y02704*
X00565Y02696*
X00557Y02686*
X00551Y02675*
X00548Y02662*
X00546Y0265*
X00548Y02637*
X00551Y02625*
X00557Y02614*
X00565Y02604*
X00575Y02596*
X00586Y0259*
X00587Y0259*
X00587Y02585*
X00464*
X00442Y02606*
X00448Y02614*
X00454Y02625*
X00458Y02637*
X00459Y0265*
X00458Y02662*
X00454Y02675*
X00448Y02686*
X0044Y02696*
X0043Y02704*
X00419Y0271*
X00407Y02713*
X00395Y02715*
X00382Y02713*
X0037Y0271*
X00359Y02704*
X00349Y02696*
X00341Y02686*
X00335Y02675*
X00331Y02662*
X0033Y0265*
X00331Y02637*
X00335Y02625*
X00341Y02614*
X00349Y02604*
X00359Y02596*
X0037Y0259*
X00382Y02586*
X00395Y02585*
X00407Y02586*
X00417Y02589*
X00447Y02559*
X00452Y02556*
X00458Y02554*
X03105*
X03155Y02504*
X03239Y0242*
X03235Y02412*
X03231Y024*
X0323Y02388*
X03231Y02376*
X03235Y02365*
X03241Y02354*
X03248Y02345*
X03258Y02337*
X03268Y02331*
X0328Y02328*
X03292Y02326*
X03304Y02328*
X03316Y02331*
X03326Y02337*
X03336Y02345*
X03343Y02354*
X03349Y02365*
X03353Y02376*
X03354Y02388*
X03353Y024*
X03349Y02412*
X03343Y02423*
X03336Y02432*
X03326Y0244*
X03316Y02445*
X03304Y02449*
X03292Y0245*
X0328Y02449*
X03268Y02445*
X03261Y02441*
X03177Y02525*
X03122Y0258*
X03117Y02583*
X03111Y02585*
X00635*
X00635Y0259*
X00636Y0259*
X00647Y02596*
X00657Y02604*
X00665Y02614*
X00671Y02625*
X00674Y02634*
X03154*
X0323Y02558*
X03231Y02557*
X0323Y02546*
X03231Y02534*
X03235Y02522*
X03241Y02511*
X03248Y02502*
X03258Y02494*
X03268Y02489*
X0328Y02485*
X03292Y02484*
X03304Y02485*
X03316Y02489*
X03326Y02494*
X03336Y02502*
X03343Y02511*
X03349Y02522*
X03353Y02534*
X03354Y02546*
X03353Y02558*
X03349Y02569*
X03343Y0258*
X03336Y02589*
X03326Y02597*
X03316Y02603*
X03304Y02606*
X03292Y02608*
X0328Y02606*
X03268Y02603*
X03258Y02597*
X03248Y02589*
X03247Y02588*
X03242Y02588*
X03171Y0266*
X03166Y02663*
X0316Y02664*
X00674*
X00671Y02675*
X00665Y02686*
X00657Y02696*
X00647Y02704*
X00636Y0271*
X00624Y02713*
X00611Y02715*
G37*
G36*
Y0288D02*
X00598Y02879D01*
X00586Y02875*
X00575Y02869*
X00565Y02861*
X00557Y02851*
X00551Y0284*
X00548Y02828*
X00546Y02815*
X00548Y02803*
X00551Y0279*
X00557Y02779*
X00565Y02769*
X00575Y02761*
X00586Y02755*
X00598Y02752*
X00611Y0275*
X00624Y02752*
X00636Y02755*
X00647Y02761*
X00657Y02769*
X00665Y02779*
X00671Y0279*
X00674Y02799*
X03323*
X03434Y02689*
X03433Y02684*
X03426Y02682*
X03415Y02676*
X03406Y02668*
X03398Y02659*
X03392Y02648*
X03389Y02637*
X03388Y02625*
X03389Y02612*
X03392Y02601*
X03398Y0259*
X03406Y02581*
X03415Y02573*
X03426Y02567*
X03437Y02564*
X0345Y02563*
X03462Y02564*
X03473Y02567*
X03484Y02573*
X03493Y02581*
X03501Y0259*
X03507Y02601*
X0351Y02612*
X03511Y02625*
X0351Y02637*
X03507Y02648*
X03501Y02659*
X03493Y02668*
X03484Y02676*
X03473Y02682*
X03465Y02684*
Y02695*
X03463Y027*
X0346Y02705*
X0334Y02825*
X03335Y02828*
X0333Y0283*
X00674*
X00671Y0284*
X00665Y02851*
X00657Y02861*
X00647Y02869*
X00636Y02875*
X00624Y02879*
X00611Y0288*
G37*
G36*
X00409Y02548D02*
Y02499D01*
X00458*
X00455Y02509*
X00448Y02521*
X0044Y0253*
X00431Y02539*
X00419Y02545*
X00409Y02548*
G37*
G36*
X0038D02*
X0037Y02545D01*
X00358Y02539*
X00349Y0253*
X00341Y02521*
X00335Y02509*
X00331Y02499*
X0038*
Y02548*
G37*
G36*
X03607Y02608D02*
X03595Y02606D01*
X03583Y02603*
X03573Y02597*
X03563Y02589*
X03556Y0258*
X0355Y02569*
X03546Y02558*
X03545Y02546*
X03546Y02534*
X0355Y02522*
X03556Y02511*
X03563Y02502*
X03573Y02494*
X03583Y02489*
X03595Y02485*
X03607Y02484*
X03619Y02485*
X03631Y02489*
X03641Y02494*
X03651Y02502*
X03658Y02511*
X03664Y02522*
X03668Y02534*
X03669Y02546*
X03668Y02558*
X03664Y02569*
X03658Y0258*
X03651Y02589*
X03641Y02597*
X03631Y02603*
X03619Y02606*
X03607Y02608*
G37*
G36*
X03464Y02527D02*
Y02482D01*
X03509*
X03507Y02491*
X03501Y02501*
X03493Y02511*
X03484Y02519*
X03473Y02524*
X03464Y02527*
G37*
G36*
X03435D02*
X03426Y02524D01*
X03415Y02519*
X03406Y02511*
X03398Y02501*
X03392Y02491*
X0339Y02482*
X03435*
Y02527*
G37*
G36*
X00458Y0247D02*
X00409D01*
Y02421*
X00419Y02425*
X00431Y02431*
X0044Y02439*
X00448Y02448*
X00455Y0246*
X00458Y0247*
G37*
G36*
X0038D02*
X00331D01*
X00335Y0246*
X00341Y02448*
X00349Y02439*
X00358Y02431*
X0037Y02425*
X0038Y02421*
Y0247*
G37*
G36*
X0209Y02449D02*
X02082Y02447D01*
X02076Y02443*
X02072Y02437*
X0207Y0243*
X02072Y02422*
X02076Y02416*
X02082Y02412*
X0209Y0241*
X02097Y02412*
X02103Y02416*
X02107Y02422*
X02109Y0243*
X02107Y02437*
X02103Y02443*
X02097Y02447*
X0209Y02449*
G37*
G36*
X03435Y02452D02*
X0339D01*
X03392Y02443*
X03398Y02433*
X03406Y02423*
X03415Y02415*
X03426Y0241*
X03435Y02407*
Y02452*
G37*
G36*
X03509D02*
X03464D01*
Y02407*
X03473Y0241*
X03484Y02415*
X03493Y02423*
X03501Y02433*
X03507Y02443*
X03509Y02452*
G37*
G36*
X03622Y02448D02*
Y02403D01*
X03667*
X03664Y02412*
X03659Y02423*
X03651Y02432*
X03641Y0244*
X03631Y02446*
X03622Y02448*
G37*
G36*
X03592D02*
X03583Y02446D01*
X03573Y0244*
X03563Y02432*
X03555Y02423*
X0355Y02412*
X03547Y02403*
X03592*
Y02448*
G37*
G36*
X00626Y02382D02*
Y02334D01*
X00674*
X00671Y02344*
X00665Y02355*
X00657Y02365*
X00647Y02373*
X00636Y02379*
X00626Y02382*
G37*
G36*
X00596D02*
X00586Y02379D01*
X00575Y02373*
X00565Y02365*
X00557Y02355*
X00551Y02344*
X00548Y02334*
X00596*
Y02382*
G37*
G36*
X03667Y02374D02*
X03622D01*
Y02328*
X03631Y02331*
X03641Y02337*
X03651Y02344*
X03659Y02354*
X03664Y02365*
X03667Y02374*
G37*
G36*
X03592D02*
X03547D01*
X0355Y02365*
X03555Y02354*
X03563Y02344*
X03573Y02337*
X03583Y02331*
X03592Y02328*
Y02374*
G37*
G36*
X03464Y0237D02*
Y02324D01*
X03509*
X03507Y02333*
X03501Y02344*
X03493Y02353*
X03484Y02361*
X03473Y02367*
X03464Y0237*
G37*
G36*
X03435D02*
X03426Y02367D01*
X03415Y02361*
X03406Y02353*
X03398Y02344*
X03392Y02333*
X0339Y02324*
X03435*
Y0237*
G37*
G36*
X00395Y02384D02*
X00382Y02383D01*
X0037Y02379*
X00359Y02373*
X00349Y02365*
X00341Y02355*
X00335Y02344*
X00331Y02332*
X0033Y02319*
X0033Y02318*
X00326Y02315*
X00319*
X00314Y02313*
X00309Y0231*
X00224Y02225*
X00221Y0222*
X00219Y02215*
Y01805*
X00221Y01799*
X00224Y01794*
X00339Y01679*
X00344Y01676*
X0035Y01674*
X01413*
X02412Y00675*
X02417Y00672*
X02423Y00671*
X03651*
X03657Y00672*
X03662Y00675*
X03805Y00819*
X03808Y00824*
X0381Y0083*
Y0203*
X03808Y02035*
X03805Y0204*
X03749Y02096*
X03744Y02099*
X03739Y021*
X03662*
X03658Y02108*
X03651Y02117*
X03641Y02125*
X03631Y0213*
X03619Y02134*
X03607Y02135*
X03595Y02134*
X03583Y0213*
X03573Y02125*
X03563Y02117*
X03556Y02108*
X0355Y02097*
X03546Y02085*
X03545Y02073*
X03546Y02061*
X0355Y0205*
X03556Y02039*
X03563Y0203*
X03573Y02022*
X03583Y02016*
X03595Y02013*
X03607Y02012*
X03619Y02013*
X03631Y02016*
X03641Y02022*
X03651Y0203*
X03658Y02039*
X03664Y0205*
X03668Y02061*
X03668Y0207*
X03732*
X03779Y02023*
Y00836*
X03645Y00701*
X02429*
X0143Y017*
X01425Y01703*
X0142Y01705*
X00356*
X0025Y01811*
Y02208*
X00326Y02284*
X0034*
X00341Y02283*
X00349Y02273*
X00359Y02265*
X0037Y02259*
X00382Y02256*
X00395Y02254*
X00407Y02256*
X00419Y02259*
X0043Y02265*
X0044Y02273*
X00448Y02283*
X00454Y02294*
X00458Y02307*
X00459Y02319*
X00458Y02332*
X00454Y02344*
X00448Y02355*
X0044Y02365*
X0043Y02373*
X00419Y02379*
X00407Y02383*
X00395Y02384*
G37*
G36*
X00674Y02304D02*
X00626D01*
Y02256*
X00636Y02259*
X00647Y02265*
X00657Y02273*
X00665Y02283*
X00671Y02294*
X00674Y02304*
G37*
G36*
X00596D02*
X00548D01*
X00551Y02294*
X00557Y02283*
X00565Y02273*
X00575Y02265*
X00586Y02259*
X00596Y02256*
Y02304*
G37*
G36*
X03509Y02295D02*
X03464D01*
Y0225*
X03473Y02252*
X03484Y02258*
X03493Y02266*
X03501Y02275*
X03507Y02286*
X03509Y02295*
G37*
G36*
X03435D02*
X0339D01*
X03392Y02286*
X03398Y02275*
X03406Y02266*
X03415Y02258*
X03426Y02252*
X03435Y0225*
Y02295*
G37*
G36*
X03307Y02291D02*
Y02246D01*
X03352*
X03349Y02255*
X03344Y02265*
X03336Y02275*
X03326Y02282*
X03316Y02288*
X03307Y02291*
G37*
G36*
X03277D02*
X03268Y02288D01*
X03258Y02282*
X03248Y02275*
X0324Y02265*
X03235Y02255*
X03232Y02246*
X03277*
Y02291*
G37*
G36*
X01295Y0222D02*
D01*
X00646*
X0064Y02218*
X00635Y02215*
X00634Y02214*
X00624Y02217*
X00611Y02219*
X00598Y02217*
X00586Y02214*
X00575Y02208*
X00565Y022*
X00557Y0219*
X00551Y02179*
X00548Y02166*
X00546Y02154*
X00548Y02141*
X00551Y02129*
X00557Y02118*
X00565Y02108*
X00575Y021*
X00586Y02094*
X00598Y0209*
X00611Y02089*
X00624Y0209*
X00636Y02094*
X00647Y021*
X00657Y02108*
X00665Y02118*
X00671Y02129*
X00675Y02141*
X00676Y02154*
X00675Y02166*
X00671Y02179*
X00667Y02185*
X0067Y02189*
X01288*
X02339Y01139*
X02344Y01136*
X0235Y01134*
X03095*
X031Y01136*
X03105Y01139*
X03525Y01559*
X03528Y01564*
X0353Y0157*
Y0179*
X03528Y01795*
X03525Y018*
X03508Y01818*
X0351Y01825*
X03511Y01837*
X0351Y01849*
X03507Y01861*
X03501Y01871*
X03493Y01881*
X03484Y01888*
X03473Y01894*
X03462Y01898*
X0345Y01899*
X03437Y01898*
X03426Y01894*
X03415Y01888*
X03406Y01881*
X03398Y01871*
X03392Y01861*
X03389Y01849*
X03388Y01837*
X03389Y01825*
X03392Y01813*
X03398Y01803*
X03406Y01793*
X03415Y01786*
X03426Y0178*
X03437Y01776*
X0345Y01775*
X03462Y01776*
X03473Y0178*
X03484Y01786*
X03491Y01792*
X03499Y01783*
Y01723*
X03495Y01722*
X03493Y01723*
X03484Y01731*
X03473Y01737*
X03464Y0174*
Y0168*
Y0162*
X03473Y01622*
X03484Y01628*
X03493Y01636*
X03495Y01637*
X03499Y01636*
Y01576*
X03088Y01165*
X02356*
X01305Y02215*
X013Y02218*
X01299Y02219*
X01295Y0222*
G37*
G36*
X00395Y02219D02*
X00382Y02217D01*
X0037Y02214*
X00359Y02208*
X00349Y022*
X00341Y0219*
X00335Y02179*
X00331Y02166*
X0033Y02154*
X00314*
X00308Y02153*
X00304Y0215*
X00269Y02115*
X00266Y0211*
X00264Y02105*
Y01838*
X00266Y01832*
X00269Y01827*
X00372Y01724*
X00377Y01721*
X00383Y01719*
X01418*
X02424Y00714*
X02429Y00711*
X02435Y00709*
X0363*
X03635Y00711*
X0364Y00714*
X03745Y00819*
X03748Y00824*
X0375Y0083*
Y0188*
X03748Y01885*
X03745Y0189*
X0372Y01915*
X03715Y01918*
X0371Y0192*
X03668*
X03668Y01928*
X03664Y01939*
X03658Y0195*
X03651Y0196*
X03641Y01967*
X03631Y01973*
X03619Y01976*
X03607Y01978*
X03595Y01976*
X03583Y01973*
X03573Y01967*
X03563Y0196*
X03556Y0195*
X0355Y01939*
X03546Y01928*
X03545Y01916*
X03546Y01904*
X0355Y01892*
X03556Y01882*
X03563Y01872*
X03573Y01864*
X03583Y01859*
X03595Y01855*
X03607Y01854*
X03619Y01855*
X03631Y01859*
X03641Y01864*
X03651Y01872*
X03658Y01882*
X03663Y01889*
X03703*
X03719Y01873*
Y00836*
X03623Y0074*
X02441*
X01435Y01745*
X0143Y01748*
X01425Y0175*
X00389*
X00295Y01844*
Y02098*
X0032Y02124*
X00337*
X00341Y02118*
X00349Y02108*
X00359Y021*
X0037Y02094*
X00382Y0209*
X00395Y02089*
X00407Y0209*
X00419Y02094*
X0043Y021*
X0044Y02108*
X00448Y02118*
X00454Y02129*
X00458Y02141*
X00459Y02154*
X00458Y02166*
X00454Y02179*
X00448Y0219*
X0044Y022*
X0043Y02208*
X00419Y02214*
X00407Y02217*
X00395Y02219*
G37*
G36*
X0251Y02189D02*
X02502Y02187D01*
X02496Y02183*
X02492Y02177*
X0249Y0217*
X02492Y02162*
X02496Y02156*
X02502Y02152*
X0251Y0215*
X02517Y02152*
X02523Y02156*
X02527Y02162*
X02529Y0217*
X02527Y02177*
X02523Y02183*
X02517Y02187*
X0251Y02189*
G37*
G36*
X0246D02*
X02452Y02187D01*
X02446Y02183*
X02442Y02177*
X0244Y0217*
X02442Y02162*
X02446Y02156*
X02452Y02152*
X0246Y0215*
X02467Y02152*
X02473Y02156*
X02477Y02162*
X02479Y0217*
X02477Y02177*
X02473Y02183*
X02467Y02187*
X0246Y02189*
G37*
G36*
X0241D02*
X02402Y02187D01*
X02396Y02183*
X02392Y02177*
X0239Y0217*
X02392Y02162*
X02396Y02156*
X02402Y02152*
X0241Y0215*
X02417Y02152*
X02423Y02156*
X02427Y02162*
X02429Y0217*
X02427Y02177*
X02423Y02183*
X02417Y02187*
X0241Y02189*
G37*
G36*
X0236D02*
X02352Y02187D01*
X02346Y02183*
X02342Y02177*
X0234Y0217*
X02342Y02162*
X02346Y02156*
X02352Y02152*
X0236Y0215*
X02367Y02152*
X02373Y02156*
X02377Y02162*
X02379Y0217*
X02377Y02177*
X02373Y02183*
X02367Y02187*
X0236Y02189*
G37*
G36*
X0231D02*
X02302Y02187D01*
X02296Y02183*
X02292Y02177*
X0229Y0217*
X02292Y02162*
X02296Y02156*
X02302Y02152*
X0231Y0215*
X02317Y02152*
X02323Y02156*
X02327Y02162*
X02329Y0217*
X02327Y02177*
X02323Y02183*
X02317Y02187*
X0231Y02189*
G37*
G36*
X02263Y02187D02*
X02256Y02186D01*
X0225Y02182*
X02245Y02175*
X02244Y02168*
X02245Y02161*
X0225Y02155*
X02256Y0215*
X02263Y02149*
X0227Y0215*
X02277Y02155*
X02281Y02161*
X02282Y02168*
X02281Y02175*
X02277Y02182*
X0227Y02186*
X02263Y02187*
G37*
G36*
X01861Y02191D02*
X01798D01*
Y02128*
X01861*
Y02191*
G37*
G36*
X03292Y02135D02*
X0328Y02134D01*
X03268Y0213*
X03258Y02125*
X03248Y02117*
X03242Y02109*
X0285*
X02842Y02108*
X02835Y02105*
X02828Y02101*
X02683Y01956*
X02679Y01949*
X02676Y01942*
X02675Y01935*
Y01453*
X02674Y01452*
X02673Y01444*
X02674Y01436*
X02677Y01429*
X02682Y01423*
X02688Y01418*
X02695Y01415*
X02703Y01414*
X02711Y01415*
X02718Y01418*
X02724Y01423*
X02726Y01424*
X0273Y01431*
X02733Y01438*
X02734Y01446*
Y01922*
X02862Y0205*
X03235*
X03235Y0205*
X03241Y02039*
X03248Y0203*
X03258Y02022*
X03262Y02019*
Y0197*
X03258Y01967*
X03248Y0196*
X03241Y0195*
X03235Y01939*
X03231Y01928*
X0323Y01916*
X03231Y01904*
X03235Y01892*
X03241Y01882*
X03248Y01872*
X03258Y01864*
X03262Y01862*
Y01812*
X03258Y0181*
X03248Y01802*
X03241Y01793*
X03235Y01782*
X03231Y0177*
X0323Y01758*
X03231Y01746*
X03235Y01735*
X03241Y01724*
X03248Y01715*
X03258Y01707*
X03268Y01701*
X0328Y01698*
X03292Y01697*
X03304Y01698*
X03316Y01701*
X03326Y01707*
X03336Y01715*
X03343Y01724*
X03349Y01735*
X03353Y01746*
X03354Y01758*
X03353Y0177*
X03349Y01782*
X03343Y01793*
X03336Y01802*
X03326Y0181*
X03322Y01812*
Y01862*
X03326Y01864*
X03336Y01872*
X03343Y01882*
X03349Y01892*
X03353Y01904*
X03354Y01916*
X03353Y01928*
X03349Y01939*
X03343Y0195*
X03336Y0196*
X03326Y01967*
X03322Y0197*
Y02019*
X03326Y02022*
X03336Y0203*
X03343Y02039*
X03349Y0205*
X03353Y02061*
X03354Y02073*
X03353Y02085*
X03349Y02097*
X03343Y02108*
X03336Y02117*
X03326Y02125*
X03316Y0213*
X03304Y02134*
X03292Y02135*
G37*
G36*
X00611Y02549D02*
X00598Y02548D01*
X00586Y02544*
X00575Y02538*
X00565Y0253*
X00557Y0252*
X00551Y02509*
X00548Y02497*
X00546Y02485*
X00548Y02472*
X00551Y0246*
X00557Y02449*
X00565Y02439*
X00575Y02431*
X00586Y02425*
X00598Y02421*
X00611Y0242*
X00624Y02421*
X00636Y02425*
X00647Y02431*
X00657Y02439*
X00665Y02449*
X00671Y0246*
X00674Y02469*
X02819*
X03139Y02149*
X03144Y02146*
X0315Y02144*
X03388*
X03389Y0214*
X03392Y02128*
X03398Y02118*
X03406Y02108*
X03415Y02101*
X03426Y02095*
X03437Y02091*
X0345Y0209*
X03462Y02091*
X03473Y02095*
X03484Y02101*
X03493Y02108*
X03501Y02118*
X03507Y02128*
X0351Y0214*
X03511Y02152*
X0351Y02164*
X03507Y02176*
X03501Y02186*
X03493Y02196*
X03484Y02203*
X03473Y02209*
X03462Y02213*
X0345Y02214*
X03437Y02213*
X03426Y02209*
X03415Y02203*
X03406Y02196*
X03398Y02186*
X03392Y02176*
X03392Y02175*
X03328*
X03327Y02177*
X03327Y0218*
X03336Y02187*
X03344Y02196*
X03349Y02207*
X03352Y02216*
X03292*
X03232*
X03235Y02207*
X0324Y02196*
X03248Y02187*
X03257Y0218*
X03257Y02177*
X03256Y02175*
X03156*
X02836Y02494*
X02831Y02498*
X02825Y02499*
X00674*
X00671Y02509*
X00665Y0252*
X00657Y0253*
X00647Y02538*
X00636Y02544*
X00624Y02548*
X00611Y02549*
G37*
G36*
X03464Y02055D02*
Y02009D01*
X03509*
X03507Y02018*
X03501Y02029*
X03493Y02038*
X03484Y02046*
X03473Y02052*
X03464Y02055*
G37*
G36*
X03435D02*
X03426Y02052D01*
X03415Y02046*
X03406Y02038*
X03398Y02029*
X03392Y02018*
X0339Y02009*
X03435*
Y02055*
G37*
G36*
X03509Y0198D02*
X03464D01*
Y01935*
X03473Y01937*
X03484Y01943*
X03493Y01951*
X03501Y0196*
X03507Y01971*
X03509Y0198*
G37*
G36*
X03435D02*
X0339D01*
X03392Y01971*
X03398Y0196*
X03406Y01951*
X03415Y01943*
X03426Y01937*
X03435Y01935*
Y0198*
G37*
G36*
X00107Y02059D02*
X00093Y02057D01*
X0008Y02053*
X00068Y02047*
X00057Y02038*
X00049Y02027*
X00042Y02015*
X00038Y02002*
X00037Y01988*
X00038Y01975*
X00042Y01962*
X00049Y01949*
X00057Y01939*
X00068Y0193*
X0008Y01924*
X00093Y0192*
X00107Y01918*
X00121Y0192*
X00134Y01924*
X00146Y0193*
X00157Y01939*
X00165Y01949*
X00172Y01962*
X00176Y01975*
X00177Y01988*
X00176Y02002*
X00172Y02015*
X00165Y02027*
X00157Y02038*
X00146Y02047*
X00134Y02053*
X00121Y02057*
X00107Y02059*
G37*
G36*
X01005Y02163D02*
X00984Y02161D01*
X00965Y02157*
X00946Y02149*
X00929Y02138*
X00914Y02125*
X00901Y0211*
X0089Y02093*
X00882Y02074*
X00878Y02055*
X00876Y02035*
X00878Y02014*
X00882Y01995*
X0089Y01976*
X00901Y01959*
X00914Y01944*
X00929Y01931*
X00946Y0192*
X00965Y01912*
X00984Y01908*
X01005Y01906*
X01025Y01908*
X01044Y01912*
X01063Y0192*
X0108Y01931*
X01095Y01944*
X01108Y01959*
X01119Y01976*
X01127Y01995*
X01131Y02014*
X01133Y02035*
X01131Y02055*
X01127Y02074*
X01119Y02093*
X01108Y0211*
X01095Y02125*
X0108Y02138*
X01063Y02149*
X01044Y02157*
X01025Y02161*
X01005Y02163*
G37*
G36*
X03435Y0174D02*
X03426Y01737D01*
X03415Y01731*
X03406Y01723*
X03398Y01714*
X03392Y01703*
X0339Y01694*
X03435*
Y0174*
G37*
G36*
Y01665D02*
X0339D01*
X03392Y01656*
X03398Y01645*
X03406Y01636*
X03415Y01628*
X03426Y01622*
X03435Y0162*
Y01665*
G37*
G36*
X03307Y01661D02*
Y01616D01*
X03352*
X03349Y01625*
X03344Y01635*
X03336Y01645*
X03326Y01652*
X03316Y01658*
X03307Y01661*
G37*
G36*
X03277D02*
X03268Y01658D01*
X03258Y01652*
X03248Y01645*
X0324Y01635*
X03235Y01625*
X03232Y01616*
X03277*
Y01661*
G37*
G36*
X01265Y01666D02*
X01252Y01664D01*
X01239Y01659*
X01228Y01651*
X0122Y0164*
X01215Y01628*
X01213Y01615*
X01215Y01601*
X0122Y01589*
X01228Y01578*
X01239Y0157*
X01252Y01565*
X01265Y01563*
X01278Y01565*
X01291Y0157*
X01301Y01578*
X0131Y01589*
X01315Y01601*
X01316Y01615*
X01315Y01628*
X0131Y0164*
X01301Y01651*
X01291Y01659*
X01278Y01664*
X01265Y01666*
G37*
G36*
X01048D02*
X01035Y01664D01*
X01023Y01659*
X01012Y01651*
X01004Y0164*
X00998Y01628*
X00997Y01615*
X00998Y01601*
X01004Y01589*
X01012Y01578*
X01023Y0157*
X01035Y01565*
X01048Y01563*
X01062Y01565*
X01074Y0157*
X01085Y01578*
X01093Y01589*
X01098Y01601*
X011Y01615*
X01098Y01628*
X01093Y0164*
X01085Y01651*
X01074Y01659*
X01062Y01664*
X01048Y01666*
G37*
G36*
X03277Y01586D02*
X03232D01*
X03235Y01577*
X0324Y01566*
X03248Y01557*
X03258Y01549*
X03268Y01544*
X03277Y01541*
Y01586*
G37*
G36*
X03352D02*
X03307D01*
Y01541*
X03316Y01544*
X03326Y01549*
X03336Y01557*
X03344Y01566*
X03349Y01577*
X03352Y01586*
G37*
G36*
X00616Y0164D02*
X00603Y01639D01*
X00591Y01635*
X0058Y01629*
X0057Y01621*
X00562Y01611*
X00556Y016*
X00553Y01588*
X00551Y01575*
X00553Y01563*
X00556Y0155*
X00562Y01539*
X0057Y01529*
X0058Y01521*
X00591Y01515*
X00603Y01512*
X00616Y0151*
X00629Y01512*
X00641Y01515*
X00652Y01521*
X00662Y01529*
X0067Y01539*
X00676Y0155*
X0068Y01563*
X00681Y01575*
X0068Y01588*
X00676Y016*
X0067Y01611*
X00662Y01621*
X00652Y01629*
X00641Y01635*
X00629Y01639*
X00616Y0164*
G37*
G36*
X004D02*
X00387Y01639D01*
X00375Y01635*
X00364Y01629*
X00354Y01621*
X00346Y01611*
X0034Y016*
X00336Y01588*
X00335Y01575*
X00336Y01563*
X0034Y0155*
X00346Y01539*
X00354Y01529*
X00364Y01521*
X00375Y01515*
X00387Y01512*
X004Y0151*
X00412Y01512*
X00424Y01515*
X00435Y01521*
X00445Y01529*
X00453Y01539*
X00459Y0155*
X00463Y01563*
X00464Y01575*
X00463Y01588*
X00459Y016*
X00453Y01611*
X00445Y01621*
X00435Y01629*
X00424Y01635*
X00412Y01639*
X004Y0164*
G37*
G36*
X00112Y01645D02*
X00098Y01644D01*
X00085Y0164*
X00073Y01634*
X00062Y01625*
X00054Y01614*
X00047Y01602*
X00043Y01589*
X00042Y01575*
X00043Y01562*
X00047Y01548*
X00054Y01536*
X00062Y01526*
X00073Y01517*
X00085Y0151*
X00098Y01506*
X00112Y01505*
X00126Y01506*
X00139Y0151*
X00151Y01517*
X00162Y01526*
X0017Y01536*
X00177Y01548*
X00181Y01562*
X00182Y01575*
X00181Y01589*
X00177Y01602*
X0017Y01614*
X00162Y01625*
X00151Y01634*
X00139Y0164*
X00126Y01644*
X00112Y01645*
G37*
G36*
X01265Y01501D02*
X01252Y01499D01*
X01239Y01494*
X01228Y01486*
X0122Y01475*
X01215Y01463*
X01213Y01449*
X01215Y01436*
X0122Y01423*
X01228Y01413*
X01239Y01404*
X01252Y01399*
X01265Y01398*
X01278Y01399*
X01291Y01404*
X01301Y01413*
X0131Y01423*
X01315Y01436*
X01316Y01449*
X01315Y01463*
X0131Y01475*
X01301Y01486*
X01291Y01494*
X01278Y01499*
X01265Y01501*
G37*
G36*
X01048D02*
X01035Y01499D01*
X01023Y01494*
X01012Y01486*
X01004Y01475*
X00998Y01463*
X00997Y01449*
X00998Y01436*
X01004Y01423*
X01012Y01413*
X01023Y01404*
X01035Y01399*
X01048Y01398*
X01062Y01399*
X01074Y01404*
X01085Y01413*
X01093Y01423*
X01098Y01436*
X011Y01449*
X01098Y01463*
X01093Y01475*
X01085Y01486*
X01074Y01494*
X01062Y01499*
X01048Y01501*
G37*
G36*
X03484Y01441D02*
Y0136D01*
X03565*
X03564Y01364*
X03559Y01382*
X0355Y01399*
X03538Y01414*
X03523Y01426*
X03506Y01435*
X03488Y0144*
X03484Y01441*
G37*
G36*
X03454D02*
X0345Y0144D01*
X03432Y01435*
X03415Y01426*
X03401Y01414*
X03389Y01399*
X0338Y01382*
X03374Y01364*
X03374Y0136*
X03454*
Y01441*
G37*
G36*
X02941Y01411D02*
X02878D01*
Y01348*
X02941*
Y01411*
G37*
G36*
X00616Y01475D02*
X00603Y01473D01*
X00591Y0147*
X0058Y01464*
X0057Y01456*
X00562Y01446*
X00556Y01435*
X00553Y01422*
X00551Y0141*
X00553Y01397*
X00556Y01385*
X00562Y01374*
X0057Y01364*
X0058Y01356*
X00591Y0135*
X00603Y01346*
X00616Y01345*
X00629Y01346*
X00641Y0135*
X00652Y01356*
X00662Y01364*
X0067Y01374*
X00676Y01385*
X0068Y01397*
X00681Y0141*
X0068Y01422*
X00676Y01435*
X0067Y01446*
X00662Y01456*
X00652Y01464*
X00641Y0147*
X00629Y01473*
X00616Y01475*
G37*
G36*
X004D02*
X00387Y01473D01*
X00375Y0147*
X00364Y01464*
X00354Y01456*
X00346Y01446*
X0034Y01435*
X00336Y01422*
X00335Y0141*
X00336Y01397*
X0034Y01385*
X00346Y01374*
X00354Y01364*
X00364Y01356*
X00375Y0135*
X00387Y01346*
X004Y01345*
X00412Y01346*
X00424Y0135*
X00435Y01356*
X00445Y01364*
X00453Y01374*
X00459Y01385*
X00463Y01397*
X00464Y0141*
X00463Y01422*
X00459Y01435*
X00453Y01446*
X00445Y01456*
X00435Y01464*
X00424Y0147*
X00412Y01473*
X004Y01475*
G37*
G36*
X03565Y0133D02*
X03484D01*
Y01249*
X03488Y0125*
X03506Y01255*
X03523Y01264*
X03538Y01276*
X0355Y01291*
X03559Y01308*
X03564Y01326*
X03565Y0133*
G37*
G36*
X03454D02*
X03374D01*
X03374Y01326*
X0338Y01308*
X03389Y01291*
X03401Y01276*
X03415Y01264*
X03432Y01255*
X0345Y0125*
X03454Y01249*
Y0133*
G37*
G36*
X01265Y01335D02*
X01252Y01334D01*
X01239Y01329*
X01228Y0132*
X0122Y0131*
X01215Y01297*
X01213Y01284*
X01215Y0127*
X0122Y01258*
X01228Y01247*
X01239Y01239*
X01252Y01234*
X01265Y01232*
X01278Y01234*
X01291Y01239*
X01301Y01247*
X0131Y01258*
X01315Y0127*
X01316Y01284*
X01315Y01297*
X0131Y0131*
X01301Y0132*
X01291Y01329*
X01278Y01334*
X01265Y01335*
G37*
G36*
X01048D02*
X01035Y01334D01*
X01023Y01329*
X01012Y0132*
X01004Y0131*
X00998Y01297*
X00997Y01284*
X00998Y0127*
X01004Y01258*
X01012Y01247*
X01023Y01239*
X01035Y01234*
X01048Y01232*
X01062Y01234*
X01074Y01239*
X01085Y01247*
X01093Y01258*
X01098Y0127*
X011Y01284*
X01098Y01297*
X01093Y0131*
X01085Y0132*
X01074Y01329*
X01062Y01334*
X01048Y01335*
G37*
G36*
X00616Y01309D02*
X00603Y01308D01*
X00591Y01304*
X0058Y01298*
X0057Y0129*
X00562Y0128*
X00556Y01269*
X00553Y01257*
X00551Y01245*
X00553Y01232*
X00556Y0122*
X00562Y01209*
X0057Y01199*
X0058Y01191*
X00591Y01185*
X00603Y01181*
X00616Y0118*
X00629Y01181*
X00641Y01185*
X00652Y01191*
X00662Y01199*
X0067Y01209*
X00676Y0122*
X0068Y01232*
X00681Y01245*
X0068Y01257*
X00676Y01269*
X0067Y0128*
X00662Y0129*
X00652Y01298*
X00641Y01304*
X00629Y01308*
X00616Y01309*
G37*
G36*
X004D02*
X00387Y01308D01*
X00375Y01304*
X00364Y01298*
X00354Y0129*
X00346Y0128*
X0034Y01269*
X00336Y01257*
X00335Y01245*
X00336Y01232*
X0034Y0122*
X00346Y01209*
X00354Y01199*
X00364Y01191*
X00375Y01185*
X00387Y01181*
X004Y0118*
X00412Y01181*
X00424Y01185*
X00435Y01191*
X00445Y01199*
X00453Y01209*
X00459Y0122*
X00463Y01232*
X00464Y01245*
X00463Y01257*
X00459Y01269*
X00453Y0128*
X00445Y0129*
X00435Y01298*
X00424Y01304*
X00412Y01308*
X004Y01309*
G37*
G36*
X0128Y01168D02*
Y01133D01*
X01314*
X0131Y01144*
X01301Y01155*
X01291Y01163*
X0128Y01168*
G37*
G36*
X01063D02*
Y01133D01*
X01098*
X01093Y01144*
X01085Y01155*
X01074Y01163*
X01063Y01168*
G37*
G36*
X01034D02*
X01022Y01163D01*
X01012Y01155*
X01003Y01144*
X00999Y01133*
X01034*
Y01168*
G37*
G36*
X0125D02*
X01239Y01163D01*
X01228Y01155*
X0122Y01144*
X01215Y01133*
X0125*
Y01168*
G37*
G36*
X00631Y01142D02*
Y01094D01*
X00679*
X00676Y01104*
X0067Y01115*
X00662Y01125*
X00652Y01133*
X00641Y01139*
X00631Y01142*
G37*
G36*
X00414D02*
Y01094D01*
X00463*
X0046Y01104*
X00453Y01115*
X00445Y01125*
X00436Y01133*
X00424Y01139*
X00414Y01142*
G37*
G36*
X00601D02*
X00591Y01139D01*
X0058Y01133*
X0057Y01125*
X00562Y01115*
X00556Y01104*
X00553Y01094*
X00601*
Y01142*
G37*
G36*
X00385D02*
X00375Y01139D01*
X00363Y01133*
X00354Y01125*
X00346Y01115*
X0034Y01104*
X00336Y01094*
X00385*
Y01142*
G37*
G36*
X01314Y01104D02*
X0128D01*
Y01069*
X01291Y01074*
X01301Y01082*
X0131Y01093*
X01314Y01104*
G37*
G36*
X01098D02*
X01063D01*
Y01069*
X01074Y01074*
X01085Y01082*
X01093Y01093*
X01098Y01104*
G37*
G36*
X01034D02*
X00999D01*
X01003Y01093*
X01012Y01082*
X01022Y01074*
X01034Y01069*
Y01104*
G37*
G36*
X0125D02*
X01215D01*
X0122Y01093*
X01228Y01082*
X01239Y01074*
X0125Y01069*
Y01104*
G37*
G36*
X01681Y01056D02*
X01664D01*
Y01039*
X01681*
Y01056*
G37*
G36*
X01635D02*
X01618D01*
Y01039*
X01635*
Y01056*
G37*
G36*
X00679Y01064D02*
X00631D01*
Y01016*
X00641Y01019*
X00652Y01025*
X00662Y01033*
X0067Y01043*
X00676Y01054*
X00679Y01064*
G37*
G36*
X00463D02*
X00414D01*
Y01016*
X00424Y01019*
X00436Y01025*
X00445Y01033*
X00453Y01043*
X0046Y01054*
X00463Y01064*
G37*
G36*
X00601D02*
X00553D01*
X00556Y01054*
X00562Y01043*
X0057Y01033*
X0058Y01025*
X00591Y01019*
X00601Y01016*
Y01064*
G37*
G36*
X00385D02*
X00336D01*
X0034Y01054*
X00346Y01043*
X00354Y01033*
X00363Y01025*
X00375Y01019*
X00385Y01016*
Y01064*
G37*
G36*
X01681Y0101D02*
X01664D01*
Y00993*
X01681*
Y0101*
G37*
G36*
X01635D02*
X01618D01*
Y00993*
X01635*
Y0101*
G37*
G36*
X02745Y00971D02*
X02742Y00968D01*
X0274Y00967*
X02737Y00968*
X02734Y00971*
Y0096*
Y00948*
X02737Y00951*
X0274Y00952*
X02742Y00951*
X02745Y00948*
Y0096*
Y00971*
G37*
G36*
X02743Y00921D02*
X02741Y0092D01*
X02735Y0092*
X02734Y00921*
Y0091*
Y00898*
X02735Y00899*
X02741Y009*
X02743Y00898*
Y0091*
Y00921*
G37*
G36*
X01265Y01005D02*
X01252Y01003D01*
X01239Y00998*
X01228Y0099*
X0122Y00979*
X01215Y00966*
X01213Y00953*
X01215Y0094*
X0122Y00927*
X01228Y00917*
X01239Y00908*
X01252Y00903*
X01265Y00901*
X01278Y00903*
X01291Y00908*
X01301Y00917*
X0131Y00927*
X01315Y0094*
X01316Y00953*
X01315Y00966*
X0131Y00979*
X01301Y0099*
X01291Y00998*
X01278Y01003*
X01265Y01005*
G37*
G36*
X01048D02*
X01035Y01003D01*
X01023Y00998*
X01012Y0099*
X01004Y00979*
X00998Y00966*
X00997Y00953*
X00998Y0094*
X01004Y00927*
X01012Y00917*
X01023Y00908*
X01035Y00903*
X01048Y00901*
X01062Y00903*
X01074Y00908*
X01085Y00917*
X01093Y00927*
X01098Y0094*
X011Y00953*
X01098Y00966*
X01093Y00979*
X01085Y0099*
X01074Y00998*
X01062Y01003*
X01048Y01005*
G37*
G36*
X0298Y00899D02*
X02972Y00897D01*
X02966Y00893*
X02962Y00887*
X0296Y0088*
X02962Y00872*
X02966Y00866*
X02972Y00862*
X0298Y0086*
X02987Y00862*
X02993Y00866*
X02997Y00872*
X02999Y0088*
X02997Y00887*
X02993Y00893*
X02987Y00897*
X0298Y00899*
G37*
G36*
X00611Y02053D02*
X00598Y02052D01*
X00586Y02048*
X00575Y02042*
X00565Y02034*
X00557Y02024*
X00551Y02013*
X00548Y02001*
X00546Y01988*
X00548Y01976*
X00551Y01964*
X00557Y01952*
X00565Y01943*
X00575Y01935*
X00586Y01929*
X00598Y01925*
X00611Y01924*
X00624Y01925*
X00633Y01928*
X00697Y01864*
X00702Y01861*
X00708Y01859*
X01464*
X025Y00823*
X02505Y0082*
X02511Y00819*
X03531*
X03536Y0082*
X03541Y00823*
X03618Y009*
X03621Y00905*
X03622Y0091*
Y01541*
X03631Y01544*
X03641Y01549*
X03651Y01557*
X03658Y01567*
X03664Y01577*
X03668Y01589*
X03669Y01601*
X03668Y01613*
X03664Y01625*
X03658Y01635*
X03651Y01645*
X03641Y01652*
X03631Y01658*
X03619Y01662*
X03607Y01663*
X03595Y01662*
X03583Y01658*
X03573Y01652*
X03563Y01645*
X03556Y01635*
X0355Y01625*
X03546Y01613*
X03545Y01601*
X03546Y01589*
X0355Y01577*
X03556Y01567*
X03563Y01557*
X03573Y01549*
X03583Y01544*
X03592Y01541*
Y00917*
X03524Y00849*
X02517*
X01481Y01885*
X01476Y01888*
X0147Y0189*
X00714*
X00659Y01945*
X00665Y01952*
X00671Y01964*
X00675Y01976*
X00676Y01988*
X00675Y02001*
X00671Y02013*
X00665Y02024*
X00657Y02034*
X00647Y02042*
X00636Y02048*
X00624Y02052*
X00611Y02053*
G37*
G36*
X00395D02*
X00382Y02052D01*
X0037Y02048*
X00359Y02042*
X00349Y02034*
X00341Y02024*
X00335Y02013*
X00331Y02001*
X0033Y01988*
X00331Y01976*
X00335Y01964*
X00341Y01952*
X00349Y01943*
X00359Y01935*
X0037Y01929*
X00382Y01925*
X00395Y01924*
X00407Y01925*
X00419Y01929*
X00428Y01933*
X00541Y01821*
X00542Y01819*
X00547Y01816*
X00553Y01814*
X01403*
X02454Y00764*
X02459Y00761*
X02465Y00759*
X03591*
X03597Y00761*
X03602Y00764*
X03705Y00868*
X03709Y00873*
X0371Y00878*
Y01671*
X03709Y01676*
X03705Y01681*
X0366Y01727*
X03664Y01735*
X03668Y01746*
X03669Y01758*
X03668Y0177*
X03664Y01782*
X03658Y01793*
X03651Y01802*
X03641Y0181*
X03631Y01815*
X03619Y01819*
X03607Y0182*
X03595Y01819*
X03583Y01815*
X03573Y0181*
X03563Y01802*
X03556Y01793*
X0355Y01782*
X03546Y0177*
X03545Y01758*
X03546Y01746*
X0355Y01735*
X03556Y01724*
X03563Y01715*
X03573Y01707*
X03583Y01701*
X03595Y01698*
X03607Y01697*
X03619Y01698*
X03631Y01701*
X03638Y01705*
X0368Y01664*
Y00885*
X03585Y0079*
X02471*
X0142Y0184*
X01415Y01843*
X0141Y01845*
X0056*
X0045Y01955*
X00454Y01964*
X00458Y01976*
X00459Y01988*
X00458Y02001*
X00454Y02013*
X00448Y02024*
X0044Y02034*
X0043Y02042*
X00419Y02048*
X00407Y02052*
X00395Y02053*
G37*
G36*
X004Y00979D02*
X00387Y00977D01*
X00375Y00974*
X00364Y00968*
X00354Y0096*
X00346Y0095*
X0034Y00939*
X00336Y00926*
X00335Y00914*
X00336Y00901*
X0034Y00889*
X00346Y00878*
X00354Y00868*
X00364Y0086*
X00375Y00854*
X00387Y0085*
X004Y00849*
X00412Y0085*
X0042Y00853*
X00457Y00816*
X00462Y00813*
X00468Y00811*
X00468*
X00586*
X00588Y00806*
X0058Y00802*
X0057Y00794*
X00562Y00784*
X00556Y00773*
X00553Y00761*
X00551Y00748*
X00553Y00736*
X00556Y00724*
X00562Y00712*
X0057Y00703*
X0058Y00695*
X00589Y0069*
X00588Y00685*
X00466*
X00446Y00704*
X00453Y00712*
X00459Y00724*
X00463Y00736*
X00464Y00748*
X00463Y00761*
X00459Y00773*
X00453Y00784*
X00445Y00794*
X00435Y00802*
X00424Y00808*
X00412Y00812*
X004Y00813*
X00387Y00812*
X00375Y00808*
X00364Y00802*
X00354Y00794*
X00346Y00784*
X0034Y00773*
X00336Y00761*
X00335Y00748*
X00336Y00736*
X0034Y00724*
X00346Y00712*
X00354Y00703*
X00364Y00695*
X00375Y00689*
X00387Y00685*
X004Y00684*
X00412Y00685*
X0042Y00687*
X00449Y00659*
X00454Y00656*
X0046Y00654*
X01578*
X01817Y00415*
X01813Y00405*
X01811Y00391*
X01813Y00377*
X01819Y00364*
X01827Y00353*
X01838Y00345*
X01851Y0034*
X01865Y00338*
X01878Y0034*
X01891Y00345*
X01902Y00353*
X01911Y00364*
X01916Y00377*
X01918Y00391*
X01916Y00405*
X01911Y00418*
X01902Y00429*
X01891Y00437*
X01878Y00442*
X01865Y00444*
X01851Y00442*
X01838Y00437*
X01595Y0068*
X0159Y00683*
X01585Y00685*
X00644*
X00643Y0069*
X00652Y00695*
X00662Y00703*
X0067Y00712*
X00671Y00714*
X01658*
X01977Y00395*
X01977Y00391*
X01979Y00377*
X01984Y00364*
X01992Y00353*
X02003Y00345*
X02016Y0034*
X0203Y00338*
X02044Y0034*
X02056Y00345*
X02067Y00353*
X02076Y00364*
X02081Y00377*
X02083Y00391*
X02081Y00405*
X02076Y00418*
X02067Y00429*
X02056Y00437*
X02044Y00442*
X0203Y00444*
X02016Y00442*
X02003Y00437*
X01992Y00429*
X01992Y00428*
X01987Y00428*
X01675Y0074*
X0167Y00743*
X01665Y00745*
X00684*
X00681Y00748*
X00681Y00748*
X0068Y00761*
X00676Y00773*
X0067Y00784*
X00662Y00794*
X00652Y00802*
X00644Y00806*
X00646Y00811*
X01906*
X02309Y00409*
X02308Y00408*
X02306Y00395*
X02308Y00381*
X02314Y00368*
X02322Y00357*
X02333Y00349*
X02346Y00343*
X0236Y00341*
X02373Y00343*
X02386Y00349*
X02397Y00357*
X02406Y00368*
X02411Y00381*
X02413Y00395*
X02411Y00408*
X02406Y00421*
X02397Y00432*
X02386Y00441*
X02373Y00446*
X0236Y00448*
X02346Y00446*
X02333Y00441*
X02326Y00435*
X01923Y00837*
X01918Y0084*
X01913Y00842*
X00474*
X00446Y00869*
X00453Y00878*
X00459Y00889*
X00463Y00901*
X00464Y00914*
X00463Y00926*
X00459Y00939*
X00453Y0095*
X00445Y0096*
X00435Y00968*
X00424Y00974*
X00412Y00977*
X004Y00979*
G37*
G36*
X00616Y00648D02*
X00603Y00647D01*
X00591Y00643*
X0058Y00637*
X0057Y00629*
X00562Y00619*
X00556Y00608*
X00553Y00596*
X00551Y00583*
X00553Y0057*
X00556Y00558*
X00562Y00547*
X0057Y00537*
X0058Y0053*
X00579Y00526*
X00579Y00525*
X0046*
X00446Y00539*
X00453Y00547*
X00459Y00558*
X00463Y0057*
X00464Y00583*
X00463Y00596*
X00459Y00608*
X00453Y00619*
X00445Y00629*
X00435Y00637*
X00424Y00643*
X00412Y00647*
X004Y00648*
X00387Y00647*
X00375Y00643*
X00364Y00637*
X00354Y00629*
X00346Y00619*
X0034Y00608*
X00336Y00596*
X00335Y00583*
X00336Y0057*
X0034Y00558*
X00346Y00547*
X00354Y00537*
X00364Y00529*
X00375Y00523*
X00387Y0052*
X004Y00518*
X00412Y0052*
X0042Y00522*
X00443Y00499*
X00448Y00496*
X00454Y00494*
X01243*
X01338Y004*
X01336Y00386*
X01338Y00372*
X01343Y00359*
X01352Y00348*
X01363Y0034*
X01375Y00335*
X01389Y00333*
X01403Y00335*
X01416Y0034*
X01427Y00348*
X01435Y00359*
X0144Y00372*
X01442Y00386*
X0144Y004*
X01435Y00413*
X01427Y00424*
X01416Y00432*
X01403Y00437*
X01389Y00439*
X01375Y00437*
X01363Y00432*
X01355Y00426*
X0126Y0052*
X01255Y00523*
X0125Y00525*
X00653*
X00653Y00526*
X00653Y0053*
X00662Y00537*
X0067Y00547*
X00676Y00558*
X0068Y0057*
X0068Y00576*
X01322*
X01503Y00395*
X01501Y00386*
X01503Y00372*
X01509Y00359*
X01517Y00348*
X01528Y0034*
X01541Y00335*
X01555Y00333*
X01568Y00335*
X01581Y0034*
X01592Y00348*
X01601Y00359*
X01606Y00372*
X01608Y00386*
X01606Y004*
X01601Y00413*
X01592Y00424*
X01581Y00432*
X01568Y00437*
X01555Y00439*
X01541Y00437*
X01528Y00432*
X01517Y00424*
X01517Y00424*
X01339Y00602*
X01334Y00605*
X01328Y00606*
X01328*
X00676*
X00676Y00608*
X0067Y00619*
X00662Y00629*
X00652Y00637*
X00641Y00643*
X00629Y00647*
X00616Y00648*
G37*
G36*
X03528Y00522D02*
X0352Y0052D01*
X03512Y00515*
X03508Y00508*
X03506Y005*
X03508Y00491*
X03512Y00484*
X0352Y00479*
X03528Y00478*
X03536Y00479*
X03544Y00484*
X03548Y00491*
X0355Y005*
X03548Y00508*
X03544Y00515*
X03536Y0052*
X03528Y00522*
G37*
G36*
X03436Y00456D02*
X03419D01*
Y00439*
X03436*
Y00456*
G37*
G36*
X0339D02*
X03373D01*
Y00439*
X0339*
Y00456*
G37*
G36*
X03169Y00437D02*
Y00401D01*
X03206*
X03201Y00413*
X03192Y00424*
X03181Y00432*
X03169Y00437*
G37*
G36*
X0314D02*
X03128Y00432D01*
X03117Y00424*
X03108Y00413*
X03103Y00401*
X0314*
Y00437*
G37*
G36*
X02859D02*
Y00401D01*
X02896*
X02891Y00413*
X02882Y00424*
X02871Y00432*
X02859Y00437*
G37*
G36*
X0283D02*
X02818Y00432D01*
X02807Y00424*
X02798Y00413*
X02793Y00401*
X0283*
Y00437*
G37*
G36*
X03436Y0041D02*
X03419D01*
Y00393*
X03436*
Y0041*
G37*
G36*
X0339D02*
X03373D01*
Y00393*
X0339*
Y0041*
G37*
G36*
X00112Y00488D02*
X00098Y00487D01*
X00085Y00483*
X00073Y00476*
X00062Y00467*
X00054Y00457*
X00047Y00445*
X00043Y00431*
X00042Y00418*
X00043Y00404*
X00047Y00391*
X00054Y00379*
X00062Y00368*
X00073Y00359*
X00085Y00353*
X00098Y00349*
X00112Y00348*
X00126Y00349*
X00139Y00353*
X00151Y00359*
X00162Y00368*
X0017Y00379*
X00177Y00391*
X00181Y00404*
X00182Y00418*
X00181Y00431*
X00177Y00445*
X0017Y00457*
X00162Y00467*
X00151Y00476*
X00139Y00483*
X00126Y00487*
X00112Y00488*
G37*
G36*
X00616Y00483D02*
X00603Y00481D01*
X00591Y00478*
X0058Y00472*
X0057Y00464*
X00562Y00454*
X00556Y00443*
X00553Y0043*
X00551Y00418*
X00553Y00405*
X00556Y00393*
X00562Y00382*
X0057Y00372*
X0058Y00364*
X00591Y00358*
X00603Y00354*
X00616Y00353*
X00629Y00354*
X00641Y00358*
X00652Y00364*
X00662Y00372*
X0067Y00382*
X00676Y00393*
X0068Y00405*
X00681Y00418*
X0068Y0043*
X00678Y00435*
X00681Y00439*
X00893*
X00894Y00434*
X00888Y00432*
X00877Y00424*
X00869Y00413*
X00863Y004*
X00861Y00386*
X00863Y00372*
X00869Y00359*
X0087Y00357*
X00859Y00345*
X00502*
X00458Y0039*
X00459Y00393*
X00463Y00405*
X00464Y00418*
X00463Y0043*
X00459Y00443*
X00453Y00454*
X00445Y00464*
X00435Y00472*
X00424Y00478*
X00412Y00481*
X004Y00483*
X00387Y00481*
X00375Y00478*
X00364Y00472*
X00354Y00464*
X00346Y00454*
X0034Y00443*
X00336Y0043*
X00335Y00418*
X00336Y00405*
X0034Y00393*
X00346Y00382*
X00354Y00372*
X00364Y00364*
X00375Y00358*
X00387Y00354*
X004Y00353*
X00412Y00354*
X00424Y00358*
X00435Y00364*
X00438Y00366*
X00485Y0032*
X0049Y00316*
X00496Y00315*
X00865*
X00871Y00316*
X00876Y0032*
X00894Y00338*
X00901Y00335*
X00915Y00333*
X00928Y00335*
X00941Y0034*
X00952Y00348*
X00961Y00359*
X00966Y00372*
X00968Y00386*
X00966Y004*
X00961Y00413*
X00952Y00424*
X00941Y00432*
X00935Y00434*
X00936Y00439*
X01018*
X01039Y00419*
X01034Y00413*
X01029Y004*
X01027Y00386*
X01029Y00372*
X01034Y00359*
X01042Y00348*
X01053Y0034*
X01066Y00335*
X0108Y00333*
X01094Y00335*
X01106Y0034*
X01117Y00348*
X01126Y00359*
X01131Y00372*
X01133Y00386*
X01131Y004*
X01126Y00413*
X01117Y00424*
X01106Y00432*
X01094Y00437*
X0108Y00439*
X01066Y00437*
X01064Y00436*
X01035Y00465*
X0103Y00468*
X01025Y0047*
X00654*
X00652Y00472*
X00641Y00478*
X00629Y00481*
X00616Y00483*
G37*
G36*
Y00979D02*
X00603Y00977D01*
X00591Y00974*
X0058Y00968*
X0057Y0096*
X00562Y0095*
X00556Y00939*
X00553Y00926*
X00551Y00914*
X00553Y00901*
X00556Y00889*
X00562Y00878*
X0057Y00868*
X0058Y0086*
X00591Y00854*
X00603Y0085*
X00616Y00849*
X00629Y0085*
X00641Y00854*
X00652Y0086*
X00657Y00864*
X02013*
X02473Y00405*
X02472Y00395*
X02474Y00381*
X02479Y00368*
X02487Y00357*
X02498Y00349*
X02511Y00343*
X02525Y00341*
X02539Y00343*
X02551Y00349*
X02562Y00357*
X02571Y00368*
X02576Y00381*
X02578Y00395*
X02576Y00408*
X02571Y00421*
X02562Y00432*
X02551Y00441*
X02539Y00446*
X02525Y00448*
X02511Y00446*
X02498Y00441*
X02488Y00433*
X0203Y0089*
X02025Y00893*
X0202Y00895*
X00682*
X00679Y00899*
X0068Y00901*
X00681Y00914*
X0068Y00926*
X00676Y00939*
X0067Y0095*
X00662Y0096*
X00652Y00968*
X00641Y00974*
X00629Y00977*
X00616Y00979*
G37*
G36*
X03206Y00371D02*
X03169D01*
Y00335*
X03181Y0034*
X03192Y00348*
X03201Y00359*
X03206Y00371*
G37*
G36*
X0314D02*
X03103D01*
X03108Y00359*
X03117Y00348*
X03128Y0034*
X0314Y00335*
Y00371*
G37*
G36*
X02896D02*
X02859D01*
Y00335*
X02871Y0034*
X02882Y00348*
X02891Y00359*
X02896Y00371*
G37*
G36*
X0283D02*
X02793D01*
X02798Y00359*
X02807Y00348*
X02818Y0034*
X0283Y00335*
Y00371*
G37*
G36*
X02374Y00229D02*
Y00193D01*
X02411*
X02406Y00205*
X02397Y00216*
X02386Y00224*
X02374Y00229*
G37*
G36*
X02345D02*
X02333Y00224D01*
X02322Y00216*
X02313Y00205*
X02308Y00193*
X02345*
Y00229*
G37*
G36*
X01879Y00226D02*
Y00189D01*
X01916*
X01911Y00201*
X01902Y00212*
X01891Y00221*
X01879Y00226*
G37*
G36*
X0185D02*
X01838Y00221D01*
X01827Y00212*
X01818Y00201*
X01813Y00189*
X0185*
Y00226*
G37*
G36*
X00929Y00221D02*
Y00184D01*
X00966*
X00961Y00196*
X00952Y00207*
X00941Y00216*
X00929Y00221*
G37*
G36*
X01404D02*
Y00184D01*
X0144*
X01435Y00196*
X01427Y00207*
X01416Y00216*
X01404Y00221*
G37*
G36*
X01374D02*
X01363Y00216D01*
X01351Y00207*
X01343Y00196*
X01338Y00184*
X01374*
Y00221*
G37*
G36*
X009D02*
X00888Y00216D01*
X00877Y00207*
X00868Y00196*
X00863Y00184*
X009*
Y00221*
G37*
G36*
X03426Y00201D02*
X03363D01*
Y00138*
X03426*
Y00201*
G37*
G36*
X02411Y00163D02*
X02374D01*
Y00127*
X02386Y00132*
X02397Y0014*
X02406Y00151*
X02411Y00163*
G37*
G36*
X02345D02*
X02308D01*
X02313Y00151*
X02322Y0014*
X02333Y00132*
X02345Y00127*
Y00163*
G37*
G36*
X02578Y00231D02*
X02472D01*
Y00125*
X02578*
Y00231*
G37*
G36*
X01916Y0016D02*
X01879D01*
Y00123*
X01891Y00128*
X01902Y00137*
X01911Y00148*
X01916Y0016*
G37*
G36*
X0185D02*
X01813D01*
X01818Y00148*
X01827Y00137*
X01838Y00128*
X0185Y00123*
Y0016*
G37*
G36*
X02083Y00227D02*
X01977D01*
Y00122*
X02083*
Y00227*
G37*
G36*
X01374Y00155D02*
X01338D01*
X01343Y00143*
X01351Y00132*
X01363Y00123*
X01374Y00118*
Y00155*
G37*
G36*
X00966D02*
X00929D01*
Y00118*
X00941Y00123*
X00952Y00132*
X00961Y00143*
X00966Y00155*
G37*
G36*
X009D02*
X00863D01*
X00868Y00143*
X00877Y00132*
X00888Y00123*
X009Y00118*
Y00155*
G37*
G36*
X0144D02*
X01404D01*
Y00118*
X01416Y00123*
X01427Y00132*
X01435Y00143*
X0144Y00155*
G37*
G36*
X03207Y00222D02*
X03102D01*
Y00117*
X03207*
Y00222*
G37*
G36*
X02897D02*
X02792D01*
Y00117*
X02897*
Y00222*
G37*
G36*
X01607D02*
X01502D01*
Y00117*
X01607*
Y00222*
G37*
G36*
X01133D02*
X01027D01*
Y00117*
X01133*
Y00222*
G37*
G36*
X03661Y00285D02*
X03641Y00284D01*
X03621Y00279*
X03603Y00271*
X03585Y00261*
X0357Y00248*
X03557Y00232*
X03547Y00215*
X03539Y00197*
X03534Y00177*
X03533Y00157*
X03534Y00137*
X03539Y00117*
X03547Y00099*
X03557Y00082*
X0357Y00066*
X03585Y00053*
X03603Y00043*
X03621Y00035*
X03641Y0003*
X03661Y00029*
X03681Y0003*
X03701Y00035*
X03719Y00043*
X03736Y00053*
X03752Y00066*
X03765Y00082*
X03775Y00099*
X03783Y00117*
X03788Y00137*
X03789Y00157*
X03788Y00177*
X03783Y00197*
X03775Y00215*
X03765Y00232*
X03752Y00248*
X03736Y00261*
X03719Y00271*
X03701Y00279*
X03681Y00284*
X03661Y00285*
G37*
%LNmainpcb-3*%
%LPD*%
G54D13*
X00595Y02153D02*
X00646Y02205D01*
X01295*
X00595Y02815D02*
X0333D01*
X00595Y02649D02*
X0316D01*
X00595Y02484D02*
X02825D01*
X0315Y0216*
X0316Y02649D02*
X0324Y02569D01*
X0333Y02815D02*
X0345Y02695D01*
X01295Y02205D02*
X0235Y0115D01*
X00473Y02905D02*
X0217D01*
X0038Y02976D02*
X00829Y03426D01*
X0038Y02811D02*
X00473Y02905D01*
X01959Y03109D02*
X01959Y03109D01*
X0153Y03109D02*
X01959D01*
X00589Y00748D02*
X00607Y0073D01*
X00589Y00922D02*
X00607D01*
X03274Y02721D02*
X03292Y02703D01*
X0269Y02725D02*
X0269Y02724D01*
X03239D02*
X03242Y02721D01*
X0269Y02724D02*
X03239D01*
X03242Y02721D02*
X03274D01*
X0345Y02626D02*
Y02695D01*
Y02626D02*
X03459Y02616D01*
X01485Y03109D02*
X0153D01*
X00378Y02649D02*
X00458Y0257D01*
X00496Y0033D02*
X00865D01*
X00921Y00386*
X00553Y0183D02*
X0141D01*
X0315Y0216D02*
X03442D01*
X0345Y02152*
X03582Y02233D02*
X03589Y0224D01*
X03244Y02569D02*
X03267Y02546D01*
X03292*
X0324Y02569D02*
X03244D01*
X03314Y0318D02*
X0345D01*
X0373Y0227D02*
Y029D01*
X0345Y0318D02*
X0373Y029D01*
X02445Y0318D02*
X03314D01*
X03314Y0318*
X004Y00427D02*
X00496Y0033D01*
X0235Y0115D02*
X03095D01*
X03515Y0157D02*
Y0179D01*
X03095Y0115D02*
X03515Y0157D01*
X00589Y00591D02*
X01328D01*
X0153Y03109D02*
X0153Y03109D01*
X0202Y0088D02*
X02535Y00365D01*
X01328Y00591D02*
X01555Y00364D01*
X01665Y0073D02*
X02003Y00391D01*
X00607Y0073D02*
X01665D01*
X0046Y0067D02*
X01585D01*
X01856Y00398*
X00373Y00756D02*
X0046Y0067D01*
X0217Y02905D02*
X02445Y0318D01*
X0147Y01875D02*
X02511Y00834D01*
X03531D02*
X03607Y0091D01*
X00708Y01875D02*
X0147D01*
X02511Y00834D02*
X03531D01*
X00458Y0257D02*
X03111D01*
X03166Y02515*
X0028Y01838D02*
Y02105D01*
X0141Y0183D02*
X02465Y00775D01*
X01025Y00455D02*
X0108Y00399D01*
X0125Y0051D02*
X01371Y00388D01*
X01913Y00827D02*
X02351Y00388D01*
X00373Y00922D02*
X00468Y00827D01*
X00373Y00591D02*
X00454Y0051D01*
X00607Y00922D02*
X0065Y0088D01*
X0202*
X00468Y00827D02*
X01913D01*
X00454Y0051D02*
X0125D01*
X00644Y00455D02*
X01025D01*
X03607Y0091D02*
Y01601D01*
X03467Y01837D02*
X03515Y0179D01*
X0345Y01837D02*
X03467D01*
X02465Y00775D02*
X03591D01*
X03695Y00878*
X02435Y00725D02*
X0363D01*
X02423Y00686D02*
X03651D01*
X03795Y0083D02*
Y0203D01*
X0363Y00725D02*
X03735Y0083D01*
Y0188*
X03651Y00686D02*
X03795Y0083D01*
X03695Y00878D02*
Y01671D01*
X0142Y0169D02*
X02423Y00686D01*
X01425Y01735D02*
X02435Y00725D01*
X00383Y01735D02*
X01425D01*
X0035Y0169D02*
X0142D01*
X00595Y01988D02*
X00708Y01875D01*
X00235Y01805D02*
Y02215D01*
X00319Y02299*
X00235Y01805D02*
X0035Y0169D01*
X00319Y02299D02*
X00359D01*
X00378Y02318*
X0028Y02105D02*
X00314Y02139D01*
X0028Y01838D02*
X00383Y01735D01*
X00364Y02139D02*
X00378Y02153D01*
X00314Y02139D02*
X00364D01*
X03607Y01758D02*
X03695Y01671D01*
X0371Y01905D02*
X03735Y0188D01*
X03739Y02085D02*
X03795Y0203D01*
X00395Y01988D02*
X00553Y0183D01*
X03618Y01905D02*
X0371D01*
X03607Y01916D02*
X03618Y01905D01*
X03607Y02073D02*
X03619Y02085D01*
X03739*
X03166Y02515D02*
X03292Y02388D01*
X03626Y02226D02*
X03686D01*
X0373Y0227*
X00829Y03426D02*
Y0358D01*
G54D65*
X03292Y01758D02*
Y01916D01*
X0285Y0208D02*
X03286D01*
X03292Y02073*
Y01916D02*
Y02073D01*
X02705Y01935D02*
X0285Y0208D01*
X02705Y01446D02*
Y01935D01*
X02703Y01444D02*
X02705Y01446D01*
G54D70*
X02845Y0017D03*
X03155D03*
X02805Y03806D03*
X01799Y03801D03*
X02299D03*
X01314Y038D03*
X02525Y00178D03*
X0203Y00175D03*
X01555Y0017D03*
X0108D03*
X00829Y03796D03*
G54D71*
X02845Y00386D03*
X03155D03*
X02805Y0359D03*
X0297Y03806D03*
Y0359D03*
X01799Y03585D03*
X01965Y03801D03*
Y03585D03*
X02299D03*
X02465Y03801D03*
Y03585D03*
X01314Y03583D03*
X0148Y038D03*
Y03583D03*
X02525Y00395D03*
X0236Y00178D03*
Y00395D03*
X0203Y00391D03*
X01865Y00175D03*
Y00391D03*
X01555Y00386D03*
X01389Y0017D03*
Y00386D03*
X0108D03*
X00915Y0017D03*
Y00386D03*
X00829Y0358D03*
X00995Y03796D03*
Y0358D03*
G54D72*
X0183Y0216D03*
X01525Y0275D03*
X03395Y0017D03*
X0248Y0297D03*
X0291Y0138D03*
X03405Y00425D03*
X0165Y01025D03*
G54D73*
X01048Y00953D03*
Y01118D03*
Y01284D03*
Y01449D03*
Y01615D03*
X01265Y00953D03*
Y01118D03*
Y01284D03*
Y01449D03*
Y01615D03*
G54D74*
X004Y00418D03*
Y00583D03*
Y00748D03*
Y00914D03*
Y01079D03*
Y01245D03*
Y0141D03*
Y01575D03*
X00616Y00418D03*
Y00583D03*
Y00748D03*
Y00914D03*
Y01079D03*
Y01245D03*
Y0141D03*
Y01575D03*
X00395Y01988D03*
Y02154D03*
Y02319D03*
Y02485D03*
Y0265D03*
Y02815D03*
Y02981D03*
X00611Y01988D03*
Y02154D03*
Y02319D03*
Y02485D03*
Y0265D03*
Y02815D03*
Y02981D03*
G54D75*
X00112Y01575D03*
Y00418D03*
X00107Y01988D03*
Y02981D03*
G54D76*
X03292Y01601D03*
Y01758D03*
Y01916D03*
Y02073D03*
Y02231D03*
Y02388D03*
Y02546D03*
Y02703D03*
X0345Y0168D03*
Y01837D03*
Y01995D03*
Y02152D03*
Y0231D03*
Y02467D03*
Y02625D03*
X03607Y01601D03*
Y01758D03*
Y01916D03*
Y02073D03*
Y02231D03*
Y02388D03*
Y02546D03*
Y02703D03*
G54D77*
X03469Y01345D03*
Y02959D03*
G54D78*
X0047Y03276D03*
Y03783D03*
G54D79*
X00197Y03258D03*
Y03801D03*
G54D80*
X01005Y02035D03*
X03661Y00157D03*
Y03779D03*
G54D81*
X02675Y0091D03*
X0272D03*
X02757Y0091D03*
X02675Y0096D03*
X0272D03*
X0276D03*
X01959Y03109D03*
X0269Y02725D03*
X01555Y0322D03*
X0251Y0217D03*
X0246D03*
X0241D03*
X0236D03*
X0209Y0243D03*
X0231Y0217D03*
X02263Y02168D03*
X01415Y03224D03*
X01485Y03109D03*
X0298Y0088D03*
X02326Y03136D03*
X0181Y0305D03*
X02185Y02875D03*
X01976Y03213D03*
X02326Y03213D03*
X01975Y0329D03*
G54D82*
X00675Y03675D03*
X02703Y01444D03*
G54D83*
X03528Y005D03*
M02*