%FSTAX23Y23*%
%MOIN*%
%SFA1B1*%

%IPPOS*%
%ADD87C,0.002000*%
%LNmainpcb-1*%
%LPD*%
G54D87*
X02816Y0017D02*
X02873D01*
X02845Y00141D02*
Y00198D01*
X02816Y00386D02*
X02873D01*
X02845Y00357D02*
Y00415D01*
X03126Y0017D02*
X03183D01*
X03155Y00141D02*
Y00198D01*
X03126Y00386D02*
X03183D01*
X03155Y00357D02*
Y00415D01*
X02776Y03806D02*
X02833D01*
X02805Y03777D02*
Y03835D01*
X02776Y0359D02*
X02833D01*
X02805Y03561D02*
Y03618D01*
X02941Y03806D02*
X02998D01*
X0297Y03777D02*
Y03835D01*
X02941Y0359D02*
X02998D01*
X0297Y03561D02*
Y03618D01*
X01771Y03801D02*
X01828D01*
X01799Y03772D02*
Y0383D01*
X01771Y03585D02*
X01828D01*
X01799Y03556D02*
Y03613D01*
X01936Y03801D02*
X01993D01*
X01965Y03772D02*
Y0383D01*
X01936Y03585D02*
X01993D01*
X01965Y03556D02*
Y03613D01*
X02271Y03801D02*
X02328D01*
X02299Y03772D02*
Y0383D01*
X02271Y03585D02*
X02328D01*
X02299Y03556D02*
Y03613D01*
X02436Y03801D02*
X02493D01*
X02465Y03772D02*
Y0383D01*
X02436Y03585D02*
X02493D01*
X02465Y03556D02*
Y03613D01*
X01286Y038D02*
X01343D01*
X01314Y03771D02*
Y03828D01*
X01286Y03583D02*
X01343D01*
X01314Y03554D02*
Y03612D01*
X01451Y038D02*
X01508D01*
X0148Y03771D02*
Y03828D01*
X01451Y03583D02*
X01508D01*
X0148Y03554D02*
Y03612D01*
X02496Y00178D02*
X02553D01*
X02525Y00149D02*
Y00207D01*
X02496Y00395D02*
X02553D01*
X02525Y00366D02*
Y00423D01*
X02331Y00178D02*
X02388D01*
X0236Y00149D02*
Y00207D01*
X02331Y00395D02*
X02388D01*
X0236Y00366D02*
Y00423D01*
X02001Y00175D02*
X02058D01*
X0203Y00146D02*
Y00203D01*
X02001Y00391D02*
X02058D01*
X0203Y00362D02*
Y0042D01*
X01836Y00175D02*
X01893D01*
X01865Y00146D02*
Y00203D01*
X01836Y00391D02*
X01893D01*
X01865Y00362D02*
Y0042D01*
X01526Y0017D02*
X01583D01*
X01555Y00141D02*
Y00198D01*
X01526Y00386D02*
X01583D01*
X01555Y00357D02*
Y00415D01*
X01361Y0017D02*
X01418D01*
X01389Y00141D02*
Y00198D01*
X01361Y00386D02*
X01418D01*
X01389Y00357D02*
Y00415D01*
X01051Y0017D02*
X01108D01*
X0108Y00141D02*
Y00198D01*
X01051Y00386D02*
X01108D01*
X0108Y00357D02*
Y00415D01*
X00886Y0017D02*
X00943D01*
X00915Y00141D02*
Y00198D01*
X00886Y00386D02*
X00943D01*
X00915Y00357D02*
Y00415D01*
X00801Y03796D02*
X00858D01*
X00829Y03767D02*
Y03825D01*
X00801Y0358D02*
X00858D01*
X00829Y03551D02*
Y03608D01*
X00966Y03796D02*
X01023D01*
X00995Y03767D02*
Y03825D01*
X00966Y0358D02*
X01023D01*
X00995Y03551D02*
Y03608D01*
X01816Y0216D02*
X01843D01*
X0183Y02146D02*
Y02173D01*
X01511Y0275D02*
X01538D01*
X01525Y02736D02*
Y02763D01*
X03381Y0017D02*
X03408D01*
X03395Y00156D02*
Y00183D01*
X02466Y0297D02*
X02493D01*
X0248Y02956D02*
Y02983D01*
X02896Y0138D02*
X02923D01*
X0291Y01366D02*
Y01393D01*
X03391Y00425D02*
X03418D01*
X03405Y00411D02*
Y00438D01*
X01636Y01025D02*
X01663D01*
X0165Y01011D02*
Y01038D01*
X01021Y00953D02*
X01076D01*
X01048Y00926D02*
Y00981D01*
X01021Y01118D02*
X01076D01*
X01048Y01091D02*
Y01146D01*
X01021Y01284D02*
X01076D01*
X01048Y01256D02*
Y01311D01*
X01021Y01449D02*
X01076D01*
X01048Y01422D02*
Y01477D01*
X01021Y01615D02*
X01076D01*
X01048Y01587D02*
Y01642D01*
X01237Y00953D02*
X01292D01*
X01265Y00926D02*
Y00981D01*
X01237Y01118D02*
X01292D01*
X01265Y01091D02*
Y01146D01*
X01237Y01284D02*
X01292D01*
X01265Y01256D02*
Y01311D01*
X01237Y01449D02*
X01292D01*
X01265Y01422D02*
Y01477D01*
X01237Y01615D02*
X01292D01*
X01265Y01587D02*
Y01642D01*
X00363Y00418D02*
X00436D01*
X004Y00381D02*
Y00454D01*
X00363Y00583D02*
X00436D01*
X004Y00547D02*
Y0062D01*
X00363Y00748D02*
X00436D01*
X004Y00712D02*
Y00785D01*
X00363Y00914D02*
X00436D01*
X004Y00877D02*
Y0095D01*
X00363Y01079D02*
X00436D01*
X004Y01043D02*
Y01116D01*
X00363Y01245D02*
X00436D01*
X004Y01208D02*
Y01281D01*
X00363Y0141D02*
X00436D01*
X004Y01373D02*
Y01446D01*
X00363Y01575D02*
X00436D01*
X004Y01539D02*
Y01612D01*
X0058Y00418D02*
X00652D01*
X00616Y00381D02*
Y00454D01*
X0058Y00583D02*
X00652D01*
X00616Y00547D02*
Y0062D01*
X0058Y00748D02*
X00652D01*
X00616Y00712D02*
Y00785D01*
X0058Y00914D02*
X00652D01*
X00616Y00877D02*
Y0095D01*
X0058Y01079D02*
X00652D01*
X00616Y01043D02*
Y01116D01*
X0058Y01245D02*
X00652D01*
X00616Y01208D02*
Y01281D01*
X0058Y0141D02*
X00652D01*
X00616Y01373D02*
Y01446D01*
X0058Y01575D02*
X00652D01*
X00616Y01539D02*
Y01612D01*
X00052Y01575D02*
X00172D01*
X00112Y01515D02*
Y01635D01*
X00052Y00418D02*
X00172D01*
X00112Y00358D02*
Y00478D01*
X00358Y01988D02*
X00431D01*
X00395Y01952D02*
Y02025D01*
X00358Y02154D02*
X00431D01*
X00395Y02117D02*
Y0219D01*
X00358Y02319D02*
X00431D01*
X00395Y02283D02*
Y02356D01*
X00358Y02485D02*
X00431D01*
X00395Y02448D02*
Y02521D01*
X00358Y0265D02*
X00431D01*
X00395Y02613D02*
Y02686D01*
X00358Y02815D02*
X00431D01*
X00395Y02779D02*
Y02852D01*
X00358Y02981D02*
X00431D01*
X00395Y02944D02*
Y03017D01*
X00575Y01988D02*
X00647D01*
X00611Y01952D02*
Y02025D01*
X00575Y02154D02*
X00647D01*
X00611Y02117D02*
Y0219D01*
X00575Y02319D02*
X00647D01*
X00611Y02283D02*
Y02356D01*
X00575Y02485D02*
X00647D01*
X00611Y02448D02*
Y02521D01*
X00575Y0265D02*
X00647D01*
X00611Y02613D02*
Y02686D01*
X00575Y02815D02*
X00647D01*
X00611Y02779D02*
Y02852D01*
X00575Y02981D02*
X00647D01*
X00611Y02944D02*
Y03017D01*
X00047Y01988D02*
X00167D01*
X00107Y01928D02*
Y02048D01*
X00047Y02981D02*
X00167D01*
X00107Y02921D02*
Y03041D01*
X03258Y01601D02*
X03326D01*
X03292Y01566D02*
Y01635D01*
X03258Y01758D02*
X03326D01*
X03292Y01724D02*
Y01793D01*
X03258Y01916D02*
X03326D01*
X03292Y01881D02*
Y0195D01*
X03258Y02073D02*
X03326D01*
X03292Y02039D02*
Y02108D01*
X03258Y02231D02*
X03326D01*
X03292Y02196D02*
Y02265D01*
X03258Y02388D02*
X03326D01*
X03292Y02354D02*
Y02423D01*
X03258Y02546D02*
X03326D01*
X03292Y02511D02*
Y0258D01*
X03258Y02703D02*
X03326D01*
X03292Y02669D02*
Y02738D01*
X03415Y0168D02*
X03484D01*
X0345Y01645D02*
Y01714D01*
X03415Y01837D02*
X03484D01*
X0345Y01803D02*
Y01872D01*
X03415Y01995D02*
X03484D01*
X0345Y0196D02*
Y02029D01*
X03415Y02152D02*
X03484D01*
X0345Y02118D02*
Y02187D01*
X03415Y0231D02*
X03484D01*
X0345Y02275D02*
Y02344D01*
X03415Y02467D02*
X03484D01*
X0345Y02433D02*
Y02501D01*
X03415Y02625D02*
X03484D01*
X0345Y0259D02*
Y02659D01*
X03573Y01601D02*
X03641D01*
X03607Y01566D02*
Y01635D01*
X03573Y01758D02*
X03641D01*
X03607Y01724D02*
Y01793D01*
X03573Y01916D02*
X03641D01*
X03607Y01881D02*
Y0195D01*
X03573Y02073D02*
X03641D01*
X03607Y02039D02*
Y02108D01*
X03573Y02231D02*
X03641D01*
X03607Y02196D02*
Y02265D01*
X03573Y02388D02*
X03641D01*
X03607Y02354D02*
Y02423D01*
X03573Y02546D02*
X03641D01*
X03607Y02511D02*
Y0258D01*
X03573Y02703D02*
X03641D01*
X03607Y02669D02*
Y02738D01*
X03412Y01345D02*
X03527D01*
X03469Y01287D02*
Y01403D01*
X03412Y02959D02*
X03527D01*
X03469Y02901D02*
Y03017D01*
X00456Y03276D02*
X00483D01*
X0047Y03262D02*
Y03289D01*
X00184Y03258D02*
X00211D01*
X00197Y03244D02*
Y03272D01*
X00184Y03801D02*
X00211D01*
X00197Y03787D02*
Y03815D01*
X00456Y03783D02*
X00483D01*
X0047Y0377D02*
Y03797D01*
X00938Y02035D02*
X01071D01*
X01005Y01968D02*
Y02101D01*
X03594Y00157D02*
X03728D01*
X03661Y0009D02*
Y00224D01*
X03594Y03779D02*
X03728D01*
X03661Y03712D02*
Y03846D01*
X0267Y0091D02*
X02679D01*
X02675Y00905D02*
Y00914D01*
X02715Y0091D02*
X02724D01*
X0272Y00905D02*
Y00914D01*
X02752Y0091D02*
X02762D01*
X02757Y00905D02*
Y00915D01*
X0267Y0096D02*
X02679D01*
X02675Y00955D02*
Y00964D01*
X02715Y0096D02*
X02724D01*
X0272Y00955D02*
Y00964D01*
X0067Y03675D02*
X00679D01*
X00675Y0367D02*
Y03679D01*
X02755Y0096D02*
X02764D01*
X0276Y00955D02*
Y00964D01*
X01954Y03109D02*
X01964D01*
X01959Y03104D02*
Y03114D01*
X02685Y02725D02*
X02694D01*
X0269Y0272D02*
Y02729D01*
X0155Y0322D02*
X01559D01*
X01555Y03215D02*
Y03224D01*
X02505Y0217D02*
X02514D01*
X0251Y02165D02*
Y02174D01*
X02455Y0217D02*
X02464D01*
X0246Y02165D02*
Y02174D01*
X02405Y0217D02*
X02414D01*
X0241Y02165D02*
Y02174D01*
X02355Y0217D02*
X02364D01*
X0236Y02165D02*
Y02174D01*
X02085Y0243D02*
X02094D01*
X0209Y02425D02*
Y02434D01*
X02305Y0217D02*
X02314D01*
X0231Y02165D02*
Y02174D01*
X02258Y02168D02*
X02268D01*
X02263Y02163D02*
Y02173D01*
X0141Y03224D02*
X0142D01*
X01415Y03219D02*
Y03229D01*
X0148Y03109D02*
X0149D01*
X01485Y03104D02*
Y03114D01*
X03523Y005D02*
X03533D01*
X03528Y00495D02*
Y00505D01*
X02698Y01444D02*
X02708D01*
X02703Y01439D02*
Y01449D01*
X02975Y0088D02*
X02984D01*
X0298Y00875D02*
Y00884D01*
X02321Y03136D02*
X02331D01*
X02326Y03131D02*
Y03141D01*
X01805Y0305D02*
X01814D01*
X0181Y03045D02*
Y03054D01*
X0218Y02875D02*
X02189D01*
X02185Y0287D02*
Y02879D01*
X01971Y03213D02*
X01981D01*
X01976Y03208D02*
Y03218D01*
X02321Y03213D02*
X02331D01*
X02326Y03208D02*
Y03218D01*
X0197Y0329D02*
X01979D01*
X01975Y03285D02*
Y03294D01*
M02*