%FSTAX23Y23*%
%MOIN*%
%SFA1B1*%

%IPPOS*%
%ADD10C,0.003940*%
%ADD11C,0.007870*%
%ADD86C,0.001970*%
%LNmainpcb-1*%
%LPD*%
G54D10*
X02743Y0161D02*
X02783D01*
X02763Y0159D02*
Y01629D01*
X03549Y00325D02*
Y00774D01*
X03892*
Y00325D02*
Y00774D01*
X03549Y00325D02*
X03892D01*
X01377Y00807D02*
Y0176D01*
X00891Y00807D02*
X01377D01*
X00891D02*
Y0176D01*
X01377*
X0071Y00272D02*
Y01721D01*
X-00186Y00272D02*
X0071D01*
X-00186D02*
Y01721D01*
X0071*
X00705Y01819D02*
Y03126D01*
X-00191Y01819D02*
X00705D01*
X-00191D02*
Y03126D01*
X00705*
X03072Y00916D02*
Y03388D01*
X04713*
Y00916D02*
Y03388D01*
X03072Y00916D02*
X04713D01*
X0292Y02781D02*
Y02818D01*
X02901Y028D02*
X02938D01*
X0292Y0294D02*
Y02979D01*
X029Y0296D02*
X02939D01*
X01016Y0322D02*
X01053D01*
X01035Y03201D02*
Y03238D01*
X01016Y0332D02*
X01053D01*
X01035Y03301D02*
Y03338D01*
X0269Y02786D02*
Y02823D01*
X02671Y02805D02*
X02708D01*
X00521Y0015D02*
X00558D01*
X0054Y00131D02*
Y00168D01*
X02171Y00615D02*
X02208D01*
X0219Y00596D02*
Y00633D01*
X0267Y0296D02*
X02709D01*
X0269Y0294D02*
Y02979D01*
X02724Y01963D02*
X02764D01*
X02744Y01943D02*
Y01983D01*
X02695Y02136D02*
Y02173D01*
X02676Y02155D02*
X02713D01*
X02875Y00805D02*
X02913D01*
X02894Y00786D02*
Y00823D01*
X02961Y00805D02*
X02998D01*
X0298Y00786D02*
Y00823D01*
X02531Y0106D02*
X02568D01*
X0255Y01041D02*
Y01078D01*
X0274Y01255D02*
X02779D01*
X0276Y01235D02*
Y01274D01*
X0274Y0115D02*
X02779D01*
X0276Y0113D02*
Y01169D01*
X0273Y01346D02*
Y01383D01*
X02711Y01365D02*
X02748D01*
X02215Y02801D02*
Y02838D01*
X02196Y0282D02*
X02233D01*
X01916Y03025D02*
X01953D01*
X01935Y03006D02*
Y03043D01*
X01841Y03025D02*
X01878D01*
X0186Y03006D02*
Y03043D01*
X0167Y03116D02*
Y03153D01*
X01651Y03135D02*
X01688D01*
X0222Y02411D02*
Y02448D01*
X02201Y0243D02*
X02238D01*
X02065Y02801D02*
Y02838D01*
X02046Y0282D02*
X02083D01*
X01531Y0312D02*
X01568D01*
X0155Y03101D02*
Y03138D01*
X01401Y03135D02*
X01438D01*
X0142Y03116D02*
Y03153D01*
G54D11*
X0047Y0349D02*
Y03569D01*
X0043Y0353D02*
X00509D01*
G54D86*
X0294Y01476D02*
Y01743D01*
X02586Y01476D02*
Y01743D01*
Y01476D02*
X0294D01*
X02586Y01743D02*
X0294D01*
X02728Y00087D02*
Y00492D01*
X02976*
Y00087D02*
Y00492D01*
X02728Y00087D02*
X02976D01*
X03038D02*
Y00492D01*
X03286*
Y00087D02*
Y00492D01*
X03038Y00087D02*
X03286D01*
X02688Y03914D02*
X03102D01*
Y03509D02*
Y03914D01*
X02688Y03509D02*
X03102D01*
X02688D02*
Y03914D01*
X01683Y03909D02*
X02096D01*
Y03504D02*
Y03909D01*
X01683Y03504D02*
X02096D01*
X01683D02*
Y03909D01*
X02183D02*
X02596D01*
Y03504D02*
Y03909D01*
X02183Y03504D02*
X02596D01*
X02183D02*
Y03909D01*
X01198Y03908D02*
X01611D01*
Y03502D02*
Y03908D01*
X01198Y03502D02*
X01611D01*
X01198D02*
Y03908D01*
X02228Y0007D02*
X02641D01*
X02228D02*
Y00475D01*
X02641*
Y0007D02*
Y00475D01*
X01733Y00066D02*
X02146D01*
X01733D02*
Y00472D01*
X02146*
Y00066D02*
Y00472D01*
X01257Y00061D02*
X01671D01*
X01257D02*
Y00467D01*
X01671*
Y00061D02*
Y00467D01*
X00783Y00061D02*
X01196D01*
X00783D02*
Y00467D01*
X01196*
Y00061D02*
Y00467D01*
X00713Y03904D02*
X01126D01*
Y03499D02*
Y03904D01*
X00713Y03499D02*
X01126D01*
X00713D02*
Y03904D01*
X0177Y021D02*
Y02219D01*
X01889*
Y021D02*
Y02219D01*
X0177Y021D02*
X01889D01*
X01465Y0269D02*
Y02809D01*
X01584*
Y0269D02*
Y02809D01*
X01465Y0269D02*
X01584D01*
X03335Y0011D02*
Y00229D01*
X03454*
Y0011D02*
Y00229D01*
X03335Y0011D02*
X03454D01*
X0242Y0291D02*
Y03029D01*
X02539*
Y0291D02*
Y03029D01*
X0242Y0291D02*
X02539D01*
X0285Y0132D02*
Y01439D01*
X02969*
Y0132D02*
Y01439D01*
X0285Y0132D02*
X02969D01*
X03345Y00365D02*
Y00484D01*
X03464*
Y00365D02*
Y00484D01*
X03345Y00365D02*
X03464D01*
X0159Y00965D02*
Y01084D01*
X01709*
Y00965D02*
Y01084D01*
X0159Y00965D02*
X01709D01*
X02221Y02469D02*
Y0276D01*
X02008Y02469D02*
X02221D01*
X02008D02*
Y0276D01*
X02221*
X0199Y03035D02*
X02299D01*
X0199D02*
Y03314D01*
X02299*
Y03035D02*
Y03314D01*
X02008Y01487D02*
Y02032D01*
X02511*
Y01487D02*
Y02032D01*
X02008Y01487D02*
X02511D01*
X00005Y03864D02*
X00635D01*
X00005Y03195D02*
X00635D01*
Y03864D02*
Y03195D01*
X00005D02*
Y03864D01*
X0289Y02853D02*
X02949D01*
X0289Y02746D02*
X02949D01*
Y02853*
X0289Y02746D02*
Y02853D01*
X02882Y02885D02*
X02957D01*
X02882Y03035D02*
X02957D01*
X02882Y02885D02*
Y03035D01*
X02957Y02885D02*
Y03035D01*
X00981Y0319D02*
Y03249D01*
X01088Y0319D02*
Y03249D01*
X00981D02*
X01088D01*
X00981Y0319D02*
X01088D01*
Y0329D02*
Y03349D01*
X00981Y0329D02*
Y03349D01*
Y0329D02*
X01088D01*
X00981Y03349D02*
X01088D01*
X0266Y02858D02*
X02719D01*
X0266Y02751D02*
X02719D01*
Y02858*
X0266Y02751D02*
Y02858D01*
X00593Y0012D02*
Y00179D01*
X00486Y0012D02*
Y00179D01*
Y0012D02*
X00593D01*
X00486Y00179D02*
X00593D01*
X02136Y00585D02*
Y00644D01*
X02243Y00585D02*
Y00644D01*
X02136D02*
X02243D01*
X02136Y00585D02*
X02243D01*
X02727Y02885D02*
Y03035D01*
X02652Y02885D02*
Y03035D01*
X02727*
X02652Y02885D02*
X02727D01*
X02575Y01821D02*
Y02105D01*
X02913Y01821D02*
Y02105D01*
X02575D02*
X02913D01*
X02575Y01821D02*
X02913D01*
X02641Y02184D02*
X02748D01*
X02641Y02125D02*
X02748D01*
X02641D02*
Y02184D01*
X02748Y02125D02*
Y02184D01*
X02864Y00751D02*
Y00858D01*
X02923Y00751D02*
Y00858D01*
X02864Y00751D02*
X02923D01*
X02864Y00858D02*
X02923D01*
X03009Y00751D02*
Y00858D01*
X0295Y00751D02*
Y00858D01*
X03009*
X0295Y00751D02*
X03009D01*
X0252Y01006D02*
Y01113D01*
X02579Y01006D02*
Y01113D01*
X0252Y01006D02*
X02579D01*
X0252Y01113D02*
X02579D01*
X02852Y01209D02*
Y013D01*
X02667Y01209D02*
Y013D01*
Y01209D02*
X02852D01*
X02667Y013D02*
X02852D01*
Y01104D02*
Y01195D01*
X02667Y01104D02*
Y01195D01*
Y01104D02*
X02852D01*
X02667Y01195D02*
X02852D01*
X02611Y00785D02*
X02827D01*
Y01078*
X02611D02*
X02827D01*
X02611Y00785D02*
Y01078D01*
X02676Y01394D02*
X02783D01*
X02676Y01335D02*
X02783D01*
X02676D02*
Y01394D01*
X02783Y01335D02*
Y01394D01*
X02161Y02849D02*
X02268D01*
X02161Y0279D02*
X02268D01*
X02161D02*
Y02849D01*
X02268Y0279D02*
Y02849D01*
X01964Y02971D02*
Y03078D01*
X01905Y02971D02*
Y03078D01*
X01964*
X01905Y02971D02*
X01964D01*
X01889D02*
Y03078D01*
X0183Y02971D02*
Y03078D01*
X01889*
X0183Y02971D02*
X01889D01*
X01616Y03105D02*
X01723D01*
X01616Y03164D02*
X01723D01*
Y03105D02*
Y03164D01*
X01616Y03105D02*
Y03164D01*
X02166Y02459D02*
X02273D01*
X02166Y024D02*
X02273D01*
X02166D02*
Y02459D01*
X02273Y024D02*
Y02459D01*
X02011Y02849D02*
X02118D01*
X02011Y0279D02*
X02118D01*
X02011D02*
Y02849D01*
X02118Y0279D02*
Y02849D01*
X01579Y03066D02*
Y03173D01*
X0152Y03066D02*
Y03173D01*
X01579*
X0152Y03066D02*
X01579D01*
X01449Y03081D02*
Y03188D01*
X0139Y03081D02*
Y03188D01*
X01449*
X0139Y03081D02*
X01449D01*
M02*