%FSTAX23Y23*%
%MOIN*%
%SFA1B1*%

%IPPOS*%
%ADD14R,0.096460X0.124020*%
%ADD15R,0.025590X0.059060*%
%ADD16R,0.058070X0.017720*%
%ADD17R,0.200790X0.124020*%
%ADD18R,0.053150X0.015750*%
%ADD19R,0.062990X0.082680*%
%ADD20R,0.074800X0.070870*%
%ADD21R,0.074800X0.074800*%
%ADD22O,0.127950X0.059060*%
%ADD23R,0.122050X0.094490*%
%ADD24R,0.037400X0.033470*%
%ADD25R,0.047240X0.047240*%
%ADD26R,0.033470X0.037400*%
%ADD27R,0.125980X0.062990*%
%ADD28R,0.035430X0.039370*%
%ADD29R,0.039370X0.035430*%
%ADD30R,0.051180X0.070870*%
%ADD31R,0.025590X0.060040*%
%LNmainpcb-1*%
%LPD*%
G54D14*
X02885Y0161D03*
X02641D03*
G54D15*
X0219Y02721D03*
X0214D03*
X0209D03*
X0204D03*
Y02508D03*
X0209D03*
X0214D03*
X0219D03*
G54D16*
X0226Y03059D03*
Y03085D03*
Y03111D03*
Y03136D03*
Y03162D03*
Y03187D03*
Y03213D03*
Y03238D03*
Y03264D03*
Y0329D03*
X02029D03*
Y03264D03*
Y03238D03*
Y03213D03*
Y03187D03*
Y03162D03*
Y03136D03*
Y03111D03*
Y03085D03*
Y03059D03*
G54D17*
X0226Y01559D03*
Y0196D03*
G54D18*
X03627Y00498D03*
Y00524D03*
Y0055D03*
Y00575D03*
Y00601D03*
G54D19*
X03632Y00427D03*
Y00672D03*
G54D20*
X03732Y004D03*
Y00699D03*
G54D21*
X03732Y00502D03*
Y00597D03*
G54D22*
X00559Y03392D03*
Y03667D03*
Y0349D03*
Y03569D03*
G54D23*
X02719Y00931D03*
G54D24*
X0292Y02825D03*
Y02774D03*
X0269Y0283D03*
Y02779D03*
X02894Y00779D03*
Y0083D03*
X0298D03*
Y00779D03*
X0155Y03145D03*
Y03094D03*
X0142Y0316D03*
Y03109D03*
G54D25*
X0292Y02918D03*
Y03001D03*
X0269D03*
Y02918D03*
G54D26*
X01009Y0322D03*
X0106D03*
Y0332D03*
X01009D03*
X00565Y0015D03*
X00514D03*
X02164Y00615D03*
X02215D03*
X01695Y03135D03*
X01644D03*
G54D27*
X02645Y01963D03*
X02842D03*
G54D28*
X02668Y02155D03*
X02721D03*
X02703Y01365D03*
X02756D03*
X02188Y0282D03*
X02241D03*
X02193Y0243D03*
X02246D03*
X02038Y0282D03*
X02091D03*
G54D29*
X0255Y01033D03*
Y01086D03*
X01935Y03051D03*
Y02998D03*
X0186Y03051D03*
Y02998D03*
G54D30*
X02817Y01255D03*
X02702D03*
X02817Y0115D03*
X02702D03*
G54D31*
X02644Y01038D03*
X02694D03*
X02744D03*
X02794D03*
Y00825D03*
X02744D03*
X02694D03*
X02644D03*
M02*