G04*
G04 #@! TF.GenerationSoftware,Altium Limited,Altium Designer,21.0.9 (235)*
G04*
G04 Layer_Physical_Order=4*
G04 Layer_Color=16711680*
%FSLAX25Y25*%
%MOIN*%
G70*
G04*
G04 #@! TF.SameCoordinates,FB9C7817-38CD-48DC-A3D4-53DF82CEFDAB*
G04*
G04*
G04 #@! TF.FilePolarity,Positive*
G04*
G01*
G75*
%ADD10C,0.00787*%
%ADD11C,0.00394*%
%ADD13C,0.01000*%
%ADD14R,0.03765X0.24488*%
%ADD15C,0.00197*%
%ADD26R,0.03740X0.03347*%
%ADD67C,0.03937*%
%ADD68C,0.01968*%
%ADD70C,0.08563*%
%ADD71R,0.08563X0.08563*%
%ADD72C,0.23622*%
%ADD73R,0.04331X0.04331*%
%ADD74C,0.06004*%
%ADD75C,0.10925*%
%ADD76C,0.10335*%
%ADD77C,0.17303*%
%ADD78C,0.08268*%
%ADD79O,0.15748X0.11024*%
%ADD80O,0.18898X0.11024*%
%ADD81C,0.01772*%
%ADD82C,0.02362*%
%ADD83C,0.03150*%
%ADD84C,0.02756*%
G36*
X385697Y803D02*
X803D01*
Y392197D01*
X385697D01*
Y803D01*
D02*
G37*
%LPC*%
G36*
X285766Y385919D02*
X275234D01*
Y375388D01*
X285766D01*
Y385919D01*
D02*
G37*
G36*
X235230Y385419D02*
X224699D01*
Y374888D01*
X235230D01*
Y385419D01*
D02*
G37*
G36*
X185230D02*
X174699D01*
Y374888D01*
X185230D01*
Y385419D01*
D02*
G37*
G36*
X136730Y385266D02*
X126199D01*
Y374734D01*
X136730D01*
Y385266D01*
D02*
G37*
G36*
X88230Y384919D02*
X77699D01*
Y374388D01*
X88230D01*
Y384919D01*
D02*
G37*
G36*
X61500Y370081D02*
X60832Y369993D01*
X60209Y369735D01*
X59675Y369325D01*
X59265Y368791D01*
X59007Y368168D01*
X58919Y367500D01*
X59007Y366832D01*
X59265Y366209D01*
X59675Y365675D01*
X60209Y365265D01*
X60832Y365007D01*
X61500Y364919D01*
X62168Y365007D01*
X62791Y365265D01*
X63325Y365675D01*
X63735Y366209D01*
X63993Y366832D01*
X64081Y367500D01*
X63993Y368168D01*
X63735Y368791D01*
X63325Y369325D01*
X62791Y369735D01*
X62168Y369993D01*
X61500Y370081D01*
D02*
G37*
G36*
X297035Y364311D02*
X295661Y364130D01*
X294380Y363600D01*
X293280Y362756D01*
X292436Y361656D01*
X291905Y360375D01*
X291724Y359000D01*
X291905Y357625D01*
X292436Y356344D01*
X293280Y355244D01*
X294380Y354400D01*
X295661Y353870D01*
X297035Y353689D01*
X298410Y353870D01*
X299691Y354400D01*
X300791Y355244D01*
X301635Y356344D01*
X302166Y357625D01*
X302347Y359000D01*
X302166Y360375D01*
X301635Y361656D01*
X300791Y362756D01*
X299691Y363600D01*
X298410Y364130D01*
X297035Y364311D01*
D02*
G37*
G36*
X280500D02*
X279125Y364130D01*
X277844Y363600D01*
X276744Y362756D01*
X275900Y361656D01*
X275370Y360375D01*
X275189Y359000D01*
X275370Y357625D01*
X275900Y356344D01*
X276744Y355244D01*
X277844Y354400D01*
X279125Y353870D01*
X280500Y353689D01*
X281875Y353870D01*
X283156Y354400D01*
X284256Y355244D01*
X285100Y356344D01*
X285630Y357625D01*
X285811Y359000D01*
X285630Y360375D01*
X285100Y361656D01*
X284256Y362756D01*
X283156Y363600D01*
X281875Y364130D01*
X280500Y364311D01*
D02*
G37*
G36*
X246500Y363811D02*
X245125Y363630D01*
X243844Y363100D01*
X242744Y362256D01*
X241900Y361156D01*
X241370Y359875D01*
X241189Y358500D01*
X241370Y357125D01*
X241900Y355844D01*
X242744Y354744D01*
X243844Y353900D01*
X245125Y353370D01*
X246500Y353189D01*
X247875Y353370D01*
X249156Y353900D01*
X250256Y354744D01*
X251100Y355844D01*
X251630Y357125D01*
X251811Y358500D01*
X251630Y359875D01*
X251100Y361156D01*
X250256Y362256D01*
X249156Y363100D01*
X247875Y363630D01*
X246500Y363811D01*
D02*
G37*
G36*
X229965D02*
X228590Y363630D01*
X227309Y363100D01*
X226209Y362256D01*
X225365Y361156D01*
X224834Y359875D01*
X224653Y358500D01*
X224834Y357125D01*
X225365Y355844D01*
X226209Y354744D01*
X227309Y353900D01*
X228590Y353370D01*
X229965Y353189D01*
X231339Y353370D01*
X232620Y353900D01*
X233720Y354744D01*
X234564Y355844D01*
X235095Y357125D01*
X235276Y358500D01*
X235095Y359875D01*
X234564Y361156D01*
X233720Y362256D01*
X232620Y363100D01*
X231339Y363630D01*
X229965Y363811D01*
D02*
G37*
G36*
X196500D02*
X195125Y363630D01*
X193844Y363100D01*
X192744Y362256D01*
X191900Y361156D01*
X191370Y359875D01*
X191189Y358500D01*
X191370Y357125D01*
X191900Y355844D01*
X192744Y354744D01*
X193844Y353900D01*
X195125Y353370D01*
X196500Y353189D01*
X197875Y353370D01*
X199156Y353900D01*
X200256Y354744D01*
X201100Y355844D01*
X201630Y357125D01*
X201811Y358500D01*
X201630Y359875D01*
X201100Y361156D01*
X200256Y362256D01*
X199156Y363100D01*
X197875Y363630D01*
X196500Y363811D01*
D02*
G37*
G36*
X179965D02*
X178590Y363630D01*
X177309Y363100D01*
X176209Y362256D01*
X175365Y361156D01*
X174834Y359875D01*
X174653Y358500D01*
X174834Y357125D01*
X175365Y355844D01*
X176209Y354744D01*
X177309Y353900D01*
X178590Y353370D01*
X179965Y353189D01*
X181339Y353370D01*
X182620Y353900D01*
X183720Y354744D01*
X184564Y355844D01*
X185095Y357125D01*
X185276Y358500D01*
X185095Y359875D01*
X184564Y361156D01*
X183720Y362256D01*
X182620Y363100D01*
X181339Y363630D01*
X179965Y363811D01*
D02*
G37*
G36*
X148000Y363658D02*
X146625Y363477D01*
X145344Y362946D01*
X144244Y362102D01*
X143400Y361002D01*
X142870Y359721D01*
X142689Y358347D01*
X142870Y356972D01*
X143400Y355691D01*
X144244Y354591D01*
X145344Y353747D01*
X146625Y353216D01*
X148000Y353035D01*
X149375Y353216D01*
X150656Y353747D01*
X151756Y354591D01*
X152600Y355691D01*
X153130Y356972D01*
X153311Y358347D01*
X153130Y359721D01*
X152600Y361002D01*
X151756Y362102D01*
X150656Y362946D01*
X149375Y363477D01*
X148000Y363658D01*
D02*
G37*
G36*
X131465D02*
X130090Y363477D01*
X128809Y362946D01*
X127709Y362102D01*
X126865Y361002D01*
X126334Y359721D01*
X126153Y358347D01*
X126334Y356972D01*
X126865Y355691D01*
X127709Y354591D01*
X128809Y353747D01*
X130090Y353216D01*
X131465Y353035D01*
X132839Y353216D01*
X134120Y353747D01*
X135220Y354591D01*
X136064Y355691D01*
X136595Y356972D01*
X136776Y358347D01*
X136595Y359721D01*
X136064Y361002D01*
X135220Y362102D01*
X134120Y362946D01*
X132839Y363477D01*
X131465Y363658D01*
D02*
G37*
G36*
X197500Y330907D02*
X196770Y330762D01*
X196152Y330348D01*
X195738Y329730D01*
X195593Y329000D01*
X195738Y328270D01*
X196152Y327652D01*
X196770Y327238D01*
X197500Y327093D01*
X198230Y327238D01*
X198848Y327652D01*
X199262Y328270D01*
X199407Y329000D01*
X199262Y329730D01*
X198848Y330348D01*
X198230Y330762D01*
X197500Y330907D01*
D02*
G37*
G36*
X146074Y324333D02*
X145344Y324188D01*
X144726Y323774D01*
X144312Y323156D01*
X144167Y322426D01*
X144312Y321696D01*
X144726Y321078D01*
X145344Y320665D01*
X146074Y320519D01*
X146803Y320665D01*
X147422Y321078D01*
X147835Y321696D01*
X147980Y322426D01*
X147835Y323156D01*
X147422Y323774D01*
X146803Y324188D01*
X146074Y324333D01*
D02*
G37*
G36*
X197661Y323246D02*
X196931Y323100D01*
X196313Y322687D01*
X195899Y322069D01*
X195754Y321339D01*
X195899Y320609D01*
X196313Y319991D01*
X196931Y319577D01*
X197661Y319432D01*
X198391Y319577D01*
X199009Y319991D01*
X199423Y320609D01*
X199568Y321339D01*
X199423Y322069D01*
X199009Y322687D01*
X198391Y323100D01*
X197661Y323246D01*
D02*
G37*
G36*
X232663Y323244D02*
X231933Y323099D01*
X231315Y322685D01*
X230901Y322067D01*
X230756Y321337D01*
X230901Y320607D01*
X231315Y319989D01*
X231933Y319576D01*
X232663Y319430D01*
X233393Y319576D01*
X234011Y319989D01*
X234424Y320607D01*
X234570Y321337D01*
X234424Y322067D01*
X234011Y322685D01*
X233393Y323099D01*
X232663Y323244D01*
D02*
G37*
G36*
X315578Y312513D02*
X315578Y312513D01*
X251000D01*
X251000Y312513D01*
X250421Y312398D01*
X249930Y312070D01*
X220873Y283013D01*
X65778D01*
X65485Y283979D01*
X64886Y285099D01*
X64081Y286081D01*
X63099Y286886D01*
X61979Y287485D01*
X60764Y287854D01*
X59500Y287978D01*
X58236Y287854D01*
X57021Y287485D01*
X55901Y286886D01*
X54919Y286081D01*
X54114Y285099D01*
X53515Y283979D01*
X53146Y282764D01*
X53022Y281500D01*
X53146Y280236D01*
X53515Y279021D01*
X54114Y277901D01*
X54919Y276919D01*
X55901Y276114D01*
X57021Y275515D01*
X58236Y275146D01*
X59500Y275022D01*
X60764Y275146D01*
X61979Y275515D01*
X63099Y276114D01*
X64081Y276919D01*
X64886Y277901D01*
X65485Y279021D01*
X65778Y279987D01*
X221500D01*
X221500Y279987D01*
X222079Y280102D01*
X222570Y280430D01*
X251627Y309487D01*
X314951D01*
X344739Y279699D01*
Y268656D01*
X343794Y268563D01*
X342635Y268211D01*
X341566Y267640D01*
X340629Y266871D01*
X339860Y265934D01*
X339289Y264865D01*
X338937Y263706D01*
X338819Y262500D01*
X338937Y261294D01*
X339289Y260135D01*
X339860Y259066D01*
X340629Y258129D01*
X341566Y257360D01*
X342635Y256789D01*
X343794Y256437D01*
X345000Y256319D01*
X346206Y256437D01*
X347365Y256789D01*
X348434Y257360D01*
X349371Y258129D01*
X350140Y259066D01*
X350711Y260135D01*
X351063Y261294D01*
X351181Y262500D01*
X351063Y263706D01*
X350711Y264865D01*
X350140Y265934D01*
X349371Y266871D01*
X348434Y267640D01*
X347765Y267997D01*
Y280326D01*
X347650Y280906D01*
X347322Y281396D01*
X347322Y281397D01*
X316648Y312070D01*
X316158Y312398D01*
X316061Y312417D01*
X315578Y312513D01*
D02*
G37*
G36*
X195969Y312867D02*
X195239Y312722D01*
X194833Y312451D01*
X154164D01*
X153791Y312700D01*
X153061Y312845D01*
X152332Y312700D01*
X151713Y312287D01*
X151300Y311668D01*
X151155Y310939D01*
X151300Y310209D01*
X151713Y309590D01*
X152332Y309177D01*
X153061Y309032D01*
X153791Y309177D01*
X154161Y309424D01*
X194902D01*
X195239Y309199D01*
X195969Y309054D01*
X196698Y309199D01*
X197317Y309612D01*
X197730Y310231D01*
X197876Y310961D01*
X197730Y311690D01*
X197317Y312309D01*
X196698Y312722D01*
X195969Y312867D01*
D02*
G37*
G36*
X232663Y315569D02*
X231933Y315424D01*
X231314Y315011D01*
X230901Y314392D01*
X230756Y313663D01*
X230901Y312933D01*
X231314Y312314D01*
X231933Y311901D01*
X232663Y311756D01*
X233392Y311901D01*
X234011Y312314D01*
X234424Y312933D01*
X234569Y313663D01*
X234424Y314392D01*
X234011Y315011D01*
X233392Y315424D01*
X232663Y315569D01*
D02*
G37*
G36*
X82965Y363311D02*
X81590Y363130D01*
X80309Y362600D01*
X79209Y361756D01*
X78365Y360656D01*
X77834Y359375D01*
X77653Y358000D01*
X77834Y356625D01*
X78365Y355344D01*
X79209Y354244D01*
X80309Y353400D01*
X81451Y352927D01*
Y343233D01*
X41552Y303334D01*
X41445Y303422D01*
X40325Y304020D01*
X39110Y304389D01*
X37846Y304514D01*
X36583Y304389D01*
X35367Y304020D01*
X34247Y303422D01*
X33266Y302616D01*
X32460Y301634D01*
X31861Y300515D01*
X31493Y299299D01*
X31368Y298035D01*
X31493Y296772D01*
X31861Y295556D01*
X32460Y294436D01*
X33266Y293455D01*
X34247Y292649D01*
X35367Y292051D01*
X36583Y291682D01*
X37846Y291557D01*
X39110Y291682D01*
X40325Y292051D01*
X41445Y292649D01*
X42427Y293455D01*
X43233Y294436D01*
X43831Y295556D01*
X44200Y296772D01*
X44324Y298035D01*
X44200Y299299D01*
X43831Y300515D01*
X43546Y301048D01*
X84035Y341536D01*
X84035Y341536D01*
X84363Y342027D01*
X84478Y342606D01*
Y352927D01*
X85620Y353400D01*
X86720Y354244D01*
X87564Y355344D01*
X88095Y356625D01*
X88276Y358000D01*
X88095Y359375D01*
X87564Y360656D01*
X86720Y361756D01*
X85620Y362600D01*
X84339Y363130D01*
X82965Y363311D01*
D02*
G37*
G36*
X181000Y306907D02*
X180270Y306762D01*
X179652Y306348D01*
X179238Y305730D01*
X179093Y305000D01*
X179238Y304270D01*
X179652Y303652D01*
X180270Y303238D01*
X181000Y303093D01*
X181730Y303238D01*
X182348Y303652D01*
X182762Y304270D01*
X182907Y305000D01*
X182762Y305730D01*
X182348Y306348D01*
X181730Y306762D01*
X181000Y306907D01*
D02*
G37*
G36*
X302354Y294216D02*
X296646D01*
Y293013D01*
X294101D01*
X293730Y293262D01*
X293000Y293407D01*
X292270Y293262D01*
X291652Y292848D01*
X291238Y292230D01*
X291093Y291500D01*
X291238Y290770D01*
X291652Y290152D01*
X292270Y289738D01*
X293000Y289593D01*
X293730Y289738D01*
X294101Y289987D01*
X296646D01*
Y283784D01*
X302354D01*
Y284928D01*
X302874D01*
X325703Y262099D01*
X325703Y262099D01*
X326194Y261771D01*
X326773Y261656D01*
X331204D01*
X332345Y260515D01*
X332044Y260109D01*
X331617Y260337D01*
X330458Y260688D01*
X329252Y260807D01*
X328046Y260688D01*
X326887Y260337D01*
X325818Y259766D01*
X324881Y258997D01*
X324112Y258060D01*
X324079Y257997D01*
X323999Y258013D01*
X323999Y258013D01*
X323127D01*
X315106Y266035D01*
X314615Y266363D01*
X314035Y266478D01*
X314035Y266478D01*
X65778D01*
X65485Y267444D01*
X64886Y268564D01*
X64081Y269545D01*
X63099Y270351D01*
X61979Y270950D01*
X60764Y271318D01*
X59500Y271443D01*
X58236Y271318D01*
X57021Y270950D01*
X55901Y270351D01*
X54919Y269545D01*
X54114Y268564D01*
X53515Y267444D01*
X53146Y266228D01*
X53022Y264965D01*
X53146Y263701D01*
X53515Y262486D01*
X54114Y261366D01*
X54919Y260384D01*
X55901Y259578D01*
X56541Y259236D01*
X56705Y258581D01*
X56660Y258513D01*
X46438D01*
X43356Y261596D01*
X43831Y262486D01*
X44200Y263701D01*
X44324Y264965D01*
X44200Y266228D01*
X43831Y267444D01*
X43233Y268564D01*
X42427Y269545D01*
X41445Y270351D01*
X40325Y270950D01*
X39110Y271318D01*
X37846Y271443D01*
X36583Y271318D01*
X35367Y270950D01*
X34247Y270351D01*
X33266Y269545D01*
X32460Y268564D01*
X31861Y267444D01*
X31493Y266228D01*
X31368Y264965D01*
X31493Y263701D01*
X31861Y262486D01*
X32460Y261366D01*
X33266Y260384D01*
X34247Y259578D01*
X35367Y258980D01*
X36583Y258611D01*
X37846Y258487D01*
X39110Y258611D01*
X40325Y258980D01*
X41216Y259455D01*
X44741Y255930D01*
X45232Y255602D01*
X45811Y255487D01*
X45811Y255487D01*
X310503D01*
X315560Y250430D01*
X315560Y250430D01*
X315560Y250430D01*
X323961Y242029D01*
X323541Y241243D01*
X323189Y240084D01*
X323071Y238878D01*
X323189Y237672D01*
X323541Y236512D01*
X324112Y235444D01*
X324881Y234507D01*
X325818Y233738D01*
X326239Y233513D01*
X326114Y233013D01*
X215127D01*
X198641Y249499D01*
X198150Y249827D01*
X197571Y249942D01*
X197571Y249942D01*
X65778D01*
X65485Y250908D01*
X64886Y252028D01*
X64081Y253010D01*
X63099Y253815D01*
X61979Y254414D01*
X60764Y254783D01*
X59500Y254907D01*
X58236Y254783D01*
X57021Y254414D01*
X55901Y253815D01*
X54919Y253010D01*
X54114Y252028D01*
X53515Y250908D01*
X53146Y249693D01*
X53022Y248429D01*
X53146Y247165D01*
X53515Y245950D01*
X54114Y244830D01*
X54919Y243848D01*
X55901Y243043D01*
X57021Y242444D01*
X58236Y242076D01*
X59500Y241951D01*
X60764Y242076D01*
X61979Y242444D01*
X63099Y243043D01*
X64081Y243848D01*
X64886Y244830D01*
X65485Y245950D01*
X65778Y246916D01*
X196944D01*
X213430Y230430D01*
X213430Y230430D01*
X213921Y230102D01*
X214500Y229987D01*
X214500Y229987D01*
X331873D01*
X341247Y220613D01*
X341222Y220114D01*
X340629Y219627D01*
X339860Y218690D01*
X339289Y217621D01*
X338937Y216462D01*
X338819Y215256D01*
X338937Y214050D01*
X339289Y212890D01*
X339860Y211822D01*
X340629Y210885D01*
X341566Y210116D01*
X342635Y209545D01*
X343794Y209193D01*
X345000Y209075D01*
X346206Y209193D01*
X347365Y209545D01*
X348434Y210116D01*
X349371Y210885D01*
X350140Y211822D01*
X350711Y212890D01*
X351063Y214050D01*
X351181Y215256D01*
X351063Y216462D01*
X350711Y217621D01*
X350140Y218690D01*
X349371Y219627D01*
X348434Y220395D01*
X347365Y220967D01*
X346206Y221319D01*
X345000Y221437D01*
X344591Y221397D01*
X344284Y221856D01*
X344284Y221856D01*
X333570Y232570D01*
X333079Y232898D01*
X332500Y233013D01*
X332500Y233013D01*
X332390D01*
X332265Y233513D01*
X332686Y233738D01*
X333623Y234507D01*
X334392Y235444D01*
X334963Y236512D01*
X335314Y237672D01*
X335433Y238878D01*
X335314Y240084D01*
X334963Y241243D01*
X334392Y242312D01*
X333623Y243249D01*
X332686Y244018D01*
X331617Y244589D01*
X330458Y244940D01*
X329252Y245059D01*
X328046Y244940D01*
X326887Y244589D01*
X326101Y244169D01*
X317700Y252570D01*
X317700Y252570D01*
X312200Y258070D01*
X311709Y258398D01*
X311130Y258513D01*
X311130Y258513D01*
X62340D01*
X62295Y258581D01*
X62459Y259236D01*
X63099Y259578D01*
X64081Y260384D01*
X64886Y261366D01*
X65485Y262486D01*
X65778Y263451D01*
X313409D01*
X321430Y255430D01*
X321430Y255430D01*
X321921Y255102D01*
X322500Y254987D01*
X322500Y254987D01*
X322744D01*
X323071Y254626D01*
X323189Y253420D01*
X323541Y252260D01*
X324112Y251192D01*
X324881Y250255D01*
X325818Y249486D01*
X326887Y248915D01*
X328046Y248563D01*
X329252Y248445D01*
X330458Y248563D01*
X331617Y248915D01*
X332686Y249486D01*
X333623Y250255D01*
X334392Y251192D01*
X334963Y252260D01*
X335314Y253420D01*
X335433Y254626D01*
X335314Y255832D01*
X334963Y256992D01*
X334735Y257418D01*
X335141Y257719D01*
X340974Y251885D01*
X340950Y251386D01*
X340629Y251123D01*
X339860Y250186D01*
X339289Y249117D01*
X338937Y247958D01*
X338819Y246752D01*
X338937Y245546D01*
X339289Y244387D01*
X339860Y243318D01*
X340629Y242381D01*
X341566Y241612D01*
X342635Y241041D01*
X343794Y240689D01*
X345000Y240571D01*
X346206Y240689D01*
X347365Y241041D01*
X348434Y241612D01*
X349371Y242381D01*
X350140Y243318D01*
X350711Y244387D01*
X351063Y245546D01*
X351181Y246752D01*
X351063Y247958D01*
X350711Y249117D01*
X350140Y250186D01*
X349371Y251123D01*
X348434Y251892D01*
X347365Y252463D01*
X346206Y252815D01*
X345000Y252933D01*
X344278Y252862D01*
X332901Y264239D01*
X332410Y264567D01*
X331831Y264682D01*
X331831Y264682D01*
X327400D01*
X304571Y287511D01*
X304080Y287839D01*
X303501Y287954D01*
X303501Y287954D01*
X302354D01*
Y288902D01*
Y294216D01*
D02*
G37*
G36*
X9106Y305057D02*
X7736Y304923D01*
X6419Y304523D01*
X5205Y303874D01*
X4141Y303001D01*
X3268Y301937D01*
X2619Y300723D01*
X2219Y299405D01*
X2084Y298035D01*
X2219Y296666D01*
X2619Y295348D01*
X3268Y294134D01*
X4141Y293070D01*
X5205Y292197D01*
X6419Y291548D01*
X7736Y291148D01*
X9106Y291013D01*
X10476Y291148D01*
X11794Y291548D01*
X13007Y292197D01*
X14072Y293070D01*
X14945Y294134D01*
X15594Y295348D01*
X15993Y296666D01*
X16128Y298035D01*
X15993Y299405D01*
X15594Y300723D01*
X14945Y301937D01*
X14072Y303001D01*
X13007Y303874D01*
X11794Y304523D01*
X10476Y304923D01*
X9106Y305057D01*
D02*
G37*
G36*
X244650Y285150D02*
X238350D01*
Y278850D01*
X244650D01*
Y285150D01*
D02*
G37*
G36*
X209000Y244907D02*
X208270Y244762D01*
X207652Y244348D01*
X207238Y243730D01*
X207093Y243000D01*
X207238Y242270D01*
X207652Y241652D01*
X208270Y241238D01*
X209000Y241093D01*
X209730Y241238D01*
X210348Y241652D01*
X210762Y242270D01*
X210907Y243000D01*
X210762Y243730D01*
X210348Y244348D01*
X209730Y244762D01*
X209000Y244907D01*
D02*
G37*
G36*
X37846Y238372D02*
X36583Y238247D01*
X35367Y237879D01*
X34247Y237280D01*
X33266Y236474D01*
X32460Y235493D01*
X31861Y234373D01*
X31493Y233157D01*
X31368Y231894D01*
X31418Y231393D01*
X31416Y231393D01*
X30924Y231065D01*
X30924Y231065D01*
X22430Y222570D01*
X22102Y222079D01*
X21987Y221500D01*
X21987Y221500D01*
Y180500D01*
X21987Y180500D01*
X22102Y179921D01*
X22430Y179430D01*
X33930Y167930D01*
X33930Y167930D01*
X34421Y167602D01*
X35000Y167487D01*
X35000Y167487D01*
X141373D01*
X241291Y67569D01*
X241782Y67241D01*
X242361Y67126D01*
X242361Y67126D01*
X365139D01*
X365139Y67126D01*
X365718Y67241D01*
X366209Y67569D01*
X380570Y81930D01*
X380570Y81930D01*
X380898Y82421D01*
X381013Y83000D01*
Y203000D01*
X381013Y203000D01*
X380898Y203579D01*
X380570Y204070D01*
X374984Y209656D01*
X374493Y209984D01*
X373914Y210099D01*
X373914Y210099D01*
X366271D01*
X365888Y210816D01*
X365119Y211753D01*
X364182Y212522D01*
X363113Y213093D01*
X361954Y213444D01*
X360748Y213563D01*
X359542Y213444D01*
X358383Y213093D01*
X357314Y212522D01*
X356377Y211753D01*
X355608Y210816D01*
X355037Y209747D01*
X354685Y208588D01*
X354567Y207382D01*
X354685Y206176D01*
X355037Y205016D01*
X355608Y203948D01*
X356377Y203011D01*
X357314Y202242D01*
X358383Y201671D01*
X359542Y201319D01*
X360748Y201201D01*
X361954Y201319D01*
X363113Y201671D01*
X364182Y202242D01*
X365119Y203011D01*
X365888Y203948D01*
X366459Y205016D01*
X366811Y206176D01*
X366899Y207072D01*
X373287D01*
X377987Y202373D01*
Y83627D01*
X364512Y70152D01*
X242988D01*
X143070Y170070D01*
X142579Y170398D01*
X142000Y170513D01*
X142000Y170513D01*
X35627D01*
X25013Y181127D01*
Y220873D01*
X32094Y227953D01*
X32768Y227920D01*
X33266Y227313D01*
X34247Y226507D01*
X35367Y225909D01*
X36583Y225540D01*
X37846Y225416D01*
X39110Y225540D01*
X40325Y225909D01*
X41445Y226507D01*
X42427Y227313D01*
X43233Y228295D01*
X43831Y229415D01*
X44200Y230630D01*
X44324Y231894D01*
X44200Y233157D01*
X43831Y234373D01*
X43233Y235493D01*
X42427Y236474D01*
X41445Y237280D01*
X40325Y237879D01*
X39110Y238247D01*
X37846Y238372D01*
D02*
G37*
G36*
X99500Y363311D02*
X98125Y363130D01*
X96844Y362600D01*
X95744Y361756D01*
X94900Y360656D01*
X94370Y359375D01*
X94189Y358000D01*
X94370Y356625D01*
X94900Y355344D01*
X95744Y354244D01*
X96844Y353400D01*
X97987Y352927D01*
Y338115D01*
X63206Y303334D01*
X63099Y303422D01*
X61979Y304020D01*
X60764Y304389D01*
X59500Y304514D01*
X58236Y304389D01*
X57021Y304020D01*
X55901Y303422D01*
X54919Y302616D01*
X54114Y301634D01*
X53515Y300515D01*
X53146Y299299D01*
X53022Y298035D01*
X53146Y296772D01*
X53515Y295556D01*
X54114Y294436D01*
X54919Y293455D01*
X55901Y292649D01*
X56155Y292513D01*
X56030Y292013D01*
X47394D01*
X47394Y292013D01*
X46815Y291898D01*
X46324Y291570D01*
X46324Y291570D01*
X41552Y286799D01*
X41445Y286886D01*
X40325Y287485D01*
X39110Y287854D01*
X37846Y287978D01*
X36583Y287854D01*
X35367Y287485D01*
X34247Y286886D01*
X33266Y286081D01*
X32460Y285099D01*
X31861Y283979D01*
X31493Y282764D01*
X31368Y281500D01*
X31493Y280236D01*
X31861Y279021D01*
X32460Y277901D01*
X33266Y276919D01*
X34247Y276114D01*
X35367Y275515D01*
X36583Y275146D01*
X37846Y275022D01*
X39110Y275146D01*
X40325Y275515D01*
X41445Y276114D01*
X42427Y276919D01*
X43233Y277901D01*
X43831Y279021D01*
X44200Y280236D01*
X44324Y281500D01*
X44200Y282764D01*
X43831Y283979D01*
X43546Y284512D01*
X48020Y288987D01*
X216643D01*
X216910Y288487D01*
X216738Y288230D01*
X216593Y287500D01*
X216738Y286770D01*
X217152Y286152D01*
X217770Y285738D01*
X218500Y285593D01*
X219230Y285738D01*
X219848Y286152D01*
X220262Y286770D01*
X220407Y287500D01*
X220262Y288230D01*
X219848Y288848D01*
X219230Y289262D01*
X218712Y289365D01*
X218522Y289882D01*
X245129Y316489D01*
X331422D01*
X331433Y316487D01*
X355873D01*
X371487Y300873D01*
Y227627D01*
X368040Y224181D01*
X366826D01*
X366811Y224336D01*
X366459Y225495D01*
X365888Y226564D01*
X365119Y227501D01*
X364182Y228270D01*
X363113Y228841D01*
X361954Y229192D01*
X360748Y229311D01*
X359542Y229192D01*
X358383Y228841D01*
X357314Y228270D01*
X356377Y227501D01*
X355608Y226564D01*
X355037Y225495D01*
X354685Y224336D01*
X354567Y223130D01*
X354685Y221924D01*
X355037Y220764D01*
X355608Y219696D01*
X356377Y218759D01*
X357314Y217990D01*
X358383Y217419D01*
X359542Y217067D01*
X360748Y216949D01*
X361954Y217067D01*
X363113Y217419D01*
X364182Y217990D01*
X365119Y218759D01*
X365888Y219696D01*
X366459Y220764D01*
X366577Y221154D01*
X368667D01*
X368667Y221154D01*
X369247Y221269D01*
X369737Y221597D01*
X374070Y225930D01*
X374398Y226421D01*
X374513Y227000D01*
X374513Y227000D01*
Y301500D01*
X374398Y302079D01*
X374070Y302570D01*
X374070Y302570D01*
X357570Y319070D01*
X357079Y319398D01*
X356500Y319513D01*
X356500Y319513D01*
X331442D01*
X331431Y319516D01*
X331431Y319516D01*
X244502D01*
X244502Y319516D01*
X243923Y319400D01*
X243432Y319072D01*
X243432Y319072D01*
X216373Y292013D01*
X62970D01*
X62845Y292513D01*
X63099Y292649D01*
X64081Y293455D01*
X64886Y294436D01*
X65485Y295556D01*
X65854Y296772D01*
X65978Y298035D01*
X65854Y299299D01*
X65485Y300515D01*
X65200Y301048D01*
X100570Y336418D01*
X100570Y336418D01*
X100898Y336909D01*
X101013Y337488D01*
Y352927D01*
X102156Y353400D01*
X103256Y354244D01*
X104100Y355344D01*
X104630Y356625D01*
X104811Y358000D01*
X104630Y359375D01*
X104100Y360656D01*
X103256Y361756D01*
X102156Y362600D01*
X100875Y363130D01*
X99500Y363311D01*
D02*
G37*
G36*
X129500Y222013D02*
X129500Y222013D01*
X64642D01*
X64642Y222013D01*
X64063Y221898D01*
X63572Y221570D01*
X63572Y221570D01*
X62869Y220867D01*
X61979Y221343D01*
X60764Y221712D01*
X59500Y221836D01*
X58236Y221712D01*
X57021Y221343D01*
X55901Y220744D01*
X54919Y219939D01*
X54114Y218957D01*
X53515Y217837D01*
X53146Y216622D01*
X53022Y215358D01*
X53146Y214094D01*
X53515Y212879D01*
X54114Y211759D01*
X54919Y210778D01*
X55901Y209972D01*
X57021Y209373D01*
X58236Y209005D01*
X59500Y208880D01*
X60764Y209005D01*
X61979Y209373D01*
X63099Y209972D01*
X64081Y210778D01*
X64886Y211759D01*
X65485Y212879D01*
X65854Y214094D01*
X65978Y215358D01*
X65854Y216622D01*
X65485Y217837D01*
X65101Y218556D01*
X65421Y218987D01*
X128873D01*
X254958Y92902D01*
X254958Y92902D01*
X255449Y92574D01*
X256028Y92459D01*
X256028Y92459D01*
X342411D01*
X342411Y92459D01*
X342990Y92574D01*
X343481Y92902D01*
X358570Y107991D01*
X358570Y107991D01*
X358735Y108238D01*
X358991Y108214D01*
X359235Y108086D01*
Y91706D01*
X352479Y84951D01*
X251752D01*
X148133Y188570D01*
X147642Y188898D01*
X147063Y189013D01*
X147063Y189013D01*
X71450D01*
X65009Y195454D01*
X65485Y196344D01*
X65854Y197559D01*
X65978Y198823D01*
X65854Y200087D01*
X65485Y201302D01*
X64886Y202422D01*
X64081Y203403D01*
X63099Y204209D01*
X61979Y204808D01*
X60764Y205176D01*
X59500Y205301D01*
X58236Y205176D01*
X57021Y204808D01*
X55901Y204209D01*
X54919Y203403D01*
X54114Y202422D01*
X53515Y201302D01*
X53146Y200087D01*
X53022Y198823D01*
X53146Y197559D01*
X53515Y196344D01*
X54114Y195224D01*
X54919Y194242D01*
X55901Y193437D01*
X57021Y192838D01*
X58236Y192469D01*
X59500Y192345D01*
X60764Y192469D01*
X61979Y192838D01*
X62869Y193314D01*
X69753Y186430D01*
X70244Y186102D01*
X70823Y185987D01*
X70823Y185987D01*
X146436D01*
X250055Y82367D01*
X250546Y82039D01*
X251125Y81924D01*
X251125Y81924D01*
X353106D01*
X353106Y81924D01*
X353685Y82039D01*
X354176Y82367D01*
X361818Y90009D01*
X362146Y90500D01*
X362261Y91079D01*
X362261Y91079D01*
Y154168D01*
X363113Y154427D01*
X364182Y154998D01*
X365119Y155767D01*
X365888Y156704D01*
X366459Y157772D01*
X366811Y158932D01*
X366929Y160138D01*
X366811Y161344D01*
X366459Y162503D01*
X365888Y163572D01*
X365119Y164509D01*
X364182Y165277D01*
X363113Y165849D01*
X361954Y166200D01*
X360748Y166319D01*
X359542Y166200D01*
X358383Y165849D01*
X357314Y165277D01*
X356377Y164509D01*
X355608Y163572D01*
X355037Y162503D01*
X354685Y161344D01*
X354567Y160138D01*
X354685Y158932D01*
X355037Y157772D01*
X355608Y156704D01*
X356377Y155767D01*
X357314Y154998D01*
X358383Y154427D01*
X359235Y154168D01*
Y148632D01*
X358735Y148480D01*
X358570Y148726D01*
X358570Y148726D01*
X353013Y154283D01*
Y179000D01*
X352898Y179579D01*
X352570Y180070D01*
X352570Y180070D01*
X350835Y181805D01*
X351063Y182554D01*
X351181Y183760D01*
X351063Y184966D01*
X350711Y186125D01*
X350140Y187194D01*
X349371Y188131D01*
X348434Y188899D01*
X347365Y189471D01*
X346206Y189822D01*
X345000Y189941D01*
X343794Y189822D01*
X342635Y189471D01*
X341566Y188899D01*
X340629Y188131D01*
X339860Y187194D01*
X339289Y186125D01*
X338937Y184966D01*
X338819Y183760D01*
X338937Y182554D01*
X339289Y181394D01*
X339860Y180326D01*
X340629Y179389D01*
X341566Y178620D01*
X342635Y178049D01*
X343794Y177697D01*
X345000Y177578D01*
X346206Y177697D01*
X347365Y178049D01*
X348434Y178620D01*
X349151Y179209D01*
X349987Y178373D01*
Y153656D01*
X349987Y153656D01*
X350102Y153077D01*
X350430Y152586D01*
X355987Y147029D01*
Y109688D01*
X341784Y95486D01*
X256654D01*
X130570Y221570D01*
X130079Y221898D01*
X129983Y221917D01*
X129500Y222013D01*
D02*
G37*
G36*
X250500Y218907D02*
X249770Y218762D01*
X249152Y218348D01*
X248738Y217730D01*
X248593Y217000D01*
X248738Y216270D01*
X249152Y215652D01*
X249770Y215238D01*
X250500Y215093D01*
X251230Y215238D01*
X251848Y215652D01*
X252262Y216270D01*
X252407Y217000D01*
X252262Y217730D01*
X251848Y218348D01*
X251230Y218762D01*
X250500Y218907D01*
D02*
G37*
G36*
X246000D02*
X245270Y218762D01*
X244652Y218348D01*
X244238Y217730D01*
X244093Y217000D01*
X244238Y216270D01*
X244652Y215652D01*
X245270Y215238D01*
X246000Y215093D01*
X246730Y215238D01*
X247348Y215652D01*
X247762Y216270D01*
X247907Y217000D01*
X247762Y217730D01*
X247348Y218348D01*
X246730Y218762D01*
X246000Y218907D01*
D02*
G37*
G36*
X241500D02*
X240770Y218762D01*
X240152Y218348D01*
X239738Y217730D01*
X239593Y217000D01*
X239738Y216270D01*
X240152Y215652D01*
X240770Y215238D01*
X241500Y215093D01*
X242230Y215238D01*
X242848Y215652D01*
X243262Y216270D01*
X243407Y217000D01*
X243262Y217730D01*
X242848Y218348D01*
X242230Y218762D01*
X241500Y218907D01*
D02*
G37*
G36*
X237000D02*
X236270Y218762D01*
X235652Y218348D01*
X235238Y217730D01*
X235093Y217000D01*
X235238Y216270D01*
X235652Y215652D01*
X236270Y215238D01*
X237000Y215093D01*
X237730Y215238D01*
X238348Y215652D01*
X238762Y216270D01*
X238907Y217000D01*
X238762Y217730D01*
X238348Y218348D01*
X237730Y218762D01*
X237000Y218907D01*
D02*
G37*
G36*
X232000D02*
X231270Y218762D01*
X230652Y218348D01*
X230238Y217730D01*
X230093Y217000D01*
X230238Y216270D01*
X230652Y215652D01*
X231270Y215238D01*
X232000Y215093D01*
X232730Y215238D01*
X233348Y215652D01*
X233762Y216270D01*
X233907Y217000D01*
X233762Y217730D01*
X233348Y218348D01*
X232730Y218762D01*
X232000Y218907D01*
D02*
G37*
G36*
X226500D02*
X225770Y218762D01*
X225152Y218348D01*
X224738Y217730D01*
X224593Y217000D01*
X224738Y216270D01*
X225152Y215652D01*
X225770Y215238D01*
X226500Y215093D01*
X227230Y215238D01*
X227848Y215652D01*
X228262Y216270D01*
X228407Y217000D01*
X228262Y217730D01*
X227848Y218348D01*
X227230Y218762D01*
X226500Y218907D01*
D02*
G37*
G36*
X186150Y219150D02*
X179850D01*
Y212850D01*
X186150D01*
Y219150D01*
D02*
G37*
G36*
X37846Y221836D02*
X36583Y221712D01*
X35367Y221343D01*
X34247Y220744D01*
X33266Y219939D01*
X32460Y218957D01*
X31861Y217837D01*
X31493Y216622D01*
X31379Y215465D01*
X30891Y215368D01*
X30400Y215040D01*
X30400Y215040D01*
X26930Y211570D01*
X26602Y211079D01*
X26487Y210500D01*
X26487Y210500D01*
Y183824D01*
X26487Y183824D01*
X26602Y183244D01*
X26930Y182753D01*
X37253Y172430D01*
X37744Y172102D01*
X38324Y171987D01*
X38324Y171987D01*
X141873D01*
X242430Y71430D01*
X242921Y71102D01*
X243500Y70987D01*
X243500Y70987D01*
X363000D01*
X363000Y70987D01*
X363579Y71102D01*
X364070Y71430D01*
X374570Y81930D01*
X374570Y81930D01*
X374898Y82421D01*
X375013Y83000D01*
Y188000D01*
X374898Y188579D01*
X374570Y189070D01*
X374570Y189070D01*
X372070Y191570D01*
X371579Y191898D01*
X371000Y192013D01*
X371000Y192013D01*
X366892D01*
X366811Y192840D01*
X366459Y193999D01*
X365888Y195068D01*
X365119Y196005D01*
X364182Y196774D01*
X363113Y197345D01*
X361954Y197696D01*
X360748Y197815D01*
X359542Y197696D01*
X358383Y197345D01*
X357314Y196774D01*
X356377Y196005D01*
X355608Y195068D01*
X355037Y193999D01*
X354685Y192840D01*
X354567Y191634D01*
X354685Y190428D01*
X355037Y189268D01*
X355608Y188200D01*
X356377Y187263D01*
X357314Y186494D01*
X358383Y185923D01*
X359542Y185571D01*
X360748Y185452D01*
X361954Y185571D01*
X363113Y185923D01*
X364182Y186494D01*
X365119Y187263D01*
X365888Y188200D01*
X366308Y188987D01*
X370373D01*
X371987Y187373D01*
Y83627D01*
X362373Y74013D01*
X244127D01*
X143570Y174570D01*
X143079Y174898D01*
X142500Y175013D01*
X142500Y175013D01*
X38950D01*
X29513Y184450D01*
Y209873D01*
X31794Y212154D01*
X32289Y212080D01*
X32460Y211759D01*
X33266Y210778D01*
X34247Y209972D01*
X35367Y209373D01*
X36583Y209005D01*
X37846Y208880D01*
X39110Y209005D01*
X40325Y209373D01*
X41445Y209972D01*
X42427Y210778D01*
X43233Y211759D01*
X43831Y212879D01*
X44200Y214094D01*
X44324Y215358D01*
X44200Y216622D01*
X43831Y217837D01*
X43233Y218957D01*
X42427Y219939D01*
X41445Y220744D01*
X40325Y221343D01*
X39110Y221712D01*
X37846Y221836D01*
D02*
G37*
G36*
X59500Y238372D02*
X58236Y238247D01*
X57021Y237879D01*
X55901Y237280D01*
X54919Y236474D01*
X54114Y235493D01*
X53515Y234373D01*
X53146Y233157D01*
X53022Y231894D01*
X53146Y230630D01*
X53515Y229415D01*
X54114Y228295D01*
X54919Y227313D01*
X55901Y226507D01*
X57021Y225909D01*
X58236Y225540D01*
X59500Y225416D01*
X60764Y225540D01*
X61979Y225909D01*
X63099Y226507D01*
X64081Y227313D01*
X64886Y228295D01*
X65485Y229415D01*
X65778Y230380D01*
X125479D01*
X257430Y98430D01*
X257430Y98430D01*
X257921Y98102D01*
X258500Y97987D01*
X258500Y97987D01*
X328000D01*
X328000Y97987D01*
X328579Y98102D01*
X329070Y98430D01*
X337570Y106930D01*
X337570Y106930D01*
X337898Y107421D01*
X338013Y108000D01*
X338013Y108000D01*
Y190381D01*
X341849Y194217D01*
X342635Y193797D01*
X343794Y193445D01*
X345000Y193326D01*
X346206Y193445D01*
X347365Y193797D01*
X348434Y194368D01*
X349371Y195137D01*
X350140Y196074D01*
X350711Y197142D01*
X351063Y198302D01*
X351181Y199508D01*
X351063Y200714D01*
X350711Y201873D01*
X350140Y202942D01*
X349371Y203879D01*
X348434Y204647D01*
X347365Y205219D01*
X346206Y205570D01*
X345000Y205689D01*
X343794Y205570D01*
X342635Y205219D01*
X341566Y204647D01*
X340629Y203879D01*
X339860Y202942D01*
X339289Y201873D01*
X338937Y200714D01*
X338819Y199508D01*
X338937Y198302D01*
X339289Y197142D01*
X339709Y196357D01*
X335851Y192499D01*
X335330Y192685D01*
X335314Y192840D01*
X334963Y193999D01*
X334392Y195068D01*
X333623Y196005D01*
X332686Y196774D01*
X332230Y197017D01*
Y201999D01*
X332686Y202242D01*
X333623Y203011D01*
X334392Y203948D01*
X334963Y205016D01*
X335314Y206176D01*
X335433Y207382D01*
X335314Y208588D01*
X334963Y209747D01*
X334392Y210816D01*
X333623Y211753D01*
X332686Y212522D01*
X332230Y212765D01*
Y217747D01*
X332686Y217990D01*
X333623Y218759D01*
X334392Y219696D01*
X334963Y220764D01*
X335314Y221924D01*
X335433Y223130D01*
X335314Y224336D01*
X334963Y225495D01*
X334392Y226564D01*
X333623Y227501D01*
X332686Y228270D01*
X331617Y228841D01*
X330458Y229192D01*
X329252Y229311D01*
X328046Y229192D01*
X326887Y228841D01*
X325818Y228270D01*
X324881Y227501D01*
X324112Y226564D01*
X323541Y225495D01*
X323382Y224970D01*
X279992D01*
X279992Y224970D01*
X279221Y224869D01*
X278503Y224571D01*
X277886Y224098D01*
X268394Y214606D01*
X267921Y213989D01*
X267623Y213271D01*
X267522Y212500D01*
Y145349D01*
X267466Y145214D01*
X267364Y144443D01*
X267466Y143672D01*
X267763Y142954D01*
X268237Y142337D01*
X268853Y141864D01*
X269572Y141566D01*
X270342Y141465D01*
X271113Y141566D01*
X271832Y141864D01*
X272448Y142337D01*
X272606Y142495D01*
X273079Y143111D01*
X273377Y143830D01*
X273478Y144600D01*
Y211266D01*
X281226Y219014D01*
X324672D01*
X324881Y218759D01*
X325818Y217990D01*
X326274Y217747D01*
Y212765D01*
X325818Y212522D01*
X324881Y211753D01*
X324112Y210816D01*
X323541Y209747D01*
X323189Y208588D01*
X323071Y207382D01*
X323189Y206176D01*
X323541Y205016D01*
X324112Y203948D01*
X324881Y203011D01*
X325818Y202242D01*
X326274Y201999D01*
Y197017D01*
X325818Y196774D01*
X324881Y196005D01*
X324112Y195068D01*
X323541Y193999D01*
X323189Y192840D01*
X323071Y191634D01*
X323189Y190428D01*
X323541Y189268D01*
X324112Y188200D01*
X324881Y187263D01*
X325818Y186494D01*
X326887Y185923D01*
X328046Y185571D01*
X329252Y185452D01*
X330458Y185571D01*
X331617Y185923D01*
X332686Y186494D01*
X333623Y187263D01*
X334392Y188200D01*
X334487Y188378D01*
X334987Y188252D01*
Y179267D01*
X334487Y179142D01*
X334392Y179320D01*
X333623Y180257D01*
X332686Y181025D01*
X331617Y181597D01*
X330458Y181948D01*
X329252Y182067D01*
X328046Y181948D01*
X326887Y181597D01*
X325818Y181025D01*
X324881Y180257D01*
X324112Y179320D01*
X323541Y178251D01*
X323189Y177092D01*
X323071Y175886D01*
X323189Y174680D01*
X323541Y173520D01*
X324112Y172452D01*
X324881Y171515D01*
X325818Y170746D01*
X326887Y170175D01*
X328046Y169823D01*
X329252Y169704D01*
X330458Y169823D01*
X331617Y170175D01*
X332686Y170746D01*
X333623Y171515D01*
X334392Y172452D01*
X334487Y172630D01*
X334987Y172504D01*
Y163519D01*
X334487Y163394D01*
X334392Y163572D01*
X333623Y164509D01*
X332686Y165277D01*
X331617Y165849D01*
X330458Y166200D01*
X329252Y166319D01*
X328046Y166200D01*
X326887Y165849D01*
X325818Y165277D01*
X324881Y164509D01*
X324112Y163572D01*
X323541Y162503D01*
X323189Y161344D01*
X323071Y160138D01*
X323189Y158932D01*
X323541Y157772D01*
X324112Y156704D01*
X324881Y155767D01*
X325818Y154998D01*
X326887Y154427D01*
X328046Y154075D01*
X329252Y153956D01*
X330458Y154075D01*
X331617Y154427D01*
X332686Y154998D01*
X333623Y155767D01*
X334392Y156704D01*
X334487Y156882D01*
X334987Y156756D01*
Y108627D01*
X327373Y101013D01*
X259127D01*
X127176Y232964D01*
X126685Y233292D01*
X126106Y233407D01*
X126106Y233407D01*
X65778D01*
X65485Y234373D01*
X64886Y235493D01*
X64081Y236474D01*
X63099Y237280D01*
X61979Y237879D01*
X60764Y238247D01*
X59500Y238372D01*
D02*
G37*
G36*
X9106Y205845D02*
X7736Y205710D01*
X6419Y205310D01*
X5205Y204661D01*
X4141Y203788D01*
X3268Y202724D01*
X2619Y201510D01*
X2219Y200193D01*
X2084Y198823D01*
X2219Y197453D01*
X2619Y196136D01*
X3268Y194922D01*
X4141Y193858D01*
X5205Y192984D01*
X6419Y192335D01*
X7736Y191936D01*
X9106Y191801D01*
X10476Y191936D01*
X11794Y192335D01*
X13007Y192984D01*
X14072Y193858D01*
X14945Y194922D01*
X15594Y196136D01*
X15993Y197453D01*
X16128Y198823D01*
X15993Y200193D01*
X15594Y201510D01*
X14945Y202724D01*
X14072Y203788D01*
X13007Y204661D01*
X11794Y205310D01*
X10476Y205710D01*
X9106Y205845D01*
D02*
G37*
G36*
X126537Y166662D02*
X125201Y166486D01*
X123956Y165971D01*
X122887Y165150D01*
X122066Y164081D01*
X121551Y162836D01*
X121375Y161500D01*
X121551Y160164D01*
X122066Y158919D01*
X122887Y157850D01*
X123956Y157029D01*
X125201Y156514D01*
X126537Y156338D01*
X127873Y156514D01*
X129118Y157029D01*
X130187Y157850D01*
X131008Y158919D01*
X131523Y160164D01*
X131699Y161500D01*
X131523Y162836D01*
X131008Y164081D01*
X130187Y165150D01*
X129118Y165971D01*
X127873Y166486D01*
X126537Y166662D01*
D02*
G37*
G36*
X104884D02*
X103547Y166486D01*
X102302Y165971D01*
X101233Y165150D01*
X100413Y164081D01*
X99897Y162836D01*
X99721Y161500D01*
X99897Y160164D01*
X100413Y158919D01*
X101233Y157850D01*
X102302Y157029D01*
X103547Y156514D01*
X104884Y156338D01*
X106220Y156514D01*
X107465Y157029D01*
X108534Y157850D01*
X109354Y158919D01*
X109870Y160164D01*
X110046Y161500D01*
X109870Y162836D01*
X109354Y164081D01*
X108534Y165150D01*
X107465Y165971D01*
X106220Y166486D01*
X104884Y166662D01*
D02*
G37*
G36*
X58957Y163975D02*
X57693Y163850D01*
X56478Y163482D01*
X55358Y162883D01*
X54376Y162077D01*
X53570Y161096D01*
X52972Y159976D01*
X52603Y158760D01*
X52479Y157497D01*
X52603Y156233D01*
X52972Y155018D01*
X53570Y153898D01*
X54376Y152916D01*
X55358Y152110D01*
X56478Y151512D01*
X57693Y151143D01*
X58957Y151019D01*
X60220Y151143D01*
X61436Y151512D01*
X62556Y152110D01*
X63537Y152916D01*
X64343Y153898D01*
X64942Y155018D01*
X65310Y156233D01*
X65435Y157497D01*
X65310Y158760D01*
X64942Y159976D01*
X64343Y161096D01*
X63537Y162077D01*
X62556Y162883D01*
X61436Y163482D01*
X60220Y163850D01*
X58957Y163975D01*
D02*
G37*
G36*
X37303D02*
X36039Y163850D01*
X34824Y163482D01*
X33704Y162883D01*
X32722Y162077D01*
X31917Y161096D01*
X31318Y159976D01*
X30950Y158760D01*
X30825Y157497D01*
X30950Y156233D01*
X31318Y155018D01*
X31917Y153898D01*
X32722Y152916D01*
X33704Y152110D01*
X34824Y151512D01*
X36039Y151143D01*
X37303Y151019D01*
X38567Y151143D01*
X39782Y151512D01*
X40902Y152110D01*
X41884Y152916D01*
X42689Y153898D01*
X43288Y155018D01*
X43657Y156233D01*
X43781Y157497D01*
X43657Y158760D01*
X43288Y159976D01*
X42689Y161096D01*
X41884Y162077D01*
X40902Y162883D01*
X39782Y163482D01*
X38567Y163850D01*
X37303Y163975D01*
D02*
G37*
G36*
X8563Y164519D02*
X7193Y164384D01*
X5876Y163984D01*
X4662Y163335D01*
X3598Y162462D01*
X2724Y161398D01*
X2076Y160184D01*
X1676Y158867D01*
X1541Y157497D01*
X1676Y156127D01*
X2076Y154809D01*
X2724Y153595D01*
X3598Y152531D01*
X4662Y151658D01*
X5876Y151009D01*
X7193Y150610D01*
X8563Y150475D01*
X9933Y150610D01*
X11250Y151009D01*
X12464Y151658D01*
X13528Y152531D01*
X14402Y153595D01*
X15051Y154809D01*
X15450Y156127D01*
X15585Y157497D01*
X15450Y158867D01*
X15051Y160184D01*
X14402Y161398D01*
X13528Y162462D01*
X12464Y163335D01*
X11250Y163984D01*
X9933Y164384D01*
X8563Y164519D01*
D02*
G37*
G36*
X126537Y150127D02*
X125201Y149951D01*
X123956Y149435D01*
X122887Y148615D01*
X122066Y147546D01*
X121551Y146301D01*
X121375Y144965D01*
X121551Y143629D01*
X122066Y142383D01*
X122887Y141314D01*
X123956Y140494D01*
X125201Y139978D01*
X126537Y139802D01*
X127873Y139978D01*
X129118Y140494D01*
X130187Y141314D01*
X131008Y142383D01*
X131523Y143629D01*
X131699Y144965D01*
X131523Y146301D01*
X131008Y147546D01*
X130187Y148615D01*
X129118Y149435D01*
X127873Y149951D01*
X126537Y150127D01*
D02*
G37*
G36*
X104884D02*
X103547Y149951D01*
X102302Y149435D01*
X101233Y148615D01*
X100413Y147546D01*
X99897Y146301D01*
X99721Y144965D01*
X99897Y143629D01*
X100413Y142383D01*
X101233Y141314D01*
X102302Y140494D01*
X103547Y139978D01*
X104884Y139802D01*
X106220Y139978D01*
X107465Y140494D01*
X108534Y141314D01*
X109354Y142383D01*
X109870Y143629D01*
X110046Y144965D01*
X109870Y146301D01*
X109354Y147546D01*
X108534Y148615D01*
X107465Y149435D01*
X106220Y149951D01*
X104884Y150127D01*
D02*
G37*
G36*
X294150Y141150D02*
X287850D01*
Y134850D01*
X294150D01*
Y141150D01*
D02*
G37*
G36*
X58957Y147439D02*
X57693Y147315D01*
X56478Y146946D01*
X55358Y146347D01*
X54376Y145542D01*
X53570Y144560D01*
X52972Y143440D01*
X52603Y142225D01*
X52479Y140961D01*
X52603Y139697D01*
X52972Y138482D01*
X53570Y137362D01*
X54376Y136381D01*
X55358Y135575D01*
X56478Y134976D01*
X57693Y134608D01*
X58957Y134483D01*
X60220Y134608D01*
X61436Y134976D01*
X62556Y135575D01*
X63537Y136381D01*
X64343Y137362D01*
X64942Y138482D01*
X65310Y139697D01*
X65435Y140961D01*
X65310Y142225D01*
X64942Y143440D01*
X64343Y144560D01*
X63537Y145542D01*
X62556Y146347D01*
X61436Y146946D01*
X60220Y147315D01*
X58957Y147439D01*
D02*
G37*
G36*
X37303D02*
X36039Y147315D01*
X34824Y146946D01*
X33704Y146347D01*
X32722Y145542D01*
X31917Y144560D01*
X31318Y143440D01*
X30950Y142225D01*
X30825Y140961D01*
X30950Y139697D01*
X31318Y138482D01*
X31917Y137362D01*
X32722Y136381D01*
X33704Y135575D01*
X34824Y134976D01*
X36039Y134608D01*
X37303Y134483D01*
X38567Y134608D01*
X39782Y134976D01*
X40902Y135575D01*
X41884Y136381D01*
X42689Y137362D01*
X43288Y138482D01*
X43657Y139697D01*
X43781Y140961D01*
X43657Y142225D01*
X43288Y143440D01*
X42689Y144560D01*
X41884Y145542D01*
X40902Y146347D01*
X39782Y146946D01*
X38567Y147315D01*
X37303Y147439D01*
D02*
G37*
G36*
X126537Y133591D02*
X125201Y133415D01*
X123956Y132900D01*
X122887Y132079D01*
X122066Y131010D01*
X121551Y129765D01*
X121375Y128429D01*
X121551Y127093D01*
X122066Y125848D01*
X122887Y124779D01*
X123956Y123959D01*
X125201Y123443D01*
X126537Y123267D01*
X127873Y123443D01*
X129118Y123959D01*
X130187Y124779D01*
X131008Y125848D01*
X131523Y127093D01*
X131699Y128429D01*
X131523Y129765D01*
X131008Y131010D01*
X130187Y132079D01*
X129118Y132900D01*
X127873Y133415D01*
X126537Y133591D01*
D02*
G37*
G36*
X104884D02*
X103547Y133415D01*
X102302Y132900D01*
X101233Y132079D01*
X100413Y131010D01*
X99897Y129765D01*
X99721Y128429D01*
X99897Y127093D01*
X100413Y125848D01*
X101233Y124779D01*
X102302Y123959D01*
X103547Y123443D01*
X104884Y123267D01*
X106220Y123443D01*
X107465Y123959D01*
X108534Y124779D01*
X109354Y125848D01*
X109870Y127093D01*
X110046Y128429D01*
X109870Y129765D01*
X109354Y131010D01*
X108534Y132079D01*
X107465Y132900D01*
X106220Y133415D01*
X104884Y133591D01*
D02*
G37*
G36*
X58957Y130904D02*
X57693Y130779D01*
X56478Y130411D01*
X55358Y129812D01*
X54376Y129006D01*
X53570Y128025D01*
X52972Y126905D01*
X52603Y125690D01*
X52479Y124426D01*
X52603Y123162D01*
X52972Y121947D01*
X53570Y120827D01*
X54376Y119845D01*
X55358Y119039D01*
X56478Y118441D01*
X57693Y118072D01*
X58957Y117948D01*
X60220Y118072D01*
X61436Y118441D01*
X62556Y119039D01*
X63537Y119845D01*
X64343Y120827D01*
X64942Y121947D01*
X65310Y123162D01*
X65435Y124426D01*
X65310Y125690D01*
X64942Y126905D01*
X64343Y128025D01*
X63537Y129006D01*
X62556Y129812D01*
X61436Y130411D01*
X60220Y130779D01*
X58957Y130904D01*
D02*
G37*
G36*
X37303D02*
X36039Y130779D01*
X34824Y130411D01*
X33704Y129812D01*
X32722Y129006D01*
X31917Y128025D01*
X31318Y126905D01*
X30950Y125690D01*
X30825Y124426D01*
X30950Y123162D01*
X31318Y121947D01*
X31917Y120827D01*
X32722Y119845D01*
X33704Y119039D01*
X34824Y118441D01*
X36039Y118072D01*
X37303Y117948D01*
X38567Y118072D01*
X39782Y118441D01*
X40902Y119039D01*
X41884Y119845D01*
X42689Y120827D01*
X43288Y121947D01*
X43657Y123162D01*
X43781Y124426D01*
X43657Y125690D01*
X43288Y126905D01*
X42689Y128025D01*
X41884Y129006D01*
X40902Y129812D01*
X39782Y130411D01*
X38567Y130779D01*
X37303Y130904D01*
D02*
G37*
G36*
X126537Y100521D02*
X125201Y100345D01*
X123956Y99829D01*
X122887Y99009D01*
X122066Y97939D01*
X121551Y96694D01*
X121375Y95358D01*
X121551Y94022D01*
X122066Y92777D01*
X122887Y91708D01*
X123956Y90888D01*
X125201Y90372D01*
X126537Y90196D01*
X127873Y90372D01*
X129118Y90888D01*
X130187Y91708D01*
X131008Y92777D01*
X131523Y94022D01*
X131699Y95358D01*
X131523Y96694D01*
X131008Y97939D01*
X130187Y99009D01*
X129118Y99829D01*
X127873Y100345D01*
X126537Y100521D01*
D02*
G37*
G36*
X104884D02*
X103547Y100345D01*
X102302Y99829D01*
X101233Y99009D01*
X100413Y97939D01*
X99897Y96694D01*
X99721Y95358D01*
X99897Y94022D01*
X100413Y92777D01*
X101233Y91708D01*
X102302Y90888D01*
X103547Y90372D01*
X104884Y90196D01*
X106220Y90372D01*
X107465Y90888D01*
X108534Y91708D01*
X109354Y92777D01*
X109870Y94022D01*
X110046Y95358D01*
X109870Y96694D01*
X109354Y97939D01*
X108534Y99009D01*
X107465Y99829D01*
X106220Y100345D01*
X104884Y100521D01*
D02*
G37*
G36*
X298000Y89907D02*
X297270Y89762D01*
X296652Y89348D01*
X296238Y88730D01*
X296093Y88000D01*
X296238Y87270D01*
X296652Y86652D01*
X297270Y86238D01*
X298000Y86093D01*
X298730Y86238D01*
X299348Y86652D01*
X299762Y87270D01*
X299907Y88000D01*
X299762Y88730D01*
X299348Y89348D01*
X298730Y89762D01*
X298000Y89907D01*
D02*
G37*
G36*
X37846Y205301D02*
X36583Y205176D01*
X35367Y204808D01*
X34247Y204209D01*
X33266Y203403D01*
X32460Y202422D01*
X31861Y201302D01*
X31493Y200087D01*
X31368Y198823D01*
X31493Y197559D01*
X31861Y196344D01*
X32460Y195224D01*
X33266Y194242D01*
X34247Y193437D01*
X35367Y192838D01*
X36583Y192469D01*
X37846Y192345D01*
X39110Y192469D01*
X40325Y192838D01*
X41216Y193314D01*
X52599Y181930D01*
X53090Y181602D01*
X53669Y181487D01*
X53935Y181539D01*
X54200Y181487D01*
X140373D01*
X245430Y76430D01*
X245921Y76102D01*
X246500Y75987D01*
X246500Y75987D01*
X359137D01*
X359137Y75987D01*
X359716Y76102D01*
X360207Y76430D01*
X370589Y86813D01*
X370589Y86813D01*
X370918Y87304D01*
X371033Y87883D01*
X371033Y87883D01*
Y167114D01*
X370918Y167694D01*
X370589Y168184D01*
X370589Y168184D01*
X366039Y172735D01*
X366459Y173520D01*
X366811Y174680D01*
X366929Y175886D01*
X366811Y177092D01*
X366459Y178251D01*
X365888Y179320D01*
X365119Y180257D01*
X364182Y181025D01*
X363113Y181597D01*
X361954Y181948D01*
X360748Y182067D01*
X359542Y181948D01*
X358383Y181597D01*
X357314Y181025D01*
X356377Y180257D01*
X355608Y179320D01*
X355037Y178251D01*
X354685Y177092D01*
X354567Y175886D01*
X354685Y174680D01*
X355037Y173520D01*
X355608Y172452D01*
X356377Y171515D01*
X357314Y170746D01*
X358383Y170175D01*
X359542Y169823D01*
X360748Y169704D01*
X361954Y169823D01*
X363113Y170175D01*
X363899Y170595D01*
X368006Y166488D01*
Y88510D01*
X358510Y79013D01*
X247127D01*
X142070Y184070D01*
X141579Y184398D01*
X141000Y184513D01*
X141000Y184513D01*
X54296D01*
X43356Y195454D01*
X43831Y196344D01*
X44200Y197559D01*
X44324Y198823D01*
X44200Y200087D01*
X43831Y201302D01*
X43233Y202422D01*
X42427Y203403D01*
X41445Y204209D01*
X40325Y204808D01*
X39110Y205176D01*
X37846Y205301D01*
D02*
G37*
G36*
X37303Y97833D02*
X36039Y97708D01*
X34824Y97340D01*
X33704Y96741D01*
X32722Y95936D01*
X31917Y94954D01*
X31318Y93834D01*
X30950Y92619D01*
X30825Y91355D01*
X30950Y90091D01*
X31318Y88876D01*
X31917Y87756D01*
X32722Y86774D01*
X33704Y85969D01*
X34824Y85370D01*
X36039Y85001D01*
X37303Y84877D01*
X38567Y85001D01*
X39782Y85370D01*
X40902Y85969D01*
X41190Y86205D01*
X45765Y81630D01*
X46256Y81302D01*
X46835Y81187D01*
X46836Y81187D01*
X56132D01*
X56257Y80687D01*
X55358Y80206D01*
X54376Y79400D01*
X53570Y78418D01*
X52972Y77298D01*
X52603Y76083D01*
X52479Y74819D01*
X52603Y73556D01*
X52972Y72340D01*
X53570Y71220D01*
X54376Y70239D01*
X55358Y69433D01*
X56143Y69013D01*
X56018Y68513D01*
X46627D01*
X43118Y72022D01*
X43288Y72340D01*
X43657Y73556D01*
X43781Y74819D01*
X43657Y76083D01*
X43288Y77298D01*
X42689Y78418D01*
X41884Y79400D01*
X40902Y80206D01*
X39782Y80804D01*
X38567Y81173D01*
X37303Y81297D01*
X36039Y81173D01*
X34824Y80804D01*
X33704Y80206D01*
X32722Y79400D01*
X31917Y78418D01*
X31318Y77298D01*
X30950Y76083D01*
X30825Y74819D01*
X30950Y73556D01*
X31318Y72340D01*
X31917Y71220D01*
X32722Y70239D01*
X33704Y69433D01*
X34824Y68835D01*
X36039Y68466D01*
X37303Y68341D01*
X38567Y68466D01*
X39782Y68835D01*
X40902Y69433D01*
X41190Y69670D01*
X44930Y65930D01*
X44930Y65930D01*
X45421Y65602D01*
X46000Y65487D01*
X157873D01*
X181798Y41562D01*
X181370Y40528D01*
X181189Y39154D01*
X181370Y37779D01*
X181900Y36498D01*
X182744Y35398D01*
X183844Y34554D01*
X185125Y34023D01*
X186500Y33842D01*
X187875Y34023D01*
X189156Y34554D01*
X190256Y35398D01*
X191100Y36498D01*
X191630Y37779D01*
X191811Y39154D01*
X191630Y40528D01*
X191100Y41809D01*
X190256Y42909D01*
X189156Y43753D01*
X187875Y44284D01*
X186500Y44465D01*
X185125Y44284D01*
X183874Y43766D01*
X159570Y68070D01*
X159079Y68398D01*
X158500Y68513D01*
X158500Y68513D01*
X61896D01*
X61770Y69013D01*
X62556Y69433D01*
X63537Y70239D01*
X64343Y71220D01*
X64485Y71487D01*
X165873D01*
X197780Y39579D01*
X197724Y39154D01*
X197905Y37779D01*
X198436Y36498D01*
X199280Y35398D01*
X200380Y34554D01*
X201661Y34023D01*
X203035Y33842D01*
X204410Y34023D01*
X205691Y34554D01*
X206791Y35398D01*
X207635Y36498D01*
X208166Y37779D01*
X208347Y39154D01*
X208166Y40528D01*
X207635Y41809D01*
X206791Y42909D01*
X205691Y43753D01*
X204410Y44284D01*
X203035Y44465D01*
X201661Y44284D01*
X200380Y43753D01*
X199280Y42909D01*
X199272Y42899D01*
X198774Y42867D01*
X167570Y74070D01*
X167079Y74398D01*
X166500Y74513D01*
X166500Y74513D01*
X65712D01*
X65435Y74819D01*
X65310Y76083D01*
X64942Y77298D01*
X64343Y78418D01*
X63537Y79400D01*
X62556Y80206D01*
X61656Y80687D01*
X61781Y81187D01*
X190673D01*
X230904Y40956D01*
X230870Y40875D01*
X230689Y39500D01*
X230870Y38125D01*
X231400Y36844D01*
X232244Y35744D01*
X233344Y34900D01*
X234625Y34370D01*
X236000Y34189D01*
X237375Y34370D01*
X238656Y34900D01*
X239756Y35744D01*
X240600Y36844D01*
X241130Y38125D01*
X241311Y39500D01*
X241130Y40875D01*
X240600Y42156D01*
X239756Y43256D01*
X238656Y44100D01*
X237375Y44630D01*
X236000Y44811D01*
X234625Y44630D01*
X233344Y44100D01*
X232607Y43534D01*
X192370Y83770D01*
X191879Y84098D01*
X191300Y84213D01*
X191300Y84213D01*
X47462D01*
X43118Y88558D01*
X43288Y88876D01*
X43657Y90091D01*
X43781Y91355D01*
X43657Y92619D01*
X43288Y93834D01*
X42689Y94954D01*
X41884Y95936D01*
X40902Y96741D01*
X39782Y97340D01*
X38567Y97708D01*
X37303Y97833D01*
D02*
G37*
G36*
X58957Y64762D02*
X57693Y64638D01*
X56478Y64269D01*
X55358Y63670D01*
X54376Y62865D01*
X53570Y61883D01*
X52972Y60763D01*
X52603Y59548D01*
X52479Y58284D01*
X52603Y57020D01*
X52972Y55805D01*
X53570Y54685D01*
X54376Y53703D01*
X55217Y53013D01*
X55038Y52513D01*
X46091D01*
X43118Y55487D01*
X43288Y55805D01*
X43657Y57020D01*
X43781Y58284D01*
X43657Y59548D01*
X43288Y60763D01*
X42689Y61883D01*
X41884Y62865D01*
X40902Y63670D01*
X39782Y64269D01*
X38567Y64638D01*
X37303Y64762D01*
X36039Y64638D01*
X34824Y64269D01*
X33704Y63670D01*
X32722Y62865D01*
X31917Y61883D01*
X31318Y60763D01*
X30950Y59548D01*
X30825Y58284D01*
X30950Y57020D01*
X31318Y55805D01*
X31917Y54685D01*
X32722Y53703D01*
X33704Y52898D01*
X34824Y52299D01*
X36039Y51930D01*
X37303Y51806D01*
X38567Y51930D01*
X39782Y52299D01*
X40902Y52898D01*
X41190Y53134D01*
X44394Y49930D01*
X44885Y49602D01*
X45465Y49487D01*
X45465Y49487D01*
X124373D01*
X133834Y40026D01*
X133653Y38653D01*
X133834Y37279D01*
X134365Y35998D01*
X135209Y34898D01*
X136309Y34054D01*
X137590Y33523D01*
X138965Y33342D01*
X140339Y33523D01*
X141620Y34054D01*
X142720Y34898D01*
X143564Y35998D01*
X144095Y37279D01*
X144276Y38653D01*
X144095Y40028D01*
X143564Y41309D01*
X142720Y42409D01*
X141620Y43253D01*
X140339Y43784D01*
X138965Y43965D01*
X137590Y43784D01*
X136309Y43253D01*
X135504Y42636D01*
X126070Y52070D01*
X125579Y52398D01*
X125000Y52513D01*
X125000Y52513D01*
X62875D01*
X62696Y53013D01*
X63537Y53703D01*
X64343Y54685D01*
X64942Y55805D01*
X65310Y57020D01*
X65372Y57648D01*
X132212D01*
X150307Y39553D01*
X150189Y38653D01*
X150370Y37279D01*
X150900Y35998D01*
X151744Y34898D01*
X152844Y34054D01*
X154125Y33523D01*
X155500Y33342D01*
X156875Y33523D01*
X158156Y34054D01*
X159256Y34898D01*
X160100Y35998D01*
X160630Y37279D01*
X160811Y38653D01*
X160630Y40028D01*
X160100Y41309D01*
X159256Y42409D01*
X158156Y43253D01*
X156875Y43784D01*
X155500Y43965D01*
X154125Y43784D01*
X152844Y43253D01*
X151744Y42409D01*
X151732Y42408D01*
X133909Y60232D01*
X133418Y60560D01*
X132839Y60675D01*
X132838Y60675D01*
X64968D01*
X64942Y60763D01*
X64343Y61883D01*
X63537Y62865D01*
X62556Y63670D01*
X61436Y64269D01*
X60220Y64638D01*
X58957Y64762D01*
D02*
G37*
G36*
X359293Y52314D02*
X358448Y52146D01*
X357732Y51667D01*
X357253Y50951D01*
X357085Y50106D01*
X357253Y49261D01*
X357732Y48545D01*
X358448Y48067D01*
X359293Y47899D01*
X360138Y48067D01*
X360854Y48545D01*
X361333Y49261D01*
X361501Y50106D01*
X361333Y50951D01*
X360854Y51667D01*
X360138Y52146D01*
X359293Y52314D01*
D02*
G37*
G36*
X8563Y48771D02*
X7193Y48636D01*
X5876Y48236D01*
X4662Y47587D01*
X3598Y46714D01*
X2724Y45650D01*
X2076Y44436D01*
X1676Y43119D01*
X1541Y41749D01*
X1676Y40379D01*
X2076Y39061D01*
X2724Y37847D01*
X3598Y36783D01*
X4662Y35910D01*
X5876Y35261D01*
X7193Y34861D01*
X8563Y34727D01*
X9933Y34861D01*
X11250Y35261D01*
X12464Y35910D01*
X13528Y36783D01*
X14402Y37847D01*
X15051Y39061D01*
X15450Y40379D01*
X15585Y41749D01*
X15450Y43119D01*
X15051Y44436D01*
X14402Y45650D01*
X13528Y46714D01*
X12464Y47587D01*
X11250Y48236D01*
X9933Y48636D01*
X8563Y48771D01*
D02*
G37*
G36*
X58957Y48227D02*
X57693Y48102D01*
X56478Y47734D01*
X55358Y47135D01*
X54376Y46329D01*
X53570Y45348D01*
X52972Y44228D01*
X52603Y43012D01*
X52479Y41749D01*
X52603Y40485D01*
X52972Y39270D01*
X53570Y38150D01*
X54376Y37168D01*
X55358Y36362D01*
X56478Y35764D01*
X57693Y35395D01*
X58957Y35271D01*
X60220Y35395D01*
X61436Y35764D01*
X62556Y36362D01*
X63537Y37168D01*
X64343Y38150D01*
X64942Y39270D01*
X65310Y40485D01*
X65435Y41749D01*
X65310Y43012D01*
X65166Y43487D01*
X65537Y43987D01*
X89309D01*
X89408Y43487D01*
X88844Y43253D01*
X87744Y42409D01*
X86900Y41309D01*
X86370Y40028D01*
X86189Y38653D01*
X86370Y37279D01*
X86900Y35998D01*
X87656Y35013D01*
X87487Y34513D01*
X47556D01*
X43118Y38951D01*
X43288Y39270D01*
X43657Y40485D01*
X43781Y41749D01*
X43657Y43012D01*
X43288Y44228D01*
X42689Y45348D01*
X41884Y46329D01*
X40902Y47135D01*
X39782Y47734D01*
X38567Y48102D01*
X37303Y48227D01*
X36039Y48102D01*
X34824Y47734D01*
X33704Y47135D01*
X32722Y46329D01*
X31917Y45348D01*
X31318Y44228D01*
X30950Y43012D01*
X30825Y41749D01*
X30950Y40485D01*
X31318Y39270D01*
X31917Y38150D01*
X32722Y37168D01*
X33704Y36362D01*
X34824Y35764D01*
X36039Y35395D01*
X37303Y35271D01*
X38567Y35395D01*
X39782Y35764D01*
X40902Y36362D01*
X41190Y36599D01*
X45859Y31930D01*
X45859Y31930D01*
X46350Y31602D01*
X46929Y31487D01*
X89500D01*
X89500Y31487D01*
X90079Y31602D01*
X90570Y31930D01*
X92056Y33415D01*
X92875Y33523D01*
X94156Y34054D01*
X95256Y34898D01*
X96100Y35998D01*
X96630Y37279D01*
X96811Y38653D01*
X96630Y40028D01*
X96100Y41309D01*
X95256Y42409D01*
X94156Y43253D01*
X93592Y43487D01*
X93691Y43987D01*
X101873D01*
X103920Y41940D01*
X103436Y41309D01*
X102905Y40028D01*
X102724Y38653D01*
X102905Y37279D01*
X103436Y35998D01*
X104280Y34898D01*
X105380Y34054D01*
X106661Y33523D01*
X108035Y33342D01*
X109410Y33523D01*
X110691Y34054D01*
X111791Y34898D01*
X112635Y35998D01*
X113166Y37279D01*
X113347Y38653D01*
X113166Y40028D01*
X112635Y41309D01*
X111791Y42409D01*
X110691Y43253D01*
X109410Y43784D01*
X108035Y43965D01*
X106661Y43784D01*
X106446Y43695D01*
X103570Y46570D01*
X103079Y46898D01*
X102500Y47013D01*
X102500Y47013D01*
X64487D01*
X64487Y47013D01*
X63908Y46898D01*
X63417Y46570D01*
X62988Y46780D01*
X62556Y47135D01*
X61436Y47734D01*
X60220Y48102D01*
X58957Y48227D01*
D02*
G37*
G36*
Y97833D02*
X57693Y97708D01*
X56478Y97340D01*
X55358Y96741D01*
X54376Y95936D01*
X53570Y94954D01*
X52972Y93834D01*
X52603Y92619D01*
X52479Y91355D01*
X52603Y90091D01*
X52972Y88876D01*
X53570Y87756D01*
X54376Y86774D01*
X55358Y85969D01*
X56478Y85370D01*
X57693Y85001D01*
X58957Y84877D01*
X60220Y85001D01*
X61436Y85370D01*
X62556Y85969D01*
X63497Y86741D01*
X63930Y86930D01*
X64421Y86602D01*
X65000Y86487D01*
X65000Y86487D01*
X201373D01*
X247356Y40503D01*
X247224Y39500D01*
X247405Y38125D01*
X247936Y36844D01*
X248780Y35744D01*
X249880Y34900D01*
X251161Y34370D01*
X252535Y34189D01*
X253910Y34370D01*
X255191Y34900D01*
X256291Y35744D01*
X257135Y36844D01*
X257666Y38125D01*
X257847Y39500D01*
X257666Y40875D01*
X257135Y42156D01*
X256291Y43256D01*
X255191Y44100D01*
X253910Y44630D01*
X252535Y44811D01*
X251161Y44630D01*
X249880Y44100D01*
X248839Y43301D01*
X203070Y89070D01*
X202579Y89398D01*
X202000Y89513D01*
X202000Y89513D01*
X65627D01*
X65250Y89891D01*
X65310Y90091D01*
X65435Y91355D01*
X65310Y92619D01*
X64942Y93834D01*
X64343Y94954D01*
X63537Y95936D01*
X62556Y96741D01*
X61436Y97340D01*
X60220Y97708D01*
X58957Y97833D01*
D02*
G37*
G36*
X320004Y43865D02*
X318634Y43730D01*
X317317Y43330D01*
X316103Y42681D01*
X315039Y41808D01*
X314165Y40744D01*
X313516Y39530D01*
X313117Y38212D01*
X312982Y36843D01*
X313117Y35473D01*
X313516Y34155D01*
X314165Y32941D01*
X315039Y31877D01*
X316103Y31004D01*
X317317Y30355D01*
X318634Y29956D01*
X320004Y29820D01*
X321374Y29956D01*
X322691Y30355D01*
X323905Y31004D01*
X324969Y31877D01*
X325842Y32941D01*
X326491Y34155D01*
X326891Y35473D01*
X327026Y36843D01*
X326891Y38212D01*
X326491Y39530D01*
X325842Y40744D01*
X324969Y41808D01*
X323905Y42681D01*
X322691Y43330D01*
X321374Y43730D01*
X320004Y43865D01*
D02*
G37*
G36*
X282996D02*
X281626Y43730D01*
X280309Y43330D01*
X279095Y42681D01*
X278031Y41808D01*
X277157Y40744D01*
X276509Y39530D01*
X276109Y38212D01*
X275974Y36843D01*
X276109Y35473D01*
X276509Y34155D01*
X277157Y32941D01*
X278031Y31877D01*
X279095Y31004D01*
X280309Y30355D01*
X281626Y29956D01*
X282996Y29820D01*
X284366Y29956D01*
X285683Y30355D01*
X286897Y31004D01*
X287961Y31877D01*
X288835Y32941D01*
X289483Y34155D01*
X289883Y35473D01*
X290018Y36843D01*
X289883Y38212D01*
X289483Y39530D01*
X288835Y40744D01*
X287961Y41808D01*
X286897Y42681D01*
X285683Y43330D01*
X284366Y43730D01*
X282996Y43865D01*
D02*
G37*
G36*
X342650Y20150D02*
X336350D01*
Y13850D01*
X342650D01*
Y20150D01*
D02*
G37*
G36*
X257801Y23112D02*
X247270D01*
Y12581D01*
X257801D01*
Y23112D01*
D02*
G37*
G36*
X208301Y22766D02*
X197770D01*
Y12234D01*
X208301D01*
Y22766D01*
D02*
G37*
G36*
X160766Y22266D02*
X150234D01*
Y11734D01*
X160766D01*
Y22266D01*
D02*
G37*
G36*
X113301D02*
X102770D01*
Y11734D01*
X113301D01*
Y22266D01*
D02*
G37*
G36*
X301500Y22311D02*
X300125Y22130D01*
X298844Y21600D01*
X297744Y20756D01*
X296900Y19656D01*
X296370Y18375D01*
X296189Y17000D01*
X296370Y15625D01*
X296900Y14344D01*
X297744Y13244D01*
X298844Y12400D01*
X300125Y11870D01*
X301500Y11689D01*
X302875Y11870D01*
X304156Y12400D01*
X305256Y13244D01*
X306100Y14344D01*
X306630Y15625D01*
X306811Y17000D01*
X306630Y18375D01*
X306100Y19656D01*
X305256Y20756D01*
X304156Y21600D01*
X302875Y22130D01*
X301500Y22311D01*
D02*
G37*
%LPD*%
D10*
X294807Y45937D02*
Y50937D01*
X308193D01*
Y45937D02*
Y50937D01*
X294807Y45937D02*
X308193D01*
X290870Y8142D02*
Y45937D01*
Y8142D02*
X312130D01*
Y45937D01*
X290870D02*
X312130D01*
X371826Y40115D02*
Y70036D01*
X391708D01*
Y40115D02*
Y70036D01*
X371826Y40115D02*
X391708D01*
X33516Y188193D02*
Y308665D01*
X-16878Y188193D02*
X33516D01*
X-16878D02*
Y308665D01*
X33516D01*
X313504Y126673D02*
Y303839D01*
X383583D01*
Y126673D02*
Y303839D01*
X313504Y126673D02*
X383583D01*
Y95571D02*
Y126673D01*
Y95571D02*
X391457D01*
Y334941D01*
X383583D02*
X391457D01*
X383583Y303839D02*
Y334941D01*
X391457Y129823D02*
X467441D01*
Y300689D01*
X391457D02*
X467441D01*
X96025Y172130D02*
X133820D01*
Y84728D02*
Y172130D01*
X96025Y84728D02*
X133820D01*
X96025D02*
Y172130D01*
X-17421Y168127D02*
X32972D01*
X-17421Y31119D02*
Y168127D01*
Y31119D02*
X32972D01*
Y168127D01*
X37063Y353000D02*
X44937D01*
X41000Y349063D02*
Y356937D01*
D11*
X57445Y13130D02*
Y16870D01*
X50555Y13130D02*
Y16870D01*
Y13130D02*
X57445D01*
X50555Y16870D02*
X57445D01*
X215555Y59630D02*
Y63370D01*
X222445Y59630D02*
Y63370D01*
X215555D02*
X222445D01*
X215555Y59630D02*
X222445D01*
X263165Y8004D02*
Y46587D01*
X223795D02*
X263165D01*
X223795Y8004D02*
Y46587D01*
Y8004D02*
X263165D01*
X213665Y7658D02*
Y46240D01*
X174295D02*
X213665D01*
X174295Y7658D02*
Y46240D01*
Y7658D02*
X213665D01*
X166130Y7158D02*
Y45740D01*
X126760D02*
X166130D01*
X126760Y7158D02*
Y45740D01*
Y7158D02*
X166130D01*
X118665D02*
Y45740D01*
X79295D02*
X118665D01*
X79295Y7158D02*
Y45740D01*
Y7158D02*
X118665D01*
X290158Y292669D02*
Y301331D01*
X284842Y292669D02*
Y301331D01*
X290158D01*
X284842Y292669D02*
X290158D01*
X236500Y277000D02*
Y287000D01*
X246500D01*
Y277000D02*
Y287000D01*
X236500Y277000D02*
X246500D01*
X286000Y133000D02*
Y143000D01*
X296000D01*
Y133000D02*
Y143000D01*
X286000Y133000D02*
X296000D01*
X178000Y211000D02*
Y221000D01*
X188000D01*
Y211000D02*
Y221000D01*
X178000Y211000D02*
X188000D01*
X334500Y12000D02*
Y22000D01*
X344500D01*
Y12000D02*
Y22000D01*
X334500Y12000D02*
X344500D01*
X103000Y304500D02*
Y314500D01*
X113000D01*
Y304500D02*
Y314500D01*
X103000Y304500D02*
X113000D01*
X160000Y97500D02*
Y107500D01*
X170000D01*
Y97500D02*
Y107500D01*
X160000Y97500D02*
X170000D01*
X335000Y33000D02*
Y43000D01*
X345000D01*
Y33000D02*
Y43000D01*
X335000Y33000D02*
X345000D01*
X72335Y350913D02*
Y389496D01*
Y350913D02*
X111705D01*
Y389496D01*
X72335D02*
X111705D01*
X120835Y351260D02*
Y389843D01*
Y351260D02*
X160205D01*
Y389843D01*
X120835D02*
X160205D01*
X169335Y351413D02*
Y389996D01*
Y351413D02*
X208705D01*
Y389996D01*
X169335D02*
X208705D01*
X219335Y351413D02*
Y389996D01*
Y351413D02*
X258705D01*
Y389996D01*
X219335D02*
X258705D01*
X269870Y351913D02*
Y390496D01*
Y351913D02*
X309240D01*
Y390496D01*
X269870D02*
X309240D01*
X261445Y205025D02*
X265776Y209355D01*
X287429D01*
Y183371D02*
Y209355D01*
X265776Y183371D02*
X287429D01*
X261445Y187702D02*
X265776Y183371D01*
X261445Y187702D02*
Y205025D01*
X266055Y217370D02*
X272945D01*
X266055Y213630D02*
X272945D01*
X266055D02*
Y217370D01*
X272945Y213630D02*
Y217370D01*
X202378Y152378D02*
X249622D01*
Y199622D01*
X202378D02*
X249622D01*
X202378Y152378D02*
Y199622D01*
X50055Y326425D02*
Y379575D01*
X-4669D02*
X50055D01*
X-4669Y326425D02*
X50055D01*
X-4669D02*
Y379575D01*
X287567Y77055D02*
Y83945D01*
X291307Y77055D02*
Y83945D01*
X287567Y77055D02*
X291307D01*
X287567Y83945D02*
X291307D01*
X299870Y77055D02*
Y83945D01*
X296130Y77055D02*
Y83945D01*
X299870D01*
X296130Y77055D02*
X299870D01*
X253130Y102555D02*
Y109445D01*
X256870Y102555D02*
Y109445D01*
X253130Y102555D02*
X256870D01*
X253130Y109445D02*
X256870D01*
X282693Y121957D02*
Y129043D01*
X269307Y121957D02*
Y129043D01*
Y121957D02*
X282693D01*
X269307Y129043D02*
X282693D01*
Y111457D02*
Y118543D01*
X269307Y111457D02*
Y118543D01*
Y111457D02*
X282693D01*
X269307Y118543D02*
X282693D01*
X262291Y90512D02*
X267291Y85512D01*
X262291D02*
X281583D01*
Y100866D01*
X262291D02*
X281583D01*
X262291Y85512D02*
Y100866D01*
X269555Y138370D02*
X276445D01*
X269555Y134630D02*
X276445D01*
X269555D02*
Y138370D01*
X276445Y134630D02*
Y138370D01*
X301370Y285555D02*
Y292445D01*
X297630Y285555D02*
Y292445D01*
Y285555D02*
X301370D01*
X297630Y292445D02*
X301370D01*
X218055Y283870D02*
X224945D01*
X218055Y280130D02*
X224945D01*
X218055D02*
Y283870D01*
X224945Y280130D02*
Y283870D01*
X195370Y299055D02*
Y305945D01*
X191630Y299055D02*
Y305945D01*
X195370D01*
X191630Y299055D02*
X195370D01*
X187870D02*
Y305945D01*
X184130Y299055D02*
Y305945D01*
X187870D01*
X184130Y299055D02*
X187870D01*
X168055Y311630D02*
X174945D01*
X168055Y315370D02*
X174945D01*
Y311630D02*
Y315370D01*
X168055Y311630D02*
Y315370D01*
X218555Y244870D02*
X225445D01*
X218555Y241130D02*
X225445D01*
X218555D02*
Y244870D01*
X225445Y241130D02*
Y244870D01*
X216146Y269177D02*
X221146Y264177D01*
X201854Y269177D02*
X221146D01*
X201854Y253823D02*
Y269177D01*
Y253823D02*
X221146D01*
Y269177D01*
X220602Y304705D02*
X223161Y307264D01*
Y304705D02*
Y330295D01*
X205839D02*
X223161D01*
X205839Y304705D02*
Y330295D01*
Y304705D02*
X223161D01*
X203055Y283870D02*
X209945D01*
X203055Y280130D02*
X209945D01*
X203055D02*
Y283870D01*
X209945Y280130D02*
Y283870D01*
X162370Y308055D02*
Y314945D01*
X158630Y308055D02*
Y314945D01*
X162370D01*
X158630Y308055D02*
X162370D01*
X148370Y310055D02*
Y316945D01*
X144630Y310055D02*
Y316945D01*
X148370D01*
X144630Y310055D02*
X148370D01*
X262366Y173244D02*
X290358D01*
X262366Y148756D02*
X290358D01*
X262366D02*
Y173244D01*
X290358Y148756D02*
Y173244D01*
X52130Y15000D02*
X55870D01*
X54000Y13130D02*
Y16870D01*
X217130Y61500D02*
X220870D01*
X219000Y59630D02*
Y63370D01*
X285531Y297000D02*
X289469D01*
X287500Y295031D02*
Y298969D01*
X275024Y6173D02*
Y52905D01*
Y6173D02*
X327976D01*
Y52905D01*
X275024D02*
X327976D01*
X361346Y32635D02*
Y77517D01*
X395645D01*
Y32635D02*
Y77517D01*
X361346Y32635D02*
X395645D01*
X68902Y181894D02*
Y312602D01*
X-20815Y181894D02*
X68902D01*
X-20815D02*
Y312602D01*
X68902D01*
X307205Y91634D02*
Y338878D01*
X471378D01*
Y91634D02*
Y338878D01*
X307205Y91634D02*
X471378D01*
X272468Y196363D02*
X276406D01*
X274437Y194395D02*
Y198332D01*
X269500Y213630D02*
Y217370D01*
X267630Y215500D02*
X271370D01*
X89135Y176067D02*
X137758D01*
X89135Y80791D02*
Y176067D01*
Y80791D02*
X137758D01*
Y176067D01*
X-21358Y172064D02*
X68358D01*
X-21358Y27182D02*
Y172064D01*
Y27182D02*
X68358D01*
Y172064D01*
X287567Y80500D02*
X291307D01*
X289437Y78630D02*
Y82370D01*
X296130Y80500D02*
X299870D01*
X298000Y78630D02*
Y82370D01*
X253130Y106000D02*
X256870D01*
X255000Y104130D02*
Y107870D01*
X274031Y125500D02*
X277969D01*
X276000Y123531D02*
Y127469D01*
X274031Y115000D02*
X277969D01*
X276000Y113031D02*
Y116969D01*
X273000Y134630D02*
Y138370D01*
X271130Y136500D02*
X274870D01*
X297630Y289000D02*
X301370D01*
X299500Y287130D02*
Y290870D01*
X221500Y280130D02*
Y283870D01*
X219630Y282000D02*
X223370D01*
X191630Y302500D02*
X195370D01*
X193500Y300630D02*
Y304370D01*
X184130Y302500D02*
X187870D01*
X186000Y300630D02*
Y304370D01*
X171500Y311630D02*
Y315370D01*
X169630Y313500D02*
X173370D01*
X222000Y241130D02*
Y244870D01*
X220130Y243000D02*
X223870D01*
X206500Y280130D02*
Y283870D01*
X204630Y282000D02*
X208370D01*
X158630Y311500D02*
X162370D01*
X160500Y309630D02*
Y313370D01*
X144630Y313500D02*
X148370D01*
X146500Y311630D02*
Y315370D01*
X276362Y159031D02*
Y162969D01*
X274394Y161000D02*
X278331D01*
D13*
X58957Y42626D02*
X61613D01*
X58957Y59161D02*
X132839D01*
X153061Y310939D02*
X153062Y310938D01*
X195946D02*
X195969Y310961D01*
X153062Y310938D02*
X195946D01*
X202000Y88000D02*
X253500Y36500D01*
X132839Y59161D02*
X155535Y36465D01*
X58957Y74819D02*
X60776Y73000D01*
X166500D02*
X200346Y39154D01*
X60776Y73000D02*
X166500D01*
X46000Y67000D02*
X158500D01*
X185699Y39801D01*
X37303Y75697D02*
X46000Y67000D01*
X343214Y248538D02*
X345000Y246752D01*
X331831Y263169D02*
X343214Y251786D01*
X326773Y263169D02*
X331831D01*
X343214Y248538D02*
Y251786D01*
X357500Y109061D02*
Y147656D01*
X351500Y153656D02*
X357500Y147656D01*
X342411Y93972D02*
X357500Y109061D01*
X336500Y108000D02*
Y191008D01*
X328000Y99500D02*
X336500Y108000D01*
Y191008D02*
X345000Y199508D01*
X217000Y290500D02*
X244502Y318002D01*
X47394Y290500D02*
X217000D01*
X38000Y281106D02*
X47394Y290500D01*
X221500Y281500D02*
X251000Y311000D01*
X59500Y281500D02*
X221500D01*
X197571Y248429D02*
X214500Y231500D01*
X59500Y248429D02*
X197571D01*
X38000Y297642D02*
X82965Y342606D01*
X59654Y297642D02*
X99500Y337488D01*
X147063Y187500D02*
X251125Y83437D01*
X353106D02*
X360748Y91079D01*
X70823Y187500D02*
X147063D01*
X251125Y83437D02*
X353106D01*
X327466Y256412D02*
X329252Y254626D01*
X323999Y256500D02*
X324087Y256412D01*
X59500Y264965D02*
X314035D01*
X322500Y256500D01*
X323999D01*
X324087Y256412D02*
X327466D01*
X45811Y257000D02*
X311130D01*
X316630Y251500D02*
X316630D01*
X311130Y257000D02*
X316630Y251500D01*
X59500Y231894D02*
X126106D01*
X258500Y99500D01*
X64642Y220500D02*
X129500D01*
X256028Y93972D02*
X342411D01*
X129500Y220500D02*
X256028Y93972D01*
X28000Y183824D02*
Y210500D01*
X141000Y183000D02*
X246500Y77500D01*
X54200Y183000D02*
X141000D01*
X346252Y261362D02*
Y280326D01*
X59500Y215358D02*
X64642Y220500D01*
X299441Y291500D02*
X299500Y291559D01*
X293000Y291500D02*
X299441D01*
X89500Y33000D02*
X91000Y34500D01*
X102500Y45500D02*
X108035Y39965D01*
X125000Y51000D02*
X137198Y38802D01*
X200346Y39154D02*
X203035D01*
X191300Y82700D02*
X235104Y38896D01*
X37303Y92232D02*
X46835Y82700D01*
X37303Y59161D02*
X45465Y51000D01*
X37303Y42626D02*
X46929Y33000D01*
X60768Y92232D02*
X65000Y88000D01*
X58957Y92232D02*
X60768D01*
X61613Y42626D02*
X64487Y45500D01*
X65000Y88000D02*
X202000D01*
X46835Y82700D02*
X191300D01*
X45465Y51000D02*
X125000D01*
X64487Y45500D02*
X102500D01*
X46929Y33000D02*
X89500D01*
X258500Y99500D02*
X328000D01*
X360748Y91079D02*
Y160138D01*
X346740Y183760D02*
X351500Y179000D01*
X345000Y183760D02*
X346740D01*
X351500Y153656D02*
Y179000D01*
X246500Y77500D02*
X359137D01*
X369519Y87883D01*
X243500Y72500D02*
X363000D01*
X242361Y68639D02*
X365139D01*
X379500Y83000D02*
Y203000D01*
X363000Y72500D02*
X373500Y83000D01*
Y188000D01*
X365139Y68639D02*
X379500Y83000D01*
X369519Y87883D02*
Y167114D01*
X142000Y169000D02*
X242361Y68639D01*
X142500Y173500D02*
X243500Y72500D01*
X38324Y173500D02*
X142500D01*
X35000Y169000D02*
X142000D01*
X59500Y198823D02*
X70823Y187500D01*
X23500Y180500D02*
Y221500D01*
X31995Y229995D01*
X23500Y180500D02*
X35000Y169000D01*
X31995Y229995D02*
X35947D01*
X37846Y231894D01*
X28000Y210500D02*
X31470Y213970D01*
X28000Y183824D02*
X38324Y173500D01*
X36458Y213970D02*
X37846Y215358D01*
X31470Y213970D02*
X36458D01*
X360748Y175886D02*
X369519Y167114D01*
X371000Y190500D02*
X373500Y188000D01*
X373914Y208586D02*
X379500Y203000D01*
X37846Y198823D02*
X53669Y183000D01*
X361882Y190500D02*
X371000D01*
X360748Y191634D02*
X361882Y190500D01*
X360748Y207382D02*
X361952Y208586D01*
X373914D01*
X37846Y264965D02*
X45811Y257000D01*
X316630Y251500D02*
X329252Y238878D01*
X214500Y231500D02*
X332500D01*
X343214Y217042D02*
Y220786D01*
X332500Y231500D02*
X343214Y220786D01*
Y217042D02*
X345000Y215256D01*
X244502Y318002D02*
X331431D01*
X251000Y311000D02*
X315578D01*
X299500Y286441D02*
X303501D01*
X326773Y263169D01*
X315578Y311000D02*
X346252Y280326D01*
X331433Y318000D02*
X356500D01*
X331431Y318002D02*
X331433Y318000D01*
X356500D02*
X373000Y301500D01*
X362675Y222667D02*
X368667D01*
X373000Y227000D01*
X358252Y223366D02*
X358927Y224041D01*
X373000Y227000D02*
Y301500D01*
X99500Y337488D02*
Y358000D01*
X82965Y342606D02*
Y358000D01*
D14*
X264249Y161000D02*
D03*
D15*
X59315Y12047D02*
Y17953D01*
X48685Y12047D02*
Y17953D01*
Y12047D02*
X59315D01*
X48685Y17953D02*
X59315D01*
X213685Y58547D02*
Y64453D01*
X224315Y58547D02*
Y64453D01*
X213685D02*
X224315D01*
X213685Y58547D02*
X224315D01*
X264150Y7020D02*
Y47571D01*
X222811D02*
X264150D01*
X222811Y7020D02*
Y47571D01*
Y7020D02*
X264150D01*
X214650Y6673D02*
Y47224D01*
X173311D02*
X214650D01*
X173311Y6673D02*
Y47224D01*
Y6673D02*
X214650D01*
X167114Y6173D02*
Y46724D01*
X125776D02*
X167114D01*
X125776Y6173D02*
Y46724D01*
Y6173D02*
X167114D01*
X119650D02*
Y46724D01*
X78311D02*
X119650D01*
X78311Y6173D02*
Y46724D01*
Y6173D02*
X119650D01*
X291240Y289500D02*
Y304500D01*
X283760Y289500D02*
Y304500D01*
X291240D01*
X283760Y289500D02*
X291240D01*
X235516Y276016D02*
Y287984D01*
X247484D01*
Y276016D02*
Y287984D01*
X235516Y276016D02*
X247484D01*
X285016Y132016D02*
Y143984D01*
X296984D01*
Y132016D02*
Y143984D01*
X285016Y132016D02*
X296984D01*
X177016Y210016D02*
Y221984D01*
X188984D01*
Y210016D02*
Y221984D01*
X177016Y210016D02*
X188984D01*
X333516Y11016D02*
Y22984D01*
X345484D01*
Y11016D02*
Y22984D01*
X333516Y11016D02*
X345484D01*
X102016Y303516D02*
Y315484D01*
X113984D01*
Y303516D02*
Y315484D01*
X102016Y303516D02*
X113984D01*
X159016Y96516D02*
Y108484D01*
X170984D01*
Y96516D02*
Y108484D01*
X159016Y96516D02*
X170984D01*
X334016Y32016D02*
Y43984D01*
X345984D01*
Y32016D02*
Y43984D01*
X334016Y32016D02*
X345984D01*
X71350Y349929D02*
Y390480D01*
Y349929D02*
X112689D01*
Y390480D01*
X71350D02*
X112689D01*
X119850Y350276D02*
Y390827D01*
Y350276D02*
X161189D01*
Y390827D01*
X119850D02*
X161189D01*
X168350Y350429D02*
Y390980D01*
Y350429D02*
X209689D01*
Y390980D01*
X168350D02*
X209689D01*
X218350Y350429D02*
Y390980D01*
Y350429D02*
X259689D01*
Y390980D01*
X218350D02*
X259689D01*
X268886Y350929D02*
Y391480D01*
Y350929D02*
X310224D01*
Y391480D01*
X268886D02*
X310224D01*
X257508Y182190D02*
Y210537D01*
X291366Y182190D02*
Y210537D01*
X257508D02*
X291366D01*
X257508Y182190D02*
X291366D01*
X264185Y218453D02*
X274815D01*
X264185Y212547D02*
X274815D01*
X264185D02*
Y218453D01*
X274815Y212547D02*
Y218453D01*
X200803Y148736D02*
X251197D01*
Y203264D01*
X200803D02*
X251197D01*
X200803Y148736D02*
Y203264D01*
X-5457Y319535D02*
Y386465D01*
X57535D02*
X57535Y319535D01*
X-5457D02*
X57535D01*
X-5457Y386465D02*
X57535D01*
X286484Y75185D02*
Y85815D01*
X292390Y75185D02*
Y85815D01*
X286484Y75185D02*
X292390D01*
X286484Y85815D02*
X292390D01*
X300953Y75185D02*
Y85815D01*
X295047Y75185D02*
Y85815D01*
X300953D01*
X295047Y75185D02*
X300953D01*
X252047Y100685D02*
Y111315D01*
X257953Y100685D02*
Y111315D01*
X252047Y100685D02*
X257953D01*
X252047Y111315D02*
X257953D01*
X285252Y120972D02*
Y130028D01*
X266748Y120972D02*
Y130028D01*
Y120972D02*
X285252D01*
X266748Y130028D02*
X285252D01*
Y110472D02*
Y119528D01*
X266748Y110472D02*
Y119528D01*
Y110472D02*
X285252D01*
X266748Y119528D02*
X285252D01*
X261110Y78524D02*
X282764D01*
Y107854D01*
X261110D02*
X282764D01*
X261110Y78524D02*
Y107854D01*
X267685Y139453D02*
X278315D01*
X267685Y133547D02*
X278315D01*
X267685D02*
Y139453D01*
X278315Y133547D02*
Y139453D01*
X302453Y283685D02*
Y294315D01*
X296547Y283685D02*
Y294315D01*
Y283685D02*
X302453D01*
X296547Y294315D02*
X302453D01*
X216185Y284953D02*
X226815D01*
X216185Y279047D02*
X226815D01*
X216185D02*
Y284953D01*
X226815Y279047D02*
Y284953D01*
X196453Y297185D02*
Y307815D01*
X190547Y297185D02*
Y307815D01*
X196453D01*
X190547Y297185D02*
X196453D01*
X188953D02*
Y307815D01*
X183047Y297185D02*
Y307815D01*
X188953D01*
X183047Y297185D02*
X188953D01*
X166185Y310547D02*
X176815D01*
X166185Y316453D02*
X176815D01*
Y310547D02*
Y316453D01*
X166185Y310547D02*
Y316453D01*
X216685Y245953D02*
X227315D01*
X216685Y240047D02*
X227315D01*
X216685D02*
Y245953D01*
X227315Y240047D02*
Y245953D01*
X200870Y276067D02*
X222130D01*
X200870Y246933D02*
Y276067D01*
Y246933D02*
X222130D01*
Y276067D01*
X229953Y303524D02*
Y331476D01*
X199047D02*
X229953D01*
X199047Y303524D02*
Y331476D01*
Y303524D02*
X229953D01*
X201185Y284953D02*
X211815D01*
X201185Y279047D02*
X211815D01*
X201185D02*
Y284953D01*
X211815Y279047D02*
Y284953D01*
X163453Y306185D02*
Y316815D01*
X157547Y306185D02*
Y316815D01*
X163453D01*
X157547Y306185D02*
X163453D01*
X149453Y308185D02*
Y318815D01*
X143547Y308185D02*
Y318815D01*
X149453D01*
X143547Y308185D02*
X149453D01*
X258646Y174386D02*
X294079D01*
X258646Y147614D02*
X294079D01*
X258646D02*
Y174386D01*
X294079Y147614D02*
Y174386D01*
D26*
X299500Y286441D02*
D03*
Y291559D02*
D03*
D67*
X329252Y207382D02*
Y223130D01*
X270500Y144600D02*
Y212500D01*
X279992Y221992D01*
X328752D01*
X329252D02*
Y223130D01*
X270342Y144443D02*
X270500Y144600D01*
X329252Y221992D02*
X330504D01*
X329252Y222866D02*
X329752D01*
X329252Y191634D02*
Y207382D01*
D68*
X299715Y17000D02*
X301500D01*
D70*
X236000Y39500D02*
D03*
Y17846D02*
D03*
X252535Y39500D02*
D03*
X186500Y39154D02*
D03*
Y17500D02*
D03*
X203035Y39154D02*
D03*
X138965Y38653D02*
D03*
Y17000D02*
D03*
X155500Y38653D02*
D03*
X91500D02*
D03*
Y17000D02*
D03*
X108035Y38653D02*
D03*
X301500D02*
D03*
Y17000D02*
D03*
X99500Y358000D02*
D03*
Y379654D02*
D03*
X82965Y358000D02*
D03*
X148000Y358347D02*
D03*
Y380000D02*
D03*
X131465Y358347D02*
D03*
X196500Y358500D02*
D03*
Y380153D02*
D03*
X179965Y358500D02*
D03*
X246500D02*
D03*
Y380153D02*
D03*
X229965Y358500D02*
D03*
X297035Y359000D02*
D03*
Y380654D02*
D03*
X280500Y359000D02*
D03*
D71*
X252535Y17846D02*
D03*
X203035Y17500D02*
D03*
X155500Y17000D02*
D03*
X108035D02*
D03*
X82965Y379654D02*
D03*
X131465Y380000D02*
D03*
X179965Y380153D02*
D03*
X229965D02*
D03*
X280500Y380654D02*
D03*
D72*
X100500Y203500D02*
D03*
X366142Y15748D02*
D03*
Y377953D02*
D03*
D73*
X241500Y282000D02*
D03*
X291000Y138000D02*
D03*
X183000Y216000D02*
D03*
X339500Y17000D02*
D03*
X108000Y309500D02*
D03*
X165000Y102500D02*
D03*
X340000Y38000D02*
D03*
D74*
X320004Y36843D02*
D03*
X282996D02*
D03*
X9106Y198823D02*
D03*
Y298035D02*
D03*
X8563Y41749D02*
D03*
Y157497D02*
D03*
D75*
X37846Y198823D02*
D03*
Y215358D02*
D03*
Y231894D02*
D03*
Y248429D02*
D03*
Y264965D02*
D03*
Y281500D02*
D03*
Y298035D02*
D03*
X59500Y198823D02*
D03*
Y215358D02*
D03*
Y231894D02*
D03*
Y248429D02*
D03*
Y264965D02*
D03*
Y281500D02*
D03*
Y298035D02*
D03*
X58957Y157497D02*
D03*
Y140961D02*
D03*
Y124426D02*
D03*
Y107890D02*
D03*
Y91355D02*
D03*
Y74819D02*
D03*
Y58284D02*
D03*
Y41749D02*
D03*
X37303Y157497D02*
D03*
Y140961D02*
D03*
Y124426D02*
D03*
Y107890D02*
D03*
Y91355D02*
D03*
Y74819D02*
D03*
Y58284D02*
D03*
Y41749D02*
D03*
D76*
X329252Y160138D02*
D03*
Y175886D02*
D03*
Y191634D02*
D03*
Y207382D02*
D03*
Y223130D02*
D03*
Y238878D02*
D03*
Y254626D02*
D03*
Y270374D02*
D03*
X345000Y168012D02*
D03*
Y183760D02*
D03*
Y199508D02*
D03*
Y215256D02*
D03*
Y231004D02*
D03*
Y246752D02*
D03*
Y262500D02*
D03*
X360748Y160138D02*
D03*
Y175886D02*
D03*
Y191634D02*
D03*
Y207382D02*
D03*
Y223130D02*
D03*
Y238878D02*
D03*
Y254626D02*
D03*
Y270374D02*
D03*
D77*
X346969Y134547D02*
D03*
Y295965D02*
D03*
D78*
X126537Y161500D02*
D03*
Y144965D02*
D03*
Y128429D02*
D03*
Y111894D02*
D03*
Y95358D02*
D03*
X104884Y161500D02*
D03*
Y144965D02*
D03*
Y128429D02*
D03*
Y111894D02*
D03*
Y95358D02*
D03*
D79*
X41000Y378394D02*
D03*
Y327606D02*
D03*
D80*
X13795Y380165D02*
D03*
Y325835D02*
D03*
D81*
X146074Y322426D02*
D03*
X195969Y310961D02*
D03*
X153061Y310939D02*
D03*
X232000Y217000D02*
D03*
X226500D02*
D03*
X250500D02*
D03*
X246000D02*
D03*
X241500D02*
D03*
X237000D02*
D03*
X298000Y88000D02*
D03*
X209000Y243000D02*
D03*
X232663Y313663D02*
D03*
X181000Y305000D02*
D03*
X218500Y287500D02*
D03*
X293000Y291500D02*
D03*
X197661Y321339D02*
D03*
X232663Y321337D02*
D03*
X197500Y329000D02*
D03*
D82*
X359293Y50106D02*
D03*
D83*
X61500Y367500D02*
D03*
D84*
X270342Y144443D02*
D03*
M02*
