G04*
G04 #@! TF.GenerationSoftware,Altium Limited,Altium Designer,21.0.9 (235)*
G04*
G04 Layer_Physical_Order=3*
G04 Layer_Color=16440176*
%FSLAX25Y25*%
%MOIN*%
G70*
G04*
G04 #@! TF.SameCoordinates,FB9C7817-38CD-48DC-A3D4-53DF82CEFDAB*
G04*
G04*
G04 #@! TF.FilePolarity,Positive*
G04*
G01*
G75*
%ADD10C,0.00787*%
%ADD11C,0.00394*%
%ADD14R,0.03765X0.24488*%
%ADD15C,0.00197*%
%ADD70C,0.08563*%
%ADD72C,0.23622*%
%ADD73R,0.04331X0.04331*%
%ADD75C,0.10925*%
%ADD76C,0.10335*%
%ADD77C,0.17303*%
%ADD78C,0.08268*%
%ADD79O,0.15748X0.11024*%
%ADD80O,0.18898X0.11024*%
G36*
X385697Y803D02*
X803D01*
Y392197D01*
X385697D01*
Y803D01*
D02*
G37*
%LPC*%
G36*
X285766Y385919D02*
X275234D01*
Y375388D01*
X285766D01*
Y385919D01*
D02*
G37*
G36*
X235230Y385419D02*
X224699D01*
Y374888D01*
X235230D01*
Y385419D01*
D02*
G37*
G36*
X185230D02*
X174699D01*
Y374888D01*
X185230D01*
Y385419D01*
D02*
G37*
G36*
X136730Y385266D02*
X126199D01*
Y374734D01*
X136730D01*
Y385266D01*
D02*
G37*
G36*
X88230Y384919D02*
X77699D01*
Y374388D01*
X88230D01*
Y384919D01*
D02*
G37*
G36*
X61837Y370059D02*
X61163D01*
X60512Y369885D01*
X59929Y369548D01*
X59452Y369071D01*
X59115Y368488D01*
X58941Y367837D01*
Y367163D01*
X59115Y366512D01*
X59452Y365929D01*
X59929Y365452D01*
X60512Y365115D01*
X61163Y364941D01*
X61837D01*
X62488Y365115D01*
X63071Y365452D01*
X63548Y365929D01*
X63885Y366512D01*
X64059Y367163D01*
Y367837D01*
X63885Y368488D01*
X63548Y369071D01*
X63071Y369548D01*
X62488Y369885D01*
X61837Y370059D01*
D02*
G37*
G36*
X297729Y364266D02*
X296342D01*
X295003Y363907D01*
X293802Y363214D01*
X292822Y362233D01*
X292128Y361033D01*
X291770Y359693D01*
Y358307D01*
X292128Y356967D01*
X292822Y355767D01*
X293802Y354786D01*
X295003Y354093D01*
X296342Y353734D01*
X297729D01*
X299068Y354093D01*
X300269Y354786D01*
X301249Y355767D01*
X301942Y356967D01*
X302301Y358307D01*
Y359693D01*
X301942Y361033D01*
X301249Y362233D01*
X300269Y363214D01*
X299068Y363907D01*
X297729Y364266D01*
D02*
G37*
G36*
X281193D02*
X279807D01*
X278467Y363907D01*
X277267Y363214D01*
X276286Y362233D01*
X275593Y361033D01*
X275234Y359693D01*
Y358307D01*
X275593Y356967D01*
X276286Y355767D01*
X277267Y354786D01*
X278467Y354093D01*
X279807Y353734D01*
X281193D01*
X282533Y354093D01*
X283733Y354786D01*
X284714Y355767D01*
X285407Y356967D01*
X285766Y358307D01*
Y359693D01*
X285407Y361033D01*
X284714Y362233D01*
X283733Y363214D01*
X282533Y363907D01*
X281193Y364266D01*
D02*
G37*
G36*
X247193Y363766D02*
X245807D01*
X244467Y363407D01*
X243267Y362714D01*
X242286Y361733D01*
X241593Y360532D01*
X241234Y359193D01*
Y357807D01*
X241593Y356468D01*
X242286Y355267D01*
X243267Y354286D01*
X244467Y353593D01*
X245807Y353234D01*
X247193D01*
X248533Y353593D01*
X249733Y354286D01*
X250714Y355267D01*
X251407Y356468D01*
X251766Y357807D01*
Y359193D01*
X251407Y360532D01*
X250714Y361733D01*
X249733Y362714D01*
X248533Y363407D01*
X247193Y363766D01*
D02*
G37*
G36*
X230658D02*
X229271D01*
X227932Y363407D01*
X226731Y362714D01*
X225751Y361733D01*
X225058Y360532D01*
X224699Y359193D01*
Y357807D01*
X225058Y356468D01*
X225751Y355267D01*
X226731Y354286D01*
X227932Y353593D01*
X229271Y353234D01*
X230658D01*
X231997Y353593D01*
X233198Y354286D01*
X234178Y355267D01*
X234872Y356468D01*
X235230Y357807D01*
Y359193D01*
X234872Y360532D01*
X234178Y361733D01*
X233198Y362714D01*
X231997Y363407D01*
X230658Y363766D01*
D02*
G37*
G36*
X197193D02*
X195807D01*
X194467Y363407D01*
X193267Y362714D01*
X192286Y361733D01*
X191593Y360532D01*
X191234Y359193D01*
Y357807D01*
X191593Y356468D01*
X192286Y355267D01*
X193267Y354286D01*
X194467Y353593D01*
X195807Y353234D01*
X197193D01*
X198532Y353593D01*
X199733Y354286D01*
X200714Y355267D01*
X201407Y356468D01*
X201766Y357807D01*
Y359193D01*
X201407Y360532D01*
X200714Y361733D01*
X199733Y362714D01*
X198532Y363407D01*
X197193Y363766D01*
D02*
G37*
G36*
X180658D02*
X179271D01*
X177932Y363407D01*
X176731Y362714D01*
X175751Y361733D01*
X175058Y360532D01*
X174699Y359193D01*
Y357807D01*
X175058Y356468D01*
X175751Y355267D01*
X176731Y354286D01*
X177932Y353593D01*
X179271Y353234D01*
X180658D01*
X181997Y353593D01*
X183198Y354286D01*
X184178Y355267D01*
X184871Y356468D01*
X185230Y357807D01*
Y359193D01*
X184871Y360532D01*
X184178Y361733D01*
X183198Y362714D01*
X181997Y363407D01*
X180658Y363766D01*
D02*
G37*
G36*
X148693Y363612D02*
X147307D01*
X145967Y363253D01*
X144767Y362560D01*
X143786Y361580D01*
X143093Y360379D01*
X142734Y359040D01*
Y357653D01*
X143093Y356314D01*
X143786Y355113D01*
X144767Y354133D01*
X145967Y353440D01*
X147307Y353081D01*
X148693D01*
X150032Y353440D01*
X151233Y354133D01*
X152214Y355113D01*
X152907Y356314D01*
X153266Y357653D01*
Y359040D01*
X152907Y360379D01*
X152214Y361580D01*
X151233Y362560D01*
X150032Y363253D01*
X148693Y363612D01*
D02*
G37*
G36*
X132158D02*
X130771D01*
X129432Y363253D01*
X128231Y362560D01*
X127251Y361580D01*
X126558Y360379D01*
X126199Y359040D01*
Y357653D01*
X126558Y356314D01*
X127251Y355113D01*
X128231Y354133D01*
X129432Y353440D01*
X130771Y353081D01*
X132158D01*
X133497Y353440D01*
X134698Y354133D01*
X135678Y355113D01*
X136372Y356314D01*
X136730Y357653D01*
Y359040D01*
X136372Y360379D01*
X135678Y361580D01*
X134698Y362560D01*
X133497Y363253D01*
X132158Y363612D01*
D02*
G37*
G36*
X100193Y363266D02*
X98807D01*
X97467Y362907D01*
X96267Y362214D01*
X95286Y361233D01*
X94593Y360033D01*
X94234Y358693D01*
Y357307D01*
X94593Y355967D01*
X95286Y354767D01*
X96267Y353786D01*
X97467Y353093D01*
X98807Y352734D01*
X100193D01*
X101532Y353093D01*
X102733Y353786D01*
X103714Y354767D01*
X104407Y355967D01*
X104766Y357307D01*
Y358693D01*
X104407Y360033D01*
X103714Y361233D01*
X102733Y362214D01*
X101532Y362907D01*
X100193Y363266D01*
D02*
G37*
G36*
X83658D02*
X82271D01*
X80932Y362907D01*
X79731Y362214D01*
X78751Y361233D01*
X78058Y360033D01*
X77699Y358693D01*
Y357307D01*
X78058Y355967D01*
X78751Y354767D01*
X79731Y353786D01*
X80932Y353093D01*
X82271Y352734D01*
X83658D01*
X84997Y353093D01*
X86198Y353786D01*
X87178Y354767D01*
X87871Y355967D01*
X88230Y357307D01*
Y358693D01*
X87871Y360033D01*
X87178Y361233D01*
X86198Y362214D01*
X84997Y362907D01*
X83658Y363266D01*
D02*
G37*
G36*
X197872Y330870D02*
X197128D01*
X196441Y330585D01*
X195915Y330059D01*
X195630Y329372D01*
Y328628D01*
X195915Y327941D01*
X196441Y327415D01*
X197128Y327130D01*
X197872D01*
X198559Y327415D01*
X199085Y327941D01*
X199370Y328628D01*
Y329372D01*
X199085Y330059D01*
X198559Y330585D01*
X197872Y330870D01*
D02*
G37*
G36*
X146446Y324296D02*
X145702D01*
X145015Y324011D01*
X144489Y323485D01*
X144204Y322798D01*
Y322054D01*
X144489Y321367D01*
X145015Y320841D01*
X145702Y320556D01*
X146446D01*
X147133Y320841D01*
X147659Y321367D01*
X147944Y322054D01*
Y322798D01*
X147659Y323485D01*
X147133Y324011D01*
X146446Y324296D01*
D02*
G37*
G36*
X198033Y323209D02*
X197289D01*
X196602Y322924D01*
X196076Y322398D01*
X195791Y321711D01*
Y320967D01*
X196076Y320280D01*
X196602Y319754D01*
X197289Y319469D01*
X198033D01*
X198720Y319754D01*
X199247Y320280D01*
X199531Y320967D01*
Y321711D01*
X199247Y322398D01*
X198720Y322924D01*
X198033Y323209D01*
D02*
G37*
G36*
X233035Y323207D02*
X232291D01*
X231604Y322922D01*
X231078Y322396D01*
X230793Y321709D01*
Y320965D01*
X231078Y320278D01*
X231604Y319752D01*
X232291Y319467D01*
X233035D01*
X233722Y319752D01*
X234248Y320278D01*
X234533Y320965D01*
Y321709D01*
X234248Y322396D01*
X233722Y322922D01*
X233035Y323207D01*
D02*
G37*
G36*
X233035Y315533D02*
X232291D01*
X231603Y315248D01*
X231077Y314722D01*
X230793Y314035D01*
Y313291D01*
X231077Y312603D01*
X231603Y312077D01*
X232291Y311793D01*
X233035D01*
X233722Y312077D01*
X234248Y312603D01*
X234533Y313291D01*
Y314035D01*
X234248Y314722D01*
X233722Y315248D01*
X233035Y315533D01*
D02*
G37*
G36*
X196341Y312831D02*
X195597D01*
X194910Y312546D01*
X194384Y312020D01*
X194099Y311333D01*
Y310589D01*
X194384Y309901D01*
X194910Y309375D01*
X195597Y309091D01*
X196341D01*
X197028Y309375D01*
X197554Y309901D01*
X197839Y310589D01*
Y311333D01*
X197554Y312020D01*
X197028Y312546D01*
X196341Y312831D01*
D02*
G37*
G36*
X153433Y312809D02*
X152689D01*
X152002Y312524D01*
X151476Y311998D01*
X151191Y311311D01*
Y310567D01*
X151476Y309879D01*
X152002Y309353D01*
X152689Y309068D01*
X153433D01*
X154121Y309353D01*
X154647Y309879D01*
X154931Y310567D01*
Y311311D01*
X154647Y311998D01*
X154121Y312524D01*
X153433Y312809D01*
D02*
G37*
G36*
X181372Y306870D02*
X180628D01*
X179941Y306585D01*
X179415Y306059D01*
X179130Y305372D01*
Y304628D01*
X179415Y303941D01*
X179941Y303415D01*
X180628Y303130D01*
X181372D01*
X182059Y303415D01*
X182585Y303941D01*
X182870Y304628D01*
Y305372D01*
X182585Y306059D01*
X182059Y306585D01*
X181372Y306870D01*
D02*
G37*
G36*
X60135Y304482D02*
X58865D01*
X57620Y304235D01*
X56446Y303748D01*
X55390Y303043D01*
X54492Y302145D01*
X53787Y301089D01*
X53301Y299916D01*
X53053Y298670D01*
Y297400D01*
X53301Y296155D01*
X53787Y294982D01*
X54492Y293926D01*
X55390Y293028D01*
X56446Y292322D01*
X57620Y291836D01*
X58865Y291589D01*
X60135D01*
X61380Y291836D01*
X62554Y292322D01*
X63610Y293028D01*
X64508Y293926D01*
X65213Y294982D01*
X65699Y296155D01*
X65947Y297400D01*
Y298670D01*
X65699Y299916D01*
X65213Y301089D01*
X64508Y302145D01*
X63610Y303043D01*
X62554Y303748D01*
X61380Y304235D01*
X60135Y304482D01*
D02*
G37*
G36*
X38481D02*
X37211D01*
X35966Y304235D01*
X34793Y303748D01*
X33737Y303043D01*
X32839Y302145D01*
X32133Y301089D01*
X31647Y299916D01*
X31400Y298670D01*
Y297400D01*
X31647Y296155D01*
X32133Y294982D01*
X32839Y293926D01*
X33737Y293028D01*
X34793Y292322D01*
X35966Y291836D01*
X37211Y291589D01*
X38481D01*
X39727Y291836D01*
X40900Y292322D01*
X41956Y293028D01*
X42854Y293926D01*
X43560Y294982D01*
X44046Y296155D01*
X44293Y297400D01*
Y298670D01*
X44046Y299916D01*
X43560Y301089D01*
X42854Y302145D01*
X41956Y303043D01*
X40900Y303748D01*
X39727Y304235D01*
X38481Y304482D01*
D02*
G37*
G36*
X9795Y305024D02*
X8418D01*
X7068Y304755D01*
X5796Y304228D01*
X4652Y303464D01*
X3678Y302490D01*
X2913Y301346D01*
X2387Y300074D01*
X2118Y298724D01*
Y297347D01*
X2387Y295997D01*
X2913Y294725D01*
X3678Y293581D01*
X4652Y292607D01*
X5796Y291843D01*
X7068Y291316D01*
X8418Y291047D01*
X9795D01*
X11145Y291316D01*
X12416Y291843D01*
X13561Y292607D01*
X14534Y293581D01*
X15299Y294725D01*
X15826Y295997D01*
X16094Y297347D01*
Y298724D01*
X15826Y300074D01*
X15299Y301346D01*
X14534Y302490D01*
X13561Y303464D01*
X12416Y304228D01*
X11145Y304755D01*
X9795Y305024D01*
D02*
G37*
G36*
X293372Y293370D02*
X292628D01*
X291941Y293085D01*
X291415Y292559D01*
X291130Y291872D01*
Y291128D01*
X291415Y290441D01*
X291941Y289915D01*
X292628Y289630D01*
X293372D01*
X294059Y289915D01*
X294585Y290441D01*
X294870Y291128D01*
Y291872D01*
X294585Y292559D01*
X294059Y293085D01*
X293372Y293370D01*
D02*
G37*
G36*
X218872Y289370D02*
X218128D01*
X217441Y289085D01*
X216915Y288559D01*
X216630Y287872D01*
Y287128D01*
X216915Y286441D01*
X217441Y285915D01*
X218128Y285630D01*
X218872D01*
X219559Y285915D01*
X220085Y286441D01*
X220370Y287128D01*
Y287872D01*
X220085Y288559D01*
X219559Y289085D01*
X218872Y289370D01*
D02*
G37*
G36*
X244650Y285150D02*
X238350D01*
Y278850D01*
X244650D01*
Y285150D01*
D02*
G37*
G36*
X60135Y287947D02*
X58865D01*
X57620Y287699D01*
X56446Y287213D01*
X55390Y286508D01*
X54492Y285610D01*
X53787Y284554D01*
X53301Y283381D01*
X53053Y282135D01*
Y280865D01*
X53301Y279620D01*
X53787Y278446D01*
X54492Y277390D01*
X55390Y276492D01*
X56446Y275787D01*
X57620Y275301D01*
X58865Y275053D01*
X60135D01*
X61380Y275301D01*
X62554Y275787D01*
X63610Y276492D01*
X64508Y277390D01*
X65213Y278446D01*
X65699Y279620D01*
X65947Y280865D01*
Y282135D01*
X65699Y283381D01*
X65213Y284554D01*
X64508Y285610D01*
X63610Y286508D01*
X62554Y287213D01*
X61380Y287699D01*
X60135Y287947D01*
D02*
G37*
G36*
X38481D02*
X37211D01*
X35966Y287699D01*
X34793Y287213D01*
X33737Y286508D01*
X32839Y285610D01*
X32133Y284554D01*
X31647Y283381D01*
X31400Y282135D01*
Y280865D01*
X31647Y279620D01*
X32133Y278446D01*
X32839Y277390D01*
X33737Y276492D01*
X34793Y275787D01*
X35966Y275301D01*
X37211Y275053D01*
X38481D01*
X39727Y275301D01*
X40900Y275787D01*
X41956Y276492D01*
X42854Y277390D01*
X43560Y278446D01*
X44046Y279620D01*
X44293Y280865D01*
Y282135D01*
X44046Y283381D01*
X43560Y284554D01*
X42854Y285610D01*
X41956Y286508D01*
X40900Y287213D01*
X39727Y287699D01*
X38481Y287947D01*
D02*
G37*
G36*
X60135Y271411D02*
X58865D01*
X57620Y271164D01*
X56446Y270678D01*
X55390Y269972D01*
X54492Y269074D01*
X53787Y268018D01*
X53301Y266845D01*
X53053Y265599D01*
Y264330D01*
X53301Y263084D01*
X53787Y261911D01*
X54492Y260855D01*
X55390Y259957D01*
X56446Y259251D01*
X57620Y258766D01*
X58865Y258518D01*
X60135D01*
X61380Y258766D01*
X62554Y259251D01*
X63610Y259957D01*
X64508Y260855D01*
X65213Y261911D01*
X65699Y263084D01*
X65947Y264330D01*
Y265599D01*
X65699Y266845D01*
X65213Y268018D01*
X64508Y269074D01*
X63610Y269972D01*
X62554Y270678D01*
X61380Y271164D01*
X60135Y271411D01*
D02*
G37*
G36*
X38481D02*
X37211D01*
X35966Y271164D01*
X34793Y270678D01*
X33737Y269972D01*
X32839Y269074D01*
X32133Y268018D01*
X31647Y266845D01*
X31400Y265599D01*
Y264330D01*
X31647Y263084D01*
X32133Y261911D01*
X32839Y260855D01*
X33737Y259957D01*
X34793Y259251D01*
X35966Y258766D01*
X37211Y258518D01*
X38481D01*
X39727Y258766D01*
X40900Y259251D01*
X41956Y259957D01*
X42854Y260855D01*
X43560Y261911D01*
X44046Y263084D01*
X44293Y264330D01*
Y265599D01*
X44046Y266845D01*
X43560Y268018D01*
X42854Y269074D01*
X41956Y269972D01*
X40900Y270678D01*
X39727Y271164D01*
X38481Y271411D01*
D02*
G37*
G36*
X345606Y268652D02*
X344394D01*
X343206Y268415D01*
X342086Y267951D01*
X341079Y267278D01*
X340222Y266421D01*
X339548Y265414D01*
X339085Y264294D01*
X338848Y263106D01*
Y261894D01*
X339085Y260706D01*
X339548Y259586D01*
X340222Y258579D01*
X341079Y257722D01*
X342086Y257049D01*
X343206Y256585D01*
X344394Y256348D01*
X345606D01*
X346794Y256585D01*
X347914Y257049D01*
X348921Y257722D01*
X349778Y258579D01*
X350451Y259586D01*
X350915Y260706D01*
X351152Y261894D01*
Y263106D01*
X350915Y264294D01*
X350451Y265414D01*
X349778Y266421D01*
X348921Y267278D01*
X347914Y267951D01*
X346794Y268415D01*
X345606Y268652D01*
D02*
G37*
G36*
X329858Y260778D02*
X328646D01*
X327458Y260541D01*
X326338Y260077D01*
X325331Y259404D01*
X324474Y258547D01*
X323800Y257540D01*
X323337Y256420D01*
X323100Y255232D01*
Y254020D01*
X323337Y252832D01*
X323800Y251712D01*
X324474Y250705D01*
X325331Y249848D01*
X326338Y249174D01*
X327458Y248711D01*
X328646Y248474D01*
X329858D01*
X331046Y248711D01*
X332166Y249174D01*
X333173Y249848D01*
X334030Y250705D01*
X334703Y251712D01*
X335167Y252832D01*
X335403Y254020D01*
Y255232D01*
X335167Y256420D01*
X334703Y257540D01*
X334030Y258547D01*
X333173Y259404D01*
X332166Y260077D01*
X331046Y260541D01*
X329858Y260778D01*
D02*
G37*
G36*
X60135Y254876D02*
X58865D01*
X57620Y254628D01*
X56446Y254142D01*
X55390Y253437D01*
X54492Y252539D01*
X53787Y251483D01*
X53301Y250310D01*
X53053Y249064D01*
Y247794D01*
X53301Y246549D01*
X53787Y245375D01*
X54492Y244320D01*
X55390Y243422D01*
X56446Y242716D01*
X57620Y242230D01*
X58865Y241982D01*
X60135D01*
X61380Y242230D01*
X62554Y242716D01*
X63610Y243422D01*
X64508Y244320D01*
X65213Y245375D01*
X65699Y246549D01*
X65947Y247794D01*
Y249064D01*
X65699Y250310D01*
X65213Y251483D01*
X64508Y252539D01*
X63610Y253437D01*
X62554Y254142D01*
X61380Y254628D01*
X60135Y254876D01*
D02*
G37*
G36*
X209372Y244870D02*
X208628D01*
X207941Y244585D01*
X207415Y244059D01*
X207130Y243372D01*
Y242628D01*
X207415Y241941D01*
X207941Y241415D01*
X208628Y241130D01*
X209372D01*
X210059Y241415D01*
X210585Y241941D01*
X210870Y242628D01*
Y243372D01*
X210585Y244059D01*
X210059Y244585D01*
X209372Y244870D01*
D02*
G37*
G36*
X345606Y252904D02*
X344394D01*
X343206Y252667D01*
X342086Y252203D01*
X341079Y251530D01*
X340222Y250673D01*
X339548Y249666D01*
X339085Y248546D01*
X338848Y247358D01*
Y246146D01*
X339085Y244958D01*
X339548Y243838D01*
X340222Y242831D01*
X341079Y241974D01*
X342086Y241301D01*
X343206Y240837D01*
X344394Y240600D01*
X345606D01*
X346794Y240837D01*
X347914Y241301D01*
X348921Y241974D01*
X349778Y242831D01*
X350451Y243838D01*
X350915Y244958D01*
X351152Y246146D01*
Y247358D01*
X350915Y248546D01*
X350451Y249666D01*
X349778Y250673D01*
X348921Y251530D01*
X347914Y252203D01*
X346794Y252667D01*
X345606Y252904D01*
D02*
G37*
G36*
X329858Y245029D02*
X328646D01*
X327458Y244793D01*
X326338Y244329D01*
X325331Y243656D01*
X324474Y242799D01*
X323800Y241792D01*
X323337Y240672D01*
X323100Y239484D01*
Y238272D01*
X323337Y237084D01*
X323800Y235964D01*
X324474Y234957D01*
X325331Y234100D01*
X326338Y233426D01*
X327458Y232963D01*
X328646Y232726D01*
X329858D01*
X331046Y232963D01*
X332166Y233426D01*
X333173Y234100D01*
X334030Y234957D01*
X334703Y235964D01*
X335167Y237084D01*
X335403Y238272D01*
Y239484D01*
X335167Y240672D01*
X334703Y241792D01*
X334030Y242799D01*
X333173Y243656D01*
X332166Y244329D01*
X331046Y244793D01*
X329858Y245029D01*
D02*
G37*
G36*
X60135Y238340D02*
X58865D01*
X57620Y238093D01*
X56446Y237607D01*
X55390Y236901D01*
X54492Y236003D01*
X53787Y234947D01*
X53301Y233774D01*
X53053Y232529D01*
Y231259D01*
X53301Y230013D01*
X53787Y228840D01*
X54492Y227784D01*
X55390Y226886D01*
X56446Y226181D01*
X57620Y225695D01*
X58865Y225447D01*
X60135D01*
X61380Y225695D01*
X62554Y226181D01*
X63610Y226886D01*
X64508Y227784D01*
X65213Y228840D01*
X65699Y230013D01*
X65947Y231259D01*
Y232529D01*
X65699Y233774D01*
X65213Y234947D01*
X64508Y236003D01*
X63610Y236901D01*
X62554Y237607D01*
X61380Y238093D01*
X60135Y238340D01*
D02*
G37*
G36*
X38481D02*
X37211D01*
X35966Y238093D01*
X34793Y237607D01*
X33737Y236901D01*
X32839Y236003D01*
X32133Y234947D01*
X31647Y233774D01*
X31400Y232529D01*
Y231259D01*
X31647Y230013D01*
X32133Y228840D01*
X32839Y227784D01*
X33737Y226886D01*
X34793Y226181D01*
X35966Y225695D01*
X37211Y225447D01*
X38481D01*
X39727Y225695D01*
X40900Y226181D01*
X41956Y226886D01*
X42854Y227784D01*
X43560Y228840D01*
X44046Y230013D01*
X44293Y231259D01*
Y232529D01*
X44046Y233774D01*
X43560Y234947D01*
X42854Y236003D01*
X41956Y236901D01*
X40900Y237607D01*
X39727Y238093D01*
X38481Y238340D01*
D02*
G37*
G36*
X361354Y229281D02*
X360142D01*
X358954Y229045D01*
X357834Y228581D01*
X356827Y227908D01*
X355970Y227051D01*
X355297Y226044D01*
X354833Y224924D01*
X354596Y223736D01*
Y222524D01*
X354833Y221336D01*
X355297Y220216D01*
X355970Y219209D01*
X356827Y218352D01*
X357834Y217678D01*
X358954Y217215D01*
X360142Y216978D01*
X361354D01*
X362542Y217215D01*
X363662Y217678D01*
X364669Y218352D01*
X365526Y219209D01*
X366199Y220216D01*
X366663Y221336D01*
X366900Y222524D01*
Y223736D01*
X366663Y224924D01*
X366199Y226044D01*
X365526Y227051D01*
X364669Y227908D01*
X363662Y228581D01*
X362542Y229045D01*
X361354Y229281D01*
D02*
G37*
G36*
X329858D02*
X328646D01*
X327458Y229045D01*
X326338Y228581D01*
X325331Y227908D01*
X324474Y227051D01*
X323800Y226044D01*
X323337Y224924D01*
X323100Y223736D01*
Y222524D01*
X323337Y221336D01*
X323800Y220216D01*
X324474Y219209D01*
X325331Y218352D01*
X326338Y217678D01*
X327458Y217215D01*
X328646Y216978D01*
X329858D01*
X331046Y217215D01*
X332166Y217678D01*
X333173Y218352D01*
X334030Y219209D01*
X334703Y220216D01*
X335167Y221336D01*
X335403Y222524D01*
Y223736D01*
X335167Y224924D01*
X334703Y226044D01*
X334030Y227051D01*
X333173Y227908D01*
X332166Y228581D01*
X331046Y229045D01*
X329858Y229281D01*
D02*
G37*
G36*
X250872Y218870D02*
X250128D01*
X249441Y218585D01*
X248915Y218059D01*
X248630Y217372D01*
Y216628D01*
X248915Y215941D01*
X249441Y215415D01*
X250128Y215130D01*
X250872D01*
X251559Y215415D01*
X252085Y215941D01*
X252370Y216628D01*
Y217372D01*
X252085Y218059D01*
X251559Y218585D01*
X250872Y218870D01*
D02*
G37*
G36*
X246372D02*
X245628D01*
X244941Y218585D01*
X244415Y218059D01*
X244130Y217372D01*
Y216628D01*
X244415Y215941D01*
X244941Y215415D01*
X245628Y215130D01*
X246372D01*
X247059Y215415D01*
X247585Y215941D01*
X247870Y216628D01*
Y217372D01*
X247585Y218059D01*
X247059Y218585D01*
X246372Y218870D01*
D02*
G37*
G36*
X241872D02*
X241128D01*
X240441Y218585D01*
X239915Y218059D01*
X239630Y217372D01*
Y216628D01*
X239915Y215941D01*
X240441Y215415D01*
X241128Y215130D01*
X241872D01*
X242559Y215415D01*
X243085Y215941D01*
X243370Y216628D01*
Y217372D01*
X243085Y218059D01*
X242559Y218585D01*
X241872Y218870D01*
D02*
G37*
G36*
X237372D02*
X236628D01*
X235941Y218585D01*
X235415Y218059D01*
X235130Y217372D01*
Y216628D01*
X235415Y215941D01*
X235941Y215415D01*
X236628Y215130D01*
X237372D01*
X238059Y215415D01*
X238585Y215941D01*
X238870Y216628D01*
Y217372D01*
X238585Y218059D01*
X238059Y218585D01*
X237372Y218870D01*
D02*
G37*
G36*
X232372D02*
X231628D01*
X230941Y218585D01*
X230415Y218059D01*
X230130Y217372D01*
Y216628D01*
X230415Y215941D01*
X230941Y215415D01*
X231628Y215130D01*
X232372D01*
X233059Y215415D01*
X233585Y215941D01*
X233870Y216628D01*
Y217372D01*
X233585Y218059D01*
X233059Y218585D01*
X232372Y218870D01*
D02*
G37*
G36*
X226872D02*
X226128D01*
X225441Y218585D01*
X224915Y218059D01*
X224630Y217372D01*
Y216628D01*
X224915Y215941D01*
X225441Y215415D01*
X226128Y215130D01*
X226872D01*
X227559Y215415D01*
X228085Y215941D01*
X228370Y216628D01*
Y217372D01*
X228085Y218059D01*
X227559Y218585D01*
X226872Y218870D01*
D02*
G37*
G36*
X186150Y219150D02*
X179850D01*
Y212850D01*
X186150D01*
Y219150D01*
D02*
G37*
G36*
X345606Y221408D02*
X344394D01*
X343206Y221171D01*
X342086Y220707D01*
X341079Y220034D01*
X340222Y219177D01*
X339548Y218170D01*
X339085Y217050D01*
X338848Y215862D01*
Y214650D01*
X339085Y213462D01*
X339548Y212342D01*
X340222Y211334D01*
X341079Y210478D01*
X342086Y209805D01*
X343206Y209341D01*
X344394Y209104D01*
X345606D01*
X346794Y209341D01*
X347914Y209805D01*
X348921Y210478D01*
X349778Y211334D01*
X350451Y212342D01*
X350915Y213462D01*
X351152Y214650D01*
Y215862D01*
X350915Y217050D01*
X350451Y218170D01*
X349778Y219177D01*
X348921Y220034D01*
X347914Y220707D01*
X346794Y221171D01*
X345606Y221408D01*
D02*
G37*
G36*
X60135Y221805D02*
X58865D01*
X57620Y221557D01*
X56446Y221071D01*
X55390Y220366D01*
X54492Y219468D01*
X53787Y218412D01*
X53301Y217239D01*
X53053Y215993D01*
Y214723D01*
X53301Y213478D01*
X53787Y212304D01*
X54492Y211249D01*
X55390Y210351D01*
X56446Y209645D01*
X57620Y209159D01*
X58865Y208911D01*
X60135D01*
X61380Y209159D01*
X62554Y209645D01*
X63610Y210351D01*
X64508Y211249D01*
X65213Y212304D01*
X65699Y213478D01*
X65947Y214723D01*
Y215993D01*
X65699Y217239D01*
X65213Y218412D01*
X64508Y219468D01*
X63610Y220366D01*
X62554Y221071D01*
X61380Y221557D01*
X60135Y221805D01*
D02*
G37*
G36*
X38481D02*
X37211D01*
X35966Y221557D01*
X34793Y221071D01*
X33737Y220366D01*
X32839Y219468D01*
X32133Y218412D01*
X31647Y217239D01*
X31400Y215993D01*
Y214723D01*
X31647Y213478D01*
X32133Y212304D01*
X32839Y211249D01*
X33737Y210351D01*
X34793Y209645D01*
X35966Y209159D01*
X37211Y208911D01*
X38481D01*
X39727Y209159D01*
X40900Y209645D01*
X41956Y210351D01*
X42854Y211249D01*
X43560Y212304D01*
X44046Y213478D01*
X44293Y214723D01*
Y215993D01*
X44046Y217239D01*
X43560Y218412D01*
X42854Y219468D01*
X41956Y220366D01*
X40900Y221071D01*
X39727Y221557D01*
X38481Y221805D01*
D02*
G37*
G36*
X361354Y213533D02*
X360142D01*
X358954Y213297D01*
X357834Y212833D01*
X356827Y212160D01*
X355970Y211303D01*
X355297Y210296D01*
X354833Y209176D01*
X354596Y207988D01*
Y206776D01*
X354833Y205588D01*
X355297Y204468D01*
X355970Y203461D01*
X356827Y202604D01*
X357834Y201930D01*
X358954Y201467D01*
X360142Y201230D01*
X361354D01*
X362542Y201467D01*
X363662Y201930D01*
X364669Y202604D01*
X365526Y203461D01*
X366199Y204468D01*
X366663Y205588D01*
X366900Y206776D01*
Y207988D01*
X366663Y209176D01*
X366199Y210296D01*
X365526Y211303D01*
X364669Y212160D01*
X363662Y212833D01*
X362542Y213297D01*
X361354Y213533D01*
D02*
G37*
G36*
X329858D02*
X328646D01*
X327458Y213297D01*
X326338Y212833D01*
X325331Y212160D01*
X324474Y211303D01*
X323800Y210296D01*
X323337Y209176D01*
X323100Y207988D01*
Y206776D01*
X323337Y205588D01*
X323800Y204468D01*
X324474Y203461D01*
X325331Y202604D01*
X326338Y201930D01*
X327458Y201467D01*
X328646Y201230D01*
X329858D01*
X331046Y201467D01*
X332166Y201930D01*
X333173Y202604D01*
X334030Y203461D01*
X334703Y204468D01*
X335167Y205588D01*
X335403Y206776D01*
Y207988D01*
X335167Y209176D01*
X334703Y210296D01*
X334030Y211303D01*
X333173Y212160D01*
X332166Y212833D01*
X331046Y213297D01*
X329858Y213533D01*
D02*
G37*
G36*
X345606Y205660D02*
X344394D01*
X343206Y205423D01*
X342086Y204959D01*
X341079Y204286D01*
X340222Y203429D01*
X339548Y202422D01*
X339085Y201302D01*
X338848Y200114D01*
Y198902D01*
X339085Y197713D01*
X339548Y196594D01*
X340222Y195587D01*
X341079Y194730D01*
X342086Y194056D01*
X343206Y193593D01*
X344394Y193356D01*
X345606D01*
X346794Y193593D01*
X347914Y194056D01*
X348921Y194730D01*
X349778Y195587D01*
X350451Y196594D01*
X350915Y197713D01*
X351152Y198902D01*
Y200114D01*
X350915Y201302D01*
X350451Y202422D01*
X349778Y203429D01*
X348921Y204286D01*
X347914Y204959D01*
X346794Y205423D01*
X345606Y205660D01*
D02*
G37*
G36*
X60135Y205270D02*
X58865D01*
X57620Y205022D01*
X56446Y204536D01*
X55390Y203830D01*
X54492Y202933D01*
X53787Y201877D01*
X53301Y200703D01*
X53053Y199458D01*
Y198188D01*
X53301Y196942D01*
X53787Y195769D01*
X54492Y194713D01*
X55390Y193815D01*
X56446Y193110D01*
X57620Y192624D01*
X58865Y192376D01*
X60135D01*
X61380Y192624D01*
X62554Y193110D01*
X63610Y193815D01*
X64508Y194713D01*
X65213Y195769D01*
X65699Y196942D01*
X65947Y198188D01*
Y199458D01*
X65699Y200703D01*
X65213Y201877D01*
X64508Y202933D01*
X63610Y203830D01*
X62554Y204536D01*
X61380Y205022D01*
X60135Y205270D01*
D02*
G37*
G36*
X38481D02*
X37211D01*
X35966Y205022D01*
X34793Y204536D01*
X33737Y203830D01*
X32839Y202933D01*
X32133Y201877D01*
X31647Y200703D01*
X31400Y199458D01*
Y198188D01*
X31647Y196942D01*
X32133Y195769D01*
X32839Y194713D01*
X33737Y193815D01*
X34793Y193110D01*
X35966Y192624D01*
X37211Y192376D01*
X38481D01*
X39727Y192624D01*
X40900Y193110D01*
X41956Y193815D01*
X42854Y194713D01*
X43560Y195769D01*
X44046Y196942D01*
X44293Y198188D01*
Y199458D01*
X44046Y200703D01*
X43560Y201877D01*
X42854Y202933D01*
X41956Y203830D01*
X40900Y204536D01*
X39727Y205022D01*
X38481Y205270D01*
D02*
G37*
G36*
X9795Y205811D02*
X8418D01*
X7068Y205542D01*
X5796Y205016D01*
X4652Y204251D01*
X3678Y203277D01*
X2913Y202133D01*
X2387Y200861D01*
X2118Y199511D01*
Y198135D01*
X2387Y196784D01*
X2913Y195513D01*
X3678Y194368D01*
X4652Y193395D01*
X5796Y192630D01*
X7068Y192103D01*
X8418Y191835D01*
X9795D01*
X11145Y192103D01*
X12416Y192630D01*
X13561Y193395D01*
X14534Y194368D01*
X15299Y195513D01*
X15826Y196784D01*
X16094Y198135D01*
Y199511D01*
X15826Y200861D01*
X15299Y202133D01*
X14534Y203277D01*
X13561Y204251D01*
X12416Y205016D01*
X11145Y205542D01*
X9795Y205811D01*
D02*
G37*
G36*
X361354Y197785D02*
X360142D01*
X358954Y197549D01*
X357834Y197085D01*
X356827Y196412D01*
X355970Y195555D01*
X355297Y194548D01*
X354833Y193428D01*
X354596Y192240D01*
Y191028D01*
X354833Y189839D01*
X355297Y188720D01*
X355970Y187713D01*
X356827Y186856D01*
X357834Y186182D01*
X358954Y185719D01*
X360142Y185482D01*
X361354D01*
X362542Y185719D01*
X363662Y186182D01*
X364669Y186856D01*
X365526Y187713D01*
X366199Y188720D01*
X366663Y189839D01*
X366900Y191028D01*
Y192240D01*
X366663Y193428D01*
X366199Y194548D01*
X365526Y195555D01*
X364669Y196412D01*
X363662Y197085D01*
X362542Y197549D01*
X361354Y197785D01*
D02*
G37*
G36*
X329858D02*
X328646D01*
X327458Y197549D01*
X326338Y197085D01*
X325331Y196412D01*
X324474Y195555D01*
X323800Y194548D01*
X323337Y193428D01*
X323100Y192240D01*
Y191028D01*
X323337Y189839D01*
X323800Y188720D01*
X324474Y187713D01*
X325331Y186856D01*
X326338Y186182D01*
X327458Y185719D01*
X328646Y185482D01*
X329858D01*
X331046Y185719D01*
X332166Y186182D01*
X333173Y186856D01*
X334030Y187713D01*
X334703Y188720D01*
X335167Y189839D01*
X335403Y191028D01*
Y192240D01*
X335167Y193428D01*
X334703Y194548D01*
X334030Y195555D01*
X333173Y196412D01*
X332166Y197085D01*
X331046Y197549D01*
X329858Y197785D01*
D02*
G37*
G36*
X345606Y189911D02*
X344394D01*
X343206Y189675D01*
X342086Y189211D01*
X341079Y188538D01*
X340222Y187681D01*
X339548Y186674D01*
X339085Y185554D01*
X338848Y184366D01*
Y183154D01*
X339085Y181965D01*
X339548Y180846D01*
X340222Y179839D01*
X341079Y178982D01*
X342086Y178308D01*
X343206Y177845D01*
X344394Y177608D01*
X345606D01*
X346794Y177845D01*
X347914Y178308D01*
X348921Y178982D01*
X349778Y179839D01*
X350451Y180846D01*
X350915Y181965D01*
X351152Y183154D01*
Y184366D01*
X350915Y185554D01*
X350451Y186674D01*
X349778Y187681D01*
X348921Y188538D01*
X347914Y189211D01*
X346794Y189675D01*
X345606Y189911D01*
D02*
G37*
G36*
X361354Y182037D02*
X360142D01*
X358954Y181801D01*
X357834Y181337D01*
X356827Y180664D01*
X355970Y179807D01*
X355297Y178800D01*
X354833Y177680D01*
X354596Y176492D01*
Y175280D01*
X354833Y174091D01*
X355297Y172972D01*
X355970Y171964D01*
X356827Y171108D01*
X357834Y170434D01*
X358954Y169971D01*
X360142Y169734D01*
X361354D01*
X362542Y169971D01*
X363662Y170434D01*
X364669Y171108D01*
X365526Y171964D01*
X366199Y172972D01*
X366663Y174091D01*
X366900Y175280D01*
Y176492D01*
X366663Y177680D01*
X366199Y178800D01*
X365526Y179807D01*
X364669Y180664D01*
X363662Y181337D01*
X362542Y181801D01*
X361354Y182037D01*
D02*
G37*
G36*
X329858D02*
X328646D01*
X327458Y181801D01*
X326338Y181337D01*
X325331Y180664D01*
X324474Y179807D01*
X323800Y178800D01*
X323337Y177680D01*
X323100Y176492D01*
Y175280D01*
X323337Y174091D01*
X323800Y172972D01*
X324474Y171964D01*
X325331Y171108D01*
X326338Y170434D01*
X327458Y169971D01*
X328646Y169734D01*
X329858D01*
X331046Y169971D01*
X332166Y170434D01*
X333173Y171108D01*
X334030Y171964D01*
X334703Y172972D01*
X335167Y174091D01*
X335403Y175280D01*
Y176492D01*
X335167Y177680D01*
X334703Y178800D01*
X334030Y179807D01*
X333173Y180664D01*
X332166Y181337D01*
X331046Y181801D01*
X329858Y182037D01*
D02*
G37*
G36*
X127211Y166618D02*
X125863D01*
X124562Y166269D01*
X123394Y165595D01*
X122441Y164643D01*
X121768Y163476D01*
X121419Y162174D01*
Y160826D01*
X121768Y159525D01*
X122441Y158357D01*
X123394Y157404D01*
X124562Y156731D01*
X125863Y156382D01*
X127211D01*
X128513Y156731D01*
X129680Y157404D01*
X130632Y158357D01*
X131306Y159525D01*
X131655Y160826D01*
Y162174D01*
X131306Y163476D01*
X130632Y164643D01*
X129680Y165595D01*
X128513Y166269D01*
X127211Y166618D01*
D02*
G37*
G36*
X105557D02*
X104210D01*
X102908Y166269D01*
X101741Y165595D01*
X100788Y164643D01*
X100114Y163476D01*
X99765Y162174D01*
Y160826D01*
X100114Y159525D01*
X100788Y158357D01*
X101741Y157404D01*
X102908Y156731D01*
X104210Y156382D01*
X105557D01*
X106859Y156731D01*
X108026Y157404D01*
X108979Y158357D01*
X109653Y159525D01*
X110002Y160826D01*
Y162174D01*
X109653Y163476D01*
X108979Y164643D01*
X108026Y165595D01*
X106859Y166269D01*
X105557Y166618D01*
D02*
G37*
G36*
X361354Y166289D02*
X360142D01*
X358954Y166053D01*
X357834Y165589D01*
X356827Y164916D01*
X355970Y164059D01*
X355297Y163052D01*
X354833Y161932D01*
X354596Y160744D01*
Y159532D01*
X354833Y158344D01*
X355297Y157224D01*
X355970Y156216D01*
X356827Y155360D01*
X357834Y154686D01*
X358954Y154223D01*
X360142Y153986D01*
X361354D01*
X362542Y154223D01*
X363662Y154686D01*
X364669Y155360D01*
X365526Y156216D01*
X366199Y157224D01*
X366663Y158344D01*
X366900Y159532D01*
Y160744D01*
X366663Y161932D01*
X366199Y163052D01*
X365526Y164059D01*
X364669Y164916D01*
X363662Y165589D01*
X362542Y166053D01*
X361354Y166289D01*
D02*
G37*
G36*
X329858D02*
X328646D01*
X327458Y166053D01*
X326338Y165589D01*
X325331Y164916D01*
X324474Y164059D01*
X323800Y163052D01*
X323337Y161932D01*
X323100Y160744D01*
Y159532D01*
X323337Y158344D01*
X323800Y157224D01*
X324474Y156216D01*
X325331Y155360D01*
X326338Y154686D01*
X327458Y154223D01*
X328646Y153986D01*
X329858D01*
X331046Y154223D01*
X332166Y154686D01*
X333173Y155360D01*
X334030Y156216D01*
X334703Y157224D01*
X335167Y158344D01*
X335403Y159532D01*
Y160744D01*
X335167Y161932D01*
X334703Y163052D01*
X334030Y164059D01*
X333173Y164916D01*
X332166Y165589D01*
X331046Y166053D01*
X329858Y166289D01*
D02*
G37*
G36*
X59592Y163944D02*
X58322D01*
X57076Y163696D01*
X55903Y163210D01*
X54847Y162504D01*
X53949Y161606D01*
X53244Y160550D01*
X52758Y159377D01*
X52510Y158132D01*
Y156862D01*
X52758Y155616D01*
X53244Y154443D01*
X53949Y153387D01*
X54847Y152489D01*
X55903Y151784D01*
X57076Y151298D01*
X58322Y151050D01*
X59592D01*
X60837Y151298D01*
X62010Y151784D01*
X63066Y152489D01*
X63964Y153387D01*
X64670Y154443D01*
X65156Y155616D01*
X65403Y156862D01*
Y158132D01*
X65156Y159377D01*
X64670Y160550D01*
X63964Y161606D01*
X63066Y162504D01*
X62010Y163210D01*
X60837Y163696D01*
X59592Y163944D01*
D02*
G37*
G36*
X37938D02*
X36668D01*
X35423Y163696D01*
X34249Y163210D01*
X33193Y162504D01*
X32296Y161606D01*
X31590Y160550D01*
X31104Y159377D01*
X30856Y158132D01*
Y156862D01*
X31104Y155616D01*
X31590Y154443D01*
X32296Y153387D01*
X33193Y152489D01*
X34249Y151784D01*
X35423Y151298D01*
X36668Y151050D01*
X37938D01*
X39184Y151298D01*
X40357Y151784D01*
X41413Y152489D01*
X42311Y153387D01*
X43016Y154443D01*
X43502Y155616D01*
X43750Y156862D01*
Y158132D01*
X43502Y159377D01*
X43016Y160550D01*
X42311Y161606D01*
X41413Y162504D01*
X40357Y163210D01*
X39184Y163696D01*
X37938Y163944D01*
D02*
G37*
G36*
X9251Y164485D02*
X7875D01*
X6525Y164216D01*
X5253Y163689D01*
X4108Y162925D01*
X3135Y161951D01*
X2370Y160807D01*
X1843Y159535D01*
X1575Y158185D01*
Y156808D01*
X1843Y155458D01*
X2370Y154186D01*
X3135Y153042D01*
X4108Y152069D01*
X5253Y151304D01*
X6525Y150777D01*
X7875Y150508D01*
X9251D01*
X10601Y150777D01*
X11873Y151304D01*
X13018Y152069D01*
X13991Y153042D01*
X14756Y154186D01*
X15283Y155458D01*
X15551Y156808D01*
Y158185D01*
X15283Y159535D01*
X14756Y160807D01*
X13991Y161951D01*
X13018Y162925D01*
X11873Y163689D01*
X10601Y164216D01*
X9251Y164485D01*
D02*
G37*
G36*
X270812Y146805D02*
X269873D01*
X269004Y146446D01*
X268340Y145781D01*
X267980Y144913D01*
Y143973D01*
X268340Y143105D01*
X269004Y142440D01*
X269873Y142081D01*
X270812D01*
X271681Y142440D01*
X272345Y143105D01*
X272705Y143973D01*
Y144913D01*
X272345Y145781D01*
X271681Y146446D01*
X270812Y146805D01*
D02*
G37*
G36*
X127211Y150083D02*
X125863D01*
X124562Y149734D01*
X123394Y149060D01*
X122441Y148107D01*
X121768Y146940D01*
X121419Y145638D01*
Y144291D01*
X121768Y142989D01*
X122441Y141822D01*
X123394Y140869D01*
X124562Y140195D01*
X125863Y139847D01*
X127211D01*
X128513Y140195D01*
X129680Y140869D01*
X130632Y141822D01*
X131306Y142989D01*
X131655Y144291D01*
Y145638D01*
X131306Y146940D01*
X130632Y148107D01*
X129680Y149060D01*
X128513Y149734D01*
X127211Y150083D01*
D02*
G37*
G36*
X105557D02*
X104210D01*
X102908Y149734D01*
X101741Y149060D01*
X100788Y148107D01*
X100114Y146940D01*
X99765Y145638D01*
Y144291D01*
X100114Y142989D01*
X100788Y141822D01*
X101741Y140869D01*
X102908Y140195D01*
X104210Y139847D01*
X105557D01*
X106859Y140195D01*
X108026Y140869D01*
X108979Y141822D01*
X109653Y142989D01*
X110002Y144291D01*
Y145638D01*
X109653Y146940D01*
X108979Y148107D01*
X108026Y149060D01*
X106859Y149734D01*
X105557Y150083D01*
D02*
G37*
G36*
X294150Y141150D02*
X287850D01*
Y134850D01*
X294150D01*
Y141150D01*
D02*
G37*
G36*
X59592Y147408D02*
X58322D01*
X57076Y147160D01*
X55903Y146674D01*
X54847Y145969D01*
X53949Y145071D01*
X53244Y144015D01*
X52758Y142842D01*
X52510Y141596D01*
Y140326D01*
X52758Y139081D01*
X53244Y137908D01*
X53949Y136852D01*
X54847Y135954D01*
X55903Y135248D01*
X57076Y134762D01*
X58322Y134514D01*
X59592D01*
X60837Y134762D01*
X62010Y135248D01*
X63066Y135954D01*
X63964Y136852D01*
X64670Y137908D01*
X65156Y139081D01*
X65403Y140326D01*
Y141596D01*
X65156Y142842D01*
X64670Y144015D01*
X63964Y145071D01*
X63066Y145969D01*
X62010Y146674D01*
X60837Y147160D01*
X59592Y147408D01*
D02*
G37*
G36*
X37938D02*
X36668D01*
X35423Y147160D01*
X34249Y146674D01*
X33193Y145969D01*
X32296Y145071D01*
X31590Y144015D01*
X31104Y142842D01*
X30856Y141596D01*
Y140326D01*
X31104Y139081D01*
X31590Y137908D01*
X32296Y136852D01*
X33193Y135954D01*
X34249Y135248D01*
X35423Y134762D01*
X36668Y134514D01*
X37938D01*
X39184Y134762D01*
X40357Y135248D01*
X41413Y135954D01*
X42311Y136852D01*
X43016Y137908D01*
X43502Y139081D01*
X43750Y140326D01*
Y141596D01*
X43502Y142842D01*
X43016Y144015D01*
X42311Y145071D01*
X41413Y145969D01*
X40357Y146674D01*
X39184Y147160D01*
X37938Y147408D01*
D02*
G37*
G36*
X127211Y133547D02*
X125863D01*
X124562Y133198D01*
X123394Y132525D01*
X122441Y131572D01*
X121768Y130405D01*
X121419Y129103D01*
Y127755D01*
X121768Y126454D01*
X122441Y125287D01*
X123394Y124334D01*
X124562Y123660D01*
X125863Y123311D01*
X127211D01*
X128513Y123660D01*
X129680Y124334D01*
X130632Y125287D01*
X131306Y126454D01*
X131655Y127755D01*
Y129103D01*
X131306Y130405D01*
X130632Y131572D01*
X129680Y132525D01*
X128513Y133198D01*
X127211Y133547D01*
D02*
G37*
G36*
X105557D02*
X104210D01*
X102908Y133198D01*
X101741Y132525D01*
X100788Y131572D01*
X100114Y130405D01*
X99765Y129103D01*
Y127755D01*
X100114Y126454D01*
X100788Y125287D01*
X101741Y124334D01*
X102908Y123660D01*
X104210Y123311D01*
X105557D01*
X106859Y123660D01*
X108026Y124334D01*
X108979Y125287D01*
X109653Y126454D01*
X110002Y127755D01*
Y129103D01*
X109653Y130405D01*
X108979Y131572D01*
X108026Y132525D01*
X106859Y133198D01*
X105557Y133547D01*
D02*
G37*
G36*
X59592Y130873D02*
X58322D01*
X57076Y130625D01*
X55903Y130139D01*
X54847Y129433D01*
X53949Y128535D01*
X53244Y127480D01*
X52758Y126306D01*
X52510Y125061D01*
Y123791D01*
X52758Y122545D01*
X53244Y121372D01*
X53949Y120316D01*
X54847Y119418D01*
X55903Y118713D01*
X57076Y118227D01*
X58322Y117979D01*
X59592D01*
X60837Y118227D01*
X62010Y118713D01*
X63066Y119418D01*
X63964Y120316D01*
X64670Y121372D01*
X65156Y122545D01*
X65403Y123791D01*
Y125061D01*
X65156Y126306D01*
X64670Y127480D01*
X63964Y128535D01*
X63066Y129433D01*
X62010Y130139D01*
X60837Y130625D01*
X59592Y130873D01*
D02*
G37*
G36*
X37938D02*
X36668D01*
X35423Y130625D01*
X34249Y130139D01*
X33193Y129433D01*
X32296Y128535D01*
X31590Y127480D01*
X31104Y126306D01*
X30856Y125061D01*
Y123791D01*
X31104Y122545D01*
X31590Y121372D01*
X32296Y120316D01*
X33193Y119418D01*
X34249Y118713D01*
X35423Y118227D01*
X36668Y117979D01*
X37938D01*
X39184Y118227D01*
X40357Y118713D01*
X41413Y119418D01*
X42311Y120316D01*
X43016Y121372D01*
X43502Y122545D01*
X43750Y123791D01*
Y125061D01*
X43502Y126306D01*
X43016Y127480D01*
X42311Y128535D01*
X41413Y129433D01*
X40357Y130139D01*
X39184Y130625D01*
X37938Y130873D01*
D02*
G37*
G36*
X127211Y100476D02*
X125863D01*
X124562Y100128D01*
X123394Y99454D01*
X122441Y98501D01*
X121768Y97334D01*
X121419Y96032D01*
Y94684D01*
X121768Y93383D01*
X122441Y92216D01*
X123394Y91263D01*
X124562Y90589D01*
X125863Y90240D01*
X127211D01*
X128513Y90589D01*
X129680Y91263D01*
X130632Y92216D01*
X131306Y93383D01*
X131655Y94684D01*
Y96032D01*
X131306Y97334D01*
X130632Y98501D01*
X129680Y99454D01*
X128513Y100128D01*
X127211Y100476D01*
D02*
G37*
G36*
X105557D02*
X104210D01*
X102908Y100128D01*
X101741Y99454D01*
X100788Y98501D01*
X100114Y97334D01*
X99765Y96032D01*
Y94684D01*
X100114Y93383D01*
X100788Y92216D01*
X101741Y91263D01*
X102908Y90589D01*
X104210Y90240D01*
X105557D01*
X106859Y90589D01*
X108026Y91263D01*
X108979Y92216D01*
X109653Y93383D01*
X110002Y94684D01*
Y96032D01*
X109653Y97334D01*
X108979Y98501D01*
X108026Y99454D01*
X106859Y100128D01*
X105557Y100476D01*
D02*
G37*
G36*
X298372Y89870D02*
X297628D01*
X296941Y89585D01*
X296415Y89059D01*
X296130Y88372D01*
Y87628D01*
X296415Y86941D01*
X296941Y86415D01*
X297628Y86130D01*
X298372D01*
X299059Y86415D01*
X299585Y86941D01*
X299870Y87628D01*
Y88372D01*
X299585Y89059D01*
X299059Y89585D01*
X298372Y89870D01*
D02*
G37*
G36*
X59592Y97802D02*
X58322D01*
X57076Y97554D01*
X55903Y97068D01*
X54847Y96363D01*
X53949Y95464D01*
X53244Y94409D01*
X52758Y93235D01*
X52510Y91990D01*
Y90720D01*
X52758Y89474D01*
X53244Y88301D01*
X53949Y87245D01*
X54847Y86347D01*
X55903Y85642D01*
X57076Y85156D01*
X58322Y84908D01*
X59592D01*
X60837Y85156D01*
X62010Y85642D01*
X63066Y86347D01*
X63964Y87245D01*
X64670Y88301D01*
X65156Y89474D01*
X65403Y90720D01*
Y91990D01*
X65156Y93235D01*
X64670Y94409D01*
X63964Y95464D01*
X63066Y96363D01*
X62010Y97068D01*
X60837Y97554D01*
X59592Y97802D01*
D02*
G37*
G36*
X37938D02*
X36668D01*
X35423Y97554D01*
X34249Y97068D01*
X33193Y96363D01*
X32296Y95464D01*
X31590Y94409D01*
X31104Y93235D01*
X30856Y91990D01*
Y90720D01*
X31104Y89474D01*
X31590Y88301D01*
X32296Y87245D01*
X33193Y86347D01*
X34249Y85642D01*
X35423Y85156D01*
X36668Y84908D01*
X37938D01*
X39184Y85156D01*
X40357Y85642D01*
X41413Y86347D01*
X42311Y87245D01*
X43016Y88301D01*
X43502Y89474D01*
X43750Y90720D01*
Y91990D01*
X43502Y93235D01*
X43016Y94409D01*
X42311Y95464D01*
X41413Y96363D01*
X40357Y97068D01*
X39184Y97554D01*
X37938Y97802D01*
D02*
G37*
G36*
X59592Y81266D02*
X58322D01*
X57076Y81019D01*
X55903Y80533D01*
X54847Y79827D01*
X53949Y78929D01*
X53244Y77873D01*
X52758Y76700D01*
X52510Y75454D01*
Y74185D01*
X52758Y72939D01*
X53244Y71766D01*
X53949Y70710D01*
X54847Y69812D01*
X55903Y69106D01*
X57076Y68620D01*
X58322Y68373D01*
X59592D01*
X60837Y68620D01*
X62010Y69106D01*
X63066Y69812D01*
X63964Y70710D01*
X64670Y71766D01*
X65156Y72939D01*
X65403Y74185D01*
Y75454D01*
X65156Y76700D01*
X64670Y77873D01*
X63964Y78929D01*
X63066Y79827D01*
X62010Y80533D01*
X60837Y81019D01*
X59592Y81266D01*
D02*
G37*
G36*
X37938D02*
X36668D01*
X35423Y81019D01*
X34249Y80533D01*
X33193Y79827D01*
X32296Y78929D01*
X31590Y77873D01*
X31104Y76700D01*
X30856Y75454D01*
Y74185D01*
X31104Y72939D01*
X31590Y71766D01*
X32296Y70710D01*
X33193Y69812D01*
X34249Y69106D01*
X35423Y68620D01*
X36668Y68373D01*
X37938D01*
X39184Y68620D01*
X40357Y69106D01*
X41413Y69812D01*
X42311Y70710D01*
X43016Y71766D01*
X43502Y72939D01*
X43750Y74185D01*
Y75454D01*
X43502Y76700D01*
X43016Y77873D01*
X42311Y78929D01*
X41413Y79827D01*
X40357Y80533D01*
X39184Y81019D01*
X37938Y81266D01*
D02*
G37*
G36*
X59592Y64731D02*
X58322D01*
X57076Y64483D01*
X55903Y63997D01*
X54847Y63292D01*
X53949Y62394D01*
X53244Y61338D01*
X52758Y60164D01*
X52510Y58919D01*
Y57649D01*
X52758Y56404D01*
X53244Y55230D01*
X53949Y54174D01*
X54847Y53276D01*
X55903Y52571D01*
X57076Y52085D01*
X58322Y51837D01*
X59592D01*
X60837Y52085D01*
X62010Y52571D01*
X63066Y53276D01*
X63964Y54174D01*
X64670Y55230D01*
X65156Y56404D01*
X65403Y57649D01*
Y58919D01*
X65156Y60164D01*
X64670Y61338D01*
X63964Y62394D01*
X63066Y63292D01*
X62010Y63997D01*
X60837Y64483D01*
X59592Y64731D01*
D02*
G37*
G36*
X37938D02*
X36668D01*
X35423Y64483D01*
X34249Y63997D01*
X33193Y63292D01*
X32296Y62394D01*
X31590Y61338D01*
X31104Y60164D01*
X30856Y58919D01*
Y57649D01*
X31104Y56404D01*
X31590Y55230D01*
X32296Y54174D01*
X33193Y53276D01*
X34249Y52571D01*
X35423Y52085D01*
X36668Y51837D01*
X37938D01*
X39184Y52085D01*
X40357Y52571D01*
X41413Y53276D01*
X42311Y54174D01*
X43016Y55230D01*
X43502Y56404D01*
X43750Y57649D01*
Y58919D01*
X43502Y60164D01*
X43016Y61338D01*
X42311Y62394D01*
X41413Y63292D01*
X40357Y63997D01*
X39184Y64483D01*
X37938Y64731D01*
D02*
G37*
G36*
X359723Y52272D02*
X358862D01*
X358066Y51942D01*
X357457Y51333D01*
X357127Y50537D01*
Y49676D01*
X357457Y48880D01*
X358066Y48271D01*
X358862Y47941D01*
X359723D01*
X360519Y48271D01*
X361128Y48880D01*
X361458Y49676D01*
Y50537D01*
X361128Y51333D01*
X360519Y51942D01*
X359723Y52272D01*
D02*
G37*
G36*
X59592Y48195D02*
X58322D01*
X57076Y47948D01*
X55903Y47462D01*
X54847Y46756D01*
X53949Y45858D01*
X53244Y44802D01*
X52758Y43629D01*
X52510Y42384D01*
Y41114D01*
X52758Y39868D01*
X53244Y38695D01*
X53949Y37639D01*
X54847Y36741D01*
X55903Y36035D01*
X57076Y35550D01*
X58322Y35302D01*
X59592D01*
X60837Y35550D01*
X62010Y36035D01*
X63066Y36741D01*
X63964Y37639D01*
X64670Y38695D01*
X65156Y39868D01*
X65403Y41114D01*
Y42384D01*
X65156Y43629D01*
X64670Y44802D01*
X63964Y45858D01*
X63066Y46756D01*
X62010Y47462D01*
X60837Y47948D01*
X59592Y48195D01*
D02*
G37*
G36*
X37938D02*
X36668D01*
X35423Y47948D01*
X34249Y47462D01*
X33193Y46756D01*
X32296Y45858D01*
X31590Y44802D01*
X31104Y43629D01*
X30856Y42384D01*
Y41114D01*
X31104Y39868D01*
X31590Y38695D01*
X32296Y37639D01*
X33193Y36741D01*
X34249Y36035D01*
X35423Y35550D01*
X36668Y35302D01*
X37938D01*
X39184Y35550D01*
X40357Y36035D01*
X41413Y36741D01*
X42311Y37639D01*
X43016Y38695D01*
X43502Y39868D01*
X43750Y41114D01*
Y42384D01*
X43502Y43629D01*
X43016Y44802D01*
X42311Y45858D01*
X41413Y46756D01*
X40357Y47462D01*
X39184Y47948D01*
X37938Y48195D01*
D02*
G37*
G36*
X9251Y48737D02*
X7875D01*
X6525Y48468D01*
X5253Y47941D01*
X4108Y47177D01*
X3135Y46203D01*
X2370Y45059D01*
X1843Y43787D01*
X1575Y42437D01*
Y41060D01*
X1843Y39710D01*
X2370Y38438D01*
X3135Y37294D01*
X4108Y36320D01*
X5253Y35556D01*
X6525Y35029D01*
X7875Y34760D01*
X9251D01*
X10601Y35029D01*
X11873Y35556D01*
X13018Y36320D01*
X13991Y37294D01*
X14756Y38438D01*
X15283Y39710D01*
X15551Y41060D01*
Y42437D01*
X15283Y43787D01*
X14756Y45059D01*
X13991Y46203D01*
X13018Y47177D01*
X11873Y47941D01*
X10601Y48468D01*
X9251Y48737D01*
D02*
G37*
G36*
X253229Y44766D02*
X251842D01*
X250503Y44407D01*
X249302Y43714D01*
X248322Y42733D01*
X247628Y41532D01*
X247270Y40193D01*
Y38807D01*
X247628Y37468D01*
X248322Y36267D01*
X249302Y35286D01*
X250503Y34593D01*
X251842Y34234D01*
X253229D01*
X254568Y34593D01*
X255769Y35286D01*
X256749Y36267D01*
X257442Y37468D01*
X257801Y38807D01*
Y40193D01*
X257442Y41532D01*
X256749Y42733D01*
X255769Y43714D01*
X254568Y44407D01*
X253229Y44766D01*
D02*
G37*
G36*
X236693D02*
X235307D01*
X233967Y44407D01*
X232767Y43714D01*
X231786Y42733D01*
X231093Y41532D01*
X230734Y40193D01*
Y38807D01*
X231093Y37468D01*
X231786Y36267D01*
X232767Y35286D01*
X233967Y34593D01*
X235307Y34234D01*
X236693D01*
X238033Y34593D01*
X239233Y35286D01*
X240214Y36267D01*
X240907Y37468D01*
X241266Y38807D01*
Y40193D01*
X240907Y41532D01*
X240214Y42733D01*
X239233Y43714D01*
X238033Y44407D01*
X236693Y44766D01*
D02*
G37*
G36*
X203729Y44419D02*
X202342D01*
X201003Y44060D01*
X199802Y43367D01*
X198822Y42387D01*
X198128Y41186D01*
X197770Y39847D01*
Y38460D01*
X198128Y37121D01*
X198822Y35920D01*
X199802Y34940D01*
X201003Y34247D01*
X202342Y33888D01*
X203729D01*
X205068Y34247D01*
X206269Y34940D01*
X207249Y35920D01*
X207942Y37121D01*
X208301Y38460D01*
Y39847D01*
X207942Y41186D01*
X207249Y42387D01*
X206269Y43367D01*
X205068Y44060D01*
X203729Y44419D01*
D02*
G37*
G36*
X187193D02*
X185807D01*
X184467Y44060D01*
X183267Y43367D01*
X182286Y42387D01*
X181593Y41186D01*
X181234Y39847D01*
Y38460D01*
X181593Y37121D01*
X182286Y35920D01*
X183267Y34940D01*
X184467Y34247D01*
X185807Y33888D01*
X187193D01*
X188532Y34247D01*
X189733Y34940D01*
X190714Y35920D01*
X191407Y37121D01*
X191766Y38460D01*
Y39847D01*
X191407Y41186D01*
X190714Y42387D01*
X189733Y43367D01*
X188532Y44060D01*
X187193Y44419D01*
D02*
G37*
G36*
X156193Y43919D02*
X154807D01*
X153468Y43560D01*
X152267Y42867D01*
X151286Y41887D01*
X150593Y40686D01*
X150234Y39347D01*
Y37960D01*
X150593Y36621D01*
X151286Y35420D01*
X152267Y34440D01*
X153468Y33747D01*
X154807Y33388D01*
X156193D01*
X157533Y33747D01*
X158733Y34440D01*
X159714Y35420D01*
X160407Y36621D01*
X160766Y37960D01*
Y39347D01*
X160407Y40686D01*
X159714Y41887D01*
X158733Y42867D01*
X157533Y43560D01*
X156193Y43919D01*
D02*
G37*
G36*
X139658D02*
X138271D01*
X136932Y43560D01*
X135731Y42867D01*
X134751Y41887D01*
X134058Y40686D01*
X133699Y39347D01*
Y37960D01*
X134058Y36621D01*
X134751Y35420D01*
X135731Y34440D01*
X136932Y33747D01*
X138271Y33388D01*
X139658D01*
X140997Y33747D01*
X142198Y34440D01*
X143178Y35420D01*
X143871Y36621D01*
X144230Y37960D01*
Y39347D01*
X143871Y40686D01*
X143178Y41887D01*
X142198Y42867D01*
X140997Y43560D01*
X139658Y43919D01*
D02*
G37*
G36*
X108729D02*
X107342D01*
X106003Y43560D01*
X104802Y42867D01*
X103822Y41887D01*
X103129Y40686D01*
X102770Y39347D01*
Y37960D01*
X103129Y36621D01*
X103822Y35420D01*
X104802Y34440D01*
X106003Y33747D01*
X107342Y33388D01*
X108729D01*
X110068Y33747D01*
X111269Y34440D01*
X112249Y35420D01*
X112942Y36621D01*
X113301Y37960D01*
Y39347D01*
X112942Y40686D01*
X112249Y41887D01*
X111269Y42867D01*
X110068Y43560D01*
X108729Y43919D01*
D02*
G37*
G36*
X92193D02*
X90807D01*
X89468Y43560D01*
X88267Y42867D01*
X87286Y41887D01*
X86593Y40686D01*
X86234Y39347D01*
Y37960D01*
X86593Y36621D01*
X87286Y35420D01*
X88267Y34440D01*
X89468Y33747D01*
X90807Y33388D01*
X92193D01*
X93533Y33747D01*
X94733Y34440D01*
X95714Y35420D01*
X96407Y36621D01*
X96766Y37960D01*
Y39347D01*
X96407Y40686D01*
X95714Y41887D01*
X94733Y42867D01*
X93533Y43560D01*
X92193Y43919D01*
D02*
G37*
G36*
X320692Y43831D02*
X319316D01*
X317966Y43562D01*
X316694Y43035D01*
X315549Y42271D01*
X314576Y41297D01*
X313811Y40153D01*
X313284Y38881D01*
X313016Y37531D01*
Y36154D01*
X313284Y34804D01*
X313811Y33532D01*
X314576Y32388D01*
X315549Y31414D01*
X316694Y30650D01*
X317966Y30123D01*
X319316Y29854D01*
X320692D01*
X322042Y30123D01*
X323314Y30650D01*
X324459Y31414D01*
X325432Y32388D01*
X326197Y33532D01*
X326724Y34804D01*
X326992Y36154D01*
Y37531D01*
X326724Y38881D01*
X326197Y40153D01*
X325432Y41297D01*
X324459Y42271D01*
X323314Y43035D01*
X322042Y43562D01*
X320692Y43831D01*
D02*
G37*
G36*
X283684D02*
X282308D01*
X280958Y43562D01*
X279686Y43035D01*
X278541Y42271D01*
X277568Y41297D01*
X276803Y40153D01*
X276276Y38881D01*
X276008Y37531D01*
Y36154D01*
X276276Y34804D01*
X276803Y33532D01*
X277568Y32388D01*
X278541Y31414D01*
X279686Y30650D01*
X280958Y30123D01*
X282308Y29854D01*
X283684D01*
X285034Y30123D01*
X286306Y30650D01*
X287451Y31414D01*
X288424Y32388D01*
X289189Y33532D01*
X289716Y34804D01*
X289984Y36154D01*
Y37531D01*
X289716Y38881D01*
X289189Y40153D01*
X288424Y41297D01*
X287451Y42271D01*
X286306Y43035D01*
X285034Y43562D01*
X283684Y43831D01*
D02*
G37*
G36*
X342650Y20150D02*
X336350D01*
Y13850D01*
X342650D01*
Y20150D01*
D02*
G37*
G36*
X257801Y23112D02*
X247270D01*
Y12581D01*
X257801D01*
Y23112D01*
D02*
G37*
G36*
X208301Y22766D02*
X197770D01*
Y12234D01*
X208301D01*
Y22766D01*
D02*
G37*
G36*
X302193Y22266D02*
X300807D01*
X299467Y21907D01*
X298267Y21214D01*
X297286Y20233D01*
X296593Y19033D01*
X296234Y17693D01*
Y16307D01*
X296593Y14967D01*
X297286Y13767D01*
X298267Y12786D01*
X299467Y12093D01*
X300807Y11734D01*
X302193D01*
X303533Y12093D01*
X304733Y12786D01*
X305714Y13767D01*
X306407Y14967D01*
X306766Y16307D01*
Y17693D01*
X306407Y19033D01*
X305714Y20233D01*
X304733Y21214D01*
X303533Y21907D01*
X302193Y22266D01*
D02*
G37*
G36*
X160766D02*
X150234D01*
Y11734D01*
X160766D01*
Y22266D01*
D02*
G37*
G36*
X113301D02*
X102770D01*
Y11734D01*
X113301D01*
Y22266D01*
D02*
G37*
%LPD*%
D10*
X294807Y45937D02*
Y50937D01*
X308193D01*
Y45937D02*
Y50937D01*
X294807Y45937D02*
X308193D01*
X290870Y8142D02*
Y45937D01*
Y8142D02*
X312130D01*
Y45937D01*
X290870D02*
X312130D01*
X371826Y40115D02*
Y70036D01*
X391708D01*
Y40115D02*
Y70036D01*
X371826Y40115D02*
X391708D01*
X33516Y188193D02*
Y308665D01*
X-16878Y188193D02*
X33516D01*
X-16878D02*
Y308665D01*
X33516D01*
X313504Y126673D02*
Y303839D01*
X383583D01*
Y126673D02*
Y303839D01*
X313504Y126673D02*
X383583D01*
Y95571D02*
Y126673D01*
Y95571D02*
X391457D01*
Y334941D01*
X383583D02*
X391457D01*
X383583Y303839D02*
Y334941D01*
X391457Y129823D02*
X467441D01*
Y300689D01*
X391457D02*
X467441D01*
X96025Y172130D02*
X133820D01*
Y84728D02*
Y172130D01*
X96025Y84728D02*
X133820D01*
X96025D02*
Y172130D01*
X-17421Y168127D02*
X32972D01*
X-17421Y31119D02*
Y168127D01*
Y31119D02*
X32972D01*
Y168127D01*
X37063Y353000D02*
X44937D01*
X41000Y349063D02*
Y356937D01*
D11*
X57445Y13130D02*
Y16870D01*
X50555Y13130D02*
Y16870D01*
Y13130D02*
X57445D01*
X50555Y16870D02*
X57445D01*
X215555Y59630D02*
Y63370D01*
X222445Y59630D02*
Y63370D01*
X215555D02*
X222445D01*
X215555Y59630D02*
X222445D01*
X263165Y8004D02*
Y46587D01*
X223795D02*
X263165D01*
X223795Y8004D02*
Y46587D01*
Y8004D02*
X263165D01*
X213665Y7658D02*
Y46240D01*
X174295D02*
X213665D01*
X174295Y7658D02*
Y46240D01*
Y7658D02*
X213665D01*
X166130Y7158D02*
Y45740D01*
X126760D02*
X166130D01*
X126760Y7158D02*
Y45740D01*
Y7158D02*
X166130D01*
X118665D02*
Y45740D01*
X79295D02*
X118665D01*
X79295Y7158D02*
Y45740D01*
Y7158D02*
X118665D01*
X290158Y292669D02*
Y301331D01*
X284842Y292669D02*
Y301331D01*
X290158D01*
X284842Y292669D02*
X290158D01*
X236500Y277000D02*
Y287000D01*
X246500D01*
Y277000D02*
Y287000D01*
X236500Y277000D02*
X246500D01*
X286000Y133000D02*
Y143000D01*
X296000D01*
Y133000D02*
Y143000D01*
X286000Y133000D02*
X296000D01*
X178000Y211000D02*
Y221000D01*
X188000D01*
Y211000D02*
Y221000D01*
X178000Y211000D02*
X188000D01*
X334500Y12000D02*
Y22000D01*
X344500D01*
Y12000D02*
Y22000D01*
X334500Y12000D02*
X344500D01*
X103000Y304500D02*
Y314500D01*
X113000D01*
Y304500D02*
Y314500D01*
X103000Y304500D02*
X113000D01*
X160000Y97500D02*
Y107500D01*
X170000D01*
Y97500D02*
Y107500D01*
X160000Y97500D02*
X170000D01*
X335000Y33000D02*
Y43000D01*
X345000D01*
Y33000D02*
Y43000D01*
X335000Y33000D02*
X345000D01*
X72335Y350913D02*
Y389496D01*
Y350913D02*
X111705D01*
Y389496D01*
X72335D02*
X111705D01*
X120835Y351260D02*
Y389843D01*
Y351260D02*
X160205D01*
Y389843D01*
X120835D02*
X160205D01*
X169335Y351413D02*
Y389996D01*
Y351413D02*
X208705D01*
Y389996D01*
X169335D02*
X208705D01*
X219335Y351413D02*
Y389996D01*
Y351413D02*
X258705D01*
Y389996D01*
X219335D02*
X258705D01*
X269870Y351913D02*
Y390496D01*
Y351913D02*
X309240D01*
Y390496D01*
X269870D02*
X309240D01*
X261445Y205025D02*
X265776Y209355D01*
X287429D01*
Y183371D02*
Y209355D01*
X265776Y183371D02*
X287429D01*
X261445Y187702D02*
X265776Y183371D01*
X261445Y187702D02*
Y205025D01*
X266055Y217370D02*
X272945D01*
X266055Y213630D02*
X272945D01*
X266055D02*
Y217370D01*
X272945Y213630D02*
Y217370D01*
X202378Y152378D02*
X249622D01*
Y199622D01*
X202378D02*
X249622D01*
X202378Y152378D02*
Y199622D01*
X50055Y326425D02*
Y379575D01*
X-4669D02*
X50055D01*
X-4669Y326425D02*
X50055D01*
X-4669D02*
Y379575D01*
X287567Y77055D02*
Y83945D01*
X291307Y77055D02*
Y83945D01*
X287567Y77055D02*
X291307D01*
X287567Y83945D02*
X291307D01*
X299870Y77055D02*
Y83945D01*
X296130Y77055D02*
Y83945D01*
X299870D01*
X296130Y77055D02*
X299870D01*
X253130Y102555D02*
Y109445D01*
X256870Y102555D02*
Y109445D01*
X253130Y102555D02*
X256870D01*
X253130Y109445D02*
X256870D01*
X282693Y121957D02*
Y129043D01*
X269307Y121957D02*
Y129043D01*
Y121957D02*
X282693D01*
X269307Y129043D02*
X282693D01*
Y111457D02*
Y118543D01*
X269307Y111457D02*
Y118543D01*
Y111457D02*
X282693D01*
X269307Y118543D02*
X282693D01*
X262291Y90512D02*
X267291Y85512D01*
X262291D02*
X281583D01*
Y100866D01*
X262291D02*
X281583D01*
X262291Y85512D02*
Y100866D01*
X269555Y138370D02*
X276445D01*
X269555Y134630D02*
X276445D01*
X269555D02*
Y138370D01*
X276445Y134630D02*
Y138370D01*
X301370Y285555D02*
Y292445D01*
X297630Y285555D02*
Y292445D01*
Y285555D02*
X301370D01*
X297630Y292445D02*
X301370D01*
X218055Y283870D02*
X224945D01*
X218055Y280130D02*
X224945D01*
X218055D02*
Y283870D01*
X224945Y280130D02*
Y283870D01*
X195370Y299055D02*
Y305945D01*
X191630Y299055D02*
Y305945D01*
X195370D01*
X191630Y299055D02*
X195370D01*
X187870D02*
Y305945D01*
X184130Y299055D02*
Y305945D01*
X187870D01*
X184130Y299055D02*
X187870D01*
X168055Y311630D02*
X174945D01*
X168055Y315370D02*
X174945D01*
Y311630D02*
Y315370D01*
X168055Y311630D02*
Y315370D01*
X218555Y244870D02*
X225445D01*
X218555Y241130D02*
X225445D01*
X218555D02*
Y244870D01*
X225445Y241130D02*
Y244870D01*
X216146Y269177D02*
X221146Y264177D01*
X201854Y269177D02*
X221146D01*
X201854Y253823D02*
Y269177D01*
Y253823D02*
X221146D01*
Y269177D01*
X220602Y304705D02*
X223161Y307264D01*
Y304705D02*
Y330295D01*
X205839D02*
X223161D01*
X205839Y304705D02*
Y330295D01*
Y304705D02*
X223161D01*
X203055Y283870D02*
X209945D01*
X203055Y280130D02*
X209945D01*
X203055D02*
Y283870D01*
X209945Y280130D02*
Y283870D01*
X162370Y308055D02*
Y314945D01*
X158630Y308055D02*
Y314945D01*
X162370D01*
X158630Y308055D02*
X162370D01*
X148370Y310055D02*
Y316945D01*
X144630Y310055D02*
Y316945D01*
X148370D01*
X144630Y310055D02*
X148370D01*
X262366Y173244D02*
X290358D01*
X262366Y148756D02*
X290358D01*
X262366D02*
Y173244D01*
X290358Y148756D02*
Y173244D01*
X52130Y15000D02*
X55870D01*
X54000Y13130D02*
Y16870D01*
X217130Y61500D02*
X220870D01*
X219000Y59630D02*
Y63370D01*
X285531Y297000D02*
X289469D01*
X287500Y295031D02*
Y298969D01*
X275024Y6173D02*
Y52905D01*
Y6173D02*
X327976D01*
Y52905D01*
X275024D02*
X327976D01*
X361346Y32635D02*
Y77517D01*
X395645D01*
Y32635D02*
Y77517D01*
X361346Y32635D02*
X395645D01*
X68902Y181894D02*
Y312602D01*
X-20815Y181894D02*
X68902D01*
X-20815D02*
Y312602D01*
X68902D01*
X307205Y91634D02*
Y338878D01*
X471378D01*
Y91634D02*
Y338878D01*
X307205Y91634D02*
X471378D01*
X272468Y196363D02*
X276406D01*
X274437Y194395D02*
Y198332D01*
X269500Y213630D02*
Y217370D01*
X267630Y215500D02*
X271370D01*
X89135Y176067D02*
X137758D01*
X89135Y80791D02*
Y176067D01*
Y80791D02*
X137758D01*
Y176067D01*
X-21358Y172064D02*
X68358D01*
X-21358Y27182D02*
Y172064D01*
Y27182D02*
X68358D01*
Y172064D01*
X287567Y80500D02*
X291307D01*
X289437Y78630D02*
Y82370D01*
X296130Y80500D02*
X299870D01*
X298000Y78630D02*
Y82370D01*
X253130Y106000D02*
X256870D01*
X255000Y104130D02*
Y107870D01*
X274031Y125500D02*
X277969D01*
X276000Y123531D02*
Y127469D01*
X274031Y115000D02*
X277969D01*
X276000Y113031D02*
Y116969D01*
X273000Y134630D02*
Y138370D01*
X271130Y136500D02*
X274870D01*
X297630Y289000D02*
X301370D01*
X299500Y287130D02*
Y290870D01*
X221500Y280130D02*
Y283870D01*
X219630Y282000D02*
X223370D01*
X191630Y302500D02*
X195370D01*
X193500Y300630D02*
Y304370D01*
X184130Y302500D02*
X187870D01*
X186000Y300630D02*
Y304370D01*
X171500Y311630D02*
Y315370D01*
X169630Y313500D02*
X173370D01*
X222000Y241130D02*
Y244870D01*
X220130Y243000D02*
X223870D01*
X206500Y280130D02*
Y283870D01*
X204630Y282000D02*
X208370D01*
X158630Y311500D02*
X162370D01*
X160500Y309630D02*
Y313370D01*
X144630Y313500D02*
X148370D01*
X146500Y311630D02*
Y315370D01*
X276362Y159031D02*
Y162969D01*
X274394Y161000D02*
X278331D01*
D14*
X264249D02*
D03*
D15*
X59315Y12047D02*
Y17953D01*
X48685Y12047D02*
Y17953D01*
Y12047D02*
X59315D01*
X48685Y17953D02*
X59315D01*
X213685Y58547D02*
Y64453D01*
X224315Y58547D02*
Y64453D01*
X213685D02*
X224315D01*
X213685Y58547D02*
X224315D01*
X264150Y7020D02*
Y47571D01*
X222811D02*
X264150D01*
X222811Y7020D02*
Y47571D01*
Y7020D02*
X264150D01*
X214650Y6673D02*
Y47224D01*
X173311D02*
X214650D01*
X173311Y6673D02*
Y47224D01*
Y6673D02*
X214650D01*
X167114Y6173D02*
Y46724D01*
X125776D02*
X167114D01*
X125776Y6173D02*
Y46724D01*
Y6173D02*
X167114D01*
X119650D02*
Y46724D01*
X78311D02*
X119650D01*
X78311Y6173D02*
Y46724D01*
Y6173D02*
X119650D01*
X291240Y289500D02*
Y304500D01*
X283760Y289500D02*
Y304500D01*
X291240D01*
X283760Y289500D02*
X291240D01*
X235516Y276016D02*
Y287984D01*
X247484D01*
Y276016D02*
Y287984D01*
X235516Y276016D02*
X247484D01*
X285016Y132016D02*
Y143984D01*
X296984D01*
Y132016D02*
Y143984D01*
X285016Y132016D02*
X296984D01*
X177016Y210016D02*
Y221984D01*
X188984D01*
Y210016D02*
Y221984D01*
X177016Y210016D02*
X188984D01*
X333516Y11016D02*
Y22984D01*
X345484D01*
Y11016D02*
Y22984D01*
X333516Y11016D02*
X345484D01*
X102016Y303516D02*
Y315484D01*
X113984D01*
Y303516D02*
Y315484D01*
X102016Y303516D02*
X113984D01*
X159016Y96516D02*
Y108484D01*
X170984D01*
Y96516D02*
Y108484D01*
X159016Y96516D02*
X170984D01*
X334016Y32016D02*
Y43984D01*
X345984D01*
Y32016D02*
Y43984D01*
X334016Y32016D02*
X345984D01*
X71350Y349929D02*
Y390480D01*
Y349929D02*
X112689D01*
Y390480D01*
X71350D02*
X112689D01*
X119850Y350276D02*
Y390827D01*
Y350276D02*
X161189D01*
Y390827D01*
X119850D02*
X161189D01*
X168350Y350429D02*
Y390980D01*
Y350429D02*
X209689D01*
Y390980D01*
X168350D02*
X209689D01*
X218350Y350429D02*
Y390980D01*
Y350429D02*
X259689D01*
Y390980D01*
X218350D02*
X259689D01*
X268886Y350929D02*
Y391480D01*
Y350929D02*
X310224D01*
Y391480D01*
X268886D02*
X310224D01*
X257508Y182190D02*
Y210537D01*
X291366Y182190D02*
Y210537D01*
X257508D02*
X291366D01*
X257508Y182190D02*
X291366D01*
X264185Y218453D02*
X274815D01*
X264185Y212547D02*
X274815D01*
X264185D02*
Y218453D01*
X274815Y212547D02*
Y218453D01*
X200803Y148736D02*
X251197D01*
Y203264D01*
X200803D02*
X251197D01*
X200803Y148736D02*
Y203264D01*
X-5457Y319535D02*
Y386465D01*
X57535D02*
X57535Y319535D01*
X-5457D02*
X57535D01*
X-5457Y386465D02*
X57535D01*
X286484Y75185D02*
Y85815D01*
X292390Y75185D02*
Y85815D01*
X286484Y75185D02*
X292390D01*
X286484Y85815D02*
X292390D01*
X300953Y75185D02*
Y85815D01*
X295047Y75185D02*
Y85815D01*
X300953D01*
X295047Y75185D02*
X300953D01*
X252047Y100685D02*
Y111315D01*
X257953Y100685D02*
Y111315D01*
X252047Y100685D02*
X257953D01*
X252047Y111315D02*
X257953D01*
X285252Y120972D02*
Y130028D01*
X266748Y120972D02*
Y130028D01*
Y120972D02*
X285252D01*
X266748Y130028D02*
X285252D01*
Y110472D02*
Y119528D01*
X266748Y110472D02*
Y119528D01*
Y110472D02*
X285252D01*
X266748Y119528D02*
X285252D01*
X261110Y78524D02*
X282764D01*
Y107854D01*
X261110D02*
X282764D01*
X261110Y78524D02*
Y107854D01*
X267685Y139453D02*
X278315D01*
X267685Y133547D02*
X278315D01*
X267685D02*
Y139453D01*
X278315Y133547D02*
Y139453D01*
X302453Y283685D02*
Y294315D01*
X296547Y283685D02*
Y294315D01*
Y283685D02*
X302453D01*
X296547Y294315D02*
X302453D01*
X216185Y284953D02*
X226815D01*
X216185Y279047D02*
X226815D01*
X216185D02*
Y284953D01*
X226815Y279047D02*
Y284953D01*
X196453Y297185D02*
Y307815D01*
X190547Y297185D02*
Y307815D01*
X196453D01*
X190547Y297185D02*
X196453D01*
X188953D02*
Y307815D01*
X183047Y297185D02*
Y307815D01*
X188953D01*
X183047Y297185D02*
X188953D01*
X166185Y310547D02*
X176815D01*
X166185Y316453D02*
X176815D01*
Y310547D02*
Y316453D01*
X166185Y310547D02*
Y316453D01*
X216685Y245953D02*
X227315D01*
X216685Y240047D02*
X227315D01*
X216685D02*
Y245953D01*
X227315Y240047D02*
Y245953D01*
X200870Y276067D02*
X222130D01*
X200870Y246933D02*
Y276067D01*
Y246933D02*
X222130D01*
Y276067D01*
X229953Y303524D02*
Y331476D01*
X199047D02*
X229953D01*
X199047Y303524D02*
Y331476D01*
Y303524D02*
X229953D01*
X201185Y284953D02*
X211815D01*
X201185Y279047D02*
X211815D01*
X201185D02*
Y284953D01*
X211815Y279047D02*
Y284953D01*
X163453Y306185D02*
Y316815D01*
X157547Y306185D02*
Y316815D01*
X163453D01*
X157547Y306185D02*
X163453D01*
X149453Y308185D02*
Y318815D01*
X143547Y308185D02*
Y318815D01*
X149453D01*
X143547Y308185D02*
X149453D01*
X258646Y174386D02*
X294079D01*
X258646Y147614D02*
X294079D01*
X258646D02*
Y174386D01*
X294079Y147614D02*
Y174386D01*
D70*
X236000Y17846D02*
D03*
X186500Y17500D02*
D03*
X138965Y17000D02*
D03*
X91500D02*
D03*
X301500Y38653D02*
D03*
X99500Y379654D02*
D03*
X148000Y380000D02*
D03*
X196500Y380153D02*
D03*
X246500D02*
D03*
X297035Y380654D02*
D03*
D72*
X100500Y203500D02*
D03*
X366142Y15748D02*
D03*
Y377953D02*
D03*
D73*
X108000Y309500D02*
D03*
X165000Y102500D02*
D03*
X340000Y38000D02*
D03*
D75*
X37846Y248429D02*
D03*
X58957Y107890D02*
D03*
X37303D02*
D03*
D76*
X329252Y270374D02*
D03*
X345000Y168012D02*
D03*
Y231004D02*
D03*
X360748Y238878D02*
D03*
Y254626D02*
D03*
Y270374D02*
D03*
D77*
X346969Y134547D02*
D03*
Y295965D02*
D03*
D78*
X126537Y111894D02*
D03*
X104884D02*
D03*
D79*
X41000Y378394D02*
D03*
Y327606D02*
D03*
D80*
X13795Y380165D02*
D03*
Y325835D02*
D03*
M02*
