G04*
G04 #@! TF.GenerationSoftware,Altium Limited,Altium Designer,21.0.9 (235)*
G04*
G04 Layer_Physical_Order=2*
G04 Layer_Color=36540*
%FSLAX25Y25*%
%MOIN*%
G70*
G04*
G04 #@! TF.SameCoordinates,FB9C7817-38CD-48DC-A3D4-53DF82CEFDAB*
G04*
G04*
G04 #@! TF.FilePolarity,Positive*
G04*
G01*
G75*
%ADD10C,0.00787*%
%ADD11C,0.00394*%
%ADD14R,0.03765X0.24488*%
%ADD15C,0.00197*%
%ADD71R,0.08563X0.08563*%
%ADD73R,0.04331X0.04331*%
%ADD78C,0.08268*%
%ADD81C,0.01772*%
%ADD82C,0.02362*%
%ADD83C,0.03150*%
G36*
X314100Y328373D02*
X312127Y326400D01*
X255000D01*
X254364Y326136D01*
X250864Y322636D01*
X250600Y322000D01*
Y266873D01*
X248127Y264400D01*
X168900D01*
Y318500D01*
X168636Y319136D01*
X167636Y320136D01*
X167000Y320400D01*
X113900D01*
Y392197D01*
X314100D01*
Y328373D01*
D02*
G37*
G36*
X385697Y803D02*
X803D01*
Y392197D01*
X112100D01*
Y319500D01*
X113000Y318600D01*
X166627D01*
X167100Y318127D01*
Y263500D01*
X168000Y262600D01*
X248500D01*
X249136Y262864D01*
X252136Y265864D01*
X252400Y266500D01*
Y321627D01*
X255373Y324600D01*
X312500D01*
X313136Y324864D01*
X315636Y327364D01*
X315900Y328000D01*
Y392197D01*
X385697D01*
Y803D01*
D02*
G37*
%LPC*%
G36*
X297035Y385965D02*
X295661Y385784D01*
X294380Y385253D01*
X293280Y384409D01*
X292436Y383309D01*
X291905Y382028D01*
X291724Y380654D01*
X291905Y379279D01*
X292436Y377998D01*
X293280Y376898D01*
X294380Y376054D01*
X295661Y375523D01*
X297035Y375342D01*
X298410Y375523D01*
X299691Y376054D01*
X300791Y376898D01*
X301635Y377998D01*
X302166Y379279D01*
X302347Y380654D01*
X302166Y382028D01*
X301635Y383309D01*
X300791Y384409D01*
X299691Y385253D01*
X298410Y385784D01*
X297035Y385965D01*
D02*
G37*
G36*
X246500Y385465D02*
X245125Y385284D01*
X243844Y384753D01*
X242744Y383909D01*
X241900Y382809D01*
X241370Y381528D01*
X241189Y380153D01*
X241370Y378779D01*
X241900Y377498D01*
X242744Y376398D01*
X243844Y375554D01*
X245125Y375023D01*
X246500Y374842D01*
X247875Y375023D01*
X249156Y375554D01*
X250256Y376398D01*
X251100Y377498D01*
X251630Y378779D01*
X251811Y380153D01*
X251630Y381528D01*
X251100Y382809D01*
X250256Y383909D01*
X249156Y384753D01*
X247875Y385284D01*
X246500Y385465D01*
D02*
G37*
G36*
X196500D02*
X195125Y385284D01*
X193844Y384753D01*
X192744Y383909D01*
X191900Y382809D01*
X191370Y381528D01*
X191189Y380153D01*
X191370Y378779D01*
X191900Y377498D01*
X192744Y376398D01*
X193844Y375554D01*
X195125Y375023D01*
X196500Y374842D01*
X197875Y375023D01*
X199156Y375554D01*
X200256Y376398D01*
X201100Y377498D01*
X201630Y378779D01*
X201811Y380153D01*
X201630Y381528D01*
X201100Y382809D01*
X200256Y383909D01*
X199156Y384753D01*
X197875Y385284D01*
X196500Y385465D01*
D02*
G37*
G36*
X148000Y385311D02*
X146625Y385130D01*
X145344Y384600D01*
X144244Y383756D01*
X143400Y382656D01*
X142870Y381375D01*
X142689Y380000D01*
X142870Y378625D01*
X143400Y377344D01*
X144244Y376244D01*
X145344Y375400D01*
X146625Y374870D01*
X148000Y374689D01*
X149375Y374870D01*
X150656Y375400D01*
X151756Y376244D01*
X152600Y377344D01*
X153130Y378625D01*
X153311Y380000D01*
X153130Y381375D01*
X152600Y382656D01*
X151756Y383756D01*
X150656Y384600D01*
X149375Y385130D01*
X148000Y385311D01*
D02*
G37*
G36*
X297035Y364311D02*
X295661Y364130D01*
X294380Y363600D01*
X293280Y362756D01*
X292436Y361656D01*
X291905Y360375D01*
X291724Y359000D01*
X291905Y357625D01*
X292436Y356344D01*
X293280Y355244D01*
X294380Y354400D01*
X295661Y353870D01*
X297035Y353689D01*
X298410Y353870D01*
X299691Y354400D01*
X300791Y355244D01*
X301635Y356344D01*
X302166Y357625D01*
X302347Y359000D01*
X302166Y360375D01*
X301635Y361656D01*
X300791Y362756D01*
X299691Y363600D01*
X298410Y364130D01*
X297035Y364311D01*
D02*
G37*
G36*
X280500D02*
X279125Y364130D01*
X277844Y363600D01*
X276744Y362756D01*
X275900Y361656D01*
X275370Y360375D01*
X275189Y359000D01*
X275370Y357625D01*
X275900Y356344D01*
X276744Y355244D01*
X277844Y354400D01*
X279125Y353870D01*
X280500Y353689D01*
X281875Y353870D01*
X283156Y354400D01*
X284256Y355244D01*
X285100Y356344D01*
X285630Y357625D01*
X285811Y359000D01*
X285630Y360375D01*
X285100Y361656D01*
X284256Y362756D01*
X283156Y363600D01*
X281875Y364130D01*
X280500Y364311D01*
D02*
G37*
G36*
X246500Y363811D02*
X245125Y363630D01*
X243844Y363100D01*
X242744Y362256D01*
X241900Y361156D01*
X241370Y359875D01*
X241189Y358500D01*
X241370Y357125D01*
X241900Y355844D01*
X242744Y354744D01*
X243844Y353900D01*
X245125Y353370D01*
X246500Y353189D01*
X247875Y353370D01*
X249156Y353900D01*
X250256Y354744D01*
X251100Y355844D01*
X251630Y357125D01*
X251811Y358500D01*
X251630Y359875D01*
X251100Y361156D01*
X250256Y362256D01*
X249156Y363100D01*
X247875Y363630D01*
X246500Y363811D01*
D02*
G37*
G36*
X229965D02*
X228590Y363630D01*
X227309Y363100D01*
X226209Y362256D01*
X225365Y361156D01*
X224834Y359875D01*
X224653Y358500D01*
X224834Y357125D01*
X225365Y355844D01*
X226209Y354744D01*
X227309Y353900D01*
X228590Y353370D01*
X229965Y353189D01*
X231339Y353370D01*
X232620Y353900D01*
X233720Y354744D01*
X234564Y355844D01*
X235095Y357125D01*
X235276Y358500D01*
X235095Y359875D01*
X234564Y361156D01*
X233720Y362256D01*
X232620Y363100D01*
X231339Y363630D01*
X229965Y363811D01*
D02*
G37*
G36*
X196500D02*
X195125Y363630D01*
X193844Y363100D01*
X192744Y362256D01*
X191900Y361156D01*
X191370Y359875D01*
X191189Y358500D01*
X191370Y357125D01*
X191900Y355844D01*
X192744Y354744D01*
X193844Y353900D01*
X195125Y353370D01*
X196500Y353189D01*
X197875Y353370D01*
X199156Y353900D01*
X200256Y354744D01*
X201100Y355844D01*
X201630Y357125D01*
X201811Y358500D01*
X201630Y359875D01*
X201100Y361156D01*
X200256Y362256D01*
X199156Y363100D01*
X197875Y363630D01*
X196500Y363811D01*
D02*
G37*
G36*
X179965D02*
X178590Y363630D01*
X177309Y363100D01*
X176209Y362256D01*
X175365Y361156D01*
X174834Y359875D01*
X174653Y358500D01*
X174834Y357125D01*
X175365Y355844D01*
X176209Y354744D01*
X177309Y353900D01*
X178590Y353370D01*
X179965Y353189D01*
X181339Y353370D01*
X182620Y353900D01*
X183720Y354744D01*
X184564Y355844D01*
X185095Y357125D01*
X185276Y358500D01*
X185095Y359875D01*
X184564Y361156D01*
X183720Y362256D01*
X182620Y363100D01*
X181339Y363630D01*
X179965Y363811D01*
D02*
G37*
G36*
X148000Y363658D02*
X146625Y363477D01*
X145344Y362946D01*
X144244Y362102D01*
X143400Y361002D01*
X142870Y359721D01*
X142689Y358347D01*
X142870Y356972D01*
X143400Y355691D01*
X144244Y354591D01*
X145344Y353747D01*
X146625Y353216D01*
X148000Y353035D01*
X149375Y353216D01*
X150656Y353747D01*
X151756Y354591D01*
X152600Y355691D01*
X153130Y356972D01*
X153311Y358347D01*
X153130Y359721D01*
X152600Y361002D01*
X151756Y362102D01*
X150656Y362946D01*
X149375Y363477D01*
X148000Y363658D01*
D02*
G37*
G36*
X131465D02*
X130090Y363477D01*
X128809Y362946D01*
X127709Y362102D01*
X126865Y361002D01*
X126334Y359721D01*
X126153Y358347D01*
X126334Y356972D01*
X126865Y355691D01*
X127709Y354591D01*
X128809Y353747D01*
X130090Y353216D01*
X131465Y353035D01*
X132839Y353216D01*
X134120Y353747D01*
X135220Y354591D01*
X136064Y355691D01*
X136595Y356972D01*
X136776Y358347D01*
X136595Y359721D01*
X136064Y361002D01*
X135220Y362102D01*
X134120Y362946D01*
X132839Y363477D01*
X131465Y363658D01*
D02*
G37*
G36*
X195969Y312867D02*
X195239Y312722D01*
X194621Y312309D01*
X194207Y311690D01*
X194062Y310961D01*
X194207Y310231D01*
X194621Y309612D01*
X195239Y309199D01*
X195969Y309054D01*
X196698Y309199D01*
X197317Y309612D01*
X197730Y310231D01*
X197876Y310961D01*
X197730Y311690D01*
X197317Y312309D01*
X196698Y312722D01*
X195969Y312867D01*
D02*
G37*
G36*
X99500Y384965D02*
X98125Y384784D01*
X96844Y384253D01*
X95744Y383409D01*
X94900Y382309D01*
X94370Y381028D01*
X94189Y379654D01*
X94370Y378279D01*
X94900Y376998D01*
X95744Y375898D01*
X96844Y375054D01*
X98125Y374523D01*
X99500Y374342D01*
X100875Y374523D01*
X102156Y375054D01*
X103256Y375898D01*
X104100Y376998D01*
X104630Y378279D01*
X104811Y379654D01*
X104630Y381028D01*
X104100Y382309D01*
X103256Y383409D01*
X102156Y384253D01*
X100875Y384784D01*
X99500Y384965D01*
D02*
G37*
G36*
X17732Y386693D02*
X9858D01*
X8585Y386567D01*
X7360Y386196D01*
X6232Y385593D01*
X5243Y384781D01*
X4431Y383792D01*
X3828Y382663D01*
X3456Y381439D01*
X3331Y380165D01*
X3456Y378892D01*
X3828Y377667D01*
X4431Y376539D01*
X5243Y375550D01*
X6232Y374738D01*
X7360Y374135D01*
X8585Y373763D01*
X9858Y373638D01*
X17732D01*
X19006Y373763D01*
X20230Y374135D01*
X21359Y374738D01*
X22348Y375550D01*
X23160Y376539D01*
X23763Y377667D01*
X24134Y378892D01*
X24260Y380165D01*
X24134Y381439D01*
X23763Y382663D01*
X23160Y383792D01*
X22348Y384781D01*
X21359Y385593D01*
X20230Y386196D01*
X19006Y386567D01*
X17732Y386693D01*
D02*
G37*
G36*
X43362Y384921D02*
X38638D01*
X37364Y384796D01*
X36140Y384424D01*
X35011Y383821D01*
X34022Y383009D01*
X33210Y382020D01*
X32607Y380892D01*
X32236Y379667D01*
X32110Y378394D01*
X32236Y377120D01*
X32607Y375896D01*
X33210Y374767D01*
X34022Y373778D01*
X35011Y372966D01*
X36140Y372363D01*
X37364Y371992D01*
X38638Y371866D01*
X43362D01*
X44636Y371992D01*
X45860Y372363D01*
X46989Y372966D01*
X47978Y373778D01*
X48790Y374767D01*
X49393Y375896D01*
X49764Y377120D01*
X49890Y378394D01*
X49764Y379667D01*
X49393Y380892D01*
X48790Y382020D01*
X47978Y383009D01*
X46989Y383821D01*
X45860Y384424D01*
X44636Y384796D01*
X43362Y384921D01*
D02*
G37*
G36*
X366142Y390788D02*
X364134Y390630D01*
X362176Y390159D01*
X360315Y389389D01*
X358598Y388336D01*
X357066Y387028D01*
X355758Y385497D01*
X354706Y383780D01*
X353935Y381919D01*
X353465Y379961D01*
X353307Y377953D01*
X353465Y375945D01*
X353935Y373987D01*
X354706Y372126D01*
X355758Y370409D01*
X357066Y368877D01*
X358598Y367569D01*
X360315Y366517D01*
X362176Y365746D01*
X364134Y365276D01*
X366142Y365118D01*
X368149Y365276D01*
X370108Y365746D01*
X371969Y366517D01*
X373686Y367569D01*
X375217Y368877D01*
X376525Y370409D01*
X377578Y372126D01*
X378348Y373987D01*
X378819Y375945D01*
X378977Y377953D01*
X378819Y379961D01*
X378348Y381919D01*
X377578Y383780D01*
X376525Y385497D01*
X375217Y387028D01*
X373686Y388336D01*
X371969Y389389D01*
X370108Y390159D01*
X368149Y390630D01*
X366142Y390788D01*
D02*
G37*
G36*
X99500Y363311D02*
X98125Y363130D01*
X96844Y362600D01*
X95744Y361756D01*
X94900Y360656D01*
X94370Y359375D01*
X94189Y358000D01*
X94370Y356625D01*
X94900Y355344D01*
X95744Y354244D01*
X96844Y353400D01*
X98125Y352870D01*
X99500Y352689D01*
X100875Y352870D01*
X102156Y353400D01*
X103256Y354244D01*
X104100Y355344D01*
X104630Y356625D01*
X104811Y358000D01*
X104630Y359375D01*
X104100Y360656D01*
X103256Y361756D01*
X102156Y362600D01*
X100875Y363130D01*
X99500Y363311D01*
D02*
G37*
G36*
X82965D02*
X81590Y363130D01*
X80309Y362600D01*
X79209Y361756D01*
X78365Y360656D01*
X77834Y359375D01*
X77653Y358000D01*
X77834Y356625D01*
X78365Y355344D01*
X79209Y354244D01*
X80309Y353400D01*
X81590Y352870D01*
X82965Y352689D01*
X84339Y352870D01*
X85620Y353400D01*
X86720Y354244D01*
X87564Y355344D01*
X88095Y356625D01*
X88276Y358000D01*
X88095Y359375D01*
X87564Y360656D01*
X86720Y361756D01*
X85620Y362600D01*
X84339Y363130D01*
X82965Y363311D01*
D02*
G37*
G36*
X43362Y334134D02*
X38638D01*
X37364Y334008D01*
X36140Y333637D01*
X35011Y333034D01*
X34022Y332222D01*
X33210Y331233D01*
X32607Y330104D01*
X32236Y328880D01*
X32110Y327606D01*
X32236Y326333D01*
X32607Y325108D01*
X33210Y323980D01*
X34022Y322991D01*
X35011Y322179D01*
X36140Y321576D01*
X37364Y321204D01*
X38638Y321079D01*
X43362D01*
X44636Y321204D01*
X45860Y321576D01*
X46989Y322179D01*
X47978Y322991D01*
X48790Y323980D01*
X49393Y325108D01*
X49764Y326333D01*
X49890Y327606D01*
X49764Y328880D01*
X49393Y330104D01*
X48790Y331233D01*
X47978Y332222D01*
X46989Y333034D01*
X45860Y333637D01*
X44636Y334008D01*
X43362Y334134D01*
D02*
G37*
G36*
X17732Y332362D02*
X9858D01*
X8585Y332237D01*
X7360Y331865D01*
X6232Y331262D01*
X5243Y330450D01*
X4431Y329461D01*
X3828Y328333D01*
X3456Y327108D01*
X3331Y325835D01*
X3456Y324561D01*
X3828Y323337D01*
X4431Y322208D01*
X5243Y321219D01*
X6232Y320407D01*
X7360Y319804D01*
X8585Y319433D01*
X9858Y319307D01*
X17732D01*
X19006Y319433D01*
X20230Y319804D01*
X21359Y320407D01*
X22348Y321219D01*
X23160Y322208D01*
X23763Y323337D01*
X24134Y324561D01*
X24260Y325835D01*
X24134Y327108D01*
X23763Y328333D01*
X23160Y329461D01*
X22348Y330450D01*
X21359Y331262D01*
X20230Y331865D01*
X19006Y332237D01*
X17732Y332362D01*
D02*
G37*
G36*
X153061Y312845D02*
X152332Y312700D01*
X151713Y312287D01*
X151300Y311668D01*
X151155Y310939D01*
X151300Y310209D01*
X151713Y309590D01*
X152332Y309177D01*
X153061Y309032D01*
X153791Y309177D01*
X154410Y309590D01*
X154823Y310209D01*
X154968Y310939D01*
X154823Y311668D01*
X154410Y312287D01*
X153791Y312700D01*
X153061Y312845D01*
D02*
G37*
G36*
X111150Y312650D02*
X104850D01*
Y306350D01*
X111150D01*
Y312650D01*
D02*
G37*
G36*
X59500Y304514D02*
X58236Y304389D01*
X57021Y304020D01*
X55901Y303422D01*
X54919Y302616D01*
X54114Y301634D01*
X53515Y300515D01*
X53146Y299299D01*
X53022Y298035D01*
X53146Y296772D01*
X53515Y295556D01*
X54114Y294436D01*
X54919Y293455D01*
X55901Y292649D01*
X57021Y292051D01*
X58236Y291682D01*
X59500Y291557D01*
X60764Y291682D01*
X61979Y292051D01*
X63099Y292649D01*
X64081Y293455D01*
X64886Y294436D01*
X65485Y295556D01*
X65854Y296772D01*
X65978Y298035D01*
X65854Y299299D01*
X65485Y300515D01*
X64886Y301634D01*
X64081Y302616D01*
X63099Y303422D01*
X61979Y304020D01*
X60764Y304389D01*
X59500Y304514D01*
D02*
G37*
G36*
X37846D02*
X36583Y304389D01*
X35367Y304020D01*
X34247Y303422D01*
X33266Y302616D01*
X32460Y301634D01*
X31861Y300515D01*
X31493Y299299D01*
X31368Y298035D01*
X31493Y296772D01*
X31861Y295556D01*
X32460Y294436D01*
X33266Y293455D01*
X34247Y292649D01*
X35367Y292051D01*
X36583Y291682D01*
X37846Y291557D01*
X39110Y291682D01*
X40325Y292051D01*
X41445Y292649D01*
X42427Y293455D01*
X43233Y294436D01*
X43831Y295556D01*
X44200Y296772D01*
X44324Y298035D01*
X44200Y299299D01*
X43831Y300515D01*
X43233Y301634D01*
X42427Y302616D01*
X41445Y303422D01*
X40325Y304020D01*
X39110Y304389D01*
X37846Y304514D01*
D02*
G37*
G36*
X9106Y305057D02*
X7736Y304923D01*
X6419Y304523D01*
X5205Y303874D01*
X4141Y303001D01*
X3268Y301937D01*
X2619Y300723D01*
X2219Y299405D01*
X2084Y298035D01*
X2219Y296666D01*
X2619Y295348D01*
X3268Y294134D01*
X4141Y293070D01*
X5205Y292197D01*
X6419Y291548D01*
X7736Y291148D01*
X9106Y291013D01*
X10476Y291148D01*
X11794Y291548D01*
X13007Y292197D01*
X14072Y293070D01*
X14945Y294134D01*
X15594Y295348D01*
X15993Y296666D01*
X16128Y298035D01*
X15993Y299405D01*
X15594Y300723D01*
X14945Y301937D01*
X14072Y303001D01*
X13007Y303874D01*
X11794Y304523D01*
X10476Y304923D01*
X9106Y305057D01*
D02*
G37*
G36*
X293000Y293407D02*
X292270Y293262D01*
X291652Y292848D01*
X291238Y292230D01*
X291093Y291500D01*
X291238Y290770D01*
X291652Y290152D01*
X292270Y289738D01*
X293000Y289593D01*
X293730Y289738D01*
X294348Y290152D01*
X294762Y290770D01*
X294907Y291500D01*
X294762Y292230D01*
X294348Y292848D01*
X293730Y293262D01*
X293000Y293407D01*
D02*
G37*
G36*
X346969Y305647D02*
X345080Y305461D01*
X343263Y304910D01*
X341589Y304015D01*
X340122Y302811D01*
X338918Y301344D01*
X338023Y299670D01*
X337472Y297853D01*
X337286Y295965D01*
X337472Y294076D01*
X338023Y292259D01*
X338918Y290585D01*
X340122Y289118D01*
X341589Y287914D01*
X343263Y287019D01*
X345080Y286468D01*
X346969Y286282D01*
X348857Y286468D01*
X350674Y287019D01*
X352348Y287914D01*
X353815Y289118D01*
X355019Y290585D01*
X355914Y292259D01*
X356465Y294076D01*
X356651Y295965D01*
X356465Y297853D01*
X355914Y299670D01*
X355019Y301344D01*
X353815Y302811D01*
X352348Y304015D01*
X350674Y304910D01*
X348857Y305461D01*
X346969Y305647D01*
D02*
G37*
G36*
X59500Y287978D02*
X58236Y287854D01*
X57021Y287485D01*
X55901Y286886D01*
X54919Y286081D01*
X54114Y285099D01*
X53515Y283979D01*
X53146Y282764D01*
X53022Y281500D01*
X53146Y280236D01*
X53515Y279021D01*
X54114Y277901D01*
X54919Y276919D01*
X55901Y276114D01*
X57021Y275515D01*
X58236Y275146D01*
X59500Y275022D01*
X60764Y275146D01*
X61979Y275515D01*
X63099Y276114D01*
X64081Y276919D01*
X64886Y277901D01*
X65485Y279021D01*
X65854Y280236D01*
X65978Y281500D01*
X65854Y282764D01*
X65485Y283979D01*
X64886Y285099D01*
X64081Y286081D01*
X63099Y286886D01*
X61979Y287485D01*
X60764Y287854D01*
X59500Y287978D01*
D02*
G37*
G36*
X37846D02*
X36583Y287854D01*
X35367Y287485D01*
X34247Y286886D01*
X33266Y286081D01*
X32460Y285099D01*
X31861Y283979D01*
X31493Y282764D01*
X31368Y281500D01*
X31493Y280236D01*
X31861Y279021D01*
X32460Y277901D01*
X33266Y276919D01*
X34247Y276114D01*
X35367Y275515D01*
X36583Y275146D01*
X37846Y275022D01*
X39110Y275146D01*
X40325Y275515D01*
X41445Y276114D01*
X42427Y276919D01*
X43233Y277901D01*
X43831Y279021D01*
X44200Y280236D01*
X44324Y281500D01*
X44200Y282764D01*
X43831Y283979D01*
X43233Y285099D01*
X42427Y286081D01*
X41445Y286886D01*
X40325Y287485D01*
X39110Y287854D01*
X37846Y287978D01*
D02*
G37*
G36*
X360748Y276555D02*
X359542Y276437D01*
X358383Y276085D01*
X357314Y275514D01*
X356377Y274745D01*
X355608Y273808D01*
X355037Y272740D01*
X354685Y271580D01*
X354567Y270374D01*
X354685Y269168D01*
X355037Y268008D01*
X355608Y266940D01*
X356377Y266003D01*
X357314Y265234D01*
X358383Y264663D01*
X359542Y264312D01*
X360748Y264193D01*
X361954Y264312D01*
X363113Y264663D01*
X364182Y265234D01*
X365119Y266003D01*
X365888Y266940D01*
X366459Y268008D01*
X366811Y269168D01*
X366929Y270374D01*
X366811Y271580D01*
X366459Y272740D01*
X365888Y273808D01*
X365119Y274745D01*
X364182Y275514D01*
X363113Y276085D01*
X361954Y276437D01*
X360748Y276555D01*
D02*
G37*
G36*
X329252D02*
X328046Y276437D01*
X326887Y276085D01*
X325818Y275514D01*
X324881Y274745D01*
X324112Y273808D01*
X323541Y272740D01*
X323189Y271580D01*
X323071Y270374D01*
X323189Y269168D01*
X323541Y268008D01*
X324112Y266940D01*
X324881Y266003D01*
X325818Y265234D01*
X326887Y264663D01*
X328046Y264312D01*
X329252Y264193D01*
X330458Y264312D01*
X331617Y264663D01*
X332686Y265234D01*
X333623Y266003D01*
X334392Y266940D01*
X334963Y268008D01*
X335314Y269168D01*
X335433Y270374D01*
X335314Y271580D01*
X334963Y272740D01*
X334392Y273808D01*
X333623Y274745D01*
X332686Y275514D01*
X331617Y276085D01*
X330458Y276437D01*
X329252Y276555D01*
D02*
G37*
G36*
X59500Y271443D02*
X58236Y271318D01*
X57021Y270950D01*
X55901Y270351D01*
X54919Y269545D01*
X54114Y268564D01*
X53515Y267444D01*
X53146Y266228D01*
X53022Y264965D01*
X53146Y263701D01*
X53515Y262486D01*
X54114Y261366D01*
X54919Y260384D01*
X55901Y259578D01*
X57021Y258980D01*
X58236Y258611D01*
X59500Y258487D01*
X60764Y258611D01*
X61979Y258980D01*
X63099Y259578D01*
X64081Y260384D01*
X64886Y261366D01*
X65485Y262486D01*
X65854Y263701D01*
X65978Y264965D01*
X65854Y266228D01*
X65485Y267444D01*
X64886Y268564D01*
X64081Y269545D01*
X63099Y270351D01*
X61979Y270950D01*
X60764Y271318D01*
X59500Y271443D01*
D02*
G37*
G36*
X37846D02*
X36583Y271318D01*
X35367Y270950D01*
X34247Y270351D01*
X33266Y269545D01*
X32460Y268564D01*
X31861Y267444D01*
X31493Y266228D01*
X31368Y264965D01*
X31493Y263701D01*
X31861Y262486D01*
X32460Y261366D01*
X33266Y260384D01*
X34247Y259578D01*
X35367Y258980D01*
X36583Y258611D01*
X37846Y258487D01*
X39110Y258611D01*
X40325Y258980D01*
X41445Y259578D01*
X42427Y260384D01*
X43233Y261366D01*
X43831Y262486D01*
X44200Y263701D01*
X44324Y264965D01*
X44200Y266228D01*
X43831Y267444D01*
X43233Y268564D01*
X42427Y269545D01*
X41445Y270351D01*
X40325Y270950D01*
X39110Y271318D01*
X37846Y271443D01*
D02*
G37*
G36*
X345000Y268681D02*
X343794Y268563D01*
X342635Y268211D01*
X341566Y267640D01*
X340629Y266871D01*
X339860Y265934D01*
X339289Y264865D01*
X338937Y263706D01*
X338819Y262500D01*
X338937Y261294D01*
X339289Y260135D01*
X339860Y259066D01*
X340629Y258129D01*
X341566Y257360D01*
X342635Y256789D01*
X343794Y256437D01*
X345000Y256319D01*
X346206Y256437D01*
X347365Y256789D01*
X348434Y257360D01*
X349371Y258129D01*
X350140Y259066D01*
X350711Y260135D01*
X351063Y261294D01*
X351181Y262500D01*
X351063Y263706D01*
X350711Y264865D01*
X350140Y265934D01*
X349371Y266871D01*
X348434Y267640D01*
X347365Y268211D01*
X346206Y268563D01*
X345000Y268681D01*
D02*
G37*
G36*
X360748Y260807D02*
X359542Y260688D01*
X358383Y260337D01*
X357314Y259766D01*
X356377Y258997D01*
X355608Y258060D01*
X355037Y256992D01*
X354685Y255832D01*
X354567Y254626D01*
X354685Y253420D01*
X355037Y252260D01*
X355608Y251192D01*
X356377Y250255D01*
X357314Y249486D01*
X358383Y248915D01*
X359542Y248563D01*
X360748Y248445D01*
X361954Y248563D01*
X363113Y248915D01*
X364182Y249486D01*
X365119Y250255D01*
X365888Y251192D01*
X366459Y252260D01*
X366811Y253420D01*
X366929Y254626D01*
X366811Y255832D01*
X366459Y256992D01*
X365888Y258060D01*
X365119Y258997D01*
X364182Y259766D01*
X363113Y260337D01*
X361954Y260688D01*
X360748Y260807D01*
D02*
G37*
G36*
X329252D02*
X328046Y260688D01*
X326887Y260337D01*
X325818Y259766D01*
X324881Y258997D01*
X324112Y258060D01*
X323541Y256992D01*
X323189Y255832D01*
X323071Y254626D01*
X323189Y253420D01*
X323541Y252260D01*
X324112Y251192D01*
X324881Y250255D01*
X325818Y249486D01*
X326887Y248915D01*
X328046Y248563D01*
X329252Y248445D01*
X330458Y248563D01*
X331617Y248915D01*
X332686Y249486D01*
X333623Y250255D01*
X334392Y251192D01*
X334963Y252260D01*
X335314Y253420D01*
X335433Y254626D01*
X335314Y255832D01*
X334963Y256992D01*
X334392Y258060D01*
X333623Y258997D01*
X332686Y259766D01*
X331617Y260337D01*
X330458Y260688D01*
X329252Y260807D01*
D02*
G37*
G36*
X59500Y254907D02*
X58236Y254783D01*
X57021Y254414D01*
X55901Y253815D01*
X54919Y253010D01*
X54114Y252028D01*
X53515Y250908D01*
X53146Y249693D01*
X53022Y248429D01*
X53146Y247165D01*
X53515Y245950D01*
X54114Y244830D01*
X54919Y243848D01*
X55901Y243043D01*
X57021Y242444D01*
X58236Y242076D01*
X59500Y241951D01*
X60764Y242076D01*
X61979Y242444D01*
X63099Y243043D01*
X64081Y243848D01*
X64886Y244830D01*
X65485Y245950D01*
X65854Y247165D01*
X65978Y248429D01*
X65854Y249693D01*
X65485Y250908D01*
X64886Y252028D01*
X64081Y253010D01*
X63099Y253815D01*
X61979Y254414D01*
X60764Y254783D01*
X59500Y254907D01*
D02*
G37*
G36*
X37846D02*
X36583Y254783D01*
X35367Y254414D01*
X34247Y253815D01*
X33266Y253010D01*
X32460Y252028D01*
X31861Y250908D01*
X31493Y249693D01*
X31368Y248429D01*
X31493Y247165D01*
X31861Y245950D01*
X32460Y244830D01*
X33266Y243848D01*
X34247Y243043D01*
X35367Y242444D01*
X36583Y242076D01*
X37846Y241951D01*
X39110Y242076D01*
X40325Y242444D01*
X41445Y243043D01*
X42427Y243848D01*
X43233Y244830D01*
X43831Y245950D01*
X44200Y247165D01*
X44324Y248429D01*
X44200Y249693D01*
X43831Y250908D01*
X43233Y252028D01*
X42427Y253010D01*
X41445Y253815D01*
X40325Y254414D01*
X39110Y254783D01*
X37846Y254907D01*
D02*
G37*
G36*
X345000Y252933D02*
X343794Y252815D01*
X342635Y252463D01*
X341566Y251892D01*
X340629Y251123D01*
X339860Y250186D01*
X339289Y249117D01*
X338937Y247958D01*
X338819Y246752D01*
X338937Y245546D01*
X339289Y244387D01*
X339860Y243318D01*
X340629Y242381D01*
X341566Y241612D01*
X342635Y241041D01*
X343794Y240689D01*
X345000Y240571D01*
X346206Y240689D01*
X347365Y241041D01*
X348434Y241612D01*
X349371Y242381D01*
X350140Y243318D01*
X350711Y244387D01*
X351063Y245546D01*
X351181Y246752D01*
X351063Y247958D01*
X350711Y249117D01*
X350140Y250186D01*
X349371Y251123D01*
X348434Y251892D01*
X347365Y252463D01*
X346206Y252815D01*
X345000Y252933D01*
D02*
G37*
G36*
X360748Y245059D02*
X359542Y244940D01*
X358383Y244589D01*
X357314Y244018D01*
X356377Y243249D01*
X355608Y242312D01*
X355037Y241243D01*
X354685Y240084D01*
X354567Y238878D01*
X354685Y237672D01*
X355037Y236512D01*
X355608Y235444D01*
X356377Y234507D01*
X357314Y233738D01*
X358383Y233167D01*
X359542Y232815D01*
X360748Y232697D01*
X361954Y232815D01*
X363113Y233167D01*
X364182Y233738D01*
X365119Y234507D01*
X365888Y235444D01*
X366459Y236512D01*
X366811Y237672D01*
X366929Y238878D01*
X366811Y240084D01*
X366459Y241243D01*
X365888Y242312D01*
X365119Y243249D01*
X364182Y244018D01*
X363113Y244589D01*
X361954Y244940D01*
X360748Y245059D01*
D02*
G37*
G36*
X329252D02*
X328046Y244940D01*
X326887Y244589D01*
X325818Y244018D01*
X324881Y243249D01*
X324112Y242312D01*
X323541Y241243D01*
X323189Y240084D01*
X323071Y238878D01*
X323189Y237672D01*
X323541Y236512D01*
X324112Y235444D01*
X324881Y234507D01*
X325818Y233738D01*
X326887Y233167D01*
X328046Y232815D01*
X329252Y232697D01*
X330458Y232815D01*
X331617Y233167D01*
X332686Y233738D01*
X333623Y234507D01*
X334392Y235444D01*
X334963Y236512D01*
X335314Y237672D01*
X335433Y238878D01*
X335314Y240084D01*
X334963Y241243D01*
X334392Y242312D01*
X333623Y243249D01*
X332686Y244018D01*
X331617Y244589D01*
X330458Y244940D01*
X329252Y245059D01*
D02*
G37*
G36*
X59500Y238372D02*
X58236Y238247D01*
X57021Y237879D01*
X55901Y237280D01*
X54919Y236474D01*
X54114Y235493D01*
X53515Y234373D01*
X53146Y233157D01*
X53022Y231894D01*
X53146Y230630D01*
X53515Y229415D01*
X54114Y228295D01*
X54919Y227313D01*
X55901Y226507D01*
X57021Y225909D01*
X58236Y225540D01*
X59500Y225416D01*
X60764Y225540D01*
X61979Y225909D01*
X63099Y226507D01*
X64081Y227313D01*
X64886Y228295D01*
X65485Y229415D01*
X65854Y230630D01*
X65978Y231894D01*
X65854Y233157D01*
X65485Y234373D01*
X64886Y235493D01*
X64081Y236474D01*
X63099Y237280D01*
X61979Y237879D01*
X60764Y238247D01*
X59500Y238372D01*
D02*
G37*
G36*
X37846D02*
X36583Y238247D01*
X35367Y237879D01*
X34247Y237280D01*
X33266Y236474D01*
X32460Y235493D01*
X31861Y234373D01*
X31493Y233157D01*
X31368Y231894D01*
X31493Y230630D01*
X31861Y229415D01*
X32460Y228295D01*
X33266Y227313D01*
X34247Y226507D01*
X35367Y225909D01*
X36583Y225540D01*
X37846Y225416D01*
X39110Y225540D01*
X40325Y225909D01*
X41445Y226507D01*
X42427Y227313D01*
X43233Y228295D01*
X43831Y229415D01*
X44200Y230630D01*
X44324Y231894D01*
X44200Y233157D01*
X43831Y234373D01*
X43233Y235493D01*
X42427Y236474D01*
X41445Y237280D01*
X40325Y237879D01*
X39110Y238247D01*
X37846Y238372D01*
D02*
G37*
G36*
X345000Y237185D02*
X343794Y237067D01*
X342635Y236715D01*
X341566Y236143D01*
X340629Y235375D01*
X339860Y234438D01*
X339289Y233369D01*
X338937Y232210D01*
X338819Y231004D01*
X338937Y229798D01*
X339289Y228639D01*
X339860Y227570D01*
X340629Y226633D01*
X341566Y225864D01*
X342635Y225293D01*
X343794Y224941D01*
X345000Y224823D01*
X346206Y224941D01*
X347365Y225293D01*
X348434Y225864D01*
X349371Y226633D01*
X350140Y227570D01*
X350711Y228639D01*
X351063Y229798D01*
X351181Y231004D01*
X351063Y232210D01*
X350711Y233369D01*
X350140Y234438D01*
X349371Y235375D01*
X348434Y236143D01*
X347365Y236715D01*
X346206Y237067D01*
X345000Y237185D01*
D02*
G37*
G36*
X360748Y229311D02*
X359542Y229192D01*
X358383Y228841D01*
X357314Y228270D01*
X356377Y227501D01*
X355608Y226564D01*
X355037Y225495D01*
X354685Y224336D01*
X354567Y223130D01*
X354685Y221924D01*
X355037Y220764D01*
X355608Y219696D01*
X356377Y218759D01*
X357314Y217990D01*
X358383Y217419D01*
X359542Y217067D01*
X360748Y216949D01*
X361954Y217067D01*
X363113Y217419D01*
X364182Y217990D01*
X365119Y218759D01*
X365888Y219696D01*
X366459Y220764D01*
X366811Y221924D01*
X366929Y223130D01*
X366811Y224336D01*
X366459Y225495D01*
X365888Y226564D01*
X365119Y227501D01*
X364182Y228270D01*
X363113Y228841D01*
X361954Y229192D01*
X360748Y229311D01*
D02*
G37*
G36*
X329252D02*
X328046Y229192D01*
X326887Y228841D01*
X325818Y228270D01*
X324881Y227501D01*
X324112Y226564D01*
X323541Y225495D01*
X323189Y224336D01*
X323071Y223130D01*
X323189Y221924D01*
X323541Y220764D01*
X324112Y219696D01*
X324881Y218759D01*
X325818Y217990D01*
X326887Y217419D01*
X328046Y217067D01*
X329252Y216949D01*
X330458Y217067D01*
X331617Y217419D01*
X332686Y217990D01*
X333623Y218759D01*
X334392Y219696D01*
X334963Y220764D01*
X335314Y221924D01*
X335433Y223130D01*
X335314Y224336D01*
X334963Y225495D01*
X334392Y226564D01*
X333623Y227501D01*
X332686Y228270D01*
X331617Y228841D01*
X330458Y229192D01*
X329252Y229311D01*
D02*
G37*
G36*
X345000Y221437D02*
X343794Y221319D01*
X342635Y220967D01*
X341566Y220395D01*
X340629Y219627D01*
X339860Y218690D01*
X339289Y217621D01*
X338937Y216462D01*
X338819Y215256D01*
X338937Y214050D01*
X339289Y212890D01*
X339860Y211822D01*
X340629Y210885D01*
X341566Y210116D01*
X342635Y209545D01*
X343794Y209193D01*
X345000Y209075D01*
X346206Y209193D01*
X347365Y209545D01*
X348434Y210116D01*
X349371Y210885D01*
X350140Y211822D01*
X350711Y212890D01*
X351063Y214050D01*
X351181Y215256D01*
X351063Y216462D01*
X350711Y217621D01*
X350140Y218690D01*
X349371Y219627D01*
X348434Y220395D01*
X347365Y220967D01*
X346206Y221319D01*
X345000Y221437D01*
D02*
G37*
G36*
X59500Y221836D02*
X58236Y221712D01*
X57021Y221343D01*
X55901Y220744D01*
X54919Y219939D01*
X54114Y218957D01*
X53515Y217837D01*
X53146Y216622D01*
X53022Y215358D01*
X53146Y214094D01*
X53515Y212879D01*
X54114Y211759D01*
X54919Y210778D01*
X55901Y209972D01*
X57021Y209373D01*
X58236Y209005D01*
X59500Y208880D01*
X60764Y209005D01*
X61979Y209373D01*
X63099Y209972D01*
X64081Y210778D01*
X64886Y211759D01*
X65485Y212879D01*
X65854Y214094D01*
X65978Y215358D01*
X65854Y216622D01*
X65485Y217837D01*
X64886Y218957D01*
X64081Y219939D01*
X63099Y220744D01*
X61979Y221343D01*
X60764Y221712D01*
X59500Y221836D01*
D02*
G37*
G36*
X37846D02*
X36583Y221712D01*
X35367Y221343D01*
X34247Y220744D01*
X33266Y219939D01*
X32460Y218957D01*
X31861Y217837D01*
X31493Y216622D01*
X31368Y215358D01*
X31493Y214094D01*
X31861Y212879D01*
X32460Y211759D01*
X33266Y210778D01*
X34247Y209972D01*
X35367Y209373D01*
X36583Y209005D01*
X37846Y208880D01*
X39110Y209005D01*
X40325Y209373D01*
X41445Y209972D01*
X42427Y210778D01*
X43233Y211759D01*
X43831Y212879D01*
X44200Y214094D01*
X44324Y215358D01*
X44200Y216622D01*
X43831Y217837D01*
X43233Y218957D01*
X42427Y219939D01*
X41445Y220744D01*
X40325Y221343D01*
X39110Y221712D01*
X37846Y221836D01*
D02*
G37*
G36*
X360748Y213563D02*
X359542Y213444D01*
X358383Y213093D01*
X357314Y212522D01*
X356377Y211753D01*
X355608Y210816D01*
X355037Y209747D01*
X354685Y208588D01*
X354567Y207382D01*
X354685Y206176D01*
X355037Y205016D01*
X355608Y203948D01*
X356377Y203011D01*
X357314Y202242D01*
X358383Y201671D01*
X359542Y201319D01*
X360748Y201201D01*
X361954Y201319D01*
X363113Y201671D01*
X364182Y202242D01*
X365119Y203011D01*
X365888Y203948D01*
X366459Y205016D01*
X366811Y206176D01*
X366929Y207382D01*
X366811Y208588D01*
X366459Y209747D01*
X365888Y210816D01*
X365119Y211753D01*
X364182Y212522D01*
X363113Y213093D01*
X361954Y213444D01*
X360748Y213563D01*
D02*
G37*
G36*
X329252D02*
X328046Y213444D01*
X326887Y213093D01*
X325818Y212522D01*
X324881Y211753D01*
X324112Y210816D01*
X323541Y209747D01*
X323189Y208588D01*
X323071Y207382D01*
X323189Y206176D01*
X323541Y205016D01*
X324112Y203948D01*
X324881Y203011D01*
X325818Y202242D01*
X326887Y201671D01*
X328046Y201319D01*
X329252Y201201D01*
X330458Y201319D01*
X331617Y201671D01*
X332686Y202242D01*
X333623Y203011D01*
X334392Y203948D01*
X334963Y205016D01*
X335314Y206176D01*
X335433Y207382D01*
X335314Y208588D01*
X334963Y209747D01*
X334392Y210816D01*
X333623Y211753D01*
X332686Y212522D01*
X331617Y213093D01*
X330458Y213444D01*
X329252Y213563D01*
D02*
G37*
G36*
X345000Y205689D02*
X343794Y205570D01*
X342635Y205219D01*
X341566Y204647D01*
X340629Y203879D01*
X339860Y202942D01*
X339289Y201873D01*
X338937Y200714D01*
X338819Y199508D01*
X338937Y198302D01*
X339289Y197142D01*
X339860Y196074D01*
X340629Y195137D01*
X341566Y194368D01*
X342635Y193797D01*
X343794Y193445D01*
X345000Y193326D01*
X346206Y193445D01*
X347365Y193797D01*
X348434Y194368D01*
X349371Y195137D01*
X350140Y196074D01*
X350711Y197142D01*
X351063Y198302D01*
X351181Y199508D01*
X351063Y200714D01*
X350711Y201873D01*
X350140Y202942D01*
X349371Y203879D01*
X348434Y204647D01*
X347365Y205219D01*
X346206Y205570D01*
X345000Y205689D01*
D02*
G37*
G36*
X59500Y205301D02*
X58236Y205176D01*
X57021Y204808D01*
X55901Y204209D01*
X54919Y203403D01*
X54114Y202422D01*
X53515Y201302D01*
X53146Y200087D01*
X53022Y198823D01*
X53146Y197559D01*
X53515Y196344D01*
X54114Y195224D01*
X54919Y194242D01*
X55901Y193437D01*
X57021Y192838D01*
X58236Y192469D01*
X59500Y192345D01*
X60764Y192469D01*
X61979Y192838D01*
X63099Y193437D01*
X64081Y194242D01*
X64886Y195224D01*
X65485Y196344D01*
X65854Y197559D01*
X65978Y198823D01*
X65854Y200087D01*
X65485Y201302D01*
X64886Y202422D01*
X64081Y203403D01*
X63099Y204209D01*
X61979Y204808D01*
X60764Y205176D01*
X59500Y205301D01*
D02*
G37*
G36*
X37846D02*
X36583Y205176D01*
X35367Y204808D01*
X34247Y204209D01*
X33266Y203403D01*
X32460Y202422D01*
X31861Y201302D01*
X31493Y200087D01*
X31368Y198823D01*
X31493Y197559D01*
X31861Y196344D01*
X32460Y195224D01*
X33266Y194242D01*
X34247Y193437D01*
X35367Y192838D01*
X36583Y192469D01*
X37846Y192345D01*
X39110Y192469D01*
X40325Y192838D01*
X41445Y193437D01*
X42427Y194242D01*
X43233Y195224D01*
X43831Y196344D01*
X44200Y197559D01*
X44324Y198823D01*
X44200Y200087D01*
X43831Y201302D01*
X43233Y202422D01*
X42427Y203403D01*
X41445Y204209D01*
X40325Y204808D01*
X39110Y205176D01*
X37846Y205301D01*
D02*
G37*
G36*
X9106Y205845D02*
X7736Y205710D01*
X6419Y205310D01*
X5205Y204661D01*
X4141Y203788D01*
X3268Y202724D01*
X2619Y201510D01*
X2219Y200193D01*
X2084Y198823D01*
X2219Y197453D01*
X2619Y196136D01*
X3268Y194922D01*
X4141Y193858D01*
X5205Y192984D01*
X6419Y192335D01*
X7736Y191936D01*
X9106Y191801D01*
X10476Y191936D01*
X11794Y192335D01*
X13007Y192984D01*
X14072Y193858D01*
X14945Y194922D01*
X15594Y196136D01*
X15993Y197453D01*
X16128Y198823D01*
X15993Y200193D01*
X15594Y201510D01*
X14945Y202724D01*
X14072Y203788D01*
X13007Y204661D01*
X11794Y205310D01*
X10476Y205710D01*
X9106Y205845D01*
D02*
G37*
G36*
X100500Y216335D02*
X98492Y216177D01*
X96534Y215707D01*
X94673Y214936D01*
X92956Y213884D01*
X91424Y212576D01*
X90116Y211044D01*
X89064Y209327D01*
X88293Y207466D01*
X87823Y205508D01*
X87665Y203500D01*
X87823Y201492D01*
X88293Y199534D01*
X89064Y197673D01*
X90116Y195956D01*
X91424Y194424D01*
X92956Y193116D01*
X94673Y192064D01*
X96534Y191293D01*
X98492Y190823D01*
X100500Y190665D01*
X102508Y190823D01*
X104466Y191293D01*
X106327Y192064D01*
X108044Y193116D01*
X109576Y194424D01*
X110884Y195956D01*
X111936Y197673D01*
X112707Y199534D01*
X113177Y201492D01*
X113335Y203500D01*
X113177Y205508D01*
X112707Y207466D01*
X111936Y209327D01*
X110884Y211044D01*
X109576Y212576D01*
X108044Y213884D01*
X106327Y214936D01*
X104466Y215707D01*
X102508Y216177D01*
X100500Y216335D01*
D02*
G37*
G36*
X360748Y197815D02*
X359542Y197696D01*
X358383Y197345D01*
X357314Y196774D01*
X356377Y196005D01*
X355608Y195068D01*
X355037Y193999D01*
X354685Y192840D01*
X354567Y191634D01*
X354685Y190428D01*
X355037Y189268D01*
X355608Y188200D01*
X356377Y187263D01*
X357314Y186494D01*
X358383Y185923D01*
X359542Y185571D01*
X360748Y185452D01*
X361954Y185571D01*
X363113Y185923D01*
X364182Y186494D01*
X365119Y187263D01*
X365888Y188200D01*
X366459Y189268D01*
X366811Y190428D01*
X366929Y191634D01*
X366811Y192840D01*
X366459Y193999D01*
X365888Y195068D01*
X365119Y196005D01*
X364182Y196774D01*
X363113Y197345D01*
X361954Y197696D01*
X360748Y197815D01*
D02*
G37*
G36*
X329252D02*
X328046Y197696D01*
X326887Y197345D01*
X325818Y196774D01*
X324881Y196005D01*
X324112Y195068D01*
X323541Y193999D01*
X323189Y192840D01*
X323071Y191634D01*
X323189Y190428D01*
X323541Y189268D01*
X324112Y188200D01*
X324881Y187263D01*
X325818Y186494D01*
X326887Y185923D01*
X328046Y185571D01*
X329252Y185452D01*
X330458Y185571D01*
X331617Y185923D01*
X332686Y186494D01*
X333623Y187263D01*
X334392Y188200D01*
X334963Y189268D01*
X335314Y190428D01*
X335433Y191634D01*
X335314Y192840D01*
X334963Y193999D01*
X334392Y195068D01*
X333623Y196005D01*
X332686Y196774D01*
X331617Y197345D01*
X330458Y197696D01*
X329252Y197815D01*
D02*
G37*
G36*
X345000Y189941D02*
X343794Y189822D01*
X342635Y189471D01*
X341566Y188899D01*
X340629Y188131D01*
X339860Y187194D01*
X339289Y186125D01*
X338937Y184966D01*
X338819Y183760D01*
X338937Y182554D01*
X339289Y181394D01*
X339860Y180326D01*
X340629Y179389D01*
X341566Y178620D01*
X342635Y178049D01*
X343794Y177697D01*
X345000Y177578D01*
X346206Y177697D01*
X347365Y178049D01*
X348434Y178620D01*
X349371Y179389D01*
X350140Y180326D01*
X350711Y181394D01*
X351063Y182554D01*
X351181Y183760D01*
X351063Y184966D01*
X350711Y186125D01*
X350140Y187194D01*
X349371Y188131D01*
X348434Y188899D01*
X347365Y189471D01*
X346206Y189822D01*
X345000Y189941D01*
D02*
G37*
G36*
X360748Y182067D02*
X359542Y181948D01*
X358383Y181597D01*
X357314Y181025D01*
X356377Y180257D01*
X355608Y179320D01*
X355037Y178251D01*
X354685Y177092D01*
X354567Y175886D01*
X354685Y174680D01*
X355037Y173520D01*
X355608Y172452D01*
X356377Y171515D01*
X357314Y170746D01*
X358383Y170175D01*
X359542Y169823D01*
X360748Y169704D01*
X361954Y169823D01*
X363113Y170175D01*
X364182Y170746D01*
X365119Y171515D01*
X365888Y172452D01*
X366459Y173520D01*
X366811Y174680D01*
X366929Y175886D01*
X366811Y177092D01*
X366459Y178251D01*
X365888Y179320D01*
X365119Y180257D01*
X364182Y181025D01*
X363113Y181597D01*
X361954Y181948D01*
X360748Y182067D01*
D02*
G37*
G36*
X329252D02*
X328046Y181948D01*
X326887Y181597D01*
X325818Y181025D01*
X324881Y180257D01*
X324112Y179320D01*
X323541Y178251D01*
X323189Y177092D01*
X323071Y175886D01*
X323189Y174680D01*
X323541Y173520D01*
X324112Y172452D01*
X324881Y171515D01*
X325818Y170746D01*
X326887Y170175D01*
X328046Y169823D01*
X329252Y169704D01*
X330458Y169823D01*
X331617Y170175D01*
X332686Y170746D01*
X333623Y171515D01*
X334392Y172452D01*
X334963Y173520D01*
X335314Y174680D01*
X335433Y175886D01*
X335314Y177092D01*
X334963Y178251D01*
X334392Y179320D01*
X333623Y180257D01*
X332686Y181025D01*
X331617Y181597D01*
X330458Y181948D01*
X329252Y182067D01*
D02*
G37*
G36*
X345000Y174193D02*
X343794Y174074D01*
X342635Y173723D01*
X341566Y173151D01*
X340629Y172383D01*
X339860Y171446D01*
X339289Y170377D01*
X338937Y169218D01*
X338819Y168012D01*
X338937Y166806D01*
X339289Y165646D01*
X339860Y164578D01*
X340629Y163641D01*
X341566Y162872D01*
X342635Y162301D01*
X343794Y161949D01*
X345000Y161830D01*
X346206Y161949D01*
X347365Y162301D01*
X348434Y162872D01*
X349371Y163641D01*
X350140Y164578D01*
X350711Y165646D01*
X351063Y166806D01*
X351181Y168012D01*
X351063Y169218D01*
X350711Y170377D01*
X350140Y171446D01*
X349371Y172383D01*
X348434Y173151D01*
X347365Y173723D01*
X346206Y174074D01*
X345000Y174193D01*
D02*
G37*
G36*
X126537Y166662D02*
X125201Y166486D01*
X123956Y165971D01*
X122887Y165150D01*
X122066Y164081D01*
X121551Y162836D01*
X121375Y161500D01*
X121551Y160164D01*
X122066Y158919D01*
X122887Y157850D01*
X123956Y157029D01*
X125201Y156514D01*
X126537Y156338D01*
X127873Y156514D01*
X129118Y157029D01*
X130187Y157850D01*
X131008Y158919D01*
X131523Y160164D01*
X131699Y161500D01*
X131523Y162836D01*
X131008Y164081D01*
X130187Y165150D01*
X129118Y165971D01*
X127873Y166486D01*
X126537Y166662D01*
D02*
G37*
G36*
X104884D02*
X103547Y166486D01*
X102302Y165971D01*
X101233Y165150D01*
X100413Y164081D01*
X99897Y162836D01*
X99721Y161500D01*
X99897Y160164D01*
X100413Y158919D01*
X101233Y157850D01*
X102302Y157029D01*
X103547Y156514D01*
X104884Y156338D01*
X106220Y156514D01*
X107465Y157029D01*
X108534Y157850D01*
X109354Y158919D01*
X109870Y160164D01*
X110046Y161500D01*
X109870Y162836D01*
X109354Y164081D01*
X108534Y165150D01*
X107465Y165971D01*
X106220Y166486D01*
X104884Y166662D01*
D02*
G37*
G36*
X360748Y166319D02*
X359542Y166200D01*
X358383Y165849D01*
X357314Y165277D01*
X356377Y164509D01*
X355608Y163572D01*
X355037Y162503D01*
X354685Y161344D01*
X354567Y160138D01*
X354685Y158932D01*
X355037Y157772D01*
X355608Y156704D01*
X356377Y155767D01*
X357314Y154998D01*
X358383Y154427D01*
X359542Y154075D01*
X360748Y153956D01*
X361954Y154075D01*
X363113Y154427D01*
X364182Y154998D01*
X365119Y155767D01*
X365888Y156704D01*
X366459Y157772D01*
X366811Y158932D01*
X366929Y160138D01*
X366811Y161344D01*
X366459Y162503D01*
X365888Y163572D01*
X365119Y164509D01*
X364182Y165277D01*
X363113Y165849D01*
X361954Y166200D01*
X360748Y166319D01*
D02*
G37*
G36*
X329252D02*
X328046Y166200D01*
X326887Y165849D01*
X325818Y165277D01*
X324881Y164509D01*
X324112Y163572D01*
X323541Y162503D01*
X323189Y161344D01*
X323071Y160138D01*
X323189Y158932D01*
X323541Y157772D01*
X324112Y156704D01*
X324881Y155767D01*
X325818Y154998D01*
X326887Y154427D01*
X328046Y154075D01*
X329252Y153956D01*
X330458Y154075D01*
X331617Y154427D01*
X332686Y154998D01*
X333623Y155767D01*
X334392Y156704D01*
X334963Y157772D01*
X335314Y158932D01*
X335433Y160138D01*
X335314Y161344D01*
X334963Y162503D01*
X334392Y163572D01*
X333623Y164509D01*
X332686Y165277D01*
X331617Y165849D01*
X330458Y166200D01*
X329252Y166319D01*
D02*
G37*
G36*
X58957Y163975D02*
X57693Y163850D01*
X56478Y163482D01*
X55358Y162883D01*
X54376Y162077D01*
X53570Y161096D01*
X52972Y159976D01*
X52603Y158760D01*
X52479Y157497D01*
X52603Y156233D01*
X52972Y155018D01*
X53570Y153898D01*
X54376Y152916D01*
X55358Y152110D01*
X56478Y151512D01*
X57693Y151143D01*
X58957Y151019D01*
X60220Y151143D01*
X61436Y151512D01*
X62556Y152110D01*
X63537Y152916D01*
X64343Y153898D01*
X64942Y155018D01*
X65310Y156233D01*
X65435Y157497D01*
X65310Y158760D01*
X64942Y159976D01*
X64343Y161096D01*
X63537Y162077D01*
X62556Y162883D01*
X61436Y163482D01*
X60220Y163850D01*
X58957Y163975D01*
D02*
G37*
G36*
X37303D02*
X36039Y163850D01*
X34824Y163482D01*
X33704Y162883D01*
X32722Y162077D01*
X31917Y161096D01*
X31318Y159976D01*
X30950Y158760D01*
X30825Y157497D01*
X30950Y156233D01*
X31318Y155018D01*
X31917Y153898D01*
X32722Y152916D01*
X33704Y152110D01*
X34824Y151512D01*
X36039Y151143D01*
X37303Y151019D01*
X38567Y151143D01*
X39782Y151512D01*
X40902Y152110D01*
X41884Y152916D01*
X42689Y153898D01*
X43288Y155018D01*
X43657Y156233D01*
X43781Y157497D01*
X43657Y158760D01*
X43288Y159976D01*
X42689Y161096D01*
X41884Y162077D01*
X40902Y162883D01*
X39782Y163482D01*
X38567Y163850D01*
X37303Y163975D01*
D02*
G37*
G36*
X8563Y164519D02*
X7193Y164384D01*
X5876Y163984D01*
X4662Y163335D01*
X3598Y162462D01*
X2724Y161398D01*
X2076Y160184D01*
X1676Y158867D01*
X1541Y157497D01*
X1676Y156127D01*
X2076Y154809D01*
X2724Y153595D01*
X3598Y152531D01*
X4662Y151658D01*
X5876Y151009D01*
X7193Y150610D01*
X8563Y150475D01*
X9933Y150610D01*
X11250Y151009D01*
X12464Y151658D01*
X13528Y152531D01*
X14402Y153595D01*
X15051Y154809D01*
X15450Y156127D01*
X15585Y157497D01*
X15450Y158867D01*
X15051Y160184D01*
X14402Y161398D01*
X13528Y162462D01*
X12464Y163335D01*
X11250Y163984D01*
X9933Y164384D01*
X8563Y164519D01*
D02*
G37*
G36*
X270342Y146852D02*
X269421Y146668D01*
X268639Y146146D01*
X268117Y145365D01*
X267934Y144443D01*
X268117Y143521D01*
X268639Y142740D01*
X269421Y142218D01*
X270342Y142034D01*
X271264Y142218D01*
X272046Y142740D01*
X272568Y143521D01*
X272751Y144443D01*
X272568Y145365D01*
X272046Y146146D01*
X271264Y146668D01*
X270342Y146852D01*
D02*
G37*
G36*
X126537Y150127D02*
X125201Y149951D01*
X123956Y149435D01*
X122887Y148615D01*
X122066Y147546D01*
X121551Y146301D01*
X121375Y144965D01*
X121551Y143629D01*
X122066Y142383D01*
X122887Y141314D01*
X123956Y140494D01*
X125201Y139978D01*
X126537Y139802D01*
X127873Y139978D01*
X129118Y140494D01*
X130187Y141314D01*
X131008Y142383D01*
X131523Y143629D01*
X131699Y144965D01*
X131523Y146301D01*
X131008Y147546D01*
X130187Y148615D01*
X129118Y149435D01*
X127873Y149951D01*
X126537Y150127D01*
D02*
G37*
G36*
X104884D02*
X103547Y149951D01*
X102302Y149435D01*
X101233Y148615D01*
X100413Y147546D01*
X99897Y146301D01*
X99721Y144965D01*
X99897Y143629D01*
X100413Y142383D01*
X101233Y141314D01*
X102302Y140494D01*
X103547Y139978D01*
X104884Y139802D01*
X106220Y139978D01*
X107465Y140494D01*
X108534Y141314D01*
X109354Y142383D01*
X109870Y143629D01*
X110046Y144965D01*
X109870Y146301D01*
X109354Y147546D01*
X108534Y148615D01*
X107465Y149435D01*
X106220Y149951D01*
X104884Y150127D01*
D02*
G37*
G36*
X294150Y141150D02*
X287850D01*
Y134850D01*
X294150D01*
Y141150D01*
D02*
G37*
G36*
X58957Y147439D02*
X57693Y147315D01*
X56478Y146946D01*
X55358Y146347D01*
X54376Y145542D01*
X53570Y144560D01*
X52972Y143440D01*
X52603Y142225D01*
X52479Y140961D01*
X52603Y139697D01*
X52972Y138482D01*
X53570Y137362D01*
X54376Y136381D01*
X55358Y135575D01*
X56478Y134976D01*
X57693Y134608D01*
X58957Y134483D01*
X60220Y134608D01*
X61436Y134976D01*
X62556Y135575D01*
X63537Y136381D01*
X64343Y137362D01*
X64942Y138482D01*
X65310Y139697D01*
X65435Y140961D01*
X65310Y142225D01*
X64942Y143440D01*
X64343Y144560D01*
X63537Y145542D01*
X62556Y146347D01*
X61436Y146946D01*
X60220Y147315D01*
X58957Y147439D01*
D02*
G37*
G36*
X37303D02*
X36039Y147315D01*
X34824Y146946D01*
X33704Y146347D01*
X32722Y145542D01*
X31917Y144560D01*
X31318Y143440D01*
X30950Y142225D01*
X30825Y140961D01*
X30950Y139697D01*
X31318Y138482D01*
X31917Y137362D01*
X32722Y136381D01*
X33704Y135575D01*
X34824Y134976D01*
X36039Y134608D01*
X37303Y134483D01*
X38567Y134608D01*
X39782Y134976D01*
X40902Y135575D01*
X41884Y136381D01*
X42689Y137362D01*
X43288Y138482D01*
X43657Y139697D01*
X43781Y140961D01*
X43657Y142225D01*
X43288Y143440D01*
X42689Y144560D01*
X41884Y145542D01*
X40902Y146347D01*
X39782Y146946D01*
X38567Y147315D01*
X37303Y147439D01*
D02*
G37*
G36*
X346969Y144230D02*
X345080Y144044D01*
X343263Y143493D01*
X341589Y142598D01*
X340122Y141394D01*
X338918Y139927D01*
X338023Y138253D01*
X337472Y136436D01*
X337286Y134547D01*
X337472Y132658D01*
X338023Y130842D01*
X338918Y129168D01*
X340122Y127701D01*
X341589Y126497D01*
X343263Y125602D01*
X345080Y125051D01*
X346969Y124865D01*
X348857Y125051D01*
X350674Y125602D01*
X352348Y126497D01*
X353815Y127701D01*
X355019Y129168D01*
X355914Y130842D01*
X356465Y132658D01*
X356651Y134547D01*
X356465Y136436D01*
X355914Y138253D01*
X355019Y139927D01*
X353815Y141394D01*
X352348Y142598D01*
X350674Y143493D01*
X348857Y144044D01*
X346969Y144230D01*
D02*
G37*
G36*
X126537Y133591D02*
X125201Y133415D01*
X123956Y132900D01*
X122887Y132079D01*
X122066Y131010D01*
X121551Y129765D01*
X121375Y128429D01*
X121551Y127093D01*
X122066Y125848D01*
X122887Y124779D01*
X123956Y123959D01*
X125201Y123443D01*
X126537Y123267D01*
X127873Y123443D01*
X129118Y123959D01*
X130187Y124779D01*
X131008Y125848D01*
X131523Y127093D01*
X131699Y128429D01*
X131523Y129765D01*
X131008Y131010D01*
X130187Y132079D01*
X129118Y132900D01*
X127873Y133415D01*
X126537Y133591D01*
D02*
G37*
G36*
X104884D02*
X103547Y133415D01*
X102302Y132900D01*
X101233Y132079D01*
X100413Y131010D01*
X99897Y129765D01*
X99721Y128429D01*
X99897Y127093D01*
X100413Y125848D01*
X101233Y124779D01*
X102302Y123959D01*
X103547Y123443D01*
X104884Y123267D01*
X106220Y123443D01*
X107465Y123959D01*
X108534Y124779D01*
X109354Y125848D01*
X109870Y127093D01*
X110046Y128429D01*
X109870Y129765D01*
X109354Y131010D01*
X108534Y132079D01*
X107465Y132900D01*
X106220Y133415D01*
X104884Y133591D01*
D02*
G37*
G36*
X58957Y130904D02*
X57693Y130779D01*
X56478Y130411D01*
X55358Y129812D01*
X54376Y129006D01*
X53570Y128025D01*
X52972Y126905D01*
X52603Y125690D01*
X52479Y124426D01*
X52603Y123162D01*
X52972Y121947D01*
X53570Y120827D01*
X54376Y119845D01*
X55358Y119039D01*
X56478Y118441D01*
X57693Y118072D01*
X58957Y117948D01*
X60220Y118072D01*
X61436Y118441D01*
X62556Y119039D01*
X63537Y119845D01*
X64343Y120827D01*
X64942Y121947D01*
X65310Y123162D01*
X65435Y124426D01*
X65310Y125690D01*
X64942Y126905D01*
X64343Y128025D01*
X63537Y129006D01*
X62556Y129812D01*
X61436Y130411D01*
X60220Y130779D01*
X58957Y130904D01*
D02*
G37*
G36*
X37303D02*
X36039Y130779D01*
X34824Y130411D01*
X33704Y129812D01*
X32722Y129006D01*
X31917Y128025D01*
X31318Y126905D01*
X30950Y125690D01*
X30825Y124426D01*
X30950Y123162D01*
X31318Y121947D01*
X31917Y120827D01*
X32722Y119845D01*
X33704Y119039D01*
X34824Y118441D01*
X36039Y118072D01*
X37303Y117948D01*
X38567Y118072D01*
X39782Y118441D01*
X40902Y119039D01*
X41884Y119845D01*
X42689Y120827D01*
X43288Y121947D01*
X43657Y123162D01*
X43781Y124426D01*
X43657Y125690D01*
X43288Y126905D01*
X42689Y128025D01*
X41884Y129006D01*
X40902Y129812D01*
X39782Y130411D01*
X38567Y130779D01*
X37303Y130904D01*
D02*
G37*
G36*
X126537Y117056D02*
X125201Y116880D01*
X123956Y116364D01*
X122887Y115544D01*
X122066Y114475D01*
X121551Y113230D01*
X121375Y111894D01*
X121551Y110558D01*
X122066Y109313D01*
X122887Y108243D01*
X123956Y107423D01*
X125201Y106907D01*
X126537Y106731D01*
X127873Y106907D01*
X129118Y107423D01*
X130187Y108243D01*
X131008Y109313D01*
X131523Y110558D01*
X131699Y111894D01*
X131523Y113230D01*
X131008Y114475D01*
X130187Y115544D01*
X129118Y116364D01*
X127873Y116880D01*
X126537Y117056D01*
D02*
G37*
G36*
X104884D02*
X103547Y116880D01*
X102302Y116364D01*
X101233Y115544D01*
X100413Y114475D01*
X99897Y113230D01*
X99721Y111894D01*
X99897Y110558D01*
X100413Y109313D01*
X101233Y108243D01*
X102302Y107423D01*
X103547Y106907D01*
X104884Y106731D01*
X106220Y106907D01*
X107465Y107423D01*
X108534Y108243D01*
X109354Y109313D01*
X109870Y110558D01*
X110046Y111894D01*
X109870Y113230D01*
X109354Y114475D01*
X108534Y115544D01*
X107465Y116364D01*
X106220Y116880D01*
X104884Y117056D01*
D02*
G37*
G36*
X58957Y114368D02*
X57693Y114244D01*
X56478Y113875D01*
X55358Y113277D01*
X54376Y112471D01*
X53570Y111489D01*
X52972Y110369D01*
X52603Y109154D01*
X52479Y107890D01*
X52603Y106626D01*
X52972Y105411D01*
X53570Y104291D01*
X54376Y103310D01*
X55358Y102504D01*
X56478Y101905D01*
X57693Y101537D01*
X58957Y101412D01*
X60220Y101537D01*
X61436Y101905D01*
X62556Y102504D01*
X63537Y103310D01*
X64343Y104291D01*
X64942Y105411D01*
X65310Y106626D01*
X65435Y107890D01*
X65310Y109154D01*
X64942Y110369D01*
X64343Y111489D01*
X63537Y112471D01*
X62556Y113277D01*
X61436Y113875D01*
X60220Y114244D01*
X58957Y114368D01*
D02*
G37*
G36*
X37303D02*
X36039Y114244D01*
X34824Y113875D01*
X33704Y113277D01*
X32722Y112471D01*
X31917Y111489D01*
X31318Y110369D01*
X30950Y109154D01*
X30825Y107890D01*
X30950Y106626D01*
X31318Y105411D01*
X31917Y104291D01*
X32722Y103310D01*
X33704Y102504D01*
X34824Y101905D01*
X36039Y101537D01*
X37303Y101412D01*
X38567Y101537D01*
X39782Y101905D01*
X40902Y102504D01*
X41884Y103310D01*
X42689Y104291D01*
X43288Y105411D01*
X43657Y106626D01*
X43781Y107890D01*
X43657Y109154D01*
X43288Y110369D01*
X42689Y111489D01*
X41884Y112471D01*
X40902Y113277D01*
X39782Y113875D01*
X38567Y114244D01*
X37303Y114368D01*
D02*
G37*
G36*
X168150Y105650D02*
X161850D01*
Y99350D01*
X168150D01*
Y105650D01*
D02*
G37*
G36*
X126537Y100521D02*
X125201Y100345D01*
X123956Y99829D01*
X122887Y99009D01*
X122066Y97939D01*
X121551Y96694D01*
X121375Y95358D01*
X121551Y94022D01*
X122066Y92777D01*
X122887Y91708D01*
X123956Y90888D01*
X125201Y90372D01*
X126537Y90196D01*
X127873Y90372D01*
X129118Y90888D01*
X130187Y91708D01*
X131008Y92777D01*
X131523Y94022D01*
X131699Y95358D01*
X131523Y96694D01*
X131008Y97939D01*
X130187Y99009D01*
X129118Y99829D01*
X127873Y100345D01*
X126537Y100521D01*
D02*
G37*
G36*
X58957Y97833D02*
X57693Y97708D01*
X56478Y97340D01*
X55358Y96741D01*
X54376Y95936D01*
X53570Y94954D01*
X52972Y93834D01*
X52603Y92619D01*
X52479Y91355D01*
X52603Y90091D01*
X52972Y88876D01*
X53570Y87756D01*
X54376Y86774D01*
X55358Y85969D01*
X56478Y85370D01*
X57693Y85001D01*
X58957Y84877D01*
X60220Y85001D01*
X61436Y85370D01*
X62556Y85969D01*
X63537Y86774D01*
X64343Y87756D01*
X64942Y88876D01*
X65310Y90091D01*
X65435Y91355D01*
X65310Y92619D01*
X64942Y93834D01*
X64343Y94954D01*
X63537Y95936D01*
X62556Y96741D01*
X61436Y97340D01*
X60220Y97708D01*
X58957Y97833D01*
D02*
G37*
G36*
X37303D02*
X36039Y97708D01*
X34824Y97340D01*
X33704Y96741D01*
X32722Y95936D01*
X31917Y94954D01*
X31318Y93834D01*
X30950Y92619D01*
X30825Y91355D01*
X30950Y90091D01*
X31318Y88876D01*
X31917Y87756D01*
X32722Y86774D01*
X33704Y85969D01*
X34824Y85370D01*
X36039Y85001D01*
X37303Y84877D01*
X38567Y85001D01*
X39782Y85370D01*
X40902Y85969D01*
X41884Y86774D01*
X42689Y87756D01*
X43288Y88876D01*
X43657Y90091D01*
X43781Y91355D01*
X43657Y92619D01*
X43288Y93834D01*
X42689Y94954D01*
X41884Y95936D01*
X40902Y96741D01*
X39782Y97340D01*
X38567Y97708D01*
X37303Y97833D01*
D02*
G37*
G36*
X58957Y81297D02*
X57693Y81173D01*
X56478Y80804D01*
X55358Y80206D01*
X54376Y79400D01*
X53570Y78418D01*
X52972Y77298D01*
X52603Y76083D01*
X52479Y74819D01*
X52603Y73556D01*
X52972Y72340D01*
X53570Y71220D01*
X54376Y70239D01*
X55358Y69433D01*
X56478Y68835D01*
X57693Y68466D01*
X58957Y68341D01*
X60220Y68466D01*
X61436Y68835D01*
X62556Y69433D01*
X63537Y70239D01*
X64343Y71220D01*
X64942Y72340D01*
X65310Y73556D01*
X65435Y74819D01*
X65310Y76083D01*
X64942Y77298D01*
X64343Y78418D01*
X63537Y79400D01*
X62556Y80206D01*
X61436Y80804D01*
X60220Y81173D01*
X58957Y81297D01*
D02*
G37*
G36*
X37303D02*
X36039Y81173D01*
X34824Y80804D01*
X33704Y80206D01*
X32722Y79400D01*
X31917Y78418D01*
X31318Y77298D01*
X30950Y76083D01*
X30825Y74819D01*
X30950Y73556D01*
X31318Y72340D01*
X31917Y71220D01*
X32722Y70239D01*
X33704Y69433D01*
X34824Y68835D01*
X36039Y68466D01*
X37303Y68341D01*
X38567Y68466D01*
X39782Y68835D01*
X40902Y69433D01*
X41884Y70239D01*
X42689Y71220D01*
X43288Y72340D01*
X43657Y73556D01*
X43781Y74819D01*
X43657Y76083D01*
X43288Y77298D01*
X42689Y78418D01*
X41884Y79400D01*
X40902Y80206D01*
X39782Y80804D01*
X38567Y81173D01*
X37303Y81297D01*
D02*
G37*
G36*
X58957Y64762D02*
X57693Y64638D01*
X56478Y64269D01*
X55358Y63670D01*
X54376Y62865D01*
X53570Y61883D01*
X52972Y60763D01*
X52603Y59548D01*
X52479Y58284D01*
X52603Y57020D01*
X52972Y55805D01*
X53570Y54685D01*
X54376Y53703D01*
X55358Y52898D01*
X56478Y52299D01*
X57693Y51930D01*
X58957Y51806D01*
X60220Y51930D01*
X61436Y52299D01*
X62556Y52898D01*
X63537Y53703D01*
X64343Y54685D01*
X64942Y55805D01*
X65310Y57020D01*
X65435Y58284D01*
X65310Y59548D01*
X64942Y60763D01*
X64343Y61883D01*
X63537Y62865D01*
X62556Y63670D01*
X61436Y64269D01*
X60220Y64638D01*
X58957Y64762D01*
D02*
G37*
G36*
X37303D02*
X36039Y64638D01*
X34824Y64269D01*
X33704Y63670D01*
X32722Y62865D01*
X31917Y61883D01*
X31318Y60763D01*
X30950Y59548D01*
X30825Y58284D01*
X30950Y57020D01*
X31318Y55805D01*
X31917Y54685D01*
X32722Y53703D01*
X33704Y52898D01*
X34824Y52299D01*
X36039Y51930D01*
X37303Y51806D01*
X38567Y51930D01*
X39782Y52299D01*
X40902Y52898D01*
X41884Y53703D01*
X42689Y54685D01*
X43288Y55805D01*
X43657Y57020D01*
X43781Y58284D01*
X43657Y59548D01*
X43288Y60763D01*
X42689Y61883D01*
X41884Y62865D01*
X40902Y63670D01*
X39782Y64269D01*
X38567Y64638D01*
X37303Y64762D01*
D02*
G37*
G36*
X58957Y48227D02*
X57693Y48102D01*
X56478Y47734D01*
X55358Y47135D01*
X54376Y46329D01*
X53570Y45348D01*
X52972Y44228D01*
X52603Y43012D01*
X52479Y41749D01*
X52603Y40485D01*
X52972Y39270D01*
X53570Y38150D01*
X54376Y37168D01*
X55358Y36362D01*
X56478Y35764D01*
X57693Y35395D01*
X58957Y35271D01*
X60220Y35395D01*
X61436Y35764D01*
X62556Y36362D01*
X63537Y37168D01*
X64343Y38150D01*
X64942Y39270D01*
X65310Y40485D01*
X65435Y41749D01*
X65310Y43012D01*
X64942Y44228D01*
X64343Y45348D01*
X63537Y46329D01*
X62556Y47135D01*
X61436Y47734D01*
X60220Y48102D01*
X58957Y48227D01*
D02*
G37*
G36*
X37303D02*
X36039Y48102D01*
X34824Y47734D01*
X33704Y47135D01*
X32722Y46329D01*
X31917Y45348D01*
X31318Y44228D01*
X30950Y43012D01*
X30825Y41749D01*
X30950Y40485D01*
X31318Y39270D01*
X31917Y38150D01*
X32722Y37168D01*
X33704Y36362D01*
X34824Y35764D01*
X36039Y35395D01*
X37303Y35271D01*
X38567Y35395D01*
X39782Y35764D01*
X40902Y36362D01*
X41884Y37168D01*
X42689Y38150D01*
X43288Y39270D01*
X43657Y40485D01*
X43781Y41749D01*
X43657Y43012D01*
X43288Y44228D01*
X42689Y45348D01*
X41884Y46329D01*
X40902Y47135D01*
X39782Y47734D01*
X38567Y48102D01*
X37303Y48227D01*
D02*
G37*
G36*
X343150Y41150D02*
X336850D01*
Y34850D01*
X343150D01*
Y41150D01*
D02*
G37*
G36*
X8563Y48771D02*
X7193Y48636D01*
X5876Y48236D01*
X4662Y47587D01*
X3598Y46714D01*
X2724Y45650D01*
X2076Y44436D01*
X1676Y43119D01*
X1541Y41749D01*
X1676Y40379D01*
X2076Y39061D01*
X2724Y37847D01*
X3598Y36783D01*
X4662Y35910D01*
X5876Y35261D01*
X7193Y34861D01*
X8563Y34727D01*
X9933Y34861D01*
X11250Y35261D01*
X12464Y35910D01*
X13528Y36783D01*
X14402Y37847D01*
X15051Y39061D01*
X15450Y40379D01*
X15585Y41749D01*
X15450Y43119D01*
X15051Y44436D01*
X14402Y45650D01*
X13528Y46714D01*
X12464Y47587D01*
X11250Y48236D01*
X9933Y48636D01*
X8563Y48771D01*
D02*
G37*
G36*
X252535Y44811D02*
X251161Y44630D01*
X249880Y44100D01*
X248780Y43256D01*
X247936Y42156D01*
X247405Y40875D01*
X247224Y39500D01*
X247405Y38125D01*
X247936Y36844D01*
X248780Y35744D01*
X249880Y34900D01*
X251161Y34370D01*
X252535Y34189D01*
X253910Y34370D01*
X255191Y34900D01*
X256291Y35744D01*
X257135Y36844D01*
X257666Y38125D01*
X257847Y39500D01*
X257666Y40875D01*
X257135Y42156D01*
X256291Y43256D01*
X255191Y44100D01*
X253910Y44630D01*
X252535Y44811D01*
D02*
G37*
G36*
X236000D02*
X234625Y44630D01*
X233344Y44100D01*
X232244Y43256D01*
X231400Y42156D01*
X230870Y40875D01*
X230689Y39500D01*
X230870Y38125D01*
X231400Y36844D01*
X232244Y35744D01*
X233344Y34900D01*
X234625Y34370D01*
X236000Y34189D01*
X237375Y34370D01*
X238656Y34900D01*
X239756Y35744D01*
X240600Y36844D01*
X241130Y38125D01*
X241311Y39500D01*
X241130Y40875D01*
X240600Y42156D01*
X239756Y43256D01*
X238656Y44100D01*
X237375Y44630D01*
X236000Y44811D01*
D02*
G37*
G36*
X203035Y44465D02*
X201661Y44284D01*
X200380Y43753D01*
X199280Y42909D01*
X198436Y41809D01*
X197905Y40528D01*
X197724Y39154D01*
X197905Y37779D01*
X198436Y36498D01*
X199280Y35398D01*
X200380Y34554D01*
X201661Y34023D01*
X203035Y33842D01*
X204410Y34023D01*
X205691Y34554D01*
X206791Y35398D01*
X207635Y36498D01*
X208166Y37779D01*
X208347Y39154D01*
X208166Y40528D01*
X207635Y41809D01*
X206791Y42909D01*
X205691Y43753D01*
X204410Y44284D01*
X203035Y44465D01*
D02*
G37*
G36*
X186500D02*
X185125Y44284D01*
X183844Y43753D01*
X182744Y42909D01*
X181900Y41809D01*
X181370Y40528D01*
X181189Y39154D01*
X181370Y37779D01*
X181900Y36498D01*
X182744Y35398D01*
X183844Y34554D01*
X185125Y34023D01*
X186500Y33842D01*
X187875Y34023D01*
X189156Y34554D01*
X190256Y35398D01*
X191100Y36498D01*
X191630Y37779D01*
X191811Y39154D01*
X191630Y40528D01*
X191100Y41809D01*
X190256Y42909D01*
X189156Y43753D01*
X187875Y44284D01*
X186500Y44465D01*
D02*
G37*
G36*
X301500Y43965D02*
X300125Y43784D01*
X298844Y43253D01*
X297744Y42409D01*
X296900Y41309D01*
X296370Y40028D01*
X296189Y38653D01*
X296370Y37279D01*
X296900Y35998D01*
X297744Y34898D01*
X298844Y34054D01*
X300125Y33523D01*
X301500Y33342D01*
X302875Y33523D01*
X304156Y34054D01*
X305256Y34898D01*
X306100Y35998D01*
X306630Y37279D01*
X306811Y38653D01*
X306630Y40028D01*
X306100Y41309D01*
X305256Y42409D01*
X304156Y43253D01*
X302875Y43784D01*
X301500Y43965D01*
D02*
G37*
G36*
X155500D02*
X154125Y43784D01*
X152844Y43253D01*
X151744Y42409D01*
X150900Y41309D01*
X150370Y40028D01*
X150189Y38653D01*
X150370Y37279D01*
X150900Y35998D01*
X151744Y34898D01*
X152844Y34054D01*
X154125Y33523D01*
X155500Y33342D01*
X156875Y33523D01*
X158156Y34054D01*
X159256Y34898D01*
X160100Y35998D01*
X160630Y37279D01*
X160811Y38653D01*
X160630Y40028D01*
X160100Y41309D01*
X159256Y42409D01*
X158156Y43253D01*
X156875Y43784D01*
X155500Y43965D01*
D02*
G37*
G36*
X138965D02*
X137590Y43784D01*
X136309Y43253D01*
X135209Y42409D01*
X134365Y41309D01*
X133834Y40028D01*
X133653Y38653D01*
X133834Y37279D01*
X134365Y35998D01*
X135209Y34898D01*
X136309Y34054D01*
X137590Y33523D01*
X138965Y33342D01*
X140339Y33523D01*
X141620Y34054D01*
X142720Y34898D01*
X143564Y35998D01*
X144095Y37279D01*
X144276Y38653D01*
X144095Y40028D01*
X143564Y41309D01*
X142720Y42409D01*
X141620Y43253D01*
X140339Y43784D01*
X138965Y43965D01*
D02*
G37*
G36*
X108035D02*
X106661Y43784D01*
X105380Y43253D01*
X104280Y42409D01*
X103436Y41309D01*
X102905Y40028D01*
X102724Y38653D01*
X102905Y37279D01*
X103436Y35998D01*
X104280Y34898D01*
X105380Y34054D01*
X106661Y33523D01*
X108035Y33342D01*
X109410Y33523D01*
X110691Y34054D01*
X111791Y34898D01*
X112635Y35998D01*
X113166Y37279D01*
X113347Y38653D01*
X113166Y40028D01*
X112635Y41309D01*
X111791Y42409D01*
X110691Y43253D01*
X109410Y43784D01*
X108035Y43965D01*
D02*
G37*
G36*
X91500D02*
X90125Y43784D01*
X88844Y43253D01*
X87744Y42409D01*
X86900Y41309D01*
X86370Y40028D01*
X86189Y38653D01*
X86370Y37279D01*
X86900Y35998D01*
X87744Y34898D01*
X88844Y34054D01*
X90125Y33523D01*
X91500Y33342D01*
X92875Y33523D01*
X94156Y34054D01*
X95256Y34898D01*
X96100Y35998D01*
X96630Y37279D01*
X96811Y38653D01*
X96630Y40028D01*
X96100Y41309D01*
X95256Y42409D01*
X94156Y43253D01*
X92875Y43784D01*
X91500Y43965D01*
D02*
G37*
G36*
X320004Y43865D02*
X318634Y43730D01*
X317317Y43330D01*
X316103Y42681D01*
X315039Y41808D01*
X314165Y40744D01*
X313516Y39530D01*
X313117Y38212D01*
X312982Y36843D01*
X313117Y35473D01*
X313516Y34155D01*
X314165Y32941D01*
X315039Y31877D01*
X316103Y31004D01*
X317317Y30355D01*
X318634Y29956D01*
X320004Y29820D01*
X321374Y29956D01*
X322691Y30355D01*
X323905Y31004D01*
X324969Y31877D01*
X325842Y32941D01*
X326491Y34155D01*
X326891Y35473D01*
X327026Y36843D01*
X326891Y38212D01*
X326491Y39530D01*
X325842Y40744D01*
X324969Y41808D01*
X323905Y42681D01*
X322691Y43330D01*
X321374Y43730D01*
X320004Y43865D01*
D02*
G37*
G36*
X282996D02*
X281626Y43730D01*
X280309Y43330D01*
X279095Y42681D01*
X278031Y41808D01*
X277157Y40744D01*
X276509Y39530D01*
X276109Y38212D01*
X275974Y36843D01*
X276109Y35473D01*
X276509Y34155D01*
X277157Y32941D01*
X278031Y31877D01*
X279095Y31004D01*
X280309Y30355D01*
X281626Y29956D01*
X282996Y29820D01*
X284366Y29956D01*
X285683Y30355D01*
X286897Y31004D01*
X287961Y31877D01*
X288835Y32941D01*
X289483Y34155D01*
X289883Y35473D01*
X290018Y36843D01*
X289883Y38212D01*
X289483Y39530D01*
X288835Y40744D01*
X287961Y41808D01*
X286897Y42681D01*
X285683Y43330D01*
X284366Y43730D01*
X282996Y43865D01*
D02*
G37*
G36*
X342650Y20150D02*
X336350D01*
Y13850D01*
X342650D01*
Y20150D01*
D02*
G37*
G36*
X257801Y23112D02*
X247270D01*
Y12581D01*
X257801D01*
Y23112D01*
D02*
G37*
G36*
X236000Y23158D02*
X234625Y22977D01*
X233344Y22446D01*
X232244Y21602D01*
X231400Y20502D01*
X230870Y19221D01*
X230689Y17846D01*
X230870Y16472D01*
X231400Y15191D01*
X232244Y14091D01*
X233344Y13247D01*
X234625Y12716D01*
X236000Y12535D01*
X237375Y12716D01*
X238656Y13247D01*
X239756Y14091D01*
X240600Y15191D01*
X241130Y16472D01*
X241311Y17846D01*
X241130Y19221D01*
X240600Y20502D01*
X239756Y21602D01*
X238656Y22446D01*
X237375Y22977D01*
X236000Y23158D01*
D02*
G37*
G36*
X208301Y22766D02*
X197770D01*
Y12234D01*
X208301D01*
Y22766D01*
D02*
G37*
G36*
X186500Y22811D02*
X185125Y22630D01*
X183844Y22100D01*
X182744Y21256D01*
X181900Y20156D01*
X181370Y18875D01*
X181189Y17500D01*
X181370Y16125D01*
X181900Y14844D01*
X182744Y13744D01*
X183844Y12900D01*
X185125Y12370D01*
X186500Y12189D01*
X187875Y12370D01*
X189156Y12900D01*
X190256Y13744D01*
X191100Y14844D01*
X191630Y16125D01*
X191811Y17500D01*
X191630Y18875D01*
X191100Y20156D01*
X190256Y21256D01*
X189156Y22100D01*
X187875Y22630D01*
X186500Y22811D01*
D02*
G37*
G36*
X160766Y22266D02*
X150234D01*
Y11734D01*
X160766D01*
Y22266D01*
D02*
G37*
G36*
X113301D02*
X102770D01*
Y11734D01*
X113301D01*
Y22266D01*
D02*
G37*
G36*
X301500Y22311D02*
X300125Y22130D01*
X298844Y21600D01*
X297744Y20756D01*
X296900Y19656D01*
X296370Y18375D01*
X296189Y17000D01*
X296370Y15625D01*
X296900Y14344D01*
X297744Y13244D01*
X298844Y12400D01*
X300125Y11870D01*
X301500Y11689D01*
X302875Y11870D01*
X304156Y12400D01*
X305256Y13244D01*
X306100Y14344D01*
X306630Y15625D01*
X306811Y17000D01*
X306630Y18375D01*
X306100Y19656D01*
X305256Y20756D01*
X304156Y21600D01*
X302875Y22130D01*
X301500Y22311D01*
D02*
G37*
G36*
X138965D02*
X137590Y22130D01*
X136309Y21600D01*
X135209Y20756D01*
X134365Y19656D01*
X133834Y18375D01*
X133653Y17000D01*
X133834Y15625D01*
X134365Y14344D01*
X135209Y13244D01*
X136309Y12400D01*
X137590Y11870D01*
X138965Y11689D01*
X140339Y11870D01*
X141620Y12400D01*
X142720Y13244D01*
X143564Y14344D01*
X144095Y15625D01*
X144276Y17000D01*
X144095Y18375D01*
X143564Y19656D01*
X142720Y20756D01*
X141620Y21600D01*
X140339Y22130D01*
X138965Y22311D01*
D02*
G37*
G36*
X91500D02*
X90125Y22130D01*
X88844Y21600D01*
X87744Y20756D01*
X86900Y19656D01*
X86370Y18375D01*
X86189Y17000D01*
X86370Y15625D01*
X86900Y14344D01*
X87744Y13244D01*
X88844Y12400D01*
X90125Y11870D01*
X91500Y11689D01*
X92875Y11870D01*
X94156Y12400D01*
X95256Y13244D01*
X96100Y14344D01*
X96630Y15625D01*
X96811Y17000D01*
X96630Y18375D01*
X96100Y19656D01*
X95256Y20756D01*
X94156Y21600D01*
X92875Y22130D01*
X91500Y22311D01*
D02*
G37*
G36*
X366142Y28583D02*
X364134Y28425D01*
X362176Y27955D01*
X360315Y27184D01*
X358598Y26132D01*
X357066Y24824D01*
X355758Y23292D01*
X354706Y21575D01*
X353935Y19714D01*
X353465Y17756D01*
X353307Y15748D01*
X353465Y13740D01*
X353935Y11782D01*
X354706Y9921D01*
X355758Y8204D01*
X357066Y6672D01*
X358598Y5364D01*
X360315Y4312D01*
X362176Y3541D01*
X364134Y3071D01*
X366142Y2913D01*
X368149Y3071D01*
X370108Y3541D01*
X371969Y4312D01*
X373686Y5364D01*
X375217Y6672D01*
X376525Y8204D01*
X377578Y9921D01*
X378348Y11782D01*
X378819Y13740D01*
X378977Y15748D01*
X378819Y17756D01*
X378348Y19714D01*
X377578Y21575D01*
X376525Y23292D01*
X375217Y24824D01*
X373686Y26132D01*
X371969Y27184D01*
X370108Y27955D01*
X368149Y28425D01*
X366142Y28583D01*
D02*
G37*
%LPD*%
D10*
X294807Y45937D02*
Y50937D01*
X308193D01*
Y45937D02*
Y50937D01*
X294807Y45937D02*
X308193D01*
X290870Y8142D02*
Y45937D01*
Y8142D02*
X312130D01*
Y45937D01*
X290870D02*
X312130D01*
X371826Y40115D02*
Y70036D01*
X391708D01*
Y40115D02*
Y70036D01*
X371826Y40115D02*
X391708D01*
X33516Y188193D02*
Y308665D01*
X-16878Y188193D02*
X33516D01*
X-16878D02*
Y308665D01*
X33516D01*
X313504Y126673D02*
Y303839D01*
X383583D01*
Y126673D02*
Y303839D01*
X313504Y126673D02*
X383583D01*
Y95571D02*
Y126673D01*
Y95571D02*
X391457D01*
Y334941D01*
X383583D02*
X391457D01*
X383583Y303839D02*
Y334941D01*
X391457Y129823D02*
X467441D01*
Y300689D01*
X391457D02*
X467441D01*
X96025Y172130D02*
X133820D01*
Y84728D02*
Y172130D01*
X96025Y84728D02*
X133820D01*
X96025D02*
Y172130D01*
X-17421Y168127D02*
X32972D01*
X-17421Y31119D02*
Y168127D01*
Y31119D02*
X32972D01*
Y168127D01*
X37063Y353000D02*
X44937D01*
X41000Y349063D02*
Y356937D01*
D11*
X57445Y13130D02*
Y16870D01*
X50555Y13130D02*
Y16870D01*
Y13130D02*
X57445D01*
X50555Y16870D02*
X57445D01*
X215555Y59630D02*
Y63370D01*
X222445Y59630D02*
Y63370D01*
X215555D02*
X222445D01*
X215555Y59630D02*
X222445D01*
X263165Y8004D02*
Y46587D01*
X223795D02*
X263165D01*
X223795Y8004D02*
Y46587D01*
Y8004D02*
X263165D01*
X213665Y7658D02*
Y46240D01*
X174295D02*
X213665D01*
X174295Y7658D02*
Y46240D01*
Y7658D02*
X213665D01*
X166130Y7158D02*
Y45740D01*
X126760D02*
X166130D01*
X126760Y7158D02*
Y45740D01*
Y7158D02*
X166130D01*
X118665D02*
Y45740D01*
X79295D02*
X118665D01*
X79295Y7158D02*
Y45740D01*
Y7158D02*
X118665D01*
X290158Y292669D02*
Y301331D01*
X284842Y292669D02*
Y301331D01*
X290158D01*
X284842Y292669D02*
X290158D01*
X236500Y277000D02*
Y287000D01*
X246500D01*
Y277000D02*
Y287000D01*
X236500Y277000D02*
X246500D01*
X286000Y133000D02*
Y143000D01*
X296000D01*
Y133000D02*
Y143000D01*
X286000Y133000D02*
X296000D01*
X178000Y211000D02*
Y221000D01*
X188000D01*
Y211000D02*
Y221000D01*
X178000Y211000D02*
X188000D01*
X334500Y12000D02*
Y22000D01*
X344500D01*
Y12000D02*
Y22000D01*
X334500Y12000D02*
X344500D01*
X103000Y304500D02*
Y314500D01*
X113000D01*
Y304500D02*
Y314500D01*
X103000Y304500D02*
X113000D01*
X160000Y97500D02*
Y107500D01*
X170000D01*
Y97500D02*
Y107500D01*
X160000Y97500D02*
X170000D01*
X335000Y33000D02*
Y43000D01*
X345000D01*
Y33000D02*
Y43000D01*
X335000Y33000D02*
X345000D01*
X72335Y350913D02*
Y389496D01*
Y350913D02*
X111705D01*
Y389496D01*
X72335D02*
X111705D01*
X120835Y351260D02*
Y389843D01*
Y351260D02*
X160205D01*
Y389843D01*
X120835D02*
X160205D01*
X169335Y351413D02*
Y389996D01*
Y351413D02*
X208705D01*
Y389996D01*
X169335D02*
X208705D01*
X219335Y351413D02*
Y389996D01*
Y351413D02*
X258705D01*
Y389996D01*
X219335D02*
X258705D01*
X269870Y351913D02*
Y390496D01*
Y351913D02*
X309240D01*
Y390496D01*
X269870D02*
X309240D01*
X261445Y205025D02*
X265776Y209355D01*
X287429D01*
Y183371D02*
Y209355D01*
X265776Y183371D02*
X287429D01*
X261445Y187702D02*
X265776Y183371D01*
X261445Y187702D02*
Y205025D01*
X266055Y217370D02*
X272945D01*
X266055Y213630D02*
X272945D01*
X266055D02*
Y217370D01*
X272945Y213630D02*
Y217370D01*
X202378Y152378D02*
X249622D01*
Y199622D01*
X202378D02*
X249622D01*
X202378Y152378D02*
Y199622D01*
X50055Y326425D02*
Y379575D01*
X-4669D02*
X50055D01*
X-4669Y326425D02*
X50055D01*
X-4669D02*
Y379575D01*
X287567Y77055D02*
Y83945D01*
X291307Y77055D02*
Y83945D01*
X287567Y77055D02*
X291307D01*
X287567Y83945D02*
X291307D01*
X299870Y77055D02*
Y83945D01*
X296130Y77055D02*
Y83945D01*
X299870D01*
X296130Y77055D02*
X299870D01*
X253130Y102555D02*
Y109445D01*
X256870Y102555D02*
Y109445D01*
X253130Y102555D02*
X256870D01*
X253130Y109445D02*
X256870D01*
X282693Y121957D02*
Y129043D01*
X269307Y121957D02*
Y129043D01*
Y121957D02*
X282693D01*
X269307Y129043D02*
X282693D01*
Y111457D02*
Y118543D01*
X269307Y111457D02*
Y118543D01*
Y111457D02*
X282693D01*
X269307Y118543D02*
X282693D01*
X262291Y90512D02*
X267291Y85512D01*
X262291D02*
X281583D01*
Y100866D01*
X262291D02*
X281583D01*
X262291Y85512D02*
Y100866D01*
X269555Y138370D02*
X276445D01*
X269555Y134630D02*
X276445D01*
X269555D02*
Y138370D01*
X276445Y134630D02*
Y138370D01*
X301370Y285555D02*
Y292445D01*
X297630Y285555D02*
Y292445D01*
Y285555D02*
X301370D01*
X297630Y292445D02*
X301370D01*
X218055Y283870D02*
X224945D01*
X218055Y280130D02*
X224945D01*
X218055D02*
Y283870D01*
X224945Y280130D02*
Y283870D01*
X195370Y299055D02*
Y305945D01*
X191630Y299055D02*
Y305945D01*
X195370D01*
X191630Y299055D02*
X195370D01*
X187870D02*
Y305945D01*
X184130Y299055D02*
Y305945D01*
X187870D01*
X184130Y299055D02*
X187870D01*
X168055Y311630D02*
X174945D01*
X168055Y315370D02*
X174945D01*
Y311630D02*
Y315370D01*
X168055Y311630D02*
Y315370D01*
X218555Y244870D02*
X225445D01*
X218555Y241130D02*
X225445D01*
X218555D02*
Y244870D01*
X225445Y241130D02*
Y244870D01*
X216146Y269177D02*
X221146Y264177D01*
X201854Y269177D02*
X221146D01*
X201854Y253823D02*
Y269177D01*
Y253823D02*
X221146D01*
Y269177D01*
X220602Y304705D02*
X223161Y307264D01*
Y304705D02*
Y330295D01*
X205839D02*
X223161D01*
X205839Y304705D02*
Y330295D01*
Y304705D02*
X223161D01*
X203055Y283870D02*
X209945D01*
X203055Y280130D02*
X209945D01*
X203055D02*
Y283870D01*
X209945Y280130D02*
Y283870D01*
X162370Y308055D02*
Y314945D01*
X158630Y308055D02*
Y314945D01*
X162370D01*
X158630Y308055D02*
X162370D01*
X148370Y310055D02*
Y316945D01*
X144630Y310055D02*
Y316945D01*
X148370D01*
X144630Y310055D02*
X148370D01*
X262366Y173244D02*
X290358D01*
X262366Y148756D02*
X290358D01*
X262366D02*
Y173244D01*
X290358Y148756D02*
Y173244D01*
X52130Y15000D02*
X55870D01*
X54000Y13130D02*
Y16870D01*
X217130Y61500D02*
X220870D01*
X219000Y59630D02*
Y63370D01*
X285531Y297000D02*
X289469D01*
X287500Y295031D02*
Y298969D01*
X275024Y6173D02*
Y52905D01*
Y6173D02*
X327976D01*
Y52905D01*
X275024D02*
X327976D01*
X361346Y32635D02*
Y77517D01*
X395645D01*
Y32635D02*
Y77517D01*
X361346Y32635D02*
X395645D01*
X68902Y181894D02*
Y312602D01*
X-20815Y181894D02*
X68902D01*
X-20815D02*
Y312602D01*
X68902D01*
X307205Y91634D02*
Y338878D01*
X471378D01*
Y91634D02*
Y338878D01*
X307205Y91634D02*
X471378D01*
X272468Y196363D02*
X276406D01*
X274437Y194395D02*
Y198332D01*
X269500Y213630D02*
Y217370D01*
X267630Y215500D02*
X271370D01*
X89135Y176067D02*
X137758D01*
X89135Y80791D02*
Y176067D01*
Y80791D02*
X137758D01*
Y176067D01*
X-21358Y172064D02*
X68358D01*
X-21358Y27182D02*
Y172064D01*
Y27182D02*
X68358D01*
Y172064D01*
X287567Y80500D02*
X291307D01*
X289437Y78630D02*
Y82370D01*
X296130Y80500D02*
X299870D01*
X298000Y78630D02*
Y82370D01*
X253130Y106000D02*
X256870D01*
X255000Y104130D02*
Y107870D01*
X274031Y125500D02*
X277969D01*
X276000Y123531D02*
Y127469D01*
X274031Y115000D02*
X277969D01*
X276000Y113031D02*
Y116969D01*
X273000Y134630D02*
Y138370D01*
X271130Y136500D02*
X274870D01*
X297630Y289000D02*
X301370D01*
X299500Y287130D02*
Y290870D01*
X221500Y280130D02*
Y283870D01*
X219630Y282000D02*
X223370D01*
X191630Y302500D02*
X195370D01*
X193500Y300630D02*
Y304370D01*
X184130Y302500D02*
X187870D01*
X186000Y300630D02*
Y304370D01*
X171500Y311630D02*
Y315370D01*
X169630Y313500D02*
X173370D01*
X222000Y241130D02*
Y244870D01*
X220130Y243000D02*
X223870D01*
X206500Y280130D02*
Y283870D01*
X204630Y282000D02*
X208370D01*
X158630Y311500D02*
X162370D01*
X160500Y309630D02*
Y313370D01*
X144630Y313500D02*
X148370D01*
X146500Y311630D02*
Y315370D01*
X276362Y159031D02*
Y162969D01*
X274394Y161000D02*
X278331D01*
D14*
X264249D02*
D03*
D15*
X59315Y12047D02*
Y17953D01*
X48685Y12047D02*
Y17953D01*
Y12047D02*
X59315D01*
X48685Y17953D02*
X59315D01*
X213685Y58547D02*
Y64453D01*
X224315Y58547D02*
Y64453D01*
X213685D02*
X224315D01*
X213685Y58547D02*
X224315D01*
X264150Y7020D02*
Y47571D01*
X222811D02*
X264150D01*
X222811Y7020D02*
Y47571D01*
Y7020D02*
X264150D01*
X214650Y6673D02*
Y47224D01*
X173311D02*
X214650D01*
X173311Y6673D02*
Y47224D01*
Y6673D02*
X214650D01*
X167114Y6173D02*
Y46724D01*
X125776D02*
X167114D01*
X125776Y6173D02*
Y46724D01*
Y6173D02*
X167114D01*
X119650D02*
Y46724D01*
X78311D02*
X119650D01*
X78311Y6173D02*
Y46724D01*
Y6173D02*
X119650D01*
X291240Y289500D02*
Y304500D01*
X283760Y289500D02*
Y304500D01*
X291240D01*
X283760Y289500D02*
X291240D01*
X235516Y276016D02*
Y287984D01*
X247484D01*
Y276016D02*
Y287984D01*
X235516Y276016D02*
X247484D01*
X285016Y132016D02*
Y143984D01*
X296984D01*
Y132016D02*
Y143984D01*
X285016Y132016D02*
X296984D01*
X177016Y210016D02*
Y221984D01*
X188984D01*
Y210016D02*
Y221984D01*
X177016Y210016D02*
X188984D01*
X333516Y11016D02*
Y22984D01*
X345484D01*
Y11016D02*
Y22984D01*
X333516Y11016D02*
X345484D01*
X102016Y303516D02*
Y315484D01*
X113984D01*
Y303516D02*
Y315484D01*
X102016Y303516D02*
X113984D01*
X159016Y96516D02*
Y108484D01*
X170984D01*
Y96516D02*
Y108484D01*
X159016Y96516D02*
X170984D01*
X334016Y32016D02*
Y43984D01*
X345984D01*
Y32016D02*
Y43984D01*
X334016Y32016D02*
X345984D01*
X71350Y349929D02*
Y390480D01*
Y349929D02*
X112689D01*
Y390480D01*
X71350D02*
X112689D01*
X119850Y350276D02*
Y390827D01*
Y350276D02*
X161189D01*
Y390827D01*
X119850D02*
X161189D01*
X168350Y350429D02*
Y390980D01*
Y350429D02*
X209689D01*
Y390980D01*
X168350D02*
X209689D01*
X218350Y350429D02*
Y390980D01*
Y350429D02*
X259689D01*
Y390980D01*
X218350D02*
X259689D01*
X268886Y350929D02*
Y391480D01*
Y350929D02*
X310224D01*
Y391480D01*
X268886D02*
X310224D01*
X257508Y182190D02*
Y210537D01*
X291366Y182190D02*
Y210537D01*
X257508D02*
X291366D01*
X257508Y182190D02*
X291366D01*
X264185Y218453D02*
X274815D01*
X264185Y212547D02*
X274815D01*
X264185D02*
Y218453D01*
X274815Y212547D02*
Y218453D01*
X200803Y148736D02*
X251197D01*
Y203264D01*
X200803D02*
X251197D01*
X200803Y148736D02*
Y203264D01*
X-5457Y319535D02*
Y386465D01*
X57535D02*
X57535Y319535D01*
X-5457D02*
X57535D01*
X-5457Y386465D02*
X57535D01*
X286484Y75185D02*
Y85815D01*
X292390Y75185D02*
Y85815D01*
X286484Y75185D02*
X292390D01*
X286484Y85815D02*
X292390D01*
X300953Y75185D02*
Y85815D01*
X295047Y75185D02*
Y85815D01*
X300953D01*
X295047Y75185D02*
X300953D01*
X252047Y100685D02*
Y111315D01*
X257953Y100685D02*
Y111315D01*
X252047Y100685D02*
X257953D01*
X252047Y111315D02*
X257953D01*
X285252Y120972D02*
Y130028D01*
X266748Y120972D02*
Y130028D01*
Y120972D02*
X285252D01*
X266748Y130028D02*
X285252D01*
Y110472D02*
Y119528D01*
X266748Y110472D02*
Y119528D01*
Y110472D02*
X285252D01*
X266748Y119528D02*
X285252D01*
X261110Y78524D02*
X282764D01*
Y107854D01*
X261110D02*
X282764D01*
X261110Y78524D02*
Y107854D01*
X267685Y139453D02*
X278315D01*
X267685Y133547D02*
X278315D01*
X267685D02*
Y139453D01*
X278315Y133547D02*
Y139453D01*
X302453Y283685D02*
Y294315D01*
X296547Y283685D02*
Y294315D01*
Y283685D02*
X302453D01*
X296547Y294315D02*
X302453D01*
X216185Y284953D02*
X226815D01*
X216185Y279047D02*
X226815D01*
X216185D02*
Y284953D01*
X226815Y279047D02*
Y284953D01*
X196453Y297185D02*
Y307815D01*
X190547Y297185D02*
Y307815D01*
X196453D01*
X190547Y297185D02*
X196453D01*
X188953D02*
Y307815D01*
X183047Y297185D02*
Y307815D01*
X188953D01*
X183047Y297185D02*
X188953D01*
X166185Y310547D02*
X176815D01*
X166185Y316453D02*
X176815D01*
Y310547D02*
Y316453D01*
X166185Y310547D02*
Y316453D01*
X216685Y245953D02*
X227315D01*
X216685Y240047D02*
X227315D01*
X216685D02*
Y245953D01*
X227315Y240047D02*
Y245953D01*
X200870Y276067D02*
X222130D01*
X200870Y246933D02*
Y276067D01*
Y246933D02*
X222130D01*
Y276067D01*
X229953Y303524D02*
Y331476D01*
X199047D02*
X229953D01*
X199047Y303524D02*
Y331476D01*
Y303524D02*
X229953D01*
X201185Y284953D02*
X211815D01*
X201185Y279047D02*
X211815D01*
X201185D02*
Y284953D01*
X211815Y279047D02*
Y284953D01*
X163453Y306185D02*
Y316815D01*
X157547Y306185D02*
Y316815D01*
X163453D01*
X157547Y306185D02*
X163453D01*
X149453Y308185D02*
Y318815D01*
X143547Y308185D02*
Y318815D01*
X149453D01*
X143547Y308185D02*
X149453D01*
X258646Y174386D02*
X294079D01*
X258646Y147614D02*
X294079D01*
X258646D02*
Y174386D01*
X294079Y147614D02*
Y174386D01*
D71*
X82965Y379654D02*
D03*
X131465Y380000D02*
D03*
X179965Y380153D02*
D03*
X229965D02*
D03*
X280500Y380654D02*
D03*
D73*
X241500Y282000D02*
D03*
X183000Y216000D02*
D03*
D78*
X104884Y95358D02*
D03*
D81*
X146074Y322426D02*
D03*
X232000Y217000D02*
D03*
X226500D02*
D03*
X250500D02*
D03*
X246000D02*
D03*
X241500D02*
D03*
X237000D02*
D03*
X298000Y88000D02*
D03*
X209000Y243000D02*
D03*
X232663Y313663D02*
D03*
X181000Y305000D02*
D03*
X218500Y287500D02*
D03*
X197661Y321339D02*
D03*
X232663Y321337D02*
D03*
X197500Y329000D02*
D03*
D82*
X359293Y50106D02*
D03*
D83*
X61500Y367500D02*
D03*
M02*
