G04*
G04 #@! TF.GenerationSoftware,Altium Limited,Altium Designer,21.0.9 (235)*
G04*
G04 Layer_Color=16711935*
%FSLAX25Y25*%
%MOIN*%
G70*
G04*
G04 #@! TF.SameCoordinates,FB9C7817-38CD-48DC-A3D4-53DF82CEFDAB*
G04*
G04*
G04 #@! TF.FilePolarity,Negative*
G04*
G01*
G75*
%ADD10C,0.00787*%
%ADD11C,0.00394*%
%ADD14R,0.03765X0.24488*%
%ADD15C,0.00197*%
%ADD44R,0.04331X0.03937*%
%ADD52C,0.09153*%
%ADD53R,0.09153X0.09153*%
%ADD54C,0.24213*%
%ADD55R,0.04921X0.04921*%
%ADD56C,0.06594*%
%ADD57C,0.11516*%
%ADD58C,0.10925*%
%ADD59C,0.17894*%
%ADD60C,0.08858*%
%ADD61O,0.16339X0.11614*%
%ADD62O,0.19488X0.11614*%
%ADD63C,0.02362*%
%ADD64C,0.02953*%
%ADD65C,0.03740*%
%ADD66C,0.03347*%
D10*
X294807Y45937D02*
Y50937D01*
X308193D01*
Y45937D02*
Y50937D01*
X294807Y45937D02*
X308193D01*
X290870Y8142D02*
Y45937D01*
Y8142D02*
X312130D01*
Y45937D01*
X290870D02*
X312130D01*
X371826Y40115D02*
Y70036D01*
X391708D01*
Y40115D02*
Y70036D01*
X371826Y40115D02*
X391708D01*
X33516Y188193D02*
Y308665D01*
X-16878Y188193D02*
X33516D01*
X-16878D02*
Y308665D01*
X33516D01*
X313504Y126673D02*
Y303839D01*
X383583D01*
Y126673D02*
Y303839D01*
X313504Y126673D02*
X383583D01*
Y95571D02*
Y126673D01*
Y95571D02*
X391457D01*
Y334941D01*
X383583D02*
X391457D01*
X383583Y303839D02*
Y334941D01*
X391457Y129823D02*
X467441D01*
Y300689D01*
X391457D02*
X467441D01*
X96025Y172130D02*
X133820D01*
Y84728D02*
Y172130D01*
X96025Y84728D02*
X133820D01*
X96025D02*
Y172130D01*
X-17421Y168127D02*
X32972D01*
X-17421Y31119D02*
Y168127D01*
Y31119D02*
X32972D01*
Y168127D01*
X37063Y353000D02*
X44937D01*
X41000Y349063D02*
Y356937D01*
D11*
X57445Y13130D02*
Y16870D01*
X50555Y13130D02*
Y16870D01*
Y13130D02*
X57445D01*
X50555Y16870D02*
X57445D01*
X215555Y59630D02*
Y63370D01*
X222445Y59630D02*
Y63370D01*
X215555D02*
X222445D01*
X215555Y59630D02*
X222445D01*
X263165Y8004D02*
Y46587D01*
X223795D02*
X263165D01*
X223795Y8004D02*
Y46587D01*
Y8004D02*
X263165D01*
X213665Y7658D02*
Y46240D01*
X174295D02*
X213665D01*
X174295Y7658D02*
Y46240D01*
Y7658D02*
X213665D01*
X166130Y7158D02*
Y45740D01*
X126760D02*
X166130D01*
X126760Y7158D02*
Y45740D01*
Y7158D02*
X166130D01*
X118665D02*
Y45740D01*
X79295D02*
X118665D01*
X79295Y7158D02*
Y45740D01*
Y7158D02*
X118665D01*
X290158Y292669D02*
Y301331D01*
X284842Y292669D02*
Y301331D01*
X290158D01*
X284842Y292669D02*
X290158D01*
X236500Y277000D02*
Y287000D01*
X246500D01*
Y277000D02*
Y287000D01*
X236500Y277000D02*
X246500D01*
X286000Y133000D02*
Y143000D01*
X296000D01*
Y133000D02*
Y143000D01*
X286000Y133000D02*
X296000D01*
X178000Y211000D02*
Y221000D01*
X188000D01*
Y211000D02*
Y221000D01*
X178000Y211000D02*
X188000D01*
X334500Y12000D02*
Y22000D01*
X344500D01*
Y12000D02*
Y22000D01*
X334500Y12000D02*
X344500D01*
X103000Y304500D02*
Y314500D01*
X113000D01*
Y304500D02*
Y314500D01*
X103000Y304500D02*
X113000D01*
X160000Y97500D02*
Y107500D01*
X170000D01*
Y97500D02*
Y107500D01*
X160000Y97500D02*
X170000D01*
X335000Y33000D02*
Y43000D01*
X345000D01*
Y33000D02*
Y43000D01*
X335000Y33000D02*
X345000D01*
X72335Y350913D02*
Y389496D01*
Y350913D02*
X111705D01*
Y389496D01*
X72335D02*
X111705D01*
X120835Y351260D02*
Y389843D01*
Y351260D02*
X160205D01*
Y389843D01*
X120835D02*
X160205D01*
X169335Y351413D02*
Y389996D01*
Y351413D02*
X208705D01*
Y389996D01*
X169335D02*
X208705D01*
X219335Y351413D02*
Y389996D01*
Y351413D02*
X258705D01*
Y389996D01*
X219335D02*
X258705D01*
X269870Y351913D02*
Y390496D01*
Y351913D02*
X309240D01*
Y390496D01*
X269870D02*
X309240D01*
X261445Y205025D02*
X265776Y209355D01*
X287429D01*
Y183371D02*
Y209355D01*
X265776Y183371D02*
X287429D01*
X261445Y187702D02*
X265776Y183371D01*
X261445Y187702D02*
Y205025D01*
X266055Y217370D02*
X272945D01*
X266055Y213630D02*
X272945D01*
X266055D02*
Y217370D01*
X272945Y213630D02*
Y217370D01*
X202378Y152378D02*
X249622D01*
Y199622D01*
X202378D02*
X249622D01*
X202378Y152378D02*
Y199622D01*
X50055Y326425D02*
Y379575D01*
X-4669D02*
X50055D01*
X-4669Y326425D02*
X50055D01*
X-4669D02*
Y379575D01*
X287567Y77055D02*
Y83945D01*
X291307Y77055D02*
Y83945D01*
X287567Y77055D02*
X291307D01*
X287567Y83945D02*
X291307D01*
X299870Y77055D02*
Y83945D01*
X296130Y77055D02*
Y83945D01*
X299870D01*
X296130Y77055D02*
X299870D01*
X253130Y102555D02*
Y109445D01*
X256870Y102555D02*
Y109445D01*
X253130Y102555D02*
X256870D01*
X253130Y109445D02*
X256870D01*
X282693Y121957D02*
Y129043D01*
X269307Y121957D02*
Y129043D01*
Y121957D02*
X282693D01*
X269307Y129043D02*
X282693D01*
Y111457D02*
Y118543D01*
X269307Y111457D02*
Y118543D01*
Y111457D02*
X282693D01*
X269307Y118543D02*
X282693D01*
X262291Y90512D02*
X267291Y85512D01*
X262291D02*
X281583D01*
Y100866D01*
X262291D02*
X281583D01*
X262291Y85512D02*
Y100866D01*
X269555Y138370D02*
X276445D01*
X269555Y134630D02*
X276445D01*
X269555D02*
Y138370D01*
X276445Y134630D02*
Y138370D01*
X301370Y285555D02*
Y292445D01*
X297630Y285555D02*
Y292445D01*
Y285555D02*
X301370D01*
X297630Y292445D02*
X301370D01*
X218055Y283870D02*
X224945D01*
X218055Y280130D02*
X224945D01*
X218055D02*
Y283870D01*
X224945Y280130D02*
Y283870D01*
X195370Y299055D02*
Y305945D01*
X191630Y299055D02*
Y305945D01*
X195370D01*
X191630Y299055D02*
X195370D01*
X187870D02*
Y305945D01*
X184130Y299055D02*
Y305945D01*
X187870D01*
X184130Y299055D02*
X187870D01*
X168055Y311630D02*
X174945D01*
X168055Y315370D02*
X174945D01*
Y311630D02*
Y315370D01*
X168055Y311630D02*
Y315370D01*
X218555Y244870D02*
X225445D01*
X218555Y241130D02*
X225445D01*
X218555D02*
Y244870D01*
X225445Y241130D02*
Y244870D01*
X216146Y269177D02*
X221146Y264177D01*
X201854Y269177D02*
X221146D01*
X201854Y253823D02*
Y269177D01*
Y253823D02*
X221146D01*
Y269177D01*
X220602Y304705D02*
X223161Y307264D01*
Y304705D02*
Y330295D01*
X205839D02*
X223161D01*
X205839Y304705D02*
Y330295D01*
Y304705D02*
X223161D01*
X203055Y283870D02*
X209945D01*
X203055Y280130D02*
X209945D01*
X203055D02*
Y283870D01*
X209945Y280130D02*
Y283870D01*
X162370Y308055D02*
Y314945D01*
X158630Y308055D02*
Y314945D01*
X162370D01*
X158630Y308055D02*
X162370D01*
X148370Y310055D02*
Y316945D01*
X144630Y310055D02*
Y316945D01*
X148370D01*
X144630Y310055D02*
X148370D01*
X262366Y173244D02*
X290358D01*
X262366Y148756D02*
X290358D01*
X262366D02*
Y173244D01*
X290358Y148756D02*
Y173244D01*
X52130Y15000D02*
X55870D01*
X54000Y13130D02*
Y16870D01*
X217130Y61500D02*
X220870D01*
X219000Y59630D02*
Y63370D01*
X285531Y297000D02*
X289469D01*
X287500Y295031D02*
Y298969D01*
X275024Y6173D02*
Y52905D01*
Y6173D02*
X327976D01*
Y52905D01*
X275024D02*
X327976D01*
X361346Y32635D02*
Y77517D01*
X395645D01*
Y32635D02*
Y77517D01*
X361346Y32635D02*
X395645D01*
X68902Y181894D02*
Y312602D01*
X-20815Y181894D02*
X68902D01*
X-20815D02*
Y312602D01*
X68902D01*
X307205Y91634D02*
Y338878D01*
X471378D01*
Y91634D02*
Y338878D01*
X307205Y91634D02*
X471378D01*
X272468Y196363D02*
X276406D01*
X274437Y194395D02*
Y198332D01*
X269500Y213630D02*
Y217370D01*
X267630Y215500D02*
X271370D01*
X89135Y176067D02*
X137758D01*
X89135Y80791D02*
Y176067D01*
Y80791D02*
X137758D01*
Y176067D01*
X-21358Y172064D02*
X68358D01*
X-21358Y27182D02*
Y172064D01*
Y27182D02*
X68358D01*
Y172064D01*
X287567Y80500D02*
X291307D01*
X289437Y78630D02*
Y82370D01*
X296130Y80500D02*
X299870D01*
X298000Y78630D02*
Y82370D01*
X253130Y106000D02*
X256870D01*
X255000Y104130D02*
Y107870D01*
X274031Y125500D02*
X277969D01*
X276000Y123531D02*
Y127469D01*
X274031Y115000D02*
X277969D01*
X276000Y113031D02*
Y116969D01*
X273000Y134630D02*
Y138370D01*
X271130Y136500D02*
X274870D01*
X297630Y289000D02*
X301370D01*
X299500Y287130D02*
Y290870D01*
X221500Y280130D02*
Y283870D01*
X219630Y282000D02*
X223370D01*
X191630Y302500D02*
X195370D01*
X193500Y300630D02*
Y304370D01*
X184130Y302500D02*
X187870D01*
X186000Y300630D02*
Y304370D01*
X171500Y311630D02*
Y315370D01*
X169630Y313500D02*
X173370D01*
X222000Y241130D02*
Y244870D01*
X220130Y243000D02*
X223870D01*
X206500Y280130D02*
Y283870D01*
X204630Y282000D02*
X208370D01*
X158630Y311500D02*
X162370D01*
X160500Y309630D02*
Y313370D01*
X144630Y313500D02*
X148370D01*
X146500Y311630D02*
Y315370D01*
X276362Y159031D02*
Y162969D01*
X274394Y161000D02*
X278331D01*
D14*
X264249D02*
D03*
D15*
X59315Y12047D02*
Y17953D01*
X48685Y12047D02*
Y17953D01*
Y12047D02*
X59315D01*
X48685Y17953D02*
X59315D01*
X213685Y58547D02*
Y64453D01*
X224315Y58547D02*
Y64453D01*
X213685D02*
X224315D01*
X213685Y58547D02*
X224315D01*
X264150Y7020D02*
Y47571D01*
X222811D02*
X264150D01*
X222811Y7020D02*
Y47571D01*
Y7020D02*
X264150D01*
X214650Y6673D02*
Y47224D01*
X173311D02*
X214650D01*
X173311Y6673D02*
Y47224D01*
Y6673D02*
X214650D01*
X167114Y6173D02*
Y46724D01*
X125776D02*
X167114D01*
X125776Y6173D02*
Y46724D01*
Y6173D02*
X167114D01*
X119650D02*
Y46724D01*
X78311D02*
X119650D01*
X78311Y6173D02*
Y46724D01*
Y6173D02*
X119650D01*
X291240Y289500D02*
Y304500D01*
X283760Y289500D02*
Y304500D01*
X291240D01*
X283760Y289500D02*
X291240D01*
X235516Y276016D02*
Y287984D01*
X247484D01*
Y276016D02*
Y287984D01*
X235516Y276016D02*
X247484D01*
X285016Y132016D02*
Y143984D01*
X296984D01*
Y132016D02*
Y143984D01*
X285016Y132016D02*
X296984D01*
X177016Y210016D02*
Y221984D01*
X188984D01*
Y210016D02*
Y221984D01*
X177016Y210016D02*
X188984D01*
X333516Y11016D02*
Y22984D01*
X345484D01*
Y11016D02*
Y22984D01*
X333516Y11016D02*
X345484D01*
X102016Y303516D02*
Y315484D01*
X113984D01*
Y303516D02*
Y315484D01*
X102016Y303516D02*
X113984D01*
X159016Y96516D02*
Y108484D01*
X170984D01*
Y96516D02*
Y108484D01*
X159016Y96516D02*
X170984D01*
X334016Y32016D02*
Y43984D01*
X345984D01*
Y32016D02*
Y43984D01*
X334016Y32016D02*
X345984D01*
X71350Y349929D02*
Y390480D01*
Y349929D02*
X112689D01*
Y390480D01*
X71350D02*
X112689D01*
X119850Y350276D02*
Y390827D01*
Y350276D02*
X161189D01*
Y390827D01*
X119850D02*
X161189D01*
X168350Y350429D02*
Y390980D01*
Y350429D02*
X209689D01*
Y390980D01*
X168350D02*
X209689D01*
X218350Y350429D02*
Y390980D01*
Y350429D02*
X259689D01*
Y390980D01*
X218350D02*
X259689D01*
X268886Y350929D02*
Y391480D01*
Y350929D02*
X310224D01*
Y391480D01*
X268886D02*
X310224D01*
X257508Y182190D02*
Y210537D01*
X291366Y182190D02*
Y210537D01*
X257508D02*
X291366D01*
X257508Y182190D02*
X291366D01*
X264185Y218453D02*
X274815D01*
X264185Y212547D02*
X274815D01*
X264185D02*
Y218453D01*
X274815Y212547D02*
Y218453D01*
X200803Y148736D02*
X251197D01*
Y203264D01*
X200803D02*
X251197D01*
X200803Y148736D02*
Y203264D01*
X-5457Y319535D02*
Y386465D01*
X57535D02*
X57535Y319535D01*
X-5457D02*
X57535D01*
X-5457Y386465D02*
X57535D01*
X286484Y75185D02*
Y85815D01*
X292390Y75185D02*
Y85815D01*
X286484Y75185D02*
X292390D01*
X286484Y85815D02*
X292390D01*
X300953Y75185D02*
Y85815D01*
X295047Y75185D02*
Y85815D01*
X300953D01*
X295047Y75185D02*
X300953D01*
X252047Y100685D02*
Y111315D01*
X257953Y100685D02*
Y111315D01*
X252047Y100685D02*
X257953D01*
X252047Y111315D02*
X257953D01*
X285252Y120972D02*
Y130028D01*
X266748Y120972D02*
Y130028D01*
Y120972D02*
X285252D01*
X266748Y130028D02*
X285252D01*
Y110472D02*
Y119528D01*
X266748Y110472D02*
Y119528D01*
Y110472D02*
X285252D01*
X266748Y119528D02*
X285252D01*
X261110Y78524D02*
X282764D01*
Y107854D01*
X261110D02*
X282764D01*
X261110Y78524D02*
Y107854D01*
X267685Y139453D02*
X278315D01*
X267685Y133547D02*
X278315D01*
X267685D02*
Y139453D01*
X278315Y133547D02*
Y139453D01*
X302453Y283685D02*
Y294315D01*
X296547Y283685D02*
Y294315D01*
Y283685D02*
X302453D01*
X296547Y294315D02*
X302453D01*
X216185Y284953D02*
X226815D01*
X216185Y279047D02*
X226815D01*
X216185D02*
Y284953D01*
X226815Y279047D02*
Y284953D01*
X196453Y297185D02*
Y307815D01*
X190547Y297185D02*
Y307815D01*
X196453D01*
X190547Y297185D02*
X196453D01*
X188953D02*
Y307815D01*
X183047Y297185D02*
Y307815D01*
X188953D01*
X183047Y297185D02*
X188953D01*
X166185Y310547D02*
X176815D01*
X166185Y316453D02*
X176815D01*
Y310547D02*
Y316453D01*
X166185Y310547D02*
Y316453D01*
X216685Y245953D02*
X227315D01*
X216685Y240047D02*
X227315D01*
X216685D02*
Y245953D01*
X227315Y240047D02*
Y245953D01*
X200870Y276067D02*
X222130D01*
X200870Y246933D02*
Y276067D01*
Y246933D02*
X222130D01*
Y276067D01*
X229953Y303524D02*
Y331476D01*
X199047D02*
X229953D01*
X199047Y303524D02*
Y331476D01*
Y303524D02*
X229953D01*
X201185Y284953D02*
X211815D01*
X201185Y279047D02*
X211815D01*
X201185D02*
Y284953D01*
X211815Y279047D02*
Y284953D01*
X163453Y306185D02*
Y316815D01*
X157547Y306185D02*
Y316815D01*
X163453D01*
X157547Y306185D02*
X163453D01*
X149453Y308185D02*
Y318815D01*
X143547Y308185D02*
Y318815D01*
X149453D01*
X143547Y308185D02*
X149453D01*
X258646Y174386D02*
X294079D01*
X258646Y147614D02*
X294079D01*
X258646D02*
Y174386D01*
X294079Y147614D02*
Y174386D01*
D44*
X299500Y286441D02*
D03*
Y291559D02*
D03*
D52*
X236000Y39500D02*
D03*
Y17846D02*
D03*
X252535Y39500D02*
D03*
X186500Y39154D02*
D03*
Y17500D02*
D03*
X203035Y39154D02*
D03*
X138965Y38653D02*
D03*
Y17000D02*
D03*
X155500Y38653D02*
D03*
X91500D02*
D03*
Y17000D02*
D03*
X108035Y38653D02*
D03*
X301500D02*
D03*
Y17000D02*
D03*
X99500Y358000D02*
D03*
Y379654D02*
D03*
X82965Y358000D02*
D03*
X148000Y358347D02*
D03*
Y380000D02*
D03*
X131465Y358347D02*
D03*
X196500Y358500D02*
D03*
Y380153D02*
D03*
X179965Y358500D02*
D03*
X246500D02*
D03*
Y380153D02*
D03*
X229965Y358500D02*
D03*
X297035Y359000D02*
D03*
Y380654D02*
D03*
X280500Y359000D02*
D03*
D53*
X252535Y17846D02*
D03*
X203035Y17500D02*
D03*
X155500Y17000D02*
D03*
X108035D02*
D03*
X82965Y379654D02*
D03*
X131465Y380000D02*
D03*
X179965Y380153D02*
D03*
X229965D02*
D03*
X280500Y380654D02*
D03*
D54*
X100500Y203500D02*
D03*
X366142Y15748D02*
D03*
Y377953D02*
D03*
D55*
X241500Y282000D02*
D03*
X291000Y138000D02*
D03*
X183000Y216000D02*
D03*
X339500Y17000D02*
D03*
X108000Y309500D02*
D03*
X165000Y102500D02*
D03*
X340000Y38000D02*
D03*
D56*
X320004Y36843D02*
D03*
X282996D02*
D03*
X9106Y198823D02*
D03*
Y298035D02*
D03*
X8563Y41749D02*
D03*
Y157497D02*
D03*
D57*
X37846Y198823D02*
D03*
Y215358D02*
D03*
Y231894D02*
D03*
Y248429D02*
D03*
Y264965D02*
D03*
Y281500D02*
D03*
Y298035D02*
D03*
X59500Y198823D02*
D03*
Y215358D02*
D03*
Y231894D02*
D03*
Y248429D02*
D03*
Y264965D02*
D03*
Y281500D02*
D03*
Y298035D02*
D03*
X58957Y157497D02*
D03*
Y140961D02*
D03*
Y124426D02*
D03*
Y107890D02*
D03*
Y91355D02*
D03*
Y74819D02*
D03*
Y58284D02*
D03*
Y41749D02*
D03*
X37303Y157497D02*
D03*
Y140961D02*
D03*
Y124426D02*
D03*
Y107890D02*
D03*
Y91355D02*
D03*
Y74819D02*
D03*
Y58284D02*
D03*
Y41749D02*
D03*
D58*
X329252Y160138D02*
D03*
Y175886D02*
D03*
Y191634D02*
D03*
Y207382D02*
D03*
Y223130D02*
D03*
Y238878D02*
D03*
Y254626D02*
D03*
Y270374D02*
D03*
X345000Y168012D02*
D03*
Y183760D02*
D03*
Y199508D02*
D03*
Y215256D02*
D03*
Y231004D02*
D03*
Y246752D02*
D03*
Y262500D02*
D03*
X360748Y160138D02*
D03*
Y175886D02*
D03*
Y191634D02*
D03*
Y207382D02*
D03*
Y223130D02*
D03*
Y238878D02*
D03*
Y254626D02*
D03*
Y270374D02*
D03*
D59*
X346969Y134547D02*
D03*
Y295965D02*
D03*
D60*
X126537Y161500D02*
D03*
Y144965D02*
D03*
Y128429D02*
D03*
Y111894D02*
D03*
Y95358D02*
D03*
X104884Y161500D02*
D03*
Y144965D02*
D03*
Y128429D02*
D03*
Y111894D02*
D03*
Y95358D02*
D03*
D61*
X41000Y378394D02*
D03*
Y327606D02*
D03*
D62*
X13795Y380165D02*
D03*
Y325835D02*
D03*
D63*
X146074Y322426D02*
D03*
X195969Y310961D02*
D03*
X153061Y310939D02*
D03*
X232000Y217000D02*
D03*
X226500D02*
D03*
X250500D02*
D03*
X246000D02*
D03*
X241500D02*
D03*
X237000D02*
D03*
X298000Y88000D02*
D03*
X209000Y243000D02*
D03*
X232663Y313663D02*
D03*
X181000Y305000D02*
D03*
X218500Y287500D02*
D03*
X293000Y291500D02*
D03*
X197661Y321339D02*
D03*
X232663Y321337D02*
D03*
X197500Y329000D02*
D03*
D64*
X359293Y50106D02*
D03*
D65*
X61500Y367500D02*
D03*
D66*
X270342Y144443D02*
D03*
M02*
