G04*
G04 #@! TF.GenerationSoftware,Altium Limited,Altium Designer,21.0.9 (235)*
G04*
G04 Layer_Physical_Order=1*
G04 Layer_Color=255*
%FSLAX25Y25*%
%MOIN*%
G70*
G04*
G04 #@! TF.SameCoordinates,FB9C7817-38CD-48DC-A3D4-53DF82CEFDAB*
G04*
G04*
G04 #@! TF.FilePolarity,Positive*
G04*
G01*
G75*
%ADD10C,0.00787*%
%ADD11C,0.00394*%
%ADD13C,0.01000*%
%ADD14R,0.03765X0.24488*%
%ADD15C,0.00197*%
%ADD16R,0.03347X0.03740*%
%ADD17R,0.04724X0.04724*%
%ADD18R,0.05315X0.01575*%
%ADD19R,0.06299X0.08268*%
%ADD20R,0.07480X0.07087*%
%ADD21R,0.07480X0.07480*%
%ADD22R,0.12598X0.06299*%
%ADD23R,0.03543X0.03937*%
%ADD24R,0.20079X0.12402*%
%ADD25O,0.12795X0.05906*%
%ADD26R,0.03740X0.03347*%
%ADD27R,0.03937X0.03543*%
%ADD28R,0.05118X0.07087*%
%ADD29R,0.12205X0.09449*%
%ADD30R,0.02559X0.06004*%
%ADD31R,0.02559X0.05906*%
%ADD32R,0.05807X0.01772*%
%ADD33R,0.09646X0.12402*%
%ADD67C,0.03937*%
%ADD68C,0.01968*%
%ADD69C,0.00400*%
%ADD70C,0.08563*%
%ADD71R,0.08563X0.08563*%
%ADD72C,0.23622*%
%ADD73R,0.04331X0.04331*%
%ADD74C,0.06004*%
%ADD75C,0.10925*%
%ADD76C,0.10335*%
%ADD77C,0.17303*%
%ADD78C,0.08268*%
%ADD79O,0.15748X0.11024*%
%ADD80O,0.18898X0.11024*%
%ADD81C,0.01772*%
%ADD82C,0.02362*%
%ADD83C,0.03150*%
%ADD84C,0.02756*%
G36*
X385697Y803D02*
X309165D01*
Y14869D01*
X336350D01*
Y13850D01*
X342650D01*
Y20150D01*
X336350D01*
Y19131D01*
X309165D01*
Y26600D01*
X308853Y27353D01*
X308100Y27665D01*
X134054D01*
X133668Y28052D01*
X133713Y36291D01*
X134204Y36388D01*
X134934Y34623D01*
X138965Y32954D01*
X142995Y34623D01*
X144664Y38653D01*
X142995Y42684D01*
X138965Y44353D01*
X134934Y42684D01*
X134229Y40981D01*
X133739Y41080D01*
X134061Y100640D01*
X134060Y100641D01*
X134061Y100643D01*
X133906Y101018D01*
X133753Y101395D01*
X133751Y101395D01*
X133751Y101397D01*
X133398Y101751D01*
X133397Y101752D01*
X133396Y101753D01*
X133021Y101909D01*
X132646Y102065D01*
X132644Y102065D01*
X132643Y102065D01*
X118500D01*
X117747Y101753D01*
X117435Y101000D01*
Y26193D01*
X101400D01*
X100647Y25881D01*
X100335Y25127D01*
Y803D01*
X803D01*
Y40916D01*
X1303Y41015D01*
X3215Y36400D01*
X8563Y34185D01*
X13912Y36400D01*
X16127Y41749D01*
X13912Y47097D01*
X8563Y49313D01*
X3215Y47097D01*
X1303Y42482D01*
X803Y42581D01*
Y156664D01*
X1303Y156763D01*
X3215Y152148D01*
X8563Y149933D01*
X13912Y152148D01*
X16127Y157497D01*
X13912Y162845D01*
X8563Y165061D01*
X3215Y162845D01*
X1303Y158230D01*
X803Y158329D01*
Y392197D01*
X385697D01*
Y803D01*
D02*
G37*
G36*
X132995Y100645D02*
X132600Y27500D01*
X133500Y26600D01*
X308100D01*
Y19131D01*
X301500D01*
X299993Y18507D01*
X299369Y17000D01*
X299993Y15493D01*
X301500Y14869D01*
X308100D01*
Y803D01*
X101400D01*
Y25127D01*
X118500D01*
Y101000D01*
X132643D01*
X132995Y100645D01*
D02*
G37*
%LPC*%
G36*
X285766Y385919D02*
X275234D01*
Y375388D01*
X285766D01*
Y385919D01*
D02*
G37*
G36*
X235230Y385419D02*
X224699D01*
Y374888D01*
X235230D01*
Y385419D01*
D02*
G37*
G36*
X185230D02*
X174699D01*
Y374888D01*
X185230D01*
Y385419D01*
D02*
G37*
G36*
X136730Y385266D02*
X126199D01*
Y374734D01*
X136730D01*
Y385266D01*
D02*
G37*
G36*
X88230Y384919D02*
X77699D01*
Y374388D01*
X88230D01*
Y384919D01*
D02*
G37*
G36*
X53382Y371041D02*
X46492D01*
X43479Y369793D01*
X42231Y366779D01*
X43479Y363766D01*
X46492Y362518D01*
X53382D01*
X56395Y363766D01*
X56469Y363944D01*
X61140D01*
X63400Y364880D01*
X64336Y367140D01*
X64228Y367399D01*
X64270Y367500D01*
X63459Y369459D01*
X61500Y370270D01*
X61399Y370228D01*
X61140Y370336D01*
X55084D01*
X53382Y371041D01*
D02*
G37*
G36*
X297035Y364700D02*
X293005Y363030D01*
X291336Y359000D01*
X292340Y356576D01*
X257399Y321636D01*
X257399Y321636D01*
X257399Y321636D01*
X253590Y317827D01*
X242252D01*
X242061Y318289D01*
X278076Y354304D01*
X280500Y353300D01*
X284530Y354970D01*
X286200Y359000D01*
X284530Y363030D01*
X280500Y364700D01*
X276470Y363030D01*
X274800Y359000D01*
X275804Y356576D01*
X239614Y320386D01*
X234743D01*
X234465Y320802D01*
X234687Y321337D01*
X234483Y321829D01*
X234398Y322291D01*
X235534Y322762D01*
X247636Y334864D01*
X247636Y334864D01*
X248107Y336000D01*
X248107Y336000D01*
Y353466D01*
X250530Y354470D01*
X252200Y358500D01*
X250530Y362530D01*
X246500Y364200D01*
X242470Y362530D01*
X240800Y358500D01*
X242470Y354470D01*
X244894Y353466D01*
Y336666D01*
X234022Y325794D01*
X233958Y325807D01*
X233793Y326349D01*
X235222Y327778D01*
X235222Y327778D01*
X235692Y328914D01*
X235607Y329121D01*
Y354465D01*
X235607Y354465D01*
X235136Y355601D01*
X234660Y356076D01*
X235664Y358500D01*
X233995Y362530D01*
X229965Y364200D01*
X225934Y362530D01*
X224265Y358500D01*
X225934Y354470D01*
X229965Y352800D01*
X231893Y353599D01*
X232394Y353265D01*
Y329494D01*
X230963Y328063D01*
X229955D01*
Y328327D01*
X222179D01*
Y324587D01*
Y322028D01*
Y319468D01*
Y316910D01*
Y314350D01*
Y311791D01*
X229955D01*
Y312055D01*
X231056D01*
Y272475D01*
X231056Y272475D01*
X231527Y271339D01*
X323878Y178988D01*
X322594Y175886D01*
X324544Y171178D01*
X327645Y169893D01*
Y166131D01*
X324544Y164846D01*
X322594Y160138D01*
X324544Y155430D01*
X329252Y153479D01*
X333960Y155430D01*
X335910Y160138D01*
X333960Y164846D01*
X330858Y166131D01*
Y169893D01*
X333960Y171178D01*
X335910Y175886D01*
X333960Y180594D01*
X329252Y182544D01*
X326150Y181260D01*
X234269Y273141D01*
Y312654D01*
X234687Y313663D01*
X234465Y314198D01*
X234743Y314614D01*
X254256D01*
X254256Y314614D01*
X255392Y315085D01*
X259671Y319364D01*
X259671Y319364D01*
X294612Y354304D01*
X297035Y353300D01*
X301066Y354970D01*
X302735Y359000D01*
X301066Y363030D01*
X297035Y364700D01*
D02*
G37*
G36*
X196500Y364200D02*
X192470Y362530D01*
X190800Y358500D01*
X192404Y354629D01*
X192364Y354590D01*
X191893Y353453D01*
X191893Y353453D01*
Y328586D01*
X191657Y328418D01*
X191431Y328341D01*
X178106Y341666D01*
Y353102D01*
X178487Y353413D01*
X179965Y352800D01*
X183995Y354470D01*
X185664Y358500D01*
X183995Y362530D01*
X179965Y364200D01*
X175934Y362530D01*
X174265Y358500D01*
X175634Y355194D01*
X175364Y354924D01*
X174893Y353788D01*
X174893Y353788D01*
Y341000D01*
X174893Y341000D01*
X175364Y339864D01*
X192466Y322762D01*
X192466Y322762D01*
X193602Y322291D01*
X193602Y322291D01*
X195581D01*
X195859Y321875D01*
X195637Y321339D01*
X195859Y320802D01*
X195582Y320386D01*
X190386D01*
X153326Y357446D01*
X153700Y358347D01*
X152030Y362377D01*
X148000Y364046D01*
X143970Y362377D01*
X142300Y358347D01*
X142782Y357183D01*
X142366Y356906D01*
X139790Y359483D01*
X138654Y359953D01*
X138654Y359953D01*
X136499D01*
X135495Y362377D01*
X131465Y364046D01*
X127434Y362377D01*
X125765Y358347D01*
X127434Y354316D01*
X131465Y352647D01*
X135495Y354316D01*
X136499Y356740D01*
X137988D01*
X178484Y316244D01*
X178484Y316244D01*
X179621Y315773D01*
X179621Y315773D01*
X184955D01*
X185460Y315268D01*
X185253Y314768D01*
X176716D01*
Y316354D01*
X171402D01*
Y310646D01*
X170924Y310591D01*
X163354D01*
Y316717D01*
X159918D01*
X159439Y317195D01*
X158303Y317666D01*
X158303Y317666D01*
X149354D01*
Y318717D01*
X148107D01*
Y321791D01*
X148107Y321791D01*
X147971Y322119D01*
X148098Y322426D01*
X147505Y323857D01*
X146074Y324450D01*
X144642Y323857D01*
X144050Y322426D01*
X144642Y320995D01*
X144894Y320891D01*
Y318717D01*
X143646D01*
Y313402D01*
Y311793D01*
X142580Y311352D01*
X142580Y311352D01*
X105334Y274107D01*
X60154D01*
X59755Y274351D01*
Y274352D01*
X59755D01*
X59704Y274606D01*
X59762Y274630D01*
X64434Y276566D01*
X66478Y281500D01*
X64434Y286434D01*
X59500Y288478D01*
X54566Y286434D01*
X52522Y281500D01*
X54566Y276566D01*
X59238Y274630D01*
X59296Y274606D01*
X59245Y274352D01*
X59245D01*
X59245Y274351D01*
X58846Y274107D01*
X45382D01*
X45382Y274107D01*
X44246Y273636D01*
X44246Y273636D01*
X41174Y270564D01*
X37846Y271943D01*
X32912Y269899D01*
X30868Y264965D01*
X32912Y260030D01*
X37846Y257986D01*
X42781Y260030D01*
X44824Y264965D01*
X43446Y268292D01*
X46047Y270894D01*
X55686D01*
X55783Y270403D01*
X54566Y269899D01*
X52522Y264965D01*
X54566Y260030D01*
X59500Y257986D01*
X64434Y260030D01*
X65813Y263358D01*
X110465D01*
X110465Y263358D01*
X111601Y263829D01*
X154666Y306893D01*
X157646D01*
Y306283D01*
X163354D01*
Y307378D01*
X180547D01*
X180647Y306878D01*
X179569Y306431D01*
X178976Y305000D01*
X179569Y303569D01*
X181000Y302976D01*
X182388Y303551D01*
X183047D01*
Y302402D01*
X188953D01*
Y303551D01*
X190547D01*
Y302402D01*
X196453D01*
Y304378D01*
X199045D01*
Y304114D01*
X206821D01*
Y306673D01*
Y309232D01*
Y311791D01*
Y314350D01*
Y316910D01*
Y319468D01*
Y322028D01*
Y324587D01*
Y327146D01*
Y330886D01*
X199045D01*
Y330614D01*
X198489D01*
X197500Y331024D01*
X196069Y330431D01*
X195797Y329776D01*
X195161Y329525D01*
X195106Y329550D01*
Y352788D01*
X195523Y353205D01*
X196500Y352800D01*
X200530Y354470D01*
X202200Y358500D01*
X200530Y362530D01*
X196500Y364200D01*
D02*
G37*
G36*
X99500Y363700D02*
X95470Y362030D01*
X93800Y358000D01*
X95470Y353970D01*
X99500Y352300D01*
X103530Y353970D01*
X105200Y358000D01*
X103530Y362030D01*
X99500Y363700D01*
D02*
G37*
G36*
X82965D02*
X78934Y362030D01*
X77265Y358000D01*
X78934Y353970D01*
X82965Y352300D01*
X86995Y353970D01*
X88664Y358000D01*
X86995Y362030D01*
X82965Y363700D01*
D02*
G37*
G36*
X53382Y361198D02*
X46492D01*
X43479Y359950D01*
X42231Y356937D01*
X43479Y353924D01*
X45105Y353250D01*
Y352750D01*
X43479Y352076D01*
X42231Y349063D01*
X43479Y346050D01*
X46492Y344802D01*
X53382D01*
X56395Y346050D01*
X57643Y349063D01*
X56395Y352076D01*
X54769Y352750D01*
Y353250D01*
X56395Y353924D01*
X57643Y356937D01*
X56395Y359950D01*
X53382Y361198D01*
D02*
G37*
G36*
X39622Y370913D02*
X13835D01*
Y335087D01*
X39622D01*
Y370913D01*
D02*
G37*
G36*
X59500Y305013D02*
X54566Y302970D01*
X52522Y298035D01*
X54566Y293101D01*
X59500Y291057D01*
X64434Y293101D01*
X66478Y298035D01*
X64434Y302970D01*
X59500Y305013D01*
D02*
G37*
G36*
X37846D02*
X32912Y302970D01*
X30868Y298035D01*
X32912Y293101D01*
X37846Y291057D01*
X42781Y293101D01*
X44824Y298035D01*
X42781Y302970D01*
X37846Y305013D01*
D02*
G37*
G36*
X9106Y305599D02*
X3758Y303384D01*
X1542Y298035D01*
X3758Y292687D01*
X9106Y290472D01*
X14455Y292687D01*
X16670Y298035D01*
X14455Y303384D01*
X9106Y305599D01*
D02*
G37*
G36*
X290846Y296213D02*
X284154D01*
Y289520D01*
X290846D01*
Y289894D01*
X291992D01*
X293000Y289476D01*
X294431Y290069D01*
X295024Y291500D01*
X294431Y292931D01*
X293000Y293524D01*
X291992Y293107D01*
X290846D01*
Y296213D01*
D02*
G37*
G36*
X244650Y285150D02*
X238350D01*
Y278850D01*
X244650D01*
Y285150D01*
D02*
G37*
G36*
X37846Y288478D02*
X32912Y286434D01*
X30868Y281500D01*
X32912Y276566D01*
X37846Y274522D01*
X42781Y276566D01*
X44824Y281500D01*
X42781Y286434D01*
X37846Y288478D01*
D02*
G37*
G36*
X218500Y289524D02*
X217069Y288931D01*
X216476Y287500D01*
X217069Y286069D01*
X217236Y285999D01*
Y284953D01*
X216087D01*
Y279047D01*
X217393D01*
Y276067D01*
X216736D01*
Y268193D01*
X221264D01*
Y276067D01*
X220606D01*
Y279047D01*
X221598D01*
Y284953D01*
X220449D01*
Y287158D01*
X220449Y287158D01*
X220416Y287238D01*
X220524Y287500D01*
X219931Y288931D01*
X218500Y289524D01*
D02*
G37*
G36*
X206598Y284953D02*
X201087D01*
Y279047D01*
X202394D01*
Y276067D01*
X201736D01*
Y268193D01*
X206236D01*
X206264Y268193D01*
X206736D01*
X206764Y268193D01*
X211264D01*
Y276067D01*
X206764D01*
X206736Y276067D01*
X206264D01*
X206236Y276067D01*
X205607D01*
Y279047D01*
X206598D01*
Y284953D01*
D02*
G37*
G36*
X345000Y269158D02*
X340292Y267208D01*
X338342Y262500D01*
X340292Y257792D01*
X345000Y255842D01*
X349708Y257792D01*
X351658Y262500D01*
X349708Y267208D01*
X345000Y269158D01*
D02*
G37*
G36*
X216736Y254807D02*
X216264D01*
X216236Y254807D01*
X211764D01*
X211736Y254807D01*
X211264D01*
X211236Y254807D01*
X206764D01*
X206736Y254807D01*
X206264D01*
X206236Y254807D01*
X201736D01*
Y246933D01*
X206236D01*
X206264Y246933D01*
X206736D01*
X206764Y246933D01*
X207508D01*
Y244286D01*
X206976Y243000D01*
X207569Y241569D01*
X209000Y240976D01*
X210286Y241509D01*
X216587D01*
Y240047D01*
X222098D01*
Y245953D01*
X220492D01*
Y246933D01*
X221264D01*
Y254807D01*
X216764D01*
X216736Y254807D01*
D02*
G37*
G36*
X329252Y261284D02*
X324544Y259334D01*
X322594Y254626D01*
X324544Y249918D01*
X329252Y247968D01*
X333960Y249918D01*
X335910Y254626D01*
X333960Y259334D01*
X329252Y261284D01*
D02*
G37*
G36*
X59500Y255407D02*
X54566Y253363D01*
X52522Y248429D01*
X54566Y243495D01*
X59500Y241451D01*
X64434Y243495D01*
X66478Y248429D01*
X64434Y253363D01*
X59500Y255407D01*
D02*
G37*
G36*
X345000Y253410D02*
X340292Y251460D01*
X338342Y246752D01*
X340292Y242044D01*
X345000Y240094D01*
X349708Y242044D01*
X351658Y246752D01*
X349708Y251460D01*
X345000Y253410D01*
D02*
G37*
G36*
X329252Y245536D02*
X324544Y243586D01*
X322594Y238878D01*
X324544Y234170D01*
X329252Y232220D01*
X333960Y234170D01*
X335910Y238878D01*
X333960Y243586D01*
X329252Y245536D01*
D02*
G37*
G36*
X59500Y238872D02*
X54566Y236828D01*
X52522Y231894D01*
X54566Y226959D01*
X59500Y224916D01*
X64434Y226959D01*
X66478Y231894D01*
X64434Y236828D01*
X59500Y238872D01*
D02*
G37*
G36*
X37846D02*
X32912Y236828D01*
X30868Y231894D01*
X32912Y226959D01*
X37846Y224916D01*
X42781Y226959D01*
X44824Y231894D01*
X42781Y236828D01*
X37846Y238872D01*
D02*
G37*
G36*
X360748Y229788D02*
X356040Y227838D01*
X354090Y223130D01*
X356040Y218422D01*
X360748Y216472D01*
X365456Y218422D01*
X367406Y223130D01*
X365456Y227838D01*
X360748Y229788D01*
D02*
G37*
G36*
X329252D02*
X324544Y227838D01*
X322594Y223130D01*
X324544Y218422D01*
X329252Y216472D01*
X333960Y218422D01*
X335910Y223130D01*
X333960Y227838D01*
X329252Y229788D01*
D02*
G37*
G36*
X186150Y219150D02*
X179850D01*
Y212850D01*
X186150D01*
Y219150D01*
D02*
G37*
G36*
X345000Y221914D02*
X340292Y219964D01*
X338342Y215256D01*
X340292Y210548D01*
X345000Y208597D01*
X349708Y210548D01*
X351658Y215256D01*
X349708Y219964D01*
X345000Y221914D01*
D02*
G37*
G36*
X59500Y222336D02*
X54566Y220292D01*
X52522Y215358D01*
X54566Y210424D01*
X59500Y208380D01*
X64434Y210424D01*
X66478Y215358D01*
X64434Y220292D01*
X59500Y222336D01*
D02*
G37*
G36*
X37846D02*
X32912Y220292D01*
X30868Y215358D01*
X32912Y210424D01*
X37846Y208380D01*
X42781Y210424D01*
X44824Y215358D01*
X42781Y220292D01*
X37846Y222336D01*
D02*
G37*
G36*
X360748Y214040D02*
X356040Y212090D01*
X354090Y207382D01*
X356040Y202674D01*
X360748Y200724D01*
X365456Y202674D01*
X367406Y207382D01*
X365456Y212090D01*
X360748Y214040D01*
D02*
G37*
G36*
X329252D02*
X324544Y212090D01*
X322594Y207382D01*
X324544Y202674D01*
X329252Y200724D01*
X333960Y202674D01*
X335910Y207382D01*
X333960Y212090D01*
X329252Y214040D01*
D02*
G37*
G36*
X345000Y206166D02*
X340292Y204216D01*
X338342Y199508D01*
X340292Y194800D01*
X345000Y192850D01*
X349708Y194800D01*
X351658Y199508D01*
X349708Y204216D01*
X345000Y206166D01*
D02*
G37*
G36*
X59500Y205801D02*
X54566Y203757D01*
X52522Y198823D01*
X54566Y193889D01*
X59500Y191845D01*
X64434Y193889D01*
X66478Y198823D01*
X64434Y203757D01*
X59500Y205801D01*
D02*
G37*
G36*
X37846D02*
X32912Y203757D01*
X30868Y198823D01*
X32912Y193889D01*
X37846Y191845D01*
X42781Y193889D01*
X44824Y198823D01*
X42781Y203757D01*
X37846Y205801D01*
D02*
G37*
G36*
X9106Y206387D02*
X3758Y204171D01*
X1542Y198823D01*
X3758Y193474D01*
X9106Y191259D01*
X14455Y193474D01*
X16670Y198823D01*
X14455Y204171D01*
X9106Y206387D01*
D02*
G37*
G36*
X267500Y221065D02*
X215000D01*
X214247Y220753D01*
X213935Y220000D01*
Y216000D01*
Y188500D01*
X214247Y187747D01*
X215000Y187435D01*
X266500D01*
X267253Y187747D01*
X268253Y188747D01*
X268565Y189500D01*
Y192229D01*
X271878D01*
Y200497D01*
X268565D01*
Y212547D01*
X269598D01*
Y218453D01*
X268565D01*
Y220000D01*
X268253Y220753D01*
X267500Y221065D01*
D02*
G37*
G36*
X360748Y198292D02*
X356040Y196342D01*
X354090Y191634D01*
X356040Y186926D01*
X360748Y184976D01*
X365456Y186926D01*
X367406Y191634D01*
X365456Y196342D01*
X360748Y198292D01*
D02*
G37*
G36*
X329252D02*
X324544Y196342D01*
X322594Y191634D01*
X324544Y186926D01*
X329252Y184976D01*
X333960Y186926D01*
X335910Y191634D01*
X333960Y196342D01*
X329252Y198292D01*
D02*
G37*
G36*
X345000Y190418D02*
X340292Y188468D01*
X338342Y183760D01*
X340292Y179052D01*
X345000Y177101D01*
X349708Y179052D01*
X351658Y183760D01*
X349708Y188468D01*
X345000Y190418D01*
D02*
G37*
G36*
X360748Y182544D02*
X356040Y180594D01*
X354090Y175886D01*
X356040Y171178D01*
X360748Y169227D01*
X365456Y171178D01*
X367406Y175886D01*
X365456Y180594D01*
X360748Y182544D01*
D02*
G37*
G36*
X126537Y167040D02*
X122620Y165417D01*
X120997Y161500D01*
X122138Y158747D01*
X115382Y151991D01*
X63794D01*
X63696Y152482D01*
X63891Y152562D01*
X65935Y157497D01*
X64865Y160079D01*
X65199Y160579D01*
X99725D01*
X100966Y157583D01*
X104884Y155960D01*
X108801Y157583D01*
X110423Y161500D01*
X108801Y165417D01*
X104884Y167040D01*
X100966Y165417D01*
X100198Y163562D01*
X64071D01*
X64071Y163562D01*
X63543Y163344D01*
X63016Y163126D01*
X62554Y162985D01*
X58957Y164475D01*
X54023Y162431D01*
X51979Y157497D01*
X54023Y152562D01*
X54217Y152482D01*
X54119Y151991D01*
X53618D01*
X46181Y159429D01*
X45126Y159865D01*
X45126Y159865D01*
X43300D01*
X42237Y162431D01*
X37303Y164475D01*
X32369Y162431D01*
X30325Y157497D01*
X32369Y152562D01*
X37303Y150519D01*
X42237Y152562D01*
X44027Y156883D01*
X44508D01*
X51945Y149445D01*
X51945Y149445D01*
X53000Y149009D01*
X53000Y149009D01*
X100478D01*
X100812Y148509D01*
X100198Y147027D01*
X64062D01*
X64062Y147027D01*
X63317Y146718D01*
X63008Y146590D01*
X62546Y146453D01*
X58957Y147939D01*
X54023Y145895D01*
X51979Y140961D01*
X53983Y136122D01*
X53802Y135594D01*
X53549Y135560D01*
X46216Y142893D01*
X45161Y143330D01*
X45161Y143330D01*
X43300D01*
X42237Y145895D01*
X37303Y147939D01*
X32369Y145895D01*
X30325Y140961D01*
X32369Y136027D01*
X37303Y133983D01*
X42237Y136027D01*
X44027Y140347D01*
X44544D01*
X51945Y132945D01*
X51945Y132945D01*
X53000Y132509D01*
X53000Y132509D01*
X100492D01*
X100826Y132009D01*
X99344Y128429D01*
X99849Y127210D01*
X99571Y126795D01*
X64954D01*
X63891Y129360D01*
X58957Y131404D01*
X54023Y129360D01*
X51979Y124426D01*
X54023Y119492D01*
X54046Y119482D01*
X53948Y118991D01*
X45724D01*
X43112Y121603D01*
X44281Y124426D01*
X42237Y129360D01*
X37303Y131404D01*
X32369Y129360D01*
X30325Y124426D01*
X32369Y119492D01*
X37303Y117448D01*
X41366Y119131D01*
X44052Y116445D01*
X45106Y116008D01*
X45106Y116008D01*
X115500D01*
X115500Y116008D01*
X116555Y116445D01*
X124035Y123926D01*
X126537Y122889D01*
X130454Y124512D01*
X132077Y128429D01*
X130454Y132346D01*
X126537Y133969D01*
X122620Y132346D01*
X120997Y128429D01*
X121970Y126080D01*
X114882Y118991D01*
X63965D01*
X63867Y119482D01*
X63891Y119492D01*
X65680Y123812D01*
X101757D01*
X101758Y123812D01*
X102207Y123998D01*
X104884Y122889D01*
X108801Y124512D01*
X110423Y128429D01*
X108941Y132009D01*
X109275Y132509D01*
X115633D01*
X115633Y132509D01*
X116687Y132945D01*
X124154Y140412D01*
X126537Y139425D01*
X130454Y141047D01*
X132077Y144965D01*
X130454Y148882D01*
X126537Y150504D01*
X122620Y148882D01*
X120997Y144965D01*
X122020Y142496D01*
X115015Y135492D01*
X63880D01*
X63782Y135982D01*
X63891Y136027D01*
X65935Y140961D01*
X64865Y143544D01*
X65199Y144044D01*
X99725D01*
X100966Y141047D01*
X104884Y139425D01*
X108801Y141047D01*
X110423Y144965D01*
X108955Y148509D01*
X109289Y149009D01*
X116000D01*
X116000Y149009D01*
X117055Y149445D01*
X124439Y156829D01*
X126537Y155960D01*
X130454Y157583D01*
X132077Y161500D01*
X130454Y165417D01*
X126537Y167040D01*
D02*
G37*
G36*
X360748Y166796D02*
X356040Y164846D01*
X354090Y160138D01*
X356040Y155430D01*
X360748Y153479D01*
X365456Y155430D01*
X367406Y160138D01*
X365456Y164846D01*
X360748Y166796D01*
D02*
G37*
G36*
X266500Y168565D02*
X215000D01*
X214247Y168253D01*
X213935Y167500D01*
Y145000D01*
X214247Y144247D01*
X215747Y142747D01*
X216500Y142435D01*
X249435Y142435D01*
X249435Y107854D01*
X249747Y107101D01*
X250500Y106789D01*
X252047D01*
Y100587D01*
X253394D01*
Y76000D01*
X253393Y76000D01*
X253864Y74864D01*
X255364Y73364D01*
X255364Y73364D01*
X256500Y72893D01*
X256500Y72894D01*
X261000D01*
X261000Y72893D01*
X262136Y73364D01*
X265573Y76801D01*
X265573Y76801D01*
X266044Y77937D01*
X266044Y77937D01*
Y78526D01*
X266673D01*
X266701Y78526D01*
X267173D01*
X267201Y78526D01*
X271673D01*
X271701Y78526D01*
X272173D01*
X272201Y78526D01*
X276673D01*
X276701Y78526D01*
X277173D01*
X277201Y78526D01*
X277831D01*
X278301Y77391D01*
X278887Y76805D01*
X278887Y76805D01*
X280023Y76334D01*
X280023Y76334D01*
X286583D01*
Y75283D01*
X292291D01*
Y76334D01*
X295146D01*
Y75283D01*
X300854D01*
Y80402D01*
Y85716D01*
X299606D01*
Y86992D01*
X300024Y88000D01*
X299431Y89431D01*
X298000Y90024D01*
X296569Y89431D01*
X295976Y88000D01*
X296393Y86992D01*
Y85716D01*
X295146D01*
Y79548D01*
X292291D01*
Y80598D01*
X286583D01*
Y79548D01*
X281701D01*
Y86498D01*
X277201D01*
X277173Y86498D01*
X276701D01*
X276673Y86498D01*
X272201D01*
X272173Y86498D01*
X271701D01*
X271673Y86498D01*
X267201D01*
X267173Y86498D01*
X266701D01*
X266673Y86498D01*
X262173D01*
Y78526D01*
X262173D01*
X262343Y78115D01*
X260334Y76107D01*
X257166D01*
X256607Y76666D01*
Y100587D01*
X257953D01*
Y106789D01*
X260045D01*
Y103390D01*
X260357Y102636D01*
X260747Y102247D01*
X261500Y101935D01*
X261757Y102041D01*
X262173Y101763D01*
Y99880D01*
X266701D01*
Y99880D01*
X267173D01*
Y99880D01*
X267201Y99880D01*
X271701D01*
Y101616D01*
X272633Y103866D01*
Y110473D01*
X273835D01*
Y119527D01*
X272696D01*
Y120973D01*
X273835D01*
Y130027D01*
X273696D01*
Y135658D01*
X273443Y136269D01*
X273538Y136500D01*
Y141804D01*
X282676D01*
X287850Y136630D01*
Y134850D01*
X290888D01*
X291000Y134804D01*
X291112Y134850D01*
X294150D01*
Y137888D01*
X294196Y138000D01*
X294150Y138112D01*
Y141150D01*
X292370D01*
X286260Y147260D01*
X284000Y148196D01*
X270900D01*
X268640Y147260D01*
X268083Y146703D01*
X268056Y146638D01*
X267565Y146736D01*
Y153815D01*
X269965D01*
Y168185D01*
X267282D01*
X267253Y168253D01*
X266500Y168565D01*
D02*
G37*
G36*
X281701Y107852D02*
X277173D01*
Y99880D01*
X281701D01*
Y107852D01*
D02*
G37*
G36*
X104884Y100898D02*
X100966Y99275D01*
X99344Y95358D01*
X100966Y91441D01*
X104884Y89819D01*
X108801Y91441D01*
X110423Y95358D01*
X108801Y99275D01*
X104884Y100898D01*
D02*
G37*
G36*
X58957Y98333D02*
X54023Y96289D01*
X51979Y91355D01*
X54023Y86421D01*
X58957Y84377D01*
X63891Y86421D01*
X65935Y91355D01*
X63891Y96289D01*
X58957Y98333D01*
D02*
G37*
G36*
X37303D02*
X32369Y96289D01*
X30325Y91355D01*
X32369Y86421D01*
X37303Y84377D01*
X42237Y86421D01*
X44281Y91355D01*
X42237Y96289D01*
X37303Y98333D01*
D02*
G37*
G36*
X58957Y81797D02*
X54023Y79754D01*
X51979Y74819D01*
X54023Y69885D01*
X58957Y67842D01*
X63891Y69885D01*
X65935Y74819D01*
X63891Y79754D01*
X58957Y81797D01*
D02*
G37*
G36*
X37303D02*
X32369Y79754D01*
X30325Y74819D01*
X32369Y69885D01*
X37303Y67842D01*
X42237Y69885D01*
X44281Y74819D01*
X42237Y79754D01*
X37303Y81797D01*
D02*
G37*
G36*
X372814Y59406D02*
X365531D01*
Y55863D01*
Y52163D01*
X359987D01*
X359293Y52450D01*
X357636Y51764D01*
X356949Y50106D01*
X357636Y48449D01*
X359293Y47763D01*
X359628Y47901D01*
X369098D01*
X369785Y48186D01*
X372814D01*
Y50745D01*
Y53304D01*
Y55863D01*
Y59406D01*
D02*
G37*
G36*
X58957Y65262D02*
X54023Y63218D01*
X51979Y58284D01*
X53357Y54956D01*
X49864Y51463D01*
X49393Y50327D01*
X49393Y50327D01*
Y17854D01*
X48783D01*
Y12146D01*
X59216D01*
Y17854D01*
X58051D01*
Y34696D01*
X58466Y34974D01*
X58957Y34771D01*
X63891Y36814D01*
X65935Y41749D01*
X63891Y46683D01*
X58957Y48727D01*
X54023Y46683D01*
X53097Y44448D01*
X52606Y44546D01*
Y49662D01*
X55629Y52684D01*
X58957Y51306D01*
X63891Y53350D01*
X65935Y58284D01*
X63891Y63218D01*
X58957Y65262D01*
D02*
G37*
G36*
X37303D02*
X32369Y63218D01*
X30325Y58284D01*
X32369Y53350D01*
X37303Y51306D01*
X42237Y53350D01*
X44281Y58284D01*
X42237Y63218D01*
X37303Y65262D01*
D02*
G37*
G36*
Y48727D02*
X32369Y46683D01*
X30325Y41749D01*
X32369Y36814D01*
X37303Y34771D01*
X42237Y36814D01*
X44281Y41749D01*
X42237Y46683D01*
X37303Y48727D01*
D02*
G37*
G36*
X224217Y64354D02*
X213784D01*
Y63107D01*
X212500D01*
X211364Y62636D01*
X211364Y62636D01*
X201899Y53171D01*
X201429Y52035D01*
X201429Y52035D01*
Y44188D01*
X199005Y43184D01*
X197336Y39154D01*
X199005Y35123D01*
X203035Y33454D01*
X207066Y35123D01*
X208735Y39154D01*
X207066Y43184D01*
X204642Y44188D01*
Y51370D01*
X213165Y59894D01*
X213784D01*
Y58646D01*
X224217D01*
Y60009D01*
X227882D01*
X247291Y40600D01*
X246836Y39500D01*
X248505Y35470D01*
X252535Y33800D01*
X256566Y35470D01*
X258235Y39500D01*
X256566Y43530D01*
X252535Y45200D01*
X248557Y43552D01*
X229555Y62555D01*
X228500Y62991D01*
X228500Y62991D01*
X224217D01*
Y64354D01*
D02*
G37*
G36*
X236000Y45200D02*
X231970Y43530D01*
X230300Y39500D01*
X231970Y35470D01*
X236000Y33800D01*
X240030Y35470D01*
X241700Y39500D01*
X240030Y43530D01*
X236000Y45200D01*
D02*
G37*
G36*
X186500Y44853D02*
X182470Y43184D01*
X180800Y39154D01*
X182470Y35123D01*
X186500Y33454D01*
X190530Y35123D01*
X192200Y39154D01*
X190530Y43184D01*
X186500Y44853D01*
D02*
G37*
G36*
X155500Y44353D02*
X151470Y42684D01*
X149800Y38653D01*
X151470Y34623D01*
X155500Y32954D01*
X159530Y34623D01*
X161200Y38653D01*
X159530Y42684D01*
X155500Y44353D01*
D02*
G37*
G36*
X108035D02*
X104005Y42684D01*
X102336Y38653D01*
X104005Y34623D01*
X108035Y32954D01*
X112066Y34623D01*
X113735Y38653D01*
X112066Y42684D01*
X108035Y44353D01*
D02*
G37*
G36*
X91500D02*
X87470Y42684D01*
X85800Y38653D01*
X87470Y34623D01*
X91500Y32954D01*
X95530Y34623D01*
X97200Y38653D01*
X95530Y42684D01*
X91500Y44353D01*
D02*
G37*
G36*
X320004Y44407D02*
X314655Y42191D01*
X312440Y36843D01*
X314655Y31494D01*
X320004Y29279D01*
X325353Y31494D01*
X327568Y36843D01*
X325353Y42191D01*
X320004Y44407D01*
D02*
G37*
G36*
X282996D02*
X277647Y42191D01*
X275432Y36843D01*
X277647Y31494D01*
X282996Y29279D01*
X288345Y31494D01*
X290560Y36843D01*
X288345Y42191D01*
X282996Y44407D01*
D02*
G37*
%LPD*%
G36*
X187681Y318547D02*
X187504Y318017D01*
X187286Y317986D01*
X186757Y318515D01*
X185620Y318986D01*
X185620Y318986D01*
X180286D01*
X146559Y352713D01*
X146837Y353129D01*
X148000Y352647D01*
X151946Y354281D01*
X187681Y318547D01*
D02*
G37*
G36*
X152073Y308845D02*
X109799Y266571D01*
X65813D01*
X64434Y269899D01*
X63217Y270403D01*
X63314Y270894D01*
X106000D01*
X106000Y270893D01*
X107136Y271364D01*
X144055Y308283D01*
X149354D01*
Y309334D01*
X151855D01*
X152073Y308845D01*
D02*
G37*
G36*
X267500Y189500D02*
X266500Y188500D01*
X215000D01*
Y216000D01*
Y220000D01*
X267500D01*
Y189500D01*
D02*
G37*
G36*
X266500Y115041D02*
X266459Y114728D01*
Y104407D01*
X266126Y104199D01*
X265950Y104308D01*
Y104378D01*
X265835Y104957D01*
X265507Y105448D01*
X265507Y105448D01*
X264728Y106228D01*
X264237Y106556D01*
X263657Y106671D01*
X263078Y106556D01*
X262587Y106228D01*
X262259Y105737D01*
X262144Y105157D01*
X262259Y104578D01*
X262587Y104087D01*
X262675Y104000D01*
X262468Y103500D01*
X262000D01*
X261500Y103000D01*
X261110Y103390D01*
Y107854D01*
X250500Y107854D01*
X250500Y143500D01*
X216500Y143500D01*
X215000Y145000D01*
Y167500D01*
X266500D01*
Y115041D01*
D02*
G37*
G36*
X54023Y36814D02*
X55068Y36382D01*
Y17854D01*
X52606D01*
Y38951D01*
X53097Y39049D01*
X54023Y36814D01*
D02*
G37*
%LPC*%
G36*
X236000Y23546D02*
X231970Y21877D01*
X230300Y17846D01*
X231970Y13816D01*
X236000Y12147D01*
X240030Y13816D01*
X241700Y17846D01*
X240030Y21877D01*
X236000Y23546D01*
D02*
G37*
G36*
X186500Y23200D02*
X182470Y21530D01*
X180800Y17500D01*
X182470Y13470D01*
X186500Y11800D01*
X190530Y13470D01*
X192200Y17500D01*
X190530Y21530D01*
X186500Y23200D01*
D02*
G37*
G36*
X138965Y22700D02*
X134934Y21030D01*
X133265Y17000D01*
X134934Y12970D01*
X138965Y11300D01*
X142995Y12970D01*
X144664Y17000D01*
X142995Y21030D01*
X138965Y22700D01*
D02*
G37*
%LPD*%
G36*
X239215Y21061D02*
X240546Y17846D01*
X239215Y14632D01*
X236000Y13300D01*
X232785Y14632D01*
X231453Y17846D01*
X232785Y21061D01*
X236000Y22393D01*
X239215Y21061D01*
D02*
G37*
G36*
X189715Y20715D02*
X191047Y17500D01*
X189715Y14285D01*
X186500Y12954D01*
X183285Y14285D01*
X181954Y17500D01*
X183285Y20715D01*
X186500Y22047D01*
X189715Y20715D01*
D02*
G37*
G36*
X142179Y20215D02*
X143511Y17000D01*
X142179Y13785D01*
X138965Y12454D01*
X135750Y13785D01*
X134418Y17000D01*
X135750Y20215D01*
X138965Y21546D01*
X142179Y20215D01*
D02*
G37*
D10*
X56559Y15000D02*
Y36608D01*
X58957Y39005D01*
Y41749D01*
X60780Y39926D01*
X221559Y61500D02*
X228500D01*
X250500Y39500D02*
X252535D01*
X228500Y61500D02*
X250500Y39500D01*
X45161Y141839D02*
X53000Y134000D01*
X115633D02*
X126537Y144904D01*
X53000Y134000D02*
X115633D01*
X369098Y50032D02*
X369172Y49957D01*
X359293Y50106D02*
X359367Y50032D01*
X270000Y135658D02*
X270843Y136500D01*
X270291Y124500D02*
X270500Y124709D01*
X209000Y243000D02*
Y250870D01*
Y243000D02*
X219342D01*
X37303Y125303D02*
X45106Y117500D01*
X115500D02*
X126429Y128429D01*
X45106Y117500D02*
X115500D01*
X116000Y150500D02*
X126769Y161268D01*
X53000Y150500D02*
X116000D01*
X45126Y158374D02*
X53000Y150500D01*
X203842Y282000D02*
X204000Y281842D01*
X219000Y243342D02*
X219342Y243000D01*
X219000Y243342D02*
Y250870D01*
X289437Y77941D02*
X289437Y77941D01*
X269500Y114791D02*
X269709Y115000D01*
X269437Y114728D02*
X269500Y114791D01*
X101758Y125303D02*
X104884Y128429D01*
X126537Y144904D02*
Y144965D01*
X64062Y145535D02*
X104884D01*
X64071Y162071D02*
X104884D01*
X105957Y162489D01*
X269709Y115000D02*
X270291D01*
X58957Y141839D02*
X60365D01*
X64062Y145535D01*
X60374Y158374D02*
X64071Y162071D01*
X58957Y158374D02*
X60374D01*
X37303D02*
X45126D01*
X37303Y141839D02*
X45161D01*
X58957Y125303D02*
X101758D01*
X137198Y38511D02*
X139000Y36709D01*
X137198Y38511D02*
Y38802D01*
X235104Y38723D02*
Y38896D01*
X294807Y45937D02*
Y50937D01*
X308193D01*
Y45937D02*
Y50937D01*
X294807Y45937D02*
X308193D01*
X290870Y8142D02*
Y45937D01*
Y8142D02*
X312130D01*
Y45937D01*
X290870D02*
X312130D01*
X371826Y40115D02*
Y70036D01*
X391708D01*
Y40115D02*
Y70036D01*
X371826Y40115D02*
X391708D01*
X33516Y188193D02*
Y308665D01*
X-16878Y188193D02*
X33516D01*
X-16878D02*
Y308665D01*
X33516D01*
X313504Y126673D02*
Y303839D01*
X383583D01*
Y126673D02*
Y303839D01*
X313504Y126673D02*
X383583D01*
Y95571D02*
Y126673D01*
Y95571D02*
X391457D01*
Y334941D01*
X383583D02*
X391457D01*
X383583Y303839D02*
Y334941D01*
X391457Y129823D02*
X467441D01*
Y300689D01*
X391457D02*
X467441D01*
X96025Y172130D02*
X133820D01*
Y84728D02*
Y172130D01*
X96025Y84728D02*
X133820D01*
X96025D02*
Y172130D01*
X-17421Y168127D02*
X32972D01*
X-17421Y31119D02*
Y168127D01*
Y31119D02*
X32972D01*
Y168127D01*
X37063Y353000D02*
X44937D01*
X41000Y349063D02*
Y356937D01*
D11*
X57445Y13130D02*
Y16870D01*
X50555Y13130D02*
Y16870D01*
Y13130D02*
X57445D01*
X50555Y16870D02*
X57445D01*
X215555Y59630D02*
Y63370D01*
X222445Y59630D02*
Y63370D01*
X215555D02*
X222445D01*
X215555Y59630D02*
X222445D01*
X263165Y8004D02*
Y46587D01*
X223795D02*
X263165D01*
X223795Y8004D02*
Y46587D01*
Y8004D02*
X263165D01*
X213665Y7658D02*
Y46240D01*
X174295D02*
X213665D01*
X174295Y7658D02*
Y46240D01*
Y7658D02*
X213665D01*
X166130Y7158D02*
Y45740D01*
X126760D02*
X166130D01*
X126760Y7158D02*
Y45740D01*
Y7158D02*
X166130D01*
X118665D02*
Y45740D01*
X79295D02*
X118665D01*
X79295Y7158D02*
Y45740D01*
Y7158D02*
X118665D01*
X290158Y292669D02*
Y301331D01*
X284842Y292669D02*
Y301331D01*
X290158D01*
X284842Y292669D02*
X290158D01*
X236500Y277000D02*
Y287000D01*
X246500D01*
Y277000D02*
Y287000D01*
X236500Y277000D02*
X246500D01*
X286000Y133000D02*
Y143000D01*
X296000D01*
Y133000D02*
Y143000D01*
X286000Y133000D02*
X296000D01*
X178000Y211000D02*
Y221000D01*
X188000D01*
Y211000D02*
Y221000D01*
X178000Y211000D02*
X188000D01*
X334500Y12000D02*
Y22000D01*
X344500D01*
Y12000D02*
Y22000D01*
X334500Y12000D02*
X344500D01*
X103000Y304500D02*
Y314500D01*
X113000D01*
Y304500D02*
Y314500D01*
X103000Y304500D02*
X113000D01*
X160000Y97500D02*
Y107500D01*
X170000D01*
Y97500D02*
Y107500D01*
X160000Y97500D02*
X170000D01*
X335000Y33000D02*
Y43000D01*
X345000D01*
Y33000D02*
Y43000D01*
X335000Y33000D02*
X345000D01*
X72335Y350913D02*
Y389496D01*
Y350913D02*
X111705D01*
Y389496D01*
X72335D02*
X111705D01*
X120835Y351260D02*
Y389843D01*
Y351260D02*
X160205D01*
Y389843D01*
X120835D02*
X160205D01*
X169335Y351413D02*
Y389996D01*
Y351413D02*
X208705D01*
Y389996D01*
X169335D02*
X208705D01*
X219335Y351413D02*
Y389996D01*
Y351413D02*
X258705D01*
Y389996D01*
X219335D02*
X258705D01*
X269870Y351913D02*
Y390496D01*
Y351913D02*
X309240D01*
Y390496D01*
X269870D02*
X309240D01*
X261445Y205025D02*
X265776Y209355D01*
X287429D01*
Y183371D02*
Y209355D01*
X265776Y183371D02*
X287429D01*
X261445Y187702D02*
X265776Y183371D01*
X261445Y187702D02*
Y205025D01*
X266055Y217370D02*
X272945D01*
X266055Y213630D02*
X272945D01*
X266055D02*
Y217370D01*
X272945Y213630D02*
Y217370D01*
X202378Y152378D02*
X249622D01*
Y199622D01*
X202378D02*
X249622D01*
X202378Y152378D02*
Y199622D01*
X50055Y326425D02*
Y379575D01*
X-4669D02*
X50055D01*
X-4669Y326425D02*
X50055D01*
X-4669D02*
Y379575D01*
X287567Y77055D02*
Y83945D01*
X291307Y77055D02*
Y83945D01*
X287567Y77055D02*
X291307D01*
X287567Y83945D02*
X291307D01*
X299870Y77055D02*
Y83945D01*
X296130Y77055D02*
Y83945D01*
X299870D01*
X296130Y77055D02*
X299870D01*
X253130Y102555D02*
Y109445D01*
X256870Y102555D02*
Y109445D01*
X253130Y102555D02*
X256870D01*
X253130Y109445D02*
X256870D01*
X282693Y121957D02*
Y129043D01*
X269307Y121957D02*
Y129043D01*
Y121957D02*
X282693D01*
X269307Y129043D02*
X282693D01*
Y111457D02*
Y118543D01*
X269307Y111457D02*
Y118543D01*
Y111457D02*
X282693D01*
X269307Y118543D02*
X282693D01*
X262291Y90512D02*
X267291Y85512D01*
X262291D02*
X281583D01*
Y100866D01*
X262291D02*
X281583D01*
X262291Y85512D02*
Y100866D01*
X269555Y138370D02*
X276445D01*
X269555Y134630D02*
X276445D01*
X269555D02*
Y138370D01*
X276445Y134630D02*
Y138370D01*
X301370Y285555D02*
Y292445D01*
X297630Y285555D02*
Y292445D01*
Y285555D02*
X301370D01*
X297630Y292445D02*
X301370D01*
X218055Y283870D02*
X224945D01*
X218055Y280130D02*
X224945D01*
X218055D02*
Y283870D01*
X224945Y280130D02*
Y283870D01*
X195370Y299055D02*
Y305945D01*
X191630Y299055D02*
Y305945D01*
X195370D01*
X191630Y299055D02*
X195370D01*
X187870D02*
Y305945D01*
X184130Y299055D02*
Y305945D01*
X187870D01*
X184130Y299055D02*
X187870D01*
X168055Y311630D02*
X174945D01*
X168055Y315370D02*
X174945D01*
Y311630D02*
Y315370D01*
X168055Y311630D02*
Y315370D01*
X218555Y244870D02*
X225445D01*
X218555Y241130D02*
X225445D01*
X218555D02*
Y244870D01*
X225445Y241130D02*
Y244870D01*
X216146Y269177D02*
X221146Y264177D01*
X201854Y269177D02*
X221146D01*
X201854Y253823D02*
Y269177D01*
Y253823D02*
X221146D01*
Y269177D01*
X220602Y304705D02*
X223161Y307264D01*
Y304705D02*
Y330295D01*
X205839D02*
X223161D01*
X205839Y304705D02*
Y330295D01*
Y304705D02*
X223161D01*
X203055Y283870D02*
X209945D01*
X203055Y280130D02*
X209945D01*
X203055D02*
Y283870D01*
X209945Y280130D02*
Y283870D01*
X162370Y308055D02*
Y314945D01*
X158630Y308055D02*
Y314945D01*
X162370D01*
X158630Y308055D02*
X162370D01*
X148370Y310055D02*
Y316945D01*
X144630Y310055D02*
Y316945D01*
X148370D01*
X144630Y310055D02*
X148370D01*
X262366Y173244D02*
X290358D01*
X262366Y148756D02*
X290358D01*
X262366D02*
Y173244D01*
X290358Y148756D02*
Y173244D01*
X52130Y15000D02*
X55870D01*
X54000Y13130D02*
Y16870D01*
X217130Y61500D02*
X220870D01*
X219000Y59630D02*
Y63370D01*
X285531Y297000D02*
X289469D01*
X287500Y295031D02*
Y298969D01*
X275024Y6173D02*
Y52905D01*
Y6173D02*
X327976D01*
Y52905D01*
X275024D02*
X327976D01*
X361346Y32635D02*
Y77517D01*
X395645D01*
Y32635D02*
Y77517D01*
X361346Y32635D02*
X395645D01*
X68902Y181894D02*
Y312602D01*
X-20815Y181894D02*
X68902D01*
X-20815D02*
Y312602D01*
X68902D01*
X307205Y91634D02*
Y338878D01*
X471378D01*
Y91634D02*
Y338878D01*
X307205Y91634D02*
X471378D01*
X272468Y196363D02*
X276406D01*
X274437Y194395D02*
Y198332D01*
X269500Y213630D02*
Y217370D01*
X267630Y215500D02*
X271370D01*
X89135Y176067D02*
X137758D01*
X89135Y80791D02*
Y176067D01*
Y80791D02*
X137758D01*
Y176067D01*
X-21358Y172064D02*
X68358D01*
X-21358Y27182D02*
Y172064D01*
Y27182D02*
X68358D01*
Y172064D01*
X287567Y80500D02*
X291307D01*
X289437Y78630D02*
Y82370D01*
X296130Y80500D02*
X299870D01*
X298000Y78630D02*
Y82370D01*
X253130Y106000D02*
X256870D01*
X255000Y104130D02*
Y107870D01*
X274031Y125500D02*
X277969D01*
X276000Y123531D02*
Y127469D01*
X274031Y115000D02*
X277969D01*
X276000Y113031D02*
Y116969D01*
X273000Y134630D02*
Y138370D01*
X271130Y136500D02*
X274870D01*
X297630Y289000D02*
X301370D01*
X299500Y287130D02*
Y290870D01*
X221500Y280130D02*
Y283870D01*
X219630Y282000D02*
X223370D01*
X191630Y302500D02*
X195370D01*
X193500Y300630D02*
Y304370D01*
X184130Y302500D02*
X187870D01*
X186000Y300630D02*
Y304370D01*
X171500Y311630D02*
Y315370D01*
X169630Y313500D02*
X173370D01*
X222000Y241130D02*
Y244870D01*
X220130Y243000D02*
X223870D01*
X206500Y280130D02*
Y283870D01*
X204630Y282000D02*
X208370D01*
X158630Y311500D02*
X162370D01*
X160500Y309630D02*
Y313370D01*
X144630Y313500D02*
X148370D01*
X146500Y311630D02*
Y315370D01*
X276362Y159031D02*
Y162969D01*
X274394Y161000D02*
X278331D01*
D13*
X51000Y15441D02*
X51441Y15000D01*
X51000Y15441D02*
Y50327D01*
X58957Y58284D01*
X146074Y322217D02*
Y322426D01*
X146500Y316059D02*
Y321791D01*
X146074Y322217D02*
X146500Y321791D01*
Y316059D02*
X158303D01*
X160303Y314059D01*
X160500D01*
X148000Y310941D02*
X153059D01*
X153061Y310939D01*
X174059Y313500D02*
X174398Y313161D01*
X160059Y308500D02*
X160543Y308984D01*
X195969Y310961D02*
X196040Y311032D01*
X202862D02*
X202933Y311102D01*
X200915Y308543D02*
X202933D01*
X200474Y308984D02*
X200915Y308543D01*
X196040Y311032D02*
X202862D01*
X160543Y308984D02*
X200474D01*
X154000Y308500D02*
X160059D01*
X110465Y264965D02*
X154000Y308500D01*
X59500Y264965D02*
X110465D01*
X145130Y310216D02*
X145371Y310457D01*
X106000Y272500D02*
X143716Y310216D01*
X45382Y272500D02*
X106000D01*
X145371Y310457D02*
Y311871D01*
X143716Y310216D02*
X145130D01*
X146441Y310941D02*
X148000D01*
X147000D02*
X148000D01*
X131465Y358347D02*
X138654D01*
X179621Y317379D01*
X185620D01*
X212500Y61500D02*
X216441D01*
X203035Y52035D02*
X212500Y61500D01*
X203035Y39154D02*
Y52035D01*
X232663Y272475D02*
X329252Y175886D01*
X232663Y272475D02*
Y313663D01*
X329252Y160138D02*
Y175886D01*
X298000Y83059D02*
Y88000D01*
X37846Y264965D02*
X45382Y272500D01*
X232662Y313662D02*
X232663Y313663D01*
X226067Y313662D02*
X232662D01*
X181000Y305000D02*
X181158Y305157D01*
X186000D02*
X193500D01*
X181158D02*
X186000D01*
X218843Y282000D02*
Y287158D01*
X218500Y287500D02*
X218843Y287158D01*
X287500Y292866D02*
X288866Y291500D01*
X293000D01*
X226067Y313661D02*
X226067Y313662D01*
X218843Y282000D02*
X219000Y281842D01*
X205106Y321339D02*
X205106Y321339D01*
X232662Y321338D02*
X232663Y321337D01*
X226230D02*
X226231Y321338D01*
X197661Y321339D02*
X205106D01*
X197661Y321339D02*
X197661Y321339D01*
X226231Y321338D02*
X232662D01*
X204017Y329008D02*
X204024Y329000D01*
X197500Y329000D02*
X197508Y329008D01*
X204017D01*
X193500Y305984D02*
X202933D01*
X185620Y317379D02*
X186779Y316220D01*
X202933D01*
X148000Y358347D02*
X150047D01*
X152058Y356335D01*
X152165D01*
X189720Y318779D02*
X202933D01*
X152165Y356335D02*
X189720Y318779D01*
X174398Y313161D02*
X201933D01*
X254256Y316220D02*
X258535Y320500D01*
X258535D01*
X226067Y316220D02*
X254256D01*
X258535Y320500D02*
X297035Y359000D01*
X240280Y318779D02*
X280500Y359000D01*
X226067Y318779D02*
X240280D01*
X229965Y358500D02*
X234000Y354465D01*
X229965Y358500D02*
Y358500D01*
X234000Y329000D02*
Y354465D01*
X234398Y323898D02*
X246500Y336000D01*
Y358500D01*
X226067Y323898D02*
X234398D01*
X231628Y326457D02*
X234086Y328914D01*
X234000Y329000D02*
X234086Y328914D01*
X226067Y326457D02*
X231628D01*
X196335Y356289D02*
Y358815D01*
X193500Y353453D02*
X196335Y356289D01*
X193500Y328500D02*
Y353453D01*
Y328500D02*
X195543Y326457D01*
X202933D01*
X176500Y341000D02*
Y353788D01*
X179965Y357253D02*
Y358500D01*
X176500Y353788D02*
X179965Y357253D01*
X193602Y323898D02*
X202933D01*
X176500Y341000D02*
X193602Y323898D01*
X219000Y272130D02*
Y281842D01*
X204000Y272130D02*
Y281842D01*
X255000Y76000D02*
X256500Y74500D01*
X255000Y76000D02*
Y104342D01*
X256500Y74500D02*
X261000D01*
X264437Y77937D01*
Y82512D01*
X289437Y77941D02*
X298000D01*
X263657Y105157D02*
X264437Y104378D01*
Y103866D02*
Y104378D01*
X279437Y78527D02*
Y82512D01*
X280023Y77941D02*
X289437D01*
X279437Y78527D02*
X280023Y77941D01*
D14*
X264249Y161000D02*
D03*
D15*
X59315Y12047D02*
Y17953D01*
X48685Y12047D02*
Y17953D01*
Y12047D02*
X59315D01*
X48685Y17953D02*
X59315D01*
X213685Y58547D02*
Y64453D01*
X224315Y58547D02*
Y64453D01*
X213685D02*
X224315D01*
X213685Y58547D02*
X224315D01*
X264150Y7020D02*
Y47571D01*
X222811D02*
X264150D01*
X222811Y7020D02*
Y47571D01*
Y7020D02*
X264150D01*
X214650Y6673D02*
Y47224D01*
X173311D02*
X214650D01*
X173311Y6673D02*
Y47224D01*
Y6673D02*
X214650D01*
X167114Y6173D02*
Y46724D01*
X125776D02*
X167114D01*
X125776Y6173D02*
Y46724D01*
Y6173D02*
X167114D01*
X119650D02*
Y46724D01*
X78311D02*
X119650D01*
X78311Y6173D02*
Y46724D01*
Y6173D02*
X119650D01*
X291240Y289500D02*
Y304500D01*
X283760Y289500D02*
Y304500D01*
X291240D01*
X283760Y289500D02*
X291240D01*
X235516Y276016D02*
Y287984D01*
X247484D01*
Y276016D02*
Y287984D01*
X235516Y276016D02*
X247484D01*
X285016Y132016D02*
Y143984D01*
X296984D01*
Y132016D02*
Y143984D01*
X285016Y132016D02*
X296984D01*
X177016Y210016D02*
Y221984D01*
X188984D01*
Y210016D02*
Y221984D01*
X177016Y210016D02*
X188984D01*
X333516Y11016D02*
Y22984D01*
X345484D01*
Y11016D02*
Y22984D01*
X333516Y11016D02*
X345484D01*
X102016Y303516D02*
Y315484D01*
X113984D01*
Y303516D02*
Y315484D01*
X102016Y303516D02*
X113984D01*
X159016Y96516D02*
Y108484D01*
X170984D01*
Y96516D02*
Y108484D01*
X159016Y96516D02*
X170984D01*
X334016Y32016D02*
Y43984D01*
X345984D01*
Y32016D02*
Y43984D01*
X334016Y32016D02*
X345984D01*
X71350Y349929D02*
Y390480D01*
Y349929D02*
X112689D01*
Y390480D01*
X71350D02*
X112689D01*
X119850Y350276D02*
Y390827D01*
Y350276D02*
X161189D01*
Y390827D01*
X119850D02*
X161189D01*
X168350Y350429D02*
Y390980D01*
Y350429D02*
X209689D01*
Y390980D01*
X168350D02*
X209689D01*
X218350Y350429D02*
Y390980D01*
Y350429D02*
X259689D01*
Y390980D01*
X218350D02*
X259689D01*
X268886Y350929D02*
Y391480D01*
Y350929D02*
X310224D01*
Y391480D01*
X268886D02*
X310224D01*
X257508Y182190D02*
Y210537D01*
X291366Y182190D02*
Y210537D01*
X257508D02*
X291366D01*
X257508Y182190D02*
X291366D01*
X264185Y218453D02*
X274815D01*
X264185Y212547D02*
X274815D01*
X264185D02*
Y218453D01*
X274815Y212547D02*
Y218453D01*
X200803Y148736D02*
X251197D01*
Y203264D01*
X200803D02*
X251197D01*
X200803Y148736D02*
Y203264D01*
X-5457Y319535D02*
Y386465D01*
X57535D02*
X57535Y319535D01*
X-5457D02*
X57535D01*
X-5457Y386465D02*
X57535D01*
X286484Y75185D02*
Y85815D01*
X292390Y75185D02*
Y85815D01*
X286484Y75185D02*
X292390D01*
X286484Y85815D02*
X292390D01*
X300953Y75185D02*
Y85815D01*
X295047Y75185D02*
Y85815D01*
X300953D01*
X295047Y75185D02*
X300953D01*
X252047Y100685D02*
Y111315D01*
X257953Y100685D02*
Y111315D01*
X252047Y100685D02*
X257953D01*
X252047Y111315D02*
X257953D01*
X285252Y120972D02*
Y130028D01*
X266748Y120972D02*
Y130028D01*
Y120972D02*
X285252D01*
X266748Y130028D02*
X285252D01*
Y110472D02*
Y119528D01*
X266748Y110472D02*
Y119528D01*
Y110472D02*
X285252D01*
X266748Y119528D02*
X285252D01*
X261110Y78524D02*
X282764D01*
Y107854D01*
X261110D02*
X282764D01*
X261110Y78524D02*
Y107854D01*
X267685Y139453D02*
X278315D01*
X267685Y133547D02*
X278315D01*
X267685D02*
Y139453D01*
X278315Y133547D02*
Y139453D01*
X302453Y283685D02*
Y294315D01*
X296547Y283685D02*
Y294315D01*
Y283685D02*
X302453D01*
X296547Y294315D02*
X302453D01*
X216185Y284953D02*
X226815D01*
X216185Y279047D02*
X226815D01*
X216185D02*
Y284953D01*
X226815Y279047D02*
Y284953D01*
X196453Y297185D02*
Y307815D01*
X190547Y297185D02*
Y307815D01*
X196453D01*
X190547Y297185D02*
X196453D01*
X188953D02*
Y307815D01*
X183047Y297185D02*
Y307815D01*
X188953D01*
X183047Y297185D02*
X188953D01*
X166185Y310547D02*
X176815D01*
X166185Y316453D02*
X176815D01*
Y310547D02*
Y316453D01*
X166185Y310547D02*
Y316453D01*
X216685Y245953D02*
X227315D01*
X216685Y240047D02*
X227315D01*
X216685D02*
Y245953D01*
X227315Y240047D02*
Y245953D01*
X200870Y276067D02*
X222130D01*
X200870Y246933D02*
Y276067D01*
Y246933D02*
X222130D01*
Y276067D01*
X229953Y303524D02*
Y331476D01*
X199047D02*
X229953D01*
X199047Y303524D02*
Y331476D01*
Y303524D02*
X229953D01*
X201185Y284953D02*
X211815D01*
X201185Y279047D02*
X211815D01*
X201185D02*
Y284953D01*
X211815Y279047D02*
Y284953D01*
X163453Y306185D02*
Y316815D01*
X157547Y306185D02*
Y316815D01*
X163453D01*
X157547Y306185D02*
X163453D01*
X149453Y308185D02*
Y318815D01*
X143547Y308185D02*
Y318815D01*
X149453D01*
X143547Y308185D02*
X149453D01*
X258646Y174386D02*
X294079D01*
X258646Y147614D02*
X294079D01*
X258646D02*
Y174386D01*
X294079Y147614D02*
Y174386D01*
D16*
X56559Y15000D02*
D03*
X51441D02*
D03*
X216441Y61500D02*
D03*
X221559D02*
D03*
X174059Y313500D02*
D03*
X168941D02*
D03*
D17*
X287500Y301134D02*
D03*
Y292866D02*
D03*
D18*
X369172Y49957D02*
D03*
Y52517D02*
D03*
Y55076D02*
D03*
Y57635D02*
D03*
Y60194D02*
D03*
D19*
X369665Y42871D02*
D03*
Y67280D02*
D03*
D20*
X379700Y40115D02*
D03*
Y70036D02*
D03*
D21*
Y50351D02*
D03*
Y59800D02*
D03*
D22*
X264595Y196363D02*
D03*
X284279D02*
D03*
D23*
X266843Y215500D02*
D03*
X272158D02*
D03*
X270342Y136500D02*
D03*
X275658D02*
D03*
X218843Y282000D02*
D03*
X224158D02*
D03*
X219342Y243000D02*
D03*
X224658D02*
D03*
X203842Y282000D02*
D03*
X209157D02*
D03*
D24*
X226000Y196079D02*
D03*
Y155921D02*
D03*
D25*
X49937Y356937D02*
D03*
Y349063D02*
D03*
Y366779D02*
D03*
Y339220D02*
D03*
D26*
X289437Y77941D02*
D03*
Y83059D02*
D03*
X298000Y83059D02*
D03*
Y77941D02*
D03*
X160500Y314059D02*
D03*
Y308941D02*
D03*
X146500Y316059D02*
D03*
Y310941D02*
D03*
D27*
X255000Y103342D02*
D03*
Y108658D02*
D03*
X193500Y305157D02*
D03*
Y299843D02*
D03*
X186000Y305157D02*
D03*
Y299843D02*
D03*
D28*
X281709Y125500D02*
D03*
X270291D02*
D03*
X281709Y115000D02*
D03*
X270291D02*
D03*
D29*
X271937Y93189D02*
D03*
D30*
X264437Y103866D02*
D03*
X269437D02*
D03*
X274437D02*
D03*
X279437D02*
D03*
Y82512D02*
D03*
X274437D02*
D03*
X269437D02*
D03*
X264437D02*
D03*
D31*
X219000Y250870D02*
D03*
X214000D02*
D03*
X209000D02*
D03*
X204000D02*
D03*
Y272130D02*
D03*
X209000D02*
D03*
X214000D02*
D03*
X219000D02*
D03*
D32*
X202933Y305984D02*
D03*
Y308543D02*
D03*
Y311102D02*
D03*
Y313661D02*
D03*
Y316220D02*
D03*
Y318779D02*
D03*
Y321339D02*
D03*
Y323898D02*
D03*
Y326457D02*
D03*
Y329016D02*
D03*
X226067D02*
D03*
Y326457D02*
D03*
Y323898D02*
D03*
Y321339D02*
D03*
Y318779D02*
D03*
Y316220D02*
D03*
Y313661D02*
D03*
Y311102D02*
D03*
Y308543D02*
D03*
Y305984D02*
D03*
D33*
X264158Y161000D02*
D03*
X288567D02*
D03*
D67*
X270342Y144443D02*
X270900Y145000D01*
X284000D01*
X291000Y138000D01*
X270342Y136500D02*
Y144443D01*
X269437Y103866D02*
Y114728D01*
X269500Y114791D02*
Y122400D01*
X270500Y124709D02*
Y135658D01*
X50297Y367140D02*
X61140D01*
D68*
X301500Y17000D02*
X339500D01*
X359367Y50032D02*
X369098D01*
X49937Y366779D02*
X50297Y367140D01*
X61140D02*
X61500Y367500D01*
D69*
X139000Y35000D02*
Y37209D01*
X155535Y35000D02*
Y36965D01*
X253500Y36000D02*
Y37846D01*
X236965Y36000D02*
Y38209D01*
X235104Y40070D02*
X236965Y38209D01*
X203500Y35153D02*
Y36000D01*
X185699Y36419D02*
X186965Y35153D01*
X185699Y36419D02*
Y39801D01*
D70*
X236000Y39500D02*
D03*
Y17846D02*
D03*
X252535Y39500D02*
D03*
X186500Y39154D02*
D03*
Y17500D02*
D03*
X203035Y39154D02*
D03*
X138965Y38653D02*
D03*
Y17000D02*
D03*
X155500Y38653D02*
D03*
X91500D02*
D03*
Y17000D02*
D03*
X108035Y38653D02*
D03*
X301500D02*
D03*
Y17000D02*
D03*
X99500Y358000D02*
D03*
Y379654D02*
D03*
X82965Y358000D02*
D03*
X148000Y358347D02*
D03*
Y380000D02*
D03*
X131465Y358347D02*
D03*
X196500Y358500D02*
D03*
Y380153D02*
D03*
X179965Y358500D02*
D03*
X246500D02*
D03*
Y380153D02*
D03*
X229965Y358500D02*
D03*
X297035Y359000D02*
D03*
Y380654D02*
D03*
X280500Y359000D02*
D03*
D71*
X252535Y17846D02*
D03*
X203035Y17500D02*
D03*
X155500Y17000D02*
D03*
X108035D02*
D03*
X82965Y379654D02*
D03*
X131465Y380000D02*
D03*
X179965Y380153D02*
D03*
X229965D02*
D03*
X280500Y380654D02*
D03*
D72*
X100500Y203500D02*
D03*
X366142Y15748D02*
D03*
Y377953D02*
D03*
D73*
X241500Y282000D02*
D03*
X291000Y138000D02*
D03*
X183000Y216000D02*
D03*
X339500Y17000D02*
D03*
X108000Y309500D02*
D03*
X165000Y102500D02*
D03*
X340000Y38000D02*
D03*
D74*
X320004Y36843D02*
D03*
X282996D02*
D03*
X9106Y198823D02*
D03*
Y298035D02*
D03*
X8563Y41749D02*
D03*
Y157497D02*
D03*
D75*
X37846Y198823D02*
D03*
Y215358D02*
D03*
Y231894D02*
D03*
Y248429D02*
D03*
Y264965D02*
D03*
Y281500D02*
D03*
Y298035D02*
D03*
X59500Y198823D02*
D03*
Y215358D02*
D03*
Y231894D02*
D03*
Y248429D02*
D03*
Y264965D02*
D03*
Y281500D02*
D03*
Y298035D02*
D03*
X58957Y157497D02*
D03*
Y140961D02*
D03*
Y124426D02*
D03*
Y107890D02*
D03*
Y91355D02*
D03*
Y74819D02*
D03*
Y58284D02*
D03*
Y41749D02*
D03*
X37303Y157497D02*
D03*
Y140961D02*
D03*
Y124426D02*
D03*
Y107890D02*
D03*
Y91355D02*
D03*
Y74819D02*
D03*
Y58284D02*
D03*
Y41749D02*
D03*
D76*
X329252Y160138D02*
D03*
Y175886D02*
D03*
Y191634D02*
D03*
Y207382D02*
D03*
Y223130D02*
D03*
Y238878D02*
D03*
Y254626D02*
D03*
Y270374D02*
D03*
X345000Y168012D02*
D03*
Y183760D02*
D03*
Y199508D02*
D03*
Y215256D02*
D03*
Y231004D02*
D03*
Y246752D02*
D03*
Y262500D02*
D03*
X360748Y160138D02*
D03*
Y175886D02*
D03*
Y191634D02*
D03*
Y207382D02*
D03*
Y223130D02*
D03*
Y238878D02*
D03*
Y254626D02*
D03*
Y270374D02*
D03*
D77*
X346969Y134547D02*
D03*
Y295965D02*
D03*
D78*
X126537Y161500D02*
D03*
Y144965D02*
D03*
Y128429D02*
D03*
Y111894D02*
D03*
Y95358D02*
D03*
X104884Y161500D02*
D03*
Y144965D02*
D03*
Y128429D02*
D03*
Y111894D02*
D03*
Y95358D02*
D03*
D79*
X41000Y378394D02*
D03*
Y327606D02*
D03*
D80*
X13795Y380165D02*
D03*
Y325835D02*
D03*
D81*
X146074Y322426D02*
D03*
X195969Y310961D02*
D03*
X153061Y310939D02*
D03*
X232000Y217000D02*
D03*
X226500D02*
D03*
X250500D02*
D03*
X246000D02*
D03*
X241500D02*
D03*
X237000D02*
D03*
X298000Y88000D02*
D03*
X209000Y243000D02*
D03*
X232663Y313663D02*
D03*
X181000Y305000D02*
D03*
X218500Y287500D02*
D03*
X293000Y291500D02*
D03*
X197661Y321339D02*
D03*
X232663Y321337D02*
D03*
X197500Y329000D02*
D03*
D82*
X359293Y50106D02*
D03*
D83*
X61500Y367500D02*
D03*
D84*
X270342Y144443D02*
D03*
M02*
