%FSTAX23Y23*%
%MOIN*%
%SFA1B1*%

%IPPOS*%
%ADD9500C,0.009840*%
%ADD9501C,0.027560*%
%ADD9502C,0.055120*%
%ADD9503C,0.057090*%
%ADD9504C,0.068900*%
%ADD9505C,0.072830*%
%ADD9506C,0.115350*%
%ADD9507C,0.120080*%
%ADD9508C,0.133860*%
%LNmainpcb-roundholes-1*%
%LPD*%
G54D9500*
X03528Y005D03*
X0298Y0088D03*
X02757Y0091D03*
X0272Y0091D03*
X02675D03*
Y0096D03*
X0272D03*
X0276D03*
X02703Y01444D03*
X0209Y0243D03*
X01959Y03109D03*
X01976Y03213D03*
X01975Y0329D03*
X0181Y0305D03*
X01485Y03109D03*
X01555Y0322D03*
X01415Y03224D03*
X00675Y03675D03*
X02326Y03213D03*
Y03136D03*
X02185Y02875D03*
X0269Y02725D03*
X0251Y0217D03*
X0246D03*
X0241D03*
X0236D03*
X0231D03*
X02263Y02168D03*
G54D9501*
X03395Y0017D03*
X03405Y00425D03*
X0291Y0138D03*
X0165Y01025D03*
X0183Y0216D03*
X01525Y0275D03*
X0248Y0297D03*
G54D9502*
X01048Y00953D03*
Y01118D03*
Y01284D03*
Y01449D03*
Y01615D03*
X01265D03*
Y01449D03*
Y01284D03*
Y01118D03*
Y00953D03*
G54D9503*
X00915Y0017D03*
X0108D03*
Y00386D03*
X00915D03*
X01389D03*
X01555D03*
Y0017D03*
X01389D03*
X01865Y00175D03*
X0203D03*
Y00391D03*
X01865D03*
X0236Y00395D03*
X02525D03*
Y00178D03*
X0236D03*
X02845Y0017D03*
Y00386D03*
X03155D03*
Y0017D03*
X01965Y03585D03*
X01799D03*
X0148Y03583D03*
X01314D03*
X00995Y0358D03*
X00829D03*
X02299Y03585D03*
X02465D03*
X02805Y0359D03*
X0297D03*
Y03806D03*
X02805D03*
X02465Y03801D03*
X02299D03*
X01965D03*
X01799D03*
X0148Y038D03*
X01314D03*
X00995Y03796D03*
X00829D03*
G54D9504*
X03292Y01601D03*
Y01758D03*
Y01916D03*
Y02073D03*
X0345Y01995D03*
Y01837D03*
Y0168D03*
X03607Y01758D03*
Y01601D03*
Y01916D03*
Y02073D03*
Y02231D03*
Y02388D03*
Y02546D03*
Y02703D03*
X0345Y02625D03*
Y02467D03*
Y0231D03*
Y02152D03*
X03292Y02231D03*
Y02388D03*
Y02546D03*
Y02703D03*
G54D9505*
X004Y00418D03*
X00616D03*
Y00583D03*
Y00748D03*
Y00914D03*
Y01079D03*
Y01245D03*
Y0141D03*
Y01575D03*
X00611Y01988D03*
X00395D03*
X004Y01575D03*
Y0141D03*
Y01245D03*
Y01079D03*
Y00914D03*
Y00748D03*
Y00583D03*
X00395Y02154D03*
Y02319D03*
Y02485D03*
Y0265D03*
Y02815D03*
Y02981D03*
X00611D03*
Y02815D03*
Y0265D03*
Y02485D03*
Y02319D03*
Y02154D03*
G54D9506*
X03469Y01345D03*
Y02959D03*
G54D9507*
X00112Y00418D03*
Y01575D03*
X00107Y01988D03*
Y02981D03*
G54D9508*
X03661Y03779D03*
Y00157D03*
X01005Y02035D03*
M02*