G04*
G04 #@! TF.GenerationSoftware,Altium Limited,Altium Designer,20.2.6 (244)*
G04*
G04 Layer_Color=32768*
%FSLAX43Y43*%
%MOMM*%
G71*
G04*
G04 #@! TF.SameCoordinates,26D22392-77BC-4279-9484-9B9EAB7B2405*
G04*
G04*
G04 #@! TF.FilePolarity,Positive*
G04*
G01*
G75*
%ADD13C,0.100*%
%ADD15C,0.127*%
%ADD18C,0.152*%
%ADD20C,0.050*%
G36*
X50703Y24694D02*
X52031D01*
Y21906D01*
X50703D01*
Y21497D01*
X47097D01*
Y21906D01*
X45769D01*
Y24694D01*
X47097D01*
Y25103D01*
X50703D01*
Y24694D01*
D02*
G37*
G36*
X32403Y23994D02*
X33731D01*
Y21206D01*
X32403D01*
Y20797D01*
X28797D01*
Y21206D01*
X27469D01*
Y23994D01*
X28797D01*
Y24403D01*
X32403D01*
Y23994D01*
D02*
G37*
G36*
X7354Y867D02*
X1106D01*
Y16285D01*
X7354D01*
Y867D01*
D02*
G37*
G36*
X30803Y37694D02*
X32131D01*
Y34906D01*
X30803D01*
Y34497D01*
X27197D01*
Y34906D01*
X25869D01*
Y37694D01*
X27197D01*
Y38103D01*
X30803D01*
Y37694D01*
D02*
G37*
G36*
X830Y52595D02*
X12970D01*
Y75070D01*
X830D01*
Y52595D01*
D02*
G37*
G36*
X50303Y37694D02*
X51631D01*
Y34906D01*
X50303D01*
Y34497D01*
X46697D01*
Y34906D01*
X45369D01*
Y37694D01*
X46697D01*
Y38103D01*
X50303D01*
Y37694D01*
D02*
G37*
G36*
X37489Y51895D02*
X34111D01*
Y55705D01*
X37489D01*
Y51895D01*
D02*
G37*
D13*
X29500Y5950D02*
Y6450D01*
X29250Y6200D02*
X29750D01*
X30800Y5950D02*
Y6450D01*
X30550Y6200D02*
X31050D01*
X47800Y63100D02*
Y64100D01*
X47300Y63600D02*
X48300D01*
X12400Y3900D02*
X13400D01*
X12900Y3400D02*
Y4400D01*
X20400Y9700D02*
X21400D01*
X20900Y9200D02*
Y10200D01*
X20400Y9500D02*
X21400D01*
X20900Y9000D02*
Y10000D01*
X23950Y14100D02*
X24450D01*
X24200Y13850D02*
Y14350D01*
X25250Y13300D02*
X25750D01*
X25500Y13050D02*
Y13550D01*
X30325Y19600D02*
X30875D01*
X30600Y19325D02*
Y19875D01*
X48900Y11350D02*
Y11850D01*
X48650Y11600D02*
X49150D01*
X45350Y13300D02*
X45850D01*
X45600Y13050D02*
Y13550D01*
X44150Y13300D02*
X44650D01*
X44400Y13050D02*
Y13550D01*
X44800Y24125D02*
Y24675D01*
X44525Y24400D02*
X45075D01*
X49900Y11950D02*
Y12450D01*
X49650Y12200D02*
X50150D01*
X47300Y12250D02*
Y12750D01*
X47050Y12500D02*
X47550D01*
X48600Y10950D02*
Y11450D01*
X48350Y11200D02*
X48850D01*
X43900Y24125D02*
Y24675D01*
X43625Y24400D02*
X44175D01*
X26900Y12150D02*
Y12650D01*
X26650Y12400D02*
X27150D01*
X28600Y10750D02*
Y11250D01*
X28350Y11000D02*
X28850D01*
X36000Y23025D02*
Y23575D01*
X35725Y23300D02*
X36275D01*
X31900Y52225D02*
Y52775D01*
X31625Y52500D02*
X32175D01*
X32671Y55000D02*
X33221D01*
X32946Y54725D02*
Y55275D01*
X33425Y57000D02*
X33975D01*
X33700Y56725D02*
Y57275D01*
X35500Y56725D02*
Y57275D01*
X35225Y57000D02*
X35775D01*
X34425D02*
X34975D01*
X34700Y56725D02*
Y57275D01*
X33200Y54825D02*
Y55375D01*
X32925Y55100D02*
X33475D01*
X40100Y54925D02*
Y55475D01*
X39825Y55200D02*
X40375D01*
X36996Y56679D02*
Y57229D01*
X36721Y56954D02*
X37271D01*
X38417Y57868D02*
X38967D01*
X38692Y57593D02*
Y58143D01*
X40200Y56625D02*
Y57175D01*
X39925Y56900D02*
X40475D01*
X38525D02*
X39075D01*
X38800Y56625D02*
Y57175D01*
X38825Y53796D02*
X39375D01*
X39100Y53521D02*
Y54071D01*
Y54825D02*
Y55375D01*
X38825Y55100D02*
X39375D01*
X25525Y59300D02*
X26075D01*
X25800Y59025D02*
Y59575D01*
X34200Y2125D02*
Y2675D01*
X33925Y2400D02*
X34475D01*
X53525Y2700D02*
X54075D01*
X53800Y2425D02*
Y2975D01*
Y2425D02*
Y2975D01*
X53525Y2700D02*
X54075D01*
X33925Y2400D02*
X34475D01*
X34200Y2125D02*
Y2675D01*
X20800Y37725D02*
Y38275D01*
X20525Y38000D02*
X21075D01*
X40425Y38900D02*
X40975D01*
X40700Y38625D02*
Y39175D01*
X38500Y38625D02*
Y39175D01*
X38225Y38900D02*
X38775D01*
X17925Y38000D02*
X18475D01*
X18200Y37725D02*
Y38275D01*
X25400Y17200D02*
X26400D01*
X25900Y16700D02*
Y17700D01*
X30800Y5950D02*
Y6450D01*
X30550Y6200D02*
X31050D01*
X29500Y5950D02*
Y6450D01*
X29250Y6200D02*
X29750D01*
X32400Y17900D02*
X33400D01*
X32900Y17400D02*
Y18400D01*
X32384Y14900D02*
X33384D01*
X32884Y14400D02*
Y15400D01*
X45100Y17200D02*
X46100D01*
X45600Y16700D02*
Y17700D01*
X48900Y15150D02*
Y15650D01*
X48650Y15400D02*
X49150D01*
X51900Y17900D02*
X52900D01*
X52400Y17400D02*
Y18400D01*
X52000Y14900D02*
X53000D01*
X52500Y14400D02*
Y15400D01*
X31125Y54804D02*
X32075D01*
X31600Y54329D02*
Y55279D01*
X41900Y55900D02*
X42700D01*
X42300Y55500D02*
Y56300D01*
X73300Y45200D02*
Y46200D01*
X72800Y45700D02*
X73800D01*
X45600Y16700D02*
Y17700D01*
X45100Y17200D02*
X46100D01*
X51900Y17900D02*
X52900D01*
X52400Y17400D02*
Y18400D01*
X52000Y14900D02*
X53000D01*
X52500Y14400D02*
Y15400D01*
X48900Y15150D02*
Y15650D01*
X48650Y15400D02*
X49150D01*
X25904Y16725D02*
Y17725D01*
X25404Y17225D02*
X26404D01*
X45200Y51800D02*
Y52600D01*
X44800Y52200D02*
X45600D01*
X45200Y56800D02*
Y57600D01*
X44800Y57200D02*
X45600D01*
X50900Y52500D02*
Y53500D01*
X50400Y53000D02*
X51400D01*
X50800Y49200D02*
Y50200D01*
X50300Y49700D02*
X51300D01*
X41800Y46300D02*
Y47300D01*
X41300Y46800D02*
X42300D01*
X42600Y49500D02*
X43400D01*
X43000Y49100D02*
Y49900D01*
X36900Y49100D02*
Y49900D01*
X36500Y49500D02*
X37300D01*
X39100Y50500D02*
X39900D01*
X39500Y50100D02*
Y50900D01*
X39800Y52925D02*
Y53875D01*
X39325Y53400D02*
X40275D01*
X32100Y52971D02*
Y53921D01*
X31625Y53446D02*
X32575D01*
X32950Y50400D02*
X33450D01*
X33200Y50150D02*
Y50650D01*
X31550Y50600D02*
X32050D01*
X31800Y50350D02*
Y50850D01*
X30346Y51491D02*
X30846D01*
X30596Y51242D02*
Y51741D01*
X30350Y48300D02*
X30850D01*
X30600Y48050D02*
Y48550D01*
X28000Y49700D02*
X28800D01*
X28400Y49300D02*
Y50100D01*
X42300Y55500D02*
Y56300D01*
X41900Y55900D02*
X42700D01*
X33000Y50100D02*
Y50900D01*
X32600Y50500D02*
X33400D01*
X39600Y52292D02*
X40400D01*
X40000Y51891D02*
Y52691D01*
X33200Y48300D02*
Y49100D01*
X32800Y48700D02*
X33600D01*
X34000Y60900D02*
X35000D01*
X34500Y60400D02*
Y61400D01*
X36500Y57125D02*
Y58075D01*
X36025Y57600D02*
X36975D01*
X32900Y17400D02*
Y18400D01*
X32400Y17900D02*
X33400D01*
X32900Y14400D02*
Y15400D01*
X32400Y14900D02*
X33400D01*
X39900Y9300D02*
Y10300D01*
X39400Y9800D02*
X40400D01*
X39900Y9300D02*
Y10300D01*
X39400Y9800D02*
X40400D01*
X49750Y6725D02*
X50250D01*
X50000Y6475D02*
Y6975D01*
X51050Y6725D02*
X51550D01*
X51300Y6475D02*
Y6975D01*
X51050Y6700D02*
X51550D01*
X51300Y6450D02*
Y6950D01*
X49750Y6700D02*
X50250D01*
X50000Y6450D02*
Y6950D01*
X29250Y15700D02*
X29750D01*
X29500Y15450D02*
Y15950D01*
X30038Y11400D02*
X30538D01*
X30288Y11150D02*
Y11650D01*
X29350Y11400D02*
X29850D01*
X29600Y11150D02*
Y11650D01*
X29250Y15700D02*
X29750D01*
X29500Y15450D02*
Y15950D01*
X46237Y29520D02*
Y30480D01*
X45757Y30000D02*
X46717D01*
X40916D02*
X41876D01*
X41396Y29520D02*
Y30480D01*
X43320Y30000D02*
X44280D01*
X43800Y29520D02*
Y30480D01*
X48161Y30000D02*
X49121D01*
X48641Y29520D02*
Y30480D01*
X50566Y30050D02*
X51526D01*
X51046Y29570D02*
Y30530D01*
X45757Y30000D02*
X46717D01*
X46237Y29520D02*
Y30480D01*
X40949Y30000D02*
X41909D01*
X41429Y29520D02*
Y30480D01*
X43353Y30000D02*
X44313D01*
X43833Y29520D02*
Y30480D01*
X48161Y30000D02*
X49122D01*
X48642Y29520D02*
Y30480D01*
X50566Y30000D02*
X51526D01*
X51046Y29520D02*
Y30480D01*
X27920Y30000D02*
X28880D01*
X28400Y29520D02*
Y30480D01*
X23016Y30000D02*
X23976D01*
X23496Y29520D02*
Y30480D01*
X25516Y30000D02*
X26476D01*
X25996Y29520D02*
Y30480D01*
X30324Y30000D02*
X31284D01*
X30804Y29520D02*
Y30480D01*
X32729Y30000D02*
X33688D01*
X33209Y29520D02*
Y30480D01*
X12900Y9100D02*
Y10100D01*
X12400Y9600D02*
X13400D01*
X25996Y29520D02*
Y30480D01*
X25516Y30000D02*
X26476D01*
X23020D02*
X23980D01*
X23500Y29520D02*
Y30480D01*
X33209Y29520D02*
Y30480D01*
X32729Y30000D02*
X33688D01*
X28400Y29520D02*
Y30480D01*
X27920Y30000D02*
X28880D01*
X30804Y29520D02*
Y30480D01*
X30324Y30000D02*
X31284D01*
X12100Y22400D02*
X13100D01*
X12600Y21900D02*
Y22900D01*
X3500Y25800D02*
X4500D01*
X4000Y25300D02*
Y26300D01*
X12700Y15500D02*
Y16500D01*
X12200Y16000D02*
X13200D01*
D15*
X12970Y52595D02*
Y75070D01*
X830Y52595D02*
Y75070D01*
Y52595D02*
X12970D01*
D18*
X34111Y51895D02*
X37489D01*
Y55705D01*
X34111D02*
X37489D01*
X34111Y51895D02*
Y55705D01*
X50703Y21906D02*
X52031D01*
X50703Y21497D02*
Y21906D01*
X47097Y21497D02*
X50703D01*
X47097D02*
Y21906D01*
X45769D02*
X47097D01*
X45769D02*
Y24694D01*
X47097D01*
Y25103D01*
X50703D01*
Y24694D02*
Y25103D01*
Y24694D02*
X52031D01*
Y21906D02*
Y24694D01*
X32403Y21206D02*
X33731D01*
X32403Y20797D02*
Y21206D01*
X28797Y20797D02*
X32403D01*
X28797D02*
Y21206D01*
X27469D02*
X28797D01*
X27469D02*
Y23994D01*
X28797D01*
Y24403D01*
X32403D01*
Y23994D02*
Y24403D01*
Y23994D02*
X33731D01*
Y21206D02*
Y23994D01*
X45369Y37694D02*
X46697D01*
Y38103D01*
X50303D01*
Y37694D02*
Y38103D01*
Y37694D02*
X51631D01*
Y34906D02*
Y37694D01*
X50303Y34906D02*
X51631D01*
X50303Y34497D02*
Y34906D01*
X46697Y34497D02*
X50303D01*
X46697D02*
Y34906D01*
X45369D02*
X46697D01*
X45369D02*
Y37694D01*
X25869D02*
X27197D01*
Y38103D01*
X30803D01*
Y37694D02*
Y38103D01*
Y37694D02*
X32131D01*
Y34906D02*
Y37694D01*
X30803Y34906D02*
X32131D01*
X30803Y34497D02*
Y34906D01*
X27197Y34497D02*
X30803D01*
X27197D02*
Y34906D01*
X25869D02*
X27197D01*
X25869D02*
Y37694D01*
X32403Y23994D02*
X33731D01*
X32403D02*
Y24403D01*
X28797D02*
X32403D01*
X28797Y23994D02*
Y24403D01*
X27469Y23994D02*
X28797D01*
X27469Y21206D02*
Y23994D01*
Y21206D02*
X28797D01*
Y20797D02*
Y21206D01*
Y20797D02*
X32403D01*
Y21206D01*
X33731D01*
Y23994D01*
X50703Y24694D02*
X52031D01*
X50703D02*
Y25103D01*
X47097D02*
X50703D01*
X47097Y24694D02*
Y25103D01*
X45769Y24694D02*
X47097D01*
X45769Y21906D02*
Y24694D01*
Y21906D02*
X47097D01*
Y21497D02*
Y21906D01*
Y21497D02*
X50703D01*
Y21906D01*
X52031D01*
Y24694D01*
X30803Y37694D02*
X32131D01*
X30803D02*
Y38103D01*
X27197D02*
X30803D01*
X27197Y37694D02*
Y38103D01*
X25869Y37694D02*
X27197D01*
X25869Y34906D02*
Y37694D01*
Y34906D02*
X27197D01*
Y34497D02*
Y34906D01*
Y34497D02*
X30803D01*
Y34906D01*
X32131D01*
Y37694D01*
X50303D02*
X51631D01*
X50303D02*
Y38103D01*
X46697D02*
X50303D01*
X46697Y37694D02*
Y38103D01*
X45369Y37694D02*
X46697D01*
X45369Y34906D02*
Y37694D01*
Y34906D02*
X46697D01*
Y34497D02*
Y34906D01*
Y34497D02*
X50303D01*
Y34906D01*
X51631D01*
Y37694D01*
X1106Y16285D02*
X7354D01*
X1106Y867D02*
Y16285D01*
Y867D02*
X7354D01*
Y16285D01*
D20*
X29050Y7100D02*
X29950D01*
X29050Y5300D02*
X29950D01*
Y7100D01*
X29050Y5300D02*
Y7100D01*
X30350D02*
X31250D01*
X30350Y5300D02*
X31250D01*
Y7100D01*
X30350Y5300D02*
Y7100D01*
X46150Y64550D02*
X49450D01*
X46150Y62650D02*
X49450D01*
X46150D02*
Y64550D01*
X49450Y62650D02*
Y64550D01*
X9000Y2050D02*
Y5750D01*
X16800Y2050D02*
Y5750D01*
X9000D02*
X16800D01*
X9000Y2050D02*
X16800D01*
X23050Y4400D02*
Y15000D01*
X18750Y4400D02*
Y15000D01*
Y4400D02*
X23050D01*
X18750Y15000D02*
X23050D01*
X18750Y4200D02*
Y14800D01*
X23050Y4200D02*
Y14800D01*
X18750Y4200D02*
X23050D01*
X18750Y14800D02*
X23050D01*
X23750Y13200D02*
Y15000D01*
X24650Y13200D02*
Y15000D01*
X23750D02*
X24650D01*
X23750Y13200D02*
X24650D01*
X25050Y12400D02*
Y14200D01*
X25950Y12400D02*
Y14200D01*
X25050D02*
X25950D01*
X25050Y12400D02*
X25950D01*
X31550Y19100D02*
Y20100D01*
X29650Y19100D02*
Y20100D01*
X31550D01*
X29650Y19100D02*
X31550D01*
X48450Y10700D02*
X49350D01*
X48450Y12500D02*
X49350D01*
Y10700D02*
Y12500D01*
X48450Y10700D02*
Y12500D01*
X45150Y12400D02*
Y14200D01*
X46050Y12400D02*
Y14200D01*
X45150D02*
X46050D01*
X45150Y12400D02*
X46050D01*
X43950D02*
Y14200D01*
X44850Y12400D02*
Y14200D01*
X43950D02*
X44850D01*
X43950Y12400D02*
X44850D01*
X44300Y25350D02*
X45300D01*
X44300Y23450D02*
X45300D01*
X44300D02*
Y25350D01*
X45300Y23450D02*
Y25350D01*
X49450Y11300D02*
X50350D01*
X49450Y13100D02*
X50350D01*
X49450Y11300D02*
Y13100D01*
X50350Y11300D02*
Y13100D01*
X46400Y12050D02*
X48200D01*
X46400Y12950D02*
X48200D01*
Y12050D02*
Y12950D01*
X46400Y12050D02*
Y12950D01*
X47700Y10750D02*
X49500D01*
X47700Y11650D02*
X49500D01*
Y10750D02*
Y11650D01*
X47700Y10750D02*
Y11650D01*
X43400Y25350D02*
X44400D01*
X43400Y23450D02*
X44400D01*
Y25350D01*
X43400Y23450D02*
Y25350D01*
X26000Y11950D02*
X27800D01*
X26000Y12850D02*
X27800D01*
Y11950D02*
Y12850D01*
X26000Y11950D02*
Y12850D01*
X27700Y10550D02*
X29500D01*
X27700Y11450D02*
X29500D01*
Y10550D02*
Y11450D01*
X27700Y10550D02*
Y11450D01*
X35500Y24250D02*
X36500D01*
X35500Y22350D02*
X36500D01*
Y24250D01*
X35500Y22350D02*
Y24250D01*
X30950Y53000D02*
X32850D01*
X30950Y52000D02*
X32850D01*
Y53000D01*
X30950Y52000D02*
Y53000D01*
X31996Y54500D02*
Y55500D01*
X33896Y54500D02*
Y55500D01*
X31996D02*
X33896D01*
X31996Y54500D02*
X33896D01*
X33200Y56050D02*
Y57950D01*
X34200Y56050D02*
Y57950D01*
X33200Y56050D02*
X34200D01*
X33200Y57950D02*
X34200D01*
X35000D02*
X36000D01*
X35000Y56050D02*
X36000D01*
Y57950D01*
X35000Y56050D02*
Y57950D01*
X35200Y56050D02*
Y57950D01*
X34200Y56050D02*
Y57950D01*
Y56050D02*
X35200D01*
X34200Y57950D02*
X35200D01*
X32700Y56050D02*
X33700D01*
X32700Y54150D02*
X33700D01*
X32700D02*
Y56050D01*
X33700Y54150D02*
Y56050D01*
X39150Y55700D02*
X41050D01*
X39150Y54700D02*
X41050D01*
X39150D02*
Y55700D01*
X41050Y54700D02*
Y55700D01*
X36496Y57904D02*
X37496D01*
X36496Y56004D02*
X37496D01*
Y57904D01*
X36496Y56004D02*
Y57904D01*
X38192Y56918D02*
Y58818D01*
X39192Y56918D02*
Y58818D01*
X38192Y56918D02*
X39192D01*
X38192Y58818D02*
X39192D01*
X39700Y57850D02*
X40700D01*
X39700Y55950D02*
X40700D01*
X39700D02*
Y57850D01*
X40700Y55950D02*
Y57850D01*
X39300Y55950D02*
Y57850D01*
X38300Y55950D02*
Y57850D01*
Y55950D02*
X39300D01*
X38300Y57850D02*
X39300D01*
X40050Y53296D02*
Y54296D01*
X38150Y53296D02*
Y54296D01*
X40050D01*
X38150Y53296D02*
X40050D01*
X38150Y54600D02*
X40050D01*
X38150Y55600D02*
X40050D01*
X38150Y54600D02*
Y55600D01*
X40050Y54600D02*
Y55600D01*
X24850Y58800D02*
Y59800D01*
X26750Y58800D02*
Y59800D01*
X24850D02*
X26750D01*
X24850Y58800D02*
X26750D01*
X33250Y2900D02*
X35150D01*
X33250Y1900D02*
X35150D01*
X33250D02*
Y2900D01*
X35150Y1900D02*
Y2900D01*
X54750Y2200D02*
Y3200D01*
X52850Y2200D02*
Y3200D01*
Y2200D02*
X54750D01*
X52850Y3200D02*
X54750D01*
X52850Y2200D02*
X54750D01*
X52850Y3200D02*
X54750D01*
X52850Y2200D02*
Y3200D01*
X54750Y2200D02*
Y3200D01*
X35150Y1900D02*
Y2900D01*
X33250Y1900D02*
Y2900D01*
X35150D01*
X33250Y1900D02*
X35150D01*
X19850Y37500D02*
X21750D01*
X19850Y38500D02*
X21750D01*
Y37500D02*
Y38500D01*
X19850Y37500D02*
Y38500D01*
X39750Y38400D02*
Y39400D01*
X41650Y38400D02*
Y39400D01*
X39750D02*
X41650D01*
X39750Y38400D02*
X41650D01*
X37550D02*
X39450D01*
X37550Y39400D02*
X39450D01*
X37550Y38400D02*
Y39400D01*
X39450Y38400D02*
Y39400D01*
X19150Y37500D02*
Y38500D01*
X17250Y37500D02*
Y38500D01*
X19150D01*
X17250Y37500D02*
X19150D01*
X27825Y15450D02*
Y18950D01*
X23975Y15450D02*
Y18950D01*
X27825D01*
X23975Y15450D02*
X27825D01*
X30350Y7100D02*
X31250D01*
X30350Y5300D02*
X31250D01*
X30350D02*
Y7100D01*
X31250Y5300D02*
Y7100D01*
X29050D02*
X29950D01*
X29050Y5300D02*
X29950D01*
X29050D02*
Y7100D01*
X29950Y5300D02*
Y7100D01*
X32100Y17300D02*
Y18500D01*
X33700Y17300D02*
Y18500D01*
X32100Y17300D02*
X33700D01*
X32100Y18500D02*
X33700D01*
X32084Y14300D02*
Y15500D01*
X33684Y14300D02*
Y15500D01*
X32084Y14300D02*
X33684D01*
X32084Y15500D02*
X33684D01*
X47525Y15450D02*
Y18950D01*
X43675Y15450D02*
Y18950D01*
X47525D01*
X43675Y15450D02*
X47525D01*
X48450Y16300D02*
X49350D01*
X48450Y14500D02*
X49350D01*
X48450D02*
Y16300D01*
X49350Y14500D02*
Y16300D01*
X51600Y17300D02*
Y18500D01*
X53200Y17300D02*
Y18500D01*
X51600Y17300D02*
X53200D01*
X51600Y18500D02*
X53200D01*
X51700Y14300D02*
Y15500D01*
X53300Y14300D02*
Y15500D01*
X51700Y14300D02*
X53300D01*
X51700Y15500D02*
X53300D01*
X32350Y53304D02*
Y56304D01*
X30850Y53304D02*
Y56304D01*
Y53304D02*
X32350D01*
X30850Y56304D02*
X32350D01*
X43000Y54650D02*
Y57150D01*
X41600Y54650D02*
Y57150D01*
Y54650D02*
X43000D01*
X41600Y57150D02*
X43000D01*
X72350Y47350D02*
X74250D01*
X72350Y44050D02*
X74250D01*
X72350D02*
Y47350D01*
X74250Y44050D02*
Y47350D01*
X43675Y18950D02*
X47525D01*
X43675Y15450D02*
X47525D01*
X43675D02*
Y18950D01*
X47525Y15450D02*
Y18950D01*
X51600Y17300D02*
Y18500D01*
X53200Y17300D02*
Y18500D01*
X51600D02*
X53200D01*
X51600Y17300D02*
X53200D01*
X51700Y14300D02*
Y15500D01*
X53300Y14300D02*
Y15500D01*
X51700D02*
X53300D01*
X51700Y14300D02*
X53300D01*
X48450Y16300D02*
X49350D01*
X48450Y14500D02*
X49350D01*
Y16300D01*
X48450Y14500D02*
Y16300D01*
X23979Y18975D02*
X27829D01*
X23979Y15475D02*
X27829D01*
X23979D02*
Y18975D01*
X27829Y15475D02*
Y18975D01*
X44500Y50950D02*
X45900D01*
X44500Y53450D02*
X45900D01*
X44500Y50950D02*
Y53450D01*
X45900Y50950D02*
Y53450D01*
X44500Y58450D02*
X45900D01*
X44500Y55950D02*
X45900D01*
Y58450D01*
X44500Y55950D02*
Y58450D01*
X49250Y52050D02*
X52550D01*
X49250Y53950D02*
X52550D01*
Y52050D02*
Y53950D01*
X49250Y52050D02*
Y53950D01*
X49150Y50650D02*
X52450D01*
X49150Y48750D02*
X52450D01*
X49150D02*
Y50650D01*
X52450Y48750D02*
Y50650D01*
X40150Y47750D02*
X43450D01*
X40150Y45850D02*
X43450D01*
X40150D02*
Y47750D01*
X43450Y45850D02*
Y47750D01*
X44250Y48800D02*
Y50200D01*
X41750Y48800D02*
Y50200D01*
Y48800D02*
X44250D01*
X41750Y50200D02*
X44250D01*
X36200Y50750D02*
X37600D01*
X36200Y48250D02*
X37600D01*
Y50750D01*
X36200Y48250D02*
Y50750D01*
X38250Y49800D02*
Y51200D01*
X40750Y49800D02*
Y51200D01*
X38250D02*
X40750D01*
X38250Y49800D02*
X40750D01*
X38300Y54150D02*
X41300D01*
X38300Y52650D02*
X41300D01*
X38300D02*
Y54150D01*
X41300Y52650D02*
Y54150D01*
X30600Y52696D02*
X33600D01*
X30600Y54196D02*
X33600D01*
Y52696D02*
Y54196D01*
X30600Y52696D02*
Y54196D01*
X33650Y49500D02*
Y51300D01*
X32750Y49500D02*
Y51300D01*
X33650D01*
X32750Y49500D02*
X33650D01*
X32250Y49700D02*
Y51500D01*
X31350Y49700D02*
Y51500D01*
X32250D01*
X31350Y49700D02*
X32250D01*
X31046Y50591D02*
Y52391D01*
X30146Y50591D02*
Y52391D01*
X31046D01*
X30146Y50591D02*
X31046D01*
X31050Y47400D02*
Y49200D01*
X30150Y47400D02*
Y49200D01*
X31050D01*
X30150Y47400D02*
X31050D01*
X29650Y49000D02*
Y50400D01*
X27150Y49000D02*
Y50400D01*
Y49000D02*
X29650D01*
X27150Y50400D02*
X29650D01*
X41600Y57150D02*
X43000D01*
X41600Y54650D02*
X43000D01*
Y57150D01*
X41600Y54650D02*
Y57150D01*
X31750Y51200D02*
X34250D01*
X31750Y49800D02*
X34250D01*
Y51200D01*
X31750Y49800D02*
Y51200D01*
X38750Y51591D02*
Y52991D01*
X41250Y51591D02*
Y52991D01*
X38750Y51591D02*
X41250D01*
X38750Y52991D02*
X41250D01*
X31950Y49400D02*
X34450D01*
X31950Y48000D02*
X34450D01*
Y49400D01*
X31950Y48000D02*
Y49400D01*
Y59150D02*
Y62650D01*
X37050Y59150D02*
Y62650D01*
X31950D02*
X37050D01*
X31950Y59150D02*
X37050D01*
X35750Y56100D02*
X37250D01*
X35750Y59100D02*
X37250D01*
Y56100D02*
Y59100D01*
X35750Y56100D02*
Y59100D01*
X32100Y17300D02*
X33700D01*
X32100Y18500D02*
X33700D01*
Y17300D02*
Y18500D01*
X32100Y17300D02*
Y18500D01*
Y14300D02*
X33700D01*
X32100Y15500D02*
X33700D01*
Y14300D02*
Y15500D01*
X32100Y14300D02*
Y15500D01*
X37750Y15100D02*
X42050D01*
X37750Y4500D02*
X42050D01*
Y15100D01*
X37750Y4500D02*
Y15100D01*
X42050D01*
X37750Y4500D02*
X42050D01*
X37750D02*
Y15100D01*
X42050Y4500D02*
Y15100D01*
X49550Y5825D02*
Y7625D01*
X50450Y5825D02*
Y7625D01*
X49550Y5825D02*
X50450D01*
X49550Y7625D02*
X50450D01*
X50850Y5825D02*
Y7625D01*
X51750Y5825D02*
Y7625D01*
X50850Y5825D02*
X51750D01*
X50850Y7625D02*
X51750D01*
X51750Y5800D02*
Y7600D01*
X50850Y5800D02*
Y7600D01*
Y5800D02*
X51750D01*
X50850Y7600D02*
X51750D01*
X50450Y5800D02*
Y7600D01*
X49550Y5800D02*
Y7600D01*
Y5800D02*
X50450D01*
X49550Y7600D02*
X50450D01*
X29050Y14800D02*
Y16600D01*
X29950Y14800D02*
Y16600D01*
X29050Y14800D02*
X29950D01*
X29050Y16600D02*
X29950D01*
X30738Y10500D02*
Y12300D01*
X29838Y10500D02*
Y12300D01*
X30738D01*
X29838Y10500D02*
X30738D01*
X29150D02*
Y12300D01*
X30050Y10500D02*
Y12300D01*
X29150D02*
X30050D01*
X29150Y10500D02*
X30050D01*
X29950Y14800D02*
Y16600D01*
X29050Y14800D02*
Y16600D01*
Y14800D02*
X29950D01*
X29050Y16600D02*
X29950D01*
X45187Y31950D02*
X47287D01*
X45187Y28050D02*
X47287D01*
X45187D02*
Y31950D01*
X47287Y28050D02*
Y31950D01*
X42446Y28050D02*
Y31950D01*
X40346Y28050D02*
Y31950D01*
Y28050D02*
X42446D01*
X40346Y31950D02*
X42446D01*
X44850Y28050D02*
Y31950D01*
X42750Y28050D02*
Y31950D01*
Y28050D02*
X44850D01*
X42750Y31950D02*
X44850D01*
X49691Y28050D02*
Y31950D01*
X47591Y28050D02*
Y31950D01*
Y28050D02*
X49691D01*
X47591Y31950D02*
X49691D01*
X52096Y28100D02*
Y32000D01*
X49995Y28100D02*
Y32000D01*
Y28100D02*
X52096D01*
X49995Y32000D02*
X52096D01*
X45187Y28050D02*
Y31950D01*
X47287Y28050D02*
Y31950D01*
X45187Y28050D02*
X47287D01*
X45187Y31950D02*
X47287D01*
X40379Y28050D02*
Y31950D01*
X42479Y28050D02*
Y31950D01*
X40379Y28050D02*
X42479D01*
X40379Y31950D02*
X42479D01*
X42783Y28050D02*
Y31950D01*
X44883Y28050D02*
Y31950D01*
X42783Y28050D02*
X44883D01*
X42783Y31950D02*
X44883D01*
X47592Y28050D02*
Y31950D01*
X49691Y28050D02*
Y31950D01*
X47592Y28050D02*
X49691D01*
X47592Y31950D02*
X49691D01*
X49996Y28050D02*
Y31950D01*
X52096Y28050D02*
Y31950D01*
X49996Y28050D02*
X52096D01*
X49996Y31950D02*
X52096D01*
X27350Y28050D02*
Y31950D01*
X29450Y28050D02*
Y31950D01*
X27350Y28050D02*
X29450D01*
X27350Y31950D02*
X29450D01*
X22446Y28050D02*
Y31950D01*
X24546Y28050D02*
Y31950D01*
X22446Y28050D02*
X24546D01*
X22446Y31950D02*
X24546D01*
X24946Y28050D02*
Y31950D01*
X27046Y28050D02*
Y31950D01*
X24946Y28050D02*
X27046D01*
X24946Y31950D02*
X27046D01*
X29754Y28050D02*
Y31950D01*
X31854Y28050D02*
Y31950D01*
X29754Y28050D02*
X31854D01*
X29754Y31950D02*
X31854D01*
X32158Y28050D02*
Y31950D01*
X34258Y28050D02*
Y31950D01*
X32158Y28050D02*
X34258D01*
X32158Y31950D02*
X34258D01*
X9000Y7750D02*
X16800D01*
X9000Y11450D02*
X16800D01*
Y7750D02*
Y11450D01*
X9000Y7750D02*
Y11450D01*
X24946Y31950D02*
X27046D01*
X24946Y28050D02*
X27046D01*
X24946D02*
Y31950D01*
X27046Y28050D02*
Y31950D01*
X24550Y28050D02*
Y31950D01*
X22450Y28050D02*
Y31950D01*
Y28050D02*
X24550D01*
X22450Y31950D02*
X24550D01*
X32158D02*
X34258D01*
X32158Y28050D02*
X34258D01*
X32158D02*
Y31950D01*
X34258Y28050D02*
Y31950D01*
X27350D02*
X29450D01*
X27350Y28050D02*
X29450D01*
X27350D02*
Y31950D01*
X29450Y28050D02*
Y31950D01*
X29754D02*
X31854D01*
X29754Y28050D02*
X31854D01*
X29754D02*
Y31950D01*
X31854Y28050D02*
Y31950D01*
X8700Y20550D02*
Y24250D01*
X16500Y20550D02*
Y24250D01*
X8700D02*
X16500D01*
X8700Y20550D02*
X16500D01*
X5850Y21900D02*
Y29700D01*
X2150Y21900D02*
Y29700D01*
X5850D01*
X2150Y21900D02*
X5850D01*
X8800Y14150D02*
X16600D01*
X8800Y17850D02*
X16600D01*
Y14150D02*
Y17850D01*
X8800Y14150D02*
Y17850D01*
M02*
