G04*
G04 #@! TF.GenerationSoftware,Altium Limited,Altium Designer,20.2.6 (244)*
G04*
G04 Layer_Color=32896*
%FSLAX43Y43*%
%MOMM*%
G71*
G04*
G04 #@! TF.SameCoordinates,2F8EC30A-7D6A-479A-A738-A0A0F7C0B456*
G04*
G04*
G04 #@! TF.FilePolarity,Positive*
G04*
G01*
G75*
%ADD17C,0.200*%
G36*
X27088Y20416D02*
X34112D01*
Y24784D01*
X27088D01*
Y20416D01*
D02*
G37*
G36*
X32512Y38484D02*
X25488D01*
Y34116D01*
X32512D01*
Y38484D01*
D02*
G37*
G36*
X45388Y21116D02*
X52412D01*
Y25484D01*
X45388D01*
Y21116D01*
D02*
G37*
G36*
X52012Y38484D02*
X44988D01*
Y34116D01*
X52012D01*
Y38484D01*
D02*
G37*
G36*
X56589Y7115D02*
X56305D01*
Y7006D01*
X56306Y6996D01*
Y6988D01*
X56307Y6982D01*
X56308Y6977D01*
Y6973D01*
X56309Y6972D01*
Y6971D01*
X56313Y6956D01*
X56316Y6949D01*
X56319Y6944D01*
X56322Y6938D01*
X56324Y6935D01*
X56324Y6933D01*
X56325Y6932D01*
X56331Y6924D01*
X56337Y6917D01*
X56351Y6903D01*
X56358Y6897D01*
X56363Y6892D01*
X56367Y6889D01*
X56368Y6888D01*
X56381Y6879D01*
X56395Y6869D01*
X56410Y6859D01*
X56423Y6849D01*
X56436Y6840D01*
X56447Y6834D01*
X56450Y6831D01*
X56453Y6829D01*
X56455Y6827D01*
X56456D01*
X56589Y6743D01*
Y6638D01*
X56415Y6748D01*
X56397Y6761D01*
X56380Y6773D01*
X56366Y6785D01*
X56353Y6795D01*
X56344Y6804D01*
X56337Y6812D01*
X56332Y6816D01*
X56330Y6818D01*
X56324Y6826D01*
X56318Y6834D01*
X56308Y6851D01*
X56304Y6858D01*
X56300Y6863D01*
X56299Y6867D01*
X56298Y6869D01*
X56295Y6852D01*
X56292Y6837D01*
X56288Y6823D01*
X56284Y6809D01*
X56279Y6797D01*
X56274Y6786D01*
X56269Y6776D01*
X56264Y6766D01*
X56259Y6759D01*
X56254Y6752D01*
X56251Y6746D01*
X56247Y6741D01*
X56244Y6738D01*
X56241Y6735D01*
X56240Y6734D01*
X56239Y6733D01*
X56230Y6726D01*
X56221Y6718D01*
X56202Y6707D01*
X56182Y6700D01*
X56164Y6694D01*
X56148Y6691D01*
X56141Y6690D01*
X56135D01*
X56130Y6689D01*
X56127D01*
X56125D01*
X56124D01*
X56104Y6690D01*
X56087Y6692D01*
X56070Y6697D01*
X56056Y6702D01*
X56044Y6707D01*
X56035Y6711D01*
X56030Y6715D01*
X56029Y6716D01*
X56028D01*
X56013Y6727D01*
X56000Y6738D01*
X55989Y6750D01*
X55981Y6761D01*
X55974Y6771D01*
X55970Y6779D01*
X55968Y6785D01*
X55967Y6786D01*
Y6787D01*
X55964Y6795D01*
X55961Y6805D01*
X55957Y6826D01*
X55954Y6848D01*
X55951Y6868D01*
X55950Y6888D01*
Y6896D01*
X55949Y6903D01*
Y7200D01*
X56589D01*
Y7115D01*
D02*
G37*
G36*
X56435Y6336D02*
X56589D01*
Y6258D01*
X56435D01*
Y6171D01*
X56363D01*
Y6258D01*
X55949D01*
Y6322D01*
X56363Y6615D01*
X56435D01*
Y6336D01*
D02*
G37*
G36*
X56435Y6088D02*
X56448Y6085D01*
X56474Y6077D01*
X56496Y6067D01*
X56506Y6061D01*
X56515Y6055D01*
X56523Y6050D01*
X56530Y6044D01*
X56536Y6040D01*
X56541Y6035D01*
X56545Y6032D01*
X56547Y6030D01*
X56549Y6028D01*
X56550Y6027D01*
X56558Y6016D01*
X56567Y6005D01*
X56573Y5993D01*
X56579Y5981D01*
X56588Y5958D01*
X56594Y5936D01*
X56595Y5926D01*
X56597Y5917D01*
X56598Y5908D01*
X56599Y5901D01*
X56600Y5895D01*
Y5887D01*
X56599Y5870D01*
X56597Y5854D01*
X56594Y5838D01*
X56591Y5823D01*
X56586Y5809D01*
X56582Y5797D01*
X56576Y5785D01*
X56570Y5775D01*
X56566Y5765D01*
X56560Y5757D01*
X56556Y5749D01*
X56551Y5744D01*
X56547Y5739D01*
X56545Y5736D01*
X56543Y5734D01*
X56542Y5733D01*
X56531Y5722D01*
X56519Y5712D01*
X56507Y5704D01*
X56495Y5697D01*
X56484Y5691D01*
X56472Y5686D01*
X56449Y5678D01*
X56439Y5676D01*
X56430Y5674D01*
X56422Y5673D01*
X56414Y5672D01*
X56409Y5671D01*
X56404D01*
X56401D01*
X56400D01*
X56378Y5672D01*
X56358Y5675D01*
X56340Y5681D01*
X56325Y5687D01*
X56313Y5692D01*
X56304Y5698D01*
X56299Y5701D01*
X56297Y5702D01*
X56283Y5715D01*
X56271Y5729D01*
X56262Y5744D01*
X56254Y5759D01*
X56249Y5772D01*
X56245Y5782D01*
X56244Y5785D01*
X56243Y5788D01*
X56242Y5790D01*
Y5791D01*
X56234Y5775D01*
X56226Y5762D01*
X56216Y5751D01*
X56208Y5742D01*
X56201Y5735D01*
X56194Y5729D01*
X56190Y5726D01*
X56189Y5725D01*
X56176Y5718D01*
X56163Y5712D01*
X56150Y5708D01*
X56138Y5705D01*
X56128Y5703D01*
X56120Y5702D01*
X56115D01*
X56113D01*
X56097Y5703D01*
X56081Y5706D01*
X56067Y5710D01*
X56055Y5714D01*
X56045Y5719D01*
X56037Y5723D01*
X56032Y5725D01*
X56030Y5726D01*
X56017Y5736D01*
X56005Y5747D01*
X55994Y5758D01*
X55985Y5769D01*
X55979Y5778D01*
X55973Y5786D01*
X55970Y5792D01*
X55969Y5793D01*
Y5794D01*
X55962Y5810D01*
X55957Y5827D01*
X55952Y5844D01*
X55949Y5858D01*
X55947Y5871D01*
X55946Y5881D01*
Y5904D01*
X55948Y5917D01*
X55953Y5942D01*
X55960Y5963D01*
X55968Y5981D01*
X55972Y5990D01*
X55976Y5996D01*
X55980Y6003D01*
X55983Y6007D01*
X55986Y6011D01*
X55988Y6014D01*
X55989Y6016D01*
X55990Y6017D01*
X56007Y6034D01*
X56027Y6048D01*
X56047Y6059D01*
X56067Y6068D01*
X56085Y6074D01*
X56092Y6077D01*
X56099Y6079D01*
X56104Y6079D01*
X56108Y6080D01*
X56111Y6081D01*
X56112D01*
X56126Y6003D01*
X56105Y5999D01*
X56088Y5993D01*
X56073Y5987D01*
X56061Y5981D01*
X56052Y5974D01*
X56045Y5969D01*
X56041Y5965D01*
X56040Y5964D01*
X56030Y5952D01*
X56023Y5939D01*
X56018Y5927D01*
X56015Y5915D01*
X56013Y5904D01*
X56011Y5895D01*
Y5888D01*
X56012Y5871D01*
X56016Y5857D01*
X56020Y5844D01*
X56025Y5833D01*
X56030Y5824D01*
X56035Y5818D01*
X56039Y5813D01*
X56040Y5812D01*
X56051Y5802D01*
X56063Y5795D01*
X56075Y5790D01*
X56086Y5786D01*
X56096Y5785D01*
X56104Y5783D01*
X56109D01*
X56110D01*
X56111D01*
X56121D01*
X56130Y5785D01*
X56146Y5789D01*
X56160Y5796D01*
X56172Y5803D01*
X56180Y5810D01*
X56187Y5817D01*
X56190Y5821D01*
X56191Y5822D01*
Y5823D01*
X56200Y5839D01*
X56206Y5854D01*
X56211Y5870D01*
X56214Y5883D01*
X56215Y5895D01*
X56217Y5906D01*
Y5918D01*
X56216Y5921D01*
Y5926D01*
X56286Y5935D01*
X56283Y5923D01*
X56281Y5912D01*
X56279Y5903D01*
X56278Y5895D01*
X56277Y5888D01*
Y5880D01*
X56279Y5860D01*
X56283Y5843D01*
X56288Y5827D01*
X56295Y5814D01*
X56301Y5804D01*
X56307Y5797D01*
X56311Y5792D01*
X56312Y5790D01*
X56326Y5778D01*
X56341Y5769D01*
X56356Y5762D01*
X56371Y5759D01*
X56383Y5756D01*
X56393Y5755D01*
X56397Y5754D01*
X56399D01*
X56401D01*
X56402D01*
X56423Y5756D01*
X56441Y5760D01*
X56457Y5766D01*
X56471Y5773D01*
X56482Y5781D01*
X56490Y5786D01*
X56496Y5791D01*
X56497Y5793D01*
X56510Y5808D01*
X56520Y5823D01*
X56526Y5839D01*
X56531Y5854D01*
X56533Y5867D01*
X56534Y5877D01*
X56535Y5881D01*
Y5886D01*
X56534Y5903D01*
X56531Y5919D01*
X56526Y5932D01*
X56521Y5944D01*
X56516Y5953D01*
X56511Y5960D01*
X56508Y5964D01*
X56507Y5966D01*
X56494Y5977D01*
X56479Y5986D01*
X56463Y5994D01*
X56447Y6001D01*
X56433Y6005D01*
X56426Y6007D01*
X56421Y6008D01*
X56416Y6009D01*
X56412Y6010D01*
X56410Y6011D01*
X56410D01*
X56420Y6090D01*
X56435Y6088D01*
D02*
G37*
G36*
X49788Y59811D02*
X49803Y59822D01*
X49810Y59828D01*
X49816Y59832D01*
X49822Y59837D01*
X49825Y59841D01*
X49828Y59843D01*
X49829Y59844D01*
X49834Y59849D01*
X49838Y59854D01*
X49850Y59867D01*
X49864Y59882D01*
X49878Y59898D01*
X49890Y59913D01*
X49896Y59919D01*
X49901Y59925D01*
X49905Y59929D01*
X49908Y59933D01*
X49910Y59935D01*
X49911Y59936D01*
X49923Y59951D01*
X49936Y59965D01*
X49948Y59978D01*
X49958Y59990D01*
X49968Y60001D01*
X49977Y60011D01*
X49985Y60020D01*
X49993Y60027D01*
X50000Y60035D01*
X50006Y60040D01*
X50010Y60045D01*
X50015Y60050D01*
X50021Y60054D01*
X50022Y60056D01*
X50038Y60069D01*
X50052Y60080D01*
X50066Y60089D01*
X50077Y60097D01*
X50087Y60102D01*
X50095Y60106D01*
X50099Y60108D01*
X50101Y60109D01*
X50115Y60114D01*
X50129Y60118D01*
X50142Y60122D01*
X50153Y60123D01*
X50163Y60124D01*
X50170Y60125D01*
X50175D01*
X50177D01*
X50191Y60124D01*
X50204Y60123D01*
X50217Y60121D01*
X50228Y60117D01*
X50250Y60108D01*
X50267Y60099D01*
X50276Y60093D01*
X50282Y60088D01*
X50289Y60084D01*
X50293Y60079D01*
X50297Y60075D01*
X50301Y60074D01*
X50302Y60072D01*
X50303Y60071D01*
X50312Y60061D01*
X50320Y60050D01*
X50327Y60037D01*
X50332Y60025D01*
X50341Y60001D01*
X50348Y59977D01*
X50350Y59967D01*
X50352Y59957D01*
X50352Y59948D01*
X50353Y59940D01*
X50354Y59934D01*
Y59925D01*
X50353Y59908D01*
X50352Y59892D01*
X50350Y59878D01*
X50347Y59864D01*
X50343Y59851D01*
X50340Y59839D01*
X50335Y59828D01*
X50330Y59817D01*
X50326Y59808D01*
X50321Y59801D01*
X50317Y59794D01*
X50314Y59789D01*
X50311Y59784D01*
X50308Y59781D01*
X50307Y59780D01*
X50306Y59779D01*
X50297Y59769D01*
X50287Y59761D01*
X50276Y59753D01*
X50265Y59746D01*
X50242Y59735D01*
X50220Y59728D01*
X50210Y59725D01*
X50200Y59722D01*
X50192Y59720D01*
X50184Y59719D01*
X50178Y59718D01*
X50173D01*
X50170Y59717D01*
X50169D01*
X50161Y59797D01*
X50182Y59799D01*
X50201Y59803D01*
X50217Y59808D01*
X50230Y59815D01*
X50242Y59820D01*
X50249Y59826D01*
X50254Y59829D01*
X50255Y59831D01*
X50266Y59845D01*
X50275Y59860D01*
X50281Y59876D01*
X50285Y59890D01*
X50288Y59903D01*
X50289Y59914D01*
X50290Y59917D01*
Y59923D01*
X50289Y59942D01*
X50285Y59960D01*
X50279Y59975D01*
X50274Y59988D01*
X50267Y59998D01*
X50263Y60004D01*
X50259Y60009D01*
X50257Y60011D01*
X50244Y60022D01*
X50231Y60030D01*
X50218Y60037D01*
X50205Y60040D01*
X50195Y60043D01*
X50186Y60044D01*
X50181Y60045D01*
X50180D01*
X50179D01*
X50162Y60043D01*
X50144Y60039D01*
X50129Y60033D01*
X50114Y60026D01*
X50102Y60019D01*
X50092Y60013D01*
X50088Y60011D01*
X50085Y60009D01*
X50084Y60007D01*
X50083D01*
X50073Y60000D01*
X50063Y59990D01*
X50052Y59980D01*
X50041Y59969D01*
X50019Y59946D01*
X49997Y59923D01*
X49986Y59911D01*
X49977Y59901D01*
X49969Y59890D01*
X49961Y59882D01*
X49956Y59876D01*
X49951Y59870D01*
X49948Y59866D01*
X49948Y59866D01*
X49928Y59842D01*
X49910Y59821D01*
X49893Y59804D01*
X49879Y59790D01*
X49867Y59778D01*
X49859Y59769D01*
X49853Y59765D01*
X49852Y59763D01*
X49851D01*
X49836Y59750D01*
X49821Y59740D01*
X49806Y59731D01*
X49793Y59723D01*
X49782Y59718D01*
X49774Y59714D01*
X49768Y59712D01*
X49767Y59711D01*
X49766D01*
X49756Y59707D01*
X49747Y59706D01*
X49738Y59704D01*
X49729Y59703D01*
X49722Y59702D01*
X49716D01*
X49713D01*
X49712D01*
Y60126D01*
X49788D01*
Y59811D01*
D02*
G37*
G36*
X50066Y59628D02*
X50095Y59625D01*
X50120Y59621D01*
X50132Y59619D01*
X50143Y59616D01*
X50153Y59613D01*
X50161Y59611D01*
X50168Y59609D01*
X50175Y59607D01*
X50181Y59606D01*
X50184Y59604D01*
X50186Y59603D01*
X50187D01*
X50211Y59593D01*
X50232Y59581D01*
X50251Y59568D01*
X50266Y59556D01*
X50279Y59545D01*
X50289Y59535D01*
X50291Y59532D01*
X50294Y59529D01*
X50295Y59528D01*
X50296Y59527D01*
X50308Y59512D01*
X50317Y59497D01*
X50326Y59481D01*
X50332Y59466D01*
X50337Y59453D01*
X50340Y59443D01*
X50341Y59439D01*
Y59437D01*
X50342Y59435D01*
Y59434D01*
X50345Y59418D01*
X50348Y59400D01*
X50350Y59381D01*
X50351Y59363D01*
X50352Y59346D01*
Y59100D01*
X49712D01*
Y59330D01*
X49713Y59351D01*
X49714Y59371D01*
X49715Y59388D01*
X49717Y59403D01*
X49719Y59416D01*
X49720Y59425D01*
X49721Y59428D01*
X49722Y59431D01*
Y59433D01*
X49727Y59449D01*
X49732Y59464D01*
X49737Y59477D01*
X49742Y59488D01*
X49747Y59498D01*
X49751Y59504D01*
X49753Y59508D01*
X49754Y59510D01*
X49763Y59522D01*
X49773Y59532D01*
X49782Y59542D01*
X49791Y59550D01*
X49800Y59558D01*
X49806Y59563D01*
X49811Y59567D01*
X49813Y59568D01*
X49827Y59577D01*
X49843Y59586D01*
X49858Y59594D01*
X49873Y59599D01*
X49886Y59605D01*
X49896Y59609D01*
X49899Y59609D01*
X49902Y59610D01*
X49904Y59611D01*
X49905D01*
X49927Y59617D01*
X49949Y59621D01*
X49971Y59624D01*
X49991Y59627D01*
X50009Y59628D01*
X50016D01*
X50022Y59629D01*
X50027D01*
X50032D01*
X50034D01*
X50034D01*
X50066Y59628D01*
D02*
G37*
G36*
X55054Y59958D02*
X55039Y59949D01*
X55024Y59939D01*
X55009Y59927D01*
X54996Y59915D01*
X54985Y59904D01*
X54976Y59896D01*
X54973Y59892D01*
X54970Y59890D01*
X54969Y59889D01*
X54968Y59888D01*
X54953Y59868D01*
X54938Y59849D01*
X54925Y59830D01*
X54915Y59812D01*
X54905Y59796D01*
X54902Y59790D01*
X54899Y59784D01*
X54896Y59780D01*
X54895Y59776D01*
X54893Y59774D01*
Y59773D01*
X54818D01*
X54823Y59787D01*
X54830Y59801D01*
X54836Y59815D01*
X54843Y59828D01*
X54848Y59839D01*
X54853Y59848D01*
X54856Y59854D01*
X54857Y59854D01*
Y59855D01*
X54868Y59872D01*
X54878Y59887D01*
X54887Y59900D01*
X54895Y59910D01*
X54902Y59919D01*
X54907Y59925D01*
X54911Y59929D01*
X54912Y59930D01*
X54412D01*
Y60009D01*
X55054D01*
Y59958D01*
D02*
G37*
G36*
X54766Y59628D02*
X54795Y59625D01*
X54820Y59621D01*
X54832Y59619D01*
X54843Y59616D01*
X54853Y59613D01*
X54861Y59611D01*
X54868Y59609D01*
X54875Y59607D01*
X54881Y59606D01*
X54884Y59604D01*
X54886Y59603D01*
X54887D01*
X54911Y59593D01*
X54932Y59581D01*
X54951Y59568D01*
X54966Y59556D01*
X54979Y59545D01*
X54989Y59535D01*
X54991Y59532D01*
X54994Y59529D01*
X54995Y59528D01*
X54996Y59527D01*
X55008Y59512D01*
X55017Y59497D01*
X55026Y59481D01*
X55032Y59466D01*
X55037Y59453D01*
X55040Y59443D01*
X55041Y59439D01*
Y59437D01*
X55042Y59435D01*
Y59434D01*
X55045Y59418D01*
X55048Y59400D01*
X55050Y59381D01*
X55051Y59363D01*
X55052Y59346D01*
Y59100D01*
X54412D01*
Y59330D01*
X54413Y59351D01*
X54414Y59371D01*
X54415Y59388D01*
X54417Y59403D01*
X54419Y59416D01*
X54420Y59425D01*
X54421Y59428D01*
X54422Y59431D01*
Y59433D01*
X54427Y59449D01*
X54432Y59464D01*
X54437Y59477D01*
X54442Y59488D01*
X54447Y59498D01*
X54451Y59504D01*
X54453Y59508D01*
X54454Y59510D01*
X54463Y59522D01*
X54473Y59532D01*
X54482Y59542D01*
X54491Y59550D01*
X54500Y59558D01*
X54506Y59563D01*
X54511Y59567D01*
X54513Y59568D01*
X54527Y59577D01*
X54543Y59586D01*
X54558Y59594D01*
X54573Y59599D01*
X54586Y59605D01*
X54596Y59609D01*
X54599Y59609D01*
X54602Y59610D01*
X54604Y59611D01*
X54605D01*
X54627Y59617D01*
X54649Y59621D01*
X54671Y59624D01*
X54691Y59627D01*
X54709Y59628D01*
X54716D01*
X54722Y59629D01*
X54727D01*
X54732D01*
X54734D01*
X54734D01*
X54766Y59628D01*
D02*
G37*
G36*
X35084Y7165D02*
X34800D01*
Y7056D01*
X34801Y7046D01*
Y7038D01*
X34802Y7032D01*
X34803Y7027D01*
Y7023D01*
X34804Y7022D01*
Y7021D01*
X34809Y7006D01*
X34812Y6999D01*
X34814Y6994D01*
X34817Y6988D01*
X34819Y6985D01*
X34820Y6983D01*
X34821Y6982D01*
X34826Y6974D01*
X34833Y6967D01*
X34847Y6953D01*
X34853Y6947D01*
X34859Y6942D01*
X34862Y6939D01*
X34863Y6938D01*
X34876Y6929D01*
X34890Y6919D01*
X34905Y6909D01*
X34919Y6899D01*
X34932Y6890D01*
X34942Y6884D01*
X34946Y6881D01*
X34948Y6879D01*
X34950Y6877D01*
X34951D01*
X35084Y6793D01*
Y6688D01*
X34910Y6798D01*
X34892Y6811D01*
X34875Y6823D01*
X34861Y6835D01*
X34848Y6845D01*
X34839Y6854D01*
X34832Y6862D01*
X34827Y6866D01*
X34825Y6868D01*
X34820Y6876D01*
X34813Y6884D01*
X34803Y6901D01*
X34799Y6908D01*
X34796Y6913D01*
X34794Y6917D01*
X34793Y6919D01*
X34790Y6902D01*
X34787Y6887D01*
X34783Y6873D01*
X34779Y6859D01*
X34775Y6847D01*
X34769Y6836D01*
X34764Y6826D01*
X34760Y6816D01*
X34754Y6809D01*
X34750Y6802D01*
X34746Y6796D01*
X34742Y6791D01*
X34739Y6788D01*
X34737Y6785D01*
X34736Y6784D01*
X34735Y6783D01*
X34726Y6776D01*
X34716Y6768D01*
X34697Y6757D01*
X34677Y6750D01*
X34659Y6744D01*
X34643Y6741D01*
X34637Y6740D01*
X34630D01*
X34626Y6739D01*
X34622D01*
X34620D01*
X34619D01*
X34600Y6740D01*
X34582Y6742D01*
X34566Y6747D01*
X34552Y6752D01*
X34540Y6757D01*
X34530Y6761D01*
X34525Y6765D01*
X34524Y6766D01*
X34523D01*
X34508Y6777D01*
X34495Y6788D01*
X34484Y6800D01*
X34476Y6811D01*
X34469Y6821D01*
X34466Y6829D01*
X34463Y6835D01*
X34462Y6836D01*
Y6837D01*
X34459Y6845D01*
X34456Y6855D01*
X34452Y6876D01*
X34449Y6898D01*
X34446Y6918D01*
X34445Y6938D01*
Y6946D01*
X34444Y6953D01*
Y7250D01*
X35084D01*
Y7165D01*
D02*
G37*
G36*
X34931Y6386D02*
X35084D01*
Y6308D01*
X34931D01*
Y6221D01*
X34859D01*
Y6308D01*
X34444D01*
Y6372D01*
X34859Y6665D01*
X34931D01*
Y6386D01*
D02*
G37*
G36*
Y5889D02*
X35084D01*
Y5810D01*
X34931D01*
Y5724D01*
X34859D01*
Y5810D01*
X34444D01*
Y5874D01*
X34859Y6167D01*
X34931D01*
Y5889D01*
D02*
G37*
G36*
X25944Y10635D02*
X25960Y10634D01*
X25976Y10631D01*
X25989Y10627D01*
X26002Y10623D01*
X26015Y10618D01*
X26026Y10612D01*
X26037Y10608D01*
X26046Y10602D01*
X26054Y10597D01*
X26061Y10592D01*
X26067Y10587D01*
X26072Y10584D01*
X26074Y10581D01*
X26076Y10579D01*
X26077Y10578D01*
X26087Y10567D01*
X26097Y10556D01*
X26104Y10544D01*
X26110Y10532D01*
X26117Y10520D01*
X26122Y10508D01*
X26128Y10486D01*
X26131Y10476D01*
X26133Y10466D01*
X26134Y10458D01*
X26135Y10451D01*
X26135Y10445D01*
Y10425D01*
X26134Y10414D01*
X26129Y10391D01*
X26123Y10371D01*
X26115Y10353D01*
X26108Y10338D01*
X26104Y10331D01*
X26101Y10326D01*
X26098Y10321D01*
X26097Y10318D01*
X26096Y10317D01*
X26095Y10316D01*
X26268Y10350D01*
Y10606D01*
X26343D01*
Y10288D01*
X26013Y10226D01*
X26003Y10300D01*
X26013Y10306D01*
X26022Y10315D01*
X26030Y10322D01*
X26037Y10329D01*
X26041Y10337D01*
X26046Y10342D01*
X26048Y10346D01*
X26049Y10347D01*
X26054Y10359D01*
X26059Y10371D01*
X26061Y10382D01*
X26064Y10393D01*
X26065Y10403D01*
X26066Y10410D01*
Y10427D01*
X26064Y10439D01*
X26060Y10458D01*
X26053Y10475D01*
X26047Y10489D01*
X26039Y10500D01*
X26033Y10509D01*
X26028Y10513D01*
X26027Y10515D01*
X26026D01*
X26011Y10528D01*
X25994Y10537D01*
X25976Y10544D01*
X25959Y10549D01*
X25944Y10551D01*
X25938Y10552D01*
X25932D01*
X25927Y10553D01*
X25924D01*
X25922D01*
X25921D01*
X25908D01*
X25896Y10551D01*
X25873Y10547D01*
X25853Y10540D01*
X25838Y10534D01*
X25825Y10526D01*
X25815Y10520D01*
X25812Y10517D01*
X25809Y10515D01*
X25808Y10514D01*
X25807Y10513D01*
X25800Y10506D01*
X25793Y10499D01*
X25782Y10482D01*
X25775Y10466D01*
X25770Y10451D01*
X25767Y10438D01*
X25766Y10427D01*
X25765Y10423D01*
Y10417D01*
X25766Y10400D01*
X25769Y10384D01*
X25774Y10370D01*
X25779Y10359D01*
X25785Y10349D01*
X25790Y10341D01*
X25793Y10338D01*
X25794Y10336D01*
X25807Y10325D01*
X25821Y10316D01*
X25837Y10308D01*
X25851Y10303D01*
X25865Y10299D01*
X25875Y10296D01*
X25879Y10295D01*
X25882Y10294D01*
X25884D01*
X25885D01*
X25878Y10212D01*
X25864Y10214D01*
X25850Y10217D01*
X25824Y10225D01*
X25802Y10235D01*
X25792Y10241D01*
X25783Y10246D01*
X25775Y10251D01*
X25767Y10256D01*
X25762Y10261D01*
X25757Y10266D01*
X25754Y10269D01*
X25750Y10271D01*
X25749Y10273D01*
X25748Y10274D01*
X25740Y10285D01*
X25732Y10296D01*
X25726Y10308D01*
X25720Y10320D01*
X25712Y10343D01*
X25706Y10366D01*
X25704Y10377D01*
X25703Y10387D01*
X25702Y10395D01*
X25701Y10403D01*
X25700Y10409D01*
Y10417D01*
X25701Y10437D01*
X25704Y10455D01*
X25707Y10473D01*
X25712Y10488D01*
X25718Y10503D01*
X25725Y10517D01*
X25731Y10530D01*
X25739Y10541D01*
X25746Y10551D01*
X25753Y10561D01*
X25760Y10568D01*
X25766Y10574D01*
X25770Y10579D01*
X25774Y10583D01*
X25777Y10585D01*
X25778Y10586D01*
X25790Y10595D01*
X25803Y10602D01*
X25815Y10610D01*
X25828Y10615D01*
X25853Y10624D01*
X25877Y10630D01*
X25887Y10632D01*
X25897Y10634D01*
X25905Y10635D01*
X25913Y10635D01*
X25919Y10636D01*
X25924D01*
X25927D01*
X25927D01*
X25944Y10635D01*
D02*
G37*
G36*
X26351Y10018D02*
X25981D01*
X25960D01*
X25939Y10016D01*
X25922Y10014D01*
X25905Y10011D01*
X25890Y10009D01*
X25877Y10005D01*
X25865Y10002D01*
X25854Y9998D01*
X25846Y9995D01*
X25838Y9991D01*
X25832Y9987D01*
X25827Y9985D01*
X25823Y9982D01*
X25820Y9980D01*
X25819Y9979D01*
X25818Y9978D01*
X25811Y9970D01*
X25804Y9961D01*
X25794Y9940D01*
X25787Y9919D01*
X25782Y9897D01*
X25779Y9876D01*
X25778Y9868D01*
Y9860D01*
X25777Y9854D01*
Y9845D01*
X25778Y9826D01*
X25780Y9808D01*
X25783Y9791D01*
X25788Y9778D01*
X25792Y9767D01*
X25794Y9759D01*
X25797Y9754D01*
X25798Y9753D01*
X25806Y9740D01*
X25816Y9729D01*
X25827Y9719D01*
X25836Y9713D01*
X25845Y9707D01*
X25852Y9703D01*
X25856Y9701D01*
X25858Y9700D01*
X25866Y9697D01*
X25875Y9695D01*
X25894Y9692D01*
X25914Y9689D01*
X25935Y9687D01*
X25952Y9686D01*
X25961D01*
X25967Y9685D01*
X25973D01*
X25977D01*
X25980D01*
X25981D01*
X26351D01*
Y9600D01*
X25981D01*
X25963D01*
X25945Y9601D01*
X25928Y9602D01*
X25913Y9604D01*
X25899Y9606D01*
X25886Y9607D01*
X25874Y9610D01*
X25863Y9612D01*
X25853Y9614D01*
X25844Y9617D01*
X25837Y9618D01*
X25831Y9620D01*
X25827Y9622D01*
X25823Y9623D01*
X25821Y9624D01*
X25820D01*
X25800Y9634D01*
X25781Y9647D01*
X25767Y9660D01*
X25754Y9674D01*
X25743Y9686D01*
X25736Y9696D01*
X25734Y9700D01*
X25732Y9703D01*
X25730Y9704D01*
Y9705D01*
X25720Y9729D01*
X25713Y9753D01*
X25707Y9778D01*
X25704Y9801D01*
X25703Y9811D01*
X25702Y9821D01*
X25701Y9830D01*
Y9838D01*
X25700Y9844D01*
Y9852D01*
X25702Y9886D01*
X25704Y9900D01*
X25706Y9914D01*
X25708Y9928D01*
X25711Y9940D01*
X25714Y9951D01*
X25718Y9961D01*
X25721Y9971D01*
X25724Y9978D01*
X25727Y9986D01*
X25730Y9991D01*
X25732Y9996D01*
X25733Y9998D01*
X25735Y10000D01*
Y10001D01*
X25749Y10022D01*
X25765Y10038D01*
X25779Y10051D01*
X25794Y10062D01*
X25807Y10071D01*
X25817Y10076D01*
X25821Y10078D01*
X25824Y10080D01*
X25826Y10081D01*
X25827D01*
X25838Y10084D01*
X25850Y10088D01*
X25875Y10094D01*
X25901Y10097D01*
X25926Y10100D01*
X25937Y10101D01*
X25948Y10102D01*
X25957D01*
X25965Y10103D01*
X25972D01*
X25976D01*
X25980D01*
X25981D01*
X26351D01*
Y10018D01*
D02*
G37*
G36*
X46237Y10642D02*
X46651D01*
Y10578D01*
X46237Y10285D01*
X46165D01*
Y10564D01*
X46011D01*
Y10642D01*
X46165D01*
Y10729D01*
X46237D01*
Y10642D01*
D02*
G37*
G36*
X46651Y10118D02*
X46281D01*
X46260D01*
X46239Y10116D01*
X46222Y10114D01*
X46205Y10111D01*
X46190Y10109D01*
X46177Y10105D01*
X46165Y10102D01*
X46154Y10098D01*
X46146Y10095D01*
X46138Y10091D01*
X46132Y10087D01*
X46127Y10085D01*
X46123Y10082D01*
X46120Y10080D01*
X46119Y10079D01*
X46118Y10078D01*
X46111Y10070D01*
X46104Y10061D01*
X46094Y10040D01*
X46087Y10019D01*
X46082Y9997D01*
X46079Y9976D01*
X46078Y9968D01*
Y9960D01*
X46077Y9954D01*
Y9945D01*
X46078Y9926D01*
X46080Y9908D01*
X46083Y9891D01*
X46088Y9878D01*
X46092Y9867D01*
X46094Y9859D01*
X46097Y9854D01*
X46098Y9853D01*
X46106Y9840D01*
X46116Y9828D01*
X46127Y9819D01*
X46136Y9813D01*
X46145Y9807D01*
X46152Y9803D01*
X46156Y9801D01*
X46158Y9800D01*
X46166Y9797D01*
X46175Y9795D01*
X46194Y9792D01*
X46214Y9789D01*
X46235Y9787D01*
X46252Y9786D01*
X46261D01*
X46267Y9785D01*
X46273D01*
X46277D01*
X46280D01*
X46281D01*
X46651D01*
Y9700D01*
X46281D01*
X46263D01*
X46245Y9701D01*
X46228Y9702D01*
X46213Y9704D01*
X46199Y9706D01*
X46186Y9707D01*
X46174Y9710D01*
X46163Y9712D01*
X46153Y9714D01*
X46144Y9717D01*
X46137Y9718D01*
X46131Y9720D01*
X46127Y9722D01*
X46123Y9723D01*
X46121Y9724D01*
X46120D01*
X46100Y9734D01*
X46081Y9747D01*
X46067Y9760D01*
X46054Y9774D01*
X46043Y9786D01*
X46036Y9796D01*
X46034Y9800D01*
X46032Y9803D01*
X46030Y9804D01*
Y9805D01*
X46020Y9828D01*
X46013Y9853D01*
X46007Y9877D01*
X46004Y9901D01*
X46003Y9911D01*
X46002Y9921D01*
X46001Y9930D01*
Y9938D01*
X46000Y9944D01*
Y9952D01*
X46002Y9986D01*
X46004Y10000D01*
X46006Y10014D01*
X46008Y10028D01*
X46011Y10040D01*
X46014Y10051D01*
X46018Y10061D01*
X46021Y10071D01*
X46024Y10078D01*
X46027Y10086D01*
X46030Y10091D01*
X46032Y10096D01*
X46033Y10098D01*
X46035Y10100D01*
Y10101D01*
X46049Y10122D01*
X46065Y10138D01*
X46079Y10151D01*
X46094Y10162D01*
X46107Y10171D01*
X46117Y10176D01*
X46121Y10178D01*
X46124Y10180D01*
X46126Y10181D01*
X46127D01*
X46138Y10184D01*
X46150Y10188D01*
X46175Y10194D01*
X46201Y10197D01*
X46226Y10200D01*
X46237Y10201D01*
X46248Y10202D01*
X46257D01*
X46265Y10203D01*
X46272D01*
X46276D01*
X46280D01*
X46281D01*
X46651D01*
Y10118D01*
D02*
G37*
%LPC*%
G36*
X56232Y7115D02*
X56020D01*
Y6913D01*
X56021Y6888D01*
X56025Y6867D01*
X56030Y6849D01*
X56035Y6835D01*
X56041Y6823D01*
X56045Y6815D01*
X56049Y6811D01*
X56050Y6809D01*
X56062Y6798D01*
X56074Y6790D01*
X56087Y6784D01*
X56098Y6779D01*
X56109Y6777D01*
X56117Y6777D01*
X56123Y6776D01*
X56124D01*
X56125D01*
X56136Y6777D01*
X56147Y6778D01*
X56156Y6781D01*
X56165Y6784D01*
X56172Y6788D01*
X56177Y6790D01*
X56181Y6792D01*
X56182Y6793D01*
X56191Y6800D01*
X56200Y6808D01*
X56206Y6816D01*
X56212Y6825D01*
X56215Y6832D01*
X56218Y6838D01*
X56220Y6841D01*
X56221Y6843D01*
X56225Y6856D01*
X56227Y6871D01*
X56229Y6886D01*
X56230Y6900D01*
X56231Y6913D01*
X56232Y6924D01*
Y7115D01*
D02*
G37*
G36*
X56363Y6538D02*
X56077Y6336D01*
X56363D01*
Y6538D01*
D02*
G37*
G36*
X50046Y59542D02*
X50041D01*
X50037D01*
X50036D01*
X50010Y59541D01*
X49986Y59539D01*
X49965Y59536D01*
X49947Y59534D01*
X49939Y59532D01*
X49933Y59530D01*
X49926Y59528D01*
X49922Y59527D01*
X49918Y59526D01*
X49915Y59525D01*
X49913Y59524D01*
X49912D01*
X49895Y59518D01*
X49879Y59511D01*
X49865Y59502D01*
X49853Y59495D01*
X49844Y59488D01*
X49837Y59483D01*
X49834Y59479D01*
X49832Y59478D01*
X49825Y59469D01*
X49818Y59460D01*
X49813Y59450D01*
X49807Y59441D01*
X49803Y59433D01*
X49801Y59426D01*
X49800Y59422D01*
X49799Y59420D01*
X49795Y59406D01*
X49792Y59389D01*
X49790Y59373D01*
X49789Y59357D01*
X49788Y59343D01*
X49788Y59337D01*
Y59185D01*
X50276D01*
Y59333D01*
X50275Y59345D01*
Y59357D01*
X50274Y59368D01*
X50271Y59387D01*
X50269Y59401D01*
X50266Y59413D01*
X50264Y59422D01*
X50263Y59426D01*
X50262Y59428D01*
X50254Y59445D01*
X50243Y59461D01*
X50231Y59474D01*
X50219Y59486D01*
X50208Y59496D01*
X50199Y59503D01*
X50195Y59505D01*
X50193Y59507D01*
X50191Y59509D01*
X50190D01*
X50180Y59514D01*
X50168Y59520D01*
X50144Y59528D01*
X50118Y59534D01*
X50093Y59538D01*
X50082Y59539D01*
X50070Y59540D01*
X50061Y59541D01*
X50053D01*
X50046Y59542D01*
D02*
G37*
G36*
X54746D02*
X54741D01*
X54737D01*
X54736D01*
X54710Y59541D01*
X54686Y59539D01*
X54665Y59536D01*
X54647Y59534D01*
X54639Y59532D01*
X54633Y59530D01*
X54626Y59528D01*
X54622Y59527D01*
X54618Y59526D01*
X54615Y59525D01*
X54613Y59524D01*
X54612D01*
X54595Y59518D01*
X54579Y59511D01*
X54565Y59502D01*
X54553Y59495D01*
X54544Y59488D01*
X54537Y59483D01*
X54534Y59479D01*
X54532Y59478D01*
X54525Y59469D01*
X54518Y59460D01*
X54513Y59450D01*
X54507Y59441D01*
X54503Y59433D01*
X54501Y59426D01*
X54500Y59422D01*
X54499Y59420D01*
X54495Y59406D01*
X54492Y59389D01*
X54490Y59373D01*
X54489Y59357D01*
X54488Y59343D01*
X54488Y59337D01*
Y59185D01*
X54976D01*
Y59333D01*
X54975Y59345D01*
Y59357D01*
X54974Y59368D01*
X54971Y59387D01*
X54969Y59401D01*
X54966Y59413D01*
X54964Y59422D01*
X54963Y59426D01*
X54962Y59428D01*
X54954Y59445D01*
X54943Y59461D01*
X54931Y59474D01*
X54919Y59486D01*
X54908Y59496D01*
X54899Y59503D01*
X54895Y59505D01*
X54893Y59507D01*
X54891Y59509D01*
X54890D01*
X54880Y59514D01*
X54868Y59520D01*
X54844Y59528D01*
X54818Y59534D01*
X54793Y59538D01*
X54782Y59539D01*
X54770Y59540D01*
X54761Y59541D01*
X54753D01*
X54746Y59542D01*
D02*
G37*
G36*
X34727Y7165D02*
X34516D01*
Y6963D01*
X34517Y6938D01*
X34520Y6917D01*
X34525Y6899D01*
X34530Y6885D01*
X34536Y6873D01*
X34541Y6865D01*
X34544Y6861D01*
X34545Y6859D01*
X34557Y6848D01*
X34569Y6839D01*
X34582Y6834D01*
X34593Y6829D01*
X34604Y6827D01*
X34613Y6827D01*
X34618Y6826D01*
X34619D01*
X34620D01*
X34631Y6827D01*
X34642Y6828D01*
X34652Y6831D01*
X34660Y6834D01*
X34667Y6838D01*
X34673Y6840D01*
X34677Y6842D01*
X34677Y6843D01*
X34687Y6850D01*
X34695Y6858D01*
X34701Y6866D01*
X34707Y6875D01*
X34711Y6882D01*
X34714Y6888D01*
X34715Y6891D01*
X34716Y6893D01*
X34720Y6906D01*
X34723Y6921D01*
X34725Y6936D01*
X34726Y6950D01*
X34726Y6963D01*
X34727Y6974D01*
Y7165D01*
D02*
G37*
G36*
X34859Y6588D02*
X34572Y6386D01*
X34859D01*
Y6588D01*
D02*
G37*
G36*
Y6091D02*
X34572Y5889D01*
X34859D01*
Y6091D01*
D02*
G37*
G36*
X46523Y10564D02*
X46237D01*
Y10362D01*
X46523Y10564D01*
D02*
G37*
%LPD*%
D17*
X54850Y10728D02*
X58350D01*
Y3672D02*
Y10728D01*
X54850Y3672D02*
X58350D01*
X54850D02*
Y10728D01*
X51450Y56285D02*
Y61915D01*
X48350D02*
X51450D01*
X48350Y56285D02*
Y61915D01*
Y56285D02*
X51450D01*
X56150D02*
Y61915D01*
X53050D02*
X56150D01*
X53050Y56285D02*
Y61915D01*
Y56285D02*
X56150D01*
X33334Y3722D02*
Y10778D01*
Y3722D02*
X36834D01*
Y10778D01*
X33334D02*
X36834D01*
X27350Y7185D02*
Y12015D01*
X24050D02*
X27350D01*
X24050Y7185D02*
Y12015D01*
Y7185D02*
X27350D01*
X47650Y7285D02*
Y12115D01*
X44350D02*
X47650D01*
X44350Y7285D02*
Y12115D01*
Y7285D02*
X47650D01*
M02*
