G04*
G04 #@! TF.GenerationSoftware,Altium Limited,Altium Designer,20.2.6 (244)*
G04*
G04 Layer_Color=8388736*
%FSLAX43Y43*%
%MOMM*%
G71*
G04*
G04 #@! TF.SameCoordinates,FA062CC2-BDA9-49B4-8C39-6F0F36F1006C*
G04*
G04*
G04 #@! TF.FilePolarity,Negative*
G04*
G01*
G75*
%ADD23R,0.800X0.800*%
%ADD33C,0.279*%
%ADD34R,1.328X0.279*%
%ADD40R,3.208X1.155*%
%ADD41R,2.300X2.600*%
%ADD42R,0.300X0.790*%
%ADD46C,0.650*%
%ADD47R,1.000X0.850*%
%ADD48R,1.150X1.550*%
%ADD49R,0.700X0.650*%
%ADD50R,1.300X1.500*%
%ADD51R,2.550X3.350*%
%ADD52R,3.900X3.850*%
%ADD53R,0.650X0.700*%
%ADD54R,0.750X0.750*%
%ADD55R,0.730X0.730*%
%ADD56R,0.730X0.730*%
%ADD57R,1.050X0.950*%
%ADD58R,0.500X0.750*%
%ADD59R,0.850X1.000*%
%ADD60R,1.050X1.150*%
%ADD61R,1.600X3.100*%
%ADD62R,1.250X1.400*%
%ADD63R,3.350X2.550*%
%ADD64R,1.650X1.450*%
%ADD65R,2.452X2.452*%
%ADD66C,2.452*%
%ADD67C,3.152*%
%ADD68C,3.350*%
%ADD69C,0.150*%
%ADD70C,6.508*%
%ADD71C,1.499*%
%ADD72C,2.650*%
%ADD73C,1.420*%
%ADD74C,0.230*%
%ADD75C,0.850*%
D23*
X22425Y43700D02*
D03*
X20775D02*
D03*
D33*
X37000Y52400D02*
D03*
X36600D02*
D03*
X36200D02*
D03*
X35800D02*
D03*
X35400D02*
D03*
X35000D02*
D03*
X34600D02*
D03*
X37000Y52800D02*
D03*
X36600D02*
D03*
X36200D02*
D03*
X35800D02*
D03*
X35400D02*
D03*
X35000D02*
D03*
X34600D02*
D03*
X37000Y53200D02*
D03*
X36600D02*
D03*
X36200D02*
D03*
X35800D02*
D03*
X35400D02*
D03*
X35000D02*
D03*
X34600D02*
D03*
X37000Y53600D02*
D03*
X36600D02*
D03*
X36200D02*
D03*
X35800D02*
D03*
X35400D02*
D03*
X35000D02*
D03*
X34600D02*
D03*
X37000Y54000D02*
D03*
X36600D02*
D03*
X36200D02*
D03*
X35800D02*
D03*
X35400D02*
D03*
X35000D02*
D03*
X34600D02*
D03*
X37000Y54400D02*
D03*
X36600D02*
D03*
X36200D02*
D03*
X35800D02*
D03*
X35400D02*
D03*
X35000D02*
D03*
X34600D02*
D03*
X37000Y54800D02*
D03*
X36600D02*
D03*
X36200D02*
D03*
X35800D02*
D03*
X35400D02*
D03*
X35000D02*
D03*
X34600D02*
D03*
X37000Y55200D02*
D03*
X36600D02*
D03*
X36200D02*
D03*
X35800D02*
D03*
X35400D02*
D03*
X35000D02*
D03*
X34600D02*
D03*
D34*
X28387Y21599D02*
D03*
Y22100D02*
D03*
Y22600D02*
D03*
Y23100D02*
D03*
Y23601D02*
D03*
X32813D02*
D03*
Y23100D02*
D03*
Y22600D02*
D03*
Y22100D02*
D03*
Y21599D02*
D03*
X46687Y22299D02*
D03*
Y22800D02*
D03*
Y23300D02*
D03*
Y23800D02*
D03*
Y24301D02*
D03*
X51113D02*
D03*
Y23800D02*
D03*
Y23300D02*
D03*
Y22800D02*
D03*
Y22299D02*
D03*
X26787Y35299D02*
D03*
Y35800D02*
D03*
Y36300D02*
D03*
Y36800D02*
D03*
Y37301D02*
D03*
X31213D02*
D03*
Y36800D02*
D03*
Y36300D02*
D03*
Y35800D02*
D03*
Y35299D02*
D03*
X46287D02*
D03*
Y35800D02*
D03*
Y36300D02*
D03*
Y36800D02*
D03*
Y37301D02*
D03*
X50713D02*
D03*
Y36800D02*
D03*
Y36300D02*
D03*
Y35800D02*
D03*
Y35299D02*
D03*
D40*
X56600Y4317D02*
D03*
Y10018D02*
D03*
X35104Y10076D02*
D03*
Y4374D02*
D03*
D41*
X46000Y9700D02*
D03*
X25704Y9625D02*
D03*
D42*
X45000Y11620D02*
D03*
X45500D02*
D03*
X46000D02*
D03*
X46500D02*
D03*
X47000D02*
D03*
Y7780D02*
D03*
X46500D02*
D03*
X46000D02*
D03*
X45500D02*
D03*
X45000D02*
D03*
X24704Y11545D02*
D03*
X25204D02*
D03*
X25704D02*
D03*
X26204D02*
D03*
X26704D02*
D03*
Y7705D02*
D03*
X26204D02*
D03*
X25704D02*
D03*
X25204D02*
D03*
X24704D02*
D03*
D46*
X13000Y37400D02*
D03*
X54000Y34000D02*
D03*
X34000Y34400D02*
D03*
X48400Y71300D02*
D03*
X53500Y71000D02*
D03*
X7800Y37400D02*
D03*
X36900Y46200D02*
D03*
X28000Y51800D02*
D03*
X2400Y37400D02*
D03*
X24100Y55600D02*
D03*
X28500Y60200D02*
D03*
X20600Y34000D02*
D03*
X46900Y40000D02*
D03*
X24700Y61600D02*
D03*
X34600Y51500D02*
D03*
X34800Y48000D02*
D03*
X35800Y50400D02*
D03*
Y49200D02*
D03*
X34700Y50500D02*
D03*
X37900Y54400D02*
D03*
X37800Y58200D02*
D03*
X41400Y55500D02*
D03*
X31300Y59000D02*
D03*
X34482Y58373D02*
D03*
X31800Y56800D02*
D03*
X33200Y52500D02*
D03*
X38100Y51900D02*
D03*
X30800Y54800D02*
D03*
X23300Y61100D02*
D03*
X38148Y55824D02*
D03*
X37700Y56700D02*
D03*
X37000Y51500D02*
D03*
X37900Y52900D02*
D03*
X32900Y58800D02*
D03*
X26700Y32400D02*
D03*
X37403Y58925D02*
D03*
X31300Y62700D02*
D03*
X30900Y49700D02*
D03*
X31100Y34100D02*
D03*
X46300Y31800D02*
D03*
X73300Y48100D02*
D03*
X72400Y49200D02*
D03*
X74200D02*
D03*
Y50500D02*
D03*
X72200Y53200D02*
D03*
X74200D02*
D03*
Y51800D02*
D03*
X72400Y50500D02*
D03*
X72473Y51711D02*
D03*
X38200Y47900D02*
D03*
Y34600D02*
D03*
X47000Y56600D02*
D03*
X43500Y51700D02*
D03*
X45400Y48300D02*
D03*
X31300Y60300D02*
D03*
Y61500D02*
D03*
X37700Y60200D02*
D03*
X37573Y62627D02*
D03*
X37700Y61400D02*
D03*
X39600Y48200D02*
D03*
X42100Y53400D02*
D03*
D47*
X25000Y43650D02*
D03*
Y44950D02*
D03*
X45200Y51550D02*
D03*
Y52850D02*
D03*
Y57850D02*
D03*
Y56550D02*
D03*
X36900Y50150D02*
D03*
Y48850D02*
D03*
X42300Y56550D02*
D03*
Y55250D02*
D03*
D48*
X16950Y46300D02*
D03*
X15050D02*
D03*
X16000Y44100D02*
D03*
D49*
X29500Y6675D02*
D03*
Y5725D02*
D03*
X30800Y6675D02*
D03*
Y5725D02*
D03*
X49900Y11725D02*
D03*
Y12675D02*
D03*
X48900Y15875D02*
D03*
Y14925D02*
D03*
X33200Y50875D02*
D03*
Y49925D02*
D03*
X31800Y51075D02*
D03*
Y50125D02*
D03*
X30596Y51966D02*
D03*
Y51016D02*
D03*
X30600Y48775D02*
D03*
Y47825D02*
D03*
X50000Y6250D02*
D03*
Y7200D02*
D03*
X51300Y6250D02*
D03*
Y7200D02*
D03*
X29500Y15225D02*
D03*
Y16175D02*
D03*
X30288Y11875D02*
D03*
Y10925D02*
D03*
D50*
X46975Y63600D02*
D03*
X48625D02*
D03*
X51725Y53000D02*
D03*
X50075D02*
D03*
X49975Y49700D02*
D03*
X51625D02*
D03*
X40975Y46800D02*
D03*
X42625D02*
D03*
D51*
X10450Y3900D02*
D03*
X15350D02*
D03*
Y9600D02*
D03*
X10450D02*
D03*
X15150Y16000D02*
D03*
X10250D02*
D03*
X10150Y22400D02*
D03*
X15050D02*
D03*
D52*
X20900Y6325D02*
D03*
Y12675D02*
D03*
X39900Y12975D02*
D03*
Y6625D02*
D03*
D53*
X47775Y12500D02*
D03*
X46825D02*
D03*
X49075Y11200D02*
D03*
X48125D02*
D03*
X27375Y12400D02*
D03*
X26425D02*
D03*
X29075Y11000D02*
D03*
X28125D02*
D03*
D54*
X43900Y24860D02*
D03*
Y23940D02*
D03*
X36000Y23760D02*
D03*
Y22840D02*
D03*
D55*
X32486Y55000D02*
D03*
X33406D02*
D03*
X39640Y55200D02*
D03*
X40560D02*
D03*
X25340Y59300D02*
D03*
X26260D02*
D03*
X33740Y2400D02*
D03*
X34660D02*
D03*
X54260Y2700D02*
D03*
X53340D02*
D03*
X21260Y38000D02*
D03*
X20340D02*
D03*
X40240Y38900D02*
D03*
X41160D02*
D03*
D56*
X33700Y56540D02*
D03*
Y57460D02*
D03*
X35500D02*
D03*
Y56540D02*
D03*
X36996Y57414D02*
D03*
Y56494D02*
D03*
X38692Y57408D02*
D03*
Y58328D02*
D03*
D57*
X44600Y17200D02*
D03*
X46600Y18150D02*
D03*
Y16250D02*
D03*
X24904Y17225D02*
D03*
X26904Y18175D02*
D03*
Y16275D02*
D03*
D58*
X52750Y17900D02*
D03*
X52050D02*
D03*
X52850Y14900D02*
D03*
X52150D02*
D03*
X32550Y17900D02*
D03*
X33250D02*
D03*
X32550Y14900D02*
D03*
X33250D02*
D03*
D59*
X43650Y49500D02*
D03*
X42350D02*
D03*
X38850Y50500D02*
D03*
X40150D02*
D03*
X29050Y49700D02*
D03*
X27750D02*
D03*
D60*
X39000Y53400D02*
D03*
X40600D02*
D03*
X32900Y53446D02*
D03*
X31300D02*
D03*
D61*
X32950Y60900D02*
D03*
X36050D02*
D03*
D62*
X46237Y29150D02*
D03*
Y30850D02*
D03*
X41429Y29150D02*
D03*
Y30850D02*
D03*
X43833Y29150D02*
D03*
Y30850D02*
D03*
X48642Y29150D02*
D03*
Y30850D02*
D03*
X51046Y29150D02*
D03*
Y30850D02*
D03*
X28400Y29150D02*
D03*
Y30850D02*
D03*
X23496Y29150D02*
D03*
Y30850D02*
D03*
X25996Y29150D02*
D03*
Y30850D02*
D03*
X30804Y29150D02*
D03*
Y30850D02*
D03*
X33209Y29150D02*
D03*
Y30850D02*
D03*
D63*
X4000Y28250D02*
D03*
Y23350D02*
D03*
D64*
X54100Y61450D02*
D03*
Y59550D02*
D03*
D65*
X4800Y59900D02*
D03*
D66*
X9000D02*
D03*
X4800Y54400D02*
D03*
X9000D02*
D03*
D67*
X6900Y67200D02*
D03*
D68*
X62000Y27800D02*
D03*
Y31800D02*
D03*
Y35800D02*
D03*
Y39800D02*
D03*
Y43800D02*
D03*
X66000Y29800D02*
D03*
Y33800D02*
D03*
Y37800D02*
D03*
Y41800D02*
D03*
X70000Y27800D02*
D03*
Y31800D02*
D03*
Y35800D02*
D03*
Y39800D02*
D03*
Y43800D02*
D03*
Y55800D02*
D03*
Y51800D02*
D03*
Y47800D02*
D03*
X66000Y53800D02*
D03*
Y49800D02*
D03*
Y45800D02*
D03*
X62000Y55800D02*
D03*
Y51800D02*
D03*
Y47800D02*
D03*
D69*
X66500Y21300D02*
D03*
Y62300D02*
D03*
D70*
X36900Y69900D02*
D03*
X68400Y4800D02*
D03*
X5100Y44800D02*
D03*
D71*
X3700Y13576D02*
D03*
Y11076D02*
D03*
Y8576D02*
D03*
Y6076D02*
D03*
Y3576D02*
D03*
D72*
X25670Y69600D02*
D03*
X29330Y69651D02*
D03*
X21200Y69600D02*
D03*
X17540D02*
D03*
D73*
X32700Y45800D02*
D03*
X20500Y46800D02*
D03*
X29100D02*
D03*
X27000Y44900D02*
D03*
X47300Y46800D02*
D03*
X49400D02*
D03*
X51400D02*
D03*
X25500Y55600D02*
D03*
X27500Y55700D02*
D03*
X25200Y57600D02*
D03*
X27400D02*
D03*
X27600Y53700D02*
D03*
X25200D02*
D03*
X52700Y7600D02*
D03*
X30100Y8200D02*
D03*
X57469Y48468D02*
D03*
X56400Y43500D02*
D03*
X55300Y42000D02*
D03*
X51800Y41900D02*
D03*
X34736Y22836D02*
D03*
X12800Y1100D02*
D03*
X24800Y1800D02*
D03*
X21900D02*
D03*
X62600Y4600D02*
D03*
X60800Y9300D02*
D03*
X62600Y7400D02*
D03*
X53700Y11000D02*
D03*
X17700Y6900D02*
D03*
X17400Y12600D02*
D03*
X17700Y16000D02*
D03*
X5100Y32100D02*
D03*
X8500Y30900D02*
D03*
X11400Y31000D02*
D03*
Y28300D02*
D03*
X20800Y27100D02*
D03*
X18600D02*
D03*
Y24800D02*
D03*
X20700D02*
D03*
X30200Y3200D02*
D03*
X56800Y12600D02*
D03*
X35800Y8200D02*
D03*
X31700Y10900D02*
D03*
X26100Y26900D02*
D03*
X39700Y37300D02*
D03*
X37900Y36300D02*
D03*
X49000Y40200D02*
D03*
X21700Y35300D02*
D03*
X48100Y49700D02*
D03*
Y53100D02*
D03*
X41100Y48300D02*
D03*
X39300Y46800D02*
D03*
X50400Y43000D02*
D03*
X72900Y36000D02*
D03*
Y38500D02*
D03*
Y40600D02*
D03*
Y42600D02*
D03*
X46400Y61600D02*
D03*
X44000Y61900D02*
D03*
Y64000D02*
D03*
Y66000D02*
D03*
X46100Y66000D02*
D03*
X53900Y49700D02*
D03*
X53300Y53100D02*
D03*
X20000Y36300D02*
D03*
X29200Y35400D02*
D03*
X48400Y37700D02*
D03*
X29500Y55700D02*
D03*
X57100Y61900D02*
D03*
X57500Y66200D02*
D03*
X54800D02*
D03*
X51900D02*
D03*
X49100D02*
D03*
X52800Y63700D02*
D03*
X55300D02*
D03*
X50600Y63600D02*
D03*
X56800Y50500D02*
D03*
X55600Y53300D02*
D03*
X37100Y33800D02*
D03*
X48400Y35700D02*
D03*
X49600Y33900D02*
D03*
X50000Y17200D02*
D03*
X36700Y12600D02*
D03*
X26500Y25300D02*
D03*
X19100Y1800D02*
D03*
X53000Y13500D02*
D03*
X30600Y23500D02*
D03*
X22100Y22200D02*
D03*
X14900Y12400D02*
D03*
X57900Y7800D02*
D03*
X18000Y17900D02*
D03*
X46500Y20700D02*
D03*
X21900Y18900D02*
D03*
X25800Y20500D02*
D03*
X39200Y20100D02*
D03*
X8550Y28250D02*
D03*
X36500Y26900D02*
D03*
X19700Y22400D02*
D03*
X55700Y40000D02*
D03*
X55600Y34700D02*
D03*
X54800Y37900D02*
D03*
X55600Y55100D02*
D03*
D74*
X35800Y55200D02*
D03*
X36600Y55200D02*
D03*
X36200Y54800D02*
D03*
X36600Y54400D02*
D03*
Y53200D02*
D03*
Y54800D02*
D03*
X36200Y53600D02*
D03*
X36600Y54000D02*
D03*
Y52800D02*
D03*
Y52400D02*
D03*
X36200Y52800D02*
D03*
X35000Y52400D02*
D03*
X35800Y52800D02*
D03*
X36200Y55200D02*
D03*
X35800Y54800D02*
D03*
X34600Y53200D02*
D03*
X35400Y52800D02*
D03*
X35800Y53200D02*
D03*
X34600Y54000D02*
D03*
X34600Y54400D02*
D03*
X35800Y54400D02*
D03*
Y54000D02*
D03*
X34600Y55200D02*
D03*
Y54800D02*
D03*
X35400Y54400D02*
D03*
Y54800D02*
D03*
Y55200D02*
D03*
X36200Y53200D02*
D03*
X35800Y53600D02*
D03*
X35400Y54000D02*
D03*
Y53600D02*
D03*
X36200Y54000D02*
D03*
Y54400D02*
D03*
D75*
X28873Y13900D02*
D03*
X32000Y19000D02*
D03*
X34600Y20700D02*
D03*
X43000Y13500D02*
D03*
X30300Y17000D02*
D03*
X50000Y20800D02*
D03*
X52700Y21100D02*
D03*
X29850Y18050D02*
D03*
X44700Y25800D02*
D03*
X19700Y17400D02*
D03*
X21400Y16500D02*
D03*
X19700Y15900D02*
D03*
X17700Y8900D02*
D03*
Y10700D02*
D03*
X14300Y6800D02*
D03*
X15800Y18700D02*
D03*
X13800D02*
D03*
X32400Y16600D02*
D03*
X36900Y47800D02*
D03*
X41200Y50400D02*
D03*
X39600Y49300D02*
D03*
X36500Y18900D02*
D03*
X32400Y13500D02*
D03*
X27700D02*
D03*
X48000Y13600D02*
D03*
X46600D02*
D03*
X46237Y27500D02*
D03*
X51300Y19800D02*
D03*
X52600Y24200D02*
D03*
X47900Y19000D02*
D03*
X50400Y10600D02*
D03*
X48600Y8300D02*
D03*
X51400Y12200D02*
D03*
X26500Y13400D02*
D03*
X28400Y19000D02*
D03*
M02*
