G04*
G04 #@! TF.GenerationSoftware,Altium Limited,Altium Designer,20.2.6 (244)*
G04*
G04 Layer_Color=32896*
%FSLAX43Y43*%
%MOMM*%
G71*
G04*
G04 #@! TF.SameCoordinates,AB413B8A-FF02-4A9D-ADD2-1BA9649D16F0*
G04*
G04*
G04 #@! TF.FilePolarity,Positive*
G04*
G01*
G75*
%ADD11C,0.500*%
%ADD12C,0.250*%
%ADD14C,0.100*%
%ADD15C,0.508*%
%ADD16C,0.152*%
%ADD17C,0.200*%
%ADD18C,0.127*%
%ADD19C,0.076*%
%ADD20C,0.050*%
G36*
X27469Y23791D02*
X27215D01*
Y23410D01*
X27469D01*
Y23791D01*
D02*
G37*
G36*
X32131Y35109D02*
X32385D01*
Y35490D01*
X32131D01*
Y35109D01*
D02*
G37*
G36*
X45769Y24491D02*
X45515D01*
Y24110D01*
X45769D01*
Y24491D01*
D02*
G37*
G36*
X51631Y35109D02*
X51885D01*
Y35490D01*
X51631D01*
Y35109D01*
D02*
G37*
D11*
X26750Y7450D02*
G03*
X26750Y7450I-250J0D01*
G01*
X46450Y7448D02*
G03*
X46450Y7448I-250J0D01*
G01*
D12*
X21550Y54800D02*
G03*
X21550Y54800I-125J0D01*
G01*
X26800Y4350D02*
G03*
X26800Y4350I-125J0D01*
G01*
X46500Y4348D02*
G03*
X46500Y4348I-125J0D01*
G01*
X52225Y59850D02*
G03*
X52225Y59850I-125J0D01*
G01*
X27025Y19100D02*
G03*
X27025Y19100I-125J0D01*
G01*
X46725D02*
G03*
X46725Y19100I-125J0D01*
G01*
D14*
X32400Y17150D02*
G03*
X32400Y17150I-50J0D01*
G01*
X32384Y14150D02*
G03*
X32384Y14150I-50J0D01*
G01*
X51900Y17150D02*
G03*
X51900Y17150I-50J0D01*
G01*
X52000Y14150D02*
G03*
X52000Y14150I-50J0D01*
G01*
D15*
X4081Y17936D02*
G03*
X4081Y17936I-381J0D01*
G01*
D16*
X50576Y21624D02*
Y21827D01*
Y24773D02*
Y24976D01*
X47224D02*
X50576D01*
X47224Y21624D02*
Y21827D01*
Y21624D02*
X50576D01*
X47224Y24773D02*
Y24976D01*
X32276Y20924D02*
Y21127D01*
Y24073D02*
Y24276D01*
X28924D02*
X32276D01*
X28924Y20924D02*
Y21127D01*
Y20924D02*
X32276D01*
X28924Y24073D02*
Y24276D01*
X46824Y37773D02*
Y37976D01*
Y34624D02*
Y34827D01*
Y34624D02*
X50176D01*
Y37773D02*
Y37976D01*
X46824D02*
X50176D01*
Y34624D02*
Y34827D01*
X27324Y37773D02*
Y37976D01*
Y34624D02*
Y34827D01*
Y34624D02*
X30676D01*
Y37773D02*
Y37976D01*
X27324D02*
X30676D01*
Y34624D02*
Y34827D01*
D17*
X21460Y56650D02*
Y57750D01*
X14760Y56650D02*
X21460D01*
X14760D02*
Y57750D01*
X24150Y6700D02*
X27250D01*
X24150D02*
Y10300D01*
X27250D01*
Y6700D02*
Y10300D01*
X43850Y6698D02*
X46950D01*
X43850D02*
Y10298D01*
X46950D01*
Y6698D02*
Y10298D01*
X52350Y58000D02*
Y59000D01*
X55450Y58000D02*
Y59000D01*
X52350D02*
X55450D01*
X52350Y58000D02*
X55450D01*
X54950Y5227D02*
Y9173D01*
X58250Y5227D02*
Y9173D01*
X22675Y8750D02*
Y10650D01*
X19125Y8750D02*
Y10650D01*
X25200Y18700D02*
X26200D01*
X25200Y18000D02*
Y18700D01*
Y15700D02*
X26200D01*
X25200D02*
Y16400D01*
X44900Y18700D02*
X45900D01*
X44900Y18000D02*
Y18700D01*
Y15700D02*
X45900D01*
X44900D02*
Y16400D01*
X72725Y45600D02*
Y45800D01*
X73875Y45600D02*
Y45800D01*
X38125Y8850D02*
Y10750D01*
X41675Y8850D02*
Y10750D01*
X36734Y5277D02*
Y9223D01*
X33434Y5277D02*
Y9223D01*
D18*
X300Y35000D02*
X16400Y35000D01*
X21400Y30000D01*
X54000D01*
X55700Y28300D01*
Y19200D02*
Y28300D01*
Y19200D02*
X64500Y10400D01*
X74700D01*
D19*
X51685Y25511D02*
X50838Y24665D01*
X51685D02*
X50838Y25511D01*
X51685Y25088D02*
X50838D01*
X51262Y24665D02*
Y25511D01*
X33385Y24811D02*
X32538Y23965D01*
X33385D02*
X32538Y24811D01*
X33385Y24388D02*
X32538D01*
X32962Y23965D02*
Y24811D01*
X45715Y34089D02*
X46562Y34935D01*
X45715D02*
X46562Y34089D01*
X45715Y34512D02*
X46562D01*
X46138Y34935D02*
Y34089D01*
X26215D02*
X27062Y34935D01*
X26215D02*
X27062Y34089D01*
X26215Y34512D02*
X27062D01*
X26638Y34935D02*
Y34089D01*
D20*
X31967Y4273D02*
Y4623D01*
X31792D01*
X31733Y4565D01*
Y4448D01*
X31792Y4390D01*
X31967D01*
X31850D02*
X31733Y4273D01*
X31383Y4623D02*
X31617D01*
Y4448D01*
X31500Y4506D01*
X31442D01*
X31383Y4448D01*
Y4332D01*
X31442Y4273D01*
X31558D01*
X31617Y4332D01*
X31267Y4623D02*
X31033D01*
Y4565D01*
X31267Y4332D01*
Y4273D01*
X31867Y5473D02*
Y5823D01*
X31692D01*
X31633Y5765D01*
Y5648D01*
X31692Y5590D01*
X31867D01*
X31750D02*
X31633Y5473D01*
X31283Y5823D02*
X31517D01*
Y5648D01*
X31400Y5706D01*
X31342D01*
X31283Y5648D01*
Y5532D01*
X31342Y5473D01*
X31458D01*
X31517Y5532D01*
X30933Y5823D02*
X31050Y5765D01*
X31167Y5648D01*
Y5532D01*
X31108Y5473D01*
X30992D01*
X30933Y5532D01*
Y5590D01*
X30992Y5648D01*
X31167D01*
X52267Y3525D02*
Y3875D01*
X52092D01*
X52033Y3817D01*
Y3700D01*
X52092Y3642D01*
X52267D01*
X52150D02*
X52033Y3525D01*
X51683Y3875D02*
X51917D01*
Y3700D01*
X51800Y3758D01*
X51742D01*
X51683Y3700D01*
Y3583D01*
X51742Y3525D01*
X51858D01*
X51917Y3583D01*
X51333Y3875D02*
X51567D01*
Y3700D01*
X51450Y3758D01*
X51392D01*
X51333Y3700D01*
Y3583D01*
X51392Y3525D01*
X51508D01*
X51567Y3583D01*
X52267Y4625D02*
Y4975D01*
X52092D01*
X52033Y4917D01*
Y4800D01*
X52092Y4742D01*
X52267D01*
X52150D02*
X52033Y4625D01*
X51683Y4975D02*
X51917D01*
Y4800D01*
X51800Y4858D01*
X51742D01*
X51683Y4800D01*
Y4683D01*
X51742Y4625D01*
X51858D01*
X51917Y4683D01*
X51392Y4625D02*
Y4975D01*
X51567Y4800D01*
X51333D01*
X24767Y14725D02*
Y15075D01*
X24592D01*
X24533Y15017D01*
Y14900D01*
X24592Y14842D01*
X24767D01*
X24650D02*
X24533Y14725D01*
X24183Y15075D02*
X24417D01*
Y14900D01*
X24300Y14958D01*
X24242D01*
X24183Y14900D01*
Y14783D01*
X24242Y14725D01*
X24358D01*
X24417Y14783D01*
X23833Y14725D02*
X24067D01*
X23833Y14958D01*
Y15017D01*
X23892Y15075D01*
X24008D01*
X24067Y15017D01*
X25908Y14725D02*
Y15075D01*
X25733D01*
X25675Y15017D01*
Y14900D01*
X25733Y14842D01*
X25908D01*
X25792D02*
X25675Y14725D01*
X25325Y15075D02*
X25558D01*
Y14900D01*
X25442Y14958D01*
X25383D01*
X25325Y14900D01*
Y14783D01*
X25383Y14725D01*
X25500D01*
X25558Y14783D01*
X25208Y14725D02*
X25092D01*
X25150D01*
Y15075D01*
X25208Y15017D01*
X44467Y14425D02*
Y14775D01*
X44292D01*
X44233Y14717D01*
Y14600D01*
X44292Y14542D01*
X44467D01*
X44350D02*
X44233Y14425D01*
X43883Y14775D02*
X44117D01*
Y14600D01*
X44000Y14658D01*
X43942D01*
X43883Y14600D01*
Y14483D01*
X43942Y14425D01*
X44058D01*
X44117Y14483D01*
X43767Y14717D02*
X43708Y14775D01*
X43592D01*
X43533Y14717D01*
Y14483D01*
X43592Y14425D01*
X43708D01*
X43767Y14483D01*
Y14717D01*
X45667Y14331D02*
Y14681D01*
X45492D01*
X45433Y14622D01*
Y14506D01*
X45492Y14447D01*
X45667D01*
X45550D02*
X45433Y14331D01*
X45142D02*
Y14681D01*
X45317Y14506D01*
X45083D01*
X44967Y14389D02*
X44908Y14331D01*
X44792D01*
X44733Y14389D01*
Y14622D01*
X44792Y14681D01*
X44908D01*
X44967Y14622D01*
Y14564D01*
X44908Y14506D01*
X44733D01*
X31075Y19117D02*
X31133Y19175D01*
X31250D01*
X31308Y19117D01*
Y18883D01*
X31250Y18825D01*
X31133D01*
X31075Y18883D01*
X30725Y19175D02*
X30958D01*
Y19000D01*
X30842Y19058D01*
X30783D01*
X30725Y19000D01*
Y18883D01*
X30783Y18825D01*
X30900D01*
X30958Y18883D01*
X30608Y18825D02*
X30492D01*
X30550D01*
Y19175D01*
X30608Y19117D01*
X44033Y25017D02*
X44092Y25075D01*
X44208D01*
X44267Y25017D01*
Y24783D01*
X44208Y24725D01*
X44092D01*
X44033Y24783D01*
X43683Y25075D02*
X43917D01*
Y24900D01*
X43800Y24958D01*
X43742D01*
X43683Y24900D01*
Y24783D01*
X43742Y24725D01*
X43858D01*
X43917Y24783D01*
X43567Y25017D02*
X43508Y25075D01*
X43392D01*
X43333Y25017D01*
Y24783D01*
X43392Y24725D01*
X43508D01*
X43567Y24783D01*
Y25017D01*
X28037Y24575D02*
Y24283D01*
X27979Y24225D01*
X27862D01*
X27804Y24283D01*
Y24575D01*
X27687Y24225D02*
X27571D01*
X27629D01*
Y24575D01*
X27687Y24517D01*
X27396D02*
X27338Y24575D01*
X27221D01*
X27163Y24517D01*
Y24458D01*
X27221Y24400D01*
X27279D01*
X27221D01*
X27163Y24342D01*
Y24283D01*
X27221Y24225D01*
X27338D01*
X27396Y24283D01*
X24299Y27419D02*
X24358Y27477D01*
X24474D01*
X24533Y27419D01*
Y27185D01*
X24474Y27127D01*
X24358D01*
X24299Y27185D01*
X24183Y27419D02*
X24125Y27477D01*
X24008D01*
X23950Y27419D01*
Y27360D01*
X24008Y27302D01*
X24066D01*
X24008D01*
X23950Y27244D01*
Y27185D01*
X24008Y27127D01*
X24125D01*
X24183Y27185D01*
X23833Y27419D02*
X23775Y27477D01*
X23658D01*
X23600Y27419D01*
Y27360D01*
X23658Y27302D01*
X23600Y27244D01*
Y27185D01*
X23658Y27127D01*
X23775D01*
X23833Y27185D01*
Y27244D01*
X23775Y27302D01*
X23833Y27360D01*
Y27419D01*
X23775Y27302D02*
X23658D01*
X34167Y11425D02*
Y11775D01*
X33992D01*
X33933Y11717D01*
Y11600D01*
X33992Y11542D01*
X34167D01*
X34050D02*
X33933Y11425D01*
X33642D02*
Y11775D01*
X33817Y11600D01*
X33583D01*
X33292Y11425D02*
Y11775D01*
X33467Y11600D01*
X33233D01*
X55723Y11385D02*
Y11734D01*
X55548D01*
X55490Y11676D01*
Y11560D01*
X55548Y11501D01*
X55723D01*
X55606D02*
X55490Y11385D01*
X55198D02*
Y11734D01*
X55373Y11560D01*
X55140D01*
X55023Y11676D02*
X54965Y11734D01*
X54848D01*
X54790Y11676D01*
Y11618D01*
X54848Y11560D01*
X54907D01*
X54848D01*
X54790Y11501D01*
Y11443D01*
X54848Y11385D01*
X54965D01*
X55023Y11443D01*
X29931Y17188D02*
Y17537D01*
X29756D01*
X29698Y17479D01*
Y17363D01*
X29756Y17304D01*
X29931D01*
X29814D02*
X29698Y17188D01*
X29406D02*
Y17537D01*
X29581Y17363D01*
X29348D01*
X29231Y17479D02*
X29173Y17537D01*
X29056D01*
X28998Y17479D01*
Y17246D01*
X29056Y17188D01*
X29173D01*
X29231Y17246D01*
Y17479D01*
X30119Y12885D02*
Y13235D01*
X29944D01*
X29886Y13177D01*
Y13060D01*
X29944Y13002D01*
X30119D01*
X30002D02*
X29886Y12885D01*
X29769Y13177D02*
X29711Y13235D01*
X29594D01*
X29536Y13177D01*
Y13118D01*
X29594Y13060D01*
X29652D01*
X29594D01*
X29536Y13002D01*
Y12944D01*
X29594Y12885D01*
X29711D01*
X29769Y12944D01*
X29419D02*
X29361Y12885D01*
X29244D01*
X29186Y12944D01*
Y13177D01*
X29244Y13235D01*
X29361D01*
X29419Y13177D01*
Y13118D01*
X29361Y13060D01*
X29186D01*
X49367Y16425D02*
Y16775D01*
X49192D01*
X49133Y16717D01*
Y16600D01*
X49192Y16542D01*
X49367D01*
X49250D02*
X49133Y16425D01*
X49017Y16717D02*
X48958Y16775D01*
X48842D01*
X48783Y16717D01*
Y16658D01*
X48842Y16600D01*
X48900D01*
X48842D01*
X48783Y16542D01*
Y16483D01*
X48842Y16425D01*
X48958D01*
X49017Y16483D01*
X48667Y16717D02*
X48608Y16775D01*
X48492D01*
X48433Y16717D01*
Y16658D01*
X48492Y16600D01*
X48433Y16542D01*
Y16483D01*
X48492Y16425D01*
X48608D01*
X48667Y16483D01*
Y16542D01*
X48608Y16600D01*
X48667Y16658D01*
Y16717D01*
X48608Y16600D02*
X48492D01*
X49367Y12625D02*
Y12975D01*
X49192D01*
X49133Y12917D01*
Y12800D01*
X49192Y12742D01*
X49367D01*
X49250D02*
X49133Y12625D01*
X49017Y12917D02*
X48958Y12975D01*
X48842D01*
X48783Y12917D01*
Y12858D01*
X48842Y12800D01*
X48900D01*
X48842D01*
X48783Y12742D01*
Y12683D01*
X48842Y12625D01*
X48958D01*
X49017Y12683D01*
X48667Y12975D02*
X48433D01*
Y12917D01*
X48667Y12683D01*
Y12625D01*
X18893Y39365D02*
X18951Y39423D01*
X19068D01*
X19126Y39365D01*
Y39132D01*
X19068Y39073D01*
X18951D01*
X18893Y39132D01*
X18601Y39073D02*
Y39423D01*
X18776Y39248D01*
X18543D01*
X18426Y39423D02*
X18193D01*
Y39365D01*
X18426Y39132D01*
Y39073D01*
X39189Y40271D02*
X39247Y40329D01*
X39364D01*
X39422Y40271D01*
Y40038D01*
X39364Y39980D01*
X39247D01*
X39189Y40038D01*
X38898Y39980D02*
Y40329D01*
X39073Y40155D01*
X38839D01*
X38489Y40329D02*
X38606Y40271D01*
X38723Y40155D01*
Y40038D01*
X38664Y39980D01*
X38548D01*
X38489Y40038D01*
Y40096D01*
X38548Y40155D01*
X38723D01*
X26437Y38475D02*
Y38183D01*
X26379Y38125D01*
X26262D01*
X26204Y38183D01*
Y38475D01*
X26087Y38125D02*
X25971D01*
X26029D01*
Y38475D01*
X26087Y38417D01*
X25563Y38125D02*
X25796D01*
X25563Y38358D01*
Y38417D01*
X25621Y38475D01*
X25738D01*
X25796Y38417D01*
X46279Y25375D02*
Y25083D01*
X46221Y25025D01*
X46104D01*
X46046Y25083D01*
Y25375D01*
X45929Y25025D02*
X45813D01*
X45871D01*
Y25375D01*
X45929Y25317D01*
X45638Y25025D02*
X45521D01*
X45579D01*
Y25375D01*
X45638Y25317D01*
X45937Y38375D02*
Y38083D01*
X45879Y38025D01*
X45762D01*
X45704Y38083D01*
Y38375D01*
X45587Y38025D02*
X45471D01*
X45529D01*
Y38375D01*
X45587Y38317D01*
X45296D02*
X45238Y38375D01*
X45121D01*
X45063Y38317D01*
Y38083D01*
X45121Y38025D01*
X45238D01*
X45296Y38083D01*
Y38317D01*
X24589Y11921D02*
Y11629D01*
X24530Y11571D01*
X24414D01*
X24355Y11629D01*
Y11921D01*
X24005D02*
X24239D01*
Y11746D01*
X24122Y11804D01*
X24064D01*
X24005Y11746D01*
Y11629D01*
X24064Y11571D01*
X24180D01*
X24239Y11629D01*
X43492Y10973D02*
Y10682D01*
X43433Y10623D01*
X43317D01*
X43258Y10682D01*
Y10973D01*
X42967Y10623D02*
Y10973D01*
X43142Y10798D01*
X42908D01*
X20182Y15075D02*
Y15425D01*
X20007D01*
X19949Y15367D01*
Y15250D01*
X20007Y15192D01*
X20182D01*
X20066D02*
X19949Y15075D01*
X19832Y15367D02*
X19774Y15425D01*
X19657D01*
X19599Y15367D01*
Y15308D01*
X19657Y15250D01*
X19716D01*
X19657D01*
X19599Y15192D01*
Y15133D01*
X19657Y15075D01*
X19774D01*
X19832Y15133D01*
X19249Y15075D02*
X19482D01*
X19249Y15308D01*
Y15367D01*
X19308Y15425D01*
X19424D01*
X19482Y15367D01*
X31908Y6329D02*
Y6679D01*
X31733D01*
X31675Y6620D01*
Y6504D01*
X31733Y6445D01*
X31908D01*
X31792D02*
X31675Y6329D01*
X31558Y6620D02*
X31500Y6679D01*
X31383D01*
X31325Y6620D01*
Y6562D01*
X31383Y6504D01*
X31442D01*
X31383D01*
X31325Y6445D01*
Y6387D01*
X31383Y6329D01*
X31500D01*
X31558Y6387D01*
X31208Y6329D02*
X31092D01*
X31150D01*
Y6679D01*
X31208Y6620D01*
X38711Y15674D02*
Y16024D01*
X38536D01*
X38478Y15965D01*
Y15849D01*
X38536Y15790D01*
X38711D01*
X38594D02*
X38478Y15674D01*
X38128D02*
X38361D01*
X38128Y15907D01*
Y15965D01*
X38186Y16024D01*
X38303D01*
X38361Y15965D01*
X38011Y15732D02*
X37953Y15674D01*
X37836D01*
X37778Y15732D01*
Y15965D01*
X37836Y16024D01*
X37953D01*
X38011Y15965D01*
Y15907D01*
X37953Y15849D01*
X37778D01*
X52267Y5825D02*
Y6175D01*
X52092D01*
X52033Y6117D01*
Y6000D01*
X52092Y5942D01*
X52267D01*
X52150D02*
X52033Y5825D01*
X51683D02*
X51917D01*
X51683Y6058D01*
Y6117D01*
X51742Y6175D01*
X51858D01*
X51917Y6117D01*
X51567D02*
X51508Y6175D01*
X51392D01*
X51333Y6117D01*
Y6058D01*
X51392Y6000D01*
X51333Y5942D01*
Y5883D01*
X51392Y5825D01*
X51508D01*
X51567Y5883D01*
Y5942D01*
X51508Y6000D01*
X51567Y6058D01*
Y6117D01*
X51508Y6000D02*
X51392D01*
X73067Y47425D02*
Y47775D01*
X72892D01*
X72833Y47717D01*
Y47600D01*
X72892Y47542D01*
X73067D01*
X72950D02*
X72833Y47425D01*
X72483D02*
X72717D01*
X72483Y47658D01*
Y47717D01*
X72542Y47775D01*
X72658D01*
X72717Y47717D01*
X72367D02*
X72308Y47775D01*
X72192D01*
X72133Y47717D01*
Y47483D01*
X72192Y47425D01*
X72308D01*
X72367Y47483D01*
Y47717D01*
X31637Y50425D02*
Y50775D01*
X31462D01*
X31404Y50717D01*
Y50600D01*
X31462Y50542D01*
X31637D01*
X31521D02*
X31404Y50425D01*
X31287D02*
X31171D01*
X31229D01*
Y50775D01*
X31287Y50717D01*
X30996D02*
X30938Y50775D01*
X30821D01*
X30763Y50717D01*
Y50658D01*
X30821Y50600D01*
X30879D01*
X30821D01*
X30763Y50542D01*
Y50483D01*
X30821Y50425D01*
X30938D01*
X30996Y50483D01*
X42337Y51534D02*
Y51883D01*
X42162D01*
X42104Y51825D01*
Y51708D01*
X42162Y51650D01*
X42337D01*
X42221D02*
X42104Y51534D01*
X41987D02*
X41871D01*
X41929D01*
Y51883D01*
X41987Y51825D01*
X41463Y51534D02*
X41696D01*
X41463Y51767D01*
Y51825D01*
X41521Y51883D01*
X41638D01*
X41696Y51825D01*
X31592Y48425D02*
Y48775D01*
X31417D01*
X31358Y48717D01*
Y48600D01*
X31417Y48542D01*
X31592D01*
X31475D02*
X31358Y48425D01*
X31242Y48483D02*
X31183Y48425D01*
X31067D01*
X31008Y48483D01*
Y48717D01*
X31067Y48775D01*
X31183D01*
X31242Y48717D01*
Y48658D01*
X31183Y48600D01*
X31008D01*
X43633Y57225D02*
Y57575D01*
X43458D01*
X43400Y57517D01*
Y57400D01*
X43458Y57342D01*
X43633D01*
X43517D02*
X43400Y57225D01*
X43283D02*
X43167D01*
X43225D01*
Y57575D01*
X43283Y57517D01*
X24358Y19083D02*
Y19317D01*
X24417Y19375D01*
X24533D01*
X24592Y19317D01*
Y19083D01*
X24533Y19025D01*
X24417D01*
X24475Y19142D02*
X24358Y19025D01*
X24417D02*
X24358Y19083D01*
X24067Y19025D02*
Y19375D01*
X24242Y19200D01*
X24008D01*
X44058Y19083D02*
Y19317D01*
X44117Y19375D01*
X44233D01*
X44292Y19317D01*
Y19083D01*
X44233Y19025D01*
X44117D01*
X44175Y19142D02*
X44058Y19025D01*
X44117D02*
X44058Y19083D01*
X43942Y19317D02*
X43883Y19375D01*
X43767D01*
X43708Y19317D01*
Y19258D01*
X43767Y19200D01*
X43825D01*
X43767D01*
X43708Y19142D01*
Y19083D01*
X43767Y19025D01*
X43883D01*
X43942Y19083D01*
X32079Y18075D02*
Y17725D01*
X31904D01*
X31846Y17783D01*
Y18017D01*
X31904Y18075D01*
X32079D01*
X31729Y17725D02*
X31613D01*
X31671D01*
Y18075D01*
X31729Y18017D01*
X31438Y17725D02*
X31321D01*
X31379D01*
Y18075D01*
X31438Y18017D01*
X31937Y15275D02*
Y14925D01*
X31762D01*
X31704Y14983D01*
Y15217D01*
X31762Y15275D01*
X31937D01*
X31587Y14925D02*
X31471D01*
X31529D01*
Y15275D01*
X31587Y15217D01*
X31296D02*
X31238Y15275D01*
X31121D01*
X31063Y15217D01*
Y14983D01*
X31121Y14925D01*
X31238D01*
X31296Y14983D01*
Y15217D01*
X51492Y18175D02*
Y17825D01*
X51317D01*
X51258Y17883D01*
Y18117D01*
X51317Y18175D01*
X51492D01*
X51142Y17883D02*
X51083Y17825D01*
X50967D01*
X50908Y17883D01*
Y18117D01*
X50967Y18175D01*
X51083D01*
X51142Y18117D01*
Y18058D01*
X51083Y18000D01*
X50908D01*
X51492Y15175D02*
Y14825D01*
X51317D01*
X51258Y14883D01*
Y15117D01*
X51317Y15175D01*
X51492D01*
X51142Y15117D02*
X51083Y15175D01*
X50967D01*
X50908Y15117D01*
Y15058D01*
X50967Y15000D01*
X50908Y14942D01*
Y14883D01*
X50967Y14825D01*
X51083D01*
X51142Y14883D01*
Y14942D01*
X51083Y15000D01*
X51142Y15058D01*
Y15117D01*
X51083Y15000D02*
X50967D01*
X17086Y64108D02*
Y63758D01*
X16911D01*
X16853Y63817D01*
Y64050D01*
X16911Y64108D01*
X17086D01*
X16737Y64050D02*
X16678Y64108D01*
X16562D01*
X16503Y64050D01*
Y63992D01*
X16562Y63933D01*
X16620D01*
X16562D01*
X16503Y63875D01*
Y63817D01*
X16562Y63758D01*
X16678D01*
X16737Y63817D01*
X52367Y55125D02*
Y55475D01*
X52542D01*
X52600Y55417D01*
Y55183D01*
X52542Y55125D01*
X52367D01*
X52717Y55475D02*
X52833D01*
X52775D01*
Y55125D01*
X52717Y55183D01*
X33033Y2517D02*
X33092Y2575D01*
X33208D01*
X33267Y2517D01*
Y2283D01*
X33208Y2225D01*
X33092D01*
X33033Y2283D01*
X32742Y2225D02*
Y2575D01*
X32917Y2400D01*
X32683D01*
X32567Y2517D02*
X32508Y2575D01*
X32392D01*
X32333Y2517D01*
Y2458D01*
X32392Y2400D01*
X32450D01*
X32392D01*
X32333Y2342D01*
Y2283D01*
X32392Y2225D01*
X32508D01*
X32567Y2283D01*
X29180Y27420D02*
X29239Y27478D01*
X29355D01*
X29414Y27420D01*
Y27187D01*
X29355Y27128D01*
X29239D01*
X29180Y27187D01*
X28889Y27128D02*
Y27478D01*
X29064Y27303D01*
X28831D01*
X28481Y27128D02*
X28714D01*
X28481Y27361D01*
Y27420D01*
X28539Y27478D01*
X28656D01*
X28714Y27420D01*
X33996D02*
X34054Y27478D01*
X34171D01*
X34229Y27420D01*
Y27187D01*
X34171Y27128D01*
X34054D01*
X33996Y27187D01*
X33704Y27128D02*
Y27478D01*
X33879Y27303D01*
X33646D01*
X33529Y27128D02*
X33413D01*
X33471D01*
Y27478D01*
X33529Y27420D01*
X31601D02*
X31660Y27478D01*
X31776D01*
X31835Y27420D01*
Y27187D01*
X31776Y27128D01*
X31660D01*
X31601Y27187D01*
X31310Y27128D02*
Y27478D01*
X31485Y27303D01*
X31251D01*
X31135Y27420D02*
X31076Y27478D01*
X30960D01*
X30901Y27420D01*
Y27187D01*
X30960Y27128D01*
X31076D01*
X31135Y27187D01*
Y27420D01*
X26133Y28017D02*
X26192Y28075D01*
X26308D01*
X26367Y28017D01*
Y27783D01*
X26308Y27725D01*
X26192D01*
X26133Y27783D01*
X26017Y28017D02*
X25958Y28075D01*
X25842D01*
X25783Y28017D01*
Y27958D01*
X25842Y27900D01*
X25900D01*
X25842D01*
X25783Y27842D01*
Y27783D01*
X25842Y27725D01*
X25958D01*
X26017Y27783D01*
X25667D02*
X25608Y27725D01*
X25492D01*
X25433Y27783D01*
Y28017D01*
X25492Y28075D01*
X25608D01*
X25667Y28017D01*
Y27958D01*
X25608Y27900D01*
X25433D01*
X54482Y4070D02*
X54540Y4128D01*
X54656D01*
X54715Y4070D01*
Y3837D01*
X54656Y3778D01*
X54540D01*
X54482Y3837D01*
X54365Y4070D02*
X54307Y4128D01*
X54190D01*
X54132Y4070D01*
Y4011D01*
X54190Y3953D01*
X54248D01*
X54190D01*
X54132Y3895D01*
Y3837D01*
X54190Y3778D01*
X54307D01*
X54365Y3837D01*
X54015Y4128D02*
X53782D01*
Y4070D01*
X54015Y3837D01*
Y3778D01*
X47233Y27417D02*
X47292Y27475D01*
X47408D01*
X47467Y27417D01*
Y27183D01*
X47408Y27125D01*
X47292D01*
X47233Y27183D01*
X47117Y27417D02*
X47058Y27475D01*
X46942D01*
X46883Y27417D01*
Y27358D01*
X46942Y27300D01*
X47000D01*
X46942D01*
X46883Y27242D01*
Y27183D01*
X46942Y27125D01*
X47058D01*
X47117Y27183D01*
X46533Y27475D02*
X46650Y27417D01*
X46767Y27300D01*
Y27183D01*
X46708Y27125D01*
X46592D01*
X46533Y27183D01*
Y27242D01*
X46592Y27300D01*
X46767D01*
X51848Y27452D02*
X51906Y27511D01*
X52023D01*
X52081Y27452D01*
Y27219D01*
X52023Y27161D01*
X51906D01*
X51848Y27219D01*
X51731Y27452D02*
X51673Y27511D01*
X51556D01*
X51498Y27452D01*
Y27394D01*
X51556Y27336D01*
X51614D01*
X51556D01*
X51498Y27277D01*
Y27219D01*
X51556Y27161D01*
X51673D01*
X51731Y27219D01*
X51148Y27511D02*
X51381D01*
Y27336D01*
X51265Y27394D01*
X51206D01*
X51148Y27336D01*
Y27219D01*
X51206Y27161D01*
X51323D01*
X51381Y27219D01*
X49438Y27402D02*
X49497Y27461D01*
X49613D01*
X49672Y27402D01*
Y27169D01*
X49613Y27111D01*
X49497D01*
X49438Y27169D01*
X49322Y27402D02*
X49263Y27461D01*
X49147D01*
X49088Y27402D01*
Y27344D01*
X49147Y27286D01*
X49205D01*
X49147D01*
X49088Y27227D01*
Y27169D01*
X49147Y27111D01*
X49263D01*
X49322Y27169D01*
X48797Y27111D02*
Y27461D01*
X48972Y27286D01*
X48738D01*
X44593Y27402D02*
X44652Y27461D01*
X44768D01*
X44827Y27402D01*
Y27169D01*
X44768Y27111D01*
X44652D01*
X44593Y27169D01*
X44477Y27402D02*
X44418Y27461D01*
X44302D01*
X44244Y27402D01*
Y27344D01*
X44302Y27286D01*
X44360D01*
X44302D01*
X44244Y27227D01*
Y27169D01*
X44302Y27111D01*
X44418D01*
X44477Y27169D01*
X44127Y27402D02*
X44069Y27461D01*
X43952D01*
X43894Y27402D01*
Y27344D01*
X43952Y27286D01*
X44010D01*
X43952D01*
X43894Y27227D01*
Y27169D01*
X43952Y27111D01*
X44069D01*
X44127Y27169D01*
X42178Y27402D02*
X42237Y27461D01*
X42353D01*
X42412Y27402D01*
Y27169D01*
X42353Y27111D01*
X42237D01*
X42178Y27169D01*
X42062Y27402D02*
X42003Y27461D01*
X41887D01*
X41828Y27402D01*
Y27344D01*
X41887Y27286D01*
X41945D01*
X41887D01*
X41828Y27227D01*
Y27169D01*
X41887Y27111D01*
X42003D01*
X42062Y27169D01*
X41479Y27111D02*
X41712D01*
X41479Y27344D01*
Y27402D01*
X41537Y27461D01*
X41653D01*
X41712Y27402D01*
X41804Y55717D02*
X41862Y55775D01*
X41979D01*
X42037Y55717D01*
Y55483D01*
X41979Y55425D01*
X41862D01*
X41804Y55483D01*
X41687Y55425D02*
X41571D01*
X41629D01*
Y55775D01*
X41687Y55717D01*
X41163Y55775D02*
X41279Y55717D01*
X41396Y55600D01*
Y55483D01*
X41338Y55425D01*
X41221D01*
X41163Y55483D01*
Y55542D01*
X41221Y55600D01*
X41396D01*
X41804Y53917D02*
X41862Y53975D01*
X41979D01*
X42037Y53917D01*
Y53683D01*
X41979Y53625D01*
X41862D01*
X41804Y53683D01*
X41687Y53625D02*
X41571D01*
X41629D01*
Y53975D01*
X41687Y53917D01*
X41163Y53975D02*
X41396D01*
Y53800D01*
X41279Y53858D01*
X41221D01*
X41163Y53800D01*
Y53683D01*
X41221Y53625D01*
X41338D01*
X41396Y53683D01*
X39304Y60017D02*
X39362Y60075D01*
X39479D01*
X39537Y60017D01*
Y59783D01*
X39479Y59725D01*
X39362D01*
X39304Y59783D01*
X39187Y59725D02*
X39071D01*
X39129D01*
Y60075D01*
X39187Y60017D01*
X38721Y59725D02*
Y60075D01*
X38896Y59900D01*
X38663D01*
X41004Y60017D02*
X41062Y60075D01*
X41179D01*
X41237Y60017D01*
Y59783D01*
X41179Y59725D01*
X41062D01*
X41004Y59783D01*
X40887Y59725D02*
X40771D01*
X40829D01*
Y60075D01*
X40887Y60017D01*
X40596D02*
X40538Y60075D01*
X40421D01*
X40363Y60017D01*
Y59958D01*
X40421Y59900D01*
X40479D01*
X40421D01*
X40363Y59842D01*
Y59783D01*
X40421Y59725D01*
X40538D01*
X40596Y59783D01*
X36858Y59617D02*
X36917Y59675D01*
X37033D01*
X37092Y59617D01*
Y59383D01*
X37033Y59325D01*
X36917D01*
X36858Y59383D01*
X36742Y59617D02*
X36683Y59675D01*
X36567D01*
X36508Y59617D01*
Y59558D01*
X36567Y59500D01*
X36508Y59442D01*
Y59383D01*
X36567Y59325D01*
X36683D01*
X36742Y59383D01*
Y59442D01*
X36683Y59500D01*
X36742Y59558D01*
Y59617D01*
X36683Y59500D02*
X36567D01*
X30758Y56717D02*
X30817Y56775D01*
X30933D01*
X30992Y56717D01*
Y56483D01*
X30933Y56425D01*
X30817D01*
X30758Y56483D01*
X30642Y56775D02*
X30408D01*
Y56717D01*
X30642Y56483D01*
Y56425D01*
X32758Y56917D02*
X32817Y56975D01*
X32933D01*
X32992Y56917D01*
Y56683D01*
X32933Y56625D01*
X32817D01*
X32758Y56683D01*
X32408Y56975D02*
X32525Y56917D01*
X32642Y56800D01*
Y56683D01*
X32583Y56625D01*
X32467D01*
X32408Y56683D01*
Y56742D01*
X32467Y56800D01*
X32642D01*
X34758Y58317D02*
X34817Y58375D01*
X34933D01*
X34992Y58317D01*
Y58083D01*
X34933Y58025D01*
X34817D01*
X34758Y58083D01*
X34408Y58375D02*
X34642D01*
Y58200D01*
X34525Y58258D01*
X34467D01*
X34408Y58200D01*
Y58083D01*
X34467Y58025D01*
X34583D01*
X34642Y58083D01*
X29600Y52619D02*
X29658Y52677D01*
X29775D01*
X29833Y52619D01*
Y52386D01*
X29775Y52327D01*
X29658D01*
X29600Y52386D01*
X29483Y52327D02*
X29367D01*
X29425D01*
Y52677D01*
X29483Y52619D01*
M02*
