G04*
G04 #@! TF.GenerationSoftware,Altium Limited,Altium Designer,20.2.6 (244)*
G04*
G04 Layer_Physical_Order=2*
G04 Layer_Color=36540*
%FSLAX43Y43*%
%MOMM*%
G71*
G04*
G04 #@! TF.SameCoordinates,AB413B8A-FF02-4A9D-ADD2-1BA9649D16F0*
G04*
G04*
G04 #@! TF.FilePolarity,Positive*
G04*
G01*
G75*
%ADD10C,0.254*%
%ADD26C,0.500*%
%ADD79C,0.108*%
%ADD84C,2.300*%
%ADD86C,3.200*%
%ADD88C,0.700*%
%ADD89C,1.270*%
%ADD90C,0.300*%
G36*
X74767Y11300D02*
X65100D01*
X56600Y19800D01*
Y29800D01*
X54400Y32000D01*
X21500D01*
X17100Y36400D01*
X233D01*
Y74767D01*
X74767D01*
Y11300D01*
D02*
G37*
G36*
X20600Y28500D02*
Y28400D01*
X53600D01*
X55300Y26700D01*
X55300D01*
Y18800D01*
X65200Y8900D01*
Y8900D01*
X74767D01*
Y233D01*
X233D01*
Y33300D01*
X15800D01*
X20600Y28500D01*
D02*
G37*
%LPC*%
G36*
X20656Y72159D02*
X18344D01*
Y69848D01*
X20656D01*
Y72159D01*
D02*
G37*
G36*
X29406Y72169D02*
X29104Y72130D01*
X28823Y72013D01*
X28582Y71828D01*
X28396Y71586D01*
X28280Y71305D01*
X28240Y71004D01*
X28280Y70702D01*
X28396Y70421D01*
X28582Y70179D01*
X28823Y69994D01*
X29104Y69878D01*
X29406Y69838D01*
X29708Y69878D01*
X29989Y69994D01*
X30230Y70179D01*
X30416Y70421D01*
X30532Y70702D01*
X30572Y71004D01*
X30532Y71305D01*
X30416Y71586D01*
X30230Y71828D01*
X29989Y72013D01*
X29708Y72130D01*
X29406Y72169D01*
D02*
G37*
G36*
X37300Y73011D02*
X36813Y72973D01*
X36339Y72859D01*
X35888Y72672D01*
X35471Y72417D01*
X35100Y72100D01*
X34783Y71729D01*
X34528Y71312D01*
X34341Y70861D01*
X34227Y70387D01*
X34189Y69900D01*
X34227Y69413D01*
X34341Y68939D01*
X34528Y68488D01*
X34783Y68071D01*
X35100Y67700D01*
X35471Y67383D01*
X35888Y67128D01*
X36339Y66941D01*
X36813Y66827D01*
X37300Y66789D01*
X37787Y66827D01*
X38261Y66941D01*
X38712Y67128D01*
X39129Y67383D01*
X39500Y67700D01*
X39817Y68071D01*
X40072Y68488D01*
X40259Y68939D01*
X40373Y69413D01*
X40411Y69900D01*
X40373Y70387D01*
X40259Y70861D01*
X40072Y71312D01*
X39817Y71729D01*
X39500Y72100D01*
X39129Y72417D01*
X38712Y72672D01*
X38261Y72859D01*
X37787Y72973D01*
X37300Y73011D01*
D02*
G37*
G36*
X29406Y68766D02*
X29104Y68726D01*
X28823Y68609D01*
X28582Y68424D01*
X28396Y68183D01*
X28280Y67902D01*
X28240Y67600D01*
X28280Y67298D01*
X28396Y67017D01*
X28582Y66776D01*
X28823Y66590D01*
X29104Y66474D01*
X29406Y66434D01*
X29708Y66474D01*
X29989Y66590D01*
X30230Y66776D01*
X30416Y67017D01*
X30532Y67298D01*
X30572Y67600D01*
X30532Y67902D01*
X30416Y68183D01*
X30230Y68424D01*
X29989Y68609D01*
X29708Y68726D01*
X29406Y68766D01*
D02*
G37*
G36*
X19500D02*
X19198Y68726D01*
X18917Y68609D01*
X18676Y68424D01*
X18490Y68183D01*
X18374Y67902D01*
X18334Y67600D01*
X18374Y67298D01*
X18490Y67017D01*
X18676Y66776D01*
X18917Y66590D01*
X19198Y66474D01*
X19500Y66434D01*
X19802Y66474D01*
X20083Y66590D01*
X20324Y66776D01*
X20510Y67017D01*
X20626Y67298D01*
X20666Y67600D01*
X20626Y67902D01*
X20510Y68183D01*
X20324Y68424D01*
X20083Y68609D01*
X19802Y68726D01*
X19500Y68766D01*
D02*
G37*
G36*
X6900Y68858D02*
X6577Y68826D01*
X6266Y68732D01*
X5979Y68579D01*
X5728Y68372D01*
X5521Y68121D01*
X5368Y67834D01*
X5274Y67523D01*
X5242Y67200D01*
X5274Y66877D01*
X5368Y66566D01*
X5521Y66279D01*
X5728Y66028D01*
X5979Y65821D01*
X6266Y65668D01*
X6577Y65574D01*
X6900Y65542D01*
X7223Y65574D01*
X7534Y65668D01*
X7821Y65821D01*
X8072Y66028D01*
X8279Y66279D01*
X8432Y66566D01*
X8526Y66877D01*
X8558Y67200D01*
X8526Y67523D01*
X8432Y67834D01*
X8279Y68121D01*
X8072Y68372D01*
X7821Y68579D01*
X7534Y68732D01*
X7223Y68826D01*
X6900Y68858D01*
D02*
G37*
G36*
X57500Y66969D02*
X57301Y66942D01*
X57116Y66866D01*
X56957Y66743D01*
X56834Y66584D01*
X56758Y66399D01*
X56731Y66200D01*
X56758Y66001D01*
X56834Y65816D01*
X56957Y65657D01*
X57116Y65534D01*
X57301Y65458D01*
X57500Y65431D01*
X57699Y65458D01*
X57884Y65534D01*
X58043Y65657D01*
X58166Y65816D01*
X58242Y66001D01*
X58269Y66200D01*
X58242Y66399D01*
X58166Y66584D01*
X58043Y66743D01*
X57884Y66866D01*
X57699Y66942D01*
X57500Y66969D01*
D02*
G37*
G36*
X54800D02*
X54601Y66942D01*
X54416Y66866D01*
X54257Y66743D01*
X54134Y66584D01*
X54058Y66399D01*
X54031Y66200D01*
X54058Y66001D01*
X54134Y65816D01*
X54257Y65657D01*
X54416Y65534D01*
X54601Y65458D01*
X54800Y65431D01*
X54999Y65458D01*
X55184Y65534D01*
X55343Y65657D01*
X55466Y65816D01*
X55542Y66001D01*
X55569Y66200D01*
X55542Y66399D01*
X55466Y66584D01*
X55343Y66743D01*
X55184Y66866D01*
X54999Y66942D01*
X54800Y66969D01*
D02*
G37*
G36*
X51900D02*
X51701Y66942D01*
X51516Y66866D01*
X51357Y66743D01*
X51234Y66584D01*
X51158Y66399D01*
X51131Y66200D01*
X51158Y66001D01*
X51234Y65816D01*
X51357Y65657D01*
X51516Y65534D01*
X51701Y65458D01*
X51900Y65431D01*
X52099Y65458D01*
X52284Y65534D01*
X52443Y65657D01*
X52566Y65816D01*
X52642Y66001D01*
X52669Y66200D01*
X52642Y66399D01*
X52566Y66584D01*
X52443Y66743D01*
X52284Y66866D01*
X52099Y66942D01*
X51900Y66969D01*
D02*
G37*
G36*
X49100D02*
X48901Y66942D01*
X48716Y66866D01*
X48557Y66743D01*
X48434Y66584D01*
X48358Y66399D01*
X48331Y66200D01*
X48358Y66001D01*
X48434Y65816D01*
X48557Y65657D01*
X48716Y65534D01*
X48901Y65458D01*
X49100Y65431D01*
X49299Y65458D01*
X49484Y65534D01*
X49643Y65657D01*
X49766Y65816D01*
X49842Y66001D01*
X49869Y66200D01*
X49842Y66399D01*
X49766Y66584D01*
X49643Y66743D01*
X49484Y66866D01*
X49299Y66942D01*
X49100Y66969D01*
D02*
G37*
G36*
X46100Y66769D02*
X45901Y66742D01*
X45716Y66666D01*
X45557Y66543D01*
X45434Y66384D01*
X45358Y66199D01*
X45331Y66000D01*
X45358Y65801D01*
X45434Y65616D01*
X45557Y65457D01*
X45716Y65334D01*
X45901Y65258D01*
X46100Y65231D01*
X46299Y65258D01*
X46484Y65334D01*
X46643Y65457D01*
X46766Y65616D01*
X46842Y65801D01*
X46869Y66000D01*
X46842Y66199D01*
X46766Y66384D01*
X46643Y66543D01*
X46484Y66666D01*
X46299Y66742D01*
X46100Y66769D01*
D02*
G37*
G36*
X44000Y66769D02*
X43801Y66742D01*
X43616Y66666D01*
X43457Y66543D01*
X43334Y66384D01*
X43258Y66199D01*
X43231Y66000D01*
X43258Y65801D01*
X43334Y65616D01*
X43457Y65457D01*
X43616Y65334D01*
X43801Y65258D01*
X44000Y65231D01*
X44199Y65258D01*
X44384Y65334D01*
X44543Y65457D01*
X44666Y65616D01*
X44742Y65801D01*
X44769Y66000D01*
X44742Y66199D01*
X44666Y66384D01*
X44543Y66543D01*
X44384Y66666D01*
X44199Y66742D01*
X44000Y66769D01*
D02*
G37*
G36*
Y64769D02*
X43801Y64742D01*
X43616Y64666D01*
X43457Y64543D01*
X43334Y64384D01*
X43258Y64199D01*
X43231Y64000D01*
X43258Y63801D01*
X43334Y63616D01*
X43457Y63457D01*
X43616Y63334D01*
X43801Y63258D01*
X44000Y63231D01*
X44199Y63258D01*
X44384Y63334D01*
X44543Y63457D01*
X44666Y63616D01*
X44742Y63801D01*
X44769Y64000D01*
X44742Y64199D01*
X44666Y64384D01*
X44543Y64543D01*
X44384Y64666D01*
X44199Y64742D01*
X44000Y64769D01*
D02*
G37*
G36*
X55300Y64469D02*
X55101Y64442D01*
X54916Y64366D01*
X54757Y64243D01*
X54634Y64084D01*
X54558Y63899D01*
X54531Y63700D01*
X54558Y63501D01*
X54634Y63316D01*
X54757Y63157D01*
X54916Y63034D01*
X55101Y62958D01*
X55300Y62931D01*
X55499Y62958D01*
X55684Y63034D01*
X55843Y63157D01*
X55966Y63316D01*
X56042Y63501D01*
X56069Y63700D01*
X56042Y63899D01*
X55966Y64084D01*
X55843Y64243D01*
X55684Y64366D01*
X55499Y64442D01*
X55300Y64469D01*
D02*
G37*
G36*
X52800D02*
X52601Y64442D01*
X52416Y64366D01*
X52257Y64243D01*
X52134Y64084D01*
X52058Y63899D01*
X52031Y63700D01*
X52058Y63501D01*
X52134Y63316D01*
X52257Y63157D01*
X52416Y63034D01*
X52601Y62958D01*
X52800Y62931D01*
X52999Y62958D01*
X53184Y63034D01*
X53343Y63157D01*
X53466Y63316D01*
X53542Y63501D01*
X53569Y63700D01*
X53542Y63899D01*
X53466Y64084D01*
X53343Y64243D01*
X53184Y64366D01*
X52999Y64442D01*
X52800Y64469D01*
D02*
G37*
G36*
X50600Y64369D02*
X50401Y64342D01*
X50216Y64266D01*
X50057Y64143D01*
X49934Y63984D01*
X49858Y63799D01*
X49831Y63600D01*
X49858Y63401D01*
X49934Y63216D01*
X50057Y63057D01*
X50216Y62934D01*
X50401Y62858D01*
X50600Y62831D01*
X50799Y62858D01*
X50984Y62934D01*
X51143Y63057D01*
X51266Y63216D01*
X51342Y63401D01*
X51369Y63600D01*
X51342Y63799D01*
X51266Y63984D01*
X51143Y64143D01*
X50984Y64266D01*
X50799Y64342D01*
X50600Y64369D01*
D02*
G37*
G36*
X31300Y63084D02*
X31153Y63055D01*
X31028Y62972D01*
X30945Y62847D01*
X30916Y62700D01*
X30945Y62553D01*
X31028Y62428D01*
X31153Y62345D01*
X31300Y62316D01*
X31447Y62345D01*
X31572Y62428D01*
X31655Y62553D01*
X31684Y62700D01*
X31655Y62847D01*
X31572Y62972D01*
X31447Y63055D01*
X31300Y63084D01*
D02*
G37*
G36*
X37573Y63011D02*
X37426Y62982D01*
X37301Y62899D01*
X37218Y62774D01*
X37189Y62627D01*
X37218Y62480D01*
X37301Y62355D01*
X37426Y62272D01*
X37573Y62243D01*
X37720Y62272D01*
X37845Y62355D01*
X37928Y62480D01*
X37957Y62627D01*
X37928Y62774D01*
X37845Y62899D01*
X37720Y62982D01*
X37573Y63011D01*
D02*
G37*
G36*
X57100Y62669D02*
X56901Y62642D01*
X56716Y62566D01*
X56557Y62443D01*
X56434Y62284D01*
X56358Y62099D01*
X56331Y61900D01*
X56358Y61701D01*
X56434Y61516D01*
X56557Y61357D01*
X56716Y61234D01*
X56901Y61158D01*
X57100Y61131D01*
X57299Y61158D01*
X57484Y61234D01*
X57643Y61357D01*
X57766Y61516D01*
X57842Y61701D01*
X57869Y61900D01*
X57842Y62099D01*
X57766Y62284D01*
X57643Y62443D01*
X57484Y62566D01*
X57299Y62642D01*
X57100Y62669D01*
D02*
G37*
G36*
X44000D02*
X43801Y62642D01*
X43616Y62566D01*
X43457Y62443D01*
X43334Y62284D01*
X43258Y62099D01*
X43231Y61900D01*
X43258Y61701D01*
X43334Y61516D01*
X43457Y61357D01*
X43616Y61234D01*
X43801Y61158D01*
X44000Y61131D01*
X44199Y61158D01*
X44384Y61234D01*
X44543Y61357D01*
X44666Y61516D01*
X44742Y61701D01*
X44769Y61900D01*
X44742Y62099D01*
X44666Y62284D01*
X44543Y62443D01*
X44384Y62566D01*
X44199Y62642D01*
X44000Y62669D01*
D02*
G37*
G36*
X31300Y61884D02*
X31153Y61855D01*
X31028Y61772D01*
X30945Y61647D01*
X30916Y61500D01*
X30945Y61353D01*
X31028Y61228D01*
X31153Y61145D01*
X31300Y61116D01*
X31447Y61145D01*
X31572Y61228D01*
X31655Y61353D01*
X31684Y61500D01*
X31655Y61647D01*
X31572Y61772D01*
X31447Y61855D01*
X31300Y61884D01*
D02*
G37*
G36*
X37700Y61784D02*
X37553Y61755D01*
X37428Y61672D01*
X37345Y61547D01*
X37316Y61400D01*
X37345Y61253D01*
X37428Y61128D01*
X37553Y61045D01*
X37700Y61016D01*
X37847Y61045D01*
X37972Y61128D01*
X38055Y61253D01*
X38084Y61400D01*
X38055Y61547D01*
X37972Y61672D01*
X37847Y61755D01*
X37700Y61784D01*
D02*
G37*
G36*
X46400Y62369D02*
X46201Y62342D01*
X46016Y62266D01*
X45857Y62143D01*
X45734Y61984D01*
X45658Y61799D01*
X45631Y61600D01*
X45658Y61401D01*
X45734Y61216D01*
X45857Y61057D01*
X46016Y60934D01*
X46201Y60858D01*
X46400Y60831D01*
X46599Y60858D01*
X46784Y60934D01*
X46943Y61057D01*
X47066Y61216D01*
X47142Y61401D01*
X47169Y61600D01*
X47142Y61799D01*
X47066Y61984D01*
X46943Y62143D01*
X46784Y62266D01*
X46599Y62342D01*
X46400Y62369D01*
D02*
G37*
G36*
X66500Y63883D02*
X66191Y63852D01*
X65894Y63762D01*
X65621Y63616D01*
X65381Y63419D01*
X65184Y63179D01*
X65038Y62906D01*
X64948Y62609D01*
X64917Y62300D01*
X64948Y61991D01*
X65038Y61694D01*
X65184Y61421D01*
X65381Y61181D01*
X65621Y60984D01*
X65894Y60838D01*
X66191Y60748D01*
X66500Y60717D01*
X66809Y60748D01*
X67106Y60838D01*
X67379Y60984D01*
X67619Y61181D01*
X67816Y61421D01*
X67962Y61694D01*
X68052Y61991D01*
X68083Y62300D01*
X68052Y62609D01*
X67962Y62906D01*
X67816Y63179D01*
X67619Y63419D01*
X67379Y63616D01*
X67106Y63762D01*
X66809Y63852D01*
X66500Y63883D01*
D02*
G37*
G36*
X31300Y60684D02*
X31153Y60655D01*
X31028Y60572D01*
X30945Y60447D01*
X30916Y60300D01*
X30945Y60153D01*
X31028Y60028D01*
X31153Y59945D01*
X31300Y59916D01*
X31447Y59945D01*
X31572Y60028D01*
X31655Y60153D01*
X31684Y60300D01*
X31655Y60447D01*
X31572Y60572D01*
X31447Y60655D01*
X31300Y60684D01*
D02*
G37*
G36*
X37700Y60584D02*
X37553Y60555D01*
X37428Y60472D01*
X37345Y60347D01*
X37316Y60200D01*
X37345Y60053D01*
X37428Y59928D01*
X37553Y59845D01*
X37700Y59816D01*
X37847Y59845D01*
X37972Y59928D01*
X38055Y60053D01*
X38084Y60200D01*
X38055Y60347D01*
X37972Y60472D01*
X37847Y60555D01*
X37700Y60584D01*
D02*
G37*
G36*
X6052Y61152D02*
X3548D01*
Y58648D01*
X6052D01*
Y61152D01*
D02*
G37*
G36*
X9000Y61162D02*
X8673Y61119D01*
X8369Y60993D01*
X8107Y60793D01*
X7907Y60531D01*
X7781Y60227D01*
X7738Y59900D01*
X7781Y59573D01*
X7907Y59269D01*
X8107Y59007D01*
X8369Y58807D01*
X8673Y58681D01*
X9000Y58638D01*
X9327Y58681D01*
X9631Y58807D01*
X9893Y59007D01*
X10093Y59269D01*
X10219Y59573D01*
X10262Y59900D01*
X10219Y60227D01*
X10093Y60531D01*
X9893Y60793D01*
X9631Y60993D01*
X9327Y61119D01*
X9000Y61162D01*
D02*
G37*
G36*
X31300Y59384D02*
X31153Y59355D01*
X31028Y59272D01*
X30945Y59147D01*
X30916Y59000D01*
X30945Y58853D01*
X31028Y58728D01*
X31153Y58645D01*
X31300Y58616D01*
X31447Y58645D01*
X31572Y58728D01*
X31655Y58853D01*
X31684Y59000D01*
X31655Y59147D01*
X31572Y59272D01*
X31447Y59355D01*
X31300Y59384D01*
D02*
G37*
G36*
X37403Y59310D02*
X37256Y59280D01*
X37132Y59197D01*
X37048Y59072D01*
X37019Y58925D01*
X37048Y58778D01*
X37132Y58653D01*
X37256Y58570D01*
X37403Y58541D01*
X37550Y58570D01*
X37675Y58653D01*
X37758Y58778D01*
X37788Y58925D01*
X37758Y59072D01*
X37675Y59197D01*
X37550Y59280D01*
X37403Y59310D01*
D02*
G37*
G36*
X32900Y59184D02*
X32753Y59155D01*
X32628Y59072D01*
X32545Y58947D01*
X32516Y58800D01*
X32545Y58653D01*
X32628Y58528D01*
X32753Y58445D01*
X32900Y58416D01*
X33047Y58445D01*
X33172Y58528D01*
X33255Y58653D01*
X33284Y58800D01*
X33255Y58947D01*
X33172Y59072D01*
X33047Y59155D01*
X32900Y59184D01*
D02*
G37*
G36*
X27400Y58369D02*
X27201Y58342D01*
X27016Y58266D01*
X26857Y58143D01*
X26734Y57984D01*
X26658Y57799D01*
X26631Y57600D01*
X26658Y57401D01*
X26734Y57216D01*
X26857Y57057D01*
X27016Y56934D01*
X27201Y56858D01*
X27400Y56831D01*
X27599Y56858D01*
X27784Y56934D01*
X27943Y57057D01*
X28066Y57216D01*
X28142Y57401D01*
X28169Y57600D01*
X28142Y57799D01*
X28066Y57984D01*
X27943Y58143D01*
X27784Y58266D01*
X27599Y58342D01*
X27400Y58369D01*
D02*
G37*
G36*
X25200D02*
X25001Y58342D01*
X24816Y58266D01*
X24657Y58143D01*
X24534Y57984D01*
X24458Y57799D01*
X24431Y57600D01*
X24458Y57401D01*
X24534Y57216D01*
X24657Y57057D01*
X24816Y56934D01*
X25001Y56858D01*
X25200Y56831D01*
X25399Y56858D01*
X25584Y56934D01*
X25743Y57057D01*
X25866Y57216D01*
X25942Y57401D01*
X25969Y57600D01*
X25942Y57799D01*
X25866Y57984D01*
X25743Y58143D01*
X25584Y58266D01*
X25399Y58342D01*
X25200Y58369D01*
D02*
G37*
G36*
X33600Y57484D02*
X33453Y57455D01*
X33328Y57372D01*
X33245Y57247D01*
X33216Y57100D01*
X33245Y56953D01*
X33328Y56828D01*
X33453Y56745D01*
X33600Y56716D01*
X33747Y56745D01*
X33872Y56828D01*
X33955Y56953D01*
X33984Y57100D01*
X33955Y57247D01*
X33872Y57372D01*
X33747Y57455D01*
X33600Y57484D01*
D02*
G37*
G36*
X47000Y56984D02*
X46853Y56955D01*
X46728Y56872D01*
X46645Y56747D01*
X46616Y56600D01*
X46645Y56453D01*
X46728Y56328D01*
X46853Y56245D01*
X47000Y56216D01*
X47147Y56245D01*
X47272Y56328D01*
X47355Y56453D01*
X47384Y56600D01*
X47355Y56747D01*
X47272Y56872D01*
X47147Y56955D01*
X47000Y56984D01*
D02*
G37*
G36*
X37900Y57484D02*
X37753Y57455D01*
X37628Y57372D01*
X37545Y57247D01*
X37516Y57100D01*
X37545Y56953D01*
X37628Y56828D01*
X37714Y56771D01*
X37718Y56759D01*
Y56641D01*
X37714Y56629D01*
X37628Y56572D01*
X37545Y56447D01*
X37516Y56300D01*
X37545Y56153D01*
X37628Y56028D01*
X37753Y55945D01*
X37900Y55916D01*
X38047Y55945D01*
X38172Y56028D01*
X38255Y56153D01*
X38284Y56300D01*
X38255Y56447D01*
X38172Y56572D01*
X38086Y56629D01*
X38082Y56641D01*
Y56759D01*
X38086Y56771D01*
X38172Y56828D01*
X38255Y56953D01*
X38284Y57100D01*
X38255Y57247D01*
X38172Y57372D01*
X38047Y57455D01*
X37900Y57484D01*
D02*
G37*
G36*
X36600Y55483D02*
X36492Y55461D01*
X36400Y55400D01*
X36308Y55461D01*
X36200Y55482D01*
X36092Y55461D01*
X36000Y55400D01*
X35939Y55308D01*
X35918Y55200D01*
X35939Y55092D01*
X36000Y55000D01*
Y55000D01*
X35939Y54908D01*
X35918Y54800D01*
X35939Y54692D01*
X36000Y54600D01*
X35939Y54508D01*
X35918Y54400D01*
X35939Y54292D01*
X36000Y54200D01*
X35939Y54108D01*
X35918Y54000D01*
X35939Y53892D01*
X36000Y53800D01*
Y53800D01*
X35939Y53708D01*
X35918Y53600D01*
X35802Y53553D01*
X35798D01*
X35682Y53600D01*
X35661Y53708D01*
X35600Y53800D01*
Y53800D01*
X35661Y53892D01*
X35682Y54000D01*
X35661Y54108D01*
X35600Y54200D01*
X35661Y54292D01*
X35682Y54400D01*
X35661Y54508D01*
X35600Y54600D01*
X35661Y54692D01*
X35682Y54800D01*
X35661Y54908D01*
X35600Y55000D01*
Y55000D01*
X35661Y55092D01*
X35682Y55200D01*
X35661Y55308D01*
X35600Y55400D01*
X35508Y55461D01*
X35400Y55482D01*
X35292Y55461D01*
X35200Y55400D01*
X35139Y55308D01*
X35118Y55200D01*
X35139Y55092D01*
X35200Y55000D01*
Y55000D01*
X35139Y54908D01*
X35118Y54800D01*
X35139Y54692D01*
X35200Y54600D01*
X35139Y54508D01*
X35118Y54400D01*
X35139Y54292D01*
X35200Y54200D01*
X35139Y54108D01*
X35118Y54000D01*
X35139Y53892D01*
X35200Y53800D01*
Y53800D01*
X35139Y53708D01*
X35118Y53600D01*
X35139Y53492D01*
X35200Y53400D01*
X35292Y53339D01*
X35400Y53318D01*
X35412Y53320D01*
X35520Y53212D01*
X35518Y53200D01*
X35520Y53188D01*
X35412Y53080D01*
X35400Y53082D01*
X35292Y53061D01*
X35200Y53000D01*
X35139Y52908D01*
X35118Y52800D01*
X35139Y52692D01*
X35200Y52600D01*
X35292Y52539D01*
X35400Y52518D01*
X35508Y52539D01*
X35600Y52600D01*
X35692Y52539D01*
X35800Y52518D01*
X35908Y52539D01*
X36000Y52600D01*
X36000D01*
X36092Y52539D01*
X36200Y52518D01*
X36212Y52520D01*
X36320Y52412D01*
X36318Y52400D01*
X36339Y52292D01*
X36400Y52200D01*
X36492Y52139D01*
X36600Y52118D01*
X36708Y52139D01*
X36800Y52200D01*
X36861Y52292D01*
X36882Y52400D01*
X36861Y52508D01*
X36800Y52600D01*
Y52600D01*
X36861Y52692D01*
X36882Y52800D01*
X36861Y52908D01*
X36800Y53000D01*
X36861Y53092D01*
X36882Y53200D01*
X36861Y53308D01*
X36800Y53400D01*
X36708Y53461D01*
X36600Y53482D01*
X36588Y53480D01*
X36480Y53588D01*
X36482Y53600D01*
X36480Y53612D01*
X36588Y53720D01*
X36600Y53718D01*
X36708Y53739D01*
X36800Y53800D01*
X36861Y53892D01*
X36882Y54000D01*
X36861Y54108D01*
X36800Y54200D01*
X36861Y54292D01*
X36882Y54400D01*
X36861Y54508D01*
X36800Y54600D01*
X36861Y54692D01*
X36882Y54800D01*
X36861Y54908D01*
X36800Y55000D01*
X36861Y55092D01*
X36883Y55200D01*
X36861Y55308D01*
X36800Y55400D01*
X36708Y55461D01*
X36600Y55483D01*
D02*
G37*
G36*
X29500Y56469D02*
X29301Y56442D01*
X29116Y56366D01*
X28957Y56243D01*
X28834Y56084D01*
X28758Y55899D01*
X28731Y55700D01*
X28758Y55501D01*
X28834Y55316D01*
X28957Y55157D01*
X29116Y55034D01*
X29301Y54958D01*
X29500Y54931D01*
X29699Y54958D01*
X29884Y55034D01*
X30043Y55157D01*
X30166Y55316D01*
X30242Y55501D01*
X30269Y55700D01*
X30242Y55899D01*
X30166Y56084D01*
X30043Y56243D01*
X29884Y56366D01*
X29699Y56442D01*
X29500Y56469D01*
D02*
G37*
G36*
X27500D02*
X27301Y56442D01*
X27116Y56366D01*
X26957Y56243D01*
X26834Y56084D01*
X26758Y55899D01*
X26731Y55700D01*
X26758Y55501D01*
X26834Y55316D01*
X26957Y55157D01*
X27116Y55034D01*
X27301Y54958D01*
X27500Y54931D01*
X27699Y54958D01*
X27884Y55034D01*
X28043Y55157D01*
X28166Y55316D01*
X28242Y55501D01*
X28269Y55700D01*
X28242Y55899D01*
X28166Y56084D01*
X28043Y56243D01*
X27884Y56366D01*
X27699Y56442D01*
X27500Y56469D01*
D02*
G37*
G36*
X9500Y55713D02*
Y54900D01*
X10313D01*
X10226Y55108D01*
X10001Y55401D01*
X9708Y55626D01*
X9500Y55713D01*
D02*
G37*
G36*
X5300D02*
Y54900D01*
X6113D01*
X6026Y55108D01*
X5801Y55401D01*
X5508Y55626D01*
X5300Y55713D01*
D02*
G37*
G36*
X8500D02*
X8292Y55626D01*
X7999Y55401D01*
X7774Y55108D01*
X7687Y54900D01*
X8500D01*
Y55713D01*
D02*
G37*
G36*
X4300D02*
X4092Y55626D01*
X3799Y55401D01*
X3574Y55108D01*
X3487Y54900D01*
X4300D01*
Y55713D01*
D02*
G37*
G36*
X25500Y56369D02*
X25301Y56342D01*
X25116Y56266D01*
X24957Y56143D01*
X24834Y55984D01*
X24758Y55799D01*
X24731Y55600D01*
X24758Y55401D01*
X24834Y55216D01*
X24957Y55057D01*
X25116Y54934D01*
X25301Y54858D01*
X25500Y54831D01*
X25699Y54858D01*
X25884Y54934D01*
X26043Y55057D01*
X26166Y55216D01*
X26242Y55401D01*
X26269Y55600D01*
X26242Y55799D01*
X26166Y55984D01*
X26043Y56143D01*
X25884Y56266D01*
X25699Y56342D01*
X25500Y56369D01*
D02*
G37*
G36*
X55600Y55869D02*
X55401Y55842D01*
X55216Y55766D01*
X55057Y55643D01*
X54934Y55484D01*
X54858Y55299D01*
X54831Y55100D01*
X54858Y54901D01*
X54934Y54716D01*
X55057Y54557D01*
X55216Y54434D01*
X55401Y54358D01*
X55600Y54331D01*
X55799Y54358D01*
X55984Y54434D01*
X56143Y54557D01*
X56266Y54716D01*
X56342Y54901D01*
X56369Y55100D01*
X56342Y55299D01*
X56266Y55484D01*
X56143Y55643D01*
X55984Y55766D01*
X55799Y55842D01*
X55600Y55869D01*
D02*
G37*
G36*
X70000Y57510D02*
X69666Y57477D01*
X69346Y57380D01*
X69050Y57222D01*
X68791Y57009D01*
X68578Y56750D01*
X68420Y56454D01*
X68323Y56134D01*
X68290Y55800D01*
X68323Y55466D01*
X68420Y55146D01*
X68578Y54850D01*
X68791Y54591D01*
X69050Y54378D01*
X69346Y54220D01*
X69666Y54123D01*
X70000Y54090D01*
X70334Y54123D01*
X70654Y54220D01*
X70950Y54378D01*
X71209Y54591D01*
X71422Y54850D01*
X71580Y55146D01*
X71677Y55466D01*
X71710Y55800D01*
X71677Y56134D01*
X71580Y56454D01*
X71422Y56750D01*
X71209Y57009D01*
X70950Y57222D01*
X70654Y57380D01*
X70334Y57477D01*
X70000Y57510D01*
D02*
G37*
G36*
X62000D02*
X61666Y57477D01*
X61346Y57380D01*
X61050Y57222D01*
X60791Y57009D01*
X60578Y56750D01*
X60420Y56454D01*
X60323Y56134D01*
X60290Y55800D01*
X60323Y55466D01*
X60420Y55146D01*
X60578Y54850D01*
X60791Y54591D01*
X61050Y54378D01*
X61346Y54220D01*
X61666Y54123D01*
X62000Y54090D01*
X62334Y54123D01*
X62654Y54220D01*
X62950Y54378D01*
X63209Y54591D01*
X63422Y54850D01*
X63580Y55146D01*
X63677Y55466D01*
X63710Y55800D01*
X63677Y56134D01*
X63580Y56454D01*
X63422Y56750D01*
X63209Y57009D01*
X62950Y57222D01*
X62654Y57380D01*
X62334Y57477D01*
X62000Y57510D01*
D02*
G37*
G36*
X37900Y54784D02*
X37753Y54755D01*
X37628Y54672D01*
X37545Y54547D01*
X37516Y54400D01*
X37545Y54253D01*
X37628Y54128D01*
X37753Y54045D01*
X37900Y54016D01*
X38047Y54045D01*
X38172Y54128D01*
X38255Y54253D01*
X38284Y54400D01*
X38255Y54547D01*
X38172Y54672D01*
X38047Y54755D01*
X37900Y54784D01*
D02*
G37*
G36*
X34600Y55483D02*
X34492Y55461D01*
X34400Y55400D01*
X34339Y55308D01*
X34317Y55200D01*
X34339Y55092D01*
X34400Y55000D01*
X34339Y54908D01*
X34317Y54800D01*
X34339Y54692D01*
X34400Y54600D01*
X34339Y54508D01*
X34317Y54400D01*
X34339Y54292D01*
X34400Y54200D01*
X34339Y54108D01*
X34318Y54000D01*
X34339Y53892D01*
X34400Y53800D01*
X34492Y53739D01*
X34600Y53718D01*
X34708Y53739D01*
X34800Y53800D01*
X34861Y53892D01*
X34882Y54000D01*
X34861Y54108D01*
X34800Y54200D01*
X34861Y54292D01*
X34882Y54400D01*
X34861Y54508D01*
X34800Y54600D01*
X34861Y54692D01*
X34882Y54800D01*
X34861Y54908D01*
X34800Y55000D01*
X34861Y55092D01*
X34882Y55200D01*
X34861Y55308D01*
X34800Y55400D01*
X34708Y55461D01*
X34600Y55483D01*
D02*
G37*
G36*
X10313Y53900D02*
X9500D01*
Y53087D01*
X9708Y53174D01*
X10001Y53399D01*
X10226Y53692D01*
X10313Y53900D01*
D02*
G37*
G36*
X6113D02*
X5300D01*
Y53087D01*
X5508Y53174D01*
X5801Y53399D01*
X6026Y53692D01*
X6113Y53900D01*
D02*
G37*
G36*
X8500D02*
X7687D01*
X7774Y53692D01*
X7999Y53399D01*
X8292Y53174D01*
X8500Y53087D01*
Y53900D01*
D02*
G37*
G36*
X4300D02*
X3487D01*
X3574Y53692D01*
X3799Y53399D01*
X4092Y53174D01*
X4300Y53087D01*
Y53900D01*
D02*
G37*
G36*
X27600Y54469D02*
X27401Y54442D01*
X27216Y54366D01*
X27057Y54243D01*
X26934Y54084D01*
X26858Y53899D01*
X26831Y53700D01*
X26858Y53501D01*
X26934Y53316D01*
X27057Y53157D01*
X27216Y53034D01*
X27401Y52958D01*
X27600Y52931D01*
X27799Y52958D01*
X27984Y53034D01*
X28143Y53157D01*
X28266Y53316D01*
X28342Y53501D01*
X28369Y53700D01*
X28342Y53899D01*
X28266Y54084D01*
X28143Y54243D01*
X27984Y54366D01*
X27799Y54442D01*
X27600Y54469D01*
D02*
G37*
G36*
X25200D02*
X25001Y54442D01*
X24816Y54366D01*
X24657Y54243D01*
X24534Y54084D01*
X24458Y53899D01*
X24431Y53700D01*
X24458Y53501D01*
X24534Y53316D01*
X24657Y53157D01*
X24816Y53034D01*
X25001Y52958D01*
X25200Y52931D01*
X25399Y52958D01*
X25584Y53034D01*
X25743Y53157D01*
X25866Y53316D01*
X25942Y53501D01*
X25969Y53700D01*
X25942Y53899D01*
X25866Y54084D01*
X25743Y54243D01*
X25584Y54366D01*
X25399Y54442D01*
X25200Y54469D01*
D02*
G37*
G36*
X34600Y53482D02*
X34492Y53461D01*
X34400Y53400D01*
X34339Y53308D01*
X34318Y53200D01*
X34339Y53092D01*
X34400Y53000D01*
X34492Y52939D01*
X34600Y52918D01*
X34708Y52939D01*
X34800Y53000D01*
X34861Y53092D01*
X34882Y53200D01*
X34861Y53308D01*
X34800Y53400D01*
X34708Y53461D01*
X34600Y53482D01*
D02*
G37*
G36*
X74200Y53584D02*
X74053Y53555D01*
X73928Y53472D01*
X73845Y53347D01*
X73816Y53200D01*
X73845Y53053D01*
X73928Y52928D01*
X74053Y52845D01*
X74200Y52816D01*
X74347Y52845D01*
X74472Y52928D01*
X74555Y53053D01*
X74584Y53200D01*
X74555Y53347D01*
X74472Y53472D01*
X74347Y53555D01*
X74200Y53584D01*
D02*
G37*
G36*
X72200D02*
X72053Y53555D01*
X71928Y53472D01*
X71845Y53347D01*
X71816Y53200D01*
X71845Y53053D01*
X71928Y52928D01*
X72053Y52845D01*
X72200Y52816D01*
X72347Y52845D01*
X72472Y52928D01*
X72555Y53053D01*
X72584Y53200D01*
X72555Y53347D01*
X72472Y53472D01*
X72347Y53555D01*
X72200Y53584D01*
D02*
G37*
G36*
X55600Y54069D02*
X55401Y54042D01*
X55216Y53966D01*
X55057Y53843D01*
X54934Y53684D01*
X54858Y53499D01*
X54831Y53300D01*
X54858Y53101D01*
X54934Y52916D01*
X55057Y52757D01*
X55216Y52634D01*
X55401Y52558D01*
X55600Y52531D01*
X55799Y52558D01*
X55984Y52634D01*
X56143Y52757D01*
X56266Y52916D01*
X56342Y53101D01*
X56369Y53300D01*
X56342Y53499D01*
X56266Y53684D01*
X56143Y53843D01*
X55984Y53966D01*
X55799Y54042D01*
X55600Y54069D01*
D02*
G37*
G36*
X37900Y53284D02*
X37753Y53255D01*
X37628Y53172D01*
X37545Y53047D01*
X37516Y52900D01*
X37545Y52753D01*
X37628Y52628D01*
X37753Y52545D01*
X37900Y52516D01*
X38047Y52545D01*
X38172Y52628D01*
X38255Y52753D01*
X38284Y52900D01*
X38255Y53047D01*
X38172Y53172D01*
X38047Y53255D01*
X37900Y53284D01*
D02*
G37*
G36*
X53300Y53869D02*
X53101Y53842D01*
X52916Y53766D01*
X52757Y53643D01*
X52634Y53484D01*
X52558Y53299D01*
X52531Y53100D01*
X52558Y52901D01*
X52634Y52716D01*
X52757Y52557D01*
X52916Y52434D01*
X53101Y52358D01*
X53300Y52331D01*
X53499Y52358D01*
X53684Y52434D01*
X53843Y52557D01*
X53966Y52716D01*
X54042Y52901D01*
X54069Y53100D01*
X54042Y53299D01*
X53966Y53484D01*
X53843Y53643D01*
X53684Y53766D01*
X53499Y53842D01*
X53300Y53869D01*
D02*
G37*
G36*
X48100D02*
X47901Y53842D01*
X47716Y53766D01*
X47557Y53643D01*
X47434Y53484D01*
X47358Y53299D01*
X47331Y53100D01*
X47358Y52901D01*
X47434Y52716D01*
X47557Y52557D01*
X47716Y52434D01*
X47901Y52358D01*
X48100Y52331D01*
X48299Y52358D01*
X48484Y52434D01*
X48643Y52557D01*
X48766Y52716D01*
X48842Y52901D01*
X48869Y53100D01*
X48842Y53299D01*
X48766Y53484D01*
X48643Y53643D01*
X48484Y53766D01*
X48299Y53842D01*
X48100Y53869D01*
D02*
G37*
G36*
X42100Y53084D02*
X41953Y53055D01*
X41828Y52972D01*
X41745Y52847D01*
X41716Y52700D01*
X41745Y52553D01*
X41828Y52428D01*
X41953Y52345D01*
X42100Y52316D01*
X42247Y52345D01*
X42372Y52428D01*
X42455Y52553D01*
X42484Y52700D01*
X42455Y52847D01*
X42372Y52972D01*
X42247Y53055D01*
X42100Y53084D01*
D02*
G37*
G36*
X33200Y52884D02*
X33053Y52855D01*
X32928Y52772D01*
X32845Y52647D01*
X32816Y52500D01*
X32845Y52353D01*
X32928Y52228D01*
X33053Y52145D01*
X33200Y52116D01*
X33347Y52145D01*
X33472Y52228D01*
X33555Y52353D01*
X33584Y52500D01*
X33555Y52647D01*
X33472Y52772D01*
X33347Y52855D01*
X33200Y52884D01*
D02*
G37*
G36*
X66000Y55510D02*
X65666Y55477D01*
X65346Y55380D01*
X65050Y55222D01*
X64791Y55009D01*
X64578Y54750D01*
X64420Y54454D01*
X64323Y54134D01*
X64290Y53800D01*
X64323Y53466D01*
X64420Y53146D01*
X64578Y52850D01*
X64791Y52591D01*
X65050Y52378D01*
X65346Y52220D01*
X65666Y52123D01*
X66000Y52090D01*
X66334Y52123D01*
X66654Y52220D01*
X66950Y52378D01*
X67209Y52591D01*
X67422Y52850D01*
X67580Y53146D01*
X67677Y53466D01*
X67710Y53800D01*
X67677Y54134D01*
X67580Y54454D01*
X67422Y54750D01*
X67209Y55009D01*
X66950Y55222D01*
X66654Y55380D01*
X66334Y55477D01*
X66000Y55510D01*
D02*
G37*
G36*
X38100Y52284D02*
X37953Y52255D01*
X37828Y52172D01*
X37745Y52047D01*
X37716Y51900D01*
X37745Y51753D01*
X37828Y51628D01*
X37953Y51545D01*
X38100Y51516D01*
X38247Y51545D01*
X38372Y51628D01*
X38455Y51753D01*
X38484Y51900D01*
X38455Y52047D01*
X38372Y52172D01*
X38247Y52255D01*
X38100Y52284D01*
D02*
G37*
G36*
X74200Y52184D02*
X74053Y52155D01*
X73928Y52072D01*
X73845Y51947D01*
X73816Y51800D01*
X73845Y51653D01*
X73928Y51528D01*
X74053Y51445D01*
X74200Y51416D01*
X74347Y51445D01*
X74472Y51528D01*
X74555Y51653D01*
X74584Y51800D01*
X74555Y51947D01*
X74472Y52072D01*
X74347Y52155D01*
X74200Y52184D01*
D02*
G37*
G36*
X72473Y52096D02*
X72326Y52067D01*
X72201Y51983D01*
X72118Y51858D01*
X72089Y51711D01*
X72118Y51564D01*
X72201Y51440D01*
X72326Y51356D01*
X72473Y51327D01*
X72620Y51356D01*
X72745Y51440D01*
X72828Y51564D01*
X72857Y51711D01*
X72828Y51858D01*
X72745Y51983D01*
X72620Y52067D01*
X72473Y52096D01*
D02*
G37*
G36*
X43500Y52084D02*
X43353Y52055D01*
X43228Y51972D01*
X43145Y51847D01*
X43116Y51700D01*
X43145Y51553D01*
X43228Y51428D01*
X43353Y51345D01*
X43500Y51316D01*
X43647Y51345D01*
X43772Y51428D01*
X43855Y51553D01*
X43884Y51700D01*
X43855Y51847D01*
X43772Y51972D01*
X43647Y52055D01*
X43500Y52084D01*
D02*
G37*
G36*
X34600Y51884D02*
X34453Y51855D01*
X34328Y51772D01*
X34245Y51647D01*
X34216Y51500D01*
X34245Y51353D01*
X34328Y51228D01*
X34453Y51145D01*
X34600Y51116D01*
X34747Y51145D01*
X34872Y51228D01*
X34955Y51353D01*
X34984Y51500D01*
X34955Y51647D01*
X34872Y51772D01*
X34747Y51855D01*
X34600Y51884D01*
D02*
G37*
G36*
X37000Y51884D02*
X36853Y51855D01*
X36728Y51772D01*
X36645Y51647D01*
X36616Y51500D01*
X36645Y51353D01*
X36728Y51228D01*
X36853Y51145D01*
X37000Y51116D01*
X37147Y51145D01*
X37272Y51228D01*
X37355Y51353D01*
X37384Y51500D01*
X37355Y51647D01*
X37272Y51772D01*
X37147Y51855D01*
X37000Y51884D01*
D02*
G37*
G36*
X74200Y50884D02*
X74053Y50855D01*
X73928Y50772D01*
X73845Y50647D01*
X73816Y50500D01*
X73845Y50353D01*
X73928Y50228D01*
X74053Y50145D01*
X74200Y50116D01*
X74347Y50145D01*
X74472Y50228D01*
X74555Y50353D01*
X74584Y50500D01*
X74555Y50647D01*
X74472Y50772D01*
X74347Y50855D01*
X74200Y50884D01*
D02*
G37*
G36*
X72400D02*
X72253Y50855D01*
X72128Y50772D01*
X72045Y50647D01*
X72016Y50500D01*
X72045Y50353D01*
X72128Y50228D01*
X72253Y50145D01*
X72400Y50116D01*
X72547Y50145D01*
X72672Y50228D01*
X72755Y50353D01*
X72784Y50500D01*
X72755Y50647D01*
X72672Y50772D01*
X72547Y50855D01*
X72400Y50884D01*
D02*
G37*
G36*
X34700D02*
X34553Y50855D01*
X34428Y50772D01*
X34345Y50647D01*
X34316Y50500D01*
X34345Y50353D01*
X34428Y50228D01*
X34553Y50145D01*
X34700Y50116D01*
X34847Y50145D01*
X34972Y50228D01*
X35055Y50353D01*
X35084Y50500D01*
X35055Y50647D01*
X34972Y50772D01*
X34847Y50855D01*
X34700Y50884D01*
D02*
G37*
G36*
X70000Y53510D02*
X69666Y53477D01*
X69346Y53380D01*
X69050Y53222D01*
X68791Y53009D01*
X68578Y52750D01*
X68420Y52454D01*
X68323Y52134D01*
X68290Y51800D01*
X68323Y51466D01*
X68420Y51146D01*
X68578Y50850D01*
X68791Y50591D01*
X69050Y50378D01*
X69346Y50220D01*
X69666Y50123D01*
X70000Y50090D01*
X70334Y50123D01*
X70654Y50220D01*
X70950Y50378D01*
X71209Y50591D01*
X71422Y50850D01*
X71580Y51146D01*
X71677Y51466D01*
X71710Y51800D01*
X71677Y52134D01*
X71580Y52454D01*
X71422Y52750D01*
X71209Y53009D01*
X70950Y53222D01*
X70654Y53380D01*
X70334Y53477D01*
X70000Y53510D01*
D02*
G37*
G36*
X62000D02*
X61666Y53477D01*
X61346Y53380D01*
X61050Y53222D01*
X60791Y53009D01*
X60578Y52750D01*
X60420Y52454D01*
X60323Y52134D01*
X60290Y51800D01*
X60323Y51466D01*
X60420Y51146D01*
X60578Y50850D01*
X60791Y50591D01*
X61050Y50378D01*
X61346Y50220D01*
X61666Y50123D01*
X62000Y50090D01*
X62334Y50123D01*
X62654Y50220D01*
X62950Y50378D01*
X63209Y50591D01*
X63422Y50850D01*
X63580Y51146D01*
X63677Y51466D01*
X63710Y51800D01*
X63677Y52134D01*
X63580Y52454D01*
X63422Y52750D01*
X63209Y53009D01*
X62950Y53222D01*
X62654Y53380D01*
X62334Y53477D01*
X62000Y53510D01*
D02*
G37*
G36*
X35800Y50784D02*
X35653Y50755D01*
X35528Y50672D01*
X35445Y50547D01*
X35416Y50400D01*
X35445Y50253D01*
X35528Y50128D01*
X35653Y50045D01*
X35800Y50016D01*
X35947Y50045D01*
X36072Y50128D01*
X36155Y50253D01*
X36184Y50400D01*
X36155Y50547D01*
X36072Y50672D01*
X35947Y50755D01*
X35800Y50784D01*
D02*
G37*
G36*
X41200Y50886D02*
X41014Y50849D01*
X40856Y50744D01*
X40751Y50586D01*
X40714Y50400D01*
X40751Y50214D01*
X40856Y50056D01*
X41014Y49951D01*
X41200Y49914D01*
X41386Y49951D01*
X41544Y50056D01*
X41649Y50214D01*
X41686Y50400D01*
X41649Y50586D01*
X41544Y50744D01*
X41386Y50849D01*
X41200Y50886D01*
D02*
G37*
G36*
X56800Y51269D02*
X56601Y51242D01*
X56416Y51166D01*
X56257Y51043D01*
X56134Y50884D01*
X56058Y50699D01*
X56031Y50500D01*
X56058Y50301D01*
X56134Y50116D01*
X56257Y49957D01*
X56416Y49834D01*
X56601Y49758D01*
X56800Y49731D01*
X56999Y49758D01*
X57184Y49834D01*
X57343Y49957D01*
X57466Y50116D01*
X57542Y50301D01*
X57569Y50500D01*
X57542Y50699D01*
X57466Y50884D01*
X57343Y51043D01*
X57184Y51166D01*
X56999Y51242D01*
X56800Y51269D01*
D02*
G37*
G36*
X30900Y50084D02*
X30753Y50055D01*
X30628Y49972D01*
X30545Y49847D01*
X30516Y49700D01*
X30545Y49553D01*
X30628Y49428D01*
X30753Y49345D01*
X30900Y49316D01*
X31047Y49345D01*
X31172Y49428D01*
X31255Y49553D01*
X31284Y49700D01*
X31255Y49847D01*
X31172Y49972D01*
X31047Y50055D01*
X30900Y50084D01*
D02*
G37*
G36*
X53900Y50469D02*
X53701Y50442D01*
X53516Y50366D01*
X53357Y50243D01*
X53234Y50084D01*
X53158Y49899D01*
X53131Y49700D01*
X53158Y49501D01*
X53234Y49316D01*
X53357Y49157D01*
X53516Y49034D01*
X53701Y48958D01*
X53900Y48931D01*
X54099Y48958D01*
X54284Y49034D01*
X54443Y49157D01*
X54566Y49316D01*
X54642Y49501D01*
X54669Y49700D01*
X54642Y49899D01*
X54566Y50084D01*
X54443Y50243D01*
X54284Y50366D01*
X54099Y50442D01*
X53900Y50469D01*
D02*
G37*
G36*
X48100D02*
X47901Y50442D01*
X47716Y50366D01*
X47557Y50243D01*
X47434Y50084D01*
X47358Y49899D01*
X47331Y49700D01*
X47358Y49501D01*
X47434Y49316D01*
X47557Y49157D01*
X47716Y49034D01*
X47901Y48958D01*
X48100Y48931D01*
X48299Y48958D01*
X48484Y49034D01*
X48643Y49157D01*
X48766Y49316D01*
X48842Y49501D01*
X48869Y49700D01*
X48842Y49899D01*
X48766Y50084D01*
X48643Y50243D01*
X48484Y50366D01*
X48299Y50442D01*
X48100Y50469D01*
D02*
G37*
G36*
X74200Y49584D02*
X74053Y49555D01*
X73928Y49472D01*
X73845Y49347D01*
X73816Y49200D01*
X73845Y49053D01*
X73928Y48928D01*
X74053Y48845D01*
X74200Y48816D01*
X74347Y48845D01*
X74472Y48928D01*
X74555Y49053D01*
X74584Y49200D01*
X74555Y49347D01*
X74472Y49472D01*
X74347Y49555D01*
X74200Y49584D01*
D02*
G37*
G36*
X72400D02*
X72253Y49555D01*
X72128Y49472D01*
X72045Y49347D01*
X72016Y49200D01*
X72045Y49053D01*
X72128Y48928D01*
X72253Y48845D01*
X72400Y48816D01*
X72547Y48845D01*
X72672Y48928D01*
X72755Y49053D01*
X72784Y49200D01*
X72755Y49347D01*
X72672Y49472D01*
X72547Y49555D01*
X72400Y49584D01*
D02*
G37*
G36*
X35800D02*
X35653Y49555D01*
X35528Y49472D01*
X35445Y49347D01*
X35416Y49200D01*
X35445Y49053D01*
X35528Y48928D01*
X35653Y48845D01*
X35800Y48816D01*
X35947Y48845D01*
X36072Y48928D01*
X36155Y49053D01*
X36184Y49200D01*
X36155Y49347D01*
X36072Y49472D01*
X35947Y49555D01*
X35800Y49584D01*
D02*
G37*
G36*
X39600Y49786D02*
X39414Y49749D01*
X39256Y49644D01*
X39151Y49486D01*
X39114Y49300D01*
X39151Y49114D01*
X39256Y48956D01*
X39414Y48851D01*
X39600Y48814D01*
X39786Y48851D01*
X39944Y48956D01*
X40049Y49114D01*
X40086Y49300D01*
X40049Y49486D01*
X39944Y49644D01*
X39786Y49749D01*
X39600Y49786D01*
D02*
G37*
G36*
X45300Y49484D02*
X45153Y49455D01*
X45028Y49372D01*
X44945Y49247D01*
X44916Y49100D01*
X44945Y48953D01*
X45028Y48828D01*
X45153Y48745D01*
X45300Y48716D01*
X45447Y48745D01*
X45572Y48828D01*
X45655Y48953D01*
X45684Y49100D01*
X45655Y49247D01*
X45572Y49372D01*
X45447Y49455D01*
X45300Y49484D01*
D02*
G37*
G36*
X66000Y51510D02*
X65666Y51477D01*
X65346Y51380D01*
X65050Y51222D01*
X64791Y51009D01*
X64578Y50750D01*
X64420Y50454D01*
X64323Y50134D01*
X64290Y49800D01*
X64323Y49466D01*
X64420Y49146D01*
X64578Y48850D01*
X64791Y48591D01*
X65050Y48378D01*
X65346Y48220D01*
X65666Y48123D01*
X66000Y48090D01*
X66334Y48123D01*
X66654Y48220D01*
X66950Y48378D01*
X67209Y48591D01*
X67422Y48850D01*
X67580Y49146D01*
X67677Y49466D01*
X67710Y49800D01*
X67677Y50134D01*
X67580Y50454D01*
X67422Y50750D01*
X67209Y51009D01*
X66950Y51222D01*
X66654Y51380D01*
X66334Y51477D01*
X66000Y51510D01*
D02*
G37*
G36*
X39600Y48584D02*
X39453Y48555D01*
X39328Y48472D01*
X39245Y48347D01*
X39216Y48200D01*
X39245Y48053D01*
X39328Y47928D01*
X39453Y47845D01*
X39600Y47816D01*
X39747Y47845D01*
X39872Y47928D01*
X39955Y48053D01*
X39984Y48200D01*
X39955Y48347D01*
X39872Y48472D01*
X39747Y48555D01*
X39600Y48584D01*
D02*
G37*
G36*
X73300Y48484D02*
X73153Y48455D01*
X73028Y48372D01*
X72945Y48247D01*
X72916Y48100D01*
X72945Y47953D01*
X73028Y47828D01*
X73153Y47745D01*
X73300Y47716D01*
X73447Y47745D01*
X73572Y47828D01*
X73655Y47953D01*
X73684Y48100D01*
X73655Y48247D01*
X73572Y48372D01*
X73447Y48455D01*
X73300Y48484D01*
D02*
G37*
G36*
X57469Y49237D02*
X57270Y49210D01*
X57084Y49134D01*
X56925Y49011D01*
X56803Y48852D01*
X56726Y48667D01*
X56700Y48468D01*
X56726Y48269D01*
X56803Y48084D01*
X56925Y47924D01*
X57084Y47802D01*
X57270Y47726D01*
X57469Y47699D01*
X57668Y47726D01*
X57853Y47802D01*
X58012Y47924D01*
X58134Y48084D01*
X58211Y48269D01*
X58237Y48468D01*
X58211Y48667D01*
X58134Y48852D01*
X58012Y49011D01*
X57853Y49134D01*
X57668Y49210D01*
X57469Y49237D01*
D02*
G37*
G36*
X34800Y48384D02*
X34653Y48355D01*
X34528Y48272D01*
X34445Y48147D01*
X34416Y48000D01*
X34445Y47853D01*
X34528Y47728D01*
X34653Y47645D01*
X34800Y47616D01*
X34947Y47645D01*
X35072Y47728D01*
X35155Y47853D01*
X35184Y48000D01*
X35155Y48147D01*
X35072Y48272D01*
X34947Y48355D01*
X34800Y48384D01*
D02*
G37*
G36*
X41100Y49069D02*
X40901Y49042D01*
X40716Y48966D01*
X40557Y48843D01*
X40434Y48684D01*
X40358Y48499D01*
X40331Y48300D01*
X40358Y48101D01*
X40434Y47916D01*
X40557Y47757D01*
X40716Y47634D01*
X40901Y47558D01*
X41100Y47531D01*
X41299Y47558D01*
X41484Y47634D01*
X41643Y47757D01*
X41766Y47916D01*
X41842Y48101D01*
X41869Y48300D01*
X41842Y48499D01*
X41766Y48684D01*
X41643Y48843D01*
X41484Y48966D01*
X41299Y49042D01*
X41100Y49069D01*
D02*
G37*
G36*
X36900Y48286D02*
X36714Y48249D01*
X36556Y48144D01*
X36451Y47986D01*
X36414Y47800D01*
X36451Y47614D01*
X36556Y47456D01*
X36714Y47351D01*
X36900Y47314D01*
X37086Y47351D01*
X37244Y47456D01*
X37349Y47614D01*
X37386Y47800D01*
X37349Y47986D01*
X37244Y48144D01*
X37086Y48249D01*
X36900Y48286D01*
D02*
G37*
G36*
X70000Y49510D02*
X69666Y49477D01*
X69346Y49380D01*
X69050Y49222D01*
X68791Y49009D01*
X68578Y48750D01*
X68420Y48454D01*
X68323Y48134D01*
X68290Y47800D01*
X68323Y47466D01*
X68420Y47146D01*
X68578Y46850D01*
X68791Y46591D01*
X69050Y46378D01*
X69346Y46220D01*
X69666Y46123D01*
X70000Y46090D01*
X70334Y46123D01*
X70654Y46220D01*
X70950Y46378D01*
X71209Y46591D01*
X71422Y46850D01*
X71580Y47146D01*
X71677Y47466D01*
X71710Y47800D01*
X71677Y48134D01*
X71580Y48454D01*
X71422Y48750D01*
X71209Y49009D01*
X70950Y49222D01*
X70654Y49380D01*
X70334Y49477D01*
X70000Y49510D01*
D02*
G37*
G36*
X62000D02*
X61666Y49477D01*
X61346Y49380D01*
X61050Y49222D01*
X60791Y49009D01*
X60578Y48750D01*
X60420Y48454D01*
X60323Y48134D01*
X60290Y47800D01*
X60323Y47466D01*
X60420Y47146D01*
X60578Y46850D01*
X60791Y46591D01*
X61050Y46378D01*
X61346Y46220D01*
X61666Y46123D01*
X62000Y46090D01*
X62334Y46123D01*
X62654Y46220D01*
X62950Y46378D01*
X63209Y46591D01*
X63422Y46850D01*
X63580Y47146D01*
X63677Y47466D01*
X63710Y47800D01*
X63677Y48134D01*
X63580Y48454D01*
X63422Y48750D01*
X63209Y49009D01*
X62950Y49222D01*
X62654Y49380D01*
X62334Y49477D01*
X62000Y49510D01*
D02*
G37*
G36*
X51400Y47569D02*
X51201Y47542D01*
X51016Y47466D01*
X50857Y47343D01*
X50734Y47184D01*
X50658Y46999D01*
X50631Y46800D01*
X50658Y46601D01*
X50734Y46416D01*
X50857Y46257D01*
X51016Y46134D01*
X51201Y46058D01*
X51400Y46031D01*
X51599Y46058D01*
X51784Y46134D01*
X51943Y46257D01*
X52066Y46416D01*
X52142Y46601D01*
X52169Y46800D01*
X52142Y46999D01*
X52066Y47184D01*
X51943Y47343D01*
X51784Y47466D01*
X51599Y47542D01*
X51400Y47569D01*
D02*
G37*
G36*
X49400D02*
X49201Y47542D01*
X49016Y47466D01*
X48857Y47343D01*
X48734Y47184D01*
X48658Y46999D01*
X48631Y46800D01*
X48658Y46601D01*
X48734Y46416D01*
X48857Y46257D01*
X49016Y46134D01*
X49201Y46058D01*
X49400Y46031D01*
X49599Y46058D01*
X49784Y46134D01*
X49943Y46257D01*
X50066Y46416D01*
X50142Y46601D01*
X50169Y46800D01*
X50142Y46999D01*
X50066Y47184D01*
X49943Y47343D01*
X49784Y47466D01*
X49599Y47542D01*
X49400Y47569D01*
D02*
G37*
G36*
X47300D02*
X47101Y47542D01*
X46916Y47466D01*
X46757Y47343D01*
X46634Y47184D01*
X46558Y46999D01*
X46531Y46800D01*
X46558Y46601D01*
X46634Y46416D01*
X46757Y46257D01*
X46916Y46134D01*
X47101Y46058D01*
X47300Y46031D01*
X47499Y46058D01*
X47684Y46134D01*
X47843Y46257D01*
X47966Y46416D01*
X48042Y46601D01*
X48069Y46800D01*
X48042Y46999D01*
X47966Y47184D01*
X47843Y47343D01*
X47684Y47466D01*
X47499Y47542D01*
X47300Y47569D01*
D02*
G37*
G36*
X39300D02*
X39101Y47542D01*
X38916Y47466D01*
X38757Y47343D01*
X38634Y47184D01*
X38558Y46999D01*
X38531Y46800D01*
X38558Y46601D01*
X38634Y46416D01*
X38757Y46257D01*
X38916Y46134D01*
X39101Y46058D01*
X39300Y46031D01*
X39499Y46058D01*
X39684Y46134D01*
X39843Y46257D01*
X39966Y46416D01*
X40042Y46601D01*
X40069Y46800D01*
X40042Y46999D01*
X39966Y47184D01*
X39843Y47343D01*
X39684Y47466D01*
X39499Y47542D01*
X39300Y47569D01*
D02*
G37*
G36*
X29100D02*
X28901Y47542D01*
X28716Y47466D01*
X28557Y47343D01*
X28434Y47184D01*
X28358Y46999D01*
X28331Y46800D01*
X28358Y46601D01*
X28434Y46416D01*
X28557Y46257D01*
X28716Y46134D01*
X28901Y46058D01*
X29100Y46031D01*
X29299Y46058D01*
X29484Y46134D01*
X29643Y46257D01*
X29766Y46416D01*
X29842Y46601D01*
X29869Y46800D01*
X29842Y46999D01*
X29766Y47184D01*
X29643Y47343D01*
X29484Y47466D01*
X29299Y47542D01*
X29100Y47569D01*
D02*
G37*
G36*
X20500D02*
X20301Y47542D01*
X20116Y47466D01*
X19957Y47343D01*
X19834Y47184D01*
X19758Y46999D01*
X19731Y46800D01*
X19758Y46601D01*
X19834Y46416D01*
X19957Y46257D01*
X20116Y46134D01*
X20301Y46058D01*
X20500Y46031D01*
X20699Y46058D01*
X20884Y46134D01*
X21043Y46257D01*
X21166Y46416D01*
X21242Y46601D01*
X21269Y46800D01*
X21242Y46999D01*
X21166Y47184D01*
X21043Y47343D01*
X20884Y47466D01*
X20699Y47542D01*
X20500Y47569D01*
D02*
G37*
G36*
X32700Y46569D02*
X32501Y46542D01*
X32316Y46466D01*
X32157Y46343D01*
X32034Y46184D01*
X31958Y45999D01*
X31931Y45800D01*
X31958Y45601D01*
X32034Y45416D01*
X32157Y45257D01*
X32316Y45134D01*
X32501Y45058D01*
X32700Y45031D01*
X32899Y45058D01*
X33084Y45134D01*
X33243Y45257D01*
X33366Y45416D01*
X33442Y45601D01*
X33469Y45800D01*
X33442Y45999D01*
X33366Y46184D01*
X33243Y46343D01*
X33084Y46466D01*
X32899Y46542D01*
X32700Y46569D01*
D02*
G37*
G36*
X62500Y45586D02*
Y44300D01*
X63786D01*
X63721Y44513D01*
X63549Y44835D01*
X63317Y45117D01*
X63035Y45349D01*
X62713Y45521D01*
X62500Y45586D01*
D02*
G37*
G36*
X61500D02*
X61287Y45521D01*
X60965Y45349D01*
X60683Y45117D01*
X60451Y44835D01*
X60279Y44513D01*
X60214Y44300D01*
X61500D01*
Y45586D01*
D02*
G37*
G36*
X27000Y45669D02*
X26801Y45642D01*
X26616Y45566D01*
X26457Y45443D01*
X26334Y45284D01*
X26258Y45099D01*
X26231Y44900D01*
X26258Y44701D01*
X26334Y44516D01*
X26457Y44357D01*
X26616Y44234D01*
X26801Y44158D01*
X27000Y44131D01*
X27199Y44158D01*
X27384Y44234D01*
X27543Y44357D01*
X27666Y44516D01*
X27742Y44701D01*
X27769Y44900D01*
X27742Y45099D01*
X27666Y45284D01*
X27543Y45443D01*
X27384Y45566D01*
X27199Y45642D01*
X27000Y45669D01*
D02*
G37*
G36*
X66000Y47510D02*
X65666Y47477D01*
X65346Y47380D01*
X65050Y47222D01*
X64791Y47009D01*
X64578Y46750D01*
X64420Y46454D01*
X64323Y46134D01*
X64290Y45800D01*
X64323Y45466D01*
X64420Y45146D01*
X64578Y44850D01*
X64791Y44591D01*
X65050Y44378D01*
X65346Y44220D01*
X65666Y44123D01*
X66000Y44090D01*
X66334Y44123D01*
X66654Y44220D01*
X66950Y44378D01*
X67209Y44591D01*
X67422Y44850D01*
X67580Y45146D01*
X67677Y45466D01*
X67710Y45800D01*
X67677Y46134D01*
X67580Y46454D01*
X67422Y46750D01*
X67209Y47009D01*
X66950Y47222D01*
X66654Y47380D01*
X66334Y47477D01*
X66000Y47510D01*
D02*
G37*
G36*
X56400Y44269D02*
X56201Y44242D01*
X56016Y44166D01*
X55857Y44043D01*
X55734Y43884D01*
X55658Y43699D01*
X55631Y43500D01*
X55658Y43301D01*
X55734Y43116D01*
X55857Y42957D01*
X56016Y42834D01*
X56201Y42758D01*
X56400Y42731D01*
X56599Y42758D01*
X56784Y42834D01*
X56943Y42957D01*
X57066Y43116D01*
X57142Y43301D01*
X57169Y43500D01*
X57142Y43699D01*
X57066Y43884D01*
X56943Y44043D01*
X56784Y44166D01*
X56599Y44242D01*
X56400Y44269D01*
D02*
G37*
G36*
X50400Y43769D02*
X50201Y43742D01*
X50016Y43666D01*
X49857Y43543D01*
X49734Y43384D01*
X49658Y43199D01*
X49631Y43000D01*
X49658Y42801D01*
X49734Y42616D01*
X49857Y42457D01*
X50016Y42334D01*
X50201Y42258D01*
X50400Y42231D01*
X50599Y42258D01*
X50784Y42334D01*
X50943Y42457D01*
X51066Y42616D01*
X51142Y42801D01*
X51169Y43000D01*
X51142Y43199D01*
X51066Y43384D01*
X50943Y43543D01*
X50784Y43666D01*
X50599Y43742D01*
X50400Y43769D01*
D02*
G37*
G36*
X70000Y45510D02*
X69666Y45477D01*
X69346Y45380D01*
X69050Y45222D01*
X68791Y45009D01*
X68578Y44750D01*
X68420Y44454D01*
X68323Y44134D01*
X68290Y43800D01*
X68323Y43466D01*
X68420Y43146D01*
X68578Y42850D01*
X68791Y42591D01*
X69050Y42378D01*
X69346Y42220D01*
X69666Y42123D01*
X70000Y42090D01*
X70334Y42123D01*
X70654Y42220D01*
X70950Y42378D01*
X71209Y42591D01*
X71422Y42850D01*
X71580Y43146D01*
X71677Y43466D01*
X71710Y43800D01*
X71677Y44134D01*
X71580Y44454D01*
X71422Y44750D01*
X71209Y45009D01*
X70950Y45222D01*
X70654Y45380D01*
X70334Y45477D01*
X70000Y45510D01*
D02*
G37*
G36*
X63786Y43300D02*
X62500D01*
Y42014D01*
X62713Y42079D01*
X63035Y42251D01*
X63317Y42483D01*
X63549Y42765D01*
X63721Y43087D01*
X63786Y43300D01*
D02*
G37*
G36*
X61500D02*
X60214D01*
X60279Y43087D01*
X60451Y42765D01*
X60683Y42483D01*
X60965Y42251D01*
X61287Y42079D01*
X61500Y42014D01*
Y43300D01*
D02*
G37*
G36*
X72900Y43369D02*
X72701Y43342D01*
X72516Y43266D01*
X72357Y43143D01*
X72234Y42984D01*
X72158Y42799D01*
X72131Y42600D01*
X72158Y42401D01*
X72234Y42216D01*
X72357Y42057D01*
X72516Y41934D01*
X72701Y41858D01*
X72900Y41831D01*
X73099Y41858D01*
X73284Y41934D01*
X73443Y42057D01*
X73566Y42216D01*
X73642Y42401D01*
X73669Y42600D01*
X73642Y42799D01*
X73566Y42984D01*
X73443Y43143D01*
X73284Y43266D01*
X73099Y43342D01*
X72900Y43369D01*
D02*
G37*
G36*
X5100Y47911D02*
X4613Y47873D01*
X4139Y47759D01*
X3688Y47572D01*
X3271Y47317D01*
X2900Y47000D01*
X2583Y46629D01*
X2328Y46212D01*
X2141Y45761D01*
X2027Y45287D01*
X1989Y44800D01*
X2027Y44313D01*
X2141Y43839D01*
X2328Y43388D01*
X2583Y42971D01*
X2900Y42600D01*
X3271Y42283D01*
X3688Y42028D01*
X4139Y41841D01*
X4613Y41727D01*
X5100Y41689D01*
X5587Y41727D01*
X6061Y41841D01*
X6512Y42028D01*
X6929Y42283D01*
X7300Y42600D01*
X7617Y42971D01*
X7872Y43388D01*
X8059Y43839D01*
X8173Y44313D01*
X8211Y44800D01*
X8173Y45287D01*
X8059Y45761D01*
X7872Y46212D01*
X7617Y46629D01*
X7300Y47000D01*
X6929Y47317D01*
X6512Y47572D01*
X6061Y47759D01*
X5587Y47873D01*
X5100Y47911D01*
D02*
G37*
G36*
X55300Y42769D02*
X55101Y42742D01*
X54916Y42666D01*
X54757Y42543D01*
X54634Y42384D01*
X54558Y42199D01*
X54531Y42000D01*
X54558Y41801D01*
X54634Y41616D01*
X54757Y41457D01*
X54916Y41334D01*
X55101Y41258D01*
X55300Y41231D01*
X55499Y41258D01*
X55684Y41334D01*
X55843Y41457D01*
X55966Y41616D01*
X56042Y41801D01*
X56069Y42000D01*
X56042Y42199D01*
X55966Y42384D01*
X55843Y42543D01*
X55684Y42666D01*
X55499Y42742D01*
X55300Y42769D01*
D02*
G37*
G36*
X51800Y42669D02*
X51601Y42642D01*
X51416Y42566D01*
X51257Y42443D01*
X51134Y42284D01*
X51058Y42099D01*
X51031Y41900D01*
X51058Y41701D01*
X51134Y41516D01*
X51257Y41357D01*
X51416Y41234D01*
X51601Y41158D01*
X51800Y41131D01*
X51999Y41158D01*
X52184Y41234D01*
X52343Y41357D01*
X52466Y41516D01*
X52542Y41701D01*
X52569Y41900D01*
X52542Y42099D01*
X52466Y42284D01*
X52343Y42443D01*
X52184Y42566D01*
X51999Y42642D01*
X51800Y42669D01*
D02*
G37*
G36*
X66000Y43510D02*
X65666Y43477D01*
X65346Y43380D01*
X65050Y43222D01*
X64791Y43009D01*
X64578Y42750D01*
X64420Y42454D01*
X64323Y42134D01*
X64290Y41800D01*
X64323Y41466D01*
X64420Y41146D01*
X64578Y40850D01*
X64791Y40591D01*
X65050Y40378D01*
X65346Y40220D01*
X65666Y40123D01*
X66000Y40090D01*
X66334Y40123D01*
X66654Y40220D01*
X66950Y40378D01*
X67209Y40591D01*
X67422Y40850D01*
X67580Y41146D01*
X67677Y41466D01*
X67710Y41800D01*
X67677Y42134D01*
X67580Y42454D01*
X67422Y42750D01*
X67209Y43009D01*
X66950Y43222D01*
X66654Y43380D01*
X66334Y43477D01*
X66000Y43510D01*
D02*
G37*
G36*
X72900Y41369D02*
X72701Y41342D01*
X72516Y41266D01*
X72357Y41143D01*
X72234Y40984D01*
X72158Y40799D01*
X72131Y40600D01*
X72158Y40401D01*
X72234Y40216D01*
X72357Y40057D01*
X72516Y39934D01*
X72701Y39858D01*
X72900Y39831D01*
X73099Y39858D01*
X73284Y39934D01*
X73443Y40057D01*
X73566Y40216D01*
X73642Y40401D01*
X73669Y40600D01*
X73642Y40799D01*
X73566Y40984D01*
X73443Y41143D01*
X73284Y41266D01*
X73099Y41342D01*
X72900Y41369D01*
D02*
G37*
G36*
X49000Y40969D02*
X48801Y40942D01*
X48616Y40866D01*
X48457Y40743D01*
X48334Y40584D01*
X48258Y40399D01*
X48231Y40200D01*
X48258Y40001D01*
X48334Y39816D01*
X48457Y39657D01*
X48616Y39534D01*
X48801Y39458D01*
X49000Y39431D01*
X49199Y39458D01*
X49384Y39534D01*
X49543Y39657D01*
X49666Y39816D01*
X49742Y40001D01*
X49769Y40200D01*
X49742Y40399D01*
X49666Y40584D01*
X49543Y40743D01*
X49384Y40866D01*
X49199Y40942D01*
X49000Y40969D01*
D02*
G37*
G36*
X55700Y40769D02*
X55501Y40742D01*
X55316Y40666D01*
X55157Y40543D01*
X55034Y40384D01*
X54958Y40199D01*
X54931Y40000D01*
X54958Y39801D01*
X55034Y39616D01*
X55157Y39457D01*
X55316Y39334D01*
X55501Y39258D01*
X55700Y39231D01*
X55899Y39258D01*
X56084Y39334D01*
X56243Y39457D01*
X56366Y39616D01*
X56442Y39801D01*
X56469Y40000D01*
X56442Y40199D01*
X56366Y40384D01*
X56243Y40543D01*
X56084Y40666D01*
X55899Y40742D01*
X55700Y40769D01*
D02*
G37*
G36*
X66500Y39586D02*
Y38300D01*
X67786D01*
X67721Y38513D01*
X67549Y38835D01*
X67317Y39117D01*
X67035Y39349D01*
X66713Y39521D01*
X66500Y39586D01*
D02*
G37*
G36*
X65500D02*
X65287Y39521D01*
X64965Y39349D01*
X64683Y39117D01*
X64451Y38835D01*
X64279Y38513D01*
X64214Y38300D01*
X65500D01*
Y39586D01*
D02*
G37*
G36*
X70000Y41510D02*
X69666Y41477D01*
X69346Y41380D01*
X69050Y41222D01*
X68791Y41009D01*
X68578Y40750D01*
X68420Y40454D01*
X68323Y40134D01*
X68290Y39800D01*
X68323Y39466D01*
X68420Y39146D01*
X68578Y38850D01*
X68791Y38591D01*
X69050Y38378D01*
X69346Y38220D01*
X69666Y38123D01*
X70000Y38090D01*
X70334Y38123D01*
X70654Y38220D01*
X70950Y38378D01*
X71209Y38591D01*
X71422Y38850D01*
X71580Y39146D01*
X71677Y39466D01*
X71710Y39800D01*
X71677Y40134D01*
X71580Y40454D01*
X71422Y40750D01*
X71209Y41009D01*
X70950Y41222D01*
X70654Y41380D01*
X70334Y41477D01*
X70000Y41510D01*
D02*
G37*
G36*
X62000D02*
X61666Y41477D01*
X61346Y41380D01*
X61050Y41222D01*
X60791Y41009D01*
X60578Y40750D01*
X60420Y40454D01*
X60323Y40134D01*
X60290Y39800D01*
X60323Y39466D01*
X60420Y39146D01*
X60578Y38850D01*
X60791Y38591D01*
X61050Y38378D01*
X61346Y38220D01*
X61666Y38123D01*
X62000Y38090D01*
X62334Y38123D01*
X62654Y38220D01*
X62950Y38378D01*
X63209Y38591D01*
X63422Y38850D01*
X63580Y39146D01*
X63677Y39466D01*
X63710Y39800D01*
X63677Y40134D01*
X63580Y40454D01*
X63422Y40750D01*
X63209Y41009D01*
X62950Y41222D01*
X62654Y41380D01*
X62334Y41477D01*
X62000Y41510D01*
D02*
G37*
G36*
X72900Y39269D02*
X72701Y39242D01*
X72516Y39166D01*
X72357Y39043D01*
X72234Y38884D01*
X72158Y38699D01*
X72131Y38500D01*
X72158Y38301D01*
X72234Y38116D01*
X72357Y37957D01*
X72516Y37834D01*
X72701Y37758D01*
X72900Y37731D01*
X73099Y37758D01*
X73284Y37834D01*
X73443Y37957D01*
X73566Y38116D01*
X73642Y38301D01*
X73669Y38500D01*
X73642Y38699D01*
X73566Y38884D01*
X73443Y39043D01*
X73284Y39166D01*
X73099Y39242D01*
X72900Y39269D01*
D02*
G37*
G36*
X54800Y38669D02*
X54601Y38642D01*
X54416Y38566D01*
X54257Y38443D01*
X54134Y38284D01*
X54058Y38099D01*
X54031Y37900D01*
X54058Y37701D01*
X54134Y37516D01*
X54257Y37357D01*
X54416Y37234D01*
X54601Y37158D01*
X54800Y37131D01*
X54999Y37158D01*
X55184Y37234D01*
X55343Y37357D01*
X55466Y37516D01*
X55542Y37701D01*
X55569Y37900D01*
X55542Y38099D01*
X55466Y38284D01*
X55343Y38443D01*
X55184Y38566D01*
X54999Y38642D01*
X54800Y38669D01*
D02*
G37*
G36*
X48400Y38469D02*
X48201Y38442D01*
X48016Y38366D01*
X47857Y38243D01*
X47734Y38084D01*
X47658Y37899D01*
X47631Y37700D01*
X47658Y37501D01*
X47734Y37316D01*
X47857Y37157D01*
X48016Y37034D01*
X48201Y36958D01*
X48400Y36931D01*
X48599Y36958D01*
X48784Y37034D01*
X48943Y37157D01*
X49066Y37316D01*
X49142Y37501D01*
X49169Y37700D01*
X49142Y37899D01*
X49066Y38084D01*
X48943Y38243D01*
X48784Y38366D01*
X48599Y38442D01*
X48400Y38469D01*
D02*
G37*
G36*
X39700Y38069D02*
X39501Y38042D01*
X39316Y37966D01*
X39157Y37843D01*
X39034Y37684D01*
X38958Y37499D01*
X38931Y37300D01*
X38958Y37101D01*
X39034Y36916D01*
X39157Y36757D01*
X39316Y36634D01*
X39501Y36558D01*
X39700Y36531D01*
X39899Y36558D01*
X40084Y36634D01*
X40243Y36757D01*
X40366Y36916D01*
X40442Y37101D01*
X40469Y37300D01*
X40442Y37499D01*
X40366Y37684D01*
X40243Y37843D01*
X40084Y37966D01*
X39899Y38042D01*
X39700Y38069D01*
D02*
G37*
G36*
X67786Y37300D02*
X66500D01*
Y36014D01*
X66713Y36079D01*
X67035Y36251D01*
X67317Y36483D01*
X67549Y36765D01*
X67721Y37087D01*
X67786Y37300D01*
D02*
G37*
G36*
X65500D02*
X64214D01*
X64279Y37087D01*
X64451Y36765D01*
X64683Y36483D01*
X64965Y36251D01*
X65287Y36079D01*
X65500Y36014D01*
Y37300D01*
D02*
G37*
G36*
X37900Y37069D02*
X37701Y37042D01*
X37516Y36966D01*
X37357Y36843D01*
X37234Y36684D01*
X37158Y36499D01*
X37131Y36300D01*
X37158Y36101D01*
X37234Y35916D01*
X37357Y35757D01*
X37516Y35634D01*
X37701Y35558D01*
X37900Y35531D01*
X38099Y35558D01*
X38284Y35634D01*
X38443Y35757D01*
X38566Y35916D01*
X38642Y36101D01*
X38669Y36300D01*
X38642Y36499D01*
X38566Y36684D01*
X38443Y36843D01*
X38284Y36966D01*
X38099Y37042D01*
X37900Y37069D01*
D02*
G37*
G36*
X20000D02*
X19801Y37042D01*
X19616Y36966D01*
X19457Y36843D01*
X19334Y36684D01*
X19258Y36499D01*
X19231Y36300D01*
X19258Y36101D01*
X19334Y35916D01*
X19457Y35757D01*
X19616Y35634D01*
X19801Y35558D01*
X20000Y35531D01*
X20199Y35558D01*
X20384Y35634D01*
X20543Y35757D01*
X20666Y35916D01*
X20742Y36101D01*
X20769Y36300D01*
X20742Y36499D01*
X20666Y36684D01*
X20543Y36843D01*
X20384Y36966D01*
X20199Y37042D01*
X20000Y37069D01*
D02*
G37*
G36*
X72900Y36769D02*
X72701Y36742D01*
X72516Y36666D01*
X72357Y36543D01*
X72234Y36384D01*
X72158Y36199D01*
X72131Y36000D01*
X72158Y35801D01*
X72234Y35616D01*
X72357Y35457D01*
X72516Y35334D01*
X72701Y35258D01*
X72900Y35231D01*
X73099Y35258D01*
X73284Y35334D01*
X73443Y35457D01*
X73566Y35616D01*
X73642Y35801D01*
X73669Y36000D01*
X73642Y36199D01*
X73566Y36384D01*
X73443Y36543D01*
X73284Y36666D01*
X73099Y36742D01*
X72900Y36769D01*
D02*
G37*
G36*
X48400Y36469D02*
X48201Y36442D01*
X48016Y36366D01*
X47857Y36243D01*
X47734Y36084D01*
X47658Y35899D01*
X47631Y35700D01*
X47658Y35501D01*
X47734Y35316D01*
X47857Y35157D01*
X48016Y35034D01*
X48201Y34958D01*
X48400Y34931D01*
X48599Y34958D01*
X48784Y35034D01*
X48943Y35157D01*
X49066Y35316D01*
X49142Y35501D01*
X49169Y35700D01*
X49142Y35899D01*
X49066Y36084D01*
X48943Y36243D01*
X48784Y36366D01*
X48599Y36442D01*
X48400Y36469D01*
D02*
G37*
G36*
X29200Y36169D02*
X29001Y36142D01*
X28816Y36066D01*
X28657Y35943D01*
X28534Y35784D01*
X28458Y35599D01*
X28431Y35400D01*
X28458Y35201D01*
X28534Y35016D01*
X28657Y34857D01*
X28816Y34734D01*
X29001Y34658D01*
X29200Y34631D01*
X29399Y34658D01*
X29584Y34734D01*
X29743Y34857D01*
X29866Y35016D01*
X29942Y35201D01*
X29969Y35400D01*
X29942Y35599D01*
X29866Y35784D01*
X29743Y35943D01*
X29584Y36066D01*
X29399Y36142D01*
X29200Y36169D01*
D02*
G37*
G36*
X21700Y36069D02*
X21501Y36042D01*
X21316Y35966D01*
X21157Y35843D01*
X21034Y35684D01*
X20958Y35499D01*
X20931Y35300D01*
X20958Y35101D01*
X21034Y34916D01*
X21157Y34757D01*
X21316Y34634D01*
X21501Y34558D01*
X21700Y34531D01*
X21899Y34558D01*
X22084Y34634D01*
X22243Y34757D01*
X22366Y34916D01*
X22442Y35101D01*
X22469Y35300D01*
X22442Y35499D01*
X22366Y35684D01*
X22243Y35843D01*
X22084Y35966D01*
X21899Y36042D01*
X21700Y36069D01*
D02*
G37*
G36*
X66500Y35586D02*
Y34300D01*
X67786D01*
X67721Y34513D01*
X67549Y34835D01*
X67317Y35117D01*
X67035Y35349D01*
X66713Y35521D01*
X66500Y35586D01*
D02*
G37*
G36*
X65500D02*
X65287Y35521D01*
X64965Y35349D01*
X64683Y35117D01*
X64451Y34835D01*
X64279Y34513D01*
X64214Y34300D01*
X65500D01*
Y35586D01*
D02*
G37*
G36*
X70000Y37510D02*
X69666Y37477D01*
X69346Y37380D01*
X69050Y37222D01*
X68791Y37009D01*
X68578Y36750D01*
X68420Y36454D01*
X68323Y36134D01*
X68290Y35800D01*
X68323Y35466D01*
X68420Y35146D01*
X68578Y34850D01*
X68791Y34591D01*
X69050Y34378D01*
X69346Y34220D01*
X69666Y34123D01*
X70000Y34090D01*
X70334Y34123D01*
X70654Y34220D01*
X70950Y34378D01*
X71209Y34591D01*
X71422Y34850D01*
X71580Y35146D01*
X71677Y35466D01*
X71710Y35800D01*
X71677Y36134D01*
X71580Y36454D01*
X71422Y36750D01*
X71209Y37009D01*
X70950Y37222D01*
X70654Y37380D01*
X70334Y37477D01*
X70000Y37510D01*
D02*
G37*
G36*
X62000D02*
X61666Y37477D01*
X61346Y37380D01*
X61050Y37222D01*
X60791Y37009D01*
X60578Y36750D01*
X60420Y36454D01*
X60323Y36134D01*
X60290Y35800D01*
X60323Y35466D01*
X60420Y35146D01*
X60578Y34850D01*
X60791Y34591D01*
X61050Y34378D01*
X61346Y34220D01*
X61666Y34123D01*
X62000Y34090D01*
X62334Y34123D01*
X62654Y34220D01*
X62950Y34378D01*
X63209Y34591D01*
X63422Y34850D01*
X63580Y35146D01*
X63677Y35466D01*
X63710Y35800D01*
X63677Y36134D01*
X63580Y36454D01*
X63422Y36750D01*
X63209Y37009D01*
X62950Y37222D01*
X62654Y37380D01*
X62334Y37477D01*
X62000Y37510D01*
D02*
G37*
G36*
X55600Y35469D02*
X55401Y35442D01*
X55216Y35366D01*
X55057Y35243D01*
X54934Y35084D01*
X54858Y34899D01*
X54831Y34700D01*
X54858Y34501D01*
X54934Y34316D01*
X55057Y34157D01*
X55216Y34034D01*
X55401Y33958D01*
X55600Y33931D01*
X55799Y33958D01*
X55984Y34034D01*
X56143Y34157D01*
X56266Y34316D01*
X56342Y34501D01*
X56369Y34700D01*
X56342Y34899D01*
X56266Y35084D01*
X56143Y35243D01*
X55984Y35366D01*
X55799Y35442D01*
X55600Y35469D01*
D02*
G37*
G36*
X49600Y34669D02*
X49401Y34642D01*
X49216Y34566D01*
X49057Y34443D01*
X48934Y34284D01*
X48858Y34099D01*
X48831Y33900D01*
X48858Y33701D01*
X48934Y33516D01*
X49057Y33357D01*
X49216Y33234D01*
X49401Y33158D01*
X49600Y33131D01*
X49799Y33158D01*
X49984Y33234D01*
X50143Y33357D01*
X50266Y33516D01*
X50342Y33701D01*
X50369Y33900D01*
X50342Y34099D01*
X50266Y34284D01*
X50143Y34443D01*
X49984Y34566D01*
X49799Y34642D01*
X49600Y34669D01*
D02*
G37*
G36*
X37100Y34569D02*
X36901Y34542D01*
X36716Y34466D01*
X36557Y34343D01*
X36434Y34184D01*
X36358Y33999D01*
X36331Y33800D01*
X36358Y33601D01*
X36434Y33416D01*
X36557Y33257D01*
X36716Y33134D01*
X36901Y33058D01*
X37100Y33031D01*
X37299Y33058D01*
X37484Y33134D01*
X37643Y33257D01*
X37766Y33416D01*
X37842Y33601D01*
X37869Y33800D01*
X37842Y33999D01*
X37766Y34184D01*
X37643Y34343D01*
X37484Y34466D01*
X37299Y34542D01*
X37100Y34569D01*
D02*
G37*
G36*
X67786Y33300D02*
X66500D01*
Y32014D01*
X66713Y32079D01*
X67035Y32251D01*
X67317Y32483D01*
X67549Y32765D01*
X67721Y33087D01*
X67786Y33300D01*
D02*
G37*
G36*
X65500D02*
X64214D01*
X64279Y33087D01*
X64451Y32765D01*
X64683Y32483D01*
X64965Y32251D01*
X65287Y32079D01*
X65500Y32014D01*
Y33300D01*
D02*
G37*
G36*
X66500Y31586D02*
Y30300D01*
X67786D01*
X67721Y30513D01*
X67549Y30835D01*
X67317Y31117D01*
X67035Y31349D01*
X66713Y31521D01*
X66500Y31586D01*
D02*
G37*
G36*
X65500D02*
X65287Y31521D01*
X64965Y31349D01*
X64683Y31117D01*
X64451Y30835D01*
X64279Y30513D01*
X64214Y30300D01*
X65500D01*
Y31586D01*
D02*
G37*
G36*
X70000Y33510D02*
X69666Y33477D01*
X69346Y33380D01*
X69050Y33222D01*
X68791Y33009D01*
X68578Y32750D01*
X68420Y32454D01*
X68323Y32134D01*
X68290Y31800D01*
X68323Y31466D01*
X68420Y31146D01*
X68578Y30850D01*
X68791Y30591D01*
X69050Y30378D01*
X69346Y30220D01*
X69666Y30123D01*
X70000Y30090D01*
X70334Y30123D01*
X70654Y30220D01*
X70950Y30378D01*
X71209Y30591D01*
X71422Y30850D01*
X71580Y31146D01*
X71677Y31466D01*
X71710Y31800D01*
X71677Y32134D01*
X71580Y32454D01*
X71422Y32750D01*
X71209Y33009D01*
X70950Y33222D01*
X70654Y33380D01*
X70334Y33477D01*
X70000Y33510D01*
D02*
G37*
G36*
X62000D02*
X61666Y33477D01*
X61346Y33380D01*
X61050Y33222D01*
X60791Y33009D01*
X60578Y32750D01*
X60420Y32454D01*
X60323Y32134D01*
X60290Y31800D01*
X60323Y31466D01*
X60420Y31146D01*
X60578Y30850D01*
X60791Y30591D01*
X61050Y30378D01*
X61346Y30220D01*
X61666Y30123D01*
X62000Y30090D01*
X62334Y30123D01*
X62654Y30220D01*
X62950Y30378D01*
X63209Y30591D01*
X63422Y30850D01*
X63580Y31146D01*
X63677Y31466D01*
X63710Y31800D01*
X63677Y32134D01*
X63580Y32454D01*
X63422Y32750D01*
X63209Y33009D01*
X62950Y33222D01*
X62654Y33380D01*
X62334Y33477D01*
X62000Y33510D01*
D02*
G37*
G36*
X67786Y29300D02*
X66500D01*
Y28014D01*
X66713Y28079D01*
X67035Y28251D01*
X67317Y28483D01*
X67549Y28765D01*
X67721Y29087D01*
X67786Y29300D01*
D02*
G37*
G36*
X65500D02*
X64214D01*
X64279Y29087D01*
X64451Y28765D01*
X64683Y28483D01*
X64965Y28251D01*
X65287Y28079D01*
X65500Y28014D01*
Y29300D01*
D02*
G37*
G36*
X70000Y29510D02*
X69666Y29477D01*
X69346Y29380D01*
X69050Y29222D01*
X68791Y29009D01*
X68578Y28750D01*
X68420Y28454D01*
X68323Y28134D01*
X68290Y27800D01*
X68323Y27466D01*
X68420Y27146D01*
X68578Y26850D01*
X68791Y26591D01*
X69050Y26378D01*
X69346Y26220D01*
X69666Y26123D01*
X70000Y26090D01*
X70334Y26123D01*
X70654Y26220D01*
X70950Y26378D01*
X71209Y26591D01*
X71422Y26850D01*
X71580Y27146D01*
X71677Y27466D01*
X71710Y27800D01*
X71677Y28134D01*
X71580Y28454D01*
X71422Y28750D01*
X71209Y29009D01*
X70950Y29222D01*
X70654Y29380D01*
X70334Y29477D01*
X70000Y29510D01*
D02*
G37*
G36*
X62000D02*
X61666Y29477D01*
X61346Y29380D01*
X61050Y29222D01*
X60791Y29009D01*
X60578Y28750D01*
X60420Y28454D01*
X60323Y28134D01*
X60290Y27800D01*
X60323Y27466D01*
X60420Y27146D01*
X60578Y26850D01*
X60791Y26591D01*
X61050Y26378D01*
X61346Y26220D01*
X61666Y26123D01*
X62000Y26090D01*
X62334Y26123D01*
X62654Y26220D01*
X62950Y26378D01*
X63209Y26591D01*
X63422Y26850D01*
X63580Y27146D01*
X63677Y27466D01*
X63710Y27800D01*
X63677Y28134D01*
X63580Y28454D01*
X63422Y28750D01*
X63209Y29009D01*
X62950Y29222D01*
X62654Y29380D01*
X62334Y29477D01*
X62000Y29510D01*
D02*
G37*
G36*
X66500Y22883D02*
X66191Y22852D01*
X65894Y22762D01*
X65621Y22616D01*
X65381Y22419D01*
X65184Y22179D01*
X65038Y21906D01*
X64948Y21609D01*
X64917Y21300D01*
X64948Y20991D01*
X65038Y20694D01*
X65184Y20421D01*
X65381Y20181D01*
X65621Y19984D01*
X65894Y19838D01*
X66191Y19748D01*
X66500Y19717D01*
X66809Y19748D01*
X67106Y19838D01*
X67379Y19984D01*
X67619Y20181D01*
X67816Y20421D01*
X67962Y20694D01*
X68052Y20991D01*
X68083Y21300D01*
X68052Y21609D01*
X67962Y21906D01*
X67816Y22179D01*
X67619Y22419D01*
X67379Y22616D01*
X67106Y22762D01*
X66809Y22852D01*
X66500Y22883D01*
D02*
G37*
G36*
X5100Y32869D02*
X4901Y32842D01*
X4716Y32766D01*
X4557Y32643D01*
X4434Y32484D01*
X4358Y32299D01*
X4331Y32100D01*
X4358Y31901D01*
X4434Y31716D01*
X4557Y31557D01*
X4716Y31434D01*
X4901Y31358D01*
X5100Y31331D01*
X5299Y31358D01*
X5484Y31434D01*
X5643Y31557D01*
X5766Y31716D01*
X5842Y31901D01*
X5869Y32100D01*
X5842Y32299D01*
X5766Y32484D01*
X5643Y32643D01*
X5484Y32766D01*
X5299Y32842D01*
X5100Y32869D01*
D02*
G37*
G36*
X11400Y31769D02*
X11201Y31742D01*
X11016Y31666D01*
X10857Y31543D01*
X10734Y31384D01*
X10658Y31199D01*
X10631Y31000D01*
X10658Y30801D01*
X10734Y30616D01*
X10857Y30457D01*
X11016Y30334D01*
X11201Y30258D01*
X11400Y30231D01*
X11599Y30258D01*
X11784Y30334D01*
X11943Y30457D01*
X12066Y30616D01*
X12142Y30801D01*
X12169Y31000D01*
X12142Y31199D01*
X12066Y31384D01*
X11943Y31543D01*
X11784Y31666D01*
X11599Y31742D01*
X11400Y31769D01*
D02*
G37*
G36*
X8500Y31669D02*
X8301Y31642D01*
X8116Y31566D01*
X7957Y31443D01*
X7834Y31284D01*
X7758Y31099D01*
X7731Y30900D01*
X7758Y30701D01*
X7834Y30516D01*
X7957Y30357D01*
X8116Y30234D01*
X8301Y30158D01*
X8500Y30131D01*
X8699Y30158D01*
X8884Y30234D01*
X9043Y30357D01*
X9166Y30516D01*
X9242Y30701D01*
X9269Y30900D01*
X9242Y31099D01*
X9166Y31284D01*
X9043Y31443D01*
X8884Y31566D01*
X8699Y31642D01*
X8500Y31669D01*
D02*
G37*
G36*
X11400Y29069D02*
X11201Y29042D01*
X11016Y28966D01*
X10857Y28843D01*
X10734Y28684D01*
X10658Y28499D01*
X10631Y28300D01*
X10658Y28101D01*
X10734Y27916D01*
X10857Y27757D01*
X11016Y27634D01*
X11201Y27558D01*
X11400Y27531D01*
X11599Y27558D01*
X11784Y27634D01*
X11943Y27757D01*
X12066Y27916D01*
X12142Y28101D01*
X12169Y28300D01*
X12142Y28499D01*
X12066Y28684D01*
X11943Y28843D01*
X11784Y28966D01*
X11599Y29042D01*
X11400Y29069D01*
D02*
G37*
G36*
X8550Y29019D02*
X8351Y28992D01*
X8166Y28916D01*
X8007Y28793D01*
X7884Y28634D01*
X7808Y28449D01*
X7781Y28250D01*
X7808Y28051D01*
X7884Y27866D01*
X8007Y27707D01*
X8166Y27584D01*
X8351Y27508D01*
X8550Y27481D01*
X8749Y27508D01*
X8934Y27584D01*
X9093Y27707D01*
X9216Y27866D01*
X9292Y28051D01*
X9319Y28250D01*
X9292Y28449D01*
X9216Y28634D01*
X9093Y28793D01*
X8934Y28916D01*
X8749Y28992D01*
X8550Y29019D01*
D02*
G37*
G36*
X46237Y27986D02*
X46051Y27949D01*
X45893Y27844D01*
X45788Y27686D01*
X45751Y27500D01*
X45788Y27314D01*
X45893Y27156D01*
X46051Y27051D01*
X46237Y27014D01*
X46423Y27051D01*
X46581Y27156D01*
X46686Y27314D01*
X46723Y27500D01*
X46686Y27686D01*
X46581Y27844D01*
X46423Y27949D01*
X46237Y27986D01*
D02*
G37*
G36*
X20800Y27869D02*
X20601Y27842D01*
X20416Y27766D01*
X20257Y27643D01*
X20134Y27484D01*
X20058Y27299D01*
X20031Y27100D01*
X20058Y26901D01*
X20134Y26716D01*
X20257Y26557D01*
X20416Y26434D01*
X20601Y26358D01*
X20800Y26331D01*
X20999Y26358D01*
X21184Y26434D01*
X21343Y26557D01*
X21466Y26716D01*
X21542Y26901D01*
X21569Y27100D01*
X21542Y27299D01*
X21466Y27484D01*
X21343Y27643D01*
X21184Y27766D01*
X20999Y27842D01*
X20800Y27869D01*
D02*
G37*
G36*
X18600D02*
X18401Y27842D01*
X18216Y27766D01*
X18057Y27643D01*
X17934Y27484D01*
X17858Y27299D01*
X17831Y27100D01*
X17858Y26901D01*
X17934Y26716D01*
X18057Y26557D01*
X18216Y26434D01*
X18401Y26358D01*
X18600Y26331D01*
X18799Y26358D01*
X18984Y26434D01*
X19143Y26557D01*
X19266Y26716D01*
X19342Y26901D01*
X19369Y27100D01*
X19342Y27299D01*
X19266Y27484D01*
X19143Y27643D01*
X18984Y27766D01*
X18799Y27842D01*
X18600Y27869D01*
D02*
G37*
G36*
X36500Y27669D02*
X36301Y27642D01*
X36116Y27566D01*
X35957Y27443D01*
X35834Y27284D01*
X35758Y27099D01*
X35731Y26900D01*
X35758Y26701D01*
X35834Y26516D01*
X35957Y26357D01*
X36116Y26234D01*
X36301Y26158D01*
X36500Y26131D01*
X36699Y26158D01*
X36884Y26234D01*
X37043Y26357D01*
X37166Y26516D01*
X37242Y26701D01*
X37269Y26900D01*
X37242Y27099D01*
X37166Y27284D01*
X37043Y27443D01*
X36884Y27566D01*
X36699Y27642D01*
X36500Y27669D01*
D02*
G37*
G36*
X26100D02*
X25901Y27642D01*
X25716Y27566D01*
X25557Y27443D01*
X25434Y27284D01*
X25358Y27099D01*
X25331Y26900D01*
X25358Y26701D01*
X25434Y26516D01*
X25557Y26357D01*
X25716Y26234D01*
X25901Y26158D01*
X26100Y26131D01*
X26299Y26158D01*
X26484Y26234D01*
X26643Y26357D01*
X26766Y26516D01*
X26842Y26701D01*
X26869Y26900D01*
X26842Y27099D01*
X26766Y27284D01*
X26643Y27443D01*
X26484Y27566D01*
X26299Y27642D01*
X26100Y27669D01*
D02*
G37*
G36*
X44700Y26286D02*
X44514Y26249D01*
X44356Y26144D01*
X44251Y25986D01*
X44214Y25800D01*
X44251Y25614D01*
X44356Y25456D01*
X44514Y25351D01*
X44700Y25314D01*
X44886Y25351D01*
X45044Y25456D01*
X45149Y25614D01*
X45186Y25800D01*
X45149Y25986D01*
X45044Y26144D01*
X44886Y26249D01*
X44700Y26286D01*
D02*
G37*
G36*
X20700Y25569D02*
X20501Y25542D01*
X20316Y25466D01*
X20157Y25343D01*
X20034Y25184D01*
X19958Y24999D01*
X19931Y24800D01*
X19958Y24601D01*
X20034Y24416D01*
X20157Y24257D01*
X20316Y24134D01*
X20501Y24058D01*
X20700Y24031D01*
X20899Y24058D01*
X21084Y24134D01*
X21243Y24257D01*
X21366Y24416D01*
X21442Y24601D01*
X21469Y24800D01*
X21442Y24999D01*
X21366Y25184D01*
X21243Y25343D01*
X21084Y25466D01*
X20899Y25542D01*
X20700Y25569D01*
D02*
G37*
G36*
X18600D02*
X18401Y25542D01*
X18216Y25466D01*
X18057Y25343D01*
X17934Y25184D01*
X17858Y24999D01*
X17831Y24800D01*
X17858Y24601D01*
X17934Y24416D01*
X18057Y24257D01*
X18216Y24134D01*
X18401Y24058D01*
X18600Y24031D01*
X18799Y24058D01*
X18984Y24134D01*
X19143Y24257D01*
X19266Y24416D01*
X19342Y24601D01*
X19369Y24800D01*
X19342Y24999D01*
X19266Y25184D01*
X19143Y25343D01*
X18984Y25466D01*
X18799Y25542D01*
X18600Y25569D01*
D02*
G37*
G36*
X52600Y24686D02*
X52414Y24649D01*
X52256Y24544D01*
X52151Y24386D01*
X52114Y24200D01*
X52151Y24014D01*
X52256Y23856D01*
X52414Y23751D01*
X52600Y23714D01*
X52786Y23751D01*
X52944Y23856D01*
X53049Y24014D01*
X53086Y24200D01*
X53049Y24386D01*
X52944Y24544D01*
X52786Y24649D01*
X52600Y24686D01*
D02*
G37*
G36*
X30600Y24269D02*
X30401Y24242D01*
X30216Y24166D01*
X30057Y24043D01*
X29934Y23884D01*
X29858Y23699D01*
X29831Y23500D01*
X29858Y23301D01*
X29934Y23116D01*
X30057Y22957D01*
X30216Y22834D01*
X30401Y22758D01*
X30600Y22731D01*
X30799Y22758D01*
X30984Y22834D01*
X31143Y22957D01*
X31266Y23116D01*
X31342Y23301D01*
X31369Y23500D01*
X31342Y23699D01*
X31266Y23884D01*
X31143Y24043D01*
X30984Y24166D01*
X30799Y24242D01*
X30600Y24269D01*
D02*
G37*
G36*
X34736Y23604D02*
X34537Y23578D01*
X34352Y23502D01*
X34192Y23379D01*
X34070Y23220D01*
X33994Y23035D01*
X33967Y22836D01*
X33994Y22637D01*
X34070Y22452D01*
X34192Y22292D01*
X34352Y22170D01*
X34537Y22094D01*
X34736Y22067D01*
X34935Y22094D01*
X35120Y22170D01*
X35279Y22292D01*
X35402Y22452D01*
X35478Y22637D01*
X35505Y22836D01*
X35478Y23035D01*
X35402Y23220D01*
X35279Y23379D01*
X35120Y23502D01*
X34935Y23578D01*
X34736Y23604D01*
D02*
G37*
G36*
X19700Y23169D02*
X19501Y23142D01*
X19316Y23066D01*
X19157Y22943D01*
X19034Y22784D01*
X18958Y22599D01*
X18931Y22400D01*
X18958Y22201D01*
X19034Y22016D01*
X19157Y21857D01*
X19316Y21734D01*
X19501Y21658D01*
X19700Y21631D01*
X19899Y21658D01*
X20084Y21734D01*
X20243Y21857D01*
X20366Y22016D01*
X20442Y22201D01*
X20469Y22400D01*
X20442Y22599D01*
X20366Y22784D01*
X20243Y22943D01*
X20084Y23066D01*
X19899Y23142D01*
X19700Y23169D01*
D02*
G37*
G36*
X22100Y22969D02*
X21901Y22942D01*
X21716Y22866D01*
X21557Y22743D01*
X21434Y22584D01*
X21358Y22399D01*
X21331Y22200D01*
X21358Y22001D01*
X21434Y21816D01*
X21557Y21657D01*
X21716Y21534D01*
X21901Y21458D01*
X22100Y21431D01*
X22299Y21458D01*
X22484Y21534D01*
X22643Y21657D01*
X22766Y21816D01*
X22842Y22001D01*
X22869Y22200D01*
X22842Y22399D01*
X22766Y22584D01*
X22643Y22743D01*
X22484Y22866D01*
X22299Y22942D01*
X22100Y22969D01*
D02*
G37*
G36*
X34727Y21291D02*
Y20827D01*
X35191D01*
X35169Y20936D01*
X35035Y21135D01*
X34836Y21269D01*
X34727Y21291D01*
D02*
G37*
G36*
X34473D02*
X34364Y21269D01*
X34165Y21135D01*
X34031Y20936D01*
X34009Y20827D01*
X34473D01*
Y21291D01*
D02*
G37*
G36*
X52700Y21586D02*
X52514Y21549D01*
X52356Y21444D01*
X52251Y21286D01*
X52214Y21100D01*
X52251Y20914D01*
X52356Y20756D01*
X52514Y20651D01*
X52700Y20614D01*
X52886Y20651D01*
X53044Y20756D01*
X53149Y20914D01*
X53186Y21100D01*
X53149Y21286D01*
X53044Y21444D01*
X52886Y21549D01*
X52700Y21586D01*
D02*
G37*
G36*
X50000Y21286D02*
X49814Y21249D01*
X49656Y21144D01*
X49551Y20986D01*
X49514Y20800D01*
X49551Y20614D01*
X49656Y20456D01*
X49814Y20351D01*
X50000Y20314D01*
X50186Y20351D01*
X50344Y20456D01*
X50449Y20614D01*
X50486Y20800D01*
X50449Y20986D01*
X50344Y21144D01*
X50186Y21249D01*
X50000Y21286D01*
D02*
G37*
G36*
X35191Y20573D02*
X34727D01*
Y20109D01*
X34836Y20131D01*
X35035Y20265D01*
X35169Y20464D01*
X35191Y20573D01*
D02*
G37*
G36*
X34473D02*
X34009D01*
X34031Y20464D01*
X34165Y20265D01*
X34364Y20131D01*
X34473Y20109D01*
Y20573D01*
D02*
G37*
G36*
X46500Y21469D02*
X46301Y21442D01*
X46116Y21366D01*
X45957Y21243D01*
X45834Y21084D01*
X45758Y20899D01*
X45731Y20700D01*
X45758Y20501D01*
X45834Y20316D01*
X45957Y20157D01*
X46116Y20034D01*
X46301Y19958D01*
X46500Y19931D01*
X46699Y19958D01*
X46884Y20034D01*
X47043Y20157D01*
X47166Y20316D01*
X47242Y20501D01*
X47269Y20700D01*
X47242Y20899D01*
X47166Y21084D01*
X47043Y21243D01*
X46884Y21366D01*
X46699Y21442D01*
X46500Y21469D01*
D02*
G37*
G36*
X25800Y21269D02*
X25601Y21242D01*
X25416Y21166D01*
X25257Y21043D01*
X25134Y20884D01*
X25058Y20699D01*
X25031Y20500D01*
X25058Y20301D01*
X25134Y20116D01*
X25257Y19957D01*
X25416Y19834D01*
X25601Y19758D01*
X25800Y19731D01*
X25999Y19758D01*
X26184Y19834D01*
X26343Y19957D01*
X26466Y20116D01*
X26542Y20301D01*
X26569Y20500D01*
X26542Y20699D01*
X26466Y20884D01*
X26343Y21043D01*
X26184Y21166D01*
X25999Y21242D01*
X25800Y21269D01*
D02*
G37*
G36*
X39200Y20869D02*
X39001Y20842D01*
X38816Y20766D01*
X38657Y20643D01*
X38534Y20484D01*
X38458Y20299D01*
X38431Y20100D01*
X38458Y19901D01*
X38534Y19716D01*
X38657Y19557D01*
X38816Y19434D01*
X39001Y19358D01*
X39200Y19331D01*
X39399Y19358D01*
X39584Y19434D01*
X39743Y19557D01*
X39866Y19716D01*
X39942Y19901D01*
X39969Y20100D01*
X39942Y20299D01*
X39866Y20484D01*
X39743Y20643D01*
X39584Y20766D01*
X39399Y20842D01*
X39200Y20869D01*
D02*
G37*
G36*
X51300Y20286D02*
X51114Y20249D01*
X50956Y20144D01*
X50851Y19986D01*
X50814Y19800D01*
X50851Y19614D01*
X50956Y19456D01*
X51114Y19351D01*
X51300Y19314D01*
X51486Y19351D01*
X51644Y19456D01*
X51749Y19614D01*
X51786Y19800D01*
X51749Y19986D01*
X51644Y20144D01*
X51486Y20249D01*
X51300Y20286D01*
D02*
G37*
G36*
X36627Y19491D02*
Y19027D01*
X37091D01*
X37069Y19136D01*
X36935Y19335D01*
X36736Y19469D01*
X36627Y19491D01*
D02*
G37*
G36*
X36373D02*
X36264Y19469D01*
X36065Y19335D01*
X35931Y19136D01*
X35909Y19027D01*
X36373D01*
Y19491D01*
D02*
G37*
G36*
X47900Y19486D02*
X47714Y19449D01*
X47556Y19344D01*
X47451Y19186D01*
X47414Y19000D01*
X47451Y18814D01*
X47556Y18656D01*
X47714Y18551D01*
X47900Y18514D01*
X48086Y18551D01*
X48244Y18656D01*
X48349Y18814D01*
X48386Y19000D01*
X48349Y19186D01*
X48244Y19344D01*
X48086Y19449D01*
X47900Y19486D01*
D02*
G37*
G36*
X32000D02*
X31814Y19449D01*
X31656Y19344D01*
X31551Y19186D01*
X31514Y19000D01*
X31551Y18814D01*
X31656Y18656D01*
X31814Y18551D01*
X32000Y18514D01*
X32186Y18551D01*
X32344Y18656D01*
X32449Y18814D01*
X32486Y19000D01*
X32449Y19186D01*
X32344Y19344D01*
X32186Y19449D01*
X32000Y19486D01*
D02*
G37*
G36*
X28400D02*
X28214Y19449D01*
X28056Y19344D01*
X27951Y19186D01*
X27914Y19000D01*
X27951Y18814D01*
X28056Y18656D01*
X28214Y18551D01*
X28400Y18514D01*
X28586Y18551D01*
X28744Y18656D01*
X28849Y18814D01*
X28886Y19000D01*
X28849Y19186D01*
X28744Y19344D01*
X28586Y19449D01*
X28400Y19486D01*
D02*
G37*
G36*
X37091Y18773D02*
X36627D01*
Y18309D01*
X36736Y18331D01*
X36935Y18465D01*
X37069Y18664D01*
X37091Y18773D01*
D02*
G37*
G36*
X36373D02*
X35909D01*
X35931Y18664D01*
X36065Y18465D01*
X36264Y18331D01*
X36373Y18309D01*
Y18773D01*
D02*
G37*
G36*
X15800Y19186D02*
X15614Y19149D01*
X15456Y19044D01*
X15351Y18886D01*
X15314Y18700D01*
X15351Y18514D01*
X15456Y18356D01*
X15614Y18251D01*
X15800Y18214D01*
X15986Y18251D01*
X16144Y18356D01*
X16249Y18514D01*
X16286Y18700D01*
X16249Y18886D01*
X16144Y19044D01*
X15986Y19149D01*
X15800Y19186D01*
D02*
G37*
G36*
X13800D02*
X13614Y19149D01*
X13456Y19044D01*
X13351Y18886D01*
X13314Y18700D01*
X13351Y18514D01*
X13456Y18356D01*
X13614Y18251D01*
X13800Y18214D01*
X13986Y18251D01*
X14144Y18356D01*
X14249Y18514D01*
X14286Y18700D01*
X14249Y18886D01*
X14144Y19044D01*
X13986Y19149D01*
X13800Y19186D01*
D02*
G37*
G36*
X21900Y19669D02*
X21701Y19642D01*
X21516Y19566D01*
X21357Y19443D01*
X21234Y19284D01*
X21158Y19099D01*
X21131Y18900D01*
X21158Y18701D01*
X21234Y18516D01*
X21357Y18357D01*
X21516Y18234D01*
X21701Y18158D01*
X21900Y18131D01*
X22099Y18158D01*
X22284Y18234D01*
X22443Y18357D01*
X22566Y18516D01*
X22642Y18701D01*
X22669Y18900D01*
X22642Y19099D01*
X22566Y19284D01*
X22443Y19443D01*
X22284Y19566D01*
X22099Y19642D01*
X21900Y19669D01*
D02*
G37*
G36*
X29850Y18536D02*
X29664Y18499D01*
X29506Y18394D01*
X29401Y18236D01*
X29364Y18050D01*
X29401Y17864D01*
X29506Y17706D01*
X29664Y17601D01*
X29850Y17564D01*
X30036Y17601D01*
X30194Y17706D01*
X30299Y17864D01*
X30336Y18050D01*
X30299Y18236D01*
X30194Y18394D01*
X30036Y18499D01*
X29850Y18536D01*
D02*
G37*
G36*
X18000Y18669D02*
X17801Y18642D01*
X17616Y18566D01*
X17457Y18443D01*
X17334Y18284D01*
X17258Y18099D01*
X17231Y17900D01*
X17258Y17701D01*
X17334Y17516D01*
X17457Y17357D01*
X17616Y17234D01*
X17801Y17158D01*
X18000Y17131D01*
X18199Y17158D01*
X18384Y17234D01*
X18543Y17357D01*
X18666Y17516D01*
X18742Y17701D01*
X18769Y17900D01*
X18742Y18099D01*
X18666Y18284D01*
X18543Y18443D01*
X18384Y18566D01*
X18199Y18642D01*
X18000Y18669D01*
D02*
G37*
G36*
X19700Y17886D02*
X19514Y17849D01*
X19356Y17744D01*
X19251Y17586D01*
X19214Y17400D01*
X19251Y17214D01*
X19356Y17056D01*
X19514Y16951D01*
X19700Y16914D01*
X19886Y16951D01*
X20044Y17056D01*
X20149Y17214D01*
X20186Y17400D01*
X20149Y17586D01*
X20044Y17744D01*
X19886Y17849D01*
X19700Y17886D01*
D02*
G37*
G36*
X32527Y17191D02*
Y16727D01*
X32991D01*
X32969Y16836D01*
X32835Y17035D01*
X32636Y17169D01*
X32527Y17191D01*
D02*
G37*
G36*
X32273D02*
X32164Y17169D01*
X31965Y17035D01*
X31831Y16836D01*
X31809Y16727D01*
X32273D01*
Y17191D01*
D02*
G37*
G36*
X50000Y17969D02*
X49801Y17942D01*
X49616Y17866D01*
X49457Y17743D01*
X49334Y17584D01*
X49258Y17399D01*
X49231Y17200D01*
X49258Y17001D01*
X49334Y16816D01*
X49457Y16657D01*
X49616Y16534D01*
X49801Y16458D01*
X50000Y16431D01*
X50199Y16458D01*
X50384Y16534D01*
X50543Y16657D01*
X50666Y16816D01*
X50742Y17001D01*
X50769Y17200D01*
X50742Y17399D01*
X50666Y17584D01*
X50543Y17743D01*
X50384Y17866D01*
X50199Y17942D01*
X50000Y17969D01*
D02*
G37*
G36*
X21400Y16986D02*
X21214Y16949D01*
X21056Y16844D01*
X20951Y16686D01*
X20914Y16500D01*
X20951Y16314D01*
X21056Y16156D01*
X21214Y16051D01*
X21400Y16014D01*
X21586Y16051D01*
X21744Y16156D01*
X21849Y16314D01*
X21886Y16500D01*
X21849Y16686D01*
X21744Y16844D01*
X21586Y16949D01*
X21400Y16986D01*
D02*
G37*
G36*
X32991Y16473D02*
X32527D01*
Y16009D01*
X32636Y16031D01*
X32835Y16165D01*
X32969Y16364D01*
X32991Y16473D01*
D02*
G37*
G36*
X32273D02*
X31809D01*
X31831Y16364D01*
X31965Y16165D01*
X32164Y16031D01*
X32273Y16009D01*
Y16473D01*
D02*
G37*
G36*
X19700Y16386D02*
X19514Y16349D01*
X19356Y16244D01*
X19251Y16086D01*
X19214Y15900D01*
X19251Y15714D01*
X19356Y15556D01*
X19514Y15451D01*
X19700Y15414D01*
X19886Y15451D01*
X20044Y15556D01*
X20149Y15714D01*
X20186Y15900D01*
X20149Y16086D01*
X20044Y16244D01*
X19886Y16349D01*
X19700Y16386D01*
D02*
G37*
G36*
X17700Y16769D02*
X17501Y16742D01*
X17316Y16666D01*
X17157Y16543D01*
X17034Y16384D01*
X16958Y16199D01*
X16931Y16000D01*
X16958Y15801D01*
X17034Y15616D01*
X17157Y15457D01*
X17316Y15334D01*
X17501Y15258D01*
X17700Y15231D01*
X17899Y15258D01*
X18084Y15334D01*
X18243Y15457D01*
X18366Y15616D01*
X18442Y15801D01*
X18469Y16000D01*
X18442Y16199D01*
X18366Y16384D01*
X18243Y16543D01*
X18084Y16666D01*
X17899Y16742D01*
X17700Y16769D01*
D02*
G37*
G36*
X32527Y14091D02*
Y13627D01*
X32991D01*
X32969Y13736D01*
X32835Y13935D01*
X32636Y14069D01*
X32527Y14091D01*
D02*
G37*
G36*
X32273D02*
X32164Y14069D01*
X31965Y13935D01*
X31831Y13736D01*
X31809Y13627D01*
X32273D01*
Y14091D01*
D02*
G37*
G36*
X28500Y14486D02*
X28314Y14449D01*
X28156Y14344D01*
X28051Y14186D01*
X28014Y14000D01*
X28051Y13814D01*
X28156Y13656D01*
X28314Y13551D01*
X28500Y13514D01*
X28686Y13551D01*
X28844Y13656D01*
X28949Y13814D01*
X28986Y14000D01*
X28949Y14186D01*
X28844Y14344D01*
X28686Y14449D01*
X28500Y14486D01*
D02*
G37*
G36*
X27000Y14386D02*
X26814Y14349D01*
X26656Y14244D01*
X26551Y14086D01*
X26514Y13900D01*
X26551Y13714D01*
X26656Y13556D01*
X26814Y13451D01*
X27000Y13414D01*
X27186Y13451D01*
X27344Y13556D01*
X27449Y13714D01*
X27486Y13900D01*
X27449Y14086D01*
X27344Y14244D01*
X27186Y14349D01*
X27000Y14386D01*
D02*
G37*
G36*
X48000Y14086D02*
X47814Y14049D01*
X47656Y13944D01*
X47551Y13786D01*
X47514Y13600D01*
X47551Y13414D01*
X47656Y13256D01*
X47814Y13151D01*
X48000Y13114D01*
X48186Y13151D01*
X48344Y13256D01*
X48449Y13414D01*
X48486Y13600D01*
X48449Y13786D01*
X48344Y13944D01*
X48186Y14049D01*
X48000Y14086D01*
D02*
G37*
G36*
X46600D02*
X46414Y14049D01*
X46256Y13944D01*
X46151Y13786D01*
X46114Y13600D01*
X46151Y13414D01*
X46256Y13256D01*
X46414Y13151D01*
X46600Y13114D01*
X46786Y13151D01*
X46944Y13256D01*
X47049Y13414D01*
X47086Y13600D01*
X47049Y13786D01*
X46944Y13944D01*
X46786Y14049D01*
X46600Y14086D01*
D02*
G37*
G36*
X32991Y13373D02*
X32527D01*
Y12909D01*
X32636Y12931D01*
X32835Y13065D01*
X32969Y13264D01*
X32991Y13373D01*
D02*
G37*
G36*
X32273D02*
X31809D01*
X31831Y13264D01*
X31965Y13065D01*
X32164Y12931D01*
X32273Y12909D01*
Y13373D01*
D02*
G37*
G36*
X53000Y14269D02*
X52801Y14242D01*
X52616Y14166D01*
X52457Y14043D01*
X52334Y13884D01*
X52258Y13699D01*
X52231Y13500D01*
X52258Y13301D01*
X52334Y13116D01*
X52457Y12957D01*
X52616Y12834D01*
X52801Y12758D01*
X53000Y12731D01*
X53199Y12758D01*
X53384Y12834D01*
X53543Y12957D01*
X53666Y13116D01*
X53742Y13301D01*
X53769Y13500D01*
X53742Y13699D01*
X53666Y13884D01*
X53543Y14043D01*
X53384Y14166D01*
X53199Y14242D01*
X53000Y14269D01*
D02*
G37*
G36*
X3700Y14434D02*
X3478Y14405D01*
X3271Y14319D01*
X3093Y14183D01*
X2957Y14005D01*
X2871Y13798D01*
X2842Y13576D01*
X2871Y13354D01*
X2957Y13147D01*
X3093Y12969D01*
X3271Y12833D01*
X3478Y12747D01*
X3700Y12718D01*
X3922Y12747D01*
X4129Y12833D01*
X4307Y12969D01*
X4443Y13147D01*
X4529Y13354D01*
X4558Y13576D01*
X4529Y13798D01*
X4443Y14005D01*
X4307Y14183D01*
X4129Y14319D01*
X3922Y14405D01*
X3700Y14434D01*
D02*
G37*
G36*
X56800Y13369D02*
X56601Y13342D01*
X56416Y13266D01*
X56257Y13143D01*
X56134Y12984D01*
X56058Y12799D01*
X56031Y12600D01*
X56058Y12401D01*
X56134Y12216D01*
X56257Y12057D01*
X56416Y11934D01*
X56601Y11858D01*
X56800Y11831D01*
X56999Y11858D01*
X57184Y11934D01*
X57343Y12057D01*
X57466Y12216D01*
X57542Y12401D01*
X57569Y12600D01*
X57542Y12799D01*
X57466Y12984D01*
X57343Y13143D01*
X57184Y13266D01*
X56999Y13342D01*
X56800Y13369D01*
D02*
G37*
G36*
X36700D02*
X36501Y13342D01*
X36316Y13266D01*
X36157Y13143D01*
X36034Y12984D01*
X35958Y12799D01*
X35931Y12600D01*
X35958Y12401D01*
X36034Y12216D01*
X36157Y12057D01*
X36316Y11934D01*
X36501Y11858D01*
X36700Y11831D01*
X36899Y11858D01*
X37084Y11934D01*
X37243Y12057D01*
X37366Y12216D01*
X37442Y12401D01*
X37469Y12600D01*
X37442Y12799D01*
X37366Y12984D01*
X37243Y13143D01*
X37084Y13266D01*
X36899Y13342D01*
X36700Y13369D01*
D02*
G37*
G36*
X17400D02*
X17201Y13342D01*
X17016Y13266D01*
X16857Y13143D01*
X16734Y12984D01*
X16658Y12799D01*
X16631Y12600D01*
X16658Y12401D01*
X16734Y12216D01*
X16857Y12057D01*
X17016Y11934D01*
X17201Y11858D01*
X17400Y11831D01*
X17599Y11858D01*
X17784Y11934D01*
X17943Y12057D01*
X18066Y12216D01*
X18142Y12401D01*
X18169Y12600D01*
X18142Y12799D01*
X18066Y12984D01*
X17943Y13143D01*
X17784Y13266D01*
X17599Y13342D01*
X17400Y13369D01*
D02*
G37*
G36*
X51400Y12686D02*
X51214Y12649D01*
X51056Y12544D01*
X50951Y12386D01*
X50914Y12200D01*
X50951Y12014D01*
X51056Y11856D01*
X51214Y11751D01*
X51400Y11714D01*
X51586Y11751D01*
X51744Y11856D01*
X51849Y12014D01*
X51886Y12200D01*
X51849Y12386D01*
X51744Y12544D01*
X51586Y12649D01*
X51400Y12686D01*
D02*
G37*
G36*
X14900Y13169D02*
X14701Y13142D01*
X14516Y13066D01*
X14357Y12943D01*
X14234Y12784D01*
X14158Y12599D01*
X14131Y12400D01*
X14158Y12201D01*
X14234Y12016D01*
X14357Y11857D01*
X14516Y11734D01*
X14701Y11658D01*
X14900Y11631D01*
X15099Y11658D01*
X15284Y11734D01*
X15443Y11857D01*
X15566Y12016D01*
X15642Y12201D01*
X15669Y12400D01*
X15642Y12599D01*
X15566Y12784D01*
X15443Y12943D01*
X15284Y13066D01*
X15099Y13142D01*
X14900Y13169D01*
D02*
G37*
G36*
X53700Y11769D02*
X53501Y11742D01*
X53316Y11666D01*
X53157Y11543D01*
X53034Y11384D01*
X52958Y11199D01*
X52931Y11000D01*
X52958Y10801D01*
X53034Y10616D01*
X53157Y10457D01*
X53316Y10334D01*
X53501Y10258D01*
X53700Y10231D01*
X53899Y10258D01*
X54084Y10334D01*
X54243Y10457D01*
X54366Y10616D01*
X54442Y10801D01*
X54469Y11000D01*
X54442Y11199D01*
X54366Y11384D01*
X54243Y11543D01*
X54084Y11666D01*
X53899Y11742D01*
X53700Y11769D01*
D02*
G37*
G36*
X3700Y11934D02*
X3478Y11905D01*
X3271Y11819D01*
X3093Y11683D01*
X2957Y11505D01*
X2871Y11298D01*
X2842Y11076D01*
X2871Y10854D01*
X2957Y10647D01*
X3093Y10469D01*
X3271Y10333D01*
X3478Y10247D01*
X3700Y10218D01*
X3922Y10247D01*
X4129Y10333D01*
X4307Y10469D01*
X4443Y10647D01*
X4529Y10854D01*
X4558Y11076D01*
X4529Y11298D01*
X4443Y11505D01*
X4307Y11683D01*
X4129Y11819D01*
X3922Y11905D01*
X3700Y11934D01*
D02*
G37*
G36*
X17700Y11186D02*
X17514Y11149D01*
X17356Y11044D01*
X17251Y10886D01*
X17214Y10700D01*
X17251Y10514D01*
X17356Y10356D01*
X17514Y10251D01*
X17700Y10214D01*
X17886Y10251D01*
X18044Y10356D01*
X18149Y10514D01*
X18186Y10700D01*
X18149Y10886D01*
X18044Y11044D01*
X17886Y11149D01*
X17700Y11186D01*
D02*
G37*
G36*
X31700Y11669D02*
X31501Y11642D01*
X31316Y11566D01*
X31157Y11443D01*
X31034Y11284D01*
X30958Y11099D01*
X30931Y10900D01*
X30958Y10701D01*
X31034Y10516D01*
X31157Y10357D01*
X31316Y10234D01*
X31501Y10158D01*
X31700Y10131D01*
X31899Y10158D01*
X32084Y10234D01*
X32243Y10357D01*
X32366Y10516D01*
X32442Y10701D01*
X32469Y10900D01*
X32442Y11099D01*
X32366Y11284D01*
X32243Y11443D01*
X32084Y11566D01*
X31899Y11642D01*
X31700Y11669D01*
D02*
G37*
G36*
X50400Y11086D02*
X50214Y11049D01*
X50056Y10944D01*
X49951Y10786D01*
X49914Y10600D01*
X49951Y10414D01*
X50056Y10256D01*
X50214Y10151D01*
X50400Y10114D01*
X50586Y10151D01*
X50744Y10256D01*
X50849Y10414D01*
X50886Y10600D01*
X50849Y10786D01*
X50744Y10944D01*
X50586Y11049D01*
X50400Y11086D01*
D02*
G37*
G36*
X60800Y10069D02*
X60601Y10042D01*
X60416Y9966D01*
X60257Y9843D01*
X60134Y9684D01*
X60058Y9499D01*
X60031Y9300D01*
X60058Y9101D01*
X60134Y8916D01*
X60257Y8757D01*
X60416Y8634D01*
X60601Y8558D01*
X60800Y8531D01*
X60999Y8558D01*
X61184Y8634D01*
X61343Y8757D01*
X61466Y8916D01*
X61542Y9101D01*
X61569Y9300D01*
X61542Y9499D01*
X61466Y9684D01*
X61343Y9843D01*
X61184Y9966D01*
X60999Y10042D01*
X60800Y10069D01*
D02*
G37*
G36*
X47800Y9486D02*
X47614Y9449D01*
X47456Y9344D01*
X47351Y9186D01*
X47314Y9000D01*
X47351Y8814D01*
X47456Y8656D01*
X47614Y8551D01*
X47800Y8514D01*
X47986Y8551D01*
X48144Y8656D01*
X48249Y8814D01*
X48286Y9000D01*
X48249Y9186D01*
X48144Y9344D01*
X47986Y9449D01*
X47800Y9486D01*
D02*
G37*
G36*
X17700Y9386D02*
X17514Y9349D01*
X17356Y9244D01*
X17251Y9086D01*
X17214Y8900D01*
X17251Y8714D01*
X17356Y8556D01*
X17514Y8451D01*
X17700Y8414D01*
X17886Y8451D01*
X18044Y8556D01*
X18149Y8714D01*
X18186Y8900D01*
X18149Y9086D01*
X18044Y9244D01*
X17886Y9349D01*
X17700Y9386D01*
D02*
G37*
G36*
X3700Y9434D02*
X3478Y9405D01*
X3271Y9319D01*
X3093Y9183D01*
X2957Y9005D01*
X2871Y8798D01*
X2842Y8576D01*
X2871Y8354D01*
X2957Y8147D01*
X3093Y7969D01*
X3271Y7833D01*
X3478Y7747D01*
X3700Y7718D01*
X3922Y7747D01*
X4129Y7833D01*
X4307Y7969D01*
X4443Y8147D01*
X4529Y8354D01*
X4558Y8576D01*
X4529Y8798D01*
X4443Y9005D01*
X4307Y9183D01*
X4129Y9319D01*
X3922Y9405D01*
X3700Y9434D01*
D02*
G37*
G36*
X30100Y8969D02*
X29901Y8942D01*
X29716Y8866D01*
X29557Y8743D01*
X29434Y8584D01*
X29358Y8399D01*
X29331Y8200D01*
X29358Y8001D01*
X29434Y7816D01*
X29557Y7657D01*
X29716Y7534D01*
X29901Y7458D01*
X30100Y7431D01*
X30299Y7458D01*
X30484Y7534D01*
X30643Y7657D01*
X30766Y7816D01*
X30842Y8001D01*
X30869Y8200D01*
X30842Y8399D01*
X30766Y8584D01*
X30643Y8743D01*
X30484Y8866D01*
X30299Y8942D01*
X30100Y8969D01*
D02*
G37*
G36*
X57900Y8569D02*
X57701Y8542D01*
X57516Y8466D01*
X57357Y8343D01*
X57234Y8184D01*
X57158Y7999D01*
X57131Y7800D01*
X57158Y7601D01*
X57234Y7416D01*
X57357Y7257D01*
X57516Y7134D01*
X57701Y7058D01*
X57900Y7031D01*
X58099Y7058D01*
X58284Y7134D01*
X58443Y7257D01*
X58566Y7416D01*
X58642Y7601D01*
X58669Y7800D01*
X58642Y7999D01*
X58566Y8184D01*
X58443Y8343D01*
X58284Y8466D01*
X58099Y8542D01*
X57900Y8569D01*
D02*
G37*
G36*
X62600Y8169D02*
X62401Y8142D01*
X62216Y8066D01*
X62057Y7943D01*
X61934Y7784D01*
X61858Y7599D01*
X61831Y7400D01*
X61858Y7201D01*
X61934Y7016D01*
X62057Y6857D01*
X62216Y6734D01*
X62401Y6658D01*
X62600Y6631D01*
X62799Y6658D01*
X62984Y6734D01*
X63143Y6857D01*
X63266Y7016D01*
X63342Y7201D01*
X63369Y7400D01*
X63342Y7599D01*
X63266Y7784D01*
X63143Y7943D01*
X62984Y8066D01*
X62799Y8142D01*
X62600Y8169D01*
D02*
G37*
G36*
X14300Y7286D02*
X14114Y7249D01*
X13956Y7144D01*
X13851Y6986D01*
X13814Y6800D01*
X13851Y6614D01*
X13956Y6456D01*
X14114Y6351D01*
X14300Y6314D01*
X14486Y6351D01*
X14644Y6456D01*
X14749Y6614D01*
X14786Y6800D01*
X14749Y6986D01*
X14644Y7144D01*
X14486Y7249D01*
X14300Y7286D01*
D02*
G37*
G36*
X17700Y7669D02*
X17501Y7642D01*
X17316Y7566D01*
X17157Y7443D01*
X17034Y7284D01*
X16958Y7099D01*
X16931Y6900D01*
X16958Y6701D01*
X17034Y6516D01*
X17157Y6357D01*
X17316Y6234D01*
X17501Y6158D01*
X17700Y6131D01*
X17899Y6158D01*
X18084Y6234D01*
X18243Y6357D01*
X18366Y6516D01*
X18442Y6701D01*
X18469Y6900D01*
X18442Y7099D01*
X18366Y7284D01*
X18243Y7443D01*
X18084Y7566D01*
X17899Y7642D01*
X17700Y7669D01*
D02*
G37*
G36*
X51700Y7086D02*
X51514Y7049D01*
X51356Y6944D01*
X51251Y6786D01*
X51214Y6600D01*
X51251Y6414D01*
X51356Y6256D01*
X51514Y6151D01*
X51700Y6114D01*
X51886Y6151D01*
X52044Y6256D01*
X52149Y6414D01*
X52186Y6600D01*
X52149Y6786D01*
X52044Y6944D01*
X51886Y7049D01*
X51700Y7086D01*
D02*
G37*
G36*
X48500Y6986D02*
X48314Y6949D01*
X48156Y6844D01*
X48051Y6686D01*
X48014Y6500D01*
X48051Y6314D01*
X48156Y6156D01*
X48314Y6051D01*
X48500Y6014D01*
X48686Y6051D01*
X48844Y6156D01*
X48949Y6314D01*
X48986Y6500D01*
X48949Y6686D01*
X48844Y6844D01*
X48686Y6949D01*
X48500Y6986D01*
D02*
G37*
G36*
X3700Y6934D02*
X3478Y6905D01*
X3271Y6819D01*
X3093Y6683D01*
X2957Y6505D01*
X2871Y6298D01*
X2842Y6076D01*
X2871Y5854D01*
X2957Y5647D01*
X3093Y5469D01*
X3271Y5332D01*
X3478Y5247D01*
X3700Y5217D01*
X3922Y5247D01*
X4129Y5332D01*
X4307Y5469D01*
X4443Y5647D01*
X4529Y5854D01*
X4558Y6076D01*
X4529Y6298D01*
X4443Y6505D01*
X4307Y6683D01*
X4129Y6819D01*
X3922Y6905D01*
X3700Y6934D01*
D02*
G37*
G36*
X62600Y5369D02*
X62401Y5342D01*
X62216Y5266D01*
X62057Y5143D01*
X61934Y4984D01*
X61858Y4799D01*
X61831Y4600D01*
X61858Y4401D01*
X61934Y4216D01*
X62057Y4057D01*
X62216Y3934D01*
X62401Y3858D01*
X62600Y3831D01*
X62799Y3858D01*
X62984Y3934D01*
X63143Y4057D01*
X63266Y4216D01*
X63342Y4401D01*
X63369Y4600D01*
X63342Y4799D01*
X63266Y4984D01*
X63143Y5143D01*
X62984Y5266D01*
X62799Y5342D01*
X62600Y5369D01*
D02*
G37*
G36*
X3700Y4434D02*
X3478Y4405D01*
X3271Y4319D01*
X3093Y4182D01*
X2957Y4005D01*
X2871Y3798D01*
X2842Y3576D01*
X2871Y3353D01*
X2957Y3146D01*
X3093Y2969D01*
X3271Y2832D01*
X3478Y2747D01*
X3700Y2717D01*
X3922Y2747D01*
X4129Y2832D01*
X4307Y2969D01*
X4443Y3146D01*
X4529Y3353D01*
X4558Y3576D01*
X4529Y3798D01*
X4443Y4005D01*
X4307Y4182D01*
X4129Y4319D01*
X3922Y4405D01*
X3700Y4434D01*
D02*
G37*
G36*
X30200Y3269D02*
X30001Y3242D01*
X29816Y3166D01*
X29657Y3043D01*
X29534Y2884D01*
X29458Y2699D01*
X29431Y2500D01*
X29458Y2301D01*
X29534Y2116D01*
X29657Y1957D01*
X29816Y1834D01*
X30001Y1758D01*
X30200Y1731D01*
X30399Y1758D01*
X30584Y1834D01*
X30743Y1957D01*
X30866Y2116D01*
X30942Y2301D01*
X30969Y2500D01*
X30942Y2699D01*
X30866Y2884D01*
X30743Y3043D01*
X30584Y3166D01*
X30399Y3242D01*
X30200Y3269D01*
D02*
G37*
G36*
X68400Y7911D02*
X67913Y7873D01*
X67439Y7759D01*
X66988Y7572D01*
X66571Y7317D01*
X66200Y7000D01*
X65883Y6629D01*
X65628Y6212D01*
X65441Y5761D01*
X65327Y5287D01*
X65289Y4800D01*
X65327Y4313D01*
X65441Y3839D01*
X65628Y3388D01*
X65883Y2971D01*
X66200Y2600D01*
X66571Y2283D01*
X66988Y2028D01*
X67439Y1841D01*
X67913Y1727D01*
X68400Y1689D01*
X68887Y1727D01*
X69361Y1841D01*
X69812Y2028D01*
X70229Y2283D01*
X70600Y2600D01*
X70917Y2971D01*
X71172Y3388D01*
X71359Y3839D01*
X71473Y4313D01*
X71511Y4800D01*
X71473Y5287D01*
X71359Y5761D01*
X71172Y6212D01*
X70917Y6629D01*
X70600Y7000D01*
X70229Y7317D01*
X69812Y7572D01*
X69361Y7759D01*
X68887Y7873D01*
X68400Y7911D01*
D02*
G37*
%LPD*%
D10*
X34482Y58373D02*
X35800Y57055D01*
D26*
X29300Y59600D02*
D03*
X43500Y58300D02*
D03*
X34482Y58373D02*
D03*
X29700Y54200D02*
D03*
X37800Y58200D02*
D03*
X23300Y61100D02*
D03*
X26700Y32400D02*
D03*
X31100Y34100D02*
D03*
X46300Y31800D02*
D03*
X38200Y47900D02*
D03*
Y34600D02*
D03*
D79*
X35800Y54800D02*
Y55200D01*
Y57055D01*
Y54000D02*
Y54400D01*
Y54800D01*
Y53600D02*
Y54000D01*
D84*
X4800Y54400D02*
D03*
X9000D02*
D03*
D86*
X62000Y43800D02*
D03*
X66000Y29800D02*
D03*
Y33800D02*
D03*
Y37800D02*
D03*
D88*
X34600Y20700D02*
D03*
X30300Y17000D02*
D03*
X32400Y16600D02*
D03*
X36500Y18900D02*
D03*
X32400Y13500D02*
D03*
D89*
X12800Y1100D02*
D03*
X24800Y1800D02*
D03*
X21900D02*
D03*
X35800Y8200D02*
D03*
X26500Y25300D02*
D03*
X19100Y1800D02*
D03*
D90*
X35800Y55200D02*
D03*
Y54400D02*
D03*
X35000Y52400D02*
D03*
X35800Y54800D02*
D03*
Y54000D02*
D03*
Y53600D02*
D03*
M02*
