G04*
G04 #@! TF.GenerationSoftware,Altium Limited,Altium Designer,20.2.6 (244)*
G04*
G04 Layer_Color=255*
%FSLAX43Y43*%
%MOMM*%
G71*
G04*
G04 #@! TF.SameCoordinates,AB413B8A-FF02-4A9D-ADD2-1BA9649D16F0*
G04*
G04*
G04 #@! TF.FilePolarity,Positive*
G04*
G01*
G75*
%ADD21C,0.250*%
%ADD22R,0.500X0.550*%
%ADD23R,0.900X1.000*%
%ADD24R,0.350X1.400*%
%ADD25R,1.000X0.900*%
%ADD26C,0.500*%
%ADD27R,0.850X0.700*%
%ADD28R,0.800X0.800*%
%ADD29R,1.000X1.400*%
%ADD30R,1.150X1.350*%
%ADD31R,2.400X3.200*%
%ADD32R,3.750X3.700*%
%ADD33R,0.550X0.500*%
%ADD34R,0.600X0.600*%
%ADD35R,0.580X0.580*%
%ADD36R,0.580X0.580*%
%ADD37R,1.328X0.279*%
%ADD38R,0.900X0.800*%
%ADD39R,0.350X0.600*%
%ADD40R,0.700X0.850*%
%ADD41R,1.450X2.950*%
%ADD42R,3.208X1.155*%
%ADD43R,1.100X1.250*%
%ADD44R,3.200X2.400*%
%ADD45R,1.500X1.300*%
%ADD66C,2.108*%
%ADD67R,2.108X2.108*%
%ADD74C,1.499*%
%ADD83R,2.300X2.300*%
%ADD84C,2.300*%
%ADD85C,3.000*%
%ADD86C,3.200*%
%ADD87C,6.000*%
D21*
X34600Y55200D02*
D03*
X35000D02*
D03*
X35400D02*
D03*
X35800D02*
D03*
X36200D02*
D03*
X36600D02*
D03*
X37000D02*
D03*
X34600Y54800D02*
D03*
X35000D02*
D03*
X35400D02*
D03*
X35800D02*
D03*
X36200D02*
D03*
X36600D02*
D03*
X37000D02*
D03*
X34600Y54400D02*
D03*
X35000D02*
D03*
X35400D02*
D03*
X35800D02*
D03*
X36200D02*
D03*
X36600D02*
D03*
X37000D02*
D03*
X34600Y54000D02*
D03*
X35000D02*
D03*
X35400D02*
D03*
X35800D02*
D03*
X36200D02*
D03*
X36600D02*
D03*
X37000D02*
D03*
X34600Y53600D02*
D03*
X35000D02*
D03*
X35400D02*
D03*
X35800D02*
D03*
X36200D02*
D03*
X36600D02*
D03*
X37000D02*
D03*
X34600Y53200D02*
D03*
X35000D02*
D03*
X35400D02*
D03*
X35800D02*
D03*
X36200D02*
D03*
X36600D02*
D03*
X37000D02*
D03*
X34600Y52800D02*
D03*
X35000D02*
D03*
X35400D02*
D03*
X35800D02*
D03*
X36200D02*
D03*
X36600D02*
D03*
X37000D02*
D03*
X34600Y52400D02*
D03*
X35000D02*
D03*
X35400D02*
D03*
X35800D02*
D03*
X36200D02*
D03*
X36600D02*
D03*
X37000D02*
D03*
D22*
X50675Y5900D02*
D03*
X49725D02*
D03*
X50675Y3796D02*
D03*
X49725D02*
D03*
Y4848D02*
D03*
X50675D02*
D03*
X30475Y5548D02*
D03*
X29525D02*
D03*
X30475Y6600D02*
D03*
X29525D02*
D03*
X30475Y4496D02*
D03*
X29525D02*
D03*
X48775Y10900D02*
D03*
X47825D02*
D03*
X48652Y12400D02*
D03*
X47702D02*
D03*
X29075Y11200D02*
D03*
X28125D02*
D03*
X29075Y12800D02*
D03*
X28125D02*
D03*
D23*
X32300Y57800D02*
D03*
X30700D02*
D03*
X26600Y59300D02*
D03*
X25000D02*
D03*
X39300Y55200D02*
D03*
X40900D02*
D03*
X39000Y53400D02*
D03*
X40600D02*
D03*
X32900Y53446D02*
D03*
X31300D02*
D03*
D24*
X44425Y11375D02*
D03*
X45075D02*
D03*
X45725D02*
D03*
X46375D02*
D03*
Y5625D02*
D03*
X45725D02*
D03*
X45075D02*
D03*
X44425D02*
D03*
X24729Y11375D02*
D03*
X25379D02*
D03*
X26029D02*
D03*
X26679D02*
D03*
Y5625D02*
D03*
X26029D02*
D03*
X25379D02*
D03*
X24729D02*
D03*
D25*
X39200Y57100D02*
D03*
Y58700D02*
D03*
D26*
X13000Y37400D02*
D03*
X54000Y34000D02*
D03*
X34000Y34400D02*
D03*
X48400Y71300D02*
D03*
X53500Y71000D02*
D03*
X7800Y37400D02*
D03*
X36900Y46200D02*
D03*
X28000Y51800D02*
D03*
X2400Y37400D02*
D03*
X24100Y55600D02*
D03*
X20600Y34000D02*
D03*
X46900Y40000D02*
D03*
X24700Y61600D02*
D03*
D27*
X25000Y43650D02*
D03*
Y44950D02*
D03*
X45200Y51550D02*
D03*
Y52850D02*
D03*
Y57850D02*
D03*
Y56550D02*
D03*
X36900Y50150D02*
D03*
Y48850D02*
D03*
X42300Y56550D02*
D03*
Y55250D02*
D03*
D28*
X22425Y43700D02*
D03*
X20775D02*
D03*
D29*
X16950Y46300D02*
D03*
X15050D02*
D03*
X16000Y44100D02*
D03*
D30*
X46975Y63600D02*
D03*
X48625D02*
D03*
X51725Y53000D02*
D03*
X50075D02*
D03*
X49975Y49700D02*
D03*
X51625D02*
D03*
X40975Y46800D02*
D03*
X42625D02*
D03*
D31*
X10450Y3900D02*
D03*
X15350D02*
D03*
Y9600D02*
D03*
X10450D02*
D03*
X15150Y16000D02*
D03*
X10250D02*
D03*
X10150Y22400D02*
D03*
X15050D02*
D03*
D32*
X20900Y6325D02*
D03*
Y12675D02*
D03*
X39900Y12975D02*
D03*
Y6625D02*
D03*
D33*
X49900Y11725D02*
D03*
Y12675D02*
D03*
X48900Y15875D02*
D03*
Y14925D02*
D03*
X33200Y50875D02*
D03*
Y49925D02*
D03*
X31800Y51075D02*
D03*
Y50125D02*
D03*
X30596Y51966D02*
D03*
Y51016D02*
D03*
X30600Y48775D02*
D03*
Y47825D02*
D03*
X29500Y15225D02*
D03*
Y16175D02*
D03*
X30288Y11875D02*
D03*
Y10925D02*
D03*
D34*
X43900Y24860D02*
D03*
Y23940D02*
D03*
X36000Y23760D02*
D03*
Y22840D02*
D03*
D35*
X32486Y55000D02*
D03*
X33406D02*
D03*
X33740Y2400D02*
D03*
X34660D02*
D03*
X54260Y2700D02*
D03*
X53340D02*
D03*
X21260Y38000D02*
D03*
X20340D02*
D03*
X40240Y38900D02*
D03*
X41160D02*
D03*
D36*
X35500Y57460D02*
D03*
Y56540D02*
D03*
X36996Y57414D02*
D03*
Y56494D02*
D03*
D37*
X28387Y21599D02*
D03*
Y22100D02*
D03*
Y22600D02*
D03*
Y23100D02*
D03*
Y23601D02*
D03*
X32813D02*
D03*
Y23100D02*
D03*
Y22600D02*
D03*
Y22100D02*
D03*
Y21599D02*
D03*
X46687Y22299D02*
D03*
Y22800D02*
D03*
Y23300D02*
D03*
Y23800D02*
D03*
Y24301D02*
D03*
X51113D02*
D03*
Y23800D02*
D03*
Y23300D02*
D03*
Y22800D02*
D03*
Y22299D02*
D03*
X26787Y35299D02*
D03*
Y35800D02*
D03*
Y36300D02*
D03*
Y36800D02*
D03*
Y37301D02*
D03*
X31213D02*
D03*
Y36800D02*
D03*
Y36300D02*
D03*
Y35800D02*
D03*
Y35299D02*
D03*
X46287D02*
D03*
Y35800D02*
D03*
Y36300D02*
D03*
Y36800D02*
D03*
Y37301D02*
D03*
X50713D02*
D03*
Y36800D02*
D03*
Y36300D02*
D03*
Y35800D02*
D03*
Y35299D02*
D03*
D38*
X44600Y17200D02*
D03*
X46600Y18150D02*
D03*
Y16250D02*
D03*
X24904Y17225D02*
D03*
X26904Y18175D02*
D03*
Y16275D02*
D03*
D39*
X52750Y17900D02*
D03*
X52050D02*
D03*
X52850Y14900D02*
D03*
X52150D02*
D03*
X32550Y17900D02*
D03*
X33250D02*
D03*
X32550Y14900D02*
D03*
X33250D02*
D03*
D40*
X43650Y49500D02*
D03*
X42350D02*
D03*
X38850Y50500D02*
D03*
X40150D02*
D03*
X29050Y49700D02*
D03*
X27750D02*
D03*
D41*
X32950Y60900D02*
D03*
X36050D02*
D03*
D42*
X56600Y4317D02*
D03*
Y10018D02*
D03*
X35104Y10076D02*
D03*
Y4374D02*
D03*
D43*
X46237Y29150D02*
D03*
Y30850D02*
D03*
X41429Y29150D02*
D03*
Y30850D02*
D03*
X43833Y29150D02*
D03*
Y30850D02*
D03*
X48642Y29150D02*
D03*
Y30850D02*
D03*
X51046Y29150D02*
D03*
Y30850D02*
D03*
X28400Y29150D02*
D03*
Y30850D02*
D03*
X23496Y29150D02*
D03*
Y30850D02*
D03*
X25996Y29150D02*
D03*
Y30850D02*
D03*
X30804Y29150D02*
D03*
Y30850D02*
D03*
X33209Y29150D02*
D03*
Y30850D02*
D03*
D44*
X4000Y28250D02*
D03*
Y23350D02*
D03*
D45*
X54100Y61450D02*
D03*
Y59550D02*
D03*
D66*
X29406Y71004D02*
D03*
Y67600D02*
D03*
X19500D02*
D03*
D67*
Y71004D02*
D03*
D74*
X3700Y13576D02*
D03*
Y11076D02*
D03*
Y8576D02*
D03*
Y6076D02*
D03*
Y3576D02*
D03*
D83*
X4800Y59900D02*
D03*
D84*
X9000D02*
D03*
X4800Y54400D02*
D03*
X9000D02*
D03*
D85*
X6900Y67200D02*
D03*
D86*
X62000Y27800D02*
D03*
Y31800D02*
D03*
Y35800D02*
D03*
Y39800D02*
D03*
Y43800D02*
D03*
X66000Y29800D02*
D03*
Y33800D02*
D03*
Y37800D02*
D03*
Y41800D02*
D03*
X70000Y27800D02*
D03*
Y31800D02*
D03*
Y35800D02*
D03*
Y39800D02*
D03*
Y43800D02*
D03*
Y55800D02*
D03*
Y51800D02*
D03*
Y47800D02*
D03*
X66000Y53800D02*
D03*
Y49800D02*
D03*
Y45800D02*
D03*
X62000Y55800D02*
D03*
Y51800D02*
D03*
Y47800D02*
D03*
D87*
X37300Y69900D02*
D03*
X68400Y4800D02*
D03*
X5100Y44800D02*
D03*
M02*
