G04*
G04 #@! TF.GenerationSoftware,Altium Limited,Altium Designer,20.2.6 (244)*
G04*
G04 Layer_Color=8421504*
%FSLAX43Y43*%
%MOMM*%
G71*
G04*
G04 #@! TF.SameCoordinates,FA062CC2-BDA9-49B4-8C39-6F0F36F1006C*
G04*
G04*
G04 #@! TF.FilePolarity,Positive*
G04*
G01*
G75*
%ADD21C,0.500*%
%ADD22R,0.850X0.700*%
%ADD23R,0.800X0.800*%
%ADD24R,1.000X1.400*%
%ADD25R,0.550X0.500*%
%ADD26R,1.150X1.350*%
%ADD27R,2.400X3.200*%
%ADD28R,3.750X3.700*%
%ADD29R,0.500X0.550*%
%ADD30R,0.600X0.600*%
%ADD31R,0.580X0.580*%
%ADD32R,0.580X0.580*%
%ADD33C,0.279*%
%ADD34R,1.328X0.279*%
%ADD35R,0.900X0.800*%
%ADD36R,0.350X0.600*%
%ADD37R,0.700X0.850*%
%ADD38R,0.900X1.000*%
%ADD39R,1.450X2.950*%
%ADD40R,3.208X1.155*%
%ADD41R,2.300X2.600*%
%ADD42R,0.300X0.790*%
%ADD43R,1.100X1.250*%
%ADD44R,3.200X2.400*%
%ADD45R,1.500X1.300*%
D21*
X13000Y37400D02*
D03*
X54000Y34000D02*
D03*
X34000Y34400D02*
D03*
X48400Y71300D02*
D03*
X53500Y71000D02*
D03*
X7800Y37400D02*
D03*
X36900Y46200D02*
D03*
X28000Y51800D02*
D03*
X2400Y37400D02*
D03*
X24100Y55600D02*
D03*
X28500Y60200D02*
D03*
X20600Y34000D02*
D03*
X46900Y40000D02*
D03*
X24700Y61600D02*
D03*
D22*
X25000Y43650D02*
D03*
Y44950D02*
D03*
X45200Y51550D02*
D03*
Y52850D02*
D03*
Y57850D02*
D03*
Y56550D02*
D03*
X36900Y50150D02*
D03*
Y48850D02*
D03*
X42300Y56550D02*
D03*
Y55250D02*
D03*
D23*
X22425Y43700D02*
D03*
X20775D02*
D03*
D24*
X16950Y46300D02*
D03*
X15050D02*
D03*
X16000Y44100D02*
D03*
D25*
X29500Y6675D02*
D03*
Y5725D02*
D03*
X30800Y6675D02*
D03*
Y5725D02*
D03*
X49900Y11725D02*
D03*
Y12675D02*
D03*
X48900Y15875D02*
D03*
Y14925D02*
D03*
X33200Y50875D02*
D03*
Y49925D02*
D03*
X31800Y51075D02*
D03*
Y50125D02*
D03*
X30596Y51966D02*
D03*
Y51016D02*
D03*
X30600Y48775D02*
D03*
Y47825D02*
D03*
X50000Y6250D02*
D03*
Y7200D02*
D03*
X51300Y6250D02*
D03*
Y7200D02*
D03*
X29500Y15225D02*
D03*
Y16175D02*
D03*
X30288Y11875D02*
D03*
Y10925D02*
D03*
D26*
X46975Y63600D02*
D03*
X48625D02*
D03*
X51725Y53000D02*
D03*
X50075D02*
D03*
X49975Y49700D02*
D03*
X51625D02*
D03*
X40975Y46800D02*
D03*
X42625D02*
D03*
D27*
X10450Y3900D02*
D03*
X15350D02*
D03*
Y9600D02*
D03*
X10450D02*
D03*
X15150Y16000D02*
D03*
X10250D02*
D03*
X10150Y22400D02*
D03*
X15050D02*
D03*
D28*
X20900Y6325D02*
D03*
Y12675D02*
D03*
X39900Y12975D02*
D03*
Y6625D02*
D03*
D29*
X47775Y12500D02*
D03*
X46825D02*
D03*
X49075Y11200D02*
D03*
X48125D02*
D03*
X27375Y12400D02*
D03*
X26425D02*
D03*
X29075Y11000D02*
D03*
X28125D02*
D03*
D30*
X43900Y24860D02*
D03*
Y23940D02*
D03*
X36000Y23760D02*
D03*
Y22840D02*
D03*
D31*
X32486Y55000D02*
D03*
X33406D02*
D03*
X39640Y55200D02*
D03*
X40560D02*
D03*
X25340Y59300D02*
D03*
X26260D02*
D03*
X33740Y2400D02*
D03*
X34660D02*
D03*
X54260Y2700D02*
D03*
X53340D02*
D03*
X21260Y38000D02*
D03*
X20340D02*
D03*
X40240Y38900D02*
D03*
X41160D02*
D03*
D32*
X33700Y56540D02*
D03*
Y57460D02*
D03*
X35500D02*
D03*
Y56540D02*
D03*
X36996Y57414D02*
D03*
Y56494D02*
D03*
X38692Y57408D02*
D03*
Y58328D02*
D03*
D33*
X37000Y52400D02*
D03*
X36600D02*
D03*
X36200D02*
D03*
X35800D02*
D03*
X35400D02*
D03*
X35000D02*
D03*
X34600D02*
D03*
X37000Y52800D02*
D03*
X36600D02*
D03*
X36200D02*
D03*
X35800D02*
D03*
X35400D02*
D03*
X35000D02*
D03*
X34600D02*
D03*
X37000Y53200D02*
D03*
X36600D02*
D03*
X36200D02*
D03*
X35800D02*
D03*
X35400D02*
D03*
X35000D02*
D03*
X34600D02*
D03*
X37000Y53600D02*
D03*
X36600D02*
D03*
X36200D02*
D03*
X35800D02*
D03*
X35400D02*
D03*
X35000D02*
D03*
X34600D02*
D03*
X37000Y54000D02*
D03*
X36600D02*
D03*
X36200D02*
D03*
X35800D02*
D03*
X35400D02*
D03*
X35000D02*
D03*
X34600D02*
D03*
X37000Y54400D02*
D03*
X36600D02*
D03*
X36200D02*
D03*
X35800D02*
D03*
X35400D02*
D03*
X35000D02*
D03*
X34600D02*
D03*
X37000Y54800D02*
D03*
X36600D02*
D03*
X36200D02*
D03*
X35800D02*
D03*
X35400D02*
D03*
X35000D02*
D03*
X34600D02*
D03*
X37000Y55200D02*
D03*
X36600D02*
D03*
X36200D02*
D03*
X35800D02*
D03*
X35400D02*
D03*
X35000D02*
D03*
X34600D02*
D03*
D34*
X28387Y21599D02*
D03*
Y22100D02*
D03*
Y22600D02*
D03*
Y23100D02*
D03*
Y23601D02*
D03*
X32813D02*
D03*
Y23100D02*
D03*
Y22600D02*
D03*
Y22100D02*
D03*
Y21599D02*
D03*
X46687Y22299D02*
D03*
Y22800D02*
D03*
Y23300D02*
D03*
Y23800D02*
D03*
Y24301D02*
D03*
X51113D02*
D03*
Y23800D02*
D03*
Y23300D02*
D03*
Y22800D02*
D03*
Y22299D02*
D03*
X26787Y35299D02*
D03*
Y35800D02*
D03*
Y36300D02*
D03*
Y36800D02*
D03*
Y37301D02*
D03*
X31213D02*
D03*
Y36800D02*
D03*
Y36300D02*
D03*
Y35800D02*
D03*
Y35299D02*
D03*
X46287D02*
D03*
Y35800D02*
D03*
Y36300D02*
D03*
Y36800D02*
D03*
Y37301D02*
D03*
X50713D02*
D03*
Y36800D02*
D03*
Y36300D02*
D03*
Y35800D02*
D03*
Y35299D02*
D03*
D35*
X44600Y17200D02*
D03*
X46600Y18150D02*
D03*
Y16250D02*
D03*
X24904Y17225D02*
D03*
X26904Y18175D02*
D03*
Y16275D02*
D03*
D36*
X52750Y17900D02*
D03*
X52050D02*
D03*
X52850Y14900D02*
D03*
X52150D02*
D03*
X32550Y17900D02*
D03*
X33250D02*
D03*
X32550Y14900D02*
D03*
X33250D02*
D03*
D37*
X43650Y49500D02*
D03*
X42350D02*
D03*
X38850Y50500D02*
D03*
X40150D02*
D03*
X29050Y49700D02*
D03*
X27750D02*
D03*
D38*
X39000Y53400D02*
D03*
X40600D02*
D03*
X32900Y53446D02*
D03*
X31300D02*
D03*
D39*
X32950Y60900D02*
D03*
X36050D02*
D03*
D40*
X56600Y4317D02*
D03*
Y10018D02*
D03*
X35104Y10076D02*
D03*
Y4374D02*
D03*
D41*
X46000Y9700D02*
D03*
X25704Y9625D02*
D03*
D42*
X45000Y11620D02*
D03*
X45500D02*
D03*
X46000D02*
D03*
X46500D02*
D03*
X47000D02*
D03*
Y7780D02*
D03*
X46500D02*
D03*
X46000D02*
D03*
X45500D02*
D03*
X45000D02*
D03*
X24704Y11545D02*
D03*
X25204D02*
D03*
X25704D02*
D03*
X26204D02*
D03*
X26704D02*
D03*
Y7705D02*
D03*
X26204D02*
D03*
X25704D02*
D03*
X25204D02*
D03*
X24704D02*
D03*
D43*
X46237Y29150D02*
D03*
Y30850D02*
D03*
X41429Y29150D02*
D03*
Y30850D02*
D03*
X43833Y29150D02*
D03*
Y30850D02*
D03*
X48642Y29150D02*
D03*
Y30850D02*
D03*
X51046Y29150D02*
D03*
Y30850D02*
D03*
X28400Y29150D02*
D03*
Y30850D02*
D03*
X23496Y29150D02*
D03*
Y30850D02*
D03*
X25996Y29150D02*
D03*
Y30850D02*
D03*
X30804Y29150D02*
D03*
Y30850D02*
D03*
X33209Y29150D02*
D03*
Y30850D02*
D03*
D44*
X4000Y28250D02*
D03*
Y23350D02*
D03*
D45*
X54100Y61450D02*
D03*
Y59550D02*
D03*
M02*
