G04*
G04 #@! TF.GenerationSoftware,Altium Limited,Altium Designer,20.2.6 (244)*
G04*
G04 Layer_Color=32896*
%FSLAX43Y43*%
%MOMM*%
G71*
G04*
G04 #@! TF.SameCoordinates,AB413B8A-FF02-4A9D-ADD2-1BA9649D16F0*
G04*
G04*
G04 #@! TF.FilePolarity,Positive*
G04*
G01*
G75*
%ADD17C,0.200*%
G36*
X27088Y20416D02*
X34112D01*
Y24784D01*
X27088D01*
Y20416D01*
D02*
G37*
G36*
X32512Y38484D02*
X25488D01*
Y34116D01*
X32512D01*
Y38484D01*
D02*
G37*
G36*
X45388Y21116D02*
X52412D01*
Y25484D01*
X45388D01*
Y21116D01*
D02*
G37*
G36*
X52012Y38484D02*
X44988D01*
Y34116D01*
X52012D01*
Y38484D01*
D02*
G37*
G36*
X25944Y9535D02*
X25960Y9534D01*
X25976Y9531D01*
X25989Y9527D01*
X26002Y9523D01*
X26015Y9518D01*
X26026Y9512D01*
X26037Y9508D01*
X26046Y9502D01*
X26054Y9497D01*
X26061Y9492D01*
X26067Y9487D01*
X26072Y9484D01*
X26074Y9481D01*
X26076Y9479D01*
X26077Y9478D01*
X26087Y9467D01*
X26097Y9456D01*
X26104Y9444D01*
X26110Y9432D01*
X26117Y9420D01*
X26122Y9408D01*
X26128Y9386D01*
X26131Y9376D01*
X26133Y9366D01*
X26134Y9358D01*
X26135Y9351D01*
X26135Y9345D01*
Y9325D01*
X26134Y9314D01*
X26129Y9291D01*
X26123Y9271D01*
X26115Y9253D01*
X26108Y9238D01*
X26104Y9231D01*
X26101Y9226D01*
X26098Y9221D01*
X26097Y9218D01*
X26096Y9217D01*
X26095Y9216D01*
X26268Y9250D01*
Y9506D01*
X26343D01*
Y9188D01*
X26013Y9126D01*
X26003Y9200D01*
X26013Y9206D01*
X26022Y9215D01*
X26030Y9222D01*
X26037Y9229D01*
X26041Y9237D01*
X26046Y9242D01*
X26048Y9246D01*
X26049Y9247D01*
X26054Y9259D01*
X26059Y9271D01*
X26061Y9282D01*
X26064Y9293D01*
X26065Y9302D01*
X26066Y9310D01*
Y9327D01*
X26064Y9339D01*
X26060Y9358D01*
X26053Y9375D01*
X26047Y9389D01*
X26039Y9401D01*
X26033Y9409D01*
X26028Y9413D01*
X26027Y9415D01*
X26026D01*
X26011Y9428D01*
X25994Y9437D01*
X25976Y9444D01*
X25959Y9449D01*
X25944Y9451D01*
X25938Y9452D01*
X25932D01*
X25927Y9453D01*
X25924D01*
X25922D01*
X25921D01*
X25908D01*
X25896Y9451D01*
X25873Y9447D01*
X25853Y9440D01*
X25838Y9434D01*
X25825Y9426D01*
X25815Y9420D01*
X25812Y9417D01*
X25809Y9415D01*
X25808Y9414D01*
X25807Y9413D01*
X25800Y9406D01*
X25793Y9399D01*
X25782Y9382D01*
X25775Y9366D01*
X25770Y9351D01*
X25767Y9338D01*
X25766Y9327D01*
X25765Y9323D01*
Y9317D01*
X25766Y9300D01*
X25769Y9284D01*
X25774Y9270D01*
X25779Y9259D01*
X25785Y9249D01*
X25790Y9241D01*
X25793Y9238D01*
X25794Y9236D01*
X25807Y9225D01*
X25821Y9216D01*
X25837Y9208D01*
X25851Y9203D01*
X25865Y9199D01*
X25875Y9196D01*
X25879Y9195D01*
X25882Y9194D01*
X25884D01*
X25885D01*
X25878Y9112D01*
X25864Y9114D01*
X25850Y9117D01*
X25824Y9125D01*
X25802Y9135D01*
X25792Y9141D01*
X25783Y9146D01*
X25775Y9151D01*
X25767Y9156D01*
X25762Y9161D01*
X25757Y9166D01*
X25754Y9169D01*
X25750Y9171D01*
X25749Y9173D01*
X25748Y9174D01*
X25740Y9185D01*
X25732Y9196D01*
X25726Y9208D01*
X25720Y9220D01*
X25712Y9243D01*
X25706Y9266D01*
X25704Y9277D01*
X25703Y9287D01*
X25702Y9295D01*
X25701Y9302D01*
X25700Y9309D01*
Y9317D01*
X25701Y9337D01*
X25704Y9355D01*
X25707Y9373D01*
X25712Y9388D01*
X25718Y9403D01*
X25725Y9417D01*
X25731Y9430D01*
X25739Y9441D01*
X25746Y9451D01*
X25753Y9461D01*
X25760Y9468D01*
X25766Y9474D01*
X25770Y9479D01*
X25774Y9483D01*
X25777Y9485D01*
X25778Y9486D01*
X25790Y9495D01*
X25803Y9502D01*
X25815Y9510D01*
X25828Y9515D01*
X25853Y9524D01*
X25877Y9530D01*
X25887Y9532D01*
X25897Y9534D01*
X25905Y9535D01*
X25913Y9535D01*
X25919Y9536D01*
X25924D01*
X25927D01*
X25927D01*
X25944Y9535D01*
D02*
G37*
G36*
X26351Y8918D02*
X25981D01*
X25960D01*
X25939Y8916D01*
X25922Y8914D01*
X25905Y8911D01*
X25890Y8909D01*
X25877Y8905D01*
X25865Y8902D01*
X25854Y8898D01*
X25846Y8895D01*
X25838Y8891D01*
X25832Y8887D01*
X25827Y8885D01*
X25823Y8882D01*
X25820Y8880D01*
X25819Y8879D01*
X25818Y8878D01*
X25811Y8870D01*
X25804Y8861D01*
X25794Y8840D01*
X25787Y8819D01*
X25782Y8797D01*
X25779Y8776D01*
X25778Y8768D01*
Y8760D01*
X25777Y8754D01*
Y8745D01*
X25778Y8726D01*
X25780Y8708D01*
X25783Y8691D01*
X25788Y8678D01*
X25792Y8667D01*
X25794Y8659D01*
X25797Y8654D01*
X25798Y8653D01*
X25806Y8640D01*
X25816Y8628D01*
X25827Y8619D01*
X25836Y8613D01*
X25845Y8607D01*
X25852Y8603D01*
X25856Y8601D01*
X25858Y8600D01*
X25866Y8597D01*
X25875Y8595D01*
X25894Y8592D01*
X25914Y8589D01*
X25935Y8587D01*
X25952Y8586D01*
X25961D01*
X25967Y8585D01*
X25973D01*
X25977D01*
X25980D01*
X25981D01*
X26351D01*
Y8500D01*
X25981D01*
X25963D01*
X25945Y8501D01*
X25928Y8502D01*
X25913Y8504D01*
X25899Y8506D01*
X25886Y8507D01*
X25874Y8510D01*
X25863Y8512D01*
X25853Y8514D01*
X25844Y8517D01*
X25837Y8518D01*
X25831Y8520D01*
X25827Y8522D01*
X25823Y8523D01*
X25821Y8524D01*
X25820D01*
X25800Y8534D01*
X25781Y8547D01*
X25767Y8560D01*
X25754Y8574D01*
X25743Y8586D01*
X25736Y8596D01*
X25734Y8600D01*
X25732Y8603D01*
X25730Y8604D01*
Y8605D01*
X25720Y8628D01*
X25713Y8653D01*
X25707Y8677D01*
X25704Y8701D01*
X25703Y8711D01*
X25702Y8721D01*
X25701Y8730D01*
Y8738D01*
X25700Y8744D01*
Y8752D01*
X25702Y8786D01*
X25704Y8800D01*
X25706Y8814D01*
X25708Y8828D01*
X25711Y8840D01*
X25714Y8851D01*
X25718Y8861D01*
X25721Y8871D01*
X25724Y8878D01*
X25727Y8886D01*
X25730Y8891D01*
X25732Y8896D01*
X25733Y8898D01*
X25735Y8900D01*
Y8901D01*
X25749Y8922D01*
X25765Y8938D01*
X25779Y8951D01*
X25794Y8962D01*
X25807Y8971D01*
X25817Y8976D01*
X25821Y8978D01*
X25824Y8980D01*
X25826Y8981D01*
X25827D01*
X25838Y8984D01*
X25850Y8988D01*
X25875Y8994D01*
X25901Y8997D01*
X25926Y9000D01*
X25937Y9001D01*
X25948Y9002D01*
X25957D01*
X25965Y9003D01*
X25972D01*
X25976D01*
X25980D01*
X25981D01*
X26351D01*
Y8918D01*
D02*
G37*
G36*
X45637Y9440D02*
X46051D01*
Y9376D01*
X45637Y9083D01*
X45565D01*
Y9362D01*
X45411D01*
Y9440D01*
X45565D01*
Y9527D01*
X45637D01*
Y9440D01*
D02*
G37*
G36*
X46051Y8916D02*
X45681D01*
X45660D01*
X45639Y8914D01*
X45622Y8912D01*
X45605Y8910D01*
X45590Y8907D01*
X45577Y8903D01*
X45565Y8900D01*
X45554Y8897D01*
X45546Y8893D01*
X45538Y8889D01*
X45532Y8886D01*
X45527Y8883D01*
X45523Y8880D01*
X45520Y8878D01*
X45519Y8877D01*
X45518Y8876D01*
X45511Y8868D01*
X45504Y8859D01*
X45494Y8838D01*
X45487Y8817D01*
X45482Y8795D01*
X45479Y8775D01*
X45478Y8766D01*
Y8758D01*
X45477Y8752D01*
Y8743D01*
X45478Y8724D01*
X45480Y8706D01*
X45483Y8690D01*
X45488Y8677D01*
X45492Y8665D01*
X45494Y8657D01*
X45497Y8653D01*
X45498Y8651D01*
X45506Y8638D01*
X45516Y8627D01*
X45527Y8617D01*
X45536Y8611D01*
X45545Y8605D01*
X45552Y8601D01*
X45556Y8599D01*
X45558Y8598D01*
X45566Y8595D01*
X45575Y8593D01*
X45594Y8590D01*
X45614Y8587D01*
X45635Y8585D01*
X45652Y8584D01*
X45661D01*
X45667Y8583D01*
X45673D01*
X45677D01*
X45680D01*
X45681D01*
X46051D01*
Y8498D01*
X45681D01*
X45663D01*
X45645Y8499D01*
X45628Y8500D01*
X45613Y8502D01*
X45599Y8504D01*
X45586Y8506D01*
X45574Y8508D01*
X45563Y8510D01*
X45553Y8512D01*
X45544Y8515D01*
X45537Y8517D01*
X45531Y8518D01*
X45527Y8520D01*
X45523Y8521D01*
X45521Y8522D01*
X45520D01*
X45500Y8532D01*
X45481Y8545D01*
X45467Y8558D01*
X45454Y8572D01*
X45443Y8584D01*
X45436Y8594D01*
X45434Y8598D01*
X45432Y8601D01*
X45431Y8603D01*
Y8604D01*
X45420Y8627D01*
X45413Y8651D01*
X45407Y8676D01*
X45404Y8699D01*
X45403Y8709D01*
X45402Y8719D01*
X45401Y8728D01*
Y8736D01*
X45400Y8742D01*
Y8751D01*
X45402Y8784D01*
X45404Y8799D01*
X45406Y8812D01*
X45408Y8826D01*
X45411Y8838D01*
X45414Y8849D01*
X45418Y8860D01*
X45421Y8869D01*
X45424Y8876D01*
X45427Y8884D01*
X45430Y8889D01*
X45432Y8894D01*
X45433Y8897D01*
X45435Y8898D01*
Y8899D01*
X45449Y8920D01*
X45465Y8936D01*
X45479Y8949D01*
X45494Y8960D01*
X45507Y8969D01*
X45517Y8974D01*
X45521Y8976D01*
X45524Y8978D01*
X45526Y8979D01*
X45527D01*
X45538Y8983D01*
X45550Y8986D01*
X45575Y8992D01*
X45601Y8996D01*
X45626Y8998D01*
X45637Y8999D01*
X45648Y9000D01*
X45657D01*
X45665Y9001D01*
X45672D01*
X45676D01*
X45680D01*
X45681D01*
X46051D01*
Y8916D01*
D02*
G37*
G36*
X56589Y7115D02*
X56305D01*
Y7006D01*
X56306Y6996D01*
Y6988D01*
X56307Y6982D01*
X56308Y6977D01*
Y6973D01*
X56309Y6972D01*
Y6971D01*
X56313Y6956D01*
X56316Y6949D01*
X56319Y6944D01*
X56322Y6938D01*
X56324Y6935D01*
X56324Y6933D01*
X56325Y6932D01*
X56331Y6924D01*
X56337Y6917D01*
X56351Y6903D01*
X56358Y6897D01*
X56363Y6892D01*
X56367Y6889D01*
X56368Y6888D01*
X56381Y6879D01*
X56395Y6869D01*
X56410Y6859D01*
X56423Y6849D01*
X56436Y6840D01*
X56447Y6834D01*
X56450Y6831D01*
X56453Y6829D01*
X56455Y6827D01*
X56456D01*
X56589Y6743D01*
Y6638D01*
X56415Y6748D01*
X56397Y6761D01*
X56380Y6773D01*
X56366Y6785D01*
X56353Y6795D01*
X56344Y6804D01*
X56337Y6812D01*
X56332Y6816D01*
X56330Y6818D01*
X56324Y6826D01*
X56318Y6834D01*
X56308Y6851D01*
X56304Y6858D01*
X56300Y6863D01*
X56299Y6867D01*
X56298Y6869D01*
X56295Y6852D01*
X56292Y6837D01*
X56288Y6823D01*
X56284Y6809D01*
X56279Y6797D01*
X56274Y6786D01*
X56269Y6776D01*
X56264Y6766D01*
X56259Y6759D01*
X56254Y6752D01*
X56251Y6746D01*
X56247Y6741D01*
X56244Y6738D01*
X56241Y6735D01*
X56240Y6734D01*
X56239Y6733D01*
X56230Y6726D01*
X56221Y6718D01*
X56202Y6707D01*
X56182Y6700D01*
X56164Y6694D01*
X56148Y6691D01*
X56141Y6690D01*
X56135D01*
X56130Y6689D01*
X56127D01*
X56125D01*
X56124D01*
X56104Y6690D01*
X56087Y6692D01*
X56070Y6697D01*
X56056Y6702D01*
X56044Y6707D01*
X56035Y6711D01*
X56030Y6715D01*
X56029Y6716D01*
X56028D01*
X56013Y6727D01*
X56000Y6738D01*
X55989Y6750D01*
X55981Y6761D01*
X55974Y6771D01*
X55970Y6779D01*
X55968Y6785D01*
X55967Y6786D01*
Y6787D01*
X55964Y6795D01*
X55961Y6805D01*
X55957Y6826D01*
X55954Y6848D01*
X55951Y6868D01*
X55950Y6888D01*
Y6896D01*
X55949Y6903D01*
Y7200D01*
X56589D01*
Y7115D01*
D02*
G37*
G36*
X56435Y6336D02*
X56589D01*
Y6258D01*
X56435D01*
Y6171D01*
X56363D01*
Y6258D01*
X55949D01*
Y6322D01*
X56363Y6615D01*
X56435D01*
Y6336D01*
D02*
G37*
G36*
X56435Y6088D02*
X56448Y6085D01*
X56474Y6077D01*
X56496Y6067D01*
X56506Y6061D01*
X56515Y6055D01*
X56523Y6050D01*
X56530Y6044D01*
X56536Y6040D01*
X56541Y6035D01*
X56545Y6032D01*
X56547Y6030D01*
X56549Y6028D01*
X56550Y6027D01*
X56558Y6016D01*
X56567Y6005D01*
X56573Y5993D01*
X56579Y5981D01*
X56588Y5958D01*
X56594Y5936D01*
X56595Y5926D01*
X56597Y5917D01*
X56598Y5908D01*
X56599Y5901D01*
X56600Y5895D01*
Y5887D01*
X56599Y5870D01*
X56597Y5854D01*
X56594Y5838D01*
X56591Y5823D01*
X56586Y5809D01*
X56582Y5797D01*
X56576Y5785D01*
X56570Y5775D01*
X56566Y5765D01*
X56560Y5757D01*
X56556Y5749D01*
X56551Y5744D01*
X56547Y5739D01*
X56545Y5736D01*
X56543Y5734D01*
X56542Y5733D01*
X56531Y5722D01*
X56519Y5712D01*
X56507Y5704D01*
X56495Y5697D01*
X56484Y5691D01*
X56472Y5686D01*
X56449Y5678D01*
X56439Y5676D01*
X56430Y5674D01*
X56422Y5673D01*
X56414Y5672D01*
X56409Y5671D01*
X56404D01*
X56401D01*
X56400D01*
X56378Y5672D01*
X56358Y5675D01*
X56340Y5681D01*
X56325Y5687D01*
X56313Y5692D01*
X56304Y5698D01*
X56299Y5701D01*
X56297Y5702D01*
X56283Y5715D01*
X56271Y5729D01*
X56262Y5744D01*
X56254Y5759D01*
X56249Y5772D01*
X56245Y5782D01*
X56244Y5785D01*
X56243Y5788D01*
X56242Y5790D01*
Y5791D01*
X56234Y5775D01*
X56226Y5762D01*
X56216Y5751D01*
X56208Y5742D01*
X56201Y5735D01*
X56194Y5729D01*
X56190Y5726D01*
X56189Y5725D01*
X56176Y5718D01*
X56163Y5712D01*
X56150Y5708D01*
X56138Y5705D01*
X56128Y5703D01*
X56120Y5702D01*
X56115D01*
X56113D01*
X56097Y5703D01*
X56081Y5706D01*
X56067Y5710D01*
X56055Y5714D01*
X56045Y5719D01*
X56037Y5723D01*
X56032Y5725D01*
X56030Y5726D01*
X56017Y5736D01*
X56005Y5747D01*
X55994Y5758D01*
X55985Y5769D01*
X55979Y5778D01*
X55973Y5786D01*
X55970Y5792D01*
X55969Y5793D01*
Y5794D01*
X55962Y5810D01*
X55957Y5827D01*
X55952Y5844D01*
X55949Y5858D01*
X55947Y5871D01*
X55946Y5881D01*
Y5904D01*
X55948Y5917D01*
X55953Y5942D01*
X55960Y5963D01*
X55968Y5981D01*
X55972Y5990D01*
X55976Y5996D01*
X55980Y6003D01*
X55983Y6007D01*
X55986Y6011D01*
X55988Y6014D01*
X55989Y6016D01*
X55990Y6017D01*
X56007Y6034D01*
X56027Y6048D01*
X56047Y6059D01*
X56067Y6068D01*
X56085Y6074D01*
X56092Y6077D01*
X56099Y6079D01*
X56104Y6079D01*
X56108Y6080D01*
X56111Y6081D01*
X56112D01*
X56126Y6003D01*
X56105Y5999D01*
X56088Y5993D01*
X56073Y5987D01*
X56061Y5981D01*
X56052Y5974D01*
X56045Y5969D01*
X56041Y5965D01*
X56040Y5964D01*
X56030Y5952D01*
X56023Y5939D01*
X56018Y5927D01*
X56015Y5915D01*
X56013Y5904D01*
X56011Y5895D01*
Y5888D01*
X56012Y5871D01*
X56016Y5857D01*
X56020Y5844D01*
X56025Y5833D01*
X56030Y5824D01*
X56035Y5818D01*
X56039Y5813D01*
X56040Y5812D01*
X56051Y5802D01*
X56063Y5795D01*
X56075Y5790D01*
X56086Y5786D01*
X56096Y5785D01*
X56104Y5783D01*
X56109D01*
X56110D01*
X56111D01*
X56121D01*
X56130Y5785D01*
X56146Y5789D01*
X56160Y5796D01*
X56172Y5803D01*
X56180Y5810D01*
X56187Y5817D01*
X56190Y5821D01*
X56191Y5822D01*
Y5823D01*
X56200Y5839D01*
X56206Y5854D01*
X56211Y5870D01*
X56214Y5883D01*
X56215Y5895D01*
X56217Y5906D01*
Y5918D01*
X56216Y5921D01*
Y5926D01*
X56286Y5935D01*
X56283Y5923D01*
X56281Y5912D01*
X56279Y5903D01*
X56278Y5895D01*
X56277Y5888D01*
Y5880D01*
X56279Y5860D01*
X56283Y5843D01*
X56288Y5827D01*
X56295Y5814D01*
X56301Y5804D01*
X56307Y5797D01*
X56311Y5792D01*
X56312Y5790D01*
X56326Y5778D01*
X56341Y5769D01*
X56356Y5762D01*
X56371Y5759D01*
X56383Y5756D01*
X56393Y5755D01*
X56397Y5754D01*
X56399D01*
X56401D01*
X56402D01*
X56423Y5756D01*
X56441Y5760D01*
X56457Y5766D01*
X56471Y5773D01*
X56482Y5781D01*
X56490Y5786D01*
X56496Y5791D01*
X56497Y5793D01*
X56510Y5808D01*
X56520Y5823D01*
X56526Y5839D01*
X56531Y5854D01*
X56533Y5867D01*
X56534Y5877D01*
X56535Y5881D01*
Y5886D01*
X56534Y5903D01*
X56531Y5919D01*
X56526Y5932D01*
X56521Y5944D01*
X56516Y5953D01*
X56511Y5960D01*
X56508Y5964D01*
X56507Y5966D01*
X56494Y5977D01*
X56479Y5986D01*
X56463Y5994D01*
X56447Y6001D01*
X56433Y6005D01*
X56426Y6007D01*
X56421Y6008D01*
X56416Y6009D01*
X56412Y6010D01*
X56410Y6011D01*
X56410D01*
X56420Y6090D01*
X56435Y6088D01*
D02*
G37*
G36*
X35084Y7165D02*
X34800D01*
Y7056D01*
X34801Y7046D01*
Y7038D01*
X34802Y7032D01*
X34803Y7027D01*
Y7023D01*
X34804Y7022D01*
Y7021D01*
X34809Y7006D01*
X34812Y6999D01*
X34814Y6994D01*
X34817Y6988D01*
X34819Y6985D01*
X34820Y6983D01*
X34821Y6982D01*
X34826Y6974D01*
X34833Y6967D01*
X34847Y6953D01*
X34853Y6947D01*
X34859Y6942D01*
X34862Y6939D01*
X34863Y6938D01*
X34876Y6929D01*
X34890Y6919D01*
X34905Y6909D01*
X34919Y6899D01*
X34932Y6890D01*
X34942Y6884D01*
X34946Y6881D01*
X34948Y6879D01*
X34950Y6877D01*
X34951D01*
X35084Y6793D01*
Y6688D01*
X34910Y6798D01*
X34892Y6811D01*
X34875Y6823D01*
X34861Y6835D01*
X34848Y6845D01*
X34839Y6854D01*
X34832Y6862D01*
X34827Y6866D01*
X34825Y6868D01*
X34820Y6876D01*
X34813Y6884D01*
X34803Y6901D01*
X34799Y6908D01*
X34796Y6913D01*
X34794Y6917D01*
X34793Y6919D01*
X34790Y6902D01*
X34787Y6887D01*
X34783Y6873D01*
X34779Y6859D01*
X34775Y6847D01*
X34769Y6836D01*
X34764Y6826D01*
X34760Y6816D01*
X34754Y6809D01*
X34750Y6802D01*
X34746Y6796D01*
X34742Y6791D01*
X34739Y6788D01*
X34737Y6785D01*
X34736Y6784D01*
X34735Y6783D01*
X34726Y6776D01*
X34716Y6768D01*
X34697Y6757D01*
X34677Y6750D01*
X34659Y6744D01*
X34643Y6741D01*
X34637Y6740D01*
X34630D01*
X34626Y6739D01*
X34622D01*
X34620D01*
X34619D01*
X34600Y6740D01*
X34582Y6742D01*
X34566Y6747D01*
X34552Y6752D01*
X34540Y6757D01*
X34530Y6761D01*
X34525Y6765D01*
X34524Y6766D01*
X34523D01*
X34508Y6777D01*
X34495Y6788D01*
X34484Y6800D01*
X34476Y6811D01*
X34469Y6821D01*
X34466Y6829D01*
X34463Y6835D01*
X34462Y6836D01*
Y6837D01*
X34459Y6845D01*
X34456Y6855D01*
X34452Y6876D01*
X34449Y6898D01*
X34446Y6918D01*
X34445Y6938D01*
Y6946D01*
X34444Y6953D01*
Y7250D01*
X35084D01*
Y7165D01*
D02*
G37*
G36*
X34931Y6386D02*
X35084D01*
Y6308D01*
X34931D01*
Y6221D01*
X34859D01*
Y6308D01*
X34444D01*
Y6372D01*
X34859Y6665D01*
X34931D01*
Y6386D01*
D02*
G37*
G36*
Y5889D02*
X35084D01*
Y5810D01*
X34931D01*
Y5724D01*
X34859D01*
Y5810D01*
X34444D01*
Y5874D01*
X34859Y6167D01*
X34931D01*
Y5889D01*
D02*
G37*
%LPC*%
G36*
X45923Y9362D02*
X45637D01*
Y9160D01*
X45923Y9362D01*
D02*
G37*
G36*
X56232Y7115D02*
X56020D01*
Y6913D01*
X56021Y6888D01*
X56025Y6867D01*
X56030Y6849D01*
X56035Y6835D01*
X56041Y6823D01*
X56045Y6815D01*
X56049Y6811D01*
X56050Y6809D01*
X56062Y6798D01*
X56074Y6790D01*
X56087Y6784D01*
X56098Y6779D01*
X56109Y6777D01*
X56117Y6777D01*
X56123Y6776D01*
X56124D01*
X56125D01*
X56136Y6777D01*
X56147Y6778D01*
X56156Y6781D01*
X56165Y6784D01*
X56172Y6788D01*
X56177Y6790D01*
X56181Y6792D01*
X56182Y6793D01*
X56191Y6800D01*
X56200Y6808D01*
X56206Y6816D01*
X56212Y6825D01*
X56215Y6832D01*
X56218Y6838D01*
X56220Y6841D01*
X56221Y6843D01*
X56225Y6856D01*
X56227Y6871D01*
X56229Y6886D01*
X56230Y6900D01*
X56231Y6913D01*
X56232Y6924D01*
Y7115D01*
D02*
G37*
G36*
X56363Y6538D02*
X56077Y6336D01*
X56363D01*
Y6538D01*
D02*
G37*
G36*
X34727Y7165D02*
X34516D01*
Y6963D01*
X34517Y6938D01*
X34520Y6917D01*
X34525Y6899D01*
X34530Y6885D01*
X34536Y6873D01*
X34541Y6865D01*
X34544Y6861D01*
X34545Y6859D01*
X34557Y6848D01*
X34569Y6839D01*
X34582Y6834D01*
X34593Y6829D01*
X34604Y6827D01*
X34613Y6827D01*
X34618Y6826D01*
X34619D01*
X34620D01*
X34631Y6827D01*
X34642Y6828D01*
X34652Y6831D01*
X34660Y6834D01*
X34667Y6838D01*
X34673Y6840D01*
X34677Y6842D01*
X34677Y6843D01*
X34687Y6850D01*
X34695Y6858D01*
X34701Y6866D01*
X34707Y6875D01*
X34711Y6882D01*
X34714Y6888D01*
X34715Y6891D01*
X34716Y6893D01*
X34720Y6906D01*
X34723Y6921D01*
X34725Y6936D01*
X34726Y6950D01*
X34726Y6963D01*
X34727Y6974D01*
Y7165D01*
D02*
G37*
G36*
X34859Y6588D02*
X34572Y6386D01*
X34859D01*
Y6588D01*
D02*
G37*
G36*
Y6091D02*
X34572Y5889D01*
X34859D01*
Y6091D01*
D02*
G37*
%LPD*%
D17*
X24050Y4825D02*
X27350D01*
X24050D02*
Y12175D01*
X27350D01*
Y4825D02*
Y12175D01*
X43750Y4823D02*
X47050D01*
X43750D02*
Y12173D01*
X47050D01*
Y4823D02*
Y12173D01*
X54850Y10728D02*
X58350D01*
Y3672D02*
Y10728D01*
X54850Y3672D02*
X58350D01*
X54850D02*
Y10728D01*
X33334Y3722D02*
Y10778D01*
Y3722D02*
X36834D01*
Y10778D01*
X33334D02*
X36834D01*
M02*
