M48
;Layer_Color=9474304
;FILE_FORMAT=4:3
METRIC,LZ
;TYPE=PLATED
T1F00S00C0.200
T2F00S00C0.300
T3F00S00C0.500
T4F00S00C0.711
T5F00S00C0.991
T6F00S00C1.650
T7F00S00C1.800
T8F00S00C3.400
;TYPE=NON_PLATED
T9F00S00C2.850
T10F00S00C3.000
%
T01
X0035Y00524
X00354Y00528
X00358
Y00532
Y00536
X00354Y00536
Y0054
Y00544
Y00548
X00358Y00548
Y00552
X00354
X00362
Y00548
X00366
Y00544
Y0054
X00362Y0054
Y00544
X00358Y00544
Y0054
X00362Y00536
Y00532
X00366
Y00528
X00362
X00366Y00524
X00346Y00532
Y0054
X00346Y00544
Y00548
Y00552
X00366
T02
X00267Y00324
X00311Y00341
X00382Y00346
X00463Y00318
X00454Y00483
X00435Y00517
X00421Y00534
X00414Y00555
X0047Y00566
X00722Y00532
X0072473Y0051711
X00724Y00505
Y00492
X00742
Y00505
Y00518
Y00532
X00733Y00481
X00396Y00482
X00382Y00479
X00358Y00492
Y00504
X00347Y00505
X00346Y00515
X00332Y00525
X00308Y00548
X00318Y00568
X00313Y0059
Y00603
Y00615
Y00627
X00329Y00588
X0034482Y0058373
X0037403Y0058925
X00378Y00582
X00377Y00567
X0038148Y0055824
X00379Y00544
Y00529
X00381Y00519
X0037Y00515
X00309Y00497
X00377Y00602
Y00614
X0037573Y0062627
X00233Y00611
T03
X00143Y00068
X00177Y00089
Y00107
X00197Y00159
Y00174
X00214Y00165
X00158Y00187
X00138
X00284Y0019
X002985Y001805
X00303Y0017
X00324Y00166
X0032Y0019
X00346Y00207
X00365Y00189
X00324Y00135
X0028873Y00139
X00277Y00135
X00265Y00134
X0043Y00135
X00466Y00136
X0048
X00514Y00122
X00504Y00106
X00486Y00083
X00479Y0019
X005Y00208
X00513Y00198
X00527Y00211
X00526Y00242
X00447Y00258
X0046237Y00275
X00536Y0045753
X00564Y00456
X00412Y00504
X00396Y00493
X00369Y00478
X0034845Y0048
T04
X00128Y00011
X00191Y00018
X00219
X00248
X00302Y00032
X00301Y00082
X00317Y00109
X00367Y00126
X00358Y00082
X00392Y00201
X0034736Y0022836
X00306Y00235
X00265Y00253
X00261Y00269
X00208Y00271
X00186
Y00248
X00207
X00197Y00224
X00221Y00222
X00219Y00189
X0018Y00179
X00177Y0016
X00174Y00126
X00149Y00124
X00177Y00069
X00258Y00205
X00365Y00269
X00371Y00338
X00379Y00363
X00292Y00354
X00217Y00353
X002Y00363
X00114Y0031
Y00283
X000855Y002825
X00085Y00309
X00051Y00321
X00397Y00373
X00484Y00377
Y00357
X00496Y00339
X00556Y00347
X00548Y00379
X00729Y00385
Y0036
X00608Y00093
X00626Y00074
Y00046
X00579Y00078
X00527Y00076
X00537Y0011
X0053Y00135
X00568Y00126
X005Y00172
X00465Y00207
X0049Y00402
X00504Y0043
X00518Y00419
X00553Y0042
X00557Y004
X00564Y00435
X0057469Y0048468
X00568Y00505
X00539Y00497
X00533Y00531
X00556Y00533
Y00551
X00571Y00619
X00553Y00637
X00528
X00506Y00636
X00519Y00662
X00491
X00461Y0066
X0044Y0066
Y0064
Y00619
X00464Y00616
X00481Y00531
Y00497
X00473Y00468
X00494
X00514
X00411Y00483
X00548Y00662
X00575
X00729Y00426
Y00406
X00393Y00468
X00327Y00458
X00292Y00452
X00276Y00537
X00275Y00557
X00274Y00576
X00252
X00255Y00556
X00252Y00537
X00295Y00557
T05
X00037Y0003576
Y0006076
Y0008576
Y0011076
Y0013576
T06
X001754Y00696
X00212
X002567
X002933Y0069651
T07
X0062Y00278
Y00318
Y00358
X0066Y00338
Y00298
X007Y00278
Y00318
Y00358
X0066Y00378
Y00418
Y00458
Y00498
Y00538
X007Y00558
Y00518
Y00478
Y00438
Y00398
X0062
Y00438
Y00478
Y00518
Y00558
X0009Y00544
X00048
Y00599
X0009
T08
X00684Y00048
X00369Y00699
X00051Y00448
T09
X00665Y00213
Y00623
T10
X00069Y00672
M30
