G04*
G04 #@! TF.GenerationSoftware,Altium Limited,Altium Designer,20.2.6 (244)*
G04*
G04 Layer_Physical_Order=1*
G04 Layer_Color=255*
%FSLAX43Y43*%
%MOMM*%
G71*
G04*
G04 #@! TF.SameCoordinates,AB413B8A-FF02-4A9D-ADD2-1BA9649D16F0*
G04*
G04*
G04 #@! TF.FilePolarity,Positive*
G04*
G01*
G75*
%ADD10C,0.254*%
%ADD11C,0.500*%
%ADD17C,0.200*%
%ADD18C,0.127*%
%ADD21C,0.250*%
%ADD22R,0.500X0.550*%
%ADD23R,0.900X1.000*%
%ADD24R,0.350X1.400*%
%ADD25R,1.000X0.900*%
%ADD26C,0.500*%
%ADD27R,0.850X0.700*%
%ADD28R,0.800X0.800*%
%ADD29R,1.000X1.400*%
%ADD30R,1.150X1.350*%
%ADD31R,2.400X3.200*%
%ADD32R,3.750X3.700*%
%ADD33R,0.550X0.500*%
%ADD34R,0.600X0.600*%
%ADD35R,0.580X0.580*%
%ADD36R,0.580X0.580*%
%ADD37R,1.328X0.279*%
%ADD38R,0.900X0.800*%
%ADD39R,0.350X0.600*%
%ADD40R,0.700X0.850*%
%ADD41R,1.450X2.950*%
%ADD42R,3.208X1.155*%
%ADD43R,1.100X1.250*%
%ADD44R,3.200X2.400*%
%ADD45R,1.500X1.300*%
%ADD66C,2.108*%
%ADD67R,2.108X2.108*%
%ADD74C,1.499*%
%ADD78C,0.102*%
%ADD79C,0.108*%
%ADD80C,0.128*%
%ADD81C,1.500*%
%ADD82C,1.000*%
%ADD83R,2.300X2.300*%
%ADD84C,2.300*%
%ADD85C,3.000*%
%ADD86C,3.200*%
%ADD87C,6.000*%
%ADD88C,0.700*%
%ADD89C,1.270*%
%ADD90C,0.300*%
G36*
X58400Y67250D02*
Y60200D01*
X58359Y60100D01*
X54952D01*
Y60302D01*
X53248D01*
Y60100D01*
X47700D01*
Y62596D01*
X47796Y62671D01*
X47827Y62671D01*
X48369D01*
Y63600D01*
Y64529D01*
X47827D01*
X47796Y64529D01*
X47700Y64604D01*
Y67259D01*
X47790Y67349D01*
X58400Y67250D01*
D02*
G37*
G36*
X30148Y57483D02*
Y57198D01*
X30415D01*
X30600Y57000D01*
X34300Y55400D01*
X34308D01*
X34373Y55308D01*
X34383Y55273D01*
X34379Y55251D01*
X34600D01*
Y55149D01*
X34379D01*
X34386Y55112D01*
X34400Y55092D01*
X34426Y55000D01*
X34400Y54909D01*
X34386Y54889D01*
X34379Y54851D01*
X34600D01*
Y54749D01*
X34379D01*
X34386Y54712D01*
X34400Y54692D01*
X34426Y54600D01*
X34400Y54509D01*
X34386Y54488D01*
X34379Y54451D01*
X34600D01*
Y54349D01*
X34379D01*
X34383Y54327D01*
X34374Y54293D01*
X34308Y54200D01*
X30084D01*
X30059Y54326D01*
X30157Y54424D01*
X30589D01*
X30706Y54472D01*
X31068Y54835D01*
X32094D01*
Y54608D01*
X32877D01*
Y55392D01*
X32094D01*
Y55165D01*
X31000D01*
X30883Y55117D01*
X30521Y54754D01*
X30089D01*
X29972Y54706D01*
X29826Y54559D01*
X29700Y54584D01*
X29553Y54555D01*
X29428Y54472D01*
X29345Y54347D01*
X29316Y54200D01*
X29345Y54053D01*
X29428Y53928D01*
X29500Y53880D01*
X29530Y53730D01*
X28300Y52500D01*
X23500D01*
X23500Y57091D01*
X24869Y58698D01*
X25552D01*
Y59500D01*
X25947Y59964D01*
X26048Y59887D01*
X26048Y59780D01*
Y59351D01*
X26549D01*
Y59902D01*
X26174D01*
X26061Y59902D01*
X25977Y59999D01*
X26233Y60300D01*
X27517D01*
X30148Y57483D01*
D02*
G37*
G36*
X74767Y59210D02*
X70333D01*
Y66600D01*
X70315Y66689D01*
X70265Y66765D01*
X65865Y71165D01*
X65789Y71215D01*
X65700Y71233D01*
X53767D01*
X53753Y71253D01*
X53637Y71331D01*
X53500Y71358D01*
X53363Y71331D01*
X53247Y71253D01*
X53169Y71137D01*
X53142Y71000D01*
X53169Y70863D01*
X53247Y70747D01*
X53363Y70669D01*
X53500Y70642D01*
X53637Y70669D01*
X53753Y70747D01*
X53767Y70767D01*
X65603D01*
X69867Y66503D01*
Y59210D01*
X62522D01*
X62502Y59202D01*
X62480Y59202D01*
X62480Y59202D01*
X62464Y59195D01*
X62464Y59195D01*
X62449Y59180D01*
X62444Y59178D01*
X62442Y59173D01*
X62427Y59158D01*
X62422Y59156D01*
X62420Y59151D01*
X62405Y59136D01*
X62405Y59136D01*
X62398Y59120D01*
X62398Y59120D01*
X62398Y59098D01*
X62390Y59078D01*
Y57580D01*
X62263Y57484D01*
X62000Y57510D01*
X61666Y57477D01*
X61346Y57380D01*
X61050Y57222D01*
X61027Y57203D01*
X60265Y57965D01*
X60189Y58015D01*
X60100Y58033D01*
X47497D01*
X46857Y58673D01*
X46906Y58790D01*
X47610D01*
X47610Y58790D01*
X47610Y58790D01*
X47649Y58806D01*
X47688Y58822D01*
X47688Y58822D01*
X47688Y58823D01*
X47777Y58913D01*
X47777Y58913D01*
X47778Y58913D01*
X47793Y58952D01*
X47809Y58991D01*
X47809Y58991D01*
X47809Y58991D01*
X47801Y59900D01*
X47890Y59990D01*
X53248D01*
Y59601D01*
X54100D01*
X54952D01*
Y59990D01*
X58359D01*
X58379Y59998D01*
X58401D01*
X58416Y60014D01*
X58436Y60022D01*
X58445Y60042D01*
X58460Y60058D01*
X58502Y60158D01*
Y60180D01*
X58510Y60200D01*
Y67250D01*
X58494Y67288D01*
X58478Y67327D01*
X58478Y67327D01*
X58478Y67327D01*
X58439Y67343D01*
X58401Y67359D01*
X47791Y67459D01*
X47791Y67459D01*
X47791Y67459D01*
X47752Y67443D01*
X47713Y67427D01*
X47626Y67363D01*
X47509Y67404D01*
X47490Y67403D01*
X47473Y67410D01*
X43007D01*
X42968Y67394D01*
X42930Y67378D01*
X42523Y66978D01*
X42523Y66978D01*
X42522Y66978D01*
X42506Y66939D01*
X42490Y66901D01*
X42490Y66900D01*
X42490Y66900D01*
Y60210D01*
X40100D01*
X40022Y60178D01*
X39990Y60100D01*
Y56969D01*
X39927Y56919D01*
X39802Y56975D01*
Y57631D01*
X39810Y57652D01*
Y57800D01*
X39778Y57878D01*
X39700Y57910D01*
X38243Y57910D01*
X38214Y57898D01*
X38184Y57893D01*
X37499Y57457D01*
X37387Y57518D01*
Y57806D01*
X37047D01*
Y57414D01*
X36996D01*
Y57363D01*
X36604D01*
Y57023D01*
X36880D01*
X36890Y57014D01*
X36898Y56988D01*
X36822Y56886D01*
X36604D01*
Y56880D01*
X36538Y56800D01*
X36477Y56779D01*
X36467Y56780D01*
X36455Y56771D01*
X36440Y56768D01*
X36342Y56708D01*
X36335Y56697D01*
X36322Y56692D01*
X36311Y56664D01*
X36293Y56640D01*
X36295Y56627D01*
X36290Y56615D01*
X36290Y55594D01*
X36200Y55482D01*
X36092Y55461D01*
X36000Y55400D01*
X35888Y55414D01*
X35851Y55421D01*
Y55200D01*
X35749D01*
Y55421D01*
X35712Y55414D01*
X35600Y55400D01*
X35508Y55461D01*
X35400Y55482D01*
X35292Y55461D01*
X35290Y55460D01*
X35163Y55528D01*
Y55979D01*
X35333Y56148D01*
X35892D01*
Y56932D01*
X35452D01*
X35445Y56941D01*
X35513Y57068D01*
X35892D01*
Y57409D01*
X35108D01*
Y57331D01*
X34981Y57248D01*
X34940Y57265D01*
X33943D01*
X33872Y57372D01*
X33747Y57455D01*
X33600Y57484D01*
X33453Y57455D01*
X33328Y57372D01*
X33257Y57265D01*
X33068D01*
X32866Y57467D01*
X32852Y57473D01*
Y58190D01*
X33600D01*
X33678Y58222D01*
X33710Y58300D01*
Y59323D01*
X33777D01*
Y62477D01*
X33710D01*
Y63400D01*
X33678Y63478D01*
X33600Y63510D01*
X30100Y63510D01*
X30022Y63478D01*
X29990Y63400D01*
X29990Y58509D01*
X29999Y58487D01*
X30000Y58463D01*
X30048Y58356D01*
X30063Y58342D01*
X30071Y58324D01*
X30092Y58315D01*
X30110Y58299D01*
X30148Y58179D01*
Y57818D01*
X30030Y57771D01*
X27598Y60375D01*
X27596Y60376D01*
X27595Y60378D01*
X27558Y60393D01*
X27521Y60410D01*
X27519Y60409D01*
X27517Y60410D01*
X26233D01*
X26229Y60408D01*
X26225Y60410D01*
X26191Y60392D01*
X26156Y60378D01*
X26154Y60373D01*
X26150Y60371D01*
X25893Y60070D01*
X25886Y60047D01*
X25864Y60036D01*
X25671Y59809D01*
X25552Y59853D01*
Y59902D01*
X25051D01*
Y59300D01*
X25000D01*
Y59249D01*
X24448D01*
Y58698D01*
X24573D01*
X24626Y58583D01*
X23416Y57163D01*
X23405Y57126D01*
X23390Y57091D01*
X23390Y52500D01*
X23422Y52422D01*
X23500Y52390D01*
X28300D01*
X28378Y52422D01*
X29608Y53652D01*
X29612Y53662D01*
X29621Y53668D01*
X29627Y53700D01*
X29640Y53730D01*
X29636Y53740D01*
X29638Y53751D01*
X29608Y53901D01*
X29608Y53901D01*
X29608Y53901D01*
X29585Y53936D01*
X29562Y53971D01*
X29562Y53971D01*
X29561Y53971D01*
X29507Y54007D01*
X29448Y54096D01*
X29428Y54200D01*
X29448Y54304D01*
X29507Y54393D01*
X29596Y54452D01*
X29700Y54472D01*
X29805Y54451D01*
X29816Y54454D01*
X29826Y54449D01*
X29856Y54462D01*
X29878Y54466D01*
X29886Y54460D01*
X29960Y54386D01*
X29966Y54378D01*
X29962Y54356D01*
X29949Y54326D01*
X29954Y54316D01*
X29951Y54305D01*
X29977Y54179D01*
X29994Y54152D01*
X30007Y54122D01*
X30017Y54118D01*
X30023Y54109D01*
X30055Y54102D01*
X30084Y54090D01*
X30639D01*
X30748Y54047D01*
X30748Y53963D01*
Y53497D01*
X31300D01*
X31852D01*
X31852Y54047D01*
X31961Y54090D01*
X32239D01*
X32348Y54047D01*
Y52878D01*
X31670Y52200D01*
X30972D01*
Y52318D01*
X30219D01*
Y52200D01*
X28233D01*
X28144Y52182D01*
X28084Y52142D01*
X28000Y52158D01*
X27863Y52131D01*
X27747Y52053D01*
X27669Y51937D01*
X27642Y51800D01*
X27669Y51663D01*
X27747Y51547D01*
X27863Y51469D01*
X28000Y51442D01*
X28137Y51469D01*
X28253Y51547D01*
X28331Y51663D01*
X28345Y51733D01*
X30219D01*
Y51615D01*
X30972D01*
Y51733D01*
X31567D01*
Y51427D01*
X31423D01*
Y50723D01*
X32177D01*
Y51427D01*
X32033D01*
Y51903D01*
X32700Y52570D01*
X32817Y52508D01*
X32816Y52500D01*
X32845Y52353D01*
X32928Y52228D01*
X33053Y52145D01*
X33200Y52116D01*
X33347Y52145D01*
X33472Y52228D01*
X33498Y52267D01*
X33900D01*
X33989Y52285D01*
X34065Y52335D01*
X34240Y52510D01*
X34367Y52458D01*
Y52400D01*
X34385Y52311D01*
X34435Y52235D01*
X34511Y52184D01*
X34600Y52167D01*
X34689Y52184D01*
X34765Y52235D01*
X34893Y52199D01*
X34911Y52186D01*
X34949Y52179D01*
Y52400D01*
X35051D01*
Y52179D01*
X35088Y52186D01*
X35108Y52200D01*
X35235Y52133D01*
Y50968D01*
X35090Y50823D01*
X35076Y50815D01*
X34937Y50795D01*
X34847Y50855D01*
X34700Y50884D01*
X34553Y50855D01*
X34428Y50772D01*
X34345Y50647D01*
X34316Y50500D01*
X34340Y50379D01*
X34099Y50137D01*
X34062Y50083D01*
X34049Y50018D01*
Y47082D01*
X34062Y47017D01*
X34099Y46963D01*
X35997Y45064D01*
X36052Y45027D01*
X36117Y45015D01*
X43193D01*
X43527Y44681D01*
X43582Y44644D01*
X43647Y44631D01*
X51100D01*
X51165Y44644D01*
X51219Y44681D01*
X56392Y49853D01*
X56416Y49834D01*
X56601Y49758D01*
X56731Y49740D01*
X56777Y49606D01*
X51403Y44233D01*
X31997D01*
X29780Y46450D01*
X29842Y46601D01*
X29869Y46800D01*
X29842Y46999D01*
X29766Y47184D01*
X29643Y47343D01*
X29484Y47466D01*
X29299Y47542D01*
X29100Y47569D01*
X28901Y47542D01*
X28716Y47466D01*
X28557Y47343D01*
X28434Y47184D01*
X28358Y46999D01*
X28331Y46800D01*
X28358Y46601D01*
X28434Y46416D01*
X28557Y46257D01*
X28716Y46134D01*
X28901Y46058D01*
X29100Y46031D01*
X29299Y46058D01*
X29450Y46120D01*
X31735Y43835D01*
X31811Y43785D01*
X31900Y43767D01*
X49940D01*
X49982Y43640D01*
X49857Y43543D01*
X49734Y43384D01*
X49658Y43199D01*
X49631Y43000D01*
X49658Y42801D01*
X49734Y42616D01*
X49857Y42457D01*
X50016Y42334D01*
X50201Y42258D01*
X50400Y42231D01*
X50599Y42258D01*
X50784Y42334D01*
X50943Y42457D01*
X51066Y42616D01*
X51142Y42801D01*
X51169Y43000D01*
X51150Y43140D01*
X51239Y43267D01*
X55672D01*
X55734Y43116D01*
X55857Y42957D01*
X56016Y42834D01*
X56201Y42758D01*
X56400Y42731D01*
X56599Y42758D01*
X56784Y42834D01*
X56943Y42957D01*
X57066Y43116D01*
X57142Y43301D01*
X57169Y43500D01*
X57142Y43699D01*
X57066Y43884D01*
X56943Y44043D01*
X56784Y44166D01*
X56599Y44242D01*
X56400Y44269D01*
X56201Y44242D01*
X56016Y44166D01*
X55857Y44043D01*
X55734Y43884D01*
X55672Y43733D01*
X51738D01*
X51717Y43762D01*
X51690Y43860D01*
X56654Y48825D01*
X56762Y48753D01*
X56726Y48667D01*
X56700Y48468D01*
X56726Y48269D01*
X56803Y48084D01*
X56925Y47924D01*
X57084Y47802D01*
X57270Y47726D01*
X57469Y47699D01*
X57668Y47726D01*
X57853Y47802D01*
X57854Y47803D01*
X58541Y47117D01*
Y37870D01*
X57535Y36865D01*
X56695Y36025D01*
X55029D01*
X54995Y36084D01*
X54982Y36152D01*
X57165Y38335D01*
X57215Y38411D01*
X57233Y38500D01*
Y40300D01*
X57215Y40389D01*
X57165Y40465D01*
X55980Y41650D01*
X56042Y41801D01*
X56069Y42000D01*
X56042Y42199D01*
X55966Y42384D01*
X55843Y42543D01*
X55684Y42666D01*
X55499Y42742D01*
X55300Y42769D01*
X55101Y42742D01*
X54916Y42666D01*
X54757Y42543D01*
X54634Y42384D01*
X54558Y42199D01*
X54531Y42000D01*
X54558Y41801D01*
X54634Y41616D01*
X54757Y41457D01*
X54916Y41334D01*
X55101Y41258D01*
X55300Y41231D01*
X55499Y41258D01*
X55650Y41320D01*
X56767Y40203D01*
Y38597D01*
X54703Y36533D01*
X51595D01*
X51479Y36559D01*
X51479Y36668D01*
X51479Y37042D01*
X51479Y37169D01*
Y37250D01*
X50713D01*
X49948D01*
Y37059D01*
X49948Y36932D01*
X49948Y36559D01*
X49832Y36533D01*
X49200D01*
X49111Y36515D01*
X49035Y36465D01*
X48870Y36300D01*
X48784Y36366D01*
X48599Y36442D01*
X48400Y36469D01*
X48201Y36442D01*
X48016Y36366D01*
X47857Y36243D01*
X47734Y36084D01*
X47658Y35899D01*
X47631Y35700D01*
X47658Y35501D01*
X47715Y35361D01*
X47704Y35304D01*
X47722Y35215D01*
X47772Y35139D01*
X47848Y35089D01*
X47937Y35071D01*
X47968D01*
X48016Y35034D01*
X48201Y34958D01*
X48400Y34931D01*
X48599Y34958D01*
X48784Y35034D01*
X48943Y35157D01*
X49066Y35316D01*
X49142Y35501D01*
X49169Y35700D01*
X49142Y35899D01*
X49138Y35909D01*
X49297Y36067D01*
X49832D01*
X49948Y36041D01*
X49948Y35932D01*
X49948Y35558D01*
X49948Y35431D01*
Y35058D01*
X50614D01*
X50616Y35054D01*
X51135Y34535D01*
X51211Y34485D01*
X51300Y34467D01*
X53203D01*
X53646Y34024D01*
X53642Y34000D01*
X53669Y33863D01*
X53747Y33747D01*
X53863Y33669D01*
X53907Y33660D01*
X53894Y33533D01*
X50410D01*
X50325Y33660D01*
X50342Y33701D01*
X50369Y33900D01*
X50342Y34099D01*
X50266Y34284D01*
X50143Y34443D01*
X49984Y34566D01*
X49799Y34642D01*
X49600Y34669D01*
X49401Y34642D01*
X49216Y34566D01*
X49057Y34443D01*
X48934Y34284D01*
X48858Y34099D01*
X48831Y33900D01*
X48858Y33701D01*
X48934Y33516D01*
X49057Y33357D01*
X49216Y33234D01*
X49401Y33158D01*
X49600Y33131D01*
X49799Y33158D01*
X49969Y33228D01*
X50062Y33135D01*
X50137Y33085D01*
X50226Y33067D01*
X56600D01*
X56689Y33085D01*
X56765Y33135D01*
X57865Y34235D01*
X57915Y34311D01*
X57933Y34400D01*
Y36603D01*
X58939Y37609D01*
X58989Y37685D01*
X59007Y37774D01*
Y42990D01*
X59019Y42999D01*
X59134Y43036D01*
X60435Y41735D01*
X60511Y41685D01*
X60600Y41667D01*
X64303D01*
X64323Y41466D01*
X64420Y41146D01*
X64578Y40850D01*
X64791Y40591D01*
X65050Y40378D01*
X65346Y40220D01*
X65666Y40123D01*
X66000Y40090D01*
X66334Y40123D01*
X66654Y40220D01*
X66950Y40378D01*
X67209Y40591D01*
X67422Y40850D01*
X67580Y41146D01*
X67677Y41466D01*
X67710Y41800D01*
X67677Y42134D01*
X67580Y42454D01*
X67422Y42750D01*
X67209Y43009D01*
X66950Y43222D01*
X66654Y43380D01*
X66334Y43477D01*
X66000Y43510D01*
X65666Y43477D01*
X65346Y43380D01*
X65050Y43222D01*
X64791Y43009D01*
X64578Y42750D01*
X64420Y42454D01*
X64323Y42134D01*
X64323Y42133D01*
X63065D01*
X63048Y42199D01*
X63046Y42260D01*
X63317Y42483D01*
X63549Y42765D01*
X63721Y43087D01*
X63786Y43300D01*
X62000D01*
X60214D01*
X60279Y43087D01*
X60451Y42765D01*
X60683Y42483D01*
X60954Y42260D01*
X60952Y42199D01*
X60935Y42133D01*
X60697D01*
X59503Y43327D01*
Y46405D01*
X59630Y46443D01*
X59635Y46435D01*
X60435Y45635D01*
X60511Y45585D01*
X60600Y45567D01*
X61103D01*
X61135Y45440D01*
X60965Y45349D01*
X60683Y45117D01*
X60451Y44835D01*
X60279Y44513D01*
X60214Y44300D01*
X62000D01*
X63786D01*
X63721Y44513D01*
X63549Y44835D01*
X63317Y45117D01*
X63035Y45349D01*
X62865Y45440D01*
X62897Y45567D01*
X64313D01*
X64323Y45466D01*
X64420Y45146D01*
X64578Y44850D01*
X64791Y44591D01*
X65050Y44378D01*
X65346Y44220D01*
X65666Y44123D01*
X66000Y44090D01*
X66334Y44123D01*
X66654Y44220D01*
X66950Y44378D01*
X67209Y44591D01*
X67422Y44850D01*
X67580Y45146D01*
X67677Y45466D01*
X67710Y45800D01*
X67677Y46134D01*
X67580Y46454D01*
X67512Y46581D01*
X67577Y46690D01*
X68449D01*
X68457Y46694D01*
X68460Y46693D01*
X68460Y46693D01*
X68465Y46695D01*
X68476Y46693D01*
X68476Y46693D01*
X68486Y46696D01*
X68504Y46709D01*
X68507Y46709D01*
X68513Y46715D01*
X68537Y46725D01*
X68647Y46732D01*
X68668Y46729D01*
X68680Y46726D01*
X68791Y46591D01*
X69050Y46378D01*
X69346Y46220D01*
X69666Y46123D01*
X70000Y46090D01*
X70334Y46123D01*
X70654Y46220D01*
X70950Y46378D01*
X71209Y46591D01*
X71320Y46726D01*
X71332Y46729D01*
X71353Y46732D01*
X71463Y46725D01*
X71487Y46715D01*
X71493Y46709D01*
X71496Y46709D01*
X71514Y46696D01*
X71524Y46693D01*
X71524Y46693D01*
X71535Y46695D01*
X71540Y46693D01*
X71540Y46693D01*
X71542Y46694D01*
X71551Y46690D01*
X74578D01*
X74598Y46698D01*
X74601D01*
X74602Y46698D01*
X74620D01*
X74640Y46707D01*
X74671Y46703D01*
X74767Y46645D01*
Y11300D01*
X65100D01*
X56600Y19800D01*
Y29800D01*
X54400Y32000D01*
X50225D01*
X48361Y33865D01*
X48285Y33915D01*
X48196Y33933D01*
X47197D01*
X46333Y34797D01*
Y35058D01*
X47052D01*
Y35541D01*
X47052D01*
Y35558D01*
X47052D01*
Y36041D01*
X47144Y36126D01*
X47178Y36148D01*
X48050Y37020D01*
X48201Y36958D01*
X48400Y36931D01*
X48599Y36958D01*
X48784Y37034D01*
X48943Y37157D01*
X49066Y37316D01*
X49142Y37501D01*
X49169Y37700D01*
X49142Y37899D01*
X49066Y38084D01*
X48943Y38243D01*
X48784Y38366D01*
X48599Y38442D01*
X48400Y38469D01*
X48201Y38442D01*
X48016Y38366D01*
X47857Y38243D01*
X47734Y38084D01*
X47658Y37899D01*
X47631Y37700D01*
X47658Y37501D01*
X47720Y37350D01*
X47170Y36799D01*
X47052Y36848D01*
Y37042D01*
X47052D01*
Y37059D01*
X47052D01*
Y37542D01*
X45521D01*
Y37533D01*
X42800D01*
X42711Y37515D01*
X42635Y37465D01*
X41264Y36094D01*
X41213Y36018D01*
X41196Y35929D01*
Y32000D01*
X38791D01*
X38753Y32127D01*
X38765Y32135D01*
X39365Y32735D01*
X39415Y32811D01*
X39433Y32900D01*
Y34603D01*
X42565Y37735D01*
X42615Y37811D01*
X42633Y37900D01*
Y40003D01*
X43697Y41067D01*
X48782D01*
X48801Y40942D01*
X48616Y40866D01*
X48457Y40743D01*
X48334Y40584D01*
X48258Y40399D01*
X48242Y40280D01*
X47114D01*
X47037Y40331D01*
X46900Y40358D01*
X46763Y40331D01*
X46647Y40253D01*
X46569Y40137D01*
X46542Y40000D01*
X46569Y39863D01*
X46647Y39747D01*
X46763Y39669D01*
X46900Y39642D01*
X47037Y39669D01*
X47153Y39747D01*
X47199Y39814D01*
X48336D01*
X48457Y39657D01*
X48616Y39534D01*
X48801Y39458D01*
X49000Y39431D01*
X49199Y39458D01*
X49384Y39534D01*
X49543Y39657D01*
X49666Y39816D01*
X49742Y40001D01*
X49769Y40200D01*
X49742Y40399D01*
X49666Y40584D01*
X49543Y40743D01*
X49384Y40866D01*
X49199Y40942D01*
X49218Y41067D01*
X50203D01*
X53535Y37735D01*
X53611Y37685D01*
X53700Y37667D01*
X54072D01*
X54134Y37516D01*
X54257Y37357D01*
X54416Y37234D01*
X54601Y37158D01*
X54800Y37131D01*
X54999Y37158D01*
X55184Y37234D01*
X55343Y37357D01*
X55466Y37516D01*
X55542Y37701D01*
X55569Y37900D01*
X55542Y38099D01*
X55466Y38284D01*
X55343Y38443D01*
X55184Y38566D01*
X54999Y38642D01*
X54800Y38669D01*
X54601Y38642D01*
X54416Y38566D01*
X54257Y38443D01*
X54134Y38284D01*
X54072Y38133D01*
X53797D01*
X50465Y41465D01*
X50389Y41515D01*
X50300Y41533D01*
X43600D01*
X43511Y41515D01*
X43435Y41465D01*
X42235Y40265D01*
X42185Y40189D01*
X42167Y40100D01*
Y37997D01*
X39035Y34865D01*
X38985Y34789D01*
X38967Y34700D01*
Y32997D01*
X38503Y32533D01*
X34597D01*
X33080Y34050D01*
X33129Y34167D01*
X33733D01*
X33747Y34147D01*
X33863Y34069D01*
X34000Y34042D01*
X34137Y34069D01*
X34253Y34147D01*
X34331Y34263D01*
X34358Y34400D01*
X34331Y34537D01*
X34253Y34653D01*
X34137Y34731D01*
X34000Y34758D01*
X33863Y34731D01*
X33747Y34653D01*
X33733Y34633D01*
X32497D01*
X31979Y35151D01*
X31979Y35541D01*
X32098Y35559D01*
X35011D01*
X36420Y34150D01*
X36358Y33999D01*
X36331Y33800D01*
X36358Y33601D01*
X36434Y33416D01*
X36557Y33257D01*
X36716Y33134D01*
X36901Y33058D01*
X37100Y33031D01*
X37299Y33058D01*
X37484Y33134D01*
X37643Y33257D01*
X37766Y33416D01*
X37842Y33601D01*
X37869Y33800D01*
X37842Y33999D01*
X37766Y34184D01*
X37643Y34343D01*
X37484Y34466D01*
X37299Y34542D01*
X37100Y34569D01*
X36901Y34542D01*
X36750Y34480D01*
X35290Y35940D01*
X35303Y36008D01*
X35337Y36067D01*
X36313D01*
X36313Y36067D01*
X37172D01*
X37234Y35916D01*
X37357Y35757D01*
X37516Y35634D01*
X37701Y35558D01*
X37900Y35531D01*
X38099Y35558D01*
X38284Y35634D01*
X38443Y35757D01*
X38566Y35916D01*
X38642Y36101D01*
X38669Y36300D01*
X38642Y36499D01*
X38566Y36684D01*
X38443Y36843D01*
X38284Y36966D01*
X38099Y37042D01*
X37900Y37069D01*
X37701Y37042D01*
X37516Y36966D01*
X37357Y36843D01*
X37234Y36684D01*
X37172Y36533D01*
X36313D01*
X36313Y36533D01*
X32095D01*
X31979Y36559D01*
X31979Y36668D01*
X31979Y37042D01*
X31979Y37169D01*
Y37250D01*
X31213D01*
X30448D01*
Y37059D01*
X30448Y36932D01*
X30448Y36559D01*
X30448Y36432D01*
X30448Y36059D01*
X30448Y35932D01*
X30448Y35558D01*
X30448Y35431D01*
Y35058D01*
X31412D01*
X32235Y34235D01*
X34335Y32135D01*
X34347Y32127D01*
X34309Y32000D01*
X33440D01*
X33424Y32081D01*
X33424Y32081D01*
X33373Y32156D01*
X32765Y32765D01*
X32718Y32796D01*
X32689Y32815D01*
X32600Y32833D01*
X29526D01*
X27418Y34941D01*
X27467Y35058D01*
X27552D01*
Y35431D01*
X27552Y35541D01*
X27552D01*
Y35558D01*
X27552D01*
Y36041D01*
X27668Y36067D01*
X28203D01*
X28520Y35750D01*
X28458Y35599D01*
X28431Y35400D01*
X28458Y35201D01*
X28534Y35016D01*
X28657Y34857D01*
X28816Y34734D01*
X29001Y34658D01*
X29200Y34631D01*
X29399Y34658D01*
X29584Y34734D01*
X29743Y34857D01*
X29866Y35016D01*
X29942Y35201D01*
X29969Y35400D01*
X29942Y35599D01*
X29866Y35784D01*
X29743Y35943D01*
X29584Y36066D01*
X29399Y36142D01*
X29200Y36169D01*
X29001Y36142D01*
X28850Y36080D01*
X28465Y36465D01*
X28389Y36515D01*
X28300Y36533D01*
X27668D01*
X27552Y36559D01*
Y37042D01*
X27552D01*
Y37059D01*
X27552D01*
Y37542D01*
X26785D01*
X26704Y37558D01*
X26624Y37542D01*
X26021D01*
Y37533D01*
X24700D01*
X24611Y37515D01*
X24535Y37465D01*
X23331Y36261D01*
X23280Y36185D01*
X23263Y36096D01*
Y32000D01*
X21500D01*
X17482Y36018D01*
X17531Y36135D01*
X19253D01*
X19258Y36101D01*
X19334Y35916D01*
X19457Y35757D01*
X19616Y35634D01*
X19801Y35558D01*
X20000Y35531D01*
X20199Y35558D01*
X20384Y35634D01*
X20543Y35757D01*
X20666Y35916D01*
X20742Y36101D01*
X20769Y36300D01*
X20742Y36499D01*
X20666Y36684D01*
X20543Y36843D01*
X20403Y36951D01*
Y37608D01*
X20732D01*
Y38392D01*
X19948D01*
Y37888D01*
X19937Y37830D01*
Y37060D01*
X19801Y37042D01*
X19616Y36966D01*
X19457Y36843D01*
X19334Y36684D01*
X19258Y36499D01*
X19253Y36465D01*
X8968D01*
X8138Y37296D01*
X8158Y37400D01*
X8131Y37537D01*
X8053Y37653D01*
X7937Y37731D01*
X7800Y37758D01*
X7663Y37731D01*
X7547Y37653D01*
X7469Y37537D01*
X7442Y37400D01*
X7469Y37263D01*
X7547Y37147D01*
X7663Y37069D01*
X7800Y37042D01*
X7904Y37062D01*
X8449Y36517D01*
X8401Y36400D01*
X233D01*
Y74767D01*
X74767D01*
Y59210D01*
D02*
G37*
G36*
X47590Y67259D02*
Y64604D01*
X47530Y64557D01*
X47480Y64529D01*
X47231D01*
Y63600D01*
Y62671D01*
X47480D01*
X47530Y62643D01*
X47590Y62596D01*
Y60100D01*
X47622Y60022D01*
X47690Y59994D01*
X47699Y58990D01*
X47610Y58900D01*
X46630D01*
X46465Y59065D01*
X46389Y59115D01*
X46300Y59133D01*
X45000D01*
X44911Y59115D01*
X44835Y59065D01*
X44670Y58900D01*
X42900D01*
Y57098D01*
X42827Y57002D01*
X41773D01*
Y56416D01*
X41691D01*
X41574Y56367D01*
X41116Y55910D01*
X41072Y55802D01*
X40348D01*
Y54598D01*
X40735D01*
Y54222D01*
X39100D01*
Y54002D01*
X38448D01*
Y53200D01*
X38130D01*
X38047Y53255D01*
X37900Y53284D01*
X37772Y53259D01*
X37728Y53303D01*
X37697Y53364D01*
X38017Y53683D01*
X38065Y53800D01*
Y54057D01*
X38172Y54128D01*
X38255Y54253D01*
X38284Y54400D01*
X38255Y54547D01*
X38172Y54672D01*
X38047Y54755D01*
X37900Y54784D01*
X37753Y54755D01*
X37628Y54672D01*
X37545Y54547D01*
X37516Y54400D01*
X37545Y54253D01*
X37628Y54128D01*
X37735Y54057D01*
Y53868D01*
X37380Y53513D01*
X37380Y53513D01*
X37322Y53455D01*
X37260Y53487D01*
X37217Y53530D01*
X37221Y53549D01*
X37000D01*
Y53651D01*
X37221D01*
X37214Y53688D01*
X37200Y53708D01*
X37174Y53800D01*
X37200Y53892D01*
X37214Y53912D01*
X37221Y53949D01*
X37000D01*
Y54051D01*
X37221D01*
X37214Y54088D01*
X37200Y54108D01*
X37174Y54200D01*
X37200Y54292D01*
X37214Y54312D01*
X37221Y54349D01*
X37000D01*
Y54451D01*
X37221D01*
X37214Y54488D01*
X37200Y54509D01*
X37174Y54600D01*
X37200Y54692D01*
X37214Y54712D01*
X37221Y54749D01*
X37000D01*
Y54851D01*
X37221D01*
X37214Y54889D01*
X37200Y54909D01*
X37174Y55000D01*
X37200Y55092D01*
X37214Y55112D01*
X37231Y55200D01*
X37341Y55300D01*
X38500D01*
X38631Y55431D01*
X38748Y55382D01*
Y55251D01*
X39249D01*
Y55802D01*
X39168D01*
X39119Y55919D01*
X39748Y56548D01*
X39802D01*
Y56602D01*
X40100Y56900D01*
Y60100D01*
X42700D01*
X42600Y60200D01*
Y66900D01*
X43007Y67300D01*
X47473D01*
X47590Y67259D01*
D02*
G37*
G36*
X33600Y62477D02*
X33001D01*
Y60900D01*
Y59323D01*
X33600D01*
Y58300D01*
X32852D01*
Y58402D01*
X31748D01*
Y58300D01*
X31252D01*
Y58402D01*
X30148D01*
X30100Y58509D01*
X30100Y63400D01*
X33600Y63400D01*
Y62477D01*
D02*
G37*
G36*
X39700Y57652D02*
X39251D01*
Y57100D01*
Y56548D01*
X39382D01*
X39431Y56431D01*
X38802Y55802D01*
X38748D01*
Y55748D01*
X38500Y55500D01*
X36400D01*
X36400Y56615D01*
X36498Y56675D01*
X36604Y56616D01*
Y56545D01*
X37387D01*
Y56886D01*
X37182D01*
X37119Y57013D01*
X37126Y57023D01*
X37387D01*
Y57256D01*
X38243Y57800D01*
X39700Y57800D01*
Y57652D01*
D02*
G37*
G36*
X44443Y58673D02*
X44035Y58265D01*
X43985Y58189D01*
X43967Y58100D01*
Y56097D01*
X43353Y55483D01*
X42827D01*
Y55702D01*
X41773D01*
Y54798D01*
X41867D01*
Y52998D01*
X41828Y52972D01*
X41745Y52847D01*
X41716Y52700D01*
X41745Y52553D01*
X41828Y52428D01*
X41953Y52345D01*
X42015Y52333D01*
X42057Y52195D01*
X41430Y51568D01*
X38485D01*
X38417Y51695D01*
X38455Y51753D01*
X38484Y51900D01*
X38455Y52047D01*
X38372Y52172D01*
X38247Y52255D01*
X38100Y52284D01*
X37979Y52260D01*
X37841Y52398D01*
X37900Y52516D01*
X38047Y52545D01*
X38172Y52628D01*
X38198Y52667D01*
X38500D01*
X38589Y52685D01*
X38665Y52735D01*
X38728Y52798D01*
X39552D01*
Y54002D01*
X39552D01*
X39592Y54112D01*
X40008D01*
X40048Y54002D01*
X40048Y53985D01*
Y53451D01*
X40600D01*
X41152D01*
Y54002D01*
X40801D01*
X40776Y54129D01*
X40813Y54144D01*
X40845Y54222D01*
Y54598D01*
X40849D01*
Y55200D01*
X40900D01*
Y55251D01*
X41452D01*
Y55802D01*
X41343D01*
X41291Y55929D01*
X41636Y56274D01*
X41646Y56278D01*
X41773Y56201D01*
Y56098D01*
X42249D01*
Y56550D01*
X42300D01*
Y56601D01*
X42827D01*
Y56772D01*
X42841Y56893D01*
X42872Y56910D01*
X42904Y56924D01*
X42907Y56931D01*
X42914Y56935D01*
X42988Y57032D01*
X42997Y57066D01*
X43010Y57098D01*
Y58790D01*
X44394D01*
X44443Y58673D01*
D02*
G37*
G36*
X31748Y57198D02*
X32668D01*
X32883Y56983D01*
X33000Y56935D01*
X33257D01*
X33328Y56828D01*
X33453Y56745D01*
X33600Y56716D01*
X33747Y56745D01*
X33872Y56828D01*
X33943Y56935D01*
X34872D01*
X35108Y56698D01*
Y56373D01*
X34893Y56157D01*
X34858Y56105D01*
X34846Y56045D01*
Y55522D01*
X34719Y55454D01*
X34708Y55461D01*
X34600Y55483D01*
X34492Y55461D01*
X34386Y55478D01*
X34355Y55491D01*
X34352Y55493D01*
X34344Y55501D01*
X34328Y55508D01*
X34327Y55508D01*
X34327Y55508D01*
X30712Y57071D01*
X30738Y57198D01*
X31252D01*
Y57749D01*
X30700D01*
Y57851D01*
X31252D01*
Y58190D01*
X31748D01*
Y57198D01*
D02*
G37*
G36*
X74767Y46967D02*
X74610Y46810D01*
X74604Y46810D01*
X74601Y46808D01*
X74598D01*
X74578Y46800D01*
X71551D01*
X71540Y46803D01*
X71531Y46813D01*
X71482Y46917D01*
X71481Y46960D01*
X71580Y47146D01*
X71677Y47466D01*
X71710Y47800D01*
X71677Y48134D01*
X71580Y48454D01*
X71422Y48750D01*
X71209Y49009D01*
X70950Y49222D01*
X70654Y49380D01*
X70334Y49477D01*
X70000Y49510D01*
X69666Y49477D01*
X69346Y49380D01*
X69050Y49222D01*
X68791Y49009D01*
X68578Y48750D01*
X68420Y48454D01*
X68323Y48134D01*
X68290Y47800D01*
X68323Y47466D01*
X68420Y47146D01*
X68519Y46960D01*
X68518Y46916D01*
X68469Y46813D01*
X68460Y46803D01*
X68449Y46800D01*
X67381D01*
X67209Y47009D01*
X66950Y47222D01*
X66654Y47380D01*
X66334Y47477D01*
X66000Y47510D01*
X65666Y47477D01*
X65346Y47380D01*
X65050Y47222D01*
X64791Y47009D01*
X64619Y46800D01*
X63700D01*
X63501Y46999D01*
X63580Y47146D01*
X63677Y47466D01*
X63710Y47800D01*
X63677Y48134D01*
X63580Y48454D01*
X63422Y48750D01*
X63209Y49009D01*
X62950Y49222D01*
X62654Y49380D01*
X62500Y49427D01*
Y50174D01*
X62654Y50220D01*
X62950Y50378D01*
X63209Y50591D01*
X63422Y50850D01*
X63580Y51146D01*
X63677Y51466D01*
X63710Y51800D01*
X63677Y52134D01*
X63580Y52454D01*
X63422Y52750D01*
X63209Y53009D01*
X62950Y53222D01*
X62654Y53380D01*
X62500Y53426D01*
Y54174D01*
X62654Y54220D01*
X62950Y54378D01*
X63209Y54591D01*
X63422Y54850D01*
X63580Y55146D01*
X63677Y55466D01*
X63710Y55800D01*
X63677Y56134D01*
X63580Y56454D01*
X63422Y56750D01*
X63209Y57009D01*
X62950Y57222D01*
X62654Y57380D01*
X62500Y57426D01*
Y59078D01*
X62506Y59094D01*
X62522Y59100D01*
X69867D01*
Y57497D01*
X69666Y57477D01*
X69346Y57380D01*
X69050Y57222D01*
X68791Y57009D01*
X68578Y56750D01*
X68420Y56454D01*
X68323Y56134D01*
X68290Y55800D01*
X68323Y55466D01*
X68420Y55146D01*
X68578Y54850D01*
X68791Y54591D01*
X69050Y54378D01*
X69346Y54220D01*
X69666Y54123D01*
X70000Y54090D01*
X70334Y54123D01*
X70654Y54220D01*
X70950Y54378D01*
X71209Y54591D01*
X71422Y54850D01*
X71580Y55146D01*
X71677Y55466D01*
X71710Y55800D01*
X71677Y56134D01*
X71580Y56454D01*
X71422Y56750D01*
X71209Y57009D01*
X70950Y57222D01*
X70654Y57380D01*
X70334Y57477D01*
X70333Y57477D01*
Y59100D01*
X74767D01*
Y46967D01*
D02*
G37*
G36*
X36341Y50721D02*
X36373Y50602D01*
X36373D01*
X36373Y50602D01*
Y50201D01*
X37427D01*
Y50532D01*
X37600D01*
X37664Y50544D01*
X37719Y50581D01*
X38070Y50932D01*
X38398D01*
Y49973D01*
X38692D01*
Y49470D01*
X38710Y49381D01*
X38760Y49306D01*
X38931Y49135D01*
X39006Y49085D01*
X39095Y49067D01*
X39182D01*
X39256Y48956D01*
X39414Y48851D01*
X39600Y48814D01*
X39730Y48840D01*
X39793Y48723D01*
X39646Y48575D01*
X39600Y48584D01*
X39453Y48555D01*
X39328Y48472D01*
X39245Y48347D01*
X39216Y48200D01*
X39245Y48053D01*
X39328Y47928D01*
X39453Y47845D01*
X39600Y47816D01*
X39747Y47845D01*
X39872Y47928D01*
X39955Y48053D01*
X39984Y48200D01*
X39975Y48246D01*
X40230Y48500D01*
X40350Y48441D01*
X40331Y48300D01*
X40358Y48101D01*
X40434Y47916D01*
X40487Y47848D01*
Y47577D01*
X40298D01*
Y47413D01*
X39752D01*
X39684Y47466D01*
X39499Y47542D01*
X39300Y47569D01*
X39101Y47542D01*
X38916Y47466D01*
X38757Y47343D01*
X38634Y47184D01*
X38558Y46999D01*
X38531Y46800D01*
X38558Y46601D01*
X38634Y46416D01*
X38757Y46257D01*
X38916Y46134D01*
X39101Y46058D01*
X39300Y46031D01*
X39499Y46058D01*
X39684Y46134D01*
X39752Y46187D01*
X40298D01*
Y46023D01*
X41652D01*
Y46583D01*
X41665Y46592D01*
X41701Y46588D01*
X41814Y46532D01*
X41881Y46371D01*
X41948Y46283D01*
Y46023D01*
X42275D01*
X42403Y45970D01*
X42625Y45941D01*
X51400D01*
X51622Y45970D01*
X51829Y46056D01*
X52007Y46193D01*
X52144Y46371D01*
X52230Y46578D01*
X52259Y46800D01*
X52230Y47022D01*
X52144Y47229D01*
X52007Y47407D01*
X51829Y47544D01*
X51622Y47630D01*
X51400Y47659D01*
X42625D01*
X42403Y47630D01*
X42275Y47577D01*
X41948D01*
Y47317D01*
X41881Y47229D01*
X41840Y47131D01*
X41713Y47156D01*
Y47848D01*
X41766Y47916D01*
X41842Y48101D01*
X41869Y48300D01*
X41842Y48499D01*
X41766Y48684D01*
X41645Y48842D01*
X41646Y48849D01*
X41689Y48969D01*
X42127D01*
X42150Y48973D01*
X42802D01*
Y49697D01*
X43071Y49967D01*
X43198Y49914D01*
Y48973D01*
X44102D01*
Y49267D01*
X44803D01*
X44925Y49146D01*
X44916Y49100D01*
X44945Y48953D01*
X45028Y48828D01*
X45153Y48745D01*
X45300Y48716D01*
X45447Y48745D01*
X45572Y48828D01*
X45655Y48953D01*
X45684Y49100D01*
X45655Y49247D01*
X45572Y49372D01*
X45447Y49455D01*
X45300Y49484D01*
X45254Y49475D01*
X45065Y49665D01*
X44989Y49715D01*
X44900Y49733D01*
X44102D01*
Y50027D01*
X43449D01*
X43381Y50154D01*
X43390Y50167D01*
X45500D01*
X45589Y50185D01*
X45665Y50235D01*
X46797Y51367D01*
X56582D01*
X56601Y51242D01*
X56416Y51166D01*
X56257Y51043D01*
X56134Y50884D01*
X56058Y50699D01*
X56031Y50500D01*
X56058Y50301D01*
X56134Y50116D01*
X56153Y50092D01*
X51030Y44969D01*
X43717D01*
X43383Y45303D01*
X43328Y45339D01*
X43263Y45352D01*
X36187D01*
X34387Y47152D01*
Y47711D01*
X34514Y47750D01*
X34528Y47728D01*
X34653Y47645D01*
X34800Y47616D01*
X34947Y47645D01*
X35072Y47728D01*
X35155Y47853D01*
X35184Y48000D01*
X35155Y48147D01*
X35072Y48272D01*
X34965Y48343D01*
Y49632D01*
X35317Y49983D01*
X35365Y50100D01*
Y50144D01*
X35492Y50182D01*
X35528Y50128D01*
X35631Y50059D01*
Y49541D01*
X35528Y49472D01*
X35445Y49347D01*
X35416Y49200D01*
X35445Y49053D01*
X35528Y48928D01*
X35597Y48882D01*
Y47270D01*
X35615Y47181D01*
X35665Y47105D01*
X36546Y46224D01*
X36542Y46200D01*
X36569Y46063D01*
X36647Y45947D01*
X36763Y45869D01*
X36900Y45842D01*
X37037Y45869D01*
X37153Y45947D01*
X37231Y46063D01*
X37258Y46200D01*
X37231Y46337D01*
X37153Y46453D01*
X37037Y46531D01*
X36900Y46558D01*
X36876Y46554D01*
X36063Y47366D01*
Y48923D01*
X36072Y48928D01*
X36155Y49053D01*
X36184Y49200D01*
X36155Y49347D01*
X36072Y49472D01*
X35969Y49541D01*
Y50059D01*
X36072Y50128D01*
X36155Y50253D01*
X36184Y50400D01*
X36155Y50547D01*
X36072Y50672D01*
X35947Y50755D01*
X35800Y50784D01*
X35653Y50755D01*
X35638Y50745D01*
X35536Y50830D01*
X35565Y50900D01*
Y51326D01*
X35646Y51364D01*
X35692Y51370D01*
X36341Y50721D01*
D02*
G37*
G36*
X45521Y36541D02*
Y36059D01*
X45405Y36033D01*
X45161D01*
X45071Y36015D01*
X44996Y35965D01*
X44847Y35816D01*
X44797Y35740D01*
X44779Y35651D01*
Y34480D01*
X44797Y34390D01*
X44847Y34315D01*
X47045Y32117D01*
X46996Y32000D01*
X44066D01*
Y36036D01*
X44589Y36559D01*
X45401D01*
X45521Y36541D01*
D02*
G37*
G36*
X26021D02*
Y36088D01*
X25549D01*
X25460Y36070D01*
X25384Y36020D01*
X25235Y35871D01*
X25185Y35796D01*
X25167Y35706D01*
Y34800D01*
X25185Y34711D01*
X25235Y34635D01*
X27753Y32117D01*
X27704Y32000D01*
X26229D01*
Y32604D01*
X26211Y32693D01*
X26161Y32769D01*
X24733Y34197D01*
Y36203D01*
X25089Y36559D01*
X25901D01*
X26021Y36541D01*
D02*
G37*
G36*
X30571Y28101D02*
X26935Y24465D01*
X26885Y24389D01*
X26867Y24300D01*
Y23249D01*
X26885Y23160D01*
X26935Y23084D01*
X27084Y22935D01*
X27160Y22885D01*
X27249Y22867D01*
X27505D01*
X27621Y22841D01*
X27621Y22732D01*
X27621Y22359D01*
X27501Y22343D01*
X27178D01*
X27170Y22341D01*
X26989D01*
X25033Y24297D01*
Y27858D01*
X25575Y28400D01*
X27052D01*
X27101Y28283D01*
X26413Y27595D01*
X26299Y27642D01*
X26100Y27669D01*
X25901Y27642D01*
X25716Y27566D01*
X25557Y27443D01*
X25434Y27284D01*
X25358Y27099D01*
X25331Y26900D01*
X25358Y26701D01*
X25434Y26516D01*
X25557Y26357D01*
X25716Y26234D01*
X25901Y26158D01*
X26100Y26131D01*
X26299Y26158D01*
X26484Y26234D01*
X26643Y26357D01*
X26766Y26516D01*
X26842Y26701D01*
X26869Y26900D01*
X26853Y27021D01*
X28232Y28400D01*
X30571D01*
Y28101D01*
D02*
G37*
G36*
X17000Y32100D02*
Y26200D01*
X233D01*
Y33300D01*
X15800D01*
X17000Y32100D01*
D02*
G37*
G36*
X55300Y26700D02*
X55300D01*
Y18800D01*
X65200Y8900D01*
Y8900D01*
X74767D01*
Y233D01*
X233D01*
Y26090D01*
X12869D01*
X12916Y25963D01*
X12890Y25900D01*
X12890Y19700D01*
X12913Y19645D01*
X12890Y19590D01*
Y13900D01*
X12922Y13822D01*
X13000Y13790D01*
X13090Y13700D01*
Y12100D01*
Y5700D01*
X13122Y5622D01*
X13200Y5590D01*
X14048D01*
Y3951D01*
X15350D01*
X16652D01*
Y5590D01*
X18796D01*
X18800Y5590D01*
X18923Y5504D01*
Y4373D01*
X21367D01*
Y4100D01*
X21385Y4011D01*
X21435Y3935D01*
X21935Y3435D01*
X22011Y3385D01*
X22100Y3367D01*
X24800D01*
X24889Y3385D01*
X24965Y3435D01*
X25544Y4014D01*
X25595Y4090D01*
X25612Y4179D01*
Y4780D01*
X25656Y4823D01*
X25753D01*
X25783Y4823D01*
X25953D01*
X26445Y4331D01*
X26520Y4281D01*
X26610Y4263D01*
X29173D01*
Y4120D01*
X29877D01*
Y4873D01*
X29173D01*
Y4729D01*
X27035D01*
X26956Y4823D01*
Y5492D01*
X28043D01*
X28152Y5383D01*
X28227Y5333D01*
X28316Y5315D01*
X29173D01*
Y5172D01*
X29877D01*
Y5925D01*
X29758D01*
Y6223D01*
X29877D01*
Y6977D01*
X29173D01*
Y6223D01*
X29292D01*
Y5925D01*
X29173D01*
Y5781D01*
X28413D01*
X28373Y5822D01*
Y7943D01*
X29286Y8856D01*
X29517D01*
X29545Y8729D01*
X29434Y8584D01*
X29358Y8399D01*
X29331Y8200D01*
X29358Y8001D01*
X29434Y7816D01*
X29557Y7657D01*
X29716Y7534D01*
X29901Y7458D01*
X30100Y7431D01*
X30146Y7438D01*
X30242Y7354D01*
Y6977D01*
X30123D01*
Y6223D01*
X30242D01*
Y5925D01*
X30123D01*
Y5172D01*
X30242D01*
Y4873D01*
X30123D01*
Y4120D01*
X30827D01*
Y4873D01*
X30708D01*
Y5172D01*
X30827D01*
Y5925D01*
X30708D01*
Y6223D01*
X30827D01*
Y6977D01*
X30708D01*
Y7550D01*
X30690Y7639D01*
X30662Y7681D01*
X30766Y7816D01*
X30842Y8001D01*
X30869Y8200D01*
X30842Y8399D01*
X30807Y8483D01*
X30915Y8555D01*
X32167Y7303D01*
Y3740D01*
X32185Y3651D01*
X32235Y3575D01*
X33348Y2462D01*
Y2008D01*
X34132D01*
Y2792D01*
X33678D01*
X32633Y3837D01*
Y7400D01*
X32615Y7489D01*
X32565Y7565D01*
X30876Y9254D01*
X30800Y9304D01*
X30749Y9315D01*
X30762Y9442D01*
X31312D01*
X34706Y6047D01*
Y5053D01*
X33399D01*
Y3695D01*
X36810D01*
Y5053D01*
X35423D01*
Y6196D01*
X35396Y6333D01*
X35318Y6449D01*
X31756Y10011D01*
X31800Y10145D01*
X31899Y10158D01*
X32084Y10234D01*
X32243Y10357D01*
X32366Y10516D01*
X32442Y10701D01*
X32469Y10900D01*
X32442Y11099D01*
X32366Y11284D01*
X32243Y11443D01*
X32084Y11566D01*
X31899Y11642D01*
X31700Y11669D01*
X31501Y11642D01*
X31316Y11566D01*
X31157Y11443D01*
X31034Y11284D01*
X30982Y11158D01*
X30664D01*
Y11277D01*
X30185D01*
X30136Y11394D01*
X30266Y11523D01*
X30664D01*
Y12227D01*
X30521D01*
Y12591D01*
X31670Y13741D01*
X31702Y13737D01*
X31783Y13627D01*
X32273D01*
Y14117D01*
X32163Y14198D01*
X32159Y14230D01*
X32428Y14498D01*
X32479D01*
X32502Y14494D01*
X32525Y14498D01*
X32827D01*
Y14876D01*
X32846Y14889D01*
X32973Y14822D01*
Y14498D01*
X33527D01*
Y14795D01*
X34128D01*
X34217Y14813D01*
X34293Y14863D01*
X38850Y19420D01*
X39001Y19358D01*
X39200Y19331D01*
X39399Y19358D01*
X39584Y19434D01*
X39743Y19557D01*
X39866Y19716D01*
X39876Y19742D01*
X45652D01*
X46242Y19152D01*
Y18652D01*
X46048D01*
Y17648D01*
X47152D01*
Y18652D01*
X46958D01*
Y19300D01*
X46931Y19437D01*
X46854Y19553D01*
X46592Y19815D01*
X46637Y19949D01*
X46699Y19958D01*
X46884Y20034D01*
X47043Y20157D01*
X47166Y20316D01*
X47228Y20467D01*
X47803D01*
X48229Y20041D01*
X48235Y20032D01*
X48667Y19601D01*
Y17754D01*
X48667Y17754D01*
Y16227D01*
X48523D01*
Y15523D01*
X49277D01*
Y16227D01*
X49133D01*
Y16982D01*
X49258Y17001D01*
X49334Y16816D01*
X49457Y16657D01*
X49616Y16534D01*
X49801Y16458D01*
X50000Y16431D01*
X50199Y16458D01*
X50384Y16534D01*
X50543Y16657D01*
X50666Y16816D01*
X50742Y17001D01*
X50769Y17200D01*
X50742Y17399D01*
X50666Y17584D01*
X50543Y17743D01*
X50384Y17866D01*
X50199Y17942D01*
X50000Y17969D01*
X49801Y17942D01*
X49616Y17866D01*
X49457Y17743D01*
X49334Y17584D01*
X49258Y17399D01*
X49133Y17418D01*
Y17754D01*
X49133Y17754D01*
Y19471D01*
X49250Y19520D01*
X50967Y17803D01*
Y16297D01*
X49803Y15133D01*
X49277D01*
Y15277D01*
X48523D01*
Y14573D01*
X48667D01*
Y12777D01*
X48300D01*
Y12023D01*
X48728D01*
X48776Y11906D01*
X48610Y11740D01*
X48560Y11664D01*
X48542Y11575D01*
Y11277D01*
X48423D01*
Y10523D01*
X49127D01*
Y11277D01*
X49008D01*
Y11478D01*
X49406Y11876D01*
X49523Y11828D01*
Y11373D01*
X50277D01*
Y11772D01*
X50472Y11967D01*
X50982D01*
X51056Y11856D01*
X51214Y11751D01*
X51400Y11714D01*
X51586Y11751D01*
X51744Y11856D01*
X51849Y12014D01*
X51886Y12200D01*
X51849Y12386D01*
X51744Y12544D01*
X51586Y12649D01*
X51400Y12686D01*
X51214Y12649D01*
X51056Y12544D01*
X50982Y12433D01*
X50436D01*
X50333Y12543D01*
X50338Y12633D01*
X52203Y14498D01*
X52427D01*
Y15302D01*
X52383D01*
Y15653D01*
X53665Y16935D01*
X53715Y17011D01*
X53733Y17100D01*
Y22400D01*
X53715Y22489D01*
X53665Y22565D01*
X53265Y22965D01*
X53189Y23015D01*
X53100Y23033D01*
X51995D01*
X51879Y23059D01*
X51879Y23541D01*
X51879Y23668D01*
X51879Y24042D01*
X51879Y24169D01*
Y24512D01*
X51990Y24580D01*
X52164Y24406D01*
X52151Y24386D01*
X52114Y24200D01*
X52151Y24014D01*
X52256Y23856D01*
X52414Y23751D01*
X52600Y23714D01*
X52786Y23751D01*
X52944Y23856D01*
X53049Y24014D01*
X53086Y24200D01*
X53049Y24386D01*
X52944Y24544D01*
X52786Y24649D01*
X52600Y24686D01*
X52553Y24677D01*
X52065Y25165D01*
X51989Y25215D01*
X51900Y25233D01*
X51300D01*
X51211Y25215D01*
X51135Y25165D01*
X50935Y24965D01*
X50885Y24889D01*
X50867Y24800D01*
Y24542D01*
X50348D01*
X50348Y24059D01*
X50348Y23932D01*
X50348Y23632D01*
X50316Y23531D01*
X50255Y23478D01*
X50235Y23465D01*
X48835Y22065D01*
X48785Y21989D01*
X48767Y21900D01*
Y20326D01*
X48650Y20277D01*
X48571Y20356D01*
X48565Y20365D01*
X48133Y20797D01*
Y22900D01*
X48115Y22989D01*
X48065Y23065D01*
X47665Y23465D01*
X47589Y23515D01*
X47563Y23521D01*
X47452Y23559D01*
Y24042D01*
X47452D01*
Y24059D01*
X47452D01*
Y24542D01*
X47238D01*
X47189Y24659D01*
X47697Y25167D01*
X49700D01*
X49789Y25185D01*
X49865Y25235D01*
X51211Y26581D01*
X51261Y26657D01*
X51279Y26746D01*
Y28400D01*
X53600D01*
X55300Y26700D01*
D02*
G37*
G36*
X38867Y24203D02*
Y20787D01*
X38816Y20766D01*
X38657Y20643D01*
X38534Y20484D01*
X38458Y20299D01*
X38431Y20100D01*
X38458Y19901D01*
X38520Y19750D01*
X34031Y15261D01*
X33527D01*
Y15302D01*
X33322D01*
X33274Y15419D01*
X33965Y16110D01*
X34015Y16186D01*
X34033Y16275D01*
Y18600D01*
X34015Y18689D01*
X33965Y18765D01*
X31933Y20797D01*
Y21328D01*
X32048Y21358D01*
Y21358D01*
X33579D01*
Y21367D01*
X33899D01*
X33988Y21385D01*
X34064Y21435D01*
X34670Y22042D01*
X34692Y22073D01*
X34736Y22067D01*
X34935Y22094D01*
X35120Y22170D01*
X35279Y22292D01*
X35402Y22452D01*
X35458Y22587D01*
X35598D01*
Y22438D01*
X36402D01*
Y23242D01*
X36402D01*
Y23358D01*
X36402D01*
Y24162D01*
X36233D01*
Y24603D01*
X36565Y24935D01*
X36615Y25011D01*
X36633Y25100D01*
Y26149D01*
X36699Y26158D01*
X36850Y26220D01*
X38867Y24203D01*
D02*
G37*
G36*
X22900Y27500D02*
Y23200D01*
X23900Y22200D01*
Y18100D01*
X23600Y17800D01*
X21100D01*
X19200Y19700D01*
X13000Y19700D01*
X13000Y25900D01*
X17300D01*
X17400Y26000D01*
Y28400D01*
X22000D01*
X22900Y27500D01*
D02*
G37*
G36*
X41267Y23700D02*
X41285Y23611D01*
X41335Y23535D01*
X42759Y22112D01*
X42834Y22061D01*
X42923Y22044D01*
X46500D01*
X46572Y22058D01*
X47452D01*
Y22541D01*
X47452D01*
Y22558D01*
X47452D01*
Y22852D01*
X47570Y22901D01*
X47667Y22803D01*
Y20933D01*
X47228D01*
X47166Y21084D01*
X47043Y21243D01*
X46884Y21366D01*
X46699Y21442D01*
X46500Y21469D01*
X46301Y21442D01*
X46116Y21366D01*
X45957Y21243D01*
X45834Y21084D01*
X45758Y20899D01*
X45731Y20700D01*
X45746Y20585D01*
X45649Y20462D01*
X45640Y20458D01*
X39876D01*
X39866Y20484D01*
X39743Y20643D01*
X39584Y20766D01*
X39399Y20842D01*
X39333Y20851D01*
Y24300D01*
X39315Y24389D01*
X39265Y24465D01*
X37180Y26550D01*
X37242Y26701D01*
X37269Y26900D01*
X37242Y27099D01*
X37166Y27284D01*
X37043Y27443D01*
X36884Y27566D01*
X36699Y27642D01*
X36500Y27669D01*
X36301Y27642D01*
X36116Y27566D01*
X35957Y27443D01*
X35834Y27284D01*
X35758Y27099D01*
X35731Y26900D01*
X35758Y26701D01*
X35834Y26516D01*
X35957Y26357D01*
X36116Y26234D01*
X36167Y26213D01*
Y25197D01*
X35903Y24933D01*
X35225D01*
X35136Y24915D01*
X35060Y24865D01*
X34029Y23834D01*
X33579D01*
Y23842D01*
X32048D01*
X32048Y23359D01*
X32048Y23232D01*
X32048Y22859D01*
X31932Y22833D01*
X31249D01*
X31160Y22815D01*
X31100Y22923D01*
X31143Y22957D01*
X31266Y23116D01*
X31342Y23301D01*
X31369Y23500D01*
X31342Y23699D01*
X31266Y23884D01*
X31143Y24043D01*
X30984Y24166D01*
X30799Y24242D01*
X30600Y24269D01*
X30401Y24242D01*
X30216Y24166D01*
X30057Y24043D01*
X29934Y23884D01*
X29858Y23699D01*
X29831Y23500D01*
X29858Y23301D01*
X29934Y23116D01*
X30057Y22957D01*
X30216Y22834D01*
X30401Y22758D01*
X30600Y22731D01*
X30799Y22758D01*
X30984Y22834D01*
X31050Y22730D01*
X30935Y22616D01*
X30885Y22540D01*
X30867Y22451D01*
Y18300D01*
Y16422D01*
X30026Y15581D01*
X29623D01*
X29600Y15577D01*
X29123D01*
Y14873D01*
X29267D01*
Y13347D01*
X29097Y13177D01*
X28723D01*
Y12423D01*
X29427D01*
Y12847D01*
X29665Y13085D01*
X29715Y13161D01*
X29733Y13250D01*
Y14873D01*
X29877D01*
Y15115D01*
X30123D01*
X30212Y15133D01*
X30288Y15183D01*
X31265Y16160D01*
X31315Y16236D01*
X31333Y16325D01*
Y17584D01*
X31359Y17617D01*
X31460Y17675D01*
X31500Y17667D01*
X32273D01*
Y17498D01*
X32827D01*
Y18156D01*
X32954Y18232D01*
X32973Y18221D01*
Y17498D01*
X33527Y17498D01*
X33567Y17388D01*
Y16372D01*
X32497Y15302D01*
X32273D01*
Y15003D01*
X30123Y12853D01*
X30072Y12777D01*
X30055Y12688D01*
Y12227D01*
X29911D01*
Y11828D01*
X29554Y11470D01*
X29427Y11523D01*
Y11577D01*
X28723D01*
Y10823D01*
X29427D01*
Y10967D01*
X29613D01*
X29702Y10985D01*
X29778Y11035D01*
X29794Y11051D01*
X29911Y11003D01*
Y10573D01*
X30664D01*
Y10692D01*
X30961D01*
X31034Y10516D01*
X31157Y10357D01*
X31249Y10285D01*
X31206Y10158D01*
X26560D01*
X26423Y10131D01*
X26307Y10053D01*
X23237Y6983D01*
X22877D01*
Y8277D01*
X19037D01*
X18923Y8277D01*
X18910Y8398D01*
Y10602D01*
X18923Y10723D01*
X22877D01*
Y14125D01*
X24985Y16233D01*
X25063Y16350D01*
X25090Y16487D01*
Y16723D01*
X25456D01*
Y17727D01*
X24353D01*
Y16723D01*
X24353D01*
X24340Y16602D01*
X22737Y14999D01*
X22610Y15052D01*
Y17690D01*
X23600D01*
X23678Y17722D01*
X23978Y18022D01*
X24010Y18100D01*
Y22200D01*
X23978Y22278D01*
X23010Y23246D01*
Y27500D01*
X22978Y27578D01*
X22273Y28283D01*
X22321Y28400D01*
X23263D01*
Y23404D01*
X23280Y23315D01*
X23331Y23239D01*
X25135Y21435D01*
X25211Y21385D01*
X25300Y21367D01*
X25582D01*
X25601Y21242D01*
X25416Y21166D01*
X25257Y21043D01*
X25134Y20884D01*
X25058Y20699D01*
X25031Y20500D01*
X25058Y20301D01*
X25134Y20116D01*
X25257Y19957D01*
X25416Y19834D01*
X25442Y19824D01*
Y19279D01*
X25469Y19142D01*
X25547Y19026D01*
X26328Y18245D01*
X26353Y18228D01*
Y17673D01*
X27456D01*
Y18677D01*
X26885D01*
X26835Y18752D01*
X26158Y19428D01*
Y19824D01*
X26184Y19834D01*
X26343Y19957D01*
X26466Y20116D01*
X26528Y20267D01*
X29400D01*
X29489Y20285D01*
X29490Y20285D01*
X29617Y20217D01*
Y18468D01*
X29506Y18394D01*
X29401Y18236D01*
X29364Y18050D01*
X29390Y17919D01*
X29335Y17865D01*
X29285Y17789D01*
X29267Y17700D01*
Y16527D01*
X29123D01*
Y15823D01*
X29877D01*
Y16527D01*
X29733D01*
Y17487D01*
X29831Y17567D01*
X29850Y17564D01*
X30036Y17601D01*
X30194Y17706D01*
X30299Y17864D01*
X30336Y18050D01*
X30299Y18236D01*
X30194Y18394D01*
X30083Y18468D01*
Y20950D01*
Y22350D01*
X30065Y22439D01*
X30015Y22515D01*
X29765Y22765D01*
X29689Y22815D01*
X29600Y22833D01*
X29268D01*
X29152Y22859D01*
X29152Y22968D01*
Y23342D01*
X29152D01*
Y23359D01*
X29152D01*
Y23842D01*
X28533D01*
Y24603D01*
X29197Y25267D01*
X32400D01*
X32489Y25285D01*
X32565Y25335D01*
X33373Y26144D01*
X33424Y26219D01*
X33442Y26309D01*
Y28400D01*
X41267D01*
Y23700D01*
D02*
G37*
G36*
X19154Y19590D02*
X21022Y17722D01*
X21100Y17690D01*
X22500D01*
Y14900D01*
X18700D01*
Y13900D01*
X13000D01*
Y19590D01*
X19154Y19590D01*
D02*
G37*
G36*
X18800Y5700D02*
X13200D01*
Y12100D01*
Y13700D01*
X18800D01*
Y5700D01*
D02*
G37*
%LPC*%
G36*
X48881Y64529D02*
Y63856D01*
X49454D01*
Y64529D01*
X48881D01*
D02*
G37*
G36*
X49454Y63344D02*
X48881D01*
Y62671D01*
X49454D01*
Y63344D01*
D02*
G37*
G36*
X54952Y62202D02*
X54151D01*
Y61501D01*
X54952D01*
Y62202D01*
D02*
G37*
G36*
X54049D02*
X53248D01*
Y61501D01*
X54049D01*
Y62202D01*
D02*
G37*
G36*
X54952Y61399D02*
X54151D01*
Y60698D01*
X54952D01*
Y61399D01*
D02*
G37*
G36*
X54049D02*
X53248D01*
Y60698D01*
X54049D01*
Y61399D01*
D02*
G37*
G36*
X26651Y59902D02*
Y59351D01*
X27152D01*
Y59902D01*
X26651D01*
D02*
G37*
G36*
X27152Y59249D02*
X26651D01*
Y58698D01*
X27152D01*
Y59249D01*
D02*
G37*
G36*
X26549D02*
X26048D01*
Y58698D01*
X26549D01*
Y59249D01*
D02*
G37*
G36*
X24151Y55948D02*
Y55651D01*
X24448D01*
X24431Y55737D01*
X24353Y55853D01*
X24237Y55931D01*
X24151Y55948D01*
D02*
G37*
G36*
X24049D02*
X23963Y55931D01*
X23847Y55853D01*
X23769Y55737D01*
X23752Y55651D01*
X24049D01*
Y55948D01*
D02*
G37*
G36*
X24448Y55549D02*
X24151D01*
Y55252D01*
X24237Y55269D01*
X24353Y55347D01*
X24431Y55463D01*
X24448Y55549D01*
D02*
G37*
G36*
X24049D02*
X23752D01*
X23769Y55463D01*
X23847Y55347D01*
X23963Y55269D01*
X24049Y55252D01*
Y55549D01*
D02*
G37*
G36*
X33797Y55392D02*
X33457D01*
Y55051D01*
X33797D01*
Y55392D01*
D02*
G37*
G36*
X33355D02*
X33014D01*
Y55051D01*
X33355D01*
Y55392D01*
D02*
G37*
G36*
X33797Y54949D02*
X33457D01*
Y54608D01*
X33797D01*
Y54949D01*
D02*
G37*
G36*
X33355D02*
X33014D01*
Y54608D01*
X33355D01*
Y54949D01*
D02*
G37*
G36*
X48451Y71648D02*
Y71351D01*
X48748D01*
X48731Y71437D01*
X48653Y71553D01*
X48537Y71631D01*
X48451Y71648D01*
D02*
G37*
G36*
X48349D02*
X48263Y71631D01*
X48147Y71553D01*
X48069Y71437D01*
X48052Y71351D01*
X48349D01*
Y71648D01*
D02*
G37*
G36*
X48748Y71249D02*
X48451D01*
Y70952D01*
X48537Y70969D01*
X48653Y71047D01*
X48731Y71163D01*
X48748Y71249D01*
D02*
G37*
G36*
X48349D02*
X48052D01*
X48069Y71163D01*
X48147Y71047D01*
X48263Y70969D01*
X48349Y70952D01*
Y71249D01*
D02*
G37*
G36*
X20656Y72159D02*
X18344D01*
Y69848D01*
X20656D01*
Y72159D01*
D02*
G37*
G36*
X29406Y72169D02*
X29104Y72130D01*
X28823Y72013D01*
X28582Y71828D01*
X28396Y71586D01*
X28280Y71305D01*
X28240Y71004D01*
X28280Y70702D01*
X28396Y70421D01*
X28582Y70179D01*
X28823Y69994D01*
X29104Y69878D01*
X29406Y69838D01*
X29708Y69878D01*
X29989Y69994D01*
X30230Y70179D01*
X30416Y70421D01*
X30532Y70702D01*
X30572Y71004D01*
X30532Y71305D01*
X30416Y71586D01*
X30230Y71828D01*
X29989Y72013D01*
X29708Y72130D01*
X29406Y72169D01*
D02*
G37*
G36*
X37300Y73011D02*
X36813Y72973D01*
X36339Y72859D01*
X35888Y72672D01*
X35471Y72417D01*
X35100Y72100D01*
X34783Y71729D01*
X34528Y71312D01*
X34341Y70861D01*
X34227Y70387D01*
X34189Y69900D01*
X34227Y69413D01*
X34341Y68939D01*
X34528Y68488D01*
X34783Y68071D01*
X35100Y67700D01*
X35471Y67383D01*
X35888Y67128D01*
X36339Y66941D01*
X36813Y66827D01*
X37300Y66789D01*
X37787Y66827D01*
X38261Y66941D01*
X38712Y67128D01*
X39129Y67383D01*
X39500Y67700D01*
X39817Y68071D01*
X40072Y68488D01*
X40259Y68939D01*
X40373Y69413D01*
X40411Y69900D01*
X40373Y70387D01*
X40259Y70861D01*
X40072Y71312D01*
X39817Y71729D01*
X39500Y72100D01*
X39129Y72417D01*
X38712Y72672D01*
X38261Y72859D01*
X37787Y72973D01*
X37300Y73011D01*
D02*
G37*
G36*
X29406Y68766D02*
X29104Y68726D01*
X28823Y68609D01*
X28582Y68424D01*
X28396Y68183D01*
X28280Y67902D01*
X28240Y67600D01*
X28280Y67298D01*
X28396Y67017D01*
X28582Y66776D01*
X28823Y66590D01*
X29104Y66474D01*
X29406Y66434D01*
X29708Y66474D01*
X29989Y66590D01*
X30230Y66776D01*
X30416Y67017D01*
X30532Y67298D01*
X30572Y67600D01*
X30532Y67902D01*
X30416Y68183D01*
X30230Y68424D01*
X29989Y68609D01*
X29708Y68726D01*
X29406Y68766D01*
D02*
G37*
G36*
X19500D02*
X19198Y68726D01*
X18917Y68609D01*
X18676Y68424D01*
X18490Y68183D01*
X18374Y67902D01*
X18334Y67600D01*
X18374Y67298D01*
X18490Y67017D01*
X18676Y66776D01*
X18917Y66590D01*
X19198Y66474D01*
X19500Y66434D01*
X19802Y66474D01*
X20083Y66590D01*
X20324Y66776D01*
X20510Y67017D01*
X20626Y67298D01*
X20666Y67600D01*
X20626Y67902D01*
X20510Y68183D01*
X20324Y68424D01*
X20083Y68609D01*
X19802Y68726D01*
X19500Y68766D01*
D02*
G37*
G36*
X6900Y68858D02*
X6577Y68826D01*
X6266Y68732D01*
X5979Y68579D01*
X5728Y68372D01*
X5521Y68121D01*
X5368Y67834D01*
X5274Y67523D01*
X5242Y67200D01*
X5274Y66877D01*
X5368Y66566D01*
X5521Y66279D01*
X5728Y66028D01*
X5979Y65821D01*
X6266Y65668D01*
X6577Y65574D01*
X6900Y65542D01*
X7223Y65574D01*
X7534Y65668D01*
X7821Y65821D01*
X8072Y66028D01*
X8279Y66279D01*
X8432Y66566D01*
X8526Y66877D01*
X8558Y67200D01*
X8526Y67523D01*
X8432Y67834D01*
X8279Y68121D01*
X8072Y68372D01*
X7821Y68579D01*
X7534Y68732D01*
X7223Y68826D01*
X6900Y68858D01*
D02*
G37*
G36*
X24751Y61948D02*
Y61651D01*
X25048D01*
X25031Y61737D01*
X24953Y61853D01*
X24837Y61931D01*
X24751Y61948D01*
D02*
G37*
G36*
X24649D02*
X24563Y61931D01*
X24447Y61853D01*
X24369Y61737D01*
X24352Y61651D01*
X24649D01*
Y61948D01*
D02*
G37*
G36*
X25048Y61549D02*
X24751D01*
Y61252D01*
X24837Y61269D01*
X24953Y61347D01*
X25031Y61463D01*
X25048Y61549D01*
D02*
G37*
G36*
X24649D02*
X24352D01*
X24369Y61463D01*
X24447Y61347D01*
X24563Y61269D01*
X24649Y61252D01*
Y61549D01*
D02*
G37*
G36*
X66500Y63883D02*
X66191Y63852D01*
X65894Y63762D01*
X65621Y63616D01*
X65381Y63419D01*
X65184Y63179D01*
X65038Y62906D01*
X64948Y62609D01*
X64917Y62300D01*
X64948Y61991D01*
X65038Y61694D01*
X65184Y61421D01*
X65381Y61181D01*
X65621Y60984D01*
X65894Y60838D01*
X66191Y60748D01*
X66500Y60717D01*
X66809Y60748D01*
X67106Y60838D01*
X67379Y60984D01*
X67619Y61181D01*
X67816Y61421D01*
X67962Y61694D01*
X68052Y61991D01*
X68083Y62300D01*
X68052Y62609D01*
X67962Y62906D01*
X67816Y63179D01*
X67619Y63419D01*
X67379Y63616D01*
X67106Y63762D01*
X66809Y63852D01*
X66500Y63883D01*
D02*
G37*
G36*
X24949Y59902D02*
X24448D01*
Y59351D01*
X24949D01*
Y59902D01*
D02*
G37*
G36*
X54952Y59499D02*
X54151D01*
Y58798D01*
X54952D01*
Y59499D01*
D02*
G37*
G36*
X54049D02*
X53248D01*
Y58798D01*
X54049D01*
Y59499D01*
D02*
G37*
G36*
X39802Y59252D02*
X39251D01*
Y58751D01*
X39802D01*
Y59252D01*
D02*
G37*
G36*
X39149D02*
X38598D01*
Y58751D01*
X39149D01*
Y59252D01*
D02*
G37*
G36*
X6052Y61152D02*
X3548D01*
Y58648D01*
X6052D01*
Y61152D01*
D02*
G37*
G36*
X9000Y61162D02*
X8673Y61119D01*
X8369Y60993D01*
X8107Y60793D01*
X7907Y60531D01*
X7781Y60227D01*
X7738Y59900D01*
X7781Y59573D01*
X7907Y59269D01*
X8107Y59007D01*
X8369Y58807D01*
X8673Y58681D01*
X9000Y58638D01*
X9327Y58681D01*
X9631Y58807D01*
X9893Y59007D01*
X10093Y59269D01*
X10219Y59573D01*
X10262Y59900D01*
X10219Y60227D01*
X10093Y60531D01*
X9893Y60793D01*
X9631Y60993D01*
X9327Y61119D01*
X9000Y61162D01*
D02*
G37*
G36*
X39802Y58649D02*
X39251D01*
Y58148D01*
X39802D01*
Y58649D01*
D02*
G37*
G36*
X39149D02*
X38598D01*
Y58148D01*
X39149D01*
Y58649D01*
D02*
G37*
G36*
X35500Y63410D02*
X35422Y63378D01*
X35390Y63300D01*
Y62477D01*
X35223D01*
Y59323D01*
X35390D01*
Y58100D01*
X35422Y58022D01*
X35500Y57990D01*
X37100Y57990D01*
X37178Y58022D01*
X38378Y59222D01*
X38410Y59300D01*
X38410Y63300D01*
X38378Y63378D01*
X38300Y63410D01*
X35500Y63410D01*
D02*
G37*
G36*
X35892Y57852D02*
X35551D01*
Y57511D01*
X35892D01*
Y57852D01*
D02*
G37*
G36*
X35449D02*
X35108D01*
Y57511D01*
X35449D01*
Y57852D01*
D02*
G37*
G36*
X36945Y57806D02*
X36604D01*
Y57465D01*
X36945D01*
Y57806D01*
D02*
G37*
G36*
X9500Y55713D02*
Y54900D01*
X10313D01*
X10226Y55108D01*
X10001Y55401D01*
X9708Y55626D01*
X9500Y55713D01*
D02*
G37*
G36*
X5300D02*
Y54900D01*
X6113D01*
X6026Y55108D01*
X5801Y55401D01*
X5508Y55626D01*
X5300Y55713D01*
D02*
G37*
G36*
X8500D02*
X8292Y55626D01*
X7999Y55401D01*
X7774Y55108D01*
X7687Y54900D01*
X8500D01*
Y55713D01*
D02*
G37*
G36*
X4300D02*
X4092Y55626D01*
X3799Y55401D01*
X3574Y55108D01*
X3487Y54900D01*
X4300D01*
Y55713D01*
D02*
G37*
G36*
X10313Y53900D02*
X9500D01*
Y53087D01*
X9708Y53174D01*
X10001Y53399D01*
X10226Y53692D01*
X10313Y53900D01*
D02*
G37*
G36*
X6113D02*
X5300D01*
Y53087D01*
X5508Y53174D01*
X5801Y53399D01*
X6026Y53692D01*
X6113Y53900D01*
D02*
G37*
G36*
X8500D02*
X7687D01*
X7774Y53692D01*
X7999Y53399D01*
X8292Y53174D01*
X8500Y53087D01*
Y53900D01*
D02*
G37*
G36*
X4300D02*
X3487D01*
X3574Y53692D01*
X3799Y53399D01*
X4092Y53174D01*
X4300Y53087D01*
Y53900D01*
D02*
G37*
G36*
X31852Y53395D02*
X31351D01*
Y52844D01*
X31852D01*
Y53395D01*
D02*
G37*
G36*
X31249D02*
X30748D01*
Y52844D01*
X31249D01*
Y53395D01*
D02*
G37*
G36*
X34600Y51884D02*
X34453Y51855D01*
X34328Y51772D01*
X34245Y51647D01*
X34216Y51500D01*
X34225Y51454D01*
X33878Y51108D01*
X33577D01*
Y51227D01*
X32823D01*
Y50828D01*
X32353Y50358D01*
X32177D01*
Y50477D01*
X31423D01*
Y49773D01*
X32177D01*
Y49892D01*
X32450D01*
X32539Y49910D01*
X32615Y49960D01*
X32706Y50051D01*
X32823Y50003D01*
Y49976D01*
X33149D01*
Y50277D01*
X33097D01*
X33049Y50394D01*
X33178Y50523D01*
X33577D01*
Y50642D01*
X33975D01*
X34064Y50660D01*
X34140Y50710D01*
X34554Y51125D01*
X34600Y51116D01*
X34747Y51145D01*
X34872Y51228D01*
X34955Y51353D01*
X34984Y51500D01*
X34955Y51647D01*
X34872Y51772D01*
X34747Y51855D01*
X34600Y51884D01*
D02*
G37*
G36*
X33577Y50277D02*
X33251D01*
Y49976D01*
X33577D01*
Y50277D01*
D02*
G37*
G36*
X30972Y51368D02*
X30219D01*
Y50665D01*
X30431D01*
Y50067D01*
X30432Y50060D01*
X30357Y49945D01*
X30338Y49933D01*
X29502D01*
Y50227D01*
X28598D01*
Y49173D01*
X29502D01*
Y49467D01*
X30602D01*
X30628Y49428D01*
X30731Y49359D01*
Y49127D01*
X30223D01*
Y48423D01*
X30977D01*
Y48888D01*
X31019Y48931D01*
X31056Y48985D01*
X31069Y49050D01*
Y49359D01*
X31172Y49428D01*
X31255Y49553D01*
X31284Y49700D01*
X31255Y49847D01*
X31172Y49972D01*
X31047Y50055D01*
X30900Y50084D01*
X30872Y50079D01*
X30769Y50169D01*
Y50665D01*
X30972D01*
Y51368D01*
D02*
G37*
G36*
X28202Y50227D02*
X27801D01*
Y49751D01*
X28202D01*
Y50227D01*
D02*
G37*
G36*
X27699D02*
X27298D01*
Y49751D01*
X27699D01*
Y50227D01*
D02*
G37*
G36*
X33577Y49874D02*
X33251D01*
Y49573D01*
X33577D01*
Y49874D01*
D02*
G37*
G36*
X33149D02*
X32823D01*
Y49573D01*
X33149D01*
Y49874D01*
D02*
G37*
G36*
X28202Y49649D02*
X27801D01*
Y49173D01*
X28202D01*
Y49649D01*
D02*
G37*
G36*
X27699D02*
X27298D01*
Y49173D01*
X27699D01*
Y49649D01*
D02*
G37*
G36*
X30977Y48177D02*
X30651D01*
Y47876D01*
X30977D01*
Y48177D01*
D02*
G37*
G36*
X30549D02*
X30223D01*
Y47876D01*
X30549D01*
Y48177D01*
D02*
G37*
G36*
X30977Y47774D02*
X30651D01*
Y47473D01*
X30977D01*
Y47774D01*
D02*
G37*
G36*
X30549D02*
X30223D01*
Y47473D01*
X30549D01*
Y47774D01*
D02*
G37*
G36*
X20500Y47569D02*
X20301Y47542D01*
X20116Y47466D01*
X19957Y47343D01*
X19834Y47184D01*
X19758Y46999D01*
X19753Y46965D01*
X19600D01*
X19483Y46917D01*
X19032Y46465D01*
X17552D01*
Y47102D01*
X16348D01*
Y45498D01*
X17552D01*
Y46135D01*
X19100D01*
X19217Y46183D01*
X19630Y46597D01*
X19673Y46598D01*
X19769Y46573D01*
X19834Y46416D01*
X19957Y46257D01*
X20116Y46134D01*
X20301Y46058D01*
X20500Y46031D01*
X20699Y46058D01*
X20884Y46134D01*
X21043Y46257D01*
X21166Y46416D01*
X21242Y46601D01*
X21269Y46800D01*
X21242Y46999D01*
X21166Y47184D01*
X21043Y47343D01*
X20884Y47466D01*
X20699Y47542D01*
X20500Y47569D01*
D02*
G37*
G36*
X15652Y47102D02*
X15101D01*
Y46351D01*
X15652D01*
Y47102D01*
D02*
G37*
G36*
X14999D02*
X14448D01*
Y46351D01*
X14999D01*
Y47102D01*
D02*
G37*
G36*
X15652Y46249D02*
X15101D01*
Y45498D01*
X15652D01*
Y46249D01*
D02*
G37*
G36*
X14999D02*
X14448D01*
Y45498D01*
X14999D01*
Y46249D01*
D02*
G37*
G36*
X27000Y45669D02*
X26801Y45642D01*
X26616Y45566D01*
X26457Y45443D01*
X26334Y45284D01*
X26272Y45133D01*
X25527D01*
Y45402D01*
X24473D01*
Y44498D01*
X25527D01*
Y44667D01*
X26272D01*
X26334Y44516D01*
X26457Y44357D01*
X26616Y44234D01*
X26801Y44158D01*
X26835Y44153D01*
Y43768D01*
X23832Y40765D01*
X19404D01*
X19287Y40717D01*
X16136Y37565D01*
X13313D01*
X13253Y37653D01*
X13137Y37731D01*
X13000Y37758D01*
X12863Y37731D01*
X12747Y37653D01*
X12669Y37537D01*
X12642Y37400D01*
X12669Y37263D01*
X12747Y37147D01*
X12863Y37069D01*
X13000Y37042D01*
X13137Y37069D01*
X13253Y37147D01*
X13313Y37235D01*
X16204D01*
X16321Y37283D01*
X19472Y40435D01*
X23900D01*
X24017Y40483D01*
X27117Y43583D01*
X27165Y43700D01*
Y44153D01*
X27199Y44158D01*
X27384Y44234D01*
X27543Y44357D01*
X27666Y44516D01*
X27742Y44701D01*
X27769Y44900D01*
X27742Y45099D01*
X27666Y45284D01*
X27543Y45443D01*
X27384Y45566D01*
X27199Y45642D01*
X27000Y45669D01*
D02*
G37*
G36*
X32700Y46569D02*
X32501Y46542D01*
X32316Y46466D01*
X32157Y46343D01*
X32034Y46184D01*
X31958Y45999D01*
X31931Y45800D01*
X31958Y45601D01*
X32034Y45416D01*
X32157Y45257D01*
X32316Y45134D01*
X32501Y45058D01*
X32700Y45031D01*
X32899Y45058D01*
X33084Y45134D01*
X33243Y45257D01*
X33366Y45416D01*
X33442Y45601D01*
X33469Y45800D01*
X33442Y45999D01*
X33366Y46184D01*
X33243Y46343D01*
X33084Y46466D01*
X32899Y46542D01*
X32700Y46569D01*
D02*
G37*
G36*
X22927Y44202D02*
X21923D01*
Y43198D01*
X22927D01*
Y43417D01*
X24473D01*
Y43198D01*
X25527D01*
Y44102D01*
X24473D01*
Y43883D01*
X22927D01*
Y44202D01*
D02*
G37*
G36*
X16602Y44902D02*
X15398D01*
Y43298D01*
X16602D01*
Y43467D01*
X20273D01*
Y43198D01*
X21277D01*
Y44202D01*
X20273D01*
Y43933D01*
X16602D01*
Y44902D01*
D02*
G37*
G36*
X70000Y45510D02*
X69666Y45477D01*
X69346Y45380D01*
X69050Y45222D01*
X68791Y45009D01*
X68578Y44750D01*
X68420Y44454D01*
X68323Y44134D01*
X68290Y43800D01*
X68323Y43466D01*
X68420Y43146D01*
X68578Y42850D01*
X68791Y42591D01*
X69050Y42378D01*
X69346Y42220D01*
X69666Y42123D01*
X70000Y42090D01*
X70334Y42123D01*
X70654Y42220D01*
X70950Y42378D01*
X71209Y42591D01*
X71422Y42850D01*
X71580Y43146D01*
X71677Y43466D01*
X71710Y43800D01*
X71677Y44134D01*
X71580Y44454D01*
X71422Y44750D01*
X71209Y45009D01*
X70950Y45222D01*
X70654Y45380D01*
X70334Y45477D01*
X70000Y45510D01*
D02*
G37*
G36*
X72900Y43369D02*
X72701Y43342D01*
X72516Y43266D01*
X72357Y43143D01*
X72234Y42984D01*
X72158Y42799D01*
X72131Y42600D01*
X72158Y42401D01*
X72234Y42216D01*
X72357Y42057D01*
X72516Y41934D01*
X72701Y41858D01*
X72900Y41831D01*
X73099Y41858D01*
X73284Y41934D01*
X73443Y42057D01*
X73566Y42216D01*
X73642Y42401D01*
X73669Y42600D01*
X73642Y42799D01*
X73566Y42984D01*
X73443Y43143D01*
X73284Y43266D01*
X73099Y43342D01*
X72900Y43369D01*
D02*
G37*
G36*
X5100Y47911D02*
X4613Y47873D01*
X4139Y47759D01*
X3688Y47572D01*
X3271Y47317D01*
X2900Y47000D01*
X2583Y46629D01*
X2328Y46212D01*
X2141Y45761D01*
X2027Y45287D01*
X1989Y44800D01*
X2027Y44313D01*
X2141Y43839D01*
X2328Y43388D01*
X2583Y42971D01*
X2900Y42600D01*
X3271Y42283D01*
X3688Y42028D01*
X4139Y41841D01*
X4613Y41727D01*
X5100Y41689D01*
X5587Y41727D01*
X6061Y41841D01*
X6512Y42028D01*
X6929Y42283D01*
X7300Y42600D01*
X7617Y42971D01*
X7872Y43388D01*
X8059Y43839D01*
X8173Y44313D01*
X8211Y44800D01*
X8173Y45287D01*
X8059Y45761D01*
X7872Y46212D01*
X7617Y46629D01*
X7300Y47000D01*
X6929Y47317D01*
X6512Y47572D01*
X6061Y47759D01*
X5587Y47873D01*
X5100Y47911D01*
D02*
G37*
G36*
X72900Y41369D02*
X72701Y41342D01*
X72516Y41266D01*
X72357Y41143D01*
X72234Y40984D01*
X72158Y40799D01*
X72131Y40600D01*
X72158Y40401D01*
X72234Y40216D01*
X72357Y40057D01*
X72516Y39934D01*
X72701Y39858D01*
X72900Y39831D01*
X73099Y39858D01*
X73284Y39934D01*
X73443Y40057D01*
X73566Y40216D01*
X73642Y40401D01*
X73669Y40600D01*
X73642Y40799D01*
X73566Y40984D01*
X73443Y41143D01*
X73284Y41266D01*
X73099Y41342D01*
X72900Y41369D01*
D02*
G37*
G36*
X51800Y42669D02*
X51601Y42642D01*
X51416Y42566D01*
X51257Y42443D01*
X51134Y42284D01*
X51058Y42099D01*
X51031Y41900D01*
X51058Y41701D01*
X51134Y41516D01*
X51257Y41357D01*
X51416Y41234D01*
X51601Y41158D01*
X51800Y41131D01*
X51999Y41158D01*
X52184Y41234D01*
X52343Y41357D01*
X52410Y41361D01*
X53935Y39835D01*
X54011Y39785D01*
X54100Y39767D01*
X54972D01*
X55034Y39616D01*
X55157Y39457D01*
X55316Y39334D01*
X55501Y39258D01*
X55700Y39231D01*
X55899Y39258D01*
X56084Y39334D01*
X56243Y39457D01*
X56366Y39616D01*
X56442Y39801D01*
X56469Y40000D01*
X56442Y40199D01*
X56366Y40384D01*
X56243Y40543D01*
X56084Y40666D01*
X55899Y40742D01*
X55700Y40769D01*
X55501Y40742D01*
X55316Y40666D01*
X55157Y40543D01*
X55034Y40384D01*
X54972Y40233D01*
X54197D01*
X52564Y41866D01*
X52569Y41900D01*
X52542Y42099D01*
X52466Y42284D01*
X52343Y42443D01*
X52184Y42566D01*
X51999Y42642D01*
X51800Y42669D01*
D02*
G37*
G36*
X41552Y39292D02*
X41211D01*
Y38951D01*
X41552D01*
Y39292D01*
D02*
G37*
G36*
X41109D02*
X40768D01*
Y38951D01*
X41109D01*
Y39292D01*
D02*
G37*
G36*
X41552Y38849D02*
X41211D01*
Y38508D01*
X41552D01*
Y38849D01*
D02*
G37*
G36*
X41109D02*
X40768D01*
Y38508D01*
X41109D01*
Y38849D01*
D02*
G37*
G36*
X66500Y39586D02*
Y38300D01*
X67786D01*
X67721Y38513D01*
X67549Y38835D01*
X67317Y39117D01*
X67035Y39349D01*
X66713Y39521D01*
X66500Y39586D01*
D02*
G37*
G36*
X65500D02*
X65287Y39521D01*
X64965Y39349D01*
X64683Y39117D01*
X64451Y38835D01*
X64279Y38513D01*
X64214Y38300D01*
X65500D01*
Y39586D01*
D02*
G37*
G36*
X70000Y41510D02*
X69666Y41477D01*
X69346Y41380D01*
X69050Y41222D01*
X68791Y41009D01*
X68578Y40750D01*
X68420Y40454D01*
X68323Y40134D01*
X68290Y39800D01*
X68323Y39466D01*
X68420Y39146D01*
X68578Y38850D01*
X68791Y38591D01*
X69050Y38378D01*
X69346Y38220D01*
X69666Y38123D01*
X70000Y38090D01*
X70334Y38123D01*
X70654Y38220D01*
X70950Y38378D01*
X71209Y38591D01*
X71422Y38850D01*
X71580Y39146D01*
X71677Y39466D01*
X71710Y39800D01*
X71677Y40134D01*
X71580Y40454D01*
X71422Y40750D01*
X71209Y41009D01*
X70950Y41222D01*
X70654Y41380D01*
X70334Y41477D01*
X70000Y41510D01*
D02*
G37*
G36*
X62000D02*
X61666Y41477D01*
X61346Y41380D01*
X61050Y41222D01*
X60791Y41009D01*
X60578Y40750D01*
X60420Y40454D01*
X60323Y40134D01*
X60290Y39800D01*
X60323Y39466D01*
X60420Y39146D01*
X60578Y38850D01*
X60791Y38591D01*
X61050Y38378D01*
X61346Y38220D01*
X61666Y38123D01*
X62000Y38090D01*
X62334Y38123D01*
X62654Y38220D01*
X62950Y38378D01*
X63209Y38591D01*
X63422Y38850D01*
X63580Y39146D01*
X63677Y39466D01*
X63710Y39800D01*
X63677Y40134D01*
X63580Y40454D01*
X63422Y40750D01*
X63209Y41009D01*
X62950Y41222D01*
X62654Y41380D01*
X62334Y41477D01*
X62000Y41510D01*
D02*
G37*
G36*
X21652Y38392D02*
X21311D01*
Y38051D01*
X21652D01*
Y38392D01*
D02*
G37*
G36*
X21209D02*
X20868D01*
Y38051D01*
X21209D01*
Y38392D01*
D02*
G37*
G36*
X72900Y39269D02*
X72701Y39242D01*
X72516Y39166D01*
X72357Y39043D01*
X72234Y38884D01*
X72158Y38699D01*
X72131Y38500D01*
X72158Y38301D01*
X72234Y38116D01*
X72357Y37957D01*
X72516Y37834D01*
X72701Y37758D01*
X72900Y37731D01*
X73099Y37758D01*
X73284Y37834D01*
X73443Y37957D01*
X73566Y38116D01*
X73642Y38301D01*
X73669Y38500D01*
X73642Y38699D01*
X73566Y38884D01*
X73443Y39043D01*
X73284Y39166D01*
X73099Y39242D01*
X72900Y39269D01*
D02*
G37*
G36*
X21652Y37949D02*
X21311D01*
Y37608D01*
X21652D01*
Y37949D01*
D02*
G37*
G36*
X21209D02*
X20868D01*
Y37608D01*
X21209D01*
Y37949D01*
D02*
G37*
G36*
X2451Y37748D02*
Y37451D01*
X2748D01*
X2731Y37537D01*
X2653Y37653D01*
X2537Y37731D01*
X2451Y37748D01*
D02*
G37*
G36*
X2349D02*
X2263Y37731D01*
X2147Y37653D01*
X2069Y37537D01*
X2052Y37451D01*
X2349D01*
Y37748D01*
D02*
G37*
G36*
X31979Y37542D02*
X31264D01*
Y37352D01*
X31979D01*
Y37542D01*
D02*
G37*
G36*
X51479D02*
X50764D01*
Y37352D01*
X51479D01*
Y37542D01*
D02*
G37*
G36*
X50663D02*
X49948D01*
Y37352D01*
X50663D01*
Y37542D01*
D02*
G37*
G36*
X31163D02*
X30448D01*
Y37352D01*
X31163D01*
Y37542D01*
D02*
G37*
G36*
X2748Y37349D02*
X2451D01*
Y37052D01*
X2537Y37069D01*
X2653Y37147D01*
X2731Y37263D01*
X2748Y37349D01*
D02*
G37*
G36*
X2349D02*
X2052D01*
X2069Y37263D01*
X2147Y37147D01*
X2263Y37069D01*
X2349Y37052D01*
Y37349D01*
D02*
G37*
G36*
X40632Y39292D02*
X39848D01*
Y38508D01*
X39899D01*
X39952Y38381D01*
X39630Y38059D01*
X39501Y38042D01*
X39316Y37966D01*
X39157Y37843D01*
X39034Y37684D01*
X38958Y37499D01*
X38931Y37300D01*
X38958Y37101D01*
X39034Y36916D01*
X39157Y36757D01*
X39316Y36634D01*
X39501Y36558D01*
X39700Y36531D01*
X39899Y36558D01*
X40084Y36634D01*
X40243Y36757D01*
X40366Y36916D01*
X40442Y37101D01*
X40469Y37300D01*
X40442Y37499D01*
X40366Y37684D01*
X40243Y37843D01*
X40223Y37859D01*
X40215Y37986D01*
X40405Y38175D01*
X40455Y38251D01*
X40473Y38340D01*
Y38508D01*
X40632D01*
Y39292D01*
D02*
G37*
G36*
X67786Y37300D02*
X66500D01*
Y36014D01*
X66713Y36079D01*
X67035Y36251D01*
X67317Y36483D01*
X67549Y36765D01*
X67721Y37087D01*
X67786Y37300D01*
D02*
G37*
G36*
X65500D02*
X64214D01*
X64279Y37087D01*
X64451Y36765D01*
X64683Y36483D01*
X64965Y36251D01*
X65287Y36079D01*
X65500Y36014D01*
Y37300D01*
D02*
G37*
G36*
X72900Y36769D02*
X72701Y36742D01*
X72516Y36666D01*
X72357Y36543D01*
X72234Y36384D01*
X72158Y36199D01*
X72131Y36000D01*
X72158Y35801D01*
X72234Y35616D01*
X72357Y35457D01*
X72516Y35334D01*
X72701Y35258D01*
X72900Y35231D01*
X73099Y35258D01*
X73284Y35334D01*
X73443Y35457D01*
X73566Y35616D01*
X73642Y35801D01*
X73669Y36000D01*
X73642Y36199D01*
X73566Y36384D01*
X73443Y36543D01*
X73284Y36666D01*
X73099Y36742D01*
X72900Y36769D01*
D02*
G37*
G36*
X21700Y36069D02*
X21501Y36042D01*
X21316Y35966D01*
X21157Y35843D01*
X21034Y35684D01*
X20958Y35499D01*
X20931Y35300D01*
X20958Y35101D01*
X21034Y34916D01*
X21071Y34868D01*
X20553Y34349D01*
X20463Y34331D01*
X20347Y34253D01*
X20269Y34137D01*
X20242Y34000D01*
X20269Y33863D01*
X20347Y33747D01*
X20463Y33669D01*
X20600Y33642D01*
X20737Y33669D01*
X20853Y33747D01*
X20931Y33863D01*
X20958Y34000D01*
X20943Y34080D01*
X21444Y34581D01*
X21501Y34558D01*
X21700Y34531D01*
X21899Y34558D01*
X22084Y34634D01*
X22243Y34757D01*
X22366Y34916D01*
X22442Y35101D01*
X22469Y35300D01*
X22442Y35499D01*
X22366Y35684D01*
X22243Y35843D01*
X22084Y35966D01*
X21899Y36042D01*
X21700Y36069D01*
D02*
G37*
G36*
X66500Y35586D02*
Y34300D01*
X67786D01*
X67721Y34513D01*
X67549Y34835D01*
X67317Y35117D01*
X67035Y35349D01*
X66713Y35521D01*
X66500Y35586D01*
D02*
G37*
G36*
X65500D02*
X65287Y35521D01*
X64965Y35349D01*
X64683Y35117D01*
X64451Y34835D01*
X64279Y34513D01*
X64214Y34300D01*
X65500D01*
Y35586D01*
D02*
G37*
G36*
X70000Y37510D02*
X69666Y37477D01*
X69346Y37380D01*
X69050Y37222D01*
X68791Y37009D01*
X68578Y36750D01*
X68420Y36454D01*
X68323Y36134D01*
X68290Y35800D01*
X68323Y35466D01*
X68420Y35146D01*
X68578Y34850D01*
X68791Y34591D01*
X69050Y34378D01*
X69346Y34220D01*
X69666Y34123D01*
X70000Y34090D01*
X70334Y34123D01*
X70654Y34220D01*
X70950Y34378D01*
X71209Y34591D01*
X71422Y34850D01*
X71580Y35146D01*
X71677Y35466D01*
X71710Y35800D01*
X71677Y36134D01*
X71580Y36454D01*
X71422Y36750D01*
X71209Y37009D01*
X70950Y37222D01*
X70654Y37380D01*
X70334Y37477D01*
X70000Y37510D01*
D02*
G37*
G36*
X62000D02*
X61666Y37477D01*
X61346Y37380D01*
X61050Y37222D01*
X60791Y37009D01*
X60578Y36750D01*
X60420Y36454D01*
X60323Y36134D01*
X60290Y35800D01*
X60323Y35466D01*
X60420Y35146D01*
X60578Y34850D01*
X60791Y34591D01*
X61050Y34378D01*
X61346Y34220D01*
X61666Y34123D01*
X62000Y34090D01*
X62334Y34123D01*
X62654Y34220D01*
X62950Y34378D01*
X63209Y34591D01*
X63422Y34850D01*
X63580Y35146D01*
X63677Y35466D01*
X63710Y35800D01*
X63677Y36134D01*
X63580Y36454D01*
X63422Y36750D01*
X63209Y37009D01*
X62950Y37222D01*
X62654Y37380D01*
X62334Y37477D01*
X62000Y37510D01*
D02*
G37*
G36*
X67786Y33300D02*
X66500D01*
Y32014D01*
X66713Y32079D01*
X67035Y32251D01*
X67317Y32483D01*
X67549Y32765D01*
X67721Y33087D01*
X67786Y33300D01*
D02*
G37*
G36*
X65500D02*
X64214D01*
X64279Y33087D01*
X64451Y32765D01*
X64683Y32483D01*
X64965Y32251D01*
X65287Y32079D01*
X65500Y32014D01*
Y33300D01*
D02*
G37*
G36*
X66500Y31586D02*
Y30300D01*
X67786D01*
X67721Y30513D01*
X67549Y30835D01*
X67317Y31117D01*
X67035Y31349D01*
X66713Y31521D01*
X66500Y31586D01*
D02*
G37*
G36*
X65500D02*
X65287Y31521D01*
X64965Y31349D01*
X64683Y31117D01*
X64451Y30835D01*
X64279Y30513D01*
X64214Y30300D01*
X65500D01*
Y31586D01*
D02*
G37*
G36*
X70000Y33510D02*
X69666Y33477D01*
X69346Y33380D01*
X69050Y33222D01*
X68791Y33009D01*
X68578Y32750D01*
X68420Y32454D01*
X68323Y32134D01*
X68290Y31800D01*
X68323Y31466D01*
X68420Y31146D01*
X68578Y30850D01*
X68791Y30591D01*
X69050Y30378D01*
X69346Y30220D01*
X69666Y30123D01*
X70000Y30090D01*
X70334Y30123D01*
X70654Y30220D01*
X70950Y30378D01*
X71209Y30591D01*
X71422Y30850D01*
X71580Y31146D01*
X71677Y31466D01*
X71710Y31800D01*
X71677Y32134D01*
X71580Y32454D01*
X71422Y32750D01*
X71209Y33009D01*
X70950Y33222D01*
X70654Y33380D01*
X70334Y33477D01*
X70000Y33510D01*
D02*
G37*
G36*
X62000D02*
X61666Y33477D01*
X61346Y33380D01*
X61050Y33222D01*
X60791Y33009D01*
X60578Y32750D01*
X60420Y32454D01*
X60323Y32134D01*
X60290Y31800D01*
X60323Y31466D01*
X60420Y31146D01*
X60578Y30850D01*
X60791Y30591D01*
X61050Y30378D01*
X61346Y30220D01*
X61666Y30123D01*
X62000Y30090D01*
X62334Y30123D01*
X62654Y30220D01*
X62950Y30378D01*
X63209Y30591D01*
X63422Y30850D01*
X63580Y31146D01*
X63677Y31466D01*
X63710Y31800D01*
X63677Y32134D01*
X63580Y32454D01*
X63422Y32750D01*
X63209Y33009D01*
X62950Y33222D01*
X62654Y33380D01*
X62334Y33477D01*
X62000Y33510D01*
D02*
G37*
G36*
X67786Y29300D02*
X66500D01*
Y28014D01*
X66713Y28079D01*
X67035Y28251D01*
X67317Y28483D01*
X67549Y28765D01*
X67721Y29087D01*
X67786Y29300D01*
D02*
G37*
G36*
X65500D02*
X64214D01*
X64279Y29087D01*
X64451Y28765D01*
X64683Y28483D01*
X64965Y28251D01*
X65287Y28079D01*
X65500Y28014D01*
Y29300D01*
D02*
G37*
G36*
X70000Y29510D02*
X69666Y29477D01*
X69346Y29380D01*
X69050Y29222D01*
X68791Y29009D01*
X68578Y28750D01*
X68420Y28454D01*
X68323Y28134D01*
X68290Y27800D01*
X68323Y27466D01*
X68420Y27146D01*
X68578Y26850D01*
X68791Y26591D01*
X69050Y26378D01*
X69346Y26220D01*
X69666Y26123D01*
X70000Y26090D01*
X70334Y26123D01*
X70654Y26220D01*
X70950Y26378D01*
X71209Y26591D01*
X71422Y26850D01*
X71580Y27146D01*
X71677Y27466D01*
X71710Y27800D01*
X71677Y28134D01*
X71580Y28454D01*
X71422Y28750D01*
X71209Y29009D01*
X70950Y29222D01*
X70654Y29380D01*
X70334Y29477D01*
X70000Y29510D01*
D02*
G37*
G36*
X62000D02*
X61666Y29477D01*
X61346Y29380D01*
X61050Y29222D01*
X60791Y29009D01*
X60578Y28750D01*
X60420Y28454D01*
X60323Y28134D01*
X60290Y27800D01*
X60323Y27466D01*
X60420Y27146D01*
X60578Y26850D01*
X60791Y26591D01*
X61050Y26378D01*
X61346Y26220D01*
X61666Y26123D01*
X62000Y26090D01*
X62334Y26123D01*
X62654Y26220D01*
X62950Y26378D01*
X63209Y26591D01*
X63422Y26850D01*
X63580Y27146D01*
X63677Y27466D01*
X63710Y27800D01*
X63677Y28134D01*
X63580Y28454D01*
X63422Y28750D01*
X63209Y29009D01*
X62950Y29222D01*
X62654Y29380D01*
X62334Y29477D01*
X62000Y29510D01*
D02*
G37*
G36*
X66500Y22883D02*
X66191Y22852D01*
X65894Y22762D01*
X65621Y22616D01*
X65381Y22419D01*
X65184Y22179D01*
X65038Y21906D01*
X64948Y21609D01*
X64917Y21300D01*
X64948Y20991D01*
X65038Y20694D01*
X65184Y20421D01*
X65381Y20181D01*
X65621Y19984D01*
X65894Y19838D01*
X66191Y19748D01*
X66500Y19717D01*
X66809Y19748D01*
X67106Y19838D01*
X67379Y19984D01*
X67619Y20181D01*
X67816Y20421D01*
X67962Y20694D01*
X68052Y20991D01*
X68083Y21300D01*
X68052Y21609D01*
X67962Y21906D01*
X67816Y22179D01*
X67619Y22419D01*
X67379Y22616D01*
X67106Y22762D01*
X66809Y22852D01*
X66500Y22883D01*
D02*
G37*
%LPD*%
G36*
X38300Y63300D02*
X38300Y59300D01*
X37100Y58100D01*
X35500Y58100D01*
Y59323D01*
X35999D01*
Y60900D01*
Y62477D01*
X35500D01*
Y63300D01*
X38300Y63300D01*
D02*
G37*
%LPC*%
G36*
X36877Y62477D02*
X36101D01*
Y60951D01*
X36877D01*
Y62477D01*
D02*
G37*
G36*
Y60849D02*
X36101D01*
Y59323D01*
X36877D01*
Y60849D01*
D02*
G37*
G36*
X46719Y64529D02*
X46146D01*
Y63856D01*
X46719D01*
Y64529D01*
D02*
G37*
G36*
Y63344D02*
X46146D01*
Y62671D01*
X46719D01*
Y63344D01*
D02*
G37*
G36*
X39852Y55802D02*
X39351D01*
Y55251D01*
X39852D01*
Y55802D01*
D02*
G37*
G36*
Y55149D02*
X39351D01*
Y54598D01*
X39852D01*
Y55149D01*
D02*
G37*
G36*
X39249D02*
X38748D01*
Y54598D01*
X39249D01*
Y55149D01*
D02*
G37*
G36*
X32899Y62477D02*
X32123D01*
Y60951D01*
X32899D01*
Y62477D01*
D02*
G37*
G36*
Y60849D02*
X32123D01*
Y59323D01*
X32899D01*
Y60849D01*
D02*
G37*
G36*
X39149Y57652D02*
X38598D01*
Y57151D01*
X39149D01*
Y57652D01*
D02*
G37*
G36*
Y57049D02*
X38598D01*
Y56548D01*
X39149D01*
Y57049D01*
D02*
G37*
G36*
X37387Y56443D02*
X37047D01*
Y56103D01*
X37387D01*
Y56443D01*
D02*
G37*
G36*
X36945D02*
X36604D01*
Y56103D01*
X36945D01*
Y56443D01*
D02*
G37*
G36*
X42827Y56499D02*
X42351D01*
Y56098D01*
X42827D01*
Y56499D01*
D02*
G37*
G36*
X41452Y55149D02*
X40951D01*
Y54598D01*
X41452D01*
Y55149D01*
D02*
G37*
G36*
X41152Y53349D02*
X40651D01*
Y52798D01*
X41152D01*
Y53349D01*
D02*
G37*
G36*
X40549D02*
X40048D01*
Y52798D01*
X40549D01*
Y53349D01*
D02*
G37*
G36*
X66500Y55586D02*
Y54300D01*
X67786D01*
X67721Y54513D01*
X67549Y54835D01*
X67317Y55117D01*
X67035Y55349D01*
X66713Y55521D01*
X66500Y55586D01*
D02*
G37*
G36*
X65500D02*
X65287Y55521D01*
X64965Y55349D01*
X64683Y55117D01*
X64451Y54835D01*
X64279Y54513D01*
X64214Y54300D01*
X65500D01*
Y55586D01*
D02*
G37*
G36*
X67786Y53300D02*
X66500D01*
Y52014D01*
X66713Y52079D01*
X67035Y52251D01*
X67317Y52483D01*
X67549Y52765D01*
X67721Y53087D01*
X67786Y53300D01*
D02*
G37*
G36*
X65500D02*
X64214D01*
X64279Y53087D01*
X64451Y52765D01*
X64683Y52483D01*
X64965Y52251D01*
X65287Y52079D01*
X65500Y52014D01*
Y53300D01*
D02*
G37*
G36*
X70000Y53510D02*
X69666Y53477D01*
X69346Y53380D01*
X69050Y53222D01*
X68791Y53009D01*
X68578Y52750D01*
X68420Y52454D01*
X68323Y52134D01*
X68290Y51800D01*
X68323Y51466D01*
X68420Y51146D01*
X68578Y50850D01*
X68791Y50591D01*
X69050Y50378D01*
X69346Y50220D01*
X69666Y50123D01*
X70000Y50090D01*
X70334Y50123D01*
X70654Y50220D01*
X70950Y50378D01*
X71209Y50591D01*
X71422Y50850D01*
X71580Y51146D01*
X71677Y51466D01*
X71710Y51800D01*
X71677Y52134D01*
X71580Y52454D01*
X71422Y52750D01*
X71209Y53009D01*
X70950Y53222D01*
X70654Y53380D01*
X70334Y53477D01*
X70000Y53510D01*
D02*
G37*
G36*
X66000Y51510D02*
X65666Y51477D01*
X65346Y51380D01*
X65050Y51222D01*
X64791Y51009D01*
X64578Y50750D01*
X64420Y50454D01*
X64323Y50134D01*
X64290Y49800D01*
X64323Y49466D01*
X64420Y49146D01*
X64578Y48850D01*
X64791Y48591D01*
X65050Y48378D01*
X65346Y48220D01*
X65666Y48123D01*
X66000Y48090D01*
X66334Y48123D01*
X66654Y48220D01*
X66950Y48378D01*
X67209Y48591D01*
X67422Y48850D01*
X67580Y49146D01*
X67677Y49466D01*
X67710Y49800D01*
X67677Y50134D01*
X67580Y50454D01*
X67422Y50750D01*
X67209Y51009D01*
X66950Y51222D01*
X66654Y51380D01*
X66334Y51477D01*
X66000Y51510D01*
D02*
G37*
G36*
X50652Y50477D02*
X49298D01*
Y50313D01*
X48552D01*
X48484Y50366D01*
X48299Y50442D01*
X48100Y50469D01*
X47901Y50442D01*
X47716Y50366D01*
X47557Y50243D01*
X47434Y50084D01*
X47358Y49899D01*
X47331Y49700D01*
X47358Y49501D01*
X47434Y49316D01*
X47557Y49157D01*
X47716Y49034D01*
X47901Y48958D01*
X48100Y48931D01*
X48299Y48958D01*
X48484Y49034D01*
X48552Y49087D01*
X49298D01*
Y48923D01*
X50652D01*
Y50477D01*
D02*
G37*
G36*
X37427Y50099D02*
X36951D01*
Y49698D01*
X37427D01*
Y50099D01*
D02*
G37*
G36*
X36849D02*
X36373D01*
Y49698D01*
X36849D01*
Y50099D01*
D02*
G37*
G36*
X52302Y50477D02*
X50948D01*
Y48923D01*
X52302D01*
Y49087D01*
X53448D01*
X53516Y49034D01*
X53701Y48958D01*
X53900Y48931D01*
X54099Y48958D01*
X54284Y49034D01*
X54443Y49157D01*
X54566Y49316D01*
X54642Y49501D01*
X54669Y49700D01*
X54642Y49899D01*
X54566Y50084D01*
X54443Y50243D01*
X54284Y50366D01*
X54099Y50442D01*
X53900Y50469D01*
X53701Y50442D01*
X53516Y50366D01*
X53448Y50313D01*
X52302D01*
Y50477D01*
D02*
G37*
G36*
X37427Y49302D02*
X36373D01*
Y48398D01*
X36731D01*
Y48253D01*
X36714Y48249D01*
X36556Y48144D01*
X36451Y47986D01*
X36414Y47800D01*
X36451Y47614D01*
X36556Y47456D01*
X36714Y47351D01*
X36900Y47314D01*
X37086Y47351D01*
X37244Y47456D01*
X37349Y47614D01*
X37386Y47800D01*
X37349Y47986D01*
X37244Y48144D01*
X37086Y48249D01*
X37069Y48253D01*
Y48398D01*
X37427D01*
Y48805D01*
X37431Y48827D01*
X37427Y48849D01*
Y49302D01*
D02*
G37*
G36*
X3949Y29552D02*
X2298D01*
Y28301D01*
X3949D01*
Y29552D01*
D02*
G37*
G36*
X5702D02*
X4051D01*
Y28250D01*
Y26948D01*
X5702D01*
Y28017D01*
X8550D01*
X8639Y28035D01*
X8715Y28085D01*
X8765Y28161D01*
X8783Y28250D01*
X8765Y28339D01*
X8715Y28415D01*
X8639Y28465D01*
X8550Y28483D01*
X5702D01*
Y29552D01*
D02*
G37*
G36*
X3949Y28199D02*
X2298D01*
Y26948D01*
X3949D01*
Y28199D01*
D02*
G37*
G36*
X45152Y17702D02*
X44048D01*
Y17559D01*
X41500D01*
X41363Y17531D01*
X41246Y17454D01*
X39847Y16054D01*
X39769Y15937D01*
X39742Y15800D01*
Y14927D01*
X37923D01*
Y11023D01*
X41877D01*
Y12453D01*
X42004Y12482D01*
X42035Y12435D01*
X43260Y11210D01*
X43336Y11160D01*
X43425Y11142D01*
X44148D01*
Y10573D01*
X44671D01*
X44702Y10573D01*
X44798D01*
X44829Y10573D01*
X45022D01*
X45091Y10504D01*
X45138Y10434D01*
X46737Y8835D01*
X46813Y8785D01*
X46902Y8767D01*
X47382D01*
X47456Y8656D01*
X47562Y8585D01*
X47523Y8458D01*
X41877D01*
Y8577D01*
X37923D01*
Y4673D01*
X41547D01*
X42885Y3335D01*
X42961Y3285D01*
X43050Y3267D01*
X44400D01*
X44489Y3285D01*
X44565Y3335D01*
X45240Y4010D01*
X45290Y4086D01*
X45308Y4175D01*
Y4780D01*
X45331Y4803D01*
X45469Y4801D01*
X45540Y4727D01*
X45558Y4638D01*
X45608Y4562D01*
X46539Y3631D01*
X46615Y3581D01*
X46704Y3563D01*
X49373D01*
Y3420D01*
X50077D01*
Y4173D01*
X49373D01*
Y4029D01*
X46800D01*
X46133Y4696D01*
X46186Y4823D01*
X46652D01*
Y5239D01*
X46779Y5292D01*
X47387Y4683D01*
X47463Y4633D01*
X47552Y4615D01*
X49373D01*
Y4472D01*
X50077D01*
Y5225D01*
X49958D01*
Y5523D01*
X50077D01*
Y6277D01*
X49958D01*
Y7028D01*
X50197Y7267D01*
X52603D01*
X53167Y6703D01*
Y3092D01*
X52948D01*
Y2308D01*
X53732D01*
Y3092D01*
X53633D01*
Y6800D01*
X53615Y6889D01*
X53565Y6965D01*
X52915Y7615D01*
X52968Y7742D01*
X53652D01*
X55432Y5961D01*
Y4996D01*
X54894D01*
Y3638D01*
X58306D01*
Y4996D01*
X56149D01*
Y6110D01*
X56122Y6247D01*
X56044Y6363D01*
X54054Y8353D01*
X53937Y8431D01*
X53800Y8458D01*
X48077D01*
X48038Y8585D01*
X48144Y8656D01*
X48249Y8814D01*
X48286Y9000D01*
X48249Y9186D01*
X48144Y9344D01*
X47986Y9449D01*
X47800Y9486D01*
X47614Y9449D01*
X47456Y9344D01*
X47382Y9233D01*
X46998D01*
X45775Y10456D01*
X45824Y10573D01*
X45971D01*
X46002Y10573D01*
Y10573D01*
X46098D01*
Y10573D01*
X46652D01*
Y10667D01*
X47473D01*
Y10523D01*
X48177D01*
Y11277D01*
X47473D01*
Y11133D01*
X46652D01*
Y12167D01*
X47350D01*
Y12023D01*
X48053D01*
Y12777D01*
X47350D01*
Y12633D01*
X46202D01*
X46113Y12615D01*
X46037Y12565D01*
X45649Y12177D01*
X45448D01*
Y12177D01*
X45352D01*
Y12177D01*
X44829D01*
X44798Y12177D01*
X44702D01*
X44671Y12177D01*
X44148D01*
Y11608D01*
X43522D01*
X42433Y12697D01*
Y14303D01*
X44147Y16017D01*
X46048D01*
Y15748D01*
X47152D01*
Y16752D01*
X46048D01*
Y16483D01*
X44050D01*
X43961Y16465D01*
X43885Y16415D01*
X42035Y14565D01*
X42004Y14518D01*
X41877Y14547D01*
Y14927D01*
X40458D01*
Y15652D01*
X41648Y16842D01*
X44048D01*
Y16698D01*
X45152D01*
Y17702D01*
D02*
G37*
G36*
X32527Y14091D02*
Y13627D01*
X32991D01*
X32969Y13736D01*
X32835Y13935D01*
X32636Y14069D01*
X32527Y14091D01*
D02*
G37*
G36*
X47900Y19486D02*
X47714Y19449D01*
X47556Y19344D01*
X47451Y19186D01*
X47414Y19000D01*
X47451Y18814D01*
X47556Y18656D01*
X47714Y18551D01*
X47767Y18540D01*
Y14018D01*
X47656Y13944D01*
X47551Y13786D01*
X47514Y13600D01*
X47551Y13414D01*
X47656Y13256D01*
X47814Y13151D01*
X48000Y13114D01*
X48186Y13151D01*
X48344Y13256D01*
X48449Y13414D01*
X48486Y13600D01*
X48449Y13786D01*
X48344Y13944D01*
X48233Y14018D01*
Y18649D01*
X48244Y18656D01*
X48349Y18814D01*
X48386Y19000D01*
X48349Y19186D01*
X48244Y19344D01*
X48086Y19449D01*
X47900Y19486D01*
D02*
G37*
G36*
X46600Y14086D02*
X46414Y14049D01*
X46256Y13944D01*
X46151Y13786D01*
X46114Y13600D01*
X46151Y13414D01*
X46256Y13256D01*
X46414Y13151D01*
X46600Y13114D01*
X46786Y13151D01*
X46944Y13256D01*
X47049Y13414D01*
X47086Y13600D01*
X47049Y13786D01*
X46944Y13944D01*
X46786Y14049D01*
X46600Y14086D01*
D02*
G37*
G36*
X32991Y13373D02*
X32527D01*
Y12909D01*
X32636Y12931D01*
X32835Y13065D01*
X32969Y13264D01*
X32991Y13373D01*
D02*
G37*
G36*
X32273D02*
X31809D01*
X31831Y13264D01*
X31965Y13065D01*
X32164Y12931D01*
X32273Y12909D01*
Y13373D01*
D02*
G37*
G36*
X53000Y14269D02*
X52801Y14242D01*
X52616Y14166D01*
X52457Y14043D01*
X52334Y13884D01*
X52258Y13699D01*
X52231Y13500D01*
X52258Y13301D01*
X52334Y13116D01*
X52457Y12957D01*
X52616Y12834D01*
X52801Y12758D01*
X53000Y12731D01*
X53199Y12758D01*
X53384Y12834D01*
X53543Y12957D01*
X53666Y13116D01*
X53742Y13301D01*
X53769Y13500D01*
X53742Y13699D01*
X53666Y13884D01*
X53543Y14043D01*
X53384Y14166D01*
X53199Y14242D01*
X53000Y14269D01*
D02*
G37*
G36*
X5702Y24652D02*
X2298D01*
Y22048D01*
X3087D01*
Y14174D01*
X2957Y14005D01*
X2871Y13798D01*
X2842Y13576D01*
X2871Y13354D01*
X2957Y13147D01*
X3093Y12969D01*
X3271Y12833D01*
X3478Y12747D01*
X3700Y12718D01*
X3922Y12747D01*
X4129Y12833D01*
X4307Y12969D01*
X4443Y13147D01*
X4529Y13354D01*
X4558Y13576D01*
X4529Y13798D01*
X4443Y14005D01*
X4313Y14174D01*
Y22048D01*
X5702D01*
Y24652D01*
D02*
G37*
G36*
X53700Y11769D02*
X53501Y11742D01*
X53316Y11666D01*
X53157Y11543D01*
X53034Y11384D01*
X52958Y11199D01*
X52931Y11000D01*
X52958Y10801D01*
X53034Y10616D01*
X53157Y10457D01*
X53316Y10334D01*
X53501Y10258D01*
X53700Y10231D01*
X53899Y10258D01*
X54084Y10334D01*
X54243Y10457D01*
X54366Y10616D01*
X54442Y10801D01*
X54469Y11000D01*
X54442Y11199D01*
X54366Y11384D01*
X54243Y11543D01*
X54084Y11666D01*
X53899Y11742D01*
X53700Y11769D01*
D02*
G37*
G36*
X11452Y24102D02*
X8848D01*
Y21566D01*
X6074Y18791D01*
X5941Y18592D01*
X5894Y18358D01*
Y14162D01*
X3662Y11929D01*
X3478Y11905D01*
X3271Y11819D01*
X3093Y11683D01*
X2957Y11505D01*
X2871Y11298D01*
X2842Y11076D01*
X2871Y10854D01*
X2957Y10647D01*
X3093Y10469D01*
X3271Y10333D01*
X3478Y10247D01*
X3700Y10218D01*
X3922Y10247D01*
X4129Y10333D01*
X4307Y10469D01*
X4443Y10647D01*
X4529Y10854D01*
X4558Y11076D01*
X4557Y11089D01*
X6941Y13474D01*
X7074Y13673D01*
X7121Y13908D01*
Y18104D01*
X9716Y20698D01*
X11452D01*
Y24102D01*
D02*
G37*
G36*
X50400Y11086D02*
X50214Y11049D01*
X50056Y10944D01*
X49951Y10786D01*
X49914Y10600D01*
X49951Y10414D01*
X50056Y10256D01*
X50214Y10151D01*
X50400Y10114D01*
X50586Y10151D01*
X50744Y10256D01*
X50849Y10414D01*
X50886Y10600D01*
X50849Y10786D01*
X50744Y10944D01*
X50586Y11049D01*
X50400Y11086D01*
D02*
G37*
G36*
X60800Y10069D02*
X60601Y10042D01*
X60416Y9966D01*
X60257Y9843D01*
X60134Y9684D01*
X60058Y9499D01*
X60031Y9300D01*
X60058Y9101D01*
X60134Y8916D01*
X60257Y8757D01*
X60416Y8634D01*
X60601Y8558D01*
X60800Y8531D01*
X60999Y8558D01*
X61184Y8634D01*
X61343Y8757D01*
X61466Y8916D01*
X61542Y9101D01*
X61569Y9300D01*
X61542Y9499D01*
X61466Y9684D01*
X61343Y9843D01*
X61184Y9966D01*
X60999Y10042D01*
X60800Y10069D01*
D02*
G37*
G36*
X11552Y17702D02*
X8948D01*
Y15359D01*
X8937Y15300D01*
Y14680D01*
X3689Y9433D01*
X3478Y9405D01*
X3271Y9319D01*
X3093Y9183D01*
X2957Y9005D01*
X2871Y8798D01*
X2842Y8576D01*
X2871Y8354D01*
X2957Y8147D01*
X3093Y7969D01*
X3271Y7833D01*
X3478Y7747D01*
X3700Y7718D01*
X3922Y7747D01*
X4129Y7833D01*
X4307Y7969D01*
X4443Y8147D01*
X4529Y8354D01*
X4557Y8565D01*
X9984Y13992D01*
X10117Y14191D01*
X10138Y14298D01*
X11552D01*
Y17702D01*
D02*
G37*
G36*
X11752Y11302D02*
X9148D01*
Y8766D01*
X7072Y6689D01*
X4298D01*
X4129Y6819D01*
X3922Y6905D01*
X3700Y6934D01*
X3478Y6905D01*
X3271Y6819D01*
X3093Y6683D01*
X2957Y6505D01*
X2871Y6298D01*
X2842Y6076D01*
X2871Y5854D01*
X2957Y5647D01*
X3093Y5469D01*
X3271Y5332D01*
X3478Y5247D01*
X3700Y5217D01*
X3922Y5247D01*
X4129Y5332D01*
X4298Y5462D01*
X7326D01*
X7561Y5509D01*
X7760Y5642D01*
X10016Y7898D01*
X11752D01*
Y11302D01*
D02*
G37*
G36*
X62600Y8169D02*
X62401Y8142D01*
X62216Y8066D01*
X62057Y7943D01*
X61934Y7784D01*
X61858Y7599D01*
X61831Y7400D01*
X61858Y7201D01*
X61934Y7016D01*
X62057Y6857D01*
X62216Y6734D01*
X62401Y6658D01*
X62600Y6631D01*
X62799Y6658D01*
X62984Y6734D01*
X63143Y6857D01*
X63266Y7016D01*
X63342Y7201D01*
X63369Y7400D01*
X63342Y7599D01*
X63266Y7784D01*
X63143Y7943D01*
X62984Y8066D01*
X62799Y8142D01*
X62600Y8169D01*
D02*
G37*
G36*
X51700Y7086D02*
X51514Y7049D01*
X51356Y6944D01*
X51251Y6786D01*
X51242Y6743D01*
X51175Y6730D01*
X51100Y6679D01*
X50697Y6277D01*
X50323D01*
Y5523D01*
X50442D01*
Y5225D01*
X50323D01*
Y4472D01*
X50442D01*
Y4173D01*
X50323D01*
Y3420D01*
X51027D01*
Y4173D01*
X50908D01*
Y4472D01*
X51027D01*
Y5225D01*
X50908D01*
Y5523D01*
X51027D01*
Y5947D01*
X51338Y6258D01*
X51356Y6256D01*
X51514Y6151D01*
X51700Y6114D01*
X51886Y6151D01*
X52044Y6256D01*
X52149Y6414D01*
X52186Y6600D01*
X52149Y6786D01*
X52044Y6944D01*
X51886Y7049D01*
X51700Y7086D01*
D02*
G37*
G36*
X11752Y5602D02*
X9148D01*
Y4189D01*
X4298D01*
X4129Y4319D01*
X3922Y4405D01*
X3700Y4434D01*
X3478Y4405D01*
X3271Y4319D01*
X3093Y4182D01*
X2957Y4005D01*
X2871Y3798D01*
X2842Y3576D01*
X2871Y3353D01*
X2957Y3146D01*
X3093Y2969D01*
X3271Y2832D01*
X3478Y2747D01*
X3700Y2717D01*
X3922Y2747D01*
X4129Y2832D01*
X4298Y2962D01*
X9148D01*
Y2198D01*
X11752D01*
Y5602D01*
D02*
G37*
G36*
X62600Y5369D02*
X62401Y5342D01*
X62216Y5266D01*
X62057Y5143D01*
X61934Y4984D01*
X61858Y4799D01*
X61831Y4600D01*
X61858Y4401D01*
X61934Y4216D01*
X62057Y4057D01*
X62216Y3934D01*
X62401Y3858D01*
X62600Y3831D01*
X62799Y3858D01*
X62984Y3934D01*
X63143Y4057D01*
X63266Y4216D01*
X63342Y4401D01*
X63369Y4600D01*
X63342Y4799D01*
X63266Y4984D01*
X63143Y5143D01*
X62984Y5266D01*
X62799Y5342D01*
X62600Y5369D01*
D02*
G37*
G36*
X53127Y15302D02*
X52573D01*
Y14498D01*
X53127D01*
Y14667D01*
X54403D01*
X56120Y12950D01*
X56058Y12799D01*
X56031Y12600D01*
X56058Y12401D01*
X56134Y12216D01*
X56257Y12057D01*
X56416Y11934D01*
X56547Y11880D01*
Y10697D01*
X54894D01*
Y9340D01*
X57667D01*
Y8528D01*
X57516Y8466D01*
X57357Y8343D01*
X57234Y8184D01*
X57158Y7999D01*
X57131Y7800D01*
X57158Y7601D01*
X57234Y7416D01*
X57357Y7257D01*
X57516Y7134D01*
X57701Y7058D01*
X57900Y7031D01*
X58045Y7050D01*
X59067Y6029D01*
Y3797D01*
X58203Y2933D01*
X54652D01*
Y3092D01*
X53868D01*
Y2308D01*
X54652D01*
Y2467D01*
X58300D01*
X58389Y2485D01*
X58465Y2535D01*
X59465Y3535D01*
X59515Y3611D01*
X59533Y3700D01*
Y6125D01*
X59515Y6214D01*
X59465Y6290D01*
X58467Y7287D01*
X58566Y7416D01*
X58642Y7601D01*
X58669Y7800D01*
X58642Y7999D01*
X58566Y8184D01*
X58443Y8343D01*
X58284Y8466D01*
X58133Y8528D01*
Y9340D01*
X58306D01*
Y10697D01*
X57264D01*
Y11995D01*
X57343Y12057D01*
X57466Y12216D01*
X57542Y12401D01*
X57569Y12600D01*
X57542Y12799D01*
X57466Y12984D01*
X57343Y13143D01*
X57184Y13266D01*
X56999Y13342D01*
X56800Y13369D01*
X56601Y13342D01*
X56450Y13280D01*
X54665Y15065D01*
X54589Y15115D01*
X54500Y15133D01*
X53127D01*
Y15302D01*
D02*
G37*
G36*
X36700Y13369D02*
X36501Y13342D01*
X36316Y13266D01*
X36157Y13143D01*
X36034Y12984D01*
X35958Y12799D01*
X35931Y12600D01*
X35958Y12401D01*
X35968Y12375D01*
X34851Y11258D01*
X34773Y11141D01*
X34746Y11004D01*
Y10755D01*
X33399D01*
Y9397D01*
X36810D01*
Y10755D01*
X35525D01*
X35489Y10882D01*
X36475Y11868D01*
X36501Y11858D01*
X36700Y11831D01*
X36899Y11858D01*
X37024Y11909D01*
X37167Y11767D01*
Y3397D01*
X36403Y2633D01*
X35052D01*
Y2792D01*
X34268D01*
Y2008D01*
X35052D01*
Y2167D01*
X36500D01*
X36589Y2185D01*
X36665Y2235D01*
X37565Y3135D01*
X37615Y3211D01*
X37633Y3300D01*
Y11863D01*
X37615Y11952D01*
X37565Y12028D01*
X37369Y12224D01*
X37442Y12401D01*
X37469Y12600D01*
X37442Y12799D01*
X37366Y12984D01*
X37243Y13143D01*
X37084Y13266D01*
X36899Y13342D01*
X36700Y13369D01*
D02*
G37*
G36*
X16652Y3849D02*
X15401D01*
Y2198D01*
X16652D01*
Y3849D01*
D02*
G37*
G36*
X15299D02*
X14048D01*
Y2198D01*
X15299D01*
Y3849D01*
D02*
G37*
G36*
X30200Y3269D02*
X30001Y3242D01*
X29816Y3166D01*
X29657Y3043D01*
X29534Y2884D01*
X29458Y2699D01*
X29431Y2500D01*
X29458Y2301D01*
X29534Y2116D01*
X29657Y1957D01*
X29816Y1834D01*
X30001Y1758D01*
X30200Y1731D01*
X30399Y1758D01*
X30584Y1834D01*
X30743Y1957D01*
X30866Y2116D01*
X30942Y2301D01*
X30969Y2500D01*
X30942Y2699D01*
X30866Y2884D01*
X30743Y3043D01*
X30584Y3166D01*
X30399Y3242D01*
X30200Y3269D01*
D02*
G37*
G36*
X68400Y7911D02*
X67913Y7873D01*
X67439Y7759D01*
X66988Y7572D01*
X66571Y7317D01*
X66200Y7000D01*
X65883Y6629D01*
X65628Y6212D01*
X65441Y5761D01*
X65327Y5287D01*
X65289Y4800D01*
X65327Y4313D01*
X65441Y3839D01*
X65628Y3388D01*
X65883Y2971D01*
X66200Y2600D01*
X66571Y2283D01*
X66988Y2028D01*
X67439Y1841D01*
X67913Y1727D01*
X68400Y1689D01*
X68887Y1727D01*
X69361Y1841D01*
X69812Y2028D01*
X70229Y2283D01*
X70600Y2600D01*
X70917Y2971D01*
X71172Y3388D01*
X71359Y3839D01*
X71473Y4313D01*
X71511Y4800D01*
X71473Y5287D01*
X71359Y5761D01*
X71172Y6212D01*
X70917Y6629D01*
X70600Y7000D01*
X70229Y7317D01*
X69812Y7572D01*
X69361Y7759D01*
X68887Y7873D01*
X68400Y7911D01*
D02*
G37*
G36*
X34727Y21291D02*
Y20827D01*
X35191D01*
X35169Y20936D01*
X35035Y21135D01*
X34836Y21269D01*
X34727Y21291D01*
D02*
G37*
G36*
X34473D02*
X34364Y21269D01*
X34165Y21135D01*
X34031Y20936D01*
X34009Y20827D01*
X34473D01*
Y21291D01*
D02*
G37*
G36*
X35191Y20573D02*
X34727D01*
Y20109D01*
X34836Y20131D01*
X35035Y20265D01*
X35169Y20464D01*
X35191Y20573D01*
D02*
G37*
G36*
X34473D02*
X34009D01*
X34031Y20464D01*
X34165Y20265D01*
X34364Y20131D01*
X34473Y20109D01*
Y20573D01*
D02*
G37*
G36*
X36627Y19491D02*
Y19027D01*
X37091D01*
X37069Y19136D01*
X36935Y19335D01*
X36736Y19469D01*
X36627Y19491D01*
D02*
G37*
G36*
X36373D02*
X36264Y19469D01*
X36065Y19335D01*
X35931Y19136D01*
X35909Y19027D01*
X36373D01*
Y19491D01*
D02*
G37*
G36*
X37091Y18773D02*
X36627D01*
Y18309D01*
X36736Y18331D01*
X36935Y18465D01*
X37069Y18664D01*
X37091Y18773D01*
D02*
G37*
G36*
X36373D02*
X35909D01*
X35931Y18664D01*
X36065Y18465D01*
X36264Y18331D01*
X36373Y18309D01*
Y18773D01*
D02*
G37*
G36*
X14999Y24102D02*
X13748D01*
Y22451D01*
X14999D01*
Y24102D01*
D02*
G37*
G36*
X22100Y22969D02*
X21901Y22942D01*
X21716Y22866D01*
X21557Y22743D01*
X21434Y22584D01*
X21358Y22399D01*
X21331Y22200D01*
X21358Y22001D01*
X21434Y21816D01*
X21557Y21657D01*
X21716Y21534D01*
X21901Y21458D01*
X22100Y21431D01*
X22299Y21458D01*
X22484Y21534D01*
X22643Y21657D01*
X22766Y21816D01*
X22842Y22001D01*
X22869Y22200D01*
X22842Y22399D01*
X22766Y22584D01*
X22643Y22743D01*
X22484Y22866D01*
X22299Y22942D01*
X22100Y22969D01*
D02*
G37*
G36*
X16352Y24102D02*
X15101D01*
Y22400D01*
Y20698D01*
X16352D01*
Y22167D01*
X19700D01*
X19789Y22185D01*
X19865Y22235D01*
X19915Y22311D01*
X19933Y22400D01*
X19915Y22489D01*
X19865Y22565D01*
X19789Y22615D01*
X19700Y22633D01*
X16352D01*
Y24102D01*
D02*
G37*
G36*
X14999Y22349D02*
X13748D01*
Y20698D01*
X14999D01*
Y22349D01*
D02*
G37*
G36*
X32527Y17191D02*
Y16727D01*
X32991D01*
X32969Y16836D01*
X32835Y17035D01*
X32636Y17169D01*
X32527Y17191D01*
D02*
G37*
G36*
X32273D02*
X32164Y17169D01*
X31965Y17035D01*
X31831Y16836D01*
X31809Y16727D01*
X32273D01*
Y17191D01*
D02*
G37*
G36*
X32991Y16473D02*
X32527D01*
Y16009D01*
X32636Y16031D01*
X32835Y16165D01*
X32969Y16364D01*
X32991Y16473D01*
D02*
G37*
G36*
X32273D02*
X31809D01*
X31831Y16364D01*
X31965Y16165D01*
X32164Y16031D01*
X32273Y16009D01*
Y16473D01*
D02*
G37*
G36*
X27456Y16777D02*
X26353D01*
Y16508D01*
X25975D01*
X25886Y16490D01*
X25810Y16440D01*
X24564Y15194D01*
X24514Y15118D01*
X24496Y15029D01*
Y12177D01*
X24453D01*
Y10573D01*
X24976D01*
X25006Y10573D01*
X25103D01*
X25133Y10573D01*
X25656D01*
Y10573D01*
X25753D01*
Y10573D01*
X26276D01*
X26306Y10573D01*
X26403D01*
X26433Y10573D01*
X26956D01*
Y10967D01*
X27773D01*
Y10823D01*
X28477D01*
Y11577D01*
X27773D01*
Y11433D01*
X26956D01*
Y12177D01*
X26433D01*
X26403Y12177D01*
X26289Y12209D01*
Y12359D01*
X26497Y12567D01*
X27773D01*
Y12423D01*
X28477D01*
Y13177D01*
X27773D01*
Y13033D01*
X26542D01*
X26490Y13160D01*
X26794Y13464D01*
X26814Y13451D01*
X27000Y13414D01*
X27186Y13451D01*
X27344Y13556D01*
X27449Y13714D01*
X27486Y13900D01*
X27449Y14086D01*
X27344Y14244D01*
X27186Y14349D01*
X27000Y14386D01*
X26814Y14349D01*
X26656Y14244D01*
X26551Y14086D01*
X26514Y13900D01*
X26523Y13853D01*
X25214Y12544D01*
X25164Y12468D01*
X25146Y12379D01*
Y12220D01*
X25103Y12177D01*
X25006D01*
X24962Y12220D01*
Y14933D01*
X26072Y16042D01*
X26353D01*
Y15773D01*
X27456D01*
Y16777D01*
D02*
G37*
G36*
X28400Y19486D02*
X28214Y19449D01*
X28056Y19344D01*
X27951Y19186D01*
X27914Y19000D01*
X27951Y18814D01*
X28056Y18656D01*
X28214Y18551D01*
X28267Y18540D01*
Y14418D01*
X28156Y14344D01*
X28051Y14186D01*
X28014Y14000D01*
X28051Y13814D01*
X28156Y13656D01*
X28314Y13551D01*
X28500Y13514D01*
X28686Y13551D01*
X28844Y13656D01*
X28949Y13814D01*
X28986Y14000D01*
X28949Y14186D01*
X28844Y14344D01*
X28733Y14418D01*
Y18649D01*
X28744Y18656D01*
X28849Y18814D01*
X28886Y19000D01*
X28849Y19186D01*
X28744Y19344D01*
X28586Y19449D01*
X28400Y19486D01*
D02*
G37*
G36*
X18000Y18133D02*
X17725D01*
X17636Y18115D01*
X17560Y18065D01*
X17510Y17989D01*
X17492Y17900D01*
X17510Y17811D01*
X17560Y17735D01*
X17636Y17685D01*
X17725Y17667D01*
X18000D01*
X18089Y17685D01*
X18165Y17735D01*
X18215Y17811D01*
X18233Y17900D01*
X18215Y17989D01*
X18165Y18065D01*
X18089Y18115D01*
X18000Y18133D01*
D02*
G37*
G36*
X16452Y17702D02*
X15201D01*
Y16051D01*
X16452D01*
Y17702D01*
D02*
G37*
G36*
X15099D02*
X13848D01*
Y16051D01*
X15099D01*
Y17702D01*
D02*
G37*
G36*
X16452Y15949D02*
X15201D01*
Y14298D01*
X16452D01*
Y15949D01*
D02*
G37*
G36*
X15099D02*
X13848D01*
Y14298D01*
X15099D01*
Y15949D01*
D02*
G37*
G36*
X16652Y11302D02*
X15401D01*
Y9651D01*
X16652D01*
Y11302D01*
D02*
G37*
G36*
X15299D02*
X14048D01*
Y9651D01*
X15299D01*
Y11302D01*
D02*
G37*
G36*
X16652Y9549D02*
X15401D01*
Y7898D01*
X16652D01*
Y9549D01*
D02*
G37*
G36*
X15299D02*
X14048D01*
Y7898D01*
X15299D01*
Y9549D01*
D02*
G37*
%LPD*%
D10*
X50675Y5900D02*
Y5925D01*
X51265Y6515D01*
X51615D01*
X51700Y6600D01*
X49725Y5900D02*
Y7125D01*
X50100Y7500D02*
X52700D01*
X49725Y7125D02*
X50100Y7500D01*
X49725Y4848D02*
Y5900D01*
X53340Y2700D02*
X53400Y2760D01*
X52700Y7500D02*
X53400Y6800D01*
Y2760D02*
Y6800D01*
X46902Y9000D02*
X47800D01*
X45303Y10599D02*
X46902Y9000D01*
X56241Y4317D02*
X56600D01*
X55790Y4767D02*
X56241Y4317D01*
X39900Y6625D02*
X39925D01*
X44400Y3500D02*
X45075Y4175D01*
X43050Y3500D02*
X44400D01*
X45075Y4175D02*
Y5625D01*
X39925Y6625D02*
X43050Y3500D01*
X48900Y14925D02*
X48925Y14900D01*
X48900Y14925D02*
X48900Y14925D01*
X48652Y12400D02*
Y12425D01*
X48900Y12673D01*
Y14925D01*
X46202Y12400D02*
X47702D01*
X45773Y11971D02*
X46202Y12400D01*
X45773Y11423D02*
Y11971D01*
X45725Y11375D02*
X45773Y11423D01*
X46423Y10900D02*
X47825D01*
X46375Y10948D02*
X46423Y10900D01*
X46375Y10948D02*
Y11375D01*
X49875Y12675D02*
X49900D01*
X48775Y11575D02*
X49875Y12675D01*
X48775Y10900D02*
Y11575D01*
X45075Y10850D02*
Y11375D01*
Y10850D02*
X45303Y10622D01*
Y10599D02*
Y10622D01*
X50675Y4848D02*
Y5900D01*
Y3796D02*
Y4848D01*
X45725Y5625D02*
X45773Y5577D01*
Y4727D02*
Y5577D01*
X46704Y3796D02*
X49725D01*
X45773Y4727D02*
X46704Y3796D01*
X46375Y5625D02*
X46400Y5600D01*
X46800D01*
X47552Y4848D02*
X49725D01*
X46800Y5600D02*
X47552Y4848D01*
X43425Y11375D02*
X44425D01*
X32813Y23601D02*
X34126D01*
X35225Y24700D01*
X36000D01*
X36400Y26800D02*
X36500Y26900D01*
X36400Y25100D02*
Y26800D01*
X36000Y23760D02*
Y24700D01*
X36400Y25100D01*
X28140Y8040D02*
X29189Y9089D01*
X30711D01*
X32400Y7400D01*
X30475Y6600D02*
Y7550D01*
X30100Y7925D02*
X30475Y7550D01*
X30100Y7925D02*
Y8200D01*
X32400Y3740D02*
Y7400D01*
X30475Y5548D02*
Y6600D01*
Y4496D02*
Y5548D01*
X26610Y4496D02*
X29525D01*
X26077Y5029D02*
X26610Y4496D01*
X26077Y5029D02*
Y5577D01*
X26029Y5625D02*
X26077Y5577D01*
X29525Y5548D02*
Y6600D01*
X28316Y5548D02*
X29525D01*
X28140Y5725D02*
X28316Y5548D01*
X32400Y3740D02*
X33577Y2563D01*
X21600Y4100D02*
Y5625D01*
X22100Y3600D02*
X24800D01*
X21600Y4100D02*
X22100Y3600D01*
X20900Y6325D02*
X21600Y5625D01*
X25379Y4179D02*
Y5625D01*
X24800Y3600D02*
X25379Y4179D01*
X28500Y14000D02*
Y18900D01*
X28400Y19000D02*
X28500Y18900D01*
X29075Y12800D02*
Y12825D01*
X29500Y13250D01*
Y15225D01*
X32500Y14900D02*
X32550D01*
X30288Y11875D02*
Y12688D01*
X32500Y14900D01*
X32550Y14775D02*
Y14900D01*
X32502Y14727D02*
X32550Y14775D01*
X29075Y11200D02*
X29613D01*
X30140Y11727D01*
Y11752D01*
X30263Y11875D01*
X30288D01*
X26727Y11200D02*
X28125D01*
X26679Y11248D02*
X26727Y11200D01*
X26679Y11248D02*
Y11375D01*
X26029D02*
X26056Y11402D01*
Y12456D01*
X26400Y12800D02*
X28125D01*
X26056Y12456D02*
X26400Y12800D01*
X25379Y11375D02*
Y12379D01*
X26900Y13900D02*
X27000D01*
X25379Y12379D02*
X26900Y13900D01*
X24729Y15029D02*
X25975Y16275D01*
X24729Y11375D02*
Y15029D01*
X25975Y16275D02*
X26904D01*
X26779Y5725D02*
X28140D01*
Y8040D01*
X33577Y2563D02*
X33740Y2400D01*
X33577Y2563D02*
Y2563D01*
X39100Y20100D02*
Y24300D01*
X37900Y52900D02*
X38500D01*
X44900Y49500D02*
X45300Y49100D01*
X42100Y52700D02*
Y55050D01*
X34200Y52800D02*
X34600D01*
X33900Y52500D02*
X34200Y52800D01*
X33975Y50875D02*
X34600Y51500D01*
X33200Y52500D02*
X33900D01*
X70100Y55800D02*
Y66600D01*
X43650Y49500D02*
X44900D01*
X51500Y44000D02*
X57000Y49500D01*
X31900Y44000D02*
X51500D01*
X29100Y46800D02*
X29100D01*
X31900Y44000D01*
X16000Y44073D02*
Y44100D01*
Y44073D02*
X16373Y43700D01*
X20775D01*
X22475Y43650D02*
X25000D01*
X25050Y44900D02*
X27000D01*
X47300Y46800D02*
X47453Y46647D01*
X35000Y55200D02*
X35005Y55205D01*
X49200Y36300D02*
X54800D01*
X35800Y49200D02*
X35830Y49170D01*
X46299Y36313D02*
X47013D01*
X46287Y36300D02*
X46299Y36313D01*
X47013D02*
X48400Y37700D01*
X31766Y51966D02*
X33196Y53396D01*
X34600Y54400D02*
Y54800D01*
X36975Y49050D02*
X37198Y48827D01*
X36900Y49050D02*
X36975D01*
X38500Y52900D02*
X39000Y53400D01*
X44200Y56000D02*
Y58100D01*
X45000Y58900D01*
X46300D01*
X47400Y57800D01*
X42300Y55250D02*
X43450D01*
X44200Y56000D01*
X42100Y55050D02*
X42300Y55250D01*
X34600Y54800D02*
Y55200D01*
X35830Y47270D02*
Y49170D01*
Y47270D02*
X36900Y46200D01*
X48900Y17754D02*
Y19697D01*
X47900Y20700D02*
X48400Y20200D01*
X49000Y20100D02*
Y21900D01*
X50400Y23300D01*
X49000Y20100D02*
X51200Y17900D01*
X48400Y20197D02*
X48900Y19697D01*
X48400Y20197D02*
Y20200D01*
X32612Y19000D02*
X33256Y18356D01*
X32000Y19000D02*
X32612D01*
X58000Y49500D02*
X59270Y48230D01*
X57000Y49500D02*
X58000D01*
X57469Y48468D02*
X57520D01*
X59270Y43230D02*
Y48230D01*
X57520Y48468D02*
X58774Y47214D01*
X50900Y43500D02*
X56400D01*
X50400Y43000D02*
X50900Y43500D01*
X55300Y42000D02*
X57000Y40300D01*
Y38500D02*
Y40300D01*
X51800Y41900D02*
X52200D01*
X54100Y40000D01*
X39618Y55222D02*
X39640Y55200D01*
X37000Y55200D02*
X37007D01*
X34506Y22606D02*
X34736Y22836D01*
X26700Y32013D02*
X27365Y31348D01*
X26700Y32013D02*
Y32400D01*
X27365Y31348D02*
X27977D01*
X28200Y32000D02*
X30655D01*
X25400Y34800D02*
Y35706D01*
Y34800D02*
X28200Y32000D01*
X27977Y31348D02*
X28400Y30925D01*
X25549Y35855D02*
X26704D01*
X25400Y35706D02*
X25549Y35855D01*
X26704Y35825D02*
Y35855D01*
X45161Y35800D02*
X46100D01*
X48642Y30850D02*
Y30925D01*
X45012Y34480D02*
X48144Y31348D01*
X48219D02*
X48642Y30925D01*
X48144Y31348D02*
X48219D01*
X45012Y34480D02*
Y35651D01*
X45161Y35800D01*
X24500Y34100D02*
Y36300D01*
Y34100D02*
X25996Y32604D01*
X23496Y36096D02*
X24700Y37300D01*
X26704D02*
Y37325D01*
X24700Y37300D02*
X26704D01*
X23496Y30850D02*
Y36096D01*
X52700Y21100D02*
X52750Y21050D01*
X50009Y20941D02*
Y21209D01*
X51019Y22219D01*
X47900Y20700D02*
Y22900D01*
X47500Y23300D02*
X47900Y22900D01*
X43900Y24860D02*
X44700Y25660D01*
Y25800D01*
X34660Y2400D02*
X36500D01*
X37400Y3300D01*
Y11863D01*
X42200Y12600D02*
X43425Y11375D01*
X42200Y12600D02*
Y14400D01*
X44050Y16250D01*
X46600D01*
X52850Y14900D02*
X54500D01*
X56800Y12600D01*
X56600Y10018D02*
X57450D01*
X54260Y2700D02*
X58300D01*
X59300Y3700D02*
Y6125D01*
X58300Y2700D02*
X59300Y3700D01*
X57900Y7525D02*
X59300Y6125D01*
X57900Y7525D02*
Y9568D01*
X51100Y22800D02*
X53100D01*
X52150Y14775D02*
Y15750D01*
X52150Y14775D02*
Y14900D01*
Y14775D02*
Y14775D01*
X52150Y14775D01*
X50173Y12798D02*
X52150Y14775D01*
X50023Y12798D02*
X50173D01*
X49900Y12675D02*
X50023Y12798D01*
X49900Y11725D02*
X50375Y12200D01*
X43900Y23940D02*
X44540Y23300D01*
X46687D01*
X45132Y24068D02*
Y24832D01*
Y24068D02*
X45400Y23800D01*
X46500D01*
X43492Y22808D02*
X46492D01*
X42500Y23800D02*
Y27817D01*
Y23800D02*
X43492Y22808D01*
X42500Y27817D02*
X43833Y29150D01*
X41500Y23700D02*
X42923Y22277D01*
X46500D01*
X41500Y23700D02*
Y29079D01*
X46492Y22808D02*
X46500Y22800D01*
X41429Y29150D02*
X41500Y29079D01*
X36700Y12563D02*
Y12600D01*
Y12563D02*
X37400Y11863D01*
X34128Y15028D02*
X39200Y20100D01*
X39200D01*
X33298Y15028D02*
X34128D01*
X33250Y14900D02*
Y14980D01*
X33298Y15028D01*
X46687Y23300D02*
X47500D01*
X31249Y22600D02*
X32900D01*
X31675Y10925D02*
X31700Y10900D01*
X30288Y10925D02*
X31675D01*
X31700Y20700D02*
X33800Y18600D01*
Y16275D02*
Y18600D01*
X32550Y15025D02*
X33800Y16275D01*
X29850Y18050D02*
Y20950D01*
X29500Y17700D02*
X29850Y18050D01*
X29500Y16175D02*
Y17700D01*
X31500Y17900D02*
X32550D01*
X31100Y18300D02*
Y22451D01*
Y18300D02*
X31500Y17900D01*
X31700Y20700D02*
Y21900D01*
X31887Y22087D01*
X32801D01*
X33256Y17906D02*
Y18356D01*
X33250Y17900D02*
X33256Y17906D01*
X31100Y16325D02*
Y18300D01*
X32813Y21599D02*
X32814Y21600D01*
X33899D01*
X34506Y22206D01*
Y22606D01*
X35980Y22820D02*
X36000Y22840D01*
X34720Y22820D02*
X35980D01*
X29600Y22600D02*
X29850Y22350D01*
Y20950D02*
Y22350D01*
X28387Y22600D02*
X29600D01*
X29400Y20500D02*
X29850Y20950D01*
X25800Y20500D02*
X29400D01*
X32801Y22087D02*
X32813Y22100D01*
X30123Y15348D02*
X31100Y16325D01*
Y22451D02*
X31249Y22600D01*
X48204Y35304D02*
X49200Y36300D01*
X58774Y37774D02*
Y47214D01*
X57700Y36700D02*
X58774Y37774D01*
X45132Y24832D02*
X48600Y28300D01*
Y29108D02*
X48642Y29150D01*
X48600Y28300D02*
Y29108D01*
X26100Y26900D02*
X26225D01*
X46300Y30913D02*
X46487Y31100D01*
X46300Y30913D02*
Y31800D01*
X46237Y30850D02*
X46300Y30913D01*
X39700Y37300D02*
Y37800D01*
X40240Y38340D01*
X36313Y36300D02*
X37900D01*
X36313Y36300D02*
X36313Y36300D01*
X31304Y36300D02*
X36313D01*
X24800Y24200D02*
Y27954D01*
X25996Y29150D01*
X24800Y24200D02*
X26892Y22108D01*
X28400Y30850D02*
Y30925D01*
X57185Y51600D02*
X59800Y48985D01*
Y46600D02*
X60600Y45800D01*
X59800Y46600D02*
Y48985D01*
X60600Y41900D02*
X66000D01*
X59270Y43230D02*
X60600Y41900D01*
X60600Y45800D02*
X66100D01*
X50700Y35792D02*
X56792D01*
X50700D02*
Y35800D01*
X31304Y35792D02*
Y35825D01*
X47400Y57800D02*
X60100D01*
X62100Y55800D01*
X65700Y71000D02*
X70100Y66600D01*
X46900Y40000D02*
X46947Y40047D01*
X48847D01*
X49000Y40200D01*
X53500Y71000D02*
X65700D01*
X20600Y34000D02*
Y34067D01*
X21700Y35167D01*
Y35300D01*
X53300Y34700D02*
X55600D01*
X53300D02*
X54000Y34000D01*
X51300Y34700D02*
X53300D01*
X32400Y34400D02*
X34500Y32300D01*
X32400Y34400D02*
X34000D01*
X31556Y35244D02*
X32400Y34400D01*
X35504Y57414D02*
X35511Y57407D01*
X36989D02*
X36996Y57414D01*
X49975Y53100D02*
X50075Y53000D01*
X34600Y52400D02*
Y52800D01*
X40975Y46800D02*
X41100Y46925D01*
X40602Y49202D02*
X42127D01*
X39600Y48200D02*
X40602Y49202D01*
X42350Y49425D02*
Y49500D01*
Y49575D01*
X40250Y50400D02*
X41200D01*
X30600Y48775D02*
X30625D01*
X30575D02*
X30600D01*
X30900Y49700D02*
Y49767D01*
X40150Y50500D02*
X40250Y50400D01*
X46975Y63500D02*
Y63600D01*
X45200Y57850D02*
X45275D01*
X46478Y56647D01*
X46953D01*
X47000Y56600D01*
X45097Y51653D02*
X45200Y51550D01*
X43547Y51653D02*
X45097D01*
X43500Y51700D02*
X43547Y51653D01*
X29050Y49700D02*
X30900D01*
X51725Y53000D02*
X51825Y53100D01*
X40240Y38340D02*
Y38900D01*
X20170Y37830D02*
X20340Y38000D01*
X20170Y36470D02*
Y37830D01*
X20000Y36300D02*
X20170Y36470D01*
X26787Y36300D02*
X28300D01*
X29200Y35400D01*
X28067Y51800D02*
X28233Y51966D01*
X28000Y51800D02*
X28067D01*
X28880Y49870D02*
X29050Y49700D01*
X31800Y51075D02*
Y51933D01*
X31766Y51966D02*
X31800Y51933D01*
X33196Y53396D02*
Y53446D01*
X35400Y56390D02*
X35504Y56494D01*
X37000Y52400D02*
X37000Y52400D01*
X39095Y49300D02*
X39600D01*
X38925Y49470D02*
X39095Y49300D01*
X38925Y49470D02*
Y50425D01*
X38850Y50500D02*
X38925Y50425D01*
X42127Y49202D02*
X42350Y49425D01*
X33200Y50875D02*
X33975D01*
X33052Y50727D02*
Y50752D01*
X33175Y50875D01*
X33200D01*
X35000Y52400D02*
Y52800D01*
X37000D02*
X37005Y52795D01*
X31800Y50125D02*
X32450D01*
X28233Y51966D02*
X30596D01*
X30571Y51016D02*
X30600Y50987D01*
X30596Y51966D02*
X31766D01*
X34595Y54005D02*
X34600Y54000D01*
X42350Y49575D02*
X43175Y50400D01*
X45500D01*
X32450Y50125D02*
X33052Y50727D01*
X46700Y51600D02*
X57185D01*
X45500Y50400D02*
X46700Y51600D01*
X49600Y33900D02*
X49626D01*
X50226Y33300D02*
X56600D01*
X47937Y35304D02*
X48204D01*
X57700Y34400D02*
Y36700D01*
X56792Y35792D02*
X57700Y36700D01*
X54800Y36300D02*
X57000Y38500D01*
X49626Y33900D02*
X50226Y33300D01*
X56600D02*
X57700Y34400D01*
X48900Y17754D02*
X48900Y17754D01*
X48900Y15875D02*
Y17754D01*
X51100Y24800D02*
X51300Y25000D01*
X51100Y24381D02*
Y24800D01*
X51300Y25000D02*
X51900D01*
X52600Y24300D01*
Y24200D02*
Y24300D01*
X50375Y12200D02*
X51400D01*
X48000Y13600D02*
Y18900D01*
X47900Y19000D02*
X48000Y18900D01*
X52750Y17900D02*
Y21050D01*
X46237Y29075D02*
Y29150D01*
X57450Y10018D02*
X57900Y9568D01*
X15150Y16000D02*
Y16400D01*
X17725Y17900D02*
X18000D01*
X45800Y20100D02*
X45900D01*
X46500Y20700D02*
X47900D01*
X26854Y18175D02*
X26904D01*
X26581Y18448D02*
X26854Y18175D01*
X26581Y18448D02*
Y18498D01*
X4000Y28250D02*
X8550D01*
X36500Y26900D02*
X39100Y24300D01*
X26892Y22108D02*
X27177D01*
X27178Y22110D01*
X28400Y29075D02*
Y29150D01*
X15050Y22400D02*
X19700D01*
X9177Y14927D02*
X10250Y16000D01*
X10126Y3576D02*
X10450Y3900D01*
Y9200D02*
Y9600D01*
X3700Y11076D02*
X3929Y11305D01*
X10150Y22000D02*
Y22400D01*
X3700Y23050D02*
X4000Y23350D01*
X27100Y24300D02*
X30804Y28004D01*
X27100Y23249D02*
Y24300D01*
X27249Y23100D02*
X28300D01*
X27100Y23249D02*
X27249Y23100D01*
X53700Y37900D02*
X54800D01*
X50300Y41300D02*
X53700Y37900D01*
X43600Y41300D02*
X50300D01*
X54100Y40000D02*
X55700D01*
X50781Y35219D02*
X51300Y34700D01*
X33209Y30850D02*
Y31992D01*
X32600Y32600D02*
X33209Y31992D01*
X29429Y32600D02*
X32600D01*
X38600Y32300D02*
X39200Y32900D01*
X34500Y32300D02*
X38600D01*
X39200Y32900D02*
Y34700D01*
X42400Y37900D01*
Y40100D01*
X43600Y41300D01*
X24992Y36792D02*
X26704D01*
X27178Y22110D02*
X28300D01*
X44492Y36792D02*
X46100D01*
X31304Y35792D02*
X35108D01*
X29500Y15225D02*
X29623Y15348D01*
X30123D01*
X48925Y14900D02*
X49900D01*
X51200Y16200D01*
Y17900D01*
X52050D01*
X50400Y23300D02*
X51100D01*
X52150Y15750D02*
X53500Y17100D01*
Y22400D01*
X53100Y22800D02*
X53500Y22400D01*
X26704Y35325D02*
X29429Y32600D01*
X28300Y23600D02*
Y24700D01*
X29100Y25500D01*
X32400D01*
X33209Y26309D01*
Y29150D01*
X30655Y32000D02*
X30804Y31851D01*
Y30850D02*
Y31851D01*
Y28004D02*
Y29150D01*
X25996Y30850D02*
Y32604D01*
X24500Y36300D02*
X24992Y36792D01*
X28300Y22100D02*
Y22110D01*
X23496Y23404D02*
Y29150D01*
Y23404D02*
X25300Y21600D01*
X28300D01*
X46100Y34700D02*
Y35300D01*
Y34700D02*
X47100Y33700D01*
X48196D01*
X50548Y31348D01*
X50623D01*
X51046Y30925D01*
Y30850D02*
Y30925D01*
X46500Y24300D02*
X47600Y25400D01*
X49700D01*
X51046Y26746D01*
Y29150D01*
X43833Y30850D02*
Y36133D01*
X44492Y36792D01*
X46100D02*
Y36800D01*
X41429Y30850D02*
Y35929D01*
X42800Y37300D01*
X46100D01*
X46500Y22277D02*
Y22300D01*
X35108Y35792D02*
X36936Y33964D01*
X31304Y36300D02*
Y36325D01*
X39900Y12975D02*
X40100Y13175D01*
D11*
X39900Y6625D02*
X41375Y8100D01*
X53800D02*
X55790Y6110D01*
X41375Y8100D02*
X53800D01*
X55790Y4767D02*
Y6110D01*
X20900Y6325D02*
X21200Y6625D01*
X35064Y4414D02*
X35104Y4374D01*
X21200Y6625D02*
X23385D01*
X31460Y9800D02*
X35064Y6196D01*
X23385Y6625D02*
X26560Y9800D01*
X31460D01*
X35064Y4414D02*
Y6196D01*
X44700Y25800D02*
Y27538D01*
X22525Y14275D02*
Y14280D01*
X20900Y12675D02*
X20925D01*
X22525Y14275D01*
X24732Y16487D02*
Y17075D01*
X22525Y14280D02*
X24732Y16487D01*
Y17075D02*
X24882Y17225D01*
X24904D01*
X56600Y10018D02*
X56905Y10324D01*
X56800Y12600D02*
X56905Y12495D01*
Y10324D02*
Y12495D01*
X35104Y11004D02*
X36700Y12600D01*
X44700Y27538D02*
X46237Y29075D01*
X45900Y20100D02*
X46500Y20700D01*
X46600Y18150D02*
Y19300D01*
X45800Y20100D02*
X46600Y19300D01*
X39200Y20100D02*
X45800D01*
X25800Y19279D02*
X26581Y18498D01*
X25800Y19279D02*
Y20500D01*
X35104Y10076D02*
Y11004D01*
X26225Y26900D02*
X28400Y29075D01*
X40100Y13175D02*
Y15800D01*
X41500Y17200D01*
X44600D01*
D17*
X37016Y53616D02*
Y55185D01*
D18*
X36200Y51500D02*
Y52400D01*
Y51500D02*
X36700Y51000D01*
X37400D02*
X37800Y51400D01*
X41500D01*
X38000Y51100D02*
X41800D01*
X37600Y50700D02*
X38000Y51100D01*
X41500Y51400D02*
X45200Y55100D01*
X46000D01*
X41800Y51100D02*
X45292Y54592D01*
X46392D01*
X35800Y51500D02*
Y52400D01*
Y51500D02*
X36600Y50700D01*
X36700Y51000D02*
X37400D01*
X36600Y50700D02*
X37600D01*
X56600Y53300D02*
X62100Y47800D01*
X45200Y53400D02*
X46392Y54592D01*
X45200Y55900D02*
Y56550D01*
Y55900D02*
X46000Y55100D01*
X45200Y52850D02*
Y53400D01*
X46392Y54592D02*
X54308D01*
X55600Y53300D01*
X46000Y55100D02*
X55600D01*
X58900Y51800D02*
X62100D01*
X55600Y55100D02*
X58900Y51800D01*
X55600Y53300D02*
X56600D01*
D21*
X34600Y55200D02*
D03*
X35000D02*
D03*
X35400D02*
D03*
X35800D02*
D03*
X36200D02*
D03*
X36600D02*
D03*
X37000D02*
D03*
X34600Y54800D02*
D03*
X35000D02*
D03*
X35400D02*
D03*
X35800D02*
D03*
X36200D02*
D03*
X36600D02*
D03*
X37000D02*
D03*
X34600Y54400D02*
D03*
X35000D02*
D03*
X35400D02*
D03*
X35800D02*
D03*
X36200D02*
D03*
X36600D02*
D03*
X37000D02*
D03*
X34600Y54000D02*
D03*
X35000D02*
D03*
X35400D02*
D03*
X35800D02*
D03*
X36200D02*
D03*
X36600D02*
D03*
X37000D02*
D03*
X34600Y53600D02*
D03*
X35000D02*
D03*
X35400D02*
D03*
X35800D02*
D03*
X36200D02*
D03*
X36600D02*
D03*
X37000D02*
D03*
X34600Y53200D02*
D03*
X35000D02*
D03*
X35400D02*
D03*
X35800D02*
D03*
X36200D02*
D03*
X36600D02*
D03*
X37000D02*
D03*
X34600Y52800D02*
D03*
X35000D02*
D03*
X35400D02*
D03*
X35800D02*
D03*
X36200D02*
D03*
X36600D02*
D03*
X37000D02*
D03*
X34600Y52400D02*
D03*
X35000D02*
D03*
X35400D02*
D03*
X35800D02*
D03*
X36200D02*
D03*
X36600D02*
D03*
X37000D02*
D03*
D22*
X50675Y5900D02*
D03*
X49725D02*
D03*
X50675Y3796D02*
D03*
X49725D02*
D03*
Y4848D02*
D03*
X50675D02*
D03*
X30475Y5548D02*
D03*
X29525D02*
D03*
X30475Y6600D02*
D03*
X29525D02*
D03*
X30475Y4496D02*
D03*
X29525D02*
D03*
X48775Y10900D02*
D03*
X47825D02*
D03*
X48652Y12400D02*
D03*
X47702D02*
D03*
X29075Y11200D02*
D03*
X28125D02*
D03*
X29075Y12800D02*
D03*
X28125D02*
D03*
D23*
X32300Y57800D02*
D03*
X30700D02*
D03*
X26600Y59300D02*
D03*
X25000D02*
D03*
X39300Y55200D02*
D03*
X40900D02*
D03*
X39000Y53400D02*
D03*
X40600D02*
D03*
X32900Y53446D02*
D03*
X31300D02*
D03*
D24*
X44425Y11375D02*
D03*
X45075D02*
D03*
X45725D02*
D03*
X46375D02*
D03*
Y5625D02*
D03*
X45725D02*
D03*
X45075D02*
D03*
X44425D02*
D03*
X24729Y11375D02*
D03*
X25379D02*
D03*
X26029D02*
D03*
X26679D02*
D03*
Y5625D02*
D03*
X26029D02*
D03*
X25379D02*
D03*
X24729D02*
D03*
D25*
X39200Y57100D02*
D03*
Y58700D02*
D03*
D26*
X13000Y37400D02*
D03*
X54000Y34000D02*
D03*
X34000Y34400D02*
D03*
X48400Y71300D02*
D03*
X53500Y71000D02*
D03*
X7800Y37400D02*
D03*
X36900Y46200D02*
D03*
X28000Y51800D02*
D03*
X2400Y37400D02*
D03*
X24100Y55600D02*
D03*
X20600Y34000D02*
D03*
X46900Y40000D02*
D03*
X24700Y61600D02*
D03*
X29300Y59600D02*
D03*
X43500Y58300D02*
D03*
X34482Y58373D02*
D03*
X37000Y51500D02*
D03*
X38100Y51900D02*
D03*
X37900Y52900D02*
D03*
X45300Y49100D02*
D03*
X37900Y56300D02*
D03*
X42100Y52700D02*
D03*
X37900Y54400D02*
D03*
X34600Y51500D02*
D03*
X34700Y50500D02*
D03*
X35800Y50400D02*
D03*
X33600Y57100D02*
D03*
X29700Y54200D02*
D03*
X32900Y58800D02*
D03*
X34800Y48000D02*
D03*
X35800Y49200D02*
D03*
X37800Y58200D02*
D03*
X31300Y59000D02*
D03*
X33200Y52500D02*
D03*
X23300Y61100D02*
D03*
X37900Y57100D02*
D03*
X26700Y32400D02*
D03*
X37403Y58925D02*
D03*
X31300Y62700D02*
D03*
X30900Y49700D02*
D03*
X31100Y34100D02*
D03*
X46300Y31800D02*
D03*
X73300Y48100D02*
D03*
X72400Y49200D02*
D03*
X74200D02*
D03*
Y50500D02*
D03*
X72200Y53200D02*
D03*
X74200D02*
D03*
Y51800D02*
D03*
X72400Y50500D02*
D03*
X72473Y51711D02*
D03*
X38200Y47900D02*
D03*
Y34600D02*
D03*
X47000Y56600D02*
D03*
X43500Y51700D02*
D03*
X31300Y60300D02*
D03*
Y61500D02*
D03*
X37700Y60200D02*
D03*
X37573Y62627D02*
D03*
X37700Y61400D02*
D03*
X39600Y48200D02*
D03*
D27*
X25000Y43650D02*
D03*
Y44950D02*
D03*
X45200Y51550D02*
D03*
Y52850D02*
D03*
Y57850D02*
D03*
Y56550D02*
D03*
X36900Y50150D02*
D03*
Y48850D02*
D03*
X42300Y56550D02*
D03*
Y55250D02*
D03*
D28*
X22425Y43700D02*
D03*
X20775D02*
D03*
D29*
X16950Y46300D02*
D03*
X15050D02*
D03*
X16000Y44100D02*
D03*
D30*
X46975Y63600D02*
D03*
X48625D02*
D03*
X51725Y53000D02*
D03*
X50075D02*
D03*
X49975Y49700D02*
D03*
X51625D02*
D03*
X40975Y46800D02*
D03*
X42625D02*
D03*
D31*
X10450Y3900D02*
D03*
X15350D02*
D03*
Y9600D02*
D03*
X10450D02*
D03*
X15150Y16000D02*
D03*
X10250D02*
D03*
X10150Y22400D02*
D03*
X15050D02*
D03*
D32*
X20900Y6325D02*
D03*
Y12675D02*
D03*
X39900Y12975D02*
D03*
Y6625D02*
D03*
D33*
X49900Y11725D02*
D03*
Y12675D02*
D03*
X48900Y15875D02*
D03*
Y14925D02*
D03*
X33200Y50875D02*
D03*
Y49925D02*
D03*
X31800Y51075D02*
D03*
Y50125D02*
D03*
X30596Y51966D02*
D03*
Y51016D02*
D03*
X30600Y48775D02*
D03*
Y47825D02*
D03*
X29500Y15225D02*
D03*
Y16175D02*
D03*
X30288Y11875D02*
D03*
Y10925D02*
D03*
D34*
X43900Y24860D02*
D03*
Y23940D02*
D03*
X36000Y23760D02*
D03*
Y22840D02*
D03*
D35*
X32486Y55000D02*
D03*
X33406D02*
D03*
X33740Y2400D02*
D03*
X34660D02*
D03*
X54260Y2700D02*
D03*
X53340D02*
D03*
X21260Y38000D02*
D03*
X20340D02*
D03*
X40240Y38900D02*
D03*
X41160D02*
D03*
D36*
X35500Y57460D02*
D03*
Y56540D02*
D03*
X36996Y57414D02*
D03*
Y56494D02*
D03*
D37*
X28387Y21599D02*
D03*
Y22100D02*
D03*
Y22600D02*
D03*
Y23100D02*
D03*
Y23601D02*
D03*
X32813D02*
D03*
Y23100D02*
D03*
Y22600D02*
D03*
Y22100D02*
D03*
Y21599D02*
D03*
X46687Y22299D02*
D03*
Y22800D02*
D03*
Y23300D02*
D03*
Y23800D02*
D03*
Y24301D02*
D03*
X51113D02*
D03*
Y23800D02*
D03*
Y23300D02*
D03*
Y22800D02*
D03*
Y22299D02*
D03*
X26787Y35299D02*
D03*
Y35800D02*
D03*
Y36300D02*
D03*
Y36800D02*
D03*
Y37301D02*
D03*
X31213D02*
D03*
Y36800D02*
D03*
Y36300D02*
D03*
Y35800D02*
D03*
Y35299D02*
D03*
X46287D02*
D03*
Y35800D02*
D03*
Y36300D02*
D03*
Y36800D02*
D03*
Y37301D02*
D03*
X50713D02*
D03*
Y36800D02*
D03*
Y36300D02*
D03*
Y35800D02*
D03*
Y35299D02*
D03*
D38*
X44600Y17200D02*
D03*
X46600Y18150D02*
D03*
Y16250D02*
D03*
X24904Y17225D02*
D03*
X26904Y18175D02*
D03*
Y16275D02*
D03*
D39*
X52750Y17900D02*
D03*
X52050D02*
D03*
X52850Y14900D02*
D03*
X52150D02*
D03*
X32550Y17900D02*
D03*
X33250D02*
D03*
X32550Y14900D02*
D03*
X33250D02*
D03*
D40*
X43650Y49500D02*
D03*
X42350D02*
D03*
X38850Y50500D02*
D03*
X40150D02*
D03*
X29050Y49700D02*
D03*
X27750D02*
D03*
D41*
X32950Y60900D02*
D03*
X36050D02*
D03*
D42*
X56600Y4317D02*
D03*
Y10018D02*
D03*
X35104Y10076D02*
D03*
Y4374D02*
D03*
D43*
X46237Y29150D02*
D03*
Y30850D02*
D03*
X41429Y29150D02*
D03*
Y30850D02*
D03*
X43833Y29150D02*
D03*
Y30850D02*
D03*
X48642Y29150D02*
D03*
Y30850D02*
D03*
X51046Y29150D02*
D03*
Y30850D02*
D03*
X28400Y29150D02*
D03*
Y30850D02*
D03*
X23496Y29150D02*
D03*
Y30850D02*
D03*
X25996Y29150D02*
D03*
Y30850D02*
D03*
X30804Y29150D02*
D03*
Y30850D02*
D03*
X33209Y29150D02*
D03*
Y30850D02*
D03*
D44*
X4000Y28250D02*
D03*
Y23350D02*
D03*
D45*
X54100Y61450D02*
D03*
Y59550D02*
D03*
D66*
X29406Y71004D02*
D03*
Y67600D02*
D03*
X19500D02*
D03*
D67*
Y71004D02*
D03*
D74*
X3700Y13576D02*
D03*
Y11076D02*
D03*
Y8576D02*
D03*
Y6076D02*
D03*
Y3576D02*
D03*
D78*
X26679Y5625D02*
X26779Y5725D01*
X30682Y57818D02*
X30700Y57800D01*
X30148Y57818D02*
X30682D01*
X29300Y58666D02*
Y59600D01*
Y58666D02*
X30148Y57818D01*
X37900Y53800D02*
Y54400D01*
X37497Y53397D02*
X37900Y53800D01*
X37016Y53215D02*
X37315D01*
X37497Y53397D01*
X41691Y56251D02*
X42001D01*
X40600Y55160D02*
X40744D01*
X41233Y55649D01*
Y55793D02*
X41691Y56251D01*
X41233Y55649D02*
Y55793D01*
X40600Y53400D02*
X40900Y53700D01*
Y55200D02*
X40900Y55200D01*
X40900Y53700D02*
Y55200D01*
X35400Y50900D02*
Y52375D01*
X35200Y50700D02*
X35400Y50900D01*
X35200Y50100D02*
Y50700D01*
X32300Y57750D02*
Y57800D01*
Y57750D02*
X32699Y57351D01*
X32749D01*
X33000Y57100D01*
X33600D01*
X34940D02*
X35500Y56540D01*
X33600Y57100D02*
X34940D01*
X30589Y54589D02*
X31000Y55000D01*
X29700Y54200D02*
X30089Y54589D01*
X30589D01*
X29700Y54200D02*
X30454Y53446D01*
X29700Y54200D02*
X29700D01*
X30454Y53446D02*
X31300D01*
X31000Y55000D02*
X32486D01*
X23900Y40600D02*
X27000Y43700D01*
X19404Y40600D02*
X23900D01*
X27000Y43700D02*
Y44900D01*
X13000Y37400D02*
X16204D01*
X19404Y40600D01*
X7800Y37400D02*
X8900Y36300D01*
X20000D01*
X34800Y48000D02*
Y49700D01*
X35200Y50100D01*
X19600Y46800D02*
X20500D01*
X16950Y46300D02*
X19100D01*
X19600Y46800D01*
X22425Y43700D02*
X22475Y43650D01*
X25000Y44950D02*
X25050Y44900D01*
X23300Y61100D02*
X23376Y61024D01*
X42001Y56251D02*
X42300Y56550D01*
X37000Y53600D02*
X37016Y53616D01*
X37000Y55200D02*
X37016Y55185D01*
D79*
X36600Y55200D02*
Y55800D01*
Y54800D02*
Y55200D01*
X35005Y56045D02*
X35500Y56540D01*
X35005Y55205D02*
Y56045D01*
X35000Y54800D02*
Y55200D01*
Y54400D02*
Y54800D01*
Y54000D02*
Y54400D01*
Y53600D02*
Y54000D01*
X36600Y54400D02*
Y54800D01*
Y54000D02*
Y54400D01*
Y53600D02*
Y54000D01*
D80*
X37000Y51500D02*
Y52400D01*
X37205Y52795D02*
X38100Y51900D01*
X37005Y52795D02*
X37205D01*
X33350Y53600D02*
X34600D01*
X34218Y50018D02*
X34700Y50500D01*
X35800Y49200D02*
Y50400D01*
X36900Y48850D02*
Y49050D01*
Y47800D02*
Y48850D01*
X34218Y47082D02*
Y50018D01*
Y47082D02*
X36117Y45183D01*
X30900Y49050D02*
Y49700D01*
X30625Y48775D02*
X30900Y49050D01*
X51100Y44800D02*
X56800Y50500D01*
X43647Y44800D02*
X51100D01*
X43263Y45183D02*
X43647Y44800D01*
X36117Y45183D02*
X43263D01*
X30600Y50067D02*
X30900Y49767D01*
X30600Y50067D02*
Y50987D01*
D81*
X42625Y46800D02*
X47300D01*
X49400D01*
X51400D01*
D82*
X48100Y49700D02*
X49975D01*
X48100Y53100D02*
X49975D01*
X41100Y46925D02*
Y48300D01*
X39300Y46800D02*
X40975D01*
X51625Y49700D02*
X53900D01*
X51825Y53100D02*
X53300D01*
X3700Y8576D02*
X9550Y14426D01*
Y15300D01*
X10250Y16000D01*
X3851Y11251D02*
X3863Y11239D01*
X6508Y13908D02*
Y18358D01*
X3851Y11251D02*
X6508Y13908D01*
X3700Y13576D02*
Y23050D01*
X6508Y18358D02*
X10150Y22000D01*
X3700Y6076D02*
X7326D01*
X10450Y9200D01*
X3700Y3576D02*
X10126D01*
D83*
X4800Y59900D02*
D03*
D84*
X9000D02*
D03*
X4800Y54400D02*
D03*
X9000D02*
D03*
D85*
X6900Y67200D02*
D03*
D86*
X62000Y27800D02*
D03*
Y31800D02*
D03*
Y35800D02*
D03*
Y39800D02*
D03*
Y43800D02*
D03*
X66000Y29800D02*
D03*
Y33800D02*
D03*
Y37800D02*
D03*
Y41800D02*
D03*
X70000Y27800D02*
D03*
Y31800D02*
D03*
Y35800D02*
D03*
Y39800D02*
D03*
Y43800D02*
D03*
Y55800D02*
D03*
Y51800D02*
D03*
Y47800D02*
D03*
X66000Y53800D02*
D03*
Y49800D02*
D03*
Y45800D02*
D03*
X62000Y55800D02*
D03*
Y51800D02*
D03*
Y47800D02*
D03*
D87*
X37300Y69900D02*
D03*
X68400Y4800D02*
D03*
X5100Y44800D02*
D03*
D88*
X48500Y6500D02*
D03*
X51700Y6600D02*
D03*
X47800Y9000D02*
D03*
X28500Y14000D02*
D03*
X27000Y13900D02*
D03*
X32000Y19000D02*
D03*
X34600Y20700D02*
D03*
X30300Y17000D02*
D03*
X50000Y20800D02*
D03*
X52700Y21100D02*
D03*
X29850Y18050D02*
D03*
X44700Y25800D02*
D03*
X19700Y17400D02*
D03*
X21400Y16500D02*
D03*
X19700Y15900D02*
D03*
X17700Y8900D02*
D03*
Y10700D02*
D03*
X14300Y6800D02*
D03*
X15800Y18700D02*
D03*
X13800D02*
D03*
X32400Y16600D02*
D03*
X36900Y47800D02*
D03*
X41200Y50400D02*
D03*
X39600Y49300D02*
D03*
X36500Y18900D02*
D03*
X32400Y13500D02*
D03*
X48000Y13600D02*
D03*
X46600D02*
D03*
X46237Y27500D02*
D03*
X51300Y19800D02*
D03*
X52600Y24200D02*
D03*
X47900Y19000D02*
D03*
X50400Y10600D02*
D03*
X51400Y12200D02*
D03*
X28400Y19000D02*
D03*
D89*
X30200Y2500D02*
D03*
X30100Y8200D02*
D03*
X32700Y45800D02*
D03*
X20500Y46800D02*
D03*
X29100D02*
D03*
X27000Y44900D02*
D03*
X47300Y46800D02*
D03*
X49400D02*
D03*
X51400D02*
D03*
X25500Y55600D02*
D03*
X27500Y55700D02*
D03*
X25200Y57600D02*
D03*
X27400D02*
D03*
X27600Y53700D02*
D03*
X25200D02*
D03*
X57469Y48468D02*
D03*
X56400Y43500D02*
D03*
X55300Y42000D02*
D03*
X51800Y41900D02*
D03*
X34736Y22836D02*
D03*
X12800Y1100D02*
D03*
X24800Y1800D02*
D03*
X21900D02*
D03*
X62600Y4600D02*
D03*
X60800Y9300D02*
D03*
X62600Y7400D02*
D03*
X53700Y11000D02*
D03*
X17700Y6900D02*
D03*
X17400Y12600D02*
D03*
X17700Y16000D02*
D03*
X5100Y32100D02*
D03*
X8500Y30900D02*
D03*
X11400Y31000D02*
D03*
Y28300D02*
D03*
X20800Y27100D02*
D03*
X18600D02*
D03*
Y24800D02*
D03*
X20700D02*
D03*
X56800Y12600D02*
D03*
X35800Y8200D02*
D03*
X31700Y10900D02*
D03*
X26100Y26900D02*
D03*
X39700Y37300D02*
D03*
X37900Y36300D02*
D03*
X49000Y40200D02*
D03*
X21700Y35300D02*
D03*
X48100Y49700D02*
D03*
Y53100D02*
D03*
X41100Y48300D02*
D03*
X39300Y46800D02*
D03*
X50400Y43000D02*
D03*
X72900Y36000D02*
D03*
Y38500D02*
D03*
Y40600D02*
D03*
Y42600D02*
D03*
X46400Y61600D02*
D03*
X44000Y61900D02*
D03*
Y64000D02*
D03*
Y66000D02*
D03*
X46100Y66000D02*
D03*
X53900Y49700D02*
D03*
X53300Y53100D02*
D03*
X20000Y36300D02*
D03*
X29200Y35400D02*
D03*
X48400Y37700D02*
D03*
X29500Y55700D02*
D03*
X57100Y61900D02*
D03*
X57500Y66200D02*
D03*
X54800D02*
D03*
X51900D02*
D03*
X49100D02*
D03*
X52800Y63700D02*
D03*
X55300D02*
D03*
X50600Y63600D02*
D03*
X56800Y50500D02*
D03*
X55600Y53300D02*
D03*
X37100Y33800D02*
D03*
X48400Y35700D02*
D03*
X49600Y33900D02*
D03*
X50000Y17200D02*
D03*
X36700Y12600D02*
D03*
X26500Y25300D02*
D03*
X19100Y1800D02*
D03*
X53000Y13500D02*
D03*
X30600Y23500D02*
D03*
X22100Y22200D02*
D03*
X14900Y12400D02*
D03*
X57900Y7800D02*
D03*
X18000Y17900D02*
D03*
X46500Y20700D02*
D03*
X21900Y18900D02*
D03*
X25800Y20500D02*
D03*
X39200Y20100D02*
D03*
X8550Y28250D02*
D03*
X36500Y26900D02*
D03*
X19700Y22400D02*
D03*
X55700Y40000D02*
D03*
X55600Y34700D02*
D03*
X54800Y37900D02*
D03*
X55600Y55100D02*
D03*
D90*
X35800Y55200D02*
D03*
X36600Y55200D02*
D03*
X36200Y54800D02*
D03*
X36600D02*
D03*
Y54400D02*
D03*
Y53200D02*
D03*
Y54000D02*
D03*
X35800Y54400D02*
D03*
X36200Y53600D02*
D03*
Y52800D02*
D03*
X36600Y52400D02*
D03*
Y52800D02*
D03*
X36200Y54000D02*
D03*
X35400Y52800D02*
D03*
X35000Y52400D02*
D03*
X35800Y53200D02*
D03*
X34600Y54000D02*
D03*
X35800Y52800D02*
D03*
X34600Y53200D02*
D03*
X36200Y55200D02*
D03*
X35800Y54800D02*
D03*
X34600Y54400D02*
D03*
X35800Y54000D02*
D03*
X34600Y55200D02*
D03*
Y54800D02*
D03*
X35400Y54400D02*
D03*
Y54800D02*
D03*
Y55200D02*
D03*
X36200Y53200D02*
D03*
X35800Y53600D02*
D03*
X35400Y54000D02*
D03*
Y53600D02*
D03*
X36200Y54400D02*
D03*
M02*
