G04*
G04 #@! TF.GenerationSoftware,Altium Limited,Altium Designer,20.2.6 (244)*
G04*
G04 Layer_Color=65535*
%FSLAX43Y43*%
%MOMM*%
G71*
G04*
G04 #@! TF.SameCoordinates,FCC3E3C9-18DB-4E89-A2CD-A50A35AB3564*
G04*
G04*
G04 #@! TF.FilePolarity,Positive*
G04*
G01*
G75*
%ADD10C,0.254*%
%ADD11C,0.500*%
%ADD12C,0.250*%
%ADD13C,0.600*%
%ADD14C,0.100*%
%ADD15C,0.508*%
%ADD16C,0.152*%
%ADD17C,0.200*%
%ADD18C,0.127*%
%ADD19C,0.076*%
%ADD20C,0.050*%
G36*
X27469Y21409D02*
X27215D01*
Y21790D01*
X27469D01*
Y21409D01*
D02*
G37*
G36*
X25869Y35109D02*
X25615D01*
Y35490D01*
X25869D01*
Y35109D01*
D02*
G37*
G36*
X45769Y22109D02*
X45515D01*
Y22490D01*
X45769D01*
Y22109D01*
D02*
G37*
G36*
X45369Y35109D02*
X45115D01*
Y35490D01*
X45369D01*
Y35109D01*
D02*
G37*
D10*
X33641Y55959D02*
G03*
X33641Y55959I-127J0D01*
G01*
D11*
X44850Y7450D02*
G03*
X44850Y7450I-250J0D01*
G01*
X25154D02*
G03*
X25154Y7450I-250J0D01*
G01*
X74500Y11300D02*
Y72300D01*
X57500Y19800D02*
X66000Y11300D01*
X74500D01*
X57500Y19800D02*
Y63800D01*
X66000Y72300D01*
X74500D01*
D12*
X44550Y4350D02*
G03*
X44550Y4350I-125J0D01*
G01*
X24854D02*
G03*
X24854Y4350I-125J0D01*
G01*
X19925Y43700D02*
G03*
X19925Y43700I-125J0D01*
G01*
X46725Y15300D02*
G03*
X46725Y15300I-125J0D01*
G01*
X27029Y15325D02*
G03*
X27029Y15325I-125J0D01*
G01*
D13*
X59300Y27800D02*
G03*
X59300Y27800I-300J0D01*
G01*
D14*
X51900Y18650D02*
G03*
X51900Y18650I-50J0D01*
G01*
X52000Y15650D02*
G03*
X52000Y15650I-50J0D01*
G01*
X32400Y18650D02*
G03*
X32400Y18650I-50J0D01*
G01*
Y15650D02*
G03*
X32400Y15650I-50J0D01*
G01*
D15*
X4081Y17936D02*
G03*
X4081Y17936I-381J0D01*
G01*
D16*
X16325Y65809D02*
Y72794D01*
X32581Y65809D02*
Y72794D01*
X16325Y65809D02*
X32581D01*
X16325Y72794D02*
X32581D01*
X32276Y24073D02*
Y24276D01*
Y20924D02*
Y21127D01*
X28924Y20924D02*
X32276D01*
X28924Y24073D02*
Y24276D01*
X32276D01*
X28924Y20924D02*
Y21127D01*
X50576Y24773D02*
Y24976D01*
Y21624D02*
Y21827D01*
X47224Y21624D02*
X50576D01*
X47224Y24773D02*
Y24976D01*
X50576D01*
X47224Y21624D02*
Y21827D01*
X30676Y37773D02*
Y37976D01*
Y34624D02*
Y34827D01*
X27324Y34624D02*
X30676D01*
X27324Y37773D02*
Y37976D01*
X30676D01*
X27324Y34624D02*
Y34827D01*
X50176Y37773D02*
Y37976D01*
Y34624D02*
Y34827D01*
X46824Y34624D02*
X50176D01*
X46824Y37773D02*
Y37976D01*
X50176D01*
X46824Y34624D02*
Y34827D01*
X1233Y994D02*
Y16158D01*
Y994D02*
X7227D01*
Y16158D01*
X1233D02*
X7227D01*
D17*
X43850Y6700D02*
X46950D01*
Y10300D01*
X43850D02*
X46950D01*
X43850Y6700D02*
Y10300D01*
X24154Y6700D02*
X27254D01*
Y10300D01*
X24154D02*
X27254D01*
X24154Y6700D02*
Y10300D01*
X20750Y44500D02*
X22450D01*
X20750Y42900D02*
X22450D01*
X47700Y64175D02*
X47900D01*
X47700Y63025D02*
X47900D01*
X12050Y5400D02*
X13750D01*
X12050Y2400D02*
X13750D01*
X19125Y8550D02*
Y10450D01*
X22675Y8550D02*
Y10450D01*
X44900Y18000D02*
Y18700D01*
X45900D01*
X44900Y15700D02*
Y16400D01*
Y15700D02*
X45900D01*
X25204Y18025D02*
Y18725D01*
X26204D01*
X25204Y15725D02*
Y16425D01*
Y15725D02*
X26204D01*
X50800Y52425D02*
X51000D01*
X50800Y53575D02*
X51000D01*
X50700Y50275D02*
X50900D01*
X50700Y49125D02*
X50900D01*
X41700Y47375D02*
X41900D01*
X41700Y46225D02*
X41900D01*
X34050Y62275D02*
X34950D01*
X34050Y59525D02*
X34950D01*
X41675Y8850D02*
Y10750D01*
X38125Y8850D02*
Y10750D01*
X58250Y5194D02*
Y9141D01*
X54950Y5194D02*
Y9141D01*
X33454Y5252D02*
Y9198D01*
X36754Y5252D02*
Y9198D01*
X12050Y8100D02*
X13750D01*
X12050Y11100D02*
X13750D01*
X11750Y23900D02*
X13450D01*
X11750Y20900D02*
X13450D01*
X53450Y58600D02*
X54750D01*
X5500Y24950D02*
Y26650D01*
X2500Y24950D02*
Y26650D01*
X11850Y14500D02*
X13550D01*
X11850Y17500D02*
X13550D01*
D18*
X322Y59265D02*
X1846Y59900D01*
X322Y59265D02*
Y60535D01*
X1846Y59900D01*
X10369Y53865D02*
X11700D01*
Y73800D01*
X2100D02*
X11700D01*
X2100Y53865D02*
Y73800D01*
Y53865D02*
X3431D01*
X6169D02*
X7631D01*
X300Y35000D02*
X16400Y35000D01*
X21400Y30000D01*
X54000D01*
X55700Y28300D01*
Y19200D02*
Y28300D01*
Y19200D02*
X64500Y10400D01*
X74700D01*
D19*
X35100Y21242D02*
X34254Y22088D01*
X35100D02*
X34254Y21242D01*
X35100Y21665D02*
X34254D01*
X34677Y22088D02*
Y21242D01*
X53000Y21742D02*
X52154Y22588D01*
X53000D02*
X52154Y21742D01*
X53000Y22165D02*
X52154D01*
X52577Y22588D02*
Y21742D01*
X31785Y34089D02*
X30938Y34935D01*
X31785D02*
X30938Y34089D01*
X31785Y34512D02*
X30938D01*
X31362Y34935D02*
Y34089D01*
X51285D02*
X50438Y34935D01*
X51285D02*
X50438Y34089D01*
X51285Y34512D02*
X50438D01*
X50862Y34935D02*
Y34089D01*
D20*
X11688Y38575D02*
X11921D01*
X11804D01*
Y38225D01*
X12038D02*
Y38575D01*
X12213D01*
X12271Y38517D01*
Y38400D01*
X12213Y38342D01*
X12038D01*
X12387Y38225D02*
X12504D01*
X12446D01*
Y38575D01*
X12387Y38517D01*
X12679D02*
X12737Y38575D01*
X12854D01*
X12912Y38517D01*
Y38283D01*
X12854Y38225D01*
X12737D01*
X12679Y38283D01*
Y38517D01*
X24335Y46126D02*
Y46476D01*
X24510D01*
X24568Y46418D01*
Y46301D01*
X24510Y46243D01*
X24335D01*
X24451D02*
X24568Y46126D01*
X24918Y46476D02*
X24685D01*
Y46301D01*
X24801Y46360D01*
X24860D01*
X24918Y46301D01*
Y46185D01*
X24860Y46126D01*
X24743D01*
X24685Y46185D01*
X25035Y46418D02*
X25093Y46476D01*
X25210D01*
X25268Y46418D01*
Y46360D01*
X25210Y46301D01*
X25151D01*
X25210D01*
X25268Y46243D01*
Y46185D01*
X25210Y46126D01*
X25093D01*
X25035Y46185D01*
X14747Y47701D02*
Y47934D01*
X14689Y47993D01*
X14573D01*
X14514Y47934D01*
Y47701D01*
X14573Y47643D01*
X14689D01*
X14631Y47759D02*
X14747Y47643D01*
X14689D02*
X14747Y47701D01*
X14864Y47643D02*
X14981D01*
X14922D01*
Y47993D01*
X14864Y47934D01*
X15156D02*
X15214Y47993D01*
X15331D01*
X15389Y47934D01*
Y47701D01*
X15331Y47643D01*
X15214D01*
X15156Y47701D01*
Y47934D01*
X19587Y45519D02*
Y45169D01*
X19762D01*
X19821Y45227D01*
Y45461D01*
X19762Y45519D01*
X19587D01*
X19937Y45169D02*
X20054D01*
X19996D01*
Y45519D01*
X19937Y45461D01*
X20462Y45169D02*
X20229D01*
X20462Y45402D01*
Y45461D01*
X20404Y45519D01*
X20287D01*
X20229Y45461D01*
X47433Y9925D02*
Y10275D01*
X47608D01*
X47667Y10217D01*
Y10100D01*
X47608Y10042D01*
X47433D01*
X47550D02*
X47667Y9925D01*
X47958D02*
Y10275D01*
X47783Y10100D01*
X48017D01*
X48133Y10217D02*
X48192Y10275D01*
X48308D01*
X48367Y10217D01*
Y10158D01*
X48308Y10100D01*
X48367Y10042D01*
Y9983D01*
X48308Y9925D01*
X48192D01*
X48133Y9983D01*
Y10042D01*
X48192Y10100D01*
X48133Y10158D01*
Y10217D01*
X48192Y10100D02*
X48308D01*
X47333Y11425D02*
Y11775D01*
X47508D01*
X47567Y11717D01*
Y11600D01*
X47508Y11542D01*
X47333D01*
X47450D02*
X47567Y11425D01*
X47858D02*
Y11775D01*
X47683Y11600D01*
X47917D01*
X48033Y11775D02*
X48267D01*
Y11717D01*
X48033Y11483D01*
Y11425D01*
X27733Y10325D02*
Y10675D01*
X27908D01*
X27967Y10617D01*
Y10500D01*
X27908Y10442D01*
X27733D01*
X27850D02*
X27967Y10325D01*
X28258D02*
Y10675D01*
X28083Y10500D01*
X28317D01*
X28667Y10675D02*
X28550Y10617D01*
X28433Y10500D01*
Y10383D01*
X28492Y10325D01*
X28608D01*
X28667Y10383D01*
Y10442D01*
X28608Y10500D01*
X28433D01*
X27733Y11925D02*
Y12275D01*
X27908D01*
X27967Y12217D01*
Y12100D01*
X27908Y12042D01*
X27733D01*
X27850D02*
X27967Y11925D01*
X28258D02*
Y12275D01*
X28083Y12100D01*
X28317D01*
X28667Y12275D02*
X28433D01*
Y12100D01*
X28550Y12158D01*
X28608D01*
X28667Y12100D01*
Y11983D01*
X28608Y11925D01*
X28492D01*
X28433Y11983D01*
X43167Y25817D02*
X43108Y25875D01*
X42992D01*
X42933Y25817D01*
Y25583D01*
X42992Y25525D01*
X43108D01*
X43167Y25583D01*
X43458Y25525D02*
Y25875D01*
X43283Y25700D01*
X43517D01*
X43633Y25583D02*
X43692Y25525D01*
X43808D01*
X43867Y25583D01*
Y25817D01*
X43808Y25875D01*
X43692D01*
X43633Y25817D01*
Y25758D01*
X43692Y25700D01*
X43867D01*
X36767Y23917D02*
X36708Y23975D01*
X36592D01*
X36533Y23917D01*
Y23683D01*
X36592Y23625D01*
X36708D01*
X36767Y23683D01*
X37058Y23625D02*
Y23975D01*
X36883Y23800D01*
X37117D01*
X37233Y23917D02*
X37292Y23975D01*
X37408D01*
X37467Y23917D01*
Y23858D01*
X37408Y23800D01*
X37467Y23742D01*
Y23683D01*
X37408Y23625D01*
X37292D01*
X37233Y23683D01*
Y23742D01*
X37292Y23800D01*
X37233Y23858D01*
Y23917D01*
X37292Y23800D02*
X37408D01*
X34467Y56275D02*
Y55983D01*
X34525Y55925D01*
X34642D01*
X34700Y55983D01*
Y56275D01*
X34817Y55925D02*
X34933D01*
X34875D01*
Y56275D01*
X34817Y56217D01*
X12300Y52075D02*
X12184D01*
X12242D01*
Y51783D01*
X12184Y51725D01*
X12125D01*
X12067Y51783D01*
X12417Y52017D02*
X12475Y52075D01*
X12592D01*
X12650Y52017D01*
Y51783D01*
X12592Y51725D01*
X12475D01*
X12417Y51783D01*
Y52017D01*
X57536Y73451D02*
X57419D01*
X57477D01*
Y73160D01*
X57419Y73101D01*
X57361D01*
X57302Y73160D01*
X57652Y73101D02*
X57769D01*
X57711D01*
Y73451D01*
X57652Y73393D01*
X1300Y19478D02*
X1184D01*
X1242D01*
Y19186D01*
X1184Y19128D01*
X1125D01*
X1067Y19186D01*
X1650Y19128D02*
X1417D01*
X1650Y19361D01*
Y19420D01*
X1592Y19478D01*
X1475D01*
X1417Y19420D01*
X19733Y34925D02*
X19966D01*
X19849D01*
Y34575D01*
X20082D02*
Y34925D01*
X20257D01*
X20316Y34867D01*
Y34750D01*
X20257Y34692D01*
X20082D01*
X20666Y34575D02*
X20432D01*
X20666Y34808D01*
Y34867D01*
X20607Y34925D01*
X20491D01*
X20432Y34867D01*
X20782Y34575D02*
X20899D01*
X20841D01*
Y34925D01*
X20782Y34867D01*
X45959Y40875D02*
X46192D01*
X46075D01*
Y40525D01*
X46308D02*
Y40875D01*
X46483D01*
X46542Y40817D01*
Y40700D01*
X46483Y40642D01*
X46308D01*
X46892Y40525D02*
X46658D01*
X46892Y40758D01*
Y40817D01*
X46833Y40875D01*
X46717D01*
X46658Y40817D01*
X47008D02*
X47067Y40875D01*
X47183D01*
X47241Y40817D01*
Y40583D01*
X47183Y40525D01*
X47067D01*
X47008Y40583D01*
Y40817D01*
X53388Y33475D02*
X53621D01*
X53504D01*
Y33125D01*
X53738D02*
Y33475D01*
X53913D01*
X53971Y33417D01*
Y33300D01*
X53913Y33242D01*
X53738D01*
X54087Y33125D02*
X54204D01*
X54146D01*
Y33475D01*
X54087Y33417D01*
X54379Y33183D02*
X54437Y33125D01*
X54554D01*
X54612Y33183D01*
Y33417D01*
X54554Y33475D01*
X54437D01*
X54379Y33417D01*
Y33358D01*
X54437Y33300D01*
X54612D01*
X34488Y34575D02*
X34721D01*
X34604D01*
Y34225D01*
X34838D02*
Y34575D01*
X35013D01*
X35071Y34517D01*
Y34400D01*
X35013Y34342D01*
X34838D01*
X35187Y34225D02*
X35304D01*
X35246D01*
Y34575D01*
X35187Y34517D01*
X35479D02*
X35537Y34575D01*
X35654D01*
X35712Y34517D01*
Y34458D01*
X35654Y34400D01*
X35712Y34342D01*
Y34283D01*
X35654Y34225D01*
X35537D01*
X35479Y34283D01*
Y34342D01*
X35537Y34400D01*
X35479Y34458D01*
Y34517D01*
X35537Y34400D02*
X35654D01*
X6288Y38475D02*
X6521D01*
X6404D01*
Y38125D01*
X6638D02*
Y38475D01*
X6813D01*
X6871Y38417D01*
Y38300D01*
X6813Y38242D01*
X6638D01*
X6987Y38125D02*
X7104D01*
X7046D01*
Y38475D01*
X6987Y38417D01*
X7512Y38125D02*
X7279D01*
X7512Y38358D01*
Y38417D01*
X7454Y38475D01*
X7337D01*
X7279Y38417D01*
X24408Y62852D02*
X24641D01*
X24525D01*
Y62502D01*
X24758D02*
Y62852D01*
X24933D01*
X24991Y62793D01*
Y62677D01*
X24933Y62618D01*
X24758D01*
X25108Y62502D02*
X25224D01*
X25166D01*
Y62852D01*
X25108Y62793D01*
X25399Y62502D02*
X25516D01*
X25458D01*
Y62852D01*
X25399Y62793D01*
X48133Y72275D02*
X48367D01*
X48250D01*
Y71925D01*
X48483D02*
Y72275D01*
X48658D01*
X48717Y72217D01*
Y72100D01*
X48658Y72042D01*
X48483D01*
X48833Y71983D02*
X48892Y71925D01*
X49008D01*
X49067Y71983D01*
Y72217D01*
X49008Y72275D01*
X48892D01*
X48833Y72217D01*
Y72158D01*
X48892Y72100D01*
X49067D01*
X36633Y45675D02*
X36867D01*
X36750D01*
Y45325D01*
X36983D02*
Y45675D01*
X37158D01*
X37217Y45617D01*
Y45500D01*
X37158Y45442D01*
X36983D01*
X37333Y45675D02*
X37567D01*
Y45617D01*
X37333Y45383D01*
Y45325D01*
X933Y38275D02*
X1167D01*
X1050D01*
Y37925D01*
X1283D02*
Y38275D01*
X1458D01*
X1517Y38217D01*
Y38100D01*
X1458Y38042D01*
X1283D01*
X1867Y38275D02*
X1750Y38217D01*
X1633Y38100D01*
Y37983D01*
X1692Y37925D01*
X1808D01*
X1867Y37983D01*
Y38042D01*
X1808Y38100D01*
X1633D01*
X52933Y71775D02*
X53167D01*
X53050D01*
Y71425D01*
X53283D02*
Y71775D01*
X53458D01*
X53517Y71717D01*
Y71600D01*
X53458Y71542D01*
X53283D01*
X53867Y71775D02*
X53633D01*
Y71600D01*
X53750Y71658D01*
X53808D01*
X53867Y71600D01*
Y71483D01*
X53808Y71425D01*
X53692D01*
X53633Y71483D01*
X26233Y52175D02*
X26467D01*
X26350D01*
Y51825D01*
X26583D02*
Y52175D01*
X26758D01*
X26817Y52117D01*
Y52000D01*
X26758Y51942D01*
X26583D01*
X26933Y52117D02*
X26992Y52175D01*
X27108D01*
X27167Y52117D01*
Y52058D01*
X27108Y52000D01*
X27050D01*
X27108D01*
X27167Y51942D01*
Y51883D01*
X27108Y51825D01*
X26992D01*
X26933Y51883D01*
X22692Y55775D02*
X22925D01*
X22808D01*
Y55425D01*
X23042D02*
Y55775D01*
X23217D01*
X23275Y55717D01*
Y55600D01*
X23217Y55542D01*
X23042D01*
X23392Y55425D02*
X23508D01*
X23450D01*
Y55775D01*
X23392Y55717D01*
X54793Y11350D02*
Y11700D01*
X54968D01*
X55026Y11642D01*
Y11525D01*
X54968Y11467D01*
X54793D01*
X54909D02*
X55026Y11350D01*
X55317D02*
Y11700D01*
X55142Y11525D01*
X55376D01*
X55726Y11350D02*
X55492D01*
X55726Y11583D01*
Y11642D01*
X55667Y11700D01*
X55551D01*
X55492Y11642D01*
X33301Y11423D02*
Y11773D01*
X33476D01*
X33535Y11715D01*
Y11598D01*
X33476Y11540D01*
X33301D01*
X33418D02*
X33535Y11423D01*
X33826D02*
Y11773D01*
X33651Y11598D01*
X33885D01*
X34001Y11423D02*
X34118D01*
X34060D01*
Y11773D01*
X34001Y11715D01*
X49433Y13325D02*
Y13675D01*
X49608D01*
X49667Y13617D01*
Y13500D01*
X49608Y13442D01*
X49433D01*
X49550D02*
X49667Y13325D01*
X49783Y13617D02*
X49842Y13675D01*
X49958D01*
X50017Y13617D01*
Y13558D01*
X49958Y13500D01*
X49900D01*
X49958D01*
X50017Y13442D01*
Y13383D01*
X49958Y13325D01*
X49842D01*
X49783Y13383D01*
X50367Y13675D02*
X50250Y13617D01*
X50133Y13500D01*
Y13383D01*
X50192Y13325D01*
X50308D01*
X50367Y13383D01*
Y13442D01*
X50308Y13500D01*
X50133D01*
X48433Y16425D02*
Y16775D01*
X48608D01*
X48667Y16717D01*
Y16600D01*
X48608Y16542D01*
X48433D01*
X48550D02*
X48667Y16425D01*
X48783Y16717D02*
X48842Y16775D01*
X48958D01*
X49017Y16717D01*
Y16658D01*
X48958Y16600D01*
X48900D01*
X48958D01*
X49017Y16542D01*
Y16483D01*
X48958Y16425D01*
X48842D01*
X48783Y16483D01*
X49367Y16775D02*
X49133D01*
Y16600D01*
X49250Y16658D01*
X49308D01*
X49367Y16600D01*
Y16483D01*
X49308Y16425D01*
X49192D01*
X49133Y16483D01*
X29868Y12872D02*
Y13221D01*
X30042D01*
X30101Y13163D01*
Y13047D01*
X30042Y12988D01*
X29868D01*
X29984D02*
X30101Y12872D01*
X30217Y13163D02*
X30276Y13221D01*
X30392D01*
X30451Y13163D01*
Y13105D01*
X30392Y13047D01*
X30334D01*
X30392D01*
X30451Y12988D01*
Y12930D01*
X30392Y12872D01*
X30276D01*
X30217Y12930D01*
X30742Y12872D02*
Y13221D01*
X30567Y13047D01*
X30801D01*
X29077Y17192D02*
Y17542D01*
X29252D01*
X29310Y17484D01*
Y17367D01*
X29252Y17309D01*
X29077D01*
X29193D02*
X29310Y17192D01*
X29427Y17484D02*
X29485Y17542D01*
X29602D01*
X29660Y17484D01*
Y17426D01*
X29602Y17367D01*
X29543D01*
X29602D01*
X29660Y17309D01*
Y17251D01*
X29602Y17192D01*
X29485D01*
X29427Y17251D01*
X29777Y17484D02*
X29835Y17542D01*
X29952D01*
X30010Y17484D01*
Y17426D01*
X29952Y17367D01*
X29893D01*
X29952D01*
X30010Y17309D01*
Y17251D01*
X29952Y17192D01*
X29835D01*
X29777Y17251D01*
X40006Y40271D02*
X39948Y40329D01*
X39831D01*
X39773Y40271D01*
Y40038D01*
X39831Y39979D01*
X39948D01*
X40006Y40038D01*
X40298Y39979D02*
Y40329D01*
X40123Y40154D01*
X40356D01*
X40706Y40329D02*
X40473D01*
Y40154D01*
X40589Y40213D01*
X40648D01*
X40706Y40154D01*
Y40038D01*
X40648Y39979D01*
X40531D01*
X40473Y40038D01*
X20106Y39371D02*
X20048Y39429D01*
X19931D01*
X19873Y39371D01*
Y39138D01*
X19931Y39079D01*
X20048D01*
X20106Y39138D01*
X20398Y39079D02*
Y39429D01*
X20223Y39254D01*
X20456D01*
X20748Y39079D02*
Y39429D01*
X20573Y39254D01*
X20806D01*
X42908Y47825D02*
Y48175D01*
X43083D01*
X43142Y48117D01*
Y48000D01*
X43083Y47942D01*
X42908D01*
X43025D02*
X43142Y47825D01*
X43433D02*
Y48175D01*
X43258Y48000D01*
X43492D01*
X51808Y25475D02*
Y25183D01*
X51867Y25125D01*
X51983D01*
X52042Y25183D01*
Y25475D01*
X52158Y25183D02*
X52217Y25125D01*
X52333D01*
X52392Y25183D01*
Y25417D01*
X52333Y25475D01*
X52217D01*
X52158Y25417D01*
Y25358D01*
X52217Y25300D01*
X52392D01*
X51408Y38475D02*
Y38183D01*
X51467Y38125D01*
X51583D01*
X51642Y38183D01*
Y38475D01*
X51758Y38417D02*
X51817Y38475D01*
X51933D01*
X51992Y38417D01*
Y38358D01*
X51933Y38300D01*
X51992Y38242D01*
Y38183D01*
X51933Y38125D01*
X51817D01*
X51758Y38183D01*
Y38242D01*
X51817Y38300D01*
X51758Y38358D01*
Y38417D01*
X51817Y38300D02*
X51933D01*
X27208Y24575D02*
Y24283D01*
X27267Y24225D01*
X27383D01*
X27442Y24283D01*
Y24575D01*
X27558D02*
X27792D01*
Y24517D01*
X27558Y24283D01*
Y24225D01*
X25508Y38475D02*
Y38183D01*
X25567Y38125D01*
X25683D01*
X25742Y38183D01*
Y38475D01*
X26092D02*
X25975Y38417D01*
X25858Y38300D01*
Y38183D01*
X25917Y38125D01*
X26033D01*
X26092Y38183D01*
Y38242D01*
X26033Y38300D01*
X25858D01*
X43688Y13177D02*
Y12885D01*
X43746Y12827D01*
X43863D01*
X43921Y12885D01*
Y13177D01*
X44038Y13119D02*
X44096Y13177D01*
X44213D01*
X44271Y13119D01*
Y13060D01*
X44213Y13002D01*
X44155D01*
X44213D01*
X44271Y12944D01*
Y12885D01*
X44213Y12827D01*
X44096D01*
X44038Y12885D01*
X24007Y11927D02*
Y11636D01*
X24065Y11577D01*
X24182D01*
X24240Y11636D01*
Y11927D01*
X24590Y11577D02*
X24357D01*
X24590Y11811D01*
Y11869D01*
X24532Y11927D01*
X24415D01*
X24357Y11869D01*
X51533Y4673D02*
Y5023D01*
X51708D01*
X51767Y4965D01*
Y4848D01*
X51708Y4790D01*
X51533D01*
X51650D02*
X51767Y4673D01*
X51883Y4965D02*
X51942Y5023D01*
X52058D01*
X52117Y4965D01*
Y4906D01*
X52058Y4848D01*
X52000D01*
X52058D01*
X52117Y4790D01*
Y4732D01*
X52058Y4673D01*
X51942D01*
X51883Y4732D01*
X52233Y4965D02*
X52292Y5023D01*
X52408D01*
X52467Y4965D01*
Y4732D01*
X52408Y4673D01*
X52292D01*
X52233Y4732D01*
Y4965D01*
X51533Y5725D02*
Y6075D01*
X51708D01*
X51767Y6017D01*
Y5900D01*
X51708Y5842D01*
X51533D01*
X51650D02*
X51767Y5725D01*
X52117D02*
X51883D01*
X52117Y5958D01*
Y6017D01*
X52058Y6075D01*
X51942D01*
X51883Y6017D01*
X52233Y6075D02*
X52467D01*
Y6017D01*
X52233Y5783D01*
Y5725D01*
X37768Y15677D02*
Y16027D01*
X37943D01*
X38001Y15968D01*
Y15852D01*
X37943Y15793D01*
X37768D01*
X37884D02*
X38001Y15677D01*
X38351D02*
X38118D01*
X38351Y15910D01*
Y15968D01*
X38293Y16027D01*
X38176D01*
X38118Y15968D01*
X38701Y16027D02*
X38584Y15968D01*
X38468Y15852D01*
Y15735D01*
X38526Y15677D01*
X38643D01*
X38701Y15735D01*
Y15793D01*
X38643Y15852D01*
X38468D01*
X51533Y3621D02*
Y3971D01*
X51708D01*
X51767Y3913D01*
Y3796D01*
X51708Y3738D01*
X51533D01*
X51650D02*
X51767Y3621D01*
X52117D02*
X51883D01*
X52117Y3855D01*
Y3913D01*
X52058Y3971D01*
X51942D01*
X51883Y3913D01*
X52467Y3971D02*
X52233D01*
Y3796D01*
X52350Y3855D01*
X52408D01*
X52467Y3796D01*
Y3680D01*
X52408Y3621D01*
X52292D01*
X52233Y3680D01*
X31033Y5325D02*
Y5675D01*
X31208D01*
X31267Y5617D01*
Y5500D01*
X31208Y5442D01*
X31033D01*
X31150D02*
X31267Y5325D01*
X31617D02*
X31383D01*
X31617Y5558D01*
Y5617D01*
X31558Y5675D01*
X31442D01*
X31383Y5617D01*
X31908Y5325D02*
Y5675D01*
X31733Y5500D01*
X31967D01*
X19233Y14925D02*
Y15275D01*
X19408D01*
X19467Y15217D01*
Y15100D01*
X19408Y15042D01*
X19233D01*
X19350D02*
X19467Y14925D01*
X19817D02*
X19583D01*
X19817Y15158D01*
Y15217D01*
X19758Y15275D01*
X19642D01*
X19583Y15217D01*
X19933D02*
X19992Y15275D01*
X20108D01*
X20167Y15217D01*
Y15158D01*
X20108Y15100D01*
X20050D01*
X20108D01*
X20167Y15042D01*
Y14983D01*
X20108Y14925D01*
X19992D01*
X19933Y14983D01*
X31033Y4273D02*
Y4623D01*
X31208D01*
X31267Y4565D01*
Y4448D01*
X31208Y4390D01*
X31033D01*
X31150D02*
X31267Y4273D01*
X31617D02*
X31383D01*
X31617Y4506D01*
Y4565D01*
X31558Y4623D01*
X31442D01*
X31383Y4565D01*
X31967Y4273D02*
X31733D01*
X31967Y4506D01*
Y4565D01*
X31908Y4623D01*
X31792D01*
X31733Y4565D01*
X30992Y6525D02*
Y6875D01*
X31167D01*
X31225Y6817D01*
Y6700D01*
X31167Y6642D01*
X30992D01*
X31108D02*
X31225Y6525D01*
X31575D02*
X31342D01*
X31575Y6758D01*
Y6817D01*
X31517Y6875D01*
X31400D01*
X31342Y6817D01*
X31692Y6525D02*
X31808D01*
X31750D01*
Y6875D01*
X31692Y6817D01*
X49263Y54225D02*
Y54575D01*
X49438D01*
X49496Y54517D01*
Y54400D01*
X49438Y54342D01*
X49263D01*
X49379D02*
X49496Y54225D01*
X49613D02*
X49729D01*
X49671D01*
Y54575D01*
X49613Y54517D01*
X49904Y54283D02*
X49962Y54225D01*
X50079D01*
X50137Y54283D01*
Y54517D01*
X50079Y54575D01*
X49962D01*
X49904Y54517D01*
Y54458D01*
X49962Y54400D01*
X50137D01*
X49163Y50825D02*
Y51175D01*
X49338D01*
X49396Y51117D01*
Y51000D01*
X49338Y50942D01*
X49163D01*
X49279D02*
X49396Y50825D01*
X49513D02*
X49629D01*
X49571D01*
Y51175D01*
X49513Y51117D01*
X49804D02*
X49862Y51175D01*
X49979D01*
X50037Y51117D01*
Y51058D01*
X49979Y51000D01*
X50037Y50942D01*
Y50883D01*
X49979Y50825D01*
X49862D01*
X49804Y50883D01*
Y50942D01*
X49862Y51000D01*
X49804Y51058D01*
Y51117D01*
X49862Y51000D02*
X49979D01*
X46163Y64725D02*
Y65075D01*
X46338D01*
X46396Y65017D01*
Y64900D01*
X46338Y64842D01*
X46163D01*
X46279D02*
X46396Y64725D01*
X46513D02*
X46629D01*
X46571D01*
Y65075D01*
X46513Y65017D01*
X46804Y65075D02*
X47037D01*
Y65017D01*
X46804Y64783D01*
Y64725D01*
X44563Y58625D02*
Y58975D01*
X44738D01*
X44796Y58917D01*
Y58800D01*
X44738Y58742D01*
X44563D01*
X44679D02*
X44796Y58625D01*
X44913D02*
X45029D01*
X44971D01*
Y58975D01*
X44913Y58917D01*
X45437Y58975D02*
X45321Y58917D01*
X45204Y58800D01*
Y58683D01*
X45262Y58625D01*
X45379D01*
X45437Y58683D01*
Y58742D01*
X45379Y58800D01*
X45204D01*
X44563Y53625D02*
Y53975D01*
X44738D01*
X44796Y53917D01*
Y53800D01*
X44738Y53742D01*
X44563D01*
X44679D02*
X44796Y53625D01*
X44913D02*
X45029D01*
X44971D01*
Y53975D01*
X44913Y53917D01*
X45437Y53975D02*
X45204D01*
Y53800D01*
X45321Y53858D01*
X45379D01*
X45437Y53800D01*
Y53683D01*
X45379Y53625D01*
X45262D01*
X45204Y53683D01*
X41863Y57325D02*
Y57675D01*
X42038D01*
X42096Y57617D01*
Y57500D01*
X42038Y57442D01*
X41863D01*
X41979D02*
X42096Y57325D01*
X42213D02*
X42329D01*
X42271D01*
Y57675D01*
X42213Y57617D01*
X42679Y57325D02*
Y57675D01*
X42504Y57500D01*
X42737D01*
X43421Y50325D02*
Y50675D01*
X43596D01*
X43654Y50617D01*
Y50500D01*
X43596Y50442D01*
X43421D01*
X43538D02*
X43654Y50325D01*
X43771D02*
X43887D01*
X43829D01*
Y50675D01*
X43771Y50617D01*
X44062Y50325D02*
X44179D01*
X44121D01*
Y50675D01*
X44062Y50617D01*
X35763Y50825D02*
Y51175D01*
X35938D01*
X35996Y51117D01*
Y51000D01*
X35938Y50942D01*
X35763D01*
X35879D02*
X35996Y50825D01*
X36113D02*
X36229D01*
X36171D01*
Y51175D01*
X36113Y51117D01*
X36404D02*
X36462Y51175D01*
X36579D01*
X36637Y51117D01*
Y50883D01*
X36579Y50825D01*
X36462D01*
X36404Y50883D01*
Y51117D01*
X38308Y51325D02*
Y51675D01*
X38483D01*
X38542Y51617D01*
Y51500D01*
X38483Y51442D01*
X38308D01*
X38425D02*
X38542Y51325D01*
X38658Y51617D02*
X38717Y51675D01*
X38833D01*
X38892Y51617D01*
Y51558D01*
X38833Y51500D01*
X38892Y51442D01*
Y51383D01*
X38833Y51325D01*
X38717D01*
X38658Y51383D01*
Y51442D01*
X38717Y51500D01*
X38658Y51558D01*
Y51617D01*
X38717Y51500D02*
X38833D01*
X27108Y50625D02*
Y50975D01*
X27283D01*
X27342Y50917D01*
Y50800D01*
X27283Y50742D01*
X27108D01*
X27225D02*
X27342Y50625D01*
X27458Y50975D02*
X27692D01*
Y50917D01*
X27458Y50683D01*
Y50625D01*
X29808Y52525D02*
Y52875D01*
X29983D01*
X30042Y52817D01*
Y52700D01*
X29983Y52642D01*
X29808D01*
X29925D02*
X30042Y52525D01*
X30392Y52875D02*
X30275Y52817D01*
X30158Y52700D01*
Y52583D01*
X30217Y52525D01*
X30333D01*
X30392Y52583D01*
Y52642D01*
X30333Y52700D01*
X30158D01*
X30313Y46925D02*
Y47275D01*
X30488D01*
X30546Y47217D01*
Y47100D01*
X30488Y47042D01*
X30313D01*
X30429D02*
X30546Y46925D01*
X30896Y47275D02*
X30663D01*
Y47100D01*
X30779Y47158D01*
X30838D01*
X30896Y47100D01*
Y46983D01*
X30838Y46925D01*
X30721D01*
X30663Y46983D01*
X31508Y51725D02*
Y52075D01*
X31683D01*
X31742Y52017D01*
Y51900D01*
X31683Y51842D01*
X31508D01*
X31625D02*
X31742Y51725D01*
X31858Y52017D02*
X31917Y52075D01*
X32033D01*
X32092Y52017D01*
Y51958D01*
X32033Y51900D01*
X31975D01*
X32033D01*
X32092Y51842D01*
Y51783D01*
X32033Y51725D01*
X31917D01*
X31858Y51783D01*
X32908Y49025D02*
Y49375D01*
X33083D01*
X33142Y49317D01*
Y49200D01*
X33083Y49142D01*
X32908D01*
X33025D02*
X33142Y49025D01*
X33492D02*
X33258D01*
X33492Y49258D01*
Y49317D01*
X33433Y49375D01*
X33317D01*
X33258Y49317D01*
X43942Y19083D02*
Y19317D01*
X43883Y19375D01*
X43767D01*
X43708Y19317D01*
Y19083D01*
X43767Y19025D01*
X43883D01*
X43825Y19142D02*
X43942Y19025D01*
X43883D02*
X43942Y19083D01*
X44292Y19025D02*
X44058D01*
X44292Y19258D01*
Y19317D01*
X44233Y19375D01*
X44117D01*
X44058Y19317D01*
X24300Y19083D02*
Y19317D01*
X24242Y19375D01*
X24125D01*
X24067Y19317D01*
Y19083D01*
X24125Y19025D01*
X24242D01*
X24183Y19142D02*
X24300Y19025D01*
X24242D02*
X24300Y19083D01*
X24417Y19025D02*
X24533D01*
X24475D01*
Y19375D01*
X24417Y19317D01*
X31975Y63574D02*
Y63225D01*
X32209D01*
X32325D02*
X32442D01*
X32384D01*
Y63574D01*
X32325Y63516D01*
X16142Y2175D02*
X15908D01*
Y2000D01*
X16025D01*
X15908D01*
Y1825D01*
X16492Y2175D02*
X16375Y2117D01*
X16258Y2000D01*
Y1883D01*
X16317Y1825D01*
X16433D01*
X16492Y1883D01*
Y1942D01*
X16433Y2000D01*
X16258D01*
X9242Y12375D02*
X9008D01*
Y12200D01*
X9125D01*
X9008D01*
Y12025D01*
X9592Y12375D02*
X9358D01*
Y12200D01*
X9475Y12258D01*
X9533D01*
X9592Y12200D01*
Y12083D01*
X9533Y12025D01*
X9417D01*
X9358Y12083D01*
X9071Y18773D02*
X8837D01*
Y18598D01*
X8954D01*
X8837D01*
Y18423D01*
X9362D02*
Y18773D01*
X9187Y18598D01*
X9421D01*
X8966Y25189D02*
X8732D01*
Y25014D01*
X8849D01*
X8732D01*
Y24839D01*
X9082Y25131D02*
X9141Y25189D01*
X9257D01*
X9315Y25131D01*
Y25073D01*
X9257Y25014D01*
X9199D01*
X9257D01*
X9315Y24956D01*
Y24898D01*
X9257Y24839D01*
X9141D01*
X9082Y24898D01*
X2403Y30627D02*
X2170D01*
Y30452D01*
X2287D01*
X2170D01*
Y30277D01*
X2753D02*
X2520D01*
X2753Y30510D01*
Y30569D01*
X2695Y30627D01*
X2578D01*
X2520Y30569D01*
X15000Y73879D02*
X14767D01*
Y73704D01*
X14883D01*
X14767D01*
Y73529D01*
X15117D02*
X15233D01*
X15175D01*
Y73879D01*
X15117Y73820D01*
X50908Y15175D02*
Y14825D01*
X51083D01*
X51142Y14883D01*
Y15117D01*
X51083Y15175D01*
X50908D01*
X51258D02*
X51492D01*
Y15117D01*
X51258Y14883D01*
Y14825D01*
X50908Y18175D02*
Y17825D01*
X51083D01*
X51142Y17883D01*
Y18117D01*
X51083Y18175D01*
X50908D01*
X51492D02*
X51375Y18117D01*
X51258Y18000D01*
Y17883D01*
X51317Y17825D01*
X51433D01*
X51492Y17883D01*
Y17942D01*
X51433Y18000D01*
X51258D01*
X31308Y15275D02*
Y14925D01*
X31483D01*
X31542Y14983D01*
Y15217D01*
X31483Y15275D01*
X31308D01*
X31892D02*
X31658D01*
Y15100D01*
X31775Y15158D01*
X31833D01*
X31892Y15100D01*
Y14983D01*
X31833Y14925D01*
X31717D01*
X31658Y14983D01*
X31408Y18075D02*
Y17725D01*
X31583D01*
X31642Y17783D01*
Y18017D01*
X31583Y18075D01*
X31408D01*
X31933Y17725D02*
Y18075D01*
X31758Y17900D01*
X31992D01*
X53100Y4081D02*
X53042Y4139D01*
X52925D01*
X52867Y4081D01*
Y3848D01*
X52925Y3790D01*
X53042D01*
X53100Y3848D01*
X53217Y4081D02*
X53275Y4139D01*
X53392D01*
X53450Y4081D01*
Y4023D01*
X53392Y3965D01*
X53333D01*
X53392D01*
X53450Y3906D01*
Y3848D01*
X53392Y3790D01*
X53275D01*
X53217Y3848D01*
X53567Y3790D02*
X53683D01*
X53625D01*
Y4139D01*
X53567Y4081D01*
X45445Y32829D02*
X45387Y32887D01*
X45270D01*
X45212Y32829D01*
Y32596D01*
X45270Y32537D01*
X45387D01*
X45445Y32596D01*
X45562Y32829D02*
X45620Y32887D01*
X45737D01*
X45795Y32829D01*
Y32771D01*
X45737Y32712D01*
X45679D01*
X45737D01*
X45795Y32654D01*
Y32596D01*
X45737Y32537D01*
X45620D01*
X45562Y32596D01*
X45912Y32829D02*
X45970Y32887D01*
X46087D01*
X46145Y32829D01*
Y32596D01*
X46087Y32537D01*
X45970D01*
X45912Y32596D01*
Y32829D01*
X40645D02*
X40586Y32887D01*
X40470D01*
X40411Y32829D01*
Y32596D01*
X40470Y32537D01*
X40586D01*
X40645Y32596D01*
X40995Y32537D02*
X40761D01*
X40995Y32771D01*
Y32829D01*
X40936Y32887D01*
X40820D01*
X40761Y32829D01*
X41111Y32596D02*
X41169Y32537D01*
X41286D01*
X41344Y32596D01*
Y32829D01*
X41286Y32887D01*
X41169D01*
X41111Y32829D01*
Y32771D01*
X41169Y32712D01*
X41344D01*
X43032Y32829D02*
X42974Y32887D01*
X42857D01*
X42799Y32829D01*
Y32596D01*
X42857Y32537D01*
X42974D01*
X43032Y32596D01*
X43382Y32537D02*
X43149D01*
X43382Y32771D01*
Y32829D01*
X43324Y32887D01*
X43207D01*
X43149Y32829D01*
X43499D02*
X43557Y32887D01*
X43674D01*
X43732Y32829D01*
Y32771D01*
X43674Y32712D01*
X43732Y32654D01*
Y32596D01*
X43674Y32537D01*
X43557D01*
X43499Y32596D01*
Y32654D01*
X43557Y32712D01*
X43499Y32771D01*
Y32829D01*
X43557Y32712D02*
X43674D01*
X47858Y32829D02*
X47800Y32887D01*
X47683D01*
X47625Y32829D01*
Y32596D01*
X47683Y32537D01*
X47800D01*
X47858Y32596D01*
X48208Y32537D02*
X47975D01*
X48208Y32771D01*
Y32829D01*
X48150Y32887D01*
X48033D01*
X47975Y32829D01*
X48325Y32887D02*
X48558D01*
Y32829D01*
X48325Y32596D01*
Y32537D01*
X50246Y32829D02*
X50188Y32887D01*
X50071D01*
X50013Y32829D01*
Y32596D01*
X50071Y32537D01*
X50188D01*
X50246Y32596D01*
X50596Y32537D02*
X50362D01*
X50596Y32771D01*
Y32829D01*
X50537Y32887D01*
X50421D01*
X50362Y32829D01*
X50946Y32887D02*
X50829Y32829D01*
X50712Y32712D01*
Y32596D01*
X50771Y32537D01*
X50887D01*
X50946Y32596D01*
Y32654D01*
X50887Y32712D01*
X50712D01*
X35467Y2517D02*
X35408Y2575D01*
X35292D01*
X35233Y2517D01*
Y2283D01*
X35292Y2225D01*
X35408D01*
X35467Y2283D01*
X35817Y2225D02*
X35583D01*
X35817Y2458D01*
Y2517D01*
X35758Y2575D01*
X35642D01*
X35583Y2517D01*
X36167Y2575D02*
X35933D01*
Y2400D01*
X36050Y2458D01*
X36108D01*
X36167Y2400D01*
Y2283D01*
X36108Y2225D01*
X35992D01*
X35933Y2283D01*
X27614Y32829D02*
X27556Y32887D01*
X27440D01*
X27381Y32829D01*
Y32596D01*
X27440Y32537D01*
X27556D01*
X27614Y32596D01*
X27964Y32537D02*
X27731D01*
X27964Y32771D01*
Y32829D01*
X27906Y32887D01*
X27789D01*
X27731Y32829D01*
X28256Y32537D02*
Y32887D01*
X28081Y32712D01*
X28314D01*
X22712Y32829D02*
X22654Y32887D01*
X22537D01*
X22479Y32829D01*
Y32596D01*
X22537Y32537D01*
X22654D01*
X22712Y32596D01*
X23062Y32537D02*
X22829D01*
X23062Y32771D01*
Y32829D01*
X23004Y32887D01*
X22887D01*
X22829Y32829D01*
X23179D02*
X23237Y32887D01*
X23354D01*
X23412Y32829D01*
Y32771D01*
X23354Y32712D01*
X23295D01*
X23354D01*
X23412Y32654D01*
Y32596D01*
X23354Y32537D01*
X23237D01*
X23179Y32596D01*
X25201Y32829D02*
X25143Y32887D01*
X25027D01*
X24968Y32829D01*
Y32596D01*
X25027Y32537D01*
X25143D01*
X25201Y32596D01*
X25551Y32537D02*
X25318D01*
X25551Y32771D01*
Y32829D01*
X25493Y32887D01*
X25376D01*
X25318Y32829D01*
X25901Y32537D02*
X25668D01*
X25901Y32771D01*
Y32829D01*
X25843Y32887D01*
X25726D01*
X25668Y32829D01*
X30002D02*
X29944Y32887D01*
X29827D01*
X29769Y32829D01*
Y32596D01*
X29827Y32537D01*
X29944D01*
X30002Y32596D01*
X30352Y32537D02*
X30119D01*
X30352Y32771D01*
Y32829D01*
X30294Y32887D01*
X30177D01*
X30119Y32829D01*
X30469Y32537D02*
X30585D01*
X30527D01*
Y32887D01*
X30469Y32829D01*
X32415D02*
X32357Y32887D01*
X32240D01*
X32182Y32829D01*
Y32596D01*
X32240Y32537D01*
X32357D01*
X32415Y32596D01*
X32765Y32537D02*
X32532D01*
X32765Y32771D01*
Y32829D01*
X32707Y32887D01*
X32590D01*
X32532Y32829D01*
X32882D02*
X32940Y32887D01*
X33057D01*
X33115Y32829D01*
Y32596D01*
X33057Y32537D01*
X32940D01*
X32882Y32596D01*
Y32829D01*
X25100Y60666D02*
X25042Y60724D01*
X24925D01*
X24867Y60666D01*
Y60433D01*
X24925Y60374D01*
X25042D01*
X25100Y60433D01*
X25216Y60374D02*
X25333D01*
X25275D01*
Y60724D01*
X25216Y60666D01*
X25508Y60433D02*
X25566Y60374D01*
X25683D01*
X25741Y60433D01*
Y60666D01*
X25683Y60724D01*
X25566D01*
X25508Y60666D01*
Y60607D01*
X25566Y60549D01*
X25741D01*
X53533Y63050D02*
X53475Y63108D01*
X53358D01*
X53300Y63050D01*
Y62817D01*
X53358Y62759D01*
X53475D01*
X53533Y62817D01*
X53650Y62759D02*
X53767D01*
X53708D01*
Y63108D01*
X53650Y63050D01*
X53941D02*
X54000Y63108D01*
X54116D01*
X54175Y63050D01*
Y62992D01*
X54116Y62934D01*
X54175Y62875D01*
Y62817D01*
X54116Y62759D01*
X54000D01*
X53941Y62817D01*
Y62875D01*
X54000Y62934D01*
X53941Y62992D01*
Y63050D01*
X54000Y62934D02*
X54116D01*
X38796Y54317D02*
X38738Y54375D01*
X38621D01*
X38563Y54317D01*
Y54083D01*
X38621Y54025D01*
X38738D01*
X38796Y54083D01*
X38913Y54025D02*
X39029D01*
X38971D01*
Y54375D01*
X38913Y54317D01*
X39204Y54375D02*
X39437D01*
Y54317D01*
X39204Y54083D01*
Y54025D01*
X38796Y60017D02*
X38738Y60075D01*
X38621D01*
X38563Y60017D01*
Y59783D01*
X38621Y59725D01*
X38738D01*
X38796Y59783D01*
X38913Y59725D02*
X39029D01*
X38971D01*
Y60075D01*
X38913Y60017D01*
X39437Y59725D02*
X39204D01*
X39437Y59958D01*
Y60017D01*
X39379Y60075D01*
X39262D01*
X39204Y60017D01*
X36754Y58417D02*
X36696Y58475D01*
X36579D01*
X36521Y58417D01*
Y58183D01*
X36579Y58125D01*
X36696D01*
X36754Y58183D01*
X36871Y58125D02*
X36987D01*
X36929D01*
Y58475D01*
X36871Y58417D01*
X37162Y58125D02*
X37279D01*
X37221D01*
Y58475D01*
X37162Y58417D01*
X39196Y56017D02*
X39138Y56075D01*
X39021D01*
X38963Y56017D01*
Y55783D01*
X39021Y55725D01*
X39138D01*
X39196Y55783D01*
X39313Y55725D02*
X39429D01*
X39371D01*
Y56075D01*
X39313Y56017D01*
X39604D02*
X39662Y56075D01*
X39779D01*
X39837Y56017D01*
Y55783D01*
X39779Y55725D01*
X39662D01*
X39604Y55783D01*
Y56017D01*
X30842Y54717D02*
X30783Y54775D01*
X30667D01*
X30608Y54717D01*
Y54483D01*
X30667Y54425D01*
X30783D01*
X30842Y54483D01*
X30958D02*
X31017Y54425D01*
X31133D01*
X31192Y54483D01*
Y54717D01*
X31133Y54775D01*
X31017D01*
X30958Y54717D01*
Y54658D01*
X31017Y54600D01*
X31192D01*
X35342Y58462D02*
X35283Y58521D01*
X35167D01*
X35108Y58462D01*
Y58229D01*
X35167Y58171D01*
X35283D01*
X35342Y58229D01*
X35458Y58462D02*
X35517Y58521D01*
X35633D01*
X35692Y58462D01*
Y58404D01*
X35633Y58346D01*
X35575D01*
X35633D01*
X35692Y58287D01*
Y58229D01*
X35633Y58171D01*
X35517D01*
X35458Y58229D01*
X29542Y58717D02*
X29483Y58775D01*
X29367D01*
X29308Y58717D01*
Y58483D01*
X29367Y58425D01*
X29483D01*
X29542Y58483D01*
X29833Y58425D02*
Y58775D01*
X29658Y58600D01*
X29892D01*
X32342Y55917D02*
X32283Y55975D01*
X32167D01*
X32108Y55917D01*
Y55683D01*
X32167Y55625D01*
X32283D01*
X32342Y55683D01*
X32692Y55625D02*
X32458D01*
X32692Y55858D01*
Y55917D01*
X32633Y55975D01*
X32517D01*
X32458Y55917D01*
M02*
