G04*
G04 #@! TF.GenerationSoftware,Altium Limited,Altium Designer,20.2.6 (244)*
G04*
G04 Layer_Physical_Order=3*
G04 Layer_Color=16440176*
%FSLAX43Y43*%
%MOMM*%
G71*
G04*
G04 #@! TF.SameCoordinates,26D22392-77BC-4279-9484-9B9EAB7B2405*
G04*
G04*
G04 #@! TF.FilePolarity,Positive*
G04*
G01*
G75*
%ADD11C,0.254*%
%ADD16C,0.500*%
%ADD33C,0.500*%
%ADD70C,0.230*%
%ADD73C,0.108*%
%ADD74C,0.102*%
%ADD75C,0.128*%
%ADD79C,2.300*%
%ADD81C,3.200*%
%ADD83C,2.500*%
%ADD84C,1.270*%
%ADD85C,0.700*%
%ADD86C,0.102*%
G36*
X38600Y63400D02*
Y59300D01*
X37890Y58590D01*
X37800Y58608D01*
X37644Y58577D01*
X37512Y58488D01*
X37423Y58356D01*
X37392Y58200D01*
X37283Y58100D01*
X36000D01*
Y58400D01*
X36600Y59000D01*
Y63400D01*
X38600Y63400D01*
D02*
G37*
G36*
X32200Y59300D02*
X33600D01*
Y58300D01*
X30000D01*
Y63400D01*
X32200D01*
Y59300D01*
D02*
G37*
G36*
X39139Y57852D02*
X38892Y56549D01*
X38894Y56539D01*
X38890Y56529D01*
Y54500D01*
X38922Y54422D01*
X39000Y54390D01*
X40454D01*
X40690Y54154D01*
X40690Y51810D01*
X39600Y51810D01*
X39522Y51778D01*
X39490Y51700D01*
X39490Y49810D01*
X39405Y49771D01*
X39240Y49660D01*
X39129Y49495D01*
X39090Y49300D01*
X39129Y49105D01*
X39240Y48940D01*
X39405Y48829D01*
X39600Y48790D01*
X39795Y48829D01*
X39960Y48940D01*
X40071Y49105D01*
X40110Y49300D01*
X40092Y49392D01*
X40172Y49490D01*
X42100D01*
X42200Y49394D01*
Y45400D01*
X37700D01*
Y47699D01*
X37818Y47740D01*
X37827Y47738D01*
X37912Y47612D01*
X38044Y47523D01*
X38200Y47492D01*
X38356Y47523D01*
X38488Y47612D01*
X38577Y47744D01*
X38608Y47900D01*
X38577Y48056D01*
X38488Y48188D01*
X38356Y48277D01*
X38200Y48308D01*
X38044Y48277D01*
X37912Y48188D01*
X37827Y48062D01*
X37818Y48060D01*
X37700Y48101D01*
Y51550D01*
X37761Y51584D01*
X37827Y51601D01*
X37944Y51523D01*
X38100Y51492D01*
X38256Y51523D01*
X38388Y51612D01*
X38477Y51744D01*
X38508Y51900D01*
X38477Y52056D01*
X38388Y52188D01*
X38256Y52277D01*
X38100Y52308D01*
X37944Y52277D01*
X37827Y52199D01*
X37761Y52216D01*
X37700Y52250D01*
Y52411D01*
X37827Y52507D01*
X37900Y52492D01*
X38056Y52523D01*
X38188Y52612D01*
X38277Y52744D01*
X38308Y52900D01*
X38277Y53056D01*
X38188Y53188D01*
X38056Y53277D01*
X37900Y53308D01*
X37744Y53277D01*
X37612Y53188D01*
X37523Y53056D01*
X37510Y52990D01*
X37391Y52951D01*
X37300Y53026D01*
Y53100D01*
X37052D01*
X36972Y53198D01*
X36972Y53200D01*
X36944Y53342D01*
X36863Y53463D01*
X36742Y53544D01*
X36692Y53554D01*
X36592Y53592D01*
X36554Y53692D01*
X36544Y53742D01*
X36505Y53800D01*
X36544Y53858D01*
X36572Y54000D01*
X36544Y54142D01*
X36505Y54200D01*
X36544Y54258D01*
X36572Y54400D01*
X36544Y54542D01*
X36505Y54600D01*
X36544Y54658D01*
X36572Y54800D01*
X36544Y54942D01*
X36505Y55000D01*
X36544Y55058D01*
X36572Y55200D01*
X36544Y55342D01*
X36463Y55463D01*
X36433Y55483D01*
Y57625D01*
X36758Y57950D01*
X37486D01*
X37512Y57912D01*
X37644Y57823D01*
X37800Y57792D01*
X37956Y57823D01*
X38088Y57912D01*
X38114Y57950D01*
X39057D01*
X39139Y57852D01*
D02*
G37*
G36*
X22900Y61139D02*
X22892Y61100D01*
X22900Y61061D01*
Y56100D01*
X204D01*
Y74796D01*
X22900D01*
Y61139D01*
D02*
G37*
G36*
X59390Y50646D02*
X59322Y50578D01*
X59290Y50500D01*
X59322Y50422D01*
X59522Y50222D01*
X59600Y50190D01*
X60945D01*
X60968Y50199D01*
X60992Y50201D01*
X61005Y50215D01*
X61023Y50222D01*
X61032Y50245D01*
X61049Y50263D01*
X61051Y50269D01*
X61169Y50315D01*
X61346Y50220D01*
X61666Y50123D01*
X62000Y50090D01*
X62334Y50123D01*
X62654Y50220D01*
X62831Y50315D01*
X62949Y50269D01*
X62951Y50263D01*
X62968Y50245D01*
X62977Y50222D01*
X62995Y50215D01*
X63008Y50201D01*
X63032Y50199D01*
X63055Y50190D01*
X64220D01*
X64316Y50063D01*
X64290Y49800D01*
X64323Y49466D01*
X64420Y49146D01*
X64578Y48850D01*
X64791Y48591D01*
X65050Y48378D01*
X65346Y48220D01*
X65666Y48123D01*
X66000Y48090D01*
X66334Y48123D01*
X66654Y48220D01*
X66950Y48378D01*
X67209Y48591D01*
X67422Y48850D01*
X67580Y49146D01*
X67677Y49466D01*
X67710Y49800D01*
X67684Y50063D01*
X67780Y50190D01*
X68090D01*
X68380Y49900D01*
X70811D01*
X70835Y49890D01*
X72199D01*
X72221Y49899D01*
X72231Y49900D01*
X72569D01*
X72579Y49899D01*
X72601Y49890D01*
X73999D01*
X74021Y49899D01*
X74031Y49900D01*
X74369D01*
X74379Y49899D01*
X74401Y49890D01*
X74796D01*
X74796Y49763D01*
Y46037D01*
X74773Y45910D01*
X70594Y45910D01*
X70575Y46037D01*
X70713Y46079D01*
X71035Y46251D01*
X71317Y46483D01*
X71549Y46765D01*
X71721Y47087D01*
X71786Y47300D01*
X70000D01*
X68214D01*
X68279Y47087D01*
X68451Y46765D01*
X68683Y46483D01*
X68965Y46251D01*
X69287Y46079D01*
X69425Y46037D01*
X69406Y45910D01*
X67710D01*
X67698Y45917D01*
X67677Y46134D01*
X67580Y46454D01*
X67422Y46750D01*
X67209Y47009D01*
X66950Y47222D01*
X66654Y47380D01*
X66334Y47477D01*
X66000Y47510D01*
X65666Y47477D01*
X65346Y47380D01*
X65050Y47222D01*
X64791Y47009D01*
X64578Y46750D01*
X64420Y46454D01*
X64416Y46439D01*
X64292Y46408D01*
X63571Y47129D01*
X63580Y47146D01*
X63677Y47466D01*
X63710Y47800D01*
X63677Y48134D01*
X63580Y48454D01*
X63422Y48750D01*
X63209Y49009D01*
X62950Y49222D01*
X62654Y49380D01*
X62334Y49477D01*
X62000Y49510D01*
X61666Y49477D01*
X61346Y49380D01*
X61050Y49222D01*
X60791Y49009D01*
X60578Y48750D01*
X60420Y48454D01*
X60323Y48134D01*
X60291Y47810D01*
X58590D01*
X58188Y48212D01*
X58211Y48269D01*
X58237Y48468D01*
X58211Y48667D01*
X58134Y48852D01*
X58012Y49011D01*
X57853Y49134D01*
X57668Y49210D01*
X57469Y49237D01*
X57270Y49210D01*
X57213Y49187D01*
X56786Y49614D01*
X56843Y49737D01*
X56999Y49758D01*
X57184Y49834D01*
X57343Y49957D01*
X57466Y50116D01*
X57542Y50301D01*
X57569Y50500D01*
X57542Y50699D01*
X57466Y50884D01*
X57343Y51043D01*
X57184Y51166D01*
X56999Y51242D01*
X56800Y51269D01*
X56601Y51242D01*
X56416Y51166D01*
X56257Y51043D01*
X56134Y50884D01*
X56058Y50699D01*
X56037Y50543D01*
X55914Y50486D01*
X55200Y51200D01*
X51400D01*
X51300Y51300D01*
Y54600D01*
X55023D01*
X55057Y54557D01*
X55216Y54434D01*
X55401Y54358D01*
X55600Y54331D01*
X55799Y54358D01*
X55984Y54434D01*
X56143Y54557D01*
X56177Y54600D01*
X59390D01*
Y50646D01*
D02*
G37*
G36*
X74796Y50000D02*
X74401D01*
X74360Y50118D01*
X74362Y50127D01*
X74488Y50212D01*
X74577Y50344D01*
X74608Y50500D01*
X74577Y50656D01*
X74488Y50788D01*
X74356Y50877D01*
X74200Y50908D01*
X74044Y50877D01*
X73912Y50788D01*
X73823Y50656D01*
X73792Y50500D01*
X73823Y50344D01*
X73912Y50212D01*
X74038Y50127D01*
X74040Y50118D01*
X73999Y50000D01*
X72601D01*
X72560Y50118D01*
X72562Y50127D01*
X72688Y50212D01*
X72777Y50344D01*
X72808Y50500D01*
X72777Y50656D01*
X72688Y50788D01*
X72556Y50877D01*
X72400Y50908D01*
X72244Y50877D01*
X72112Y50788D01*
X72023Y50656D01*
X71992Y50500D01*
X72023Y50344D01*
X72112Y50212D01*
X72238Y50127D01*
X72240Y50118D01*
X72199Y50000D01*
X70835D01*
X70803Y50127D01*
X71035Y50251D01*
X71317Y50483D01*
X71549Y50765D01*
X71721Y51087D01*
X71786Y51300D01*
X70000D01*
Y51800D01*
X69500D01*
Y53586D01*
X69287Y53521D01*
X69219Y53485D01*
X69110Y53550D01*
Y54000D01*
X69500D01*
Y54067D01*
X69602Y54143D01*
X69666Y54123D01*
X70000Y54090D01*
X70334Y54123D01*
X70654Y54220D01*
X70950Y54378D01*
X71209Y54591D01*
X71422Y54850D01*
X71580Y55146D01*
X71677Y55466D01*
X71710Y55800D01*
X71677Y56134D01*
X71580Y56454D01*
X71422Y56750D01*
X71209Y57009D01*
X70950Y57222D01*
X70654Y57380D01*
X70334Y57477D01*
X70000Y57510D01*
X69666Y57477D01*
X69602Y57457D01*
X69500Y57533D01*
Y67900D01*
X42000D01*
Y65200D01*
X41900Y65100D01*
X23500D01*
Y74796D01*
X74796D01*
Y50000D01*
D02*
G37*
G36*
X47500Y57200D02*
X42100Y57200D01*
Y53808D01*
X41944Y53777D01*
X41812Y53688D01*
X41723Y53556D01*
X41692Y53400D01*
X41723Y53244D01*
X41812Y53112D01*
X41944Y53023D01*
X42100Y52992D01*
Y49600D01*
X40001D01*
X39960Y49660D01*
X39795Y49771D01*
X39600Y49810D01*
X39600Y49810D01*
X39600Y51700D01*
X40800Y51700D01*
X40800Y54200D01*
X40500Y54500D01*
X39000D01*
Y56529D01*
X39922Y61400D01*
X42600D01*
Y67300D01*
X47500D01*
Y57200D01*
D02*
G37*
G36*
X69000Y67250D02*
X69000Y57181D01*
X68791Y57009D01*
X68578Y56750D01*
X68420Y56454D01*
X68323Y56134D01*
X68290Y55800D01*
X68323Y55466D01*
X68420Y55146D01*
X68578Y54850D01*
X68791Y54591D01*
X69000Y54419D01*
Y53181D01*
X68791Y53009D01*
X68578Y52750D01*
X68420Y52454D01*
X68323Y52134D01*
X68290Y51800D01*
X68323Y51466D01*
X68420Y51146D01*
X68578Y50850D01*
X68791Y50591D01*
X68991Y50427D01*
X68989Y50300D01*
X67626D01*
X67580Y50454D01*
X67422Y50750D01*
X67209Y51009D01*
X66950Y51222D01*
X66654Y51380D01*
X66334Y51477D01*
X66000Y51510D01*
X65666Y51477D01*
X65346Y51380D01*
X65050Y51222D01*
X64791Y51009D01*
X64578Y50750D01*
X64420Y50454D01*
X64373Y50300D01*
X63055D01*
X63009Y50427D01*
X63209Y50591D01*
X63422Y50850D01*
X63580Y51146D01*
X63677Y51466D01*
X63710Y51800D01*
X63677Y52134D01*
X63580Y52454D01*
X63422Y52750D01*
X63209Y53009D01*
X62950Y53222D01*
X62654Y53380D01*
X62334Y53477D01*
X62000Y53510D01*
X61666Y53477D01*
X61346Y53380D01*
X61050Y53222D01*
X60791Y53009D01*
X60578Y52750D01*
X60420Y52454D01*
X60323Y52134D01*
X60290Y51800D01*
X60323Y51466D01*
X60420Y51146D01*
X60578Y50850D01*
X60791Y50591D01*
X60991Y50427D01*
X60945Y50300D01*
X59600D01*
X59400Y50500D01*
X59500Y50600D01*
Y60100D01*
X48100D01*
X48000Y60200D01*
X48000Y67260D01*
X48090Y67350D01*
X69000Y67250D01*
D02*
G37*
G36*
X29700Y59100D02*
Y57900D01*
X34900D01*
X35000Y57800D01*
Y54287D01*
X34873Y54248D01*
X34863Y54263D01*
X34742Y54344D01*
X34600Y54372D01*
X34458Y54344D01*
X34337Y54263D01*
X34256Y54142D01*
X34228Y54000D01*
X34256Y53858D01*
X34337Y53737D01*
X34438Y53669D01*
X34449Y53600D01*
X34438Y53531D01*
X34337Y53463D01*
X34256Y53342D01*
X34228Y53200D01*
X34256Y53058D01*
X34337Y52937D01*
X34458Y52856D01*
X34600Y52828D01*
X34742Y52856D01*
X34863Y52937D01*
X34873Y52952D01*
X34987Y52917D01*
X34987Y52794D01*
X34893Y52751D01*
X34858Y52744D01*
X34737Y52663D01*
X34656Y52542D01*
X34628Y52400D01*
X34656Y52258D01*
X34737Y52137D01*
X34858Y52056D01*
X35000Y52028D01*
X35142Y52056D01*
X35263Y52137D01*
X35344Y52258D01*
X35372Y52400D01*
X35400Y52428D01*
X35542Y52456D01*
X35600Y52495D01*
X35658Y52456D01*
X35800Y52428D01*
X35942Y52456D01*
X36000Y52495D01*
X36016Y52484D01*
X36284Y52216D01*
X36337Y52137D01*
X36416Y52084D01*
X36600Y51900D01*
X36300Y51600D01*
Y50601D01*
X36182Y50560D01*
X36173Y50562D01*
X36088Y50688D01*
X35956Y50777D01*
X35800Y50808D01*
X35644Y50777D01*
X35512Y50688D01*
X35423Y50556D01*
X35392Y50400D01*
X35423Y50244D01*
X35512Y50112D01*
X35644Y50023D01*
X35800Y49992D01*
X35956Y50023D01*
X36088Y50112D01*
X36173Y50238D01*
X36182Y50240D01*
X36300Y50199D01*
Y49401D01*
X36182Y49360D01*
X36173Y49362D01*
X36088Y49488D01*
X35956Y49577D01*
X35800Y49608D01*
X35644Y49577D01*
X35512Y49488D01*
X35423Y49356D01*
X35392Y49200D01*
X35423Y49044D01*
X35512Y48912D01*
X35644Y48823D01*
X35800Y48792D01*
X35956Y48823D01*
X36088Y48912D01*
X36173Y49038D01*
X36182Y49040D01*
X36300Y48999D01*
Y45500D01*
X36600Y45200D01*
X42500D01*
Y53361D01*
X42508Y53400D01*
X42500Y53439D01*
Y57000D01*
X46723Y57049D01*
X46762Y56922D01*
X46712Y56888D01*
X46623Y56756D01*
X46592Y56600D01*
X46623Y56444D01*
X46712Y56312D01*
X46844Y56223D01*
X47000Y56192D01*
X47156Y56223D01*
X47288Y56312D01*
X47377Y56444D01*
X47408Y56600D01*
X47377Y56756D01*
X47288Y56888D01*
X47230Y56927D01*
X47268Y57055D01*
X51032Y57098D01*
X51081Y56981D01*
X51000Y56900D01*
Y48414D01*
X47086D01*
X46700Y48800D01*
Y50000D01*
X44300D01*
X44200Y49900D01*
X44400Y49700D01*
Y39600D01*
X34400D01*
X34310Y39637D01*
Y47200D01*
X34300Y47224D01*
Y47400D01*
X24000D01*
X23700Y47700D01*
Y59800D01*
X29000D01*
X29700Y59100D01*
D02*
G37*
G36*
X56866Y48934D02*
X56803Y48852D01*
X56726Y48667D01*
X56700Y48468D01*
X56726Y48269D01*
X56803Y48084D01*
X56925Y47924D01*
X57084Y47802D01*
X57270Y47726D01*
X57469Y47699D01*
X57668Y47726D01*
X57853Y47802D01*
X57935Y47865D01*
X58100Y47700D01*
X60300D01*
X60323Y47466D01*
X60420Y47146D01*
X60578Y46850D01*
X60791Y46591D01*
X61050Y46378D01*
X61346Y46220D01*
X61666Y46123D01*
X62000Y46090D01*
X62334Y46123D01*
X62654Y46220D01*
X62801Y46299D01*
X63300Y45800D01*
X64290D01*
X64323Y45466D01*
X64420Y45146D01*
X64578Y44850D01*
X64791Y44591D01*
X65050Y44378D01*
X65346Y44220D01*
X65666Y44123D01*
X66000Y44090D01*
X66334Y44123D01*
X66654Y44220D01*
X66950Y44378D01*
X67209Y44591D01*
X67422Y44850D01*
X67580Y45146D01*
X67677Y45466D01*
X67710Y45800D01*
X74796Y45800D01*
Y44027D01*
X74796Y43910D01*
X72100Y43910D01*
X72022Y43878D01*
X71990Y43800D01*
X71990Y41910D01*
X70594D01*
X70575Y42037D01*
X70713Y42079D01*
X71035Y42251D01*
X71317Y42483D01*
X71549Y42765D01*
X71721Y43087D01*
X71786Y43300D01*
X70000D01*
X68214D01*
X68279Y43087D01*
X68451Y42765D01*
X68683Y42483D01*
X68965Y42251D01*
X69287Y42079D01*
X69425Y42037D01*
X69406Y41910D01*
X67710D01*
X67698Y41917D01*
X67677Y42134D01*
X67580Y42454D01*
X67422Y42750D01*
X67209Y43009D01*
X66950Y43222D01*
X66654Y43380D01*
X66334Y43477D01*
X66000Y43510D01*
X65666Y43477D01*
X65346Y43380D01*
X65050Y43222D01*
X64791Y43009D01*
X64578Y42750D01*
X64420Y42454D01*
X64323Y42134D01*
X64302Y41917D01*
X64290Y41910D01*
X58810Y41910D01*
Y45110D01*
X58802Y45129D01*
X58803Y45150D01*
X58787Y45167D01*
X58778Y45188D01*
X58759Y45196D01*
X58745Y45211D01*
X57012Y45979D01*
X56993Y45980D01*
X56976Y45988D01*
X56953Y45981D01*
X56928Y45981D01*
X56914Y45968D01*
X56896Y45962D01*
X56760Y45960D01*
X56595Y46071D01*
X56400Y46110D01*
X56342Y46163D01*
X56339Y46183D01*
X56340Y46194D01*
X56335Y46211D01*
X56333Y46226D01*
X56333Y46245D01*
X56322Y46258D01*
X56317Y46274D01*
X56294Y46287D01*
X56275Y46306D01*
X52894Y47806D01*
X52400Y48300D01*
X51900D01*
X51400Y48800D01*
Y51000D01*
X54800D01*
X56866Y48934D01*
D02*
G37*
G36*
X46200Y39400D02*
X50400D01*
X54870Y34930D01*
X54858Y34899D01*
X54831Y34700D01*
X54858Y34501D01*
X54934Y34316D01*
X55057Y34157D01*
X55216Y34034D01*
X55401Y33958D01*
X55600Y33931D01*
X55799Y33958D01*
X55830Y33970D01*
X58200Y31600D01*
X60310D01*
X60323Y31466D01*
X60420Y31146D01*
X60578Y30850D01*
X60791Y30591D01*
X61050Y30378D01*
X61346Y30220D01*
X61666Y30123D01*
X62000Y30090D01*
X62334Y30123D01*
X62654Y30220D01*
X62950Y30378D01*
X63209Y30591D01*
X63422Y30850D01*
X63580Y31146D01*
X63677Y31466D01*
X63690Y31600D01*
X65648D01*
X65666Y31477D01*
X65346Y31380D01*
X65050Y31222D01*
X64791Y31009D01*
X64578Y30750D01*
X64420Y30454D01*
X64323Y30134D01*
X64290Y29800D01*
X64323Y29466D01*
X64420Y29146D01*
X64578Y28850D01*
X64791Y28591D01*
X65050Y28378D01*
X65346Y28220D01*
X65666Y28123D01*
X66000Y28090D01*
X66334Y28123D01*
X66654Y28220D01*
X66950Y28378D01*
X67209Y28591D01*
X67422Y28850D01*
X67580Y29146D01*
X67677Y29466D01*
X67710Y29800D01*
X67677Y30134D01*
X67580Y30454D01*
X67422Y30750D01*
X67209Y31009D01*
X66950Y31222D01*
X66654Y31380D01*
X66334Y31477D01*
X66352Y31600D01*
X68310D01*
X68323Y31466D01*
X68420Y31146D01*
X68578Y30850D01*
X68791Y30591D01*
X69050Y30378D01*
X69346Y30220D01*
X69666Y30123D01*
X70000Y30090D01*
X70100Y30100D01*
X70479Y29721D01*
X70414Y29612D01*
X70363Y29627D01*
X70000Y29663D01*
X69637Y29627D01*
X69287Y29521D01*
X68965Y29349D01*
X68683Y29117D01*
X68451Y28835D01*
X68279Y28513D01*
X68214Y28300D01*
X70000D01*
Y27800D01*
X70500D01*
Y26014D01*
X70713Y26079D01*
X71035Y26251D01*
X71317Y26483D01*
X71549Y26765D01*
X71721Y27087D01*
X71827Y27437D01*
X71863Y27800D01*
X71827Y28163D01*
X71812Y28214D01*
X71921Y28279D01*
X74200Y26000D01*
Y23600D01*
X59000D01*
X57100Y25500D01*
Y29900D01*
X54100Y32900D01*
X20900D01*
X14517Y39283D01*
X14566Y39400D01*
X31200D01*
Y47200D01*
X34200D01*
Y39400D01*
X44600D01*
Y49400D01*
X46200D01*
Y39400D01*
D02*
G37*
G36*
X56231Y46206D02*
X56216Y46073D01*
X56205Y46071D01*
X56040Y45960D01*
X55929Y45795D01*
X55890Y45600D01*
X55929Y45405D01*
X56040Y45240D01*
X56205Y45129D01*
X56400Y45090D01*
X56595Y45129D01*
X56760Y45240D01*
X56871Y45405D01*
X56910Y45600D01*
X56874Y45782D01*
X56907Y45826D01*
X56968Y45879D01*
X58700Y45110D01*
Y41800D01*
X64290Y41800D01*
X64323Y41466D01*
X64420Y41146D01*
X64578Y40850D01*
X64791Y40591D01*
X65050Y40378D01*
X65346Y40220D01*
X65666Y40123D01*
X66000Y40090D01*
X66334Y40123D01*
X66654Y40220D01*
X66950Y40378D01*
X67209Y40591D01*
X67422Y40850D01*
X67580Y41146D01*
X67677Y41466D01*
X67710Y41800D01*
X72100Y41800D01*
X72100Y43800D01*
X74796Y43800D01*
X74796Y30129D01*
X71097D01*
X71040Y30245D01*
X71041Y30256D01*
X71317Y30483D01*
X71549Y30765D01*
X71721Y31087D01*
X71786Y31300D01*
X70000D01*
Y31800D01*
X69500D01*
Y33586D01*
X69287Y33521D01*
X68965Y33349D01*
X68683Y33117D01*
X68451Y32835D01*
X68279Y32513D01*
X68173Y32163D01*
X68137Y31800D01*
X68055Y31710D01*
X66352D01*
X66321Y31697D01*
X66287Y31689D01*
X66283Y31681D01*
X66275Y31678D01*
X66261Y31646D01*
X66244Y31617D01*
X66225Y31494D01*
X66220Y31488D01*
X66000Y31510D01*
X65780Y31488D01*
X65775Y31494D01*
X65756Y31617D01*
X65739Y31646D01*
X65725Y31678D01*
X65717Y31681D01*
X65713Y31689D01*
X65679Y31697D01*
X65648Y31710D01*
X63791D01*
X63710Y31800D01*
X63677Y32134D01*
X63580Y32454D01*
X63422Y32750D01*
X63209Y33009D01*
X62950Y33222D01*
X62654Y33380D01*
X62334Y33477D01*
X62000Y33510D01*
X61666Y33477D01*
X61346Y33380D01*
X61050Y33222D01*
X60791Y33009D01*
X60578Y32750D01*
X60420Y32454D01*
X60323Y32134D01*
X60290Y31800D01*
X60209Y31710D01*
X58246D01*
X57800Y32156D01*
X56030Y33925D01*
X56050Y34085D01*
X56143Y34157D01*
X56266Y34316D01*
X56342Y34501D01*
X56369Y34700D01*
X56342Y34899D01*
X56266Y35084D01*
X56143Y35243D01*
X55984Y35366D01*
X55799Y35442D01*
X55600Y35469D01*
X55401Y35442D01*
X55216Y35366D01*
X55057Y35243D01*
X54985Y35150D01*
X54825Y35130D01*
X50478Y39478D01*
X50400Y39510D01*
X49561D01*
X49518Y39637D01*
X49543Y39657D01*
X49666Y39816D01*
X49742Y40001D01*
X49769Y40200D01*
X49742Y40399D01*
X49666Y40584D01*
X49543Y40743D01*
X49384Y40866D01*
X49199Y40942D01*
X49000Y40969D01*
X48801Y40942D01*
X48616Y40866D01*
X48457Y40743D01*
X48334Y40584D01*
X48258Y40399D01*
X48231Y40200D01*
X48258Y40001D01*
X48334Y39816D01*
X48457Y39657D01*
X48482Y39637D01*
X48439Y39510D01*
X46400D01*
Y48304D01*
X51500D01*
X56231Y46206D01*
D02*
G37*
G36*
X53500Y24500D02*
Y20000D01*
X54700Y18800D01*
Y16900D01*
X58400Y13200D01*
Y10000D01*
X60100Y8300D01*
Y5900D01*
X59400Y5200D01*
X47700D01*
Y8900D01*
X48300Y9500D01*
Y13199D01*
X48360Y13240D01*
X48471Y13405D01*
X48510Y13600D01*
X48492Y13692D01*
X48500Y13700D01*
X48487Y13713D01*
X48471Y13795D01*
X48360Y13960D01*
X48195Y14071D01*
X48113Y14087D01*
X47600Y14600D01*
X45700D01*
X45400Y14300D01*
Y12700D01*
X39200Y6500D01*
Y6300D01*
X36100D01*
X34700Y4900D01*
X25300D01*
X19600Y10600D01*
Y13700D01*
X8300D01*
X8300Y19690D01*
X9014D01*
X18182Y19562D01*
X20962Y16783D01*
X20991Y16770D01*
X21018Y16753D01*
X21029Y16755D01*
X21040Y16751D01*
X21069Y16763D01*
X21101Y16769D01*
X21248Y16867D01*
X21400Y16898D01*
X21552Y16867D01*
X21681Y16781D01*
X21767Y16652D01*
X21798Y16500D01*
X21767Y16348D01*
X21669Y16201D01*
X21663Y16169D01*
X21651Y16140D01*
X21655Y16129D01*
X21653Y16118D01*
X21670Y16091D01*
X21683Y16062D01*
X25400Y12344D01*
Y9800D01*
X28400Y6800D01*
X31200D01*
X32600Y8200D01*
Y9200D01*
X34000Y10600D01*
X38400D01*
X43400Y15600D01*
Y15800D01*
X44200D01*
X46590Y18190D01*
X50500D01*
Y11296D01*
X50402Y11215D01*
X50400Y11216D01*
X50164Y11169D01*
X49965Y11035D01*
X49831Y10836D01*
X49809Y10727D01*
X50400D01*
Y10473D01*
X49809D01*
X49831Y10364D01*
X49965Y10165D01*
X50164Y10031D01*
X50400Y9984D01*
X50402Y9985D01*
X50500Y9904D01*
Y7600D01*
X50590Y7510D01*
Y7100D01*
X50590Y7100D01*
X50622Y7022D01*
X50622Y7022D01*
X51022Y6622D01*
X51100Y6590D01*
X54100D01*
X54178Y6622D01*
X54210Y6700D01*
Y7200D01*
X55700D01*
Y12400D01*
X53900Y14200D01*
X53900Y18300D01*
X51900Y20300D01*
X51900Y23300D01*
X51100Y24100D01*
X42800D01*
X40317Y26583D01*
X40366Y26700D01*
X51300D01*
X53500Y24500D01*
D02*
G37*
G36*
X17000Y32100D02*
Y21900D01*
X19123D01*
X19157Y21857D01*
X19316Y21734D01*
X19501Y21658D01*
X19700Y21631D01*
X19899Y21658D01*
X20084Y21734D01*
X20243Y21857D01*
X20277Y21900D01*
X21399D01*
X21434Y21816D01*
X21557Y21657D01*
X21716Y21534D01*
X21901Y21458D01*
X22100Y21431D01*
X22299Y21458D01*
X22484Y21534D01*
X22643Y21657D01*
X22766Y21816D01*
X22801Y21900D01*
X32800D01*
Y24300D01*
X36100D01*
Y19952D01*
X31400D01*
Y15600D01*
X36500D01*
X36500Y14596D01*
X32400Y11186D01*
Y8500D01*
X31000Y7100D01*
X28600D01*
X26000Y9700D01*
Y11900D01*
X21760Y16140D01*
X21871Y16305D01*
X21910Y16500D01*
X21871Y16695D01*
X21760Y16860D01*
X21595Y16971D01*
X21400Y17010D01*
X21205Y16971D01*
X21040Y16860D01*
X18100Y19800D01*
X204D01*
Y33300D01*
X15800D01*
X17000Y32100D01*
D02*
G37*
G36*
X42600Y23500D02*
X50500D01*
X50800Y23200D01*
Y20200D01*
X50500D01*
Y19300D01*
X52300Y17311D01*
Y13801D01*
X52258Y13699D01*
X52231Y13500D01*
X52258Y13301D01*
X52300Y13199D01*
Y9800D01*
X54100D01*
Y6700D01*
X51100D01*
X50700Y7100D01*
Y10199D01*
X50760Y10240D01*
X50871Y10405D01*
X50910Y10600D01*
X50871Y10795D01*
X50760Y10960D01*
X50700Y11001D01*
Y16899D01*
X50742Y17001D01*
X50769Y17200D01*
X50742Y17399D01*
X50700Y17501D01*
Y18300D01*
X46300D01*
X44100Y16100D01*
X43200D01*
X37900Y10800D01*
X33800D01*
X33100Y10100D01*
X32800D01*
Y11200D01*
X33700Y11900D01*
X36900Y14400D01*
Y16100D01*
X32780D01*
X32742Y16227D01*
X32760Y16240D01*
X32871Y16405D01*
X32910Y16600D01*
X32871Y16795D01*
X32760Y16960D01*
X32595Y17071D01*
X32400Y17110D01*
X32205Y17071D01*
X32040Y16960D01*
X31929Y16795D01*
X31890Y16600D01*
X31929Y16405D01*
X32040Y16240D01*
X32058Y16227D01*
X32020Y16100D01*
X31510D01*
Y19842D01*
X36100D01*
X36178Y19874D01*
X36188Y19900D01*
X36400D01*
Y25400D01*
X30000D01*
X29200Y24600D01*
X27048D01*
X27005Y24727D01*
X27043Y24757D01*
X27166Y24916D01*
X27242Y25101D01*
X27269Y25300D01*
X27242Y25499D01*
X27166Y25684D01*
X27043Y25843D01*
X26884Y25966D01*
X26699Y26042D01*
X26500Y26069D01*
X26301Y26042D01*
X26116Y25966D01*
X25957Y25843D01*
X25834Y25684D01*
X25758Y25499D01*
X25731Y25300D01*
X25758Y25101D01*
X25834Y24916D01*
X25957Y24757D01*
X25995Y24727D01*
X25952Y24600D01*
X23000D01*
X20800Y22400D01*
X20800Y22010D01*
X20277D01*
X20270Y22007D01*
X20262Y22009D01*
X20232Y21991D01*
X20199Y21978D01*
X20196Y21971D01*
X20190Y21967D01*
X20165Y21935D01*
X20119Y21900D01*
X19281D01*
X19235Y21935D01*
X19210Y21967D01*
X19204Y21971D01*
X19201Y21978D01*
X19168Y21991D01*
X19138Y22009D01*
X19130Y22007D01*
X19123Y22010D01*
X17200D01*
X17200Y28400D01*
X37700Y28400D01*
X42600Y23500D01*
D02*
G37*
G36*
X55300Y26700D02*
Y18800D01*
X65200Y8900D01*
X74796D01*
Y204D01*
X8400D01*
Y13590D01*
X19400D01*
Y12400D01*
X19490Y12310D01*
Y10600D01*
X19522Y10522D01*
X25222Y4822D01*
X25300Y4790D01*
X34700D01*
X34778Y4822D01*
X36146Y6190D01*
X39200D01*
X39278Y6222D01*
X39310Y6300D01*
Y6454D01*
X45478Y12622D01*
X45510Y12700D01*
Y14254D01*
X45746Y14490D01*
X47554D01*
X47850Y14194D01*
X47817Y14086D01*
X47798Y14067D01*
X47640Y13960D01*
X47529Y13795D01*
X47490Y13600D01*
X47529Y13405D01*
X47640Y13240D01*
X47805Y13129D01*
X48000Y13090D01*
X48092Y13108D01*
X48190Y13028D01*
Y9546D01*
X47622Y8978D01*
X47590Y8900D01*
Y5200D01*
X47622Y5122D01*
X47700Y5090D01*
X59400D01*
X59478Y5122D01*
X60178Y5822D01*
X60210Y5900D01*
Y8300D01*
X60178Y8378D01*
X58600Y9956D01*
Y13400D01*
X54810Y17190D01*
Y18800D01*
X54778Y18878D01*
X54700Y18956D01*
Y19050D01*
X53610Y23001D01*
Y24500D01*
X53578Y24578D01*
X53022Y25134D01*
X52590Y26700D01*
X51456D01*
X51378Y26778D01*
X51300Y26810D01*
X46556D01*
X46480Y26928D01*
X46482Y26937D01*
X46672Y27065D01*
X46806Y27264D01*
X46828Y27373D01*
X45646D01*
X45668Y27264D01*
X45802Y27065D01*
X45992Y26937D01*
X45994Y26928D01*
X45918Y26810D01*
X40366D01*
X40346Y26802D01*
X40324D01*
X40311Y26789D01*
X38817Y28283D01*
X38866Y28400D01*
X53600D01*
X55300Y26700D01*
D02*
G37*
%LPC*%
G36*
X37900Y54808D02*
X37744Y54777D01*
X37612Y54688D01*
X37523Y54556D01*
X37492Y54400D01*
X37523Y54244D01*
X37612Y54112D01*
X37744Y54023D01*
X37900Y53992D01*
X38056Y54023D01*
X38188Y54112D01*
X38277Y54244D01*
X38308Y54400D01*
X38277Y54556D01*
X38188Y54688D01*
X38056Y54777D01*
X37900Y54808D01*
D02*
G37*
G36*
X39600Y48608D02*
X39444Y48577D01*
X39312Y48488D01*
X39223Y48356D01*
X39192Y48200D01*
X39223Y48044D01*
X39312Y47912D01*
X39444Y47823D01*
X39600Y47792D01*
X39756Y47823D01*
X39888Y47912D01*
X39977Y48044D01*
X40008Y48200D01*
X39977Y48356D01*
X39888Y48488D01*
X39756Y48577D01*
X39600Y48608D01*
D02*
G37*
G36*
X21700Y71020D02*
Y70100D01*
X22620D01*
X22596Y70178D01*
X22457Y70440D01*
X22269Y70669D01*
X22040Y70857D01*
X21778Y70996D01*
X21700Y71020D01*
D02*
G37*
G36*
X20700D02*
X20622Y70996D01*
X20360Y70857D01*
X20131Y70669D01*
X19943Y70440D01*
X19804Y70178D01*
X19780Y70100D01*
X20700D01*
Y71020D01*
D02*
G37*
G36*
X18040D02*
Y70100D01*
X18960D01*
X18936Y70178D01*
X18797Y70440D01*
X18609Y70669D01*
X18380Y70857D01*
X18118Y70996D01*
X18040Y71020D01*
D02*
G37*
G36*
X17040D02*
X16962Y70996D01*
X16700Y70857D01*
X16471Y70669D01*
X16283Y70440D01*
X16144Y70178D01*
X16120Y70100D01*
X17040D01*
Y71020D01*
D02*
G37*
G36*
X22620Y69100D02*
X21700D01*
Y68180D01*
X21778Y68204D01*
X22040Y68343D01*
X22269Y68531D01*
X22457Y68760D01*
X22596Y69022D01*
X22620Y69100D01*
D02*
G37*
G36*
X20700D02*
X19780D01*
X19804Y69022D01*
X19943Y68760D01*
X20131Y68531D01*
X20360Y68343D01*
X20622Y68204D01*
X20700Y68180D01*
Y69100D01*
D02*
G37*
G36*
X18960D02*
X18040D01*
Y68180D01*
X18118Y68204D01*
X18380Y68343D01*
X18609Y68531D01*
X18797Y68760D01*
X18936Y69022D01*
X18960Y69100D01*
D02*
G37*
G36*
X17040D02*
X16120D01*
X16144Y69022D01*
X16283Y68760D01*
X16471Y68531D01*
X16700Y68343D01*
X16962Y68204D01*
X17040Y68180D01*
Y69100D01*
D02*
G37*
G36*
X6900Y68958D02*
X6557Y68925D01*
X6227Y68825D01*
X5923Y68662D01*
X5657Y68443D01*
X5438Y68177D01*
X5275Y67873D01*
X5175Y67543D01*
X5142Y67200D01*
X5175Y66857D01*
X5275Y66527D01*
X5438Y66223D01*
X5657Y65957D01*
X5923Y65738D01*
X6227Y65575D01*
X6557Y65475D01*
X6900Y65442D01*
X7243Y65475D01*
X7573Y65575D01*
X7877Y65738D01*
X8143Y65957D01*
X8362Y66223D01*
X8525Y66527D01*
X8625Y66857D01*
X8658Y67200D01*
X8625Y67543D01*
X8525Y67873D01*
X8362Y68177D01*
X8143Y68443D01*
X7877Y68662D01*
X7573Y68825D01*
X7243Y68925D01*
X6900Y68958D01*
D02*
G37*
G36*
X9500Y61213D02*
Y60400D01*
X10313D01*
X10226Y60608D01*
X10001Y60901D01*
X9708Y61126D01*
X9500Y61213D01*
D02*
G37*
G36*
X8500D02*
X8292Y61126D01*
X7999Y60901D01*
X7774Y60608D01*
X7687Y60400D01*
X8500D01*
Y61213D01*
D02*
G37*
G36*
X6052Y61152D02*
X3548D01*
Y58648D01*
X6052D01*
Y61152D01*
D02*
G37*
G36*
X10313Y59400D02*
X9500D01*
Y58587D01*
X9708Y58674D01*
X10001Y58899D01*
X10226Y59192D01*
X10313Y59400D01*
D02*
G37*
G36*
X8500D02*
X7687D01*
X7774Y59192D01*
X7999Y58899D01*
X8292Y58674D01*
X8500Y58587D01*
Y59400D01*
D02*
G37*
G36*
X55600Y54069D02*
X55401Y54042D01*
X55216Y53966D01*
X55057Y53843D01*
X54934Y53684D01*
X54858Y53499D01*
X54831Y53300D01*
X54858Y53101D01*
X54934Y52916D01*
X55057Y52757D01*
X55216Y52634D01*
X55401Y52558D01*
X55600Y52531D01*
X55799Y52558D01*
X55984Y52634D01*
X56143Y52757D01*
X56266Y52916D01*
X56342Y53101D01*
X56369Y53300D01*
X56342Y53499D01*
X56266Y53684D01*
X56143Y53843D01*
X55984Y53966D01*
X55799Y54042D01*
X55600Y54069D01*
D02*
G37*
G36*
X74200Y49608D02*
X74044Y49577D01*
X73912Y49488D01*
X73823Y49356D01*
X73792Y49200D01*
X73823Y49044D01*
X73912Y48912D01*
X74044Y48823D01*
X74200Y48792D01*
X74356Y48823D01*
X74488Y48912D01*
X74577Y49044D01*
X74608Y49200D01*
X74577Y49356D01*
X74488Y49488D01*
X74356Y49577D01*
X74200Y49608D01*
D02*
G37*
G36*
X72400D02*
X72244Y49577D01*
X72112Y49488D01*
X72023Y49356D01*
X71992Y49200D01*
X72023Y49044D01*
X72112Y48912D01*
X72244Y48823D01*
X72400Y48792D01*
X72556Y48823D01*
X72688Y48912D01*
X72777Y49044D01*
X72808Y49200D01*
X72777Y49356D01*
X72688Y49488D01*
X72556Y49577D01*
X72400Y49608D01*
D02*
G37*
G36*
X70500Y49586D02*
Y48300D01*
X71786D01*
X71721Y48513D01*
X71549Y48835D01*
X71317Y49117D01*
X71035Y49349D01*
X70713Y49521D01*
X70500Y49586D01*
D02*
G37*
G36*
X69500D02*
X69287Y49521D01*
X68965Y49349D01*
X68683Y49117D01*
X68451Y48835D01*
X68279Y48513D01*
X68214Y48300D01*
X69500D01*
Y49586D01*
D02*
G37*
G36*
X73300Y48508D02*
X73144Y48477D01*
X73012Y48388D01*
X72923Y48256D01*
X72892Y48100D01*
X72923Y47944D01*
X73012Y47812D01*
X73144Y47723D01*
X73300Y47692D01*
X73456Y47723D01*
X73588Y47812D01*
X73677Y47944D01*
X73708Y48100D01*
X73677Y48256D01*
X73588Y48388D01*
X73456Y48477D01*
X73300Y48508D01*
D02*
G37*
G36*
X29830Y71071D02*
Y70151D01*
X30750D01*
X30726Y70229D01*
X30587Y70490D01*
X30399Y70719D01*
X30170Y70907D01*
X29908Y71047D01*
X29830Y71071D01*
D02*
G37*
G36*
X28830D02*
X28752Y71047D01*
X28490Y70907D01*
X28261Y70719D01*
X28073Y70490D01*
X27934Y70229D01*
X27910Y70151D01*
X28830D01*
Y71071D01*
D02*
G37*
G36*
X26170Y71020D02*
Y70100D01*
X27090D01*
X27066Y70178D01*
X26927Y70440D01*
X26739Y70669D01*
X26510Y70857D01*
X26248Y70996D01*
X26170Y71020D01*
D02*
G37*
G36*
X25170D02*
X25092Y70996D01*
X24830Y70857D01*
X24601Y70669D01*
X24413Y70440D01*
X24274Y70178D01*
X24250Y70100D01*
X25170D01*
Y71020D01*
D02*
G37*
G36*
X30750Y69151D02*
X29830D01*
Y68231D01*
X29908Y68255D01*
X30170Y68394D01*
X30399Y68582D01*
X30587Y68811D01*
X30726Y69072D01*
X30750Y69151D01*
D02*
G37*
G36*
X28830D02*
X27910D01*
X27934Y69072D01*
X28073Y68811D01*
X28261Y68582D01*
X28490Y68394D01*
X28752Y68255D01*
X28830Y68231D01*
Y69151D01*
D02*
G37*
G36*
X27090Y69100D02*
X26170D01*
Y68180D01*
X26248Y68204D01*
X26510Y68343D01*
X26739Y68531D01*
X26927Y68760D01*
X27066Y69022D01*
X27090Y69100D01*
D02*
G37*
G36*
X25170D02*
X24250D01*
X24274Y69022D01*
X24413Y68760D01*
X24601Y68531D01*
X24830Y68343D01*
X25092Y68204D01*
X25170Y68180D01*
Y69100D01*
D02*
G37*
G36*
X36900Y73011D02*
X36413Y72973D01*
X35939Y72859D01*
X35488Y72672D01*
X35071Y72417D01*
X34700Y72100D01*
X34383Y71729D01*
X34128Y71312D01*
X33941Y70861D01*
X33827Y70387D01*
X33789Y69900D01*
X33827Y69413D01*
X33941Y68939D01*
X34128Y68488D01*
X34383Y68071D01*
X34700Y67700D01*
X35071Y67383D01*
X35488Y67128D01*
X35939Y66941D01*
X36413Y66827D01*
X36900Y66789D01*
X37387Y66827D01*
X37861Y66941D01*
X38312Y67128D01*
X38729Y67383D01*
X39100Y67700D01*
X39417Y68071D01*
X39672Y68488D01*
X39859Y68939D01*
X39973Y69413D01*
X40011Y69900D01*
X39973Y70387D01*
X39859Y70861D01*
X39672Y71312D01*
X39417Y71729D01*
X39100Y72100D01*
X38729Y72417D01*
X38312Y72672D01*
X37861Y72859D01*
X37387Y72973D01*
X36900Y73011D01*
D02*
G37*
G36*
X74200Y53608D02*
X74044Y53577D01*
X73912Y53488D01*
X73823Y53356D01*
X73792Y53200D01*
X73823Y53044D01*
X73912Y52912D01*
X74044Y52823D01*
X74200Y52792D01*
X74356Y52823D01*
X74488Y52912D01*
X74577Y53044D01*
X74608Y53200D01*
X74577Y53356D01*
X74488Y53488D01*
X74356Y53577D01*
X74200Y53608D01*
D02*
G37*
G36*
X72200D02*
X72044Y53577D01*
X71912Y53488D01*
X71823Y53356D01*
X71792Y53200D01*
X71823Y53044D01*
X71912Y52912D01*
X72044Y52823D01*
X72200Y52792D01*
X72356Y52823D01*
X72488Y52912D01*
X72577Y53044D01*
X72608Y53200D01*
X72577Y53356D01*
X72488Y53488D01*
X72356Y53577D01*
X72200Y53608D01*
D02*
G37*
G36*
X70500Y53586D02*
Y52300D01*
X71786D01*
X71721Y52513D01*
X71549Y52835D01*
X71317Y53117D01*
X71035Y53349D01*
X70713Y53521D01*
X70500Y53586D01*
D02*
G37*
G36*
X74200Y52208D02*
X74044Y52177D01*
X73912Y52088D01*
X73823Y51956D01*
X73792Y51800D01*
X73823Y51644D01*
X73912Y51512D01*
X74044Y51423D01*
X74200Y51392D01*
X74356Y51423D01*
X74488Y51512D01*
X74577Y51644D01*
X74608Y51800D01*
X74577Y51956D01*
X74488Y52088D01*
X74356Y52177D01*
X74200Y52208D01*
D02*
G37*
G36*
X72473Y52119D02*
X72317Y52088D01*
X72185Y52000D01*
X72148Y51946D01*
X72148Y51946D01*
X72096Y51867D01*
X72083Y51800D01*
X72083Y51800D01*
X72083Y51800D01*
X72083Y51800D01*
X72065Y51711D01*
X72096Y51555D01*
X72185Y51423D01*
X72317Y51335D01*
X72473Y51304D01*
X72629Y51335D01*
X72761Y51423D01*
X72850Y51555D01*
X72881Y51711D01*
X72850Y51867D01*
X72761Y52000D01*
X72629Y52088D01*
X72473Y52119D01*
D02*
G37*
G36*
X41400Y55908D02*
X41244Y55877D01*
X41112Y55788D01*
X41023Y55656D01*
X40992Y55500D01*
X41023Y55344D01*
X41112Y55212D01*
X41244Y55123D01*
X41400Y55092D01*
X41556Y55123D01*
X41688Y55212D01*
X41777Y55344D01*
X41808Y55500D01*
X41777Y55656D01*
X41688Y55788D01*
X41556Y55877D01*
X41400Y55908D01*
D02*
G37*
G36*
X66500Y63983D02*
X66172Y63951D01*
X65856Y63855D01*
X65565Y63699D01*
X65310Y63490D01*
X65101Y63235D01*
X64945Y62944D01*
X64849Y62628D01*
X64817Y62300D01*
X64849Y61972D01*
X64945Y61656D01*
X65101Y61365D01*
X65310Y61110D01*
X65565Y60901D01*
X65856Y60745D01*
X66172Y60649D01*
X66500Y60617D01*
X66828Y60649D01*
X67144Y60745D01*
X67435Y60901D01*
X67690Y61110D01*
X67899Y61365D01*
X68055Y61656D01*
X68151Y61972D01*
X68183Y62300D01*
X68151Y62628D01*
X68055Y62944D01*
X67899Y63235D01*
X67690Y63490D01*
X67435Y63699D01*
X67144Y63855D01*
X66828Y63951D01*
X66500Y63983D01*
D02*
G37*
G36*
X66500Y55586D02*
Y54300D01*
X67786D01*
X67721Y54513D01*
X67549Y54835D01*
X67317Y55117D01*
X67035Y55349D01*
X66713Y55521D01*
X66500Y55586D01*
D02*
G37*
G36*
X65500D02*
X65287Y55521D01*
X64965Y55349D01*
X64683Y55117D01*
X64451Y54835D01*
X64279Y54513D01*
X64214Y54300D01*
X65500D01*
Y55586D01*
D02*
G37*
G36*
X62000Y57510D02*
X61666Y57477D01*
X61346Y57380D01*
X61050Y57222D01*
X60791Y57009D01*
X60578Y56750D01*
X60420Y56454D01*
X60323Y56134D01*
X60290Y55800D01*
X60323Y55466D01*
X60420Y55146D01*
X60578Y54850D01*
X60791Y54591D01*
X61050Y54378D01*
X61346Y54220D01*
X61666Y54123D01*
X62000Y54090D01*
X62334Y54123D01*
X62654Y54220D01*
X62950Y54378D01*
X63209Y54591D01*
X63422Y54850D01*
X63580Y55146D01*
X63677Y55466D01*
X63710Y55800D01*
X63677Y56134D01*
X63580Y56454D01*
X63422Y56750D01*
X63209Y57009D01*
X62950Y57222D01*
X62654Y57380D01*
X62334Y57477D01*
X62000Y57510D01*
D02*
G37*
G36*
X67786Y53300D02*
X66500D01*
Y52014D01*
X66713Y52079D01*
X67035Y52251D01*
X67317Y52483D01*
X67549Y52765D01*
X67721Y53087D01*
X67786Y53300D01*
D02*
G37*
G36*
X65500D02*
X64214D01*
X64279Y53087D01*
X64451Y52765D01*
X64683Y52483D01*
X64965Y52251D01*
X65287Y52079D01*
X65500Y52014D01*
Y53300D01*
D02*
G37*
G36*
X31800Y57208D02*
X31644Y57177D01*
X31512Y57088D01*
X31423Y56956D01*
X31392Y56800D01*
X31423Y56644D01*
X31512Y56512D01*
X31644Y56423D01*
X31800Y56392D01*
X31956Y56423D01*
X32088Y56512D01*
X32177Y56644D01*
X32208Y56800D01*
X32177Y56956D01*
X32088Y57088D01*
X31956Y57177D01*
X31800Y57208D01*
D02*
G37*
G36*
X30800Y55208D02*
X30644Y55177D01*
X30512Y55088D01*
X30423Y54956D01*
X30392Y54800D01*
X30423Y54644D01*
X30512Y54512D01*
X30644Y54423D01*
X30800Y54392D01*
X30956Y54423D01*
X31088Y54512D01*
X31177Y54644D01*
X31208Y54800D01*
X31177Y54956D01*
X31088Y55088D01*
X30956Y55177D01*
X30800Y55208D01*
D02*
G37*
G36*
X43500Y52108D02*
X43344Y52077D01*
X43212Y51988D01*
X43123Y51856D01*
X43092Y51700D01*
X43123Y51544D01*
X43212Y51412D01*
X43344Y51323D01*
X43500Y51292D01*
X43656Y51323D01*
X43788Y51412D01*
X43877Y51544D01*
X43908Y51700D01*
X43877Y51856D01*
X43788Y51988D01*
X43656Y52077D01*
X43500Y52108D01*
D02*
G37*
G36*
X34600Y51908D02*
X34444Y51877D01*
X34312Y51788D01*
X34223Y51656D01*
X34192Y51500D01*
X34223Y51344D01*
X34312Y51212D01*
X34444Y51123D01*
X34600Y51092D01*
X34756Y51123D01*
X34888Y51212D01*
X34977Y51344D01*
X35008Y51500D01*
X34977Y51656D01*
X34888Y51788D01*
X34756Y51877D01*
X34600Y51908D01*
D02*
G37*
G36*
X34700Y50908D02*
X34544Y50877D01*
X34412Y50788D01*
X34323Y50656D01*
X34292Y50500D01*
X34323Y50344D01*
X34412Y50212D01*
X34544Y50123D01*
X34700Y50092D01*
X34856Y50123D01*
X34988Y50212D01*
X35077Y50344D01*
X35108Y50500D01*
X35077Y50656D01*
X34988Y50788D01*
X34856Y50877D01*
X34700Y50908D01*
D02*
G37*
G36*
X30900Y50108D02*
X30744Y50077D01*
X30612Y49988D01*
X30523Y49856D01*
X30492Y49700D01*
X30523Y49544D01*
X30612Y49412D01*
X30744Y49323D01*
X30900Y49292D01*
X31056Y49323D01*
X31188Y49412D01*
X31277Y49544D01*
X31308Y49700D01*
X31277Y49856D01*
X31188Y49988D01*
X31056Y50077D01*
X30900Y50108D01*
D02*
G37*
G36*
X34845Y48510D02*
X34650Y48471D01*
X34484Y48360D01*
X34374Y48195D01*
X34335Y48000D01*
X34374Y47805D01*
X34484Y47640D01*
X34650Y47529D01*
X34845Y47490D01*
X35040Y47529D01*
X35205Y47640D01*
X35316Y47805D01*
X35355Y48000D01*
X35316Y48195D01*
X35205Y48360D01*
X35040Y48471D01*
X34845Y48510D01*
D02*
G37*
G36*
X70500Y45586D02*
Y44300D01*
X71786D01*
X71721Y44513D01*
X71549Y44835D01*
X71317Y45117D01*
X71035Y45349D01*
X70713Y45521D01*
X70500Y45586D01*
D02*
G37*
G36*
X69500D02*
X69287Y45521D01*
X68965Y45349D01*
X68683Y45117D01*
X68451Y44835D01*
X68279Y44513D01*
X68214Y44300D01*
X69500D01*
Y45586D01*
D02*
G37*
G36*
X62000Y45510D02*
X61666Y45477D01*
X61346Y45380D01*
X61050Y45222D01*
X60791Y45009D01*
X60578Y44750D01*
X60420Y44454D01*
X60323Y44134D01*
X60290Y43800D01*
X60323Y43466D01*
X60420Y43146D01*
X60578Y42850D01*
X60791Y42591D01*
X61050Y42378D01*
X61346Y42220D01*
X61666Y42123D01*
X62000Y42090D01*
X62334Y42123D01*
X62654Y42220D01*
X62950Y42378D01*
X63209Y42591D01*
X63422Y42850D01*
X63580Y43146D01*
X63677Y43466D01*
X63710Y43800D01*
X63677Y44134D01*
X63580Y44454D01*
X63422Y44750D01*
X63209Y45009D01*
X62950Y45222D01*
X62654Y45380D01*
X62334Y45477D01*
X62000Y45510D01*
D02*
G37*
G36*
X37900Y37069D02*
X37701Y37042D01*
X37516Y36966D01*
X37357Y36843D01*
X37234Y36684D01*
X37158Y36499D01*
X37131Y36300D01*
X37158Y36101D01*
X37234Y35916D01*
X37357Y35757D01*
X37516Y35634D01*
X37701Y35558D01*
X37900Y35531D01*
X38099Y35558D01*
X38284Y35634D01*
X38443Y35757D01*
X38566Y35916D01*
X38642Y36101D01*
X38669Y36300D01*
X38642Y36499D01*
X38566Y36684D01*
X38443Y36843D01*
X38284Y36966D01*
X38099Y37042D01*
X37900Y37069D01*
D02*
G37*
G36*
X48400Y36469D02*
X48201Y36442D01*
X48016Y36366D01*
X47857Y36243D01*
X47734Y36084D01*
X47658Y35899D01*
X47631Y35700D01*
X47658Y35501D01*
X47734Y35316D01*
X47857Y35157D01*
X48016Y35034D01*
X48201Y34958D01*
X48400Y34931D01*
X48599Y34958D01*
X48784Y35034D01*
X48943Y35157D01*
X49066Y35316D01*
X49142Y35501D01*
X49169Y35700D01*
X49142Y35899D01*
X49066Y36084D01*
X48943Y36243D01*
X48784Y36366D01*
X48599Y36442D01*
X48400Y36469D01*
D02*
G37*
G36*
X21700Y36069D02*
X21501Y36042D01*
X21316Y35966D01*
X21157Y35843D01*
X21034Y35684D01*
X20958Y35499D01*
X20931Y35300D01*
X20958Y35101D01*
X21034Y34916D01*
X21157Y34757D01*
X21316Y34634D01*
X21501Y34558D01*
X21700Y34531D01*
X21899Y34558D01*
X22084Y34634D01*
X22243Y34757D01*
X22366Y34916D01*
X22442Y35101D01*
X22469Y35300D01*
X22442Y35499D01*
X22366Y35684D01*
X22243Y35843D01*
X22084Y35966D01*
X21899Y36042D01*
X21700Y36069D01*
D02*
G37*
G36*
X38200Y35008D02*
X38044Y34977D01*
X37912Y34888D01*
X37823Y34756D01*
X37792Y34600D01*
X37823Y34444D01*
X37912Y34312D01*
X38044Y34223D01*
X38200Y34192D01*
X38356Y34223D01*
X38488Y34312D01*
X38577Y34444D01*
X38608Y34600D01*
X38577Y34756D01*
X38488Y34888D01*
X38356Y34977D01*
X38200Y35008D01*
D02*
G37*
G36*
X31100Y34508D02*
X30944Y34477D01*
X30812Y34388D01*
X30723Y34256D01*
X30692Y34100D01*
X30723Y33944D01*
X30812Y33812D01*
X30944Y33723D01*
X31100Y33692D01*
X31256Y33723D01*
X31388Y33812D01*
X31477Y33944D01*
X31508Y34100D01*
X31477Y34256D01*
X31388Y34388D01*
X31256Y34477D01*
X31100Y34508D01*
D02*
G37*
G36*
X49600Y34669D02*
X49401Y34642D01*
X49216Y34566D01*
X49057Y34443D01*
X48934Y34284D01*
X48858Y34099D01*
X48831Y33900D01*
X48858Y33701D01*
X48934Y33516D01*
X49057Y33357D01*
X49216Y33234D01*
X49401Y33158D01*
X49600Y33131D01*
X49799Y33158D01*
X49984Y33234D01*
X50143Y33357D01*
X50266Y33516D01*
X50342Y33701D01*
X50369Y33900D01*
X50342Y34099D01*
X50266Y34284D01*
X50143Y34443D01*
X49984Y34566D01*
X49799Y34642D01*
X49600Y34669D01*
D02*
G37*
G36*
X37100Y34569D02*
X36901Y34542D01*
X36716Y34466D01*
X36557Y34343D01*
X36434Y34184D01*
X36358Y33999D01*
X36331Y33800D01*
X36358Y33601D01*
X36434Y33416D01*
X36557Y33257D01*
X36716Y33134D01*
X36901Y33058D01*
X37100Y33031D01*
X37299Y33058D01*
X37484Y33134D01*
X37643Y33257D01*
X37766Y33416D01*
X37842Y33601D01*
X37869Y33800D01*
X37842Y33999D01*
X37766Y34184D01*
X37643Y34343D01*
X37484Y34466D01*
X37299Y34542D01*
X37100Y34569D01*
D02*
G37*
G36*
X62000Y29510D02*
X61666Y29477D01*
X61346Y29380D01*
X61050Y29222D01*
X60791Y29009D01*
X60578Y28750D01*
X60420Y28454D01*
X60323Y28134D01*
X60290Y27800D01*
X60323Y27466D01*
X60420Y27146D01*
X60578Y26850D01*
X60791Y26591D01*
X61050Y26378D01*
X61346Y26220D01*
X61666Y26123D01*
X62000Y26090D01*
X62334Y26123D01*
X62654Y26220D01*
X62950Y26378D01*
X63209Y26591D01*
X63422Y26850D01*
X63580Y27146D01*
X63677Y27466D01*
X63710Y27800D01*
X63677Y28134D01*
X63580Y28454D01*
X63422Y28750D01*
X63209Y29009D01*
X62950Y29222D01*
X62654Y29380D01*
X62334Y29477D01*
X62000Y29510D01*
D02*
G37*
G36*
X69500Y27300D02*
X68214D01*
X68279Y27087D01*
X68451Y26765D01*
X68683Y26483D01*
X68965Y26251D01*
X69287Y26079D01*
X69500Y26014D01*
Y27300D01*
D02*
G37*
G36*
X53600Y46263D02*
X53405Y46224D01*
X53240Y46114D01*
X53129Y45948D01*
X53090Y45753D01*
X53129Y45558D01*
X53240Y45393D01*
X53405Y45282D01*
X53600Y45243D01*
X53795Y45282D01*
X53960Y45393D01*
X54071Y45558D01*
X54110Y45753D01*
X54071Y45948D01*
X53960Y46114D01*
X53795Y46224D01*
X53600Y46263D01*
D02*
G37*
G36*
X56400Y44269D02*
X56201Y44242D01*
X56016Y44166D01*
X55857Y44043D01*
X55734Y43884D01*
X55658Y43699D01*
X55631Y43500D01*
X55658Y43301D01*
X55734Y43116D01*
X55857Y42957D01*
X56016Y42834D01*
X56201Y42758D01*
X56400Y42731D01*
X56599Y42758D01*
X56784Y42834D01*
X56943Y42957D01*
X57066Y43116D01*
X57142Y43301D01*
X57169Y43500D01*
X57142Y43699D01*
X57066Y43884D01*
X56943Y44043D01*
X56784Y44166D01*
X56599Y44242D01*
X56400Y44269D01*
D02*
G37*
G36*
X50400Y43769D02*
X50201Y43742D01*
X50016Y43666D01*
X49857Y43543D01*
X49734Y43384D01*
X49658Y43199D01*
X49631Y43000D01*
X49658Y42801D01*
X49734Y42616D01*
X49857Y42457D01*
X50016Y42334D01*
X50201Y42258D01*
X50400Y42231D01*
X50599Y42258D01*
X50784Y42334D01*
X50943Y42457D01*
X51066Y42616D01*
X51142Y42801D01*
X51169Y43000D01*
X51142Y43199D01*
X51066Y43384D01*
X50943Y43543D01*
X50784Y43666D01*
X50599Y43742D01*
X50400Y43769D01*
D02*
G37*
G36*
X55300Y42769D02*
X55101Y42742D01*
X54916Y42666D01*
X54757Y42543D01*
X54634Y42384D01*
X54558Y42199D01*
X54531Y42000D01*
X54558Y41801D01*
X54634Y41616D01*
X54757Y41457D01*
X54916Y41334D01*
X55101Y41258D01*
X55300Y41231D01*
X55499Y41258D01*
X55684Y41334D01*
X55843Y41457D01*
X55966Y41616D01*
X56042Y41801D01*
X56069Y42000D01*
X56042Y42199D01*
X55966Y42384D01*
X55843Y42543D01*
X55684Y42666D01*
X55499Y42742D01*
X55300Y42769D01*
D02*
G37*
G36*
X51800Y42669D02*
X51601Y42642D01*
X51416Y42566D01*
X51257Y42443D01*
X51134Y42284D01*
X51058Y42099D01*
X51031Y41900D01*
X51058Y41701D01*
X51134Y41516D01*
X51257Y41357D01*
X51416Y41234D01*
X51601Y41158D01*
X51800Y41131D01*
X51999Y41158D01*
X52184Y41234D01*
X52343Y41357D01*
X52466Y41516D01*
X52542Y41701D01*
X52569Y41900D01*
X52542Y42099D01*
X52466Y42284D01*
X52343Y42443D01*
X52184Y42566D01*
X51999Y42642D01*
X51800Y42669D01*
D02*
G37*
G36*
X70500Y41586D02*
Y40300D01*
X71786D01*
X71721Y40513D01*
X71549Y40835D01*
X71317Y41117D01*
X71035Y41349D01*
X70713Y41521D01*
X70500Y41586D01*
D02*
G37*
G36*
X69500D02*
X69287Y41521D01*
X68965Y41349D01*
X68683Y41117D01*
X68451Y40835D01*
X68279Y40513D01*
X68214Y40300D01*
X69500D01*
Y41586D01*
D02*
G37*
G36*
X55700Y40769D02*
X55501Y40742D01*
X55316Y40666D01*
X55157Y40543D01*
X55034Y40384D01*
X54958Y40199D01*
X54931Y40000D01*
X54958Y39801D01*
X55034Y39616D01*
X55157Y39457D01*
X55316Y39334D01*
X55501Y39258D01*
X55700Y39231D01*
X55899Y39258D01*
X56084Y39334D01*
X56243Y39457D01*
X56366Y39616D01*
X56442Y39801D01*
X56469Y40000D01*
X56442Y40199D01*
X56366Y40384D01*
X56243Y40543D01*
X56084Y40666D01*
X55899Y40742D01*
X55700Y40769D01*
D02*
G37*
G36*
X62000Y41510D02*
X61666Y41477D01*
X61346Y41380D01*
X61050Y41222D01*
X60791Y41009D01*
X60578Y40750D01*
X60420Y40454D01*
X60323Y40134D01*
X60290Y39800D01*
X60323Y39466D01*
X60420Y39146D01*
X60578Y38850D01*
X60791Y38591D01*
X61050Y38378D01*
X61346Y38220D01*
X61666Y38123D01*
X62000Y38090D01*
X62334Y38123D01*
X62654Y38220D01*
X62950Y38378D01*
X63209Y38591D01*
X63422Y38850D01*
X63580Y39146D01*
X63677Y39466D01*
X63710Y39800D01*
X63677Y40134D01*
X63580Y40454D01*
X63422Y40750D01*
X63209Y41009D01*
X62950Y41222D01*
X62654Y41380D01*
X62334Y41477D01*
X62000Y41510D01*
D02*
G37*
G36*
X71786Y39300D02*
X70500D01*
Y38014D01*
X70713Y38079D01*
X71035Y38251D01*
X71317Y38483D01*
X71549Y38765D01*
X71721Y39087D01*
X71786Y39300D01*
D02*
G37*
G36*
X69500D02*
X68214D01*
X68279Y39087D01*
X68451Y38765D01*
X68683Y38483D01*
X68965Y38251D01*
X69287Y38079D01*
X69500Y38014D01*
Y39300D01*
D02*
G37*
G36*
X54800Y38669D02*
X54601Y38642D01*
X54416Y38566D01*
X54257Y38443D01*
X54134Y38284D01*
X54058Y38099D01*
X54031Y37900D01*
X54058Y37701D01*
X54134Y37516D01*
X54257Y37357D01*
X54416Y37234D01*
X54601Y37158D01*
X54800Y37131D01*
X54999Y37158D01*
X55184Y37234D01*
X55343Y37357D01*
X55466Y37516D01*
X55542Y37701D01*
X55569Y37900D01*
X55542Y38099D01*
X55466Y38284D01*
X55343Y38443D01*
X55184Y38566D01*
X54999Y38642D01*
X54800Y38669D01*
D02*
G37*
G36*
X70500Y37586D02*
Y36300D01*
X71786D01*
X71721Y36513D01*
X71549Y36835D01*
X71317Y37117D01*
X71035Y37349D01*
X70713Y37521D01*
X70500Y37586D01*
D02*
G37*
G36*
X69500D02*
X69287Y37521D01*
X68965Y37349D01*
X68683Y37117D01*
X68451Y36835D01*
X68279Y36513D01*
X68214Y36300D01*
X69500D01*
Y37586D01*
D02*
G37*
G36*
X66000Y39510D02*
X65666Y39477D01*
X65346Y39380D01*
X65050Y39222D01*
X64791Y39009D01*
X64578Y38750D01*
X64420Y38454D01*
X64323Y38134D01*
X64290Y37800D01*
X64323Y37466D01*
X64420Y37146D01*
X64578Y36850D01*
X64791Y36591D01*
X65050Y36378D01*
X65346Y36220D01*
X65666Y36123D01*
X66000Y36090D01*
X66334Y36123D01*
X66654Y36220D01*
X66950Y36378D01*
X67209Y36591D01*
X67422Y36850D01*
X67580Y37146D01*
X67677Y37466D01*
X67710Y37800D01*
X67677Y38134D01*
X67580Y38454D01*
X67422Y38750D01*
X67209Y39009D01*
X66950Y39222D01*
X66654Y39380D01*
X66334Y39477D01*
X66000Y39510D01*
D02*
G37*
G36*
X62000Y37510D02*
X61666Y37477D01*
X61346Y37380D01*
X61050Y37222D01*
X60791Y37009D01*
X60578Y36750D01*
X60420Y36454D01*
X60323Y36134D01*
X60290Y35800D01*
X60323Y35466D01*
X60420Y35146D01*
X60578Y34850D01*
X60791Y34591D01*
X61050Y34378D01*
X61346Y34220D01*
X61666Y34123D01*
X62000Y34090D01*
X62334Y34123D01*
X62654Y34220D01*
X62950Y34378D01*
X63209Y34591D01*
X63422Y34850D01*
X63580Y35146D01*
X63677Y35466D01*
X63710Y35800D01*
X63677Y36134D01*
X63580Y36454D01*
X63422Y36750D01*
X63209Y37009D01*
X62950Y37222D01*
X62654Y37380D01*
X62334Y37477D01*
X62000Y37510D01*
D02*
G37*
G36*
X71786Y35300D02*
X70500D01*
Y34014D01*
X70713Y34079D01*
X71035Y34251D01*
X71317Y34483D01*
X71549Y34765D01*
X71721Y35087D01*
X71786Y35300D01*
D02*
G37*
G36*
X69500D02*
X68214D01*
X68279Y35087D01*
X68451Y34765D01*
X68683Y34483D01*
X68965Y34251D01*
X69287Y34079D01*
X69500Y34014D01*
Y35300D01*
D02*
G37*
G36*
X70500Y33586D02*
Y32300D01*
X71786D01*
X71721Y32513D01*
X71549Y32835D01*
X71317Y33117D01*
X71035Y33349D01*
X70713Y33521D01*
X70500Y33586D01*
D02*
G37*
G36*
X66000Y35510D02*
X65666Y35477D01*
X65346Y35380D01*
X65050Y35222D01*
X64791Y35009D01*
X64578Y34750D01*
X64420Y34454D01*
X64323Y34134D01*
X64290Y33800D01*
X64323Y33466D01*
X64420Y33146D01*
X64578Y32850D01*
X64791Y32591D01*
X65050Y32378D01*
X65346Y32220D01*
X65666Y32123D01*
X66000Y32090D01*
X66334Y32123D01*
X66654Y32220D01*
X66950Y32378D01*
X67209Y32591D01*
X67422Y32850D01*
X67580Y33146D01*
X67677Y33466D01*
X67710Y33800D01*
X67677Y34134D01*
X67580Y34454D01*
X67422Y34750D01*
X67209Y35009D01*
X66950Y35222D01*
X66654Y35380D01*
X66334Y35477D01*
X66000Y35510D01*
D02*
G37*
G36*
X44827Y26391D02*
Y25927D01*
X45291D01*
X45269Y26036D01*
X45135Y26235D01*
X44936Y26369D01*
X44827Y26391D01*
D02*
G37*
G36*
X44573D02*
X44464Y26369D01*
X44265Y26235D01*
X44131Y26036D01*
X44109Y25927D01*
X44573D01*
Y26391D01*
D02*
G37*
G36*
X45291Y25673D02*
X44827D01*
Y25209D01*
X44936Y25231D01*
X45135Y25365D01*
X45269Y25564D01*
X45291Y25673D01*
D02*
G37*
G36*
X44573D02*
X44109D01*
X44131Y25564D01*
X44265Y25365D01*
X44464Y25231D01*
X44573Y25209D01*
Y25673D01*
D02*
G37*
G36*
X52727Y24791D02*
Y24327D01*
X53191D01*
X53169Y24436D01*
X53035Y24635D01*
X52836Y24769D01*
X52727Y24791D01*
D02*
G37*
G36*
X52473D02*
X52364Y24769D01*
X52165Y24635D01*
X52031Y24436D01*
X52009Y24327D01*
X52473D01*
Y24791D01*
D02*
G37*
G36*
X53191Y24073D02*
X52727D01*
Y23609D01*
X52836Y23631D01*
X53035Y23765D01*
X53169Y23964D01*
X53191Y24073D01*
D02*
G37*
G36*
X52473D02*
X52009D01*
X52031Y23964D01*
X52165Y23765D01*
X52364Y23631D01*
X52473Y23609D01*
Y24073D01*
D02*
G37*
G36*
X52827Y21691D02*
Y21227D01*
X53291D01*
X53269Y21336D01*
X53135Y21535D01*
X52936Y21669D01*
X52827Y21691D01*
D02*
G37*
G36*
X52573D02*
X52464Y21669D01*
X52265Y21535D01*
X52131Y21336D01*
X52109Y21227D01*
X52573D01*
Y21691D01*
D02*
G37*
G36*
X53291Y20973D02*
X52827D01*
Y20509D01*
X52936Y20531D01*
X53135Y20665D01*
X53269Y20864D01*
X53291Y20973D01*
D02*
G37*
G36*
X52573D02*
X52109D01*
X52131Y20864D01*
X52265Y20665D01*
X52464Y20531D01*
X52573Y20509D01*
Y20973D01*
D02*
G37*
G36*
X48727Y8891D02*
Y8427D01*
X49191D01*
X49169Y8536D01*
X49035Y8735D01*
X48836Y8869D01*
X48727Y8891D01*
D02*
G37*
G36*
X48473D02*
X48364Y8869D01*
X48165Y8735D01*
X48031Y8536D01*
X48009Y8427D01*
X48473D01*
Y8891D01*
D02*
G37*
G36*
X49191Y8173D02*
X48727D01*
Y7709D01*
X48836Y7731D01*
X49035Y7865D01*
X49169Y8064D01*
X49191Y8173D01*
D02*
G37*
G36*
X48473D02*
X48009D01*
X48031Y8064D01*
X48165Y7865D01*
X48364Y7731D01*
X48473Y7709D01*
Y8173D01*
D02*
G37*
G36*
X57900Y8033D02*
X57700D01*
X57611Y8015D01*
X57535Y7965D01*
X57485Y7889D01*
X57467Y7800D01*
X57485Y7711D01*
X57535Y7635D01*
X57611Y7585D01*
X57700Y7567D01*
X57900D01*
X57989Y7585D01*
X58065Y7635D01*
X58115Y7711D01*
X58133Y7800D01*
X58115Y7889D01*
X58065Y7965D01*
X57989Y8015D01*
X57900Y8033D01*
D02*
G37*
G36*
X35800Y8969D02*
X35601Y8942D01*
X35416Y8866D01*
X35257Y8743D01*
X35134Y8584D01*
X35058Y8399D01*
X35031Y8200D01*
X35058Y8001D01*
X35134Y7816D01*
X35257Y7657D01*
X35416Y7534D01*
X35601Y7458D01*
X35800Y7431D01*
X35999Y7458D01*
X36184Y7534D01*
X36343Y7657D01*
X36466Y7816D01*
X36542Y8001D01*
X36569Y8200D01*
X36542Y8399D01*
X36466Y8584D01*
X36343Y8743D01*
X36184Y8866D01*
X35999Y8942D01*
X35800Y8969D01*
D02*
G37*
G36*
X34600Y21210D02*
X34405Y21171D01*
X34240Y21060D01*
X34129Y20895D01*
X34090Y20700D01*
X34129Y20505D01*
X34240Y20340D01*
X34405Y20229D01*
X34600Y20190D01*
X34795Y20229D01*
X34960Y20340D01*
X35071Y20505D01*
X35110Y20700D01*
X35071Y20895D01*
X34960Y21060D01*
X34795Y21171D01*
X34600Y21210D01*
D02*
G37*
G36*
X28400Y19510D02*
X28205Y19471D01*
X28040Y19360D01*
X27929Y19195D01*
X27890Y19000D01*
X27929Y18805D01*
X28040Y18640D01*
X28205Y18529D01*
X28400Y18490D01*
X28595Y18529D01*
X28760Y18640D01*
X28871Y18805D01*
X28910Y19000D01*
X28871Y19195D01*
X28760Y19360D01*
X28595Y19471D01*
X28400Y19510D01*
D02*
G37*
G36*
X30300Y17510D02*
X30105Y17471D01*
X29940Y17360D01*
X29829Y17195D01*
X29790Y17000D01*
X29829Y16805D01*
X29940Y16640D01*
X30105Y16529D01*
X30300Y16490D01*
X30495Y16529D01*
X30660Y16640D01*
X30771Y16805D01*
X30810Y17000D01*
X30771Y17195D01*
X30660Y17360D01*
X30495Y17471D01*
X30300Y17510D01*
D02*
G37*
G36*
X28873Y14410D02*
X28678Y14371D01*
X28513Y14260D01*
X28402Y14095D01*
X28363Y13900D01*
X28402Y13705D01*
X28513Y13540D01*
X28678Y13429D01*
X28873Y13390D01*
X29068Y13429D01*
X29233Y13540D01*
X29344Y13705D01*
X29383Y13900D01*
X29344Y14095D01*
X29233Y14260D01*
X29068Y14371D01*
X28873Y14410D01*
D02*
G37*
G36*
X32400Y14010D02*
X32205Y13971D01*
X32040Y13860D01*
X31929Y13695D01*
X31890Y13500D01*
X31929Y13305D01*
X32040Y13140D01*
X32205Y13029D01*
X32400Y12990D01*
X32595Y13029D01*
X32760Y13140D01*
X32871Y13305D01*
X32910Y13500D01*
X32871Y13695D01*
X32760Y13860D01*
X32595Y13971D01*
X32400Y14010D01*
D02*
G37*
G36*
X27700D02*
X27505Y13971D01*
X27340Y13860D01*
X27229Y13695D01*
X27190Y13500D01*
X27229Y13305D01*
X27340Y13140D01*
X27505Y13029D01*
X27700Y12990D01*
X27895Y13029D01*
X28060Y13140D01*
X28171Y13305D01*
X28210Y13500D01*
X28171Y13695D01*
X28060Y13860D01*
X27895Y13971D01*
X27700Y14010D01*
D02*
G37*
G36*
X21900Y19669D02*
X21701Y19642D01*
X21516Y19566D01*
X21357Y19443D01*
X21234Y19284D01*
X21158Y19099D01*
X21131Y18900D01*
X21158Y18701D01*
X21234Y18516D01*
X21357Y18357D01*
X21516Y18234D01*
X21701Y18158D01*
X21900Y18131D01*
X22099Y18158D01*
X22125Y18168D01*
X26142Y14152D01*
Y13762D01*
X26140Y13760D01*
X26029Y13595D01*
X25990Y13400D01*
X26029Y13205D01*
X26140Y13040D01*
X26305Y12929D01*
X26500Y12890D01*
X26695Y12929D01*
X26860Y13040D01*
X26971Y13205D01*
X27010Y13400D01*
X26971Y13595D01*
X26860Y13760D01*
X26858Y13762D01*
Y14300D01*
X26831Y14437D01*
X26753Y14553D01*
X22632Y18675D01*
X22642Y18701D01*
X22669Y18900D01*
X22642Y19099D01*
X22566Y19284D01*
X22443Y19443D01*
X22284Y19566D01*
X22099Y19642D01*
X21900Y19669D01*
D02*
G37*
G36*
X50127Y21391D02*
Y20927D01*
X50591D01*
X50569Y21036D01*
X50435Y21235D01*
X50236Y21369D01*
X50127Y21391D01*
D02*
G37*
G36*
X49873D02*
X49764Y21369D01*
X49565Y21235D01*
X49431Y21036D01*
X49409Y20927D01*
X49873D01*
Y21391D01*
D02*
G37*
G36*
X50591Y20673D02*
X50127D01*
Y20209D01*
X50236Y20231D01*
X50435Y20365D01*
X50569Y20564D01*
X50591Y20673D01*
D02*
G37*
G36*
X49873D02*
X49409D01*
X49431Y20564D01*
X49565Y20365D01*
X49764Y20231D01*
X49873Y20209D01*
Y20673D01*
D02*
G37*
G36*
X39200Y20333D02*
X39111Y20315D01*
X39035Y20265D01*
X38935Y20165D01*
X38885Y20089D01*
X38867Y20000D01*
X38885Y19911D01*
X38935Y19835D01*
X39011Y19785D01*
X39100Y19767D01*
X39189Y19785D01*
X39265Y19835D01*
X39365Y19935D01*
X39415Y20011D01*
X39433Y20100D01*
X39415Y20189D01*
X39365Y20265D01*
X39289Y20315D01*
X39200Y20333D01*
D02*
G37*
G36*
X47900Y19510D02*
X47705Y19471D01*
X47540Y19360D01*
X47429Y19195D01*
X47390Y19000D01*
X47429Y18805D01*
X47540Y18640D01*
X47705Y18529D01*
X47900Y18490D01*
X48095Y18529D01*
X48260Y18640D01*
X48371Y18805D01*
X48410Y19000D01*
X48371Y19195D01*
X48260Y19360D01*
X48095Y19471D01*
X47900Y19510D01*
D02*
G37*
G36*
X36500Y19410D02*
X36305Y19371D01*
X36140Y19260D01*
X36029Y19095D01*
X35990Y18900D01*
X36029Y18705D01*
X36140Y18540D01*
X36305Y18429D01*
X36500Y18390D01*
X36695Y18429D01*
X36860Y18540D01*
X36971Y18705D01*
X37010Y18900D01*
X36971Y19095D01*
X36860Y19260D01*
X36695Y19371D01*
X36500Y19410D01*
D02*
G37*
G36*
X52700Y8233D02*
X52611Y8215D01*
X52535Y8165D01*
X52485Y8089D01*
X52467Y8000D01*
Y7600D01*
X52485Y7511D01*
X52535Y7435D01*
X52611Y7385D01*
X52700Y7367D01*
X52789Y7385D01*
X52865Y7435D01*
X52915Y7511D01*
X52933Y7600D01*
Y8000D01*
X52915Y8089D01*
X52865Y8165D01*
X52789Y8215D01*
X52700Y8233D01*
D02*
G37*
G36*
X46364Y28091D02*
Y27627D01*
X46828D01*
X46806Y27736D01*
X46672Y27935D01*
X46473Y28069D01*
X46364Y28091D01*
D02*
G37*
G36*
X46110D02*
X46001Y28069D01*
X45802Y27935D01*
X45668Y27736D01*
X45646Y27627D01*
X46110D01*
Y28091D01*
D02*
G37*
G36*
X46727Y14191D02*
Y13727D01*
X47191D01*
X47169Y13836D01*
X47035Y14035D01*
X46836Y14169D01*
X46727Y14191D01*
D02*
G37*
G36*
X46473D02*
X46364Y14169D01*
X46165Y14035D01*
X46031Y13836D01*
X46009Y13727D01*
X46473D01*
Y14191D01*
D02*
G37*
G36*
X47191Y13473D02*
X46727D01*
Y13009D01*
X46836Y13031D01*
X47035Y13165D01*
X47169Y13364D01*
X47191Y13473D01*
D02*
G37*
G36*
X46473D02*
X46009D01*
X46031Y13364D01*
X46165Y13165D01*
X46364Y13031D01*
X46473Y13009D01*
Y13473D01*
D02*
G37*
G36*
X14900Y12633D02*
X14811Y12615D01*
X14735Y12565D01*
X14685Y12489D01*
X14667Y12400D01*
X14685Y12311D01*
X14735Y12235D01*
X14800Y12171D01*
X14875Y12120D01*
X14964Y12103D01*
X15054Y12120D01*
X15129Y12171D01*
X15180Y12246D01*
X15198Y12336D01*
X15180Y12425D01*
X15129Y12500D01*
X15065Y12565D01*
X14989Y12615D01*
X14900Y12633D01*
D02*
G37*
G36*
X68400Y7911D02*
X67913Y7873D01*
X67439Y7759D01*
X66988Y7572D01*
X66571Y7317D01*
X66200Y7000D01*
X65883Y6629D01*
X65628Y6212D01*
X65441Y5761D01*
X65327Y5287D01*
X65289Y4800D01*
X65327Y4313D01*
X65441Y3839D01*
X65628Y3388D01*
X65883Y2971D01*
X66200Y2600D01*
X66571Y2283D01*
X66988Y2028D01*
X67439Y1841D01*
X67913Y1727D01*
X68400Y1689D01*
X68887Y1727D01*
X69361Y1841D01*
X69812Y2028D01*
X70229Y2283D01*
X70600Y2600D01*
X70917Y2971D01*
X71172Y3388D01*
X71359Y3839D01*
X71473Y4313D01*
X71511Y4800D01*
X71473Y5287D01*
X71359Y5761D01*
X71172Y6212D01*
X70917Y6629D01*
X70600Y7000D01*
X70229Y7317D01*
X69812Y7572D01*
X69361Y7759D01*
X68887Y7873D01*
X68400Y7911D01*
D02*
G37*
G36*
X24800Y2569D02*
X24601Y2542D01*
X24416Y2466D01*
X24257Y2343D01*
X24134Y2184D01*
X24058Y1999D01*
X24031Y1800D01*
X24058Y1601D01*
X24134Y1416D01*
X24257Y1257D01*
X24416Y1134D01*
X24601Y1058D01*
X24800Y1031D01*
X24999Y1058D01*
X25184Y1134D01*
X25343Y1257D01*
X25466Y1416D01*
X25542Y1601D01*
X25569Y1800D01*
X25542Y1999D01*
X25466Y2184D01*
X25343Y2343D01*
X25184Y2466D01*
X24999Y2542D01*
X24800Y2569D01*
D02*
G37*
G36*
X21900D02*
X21701Y2542D01*
X21516Y2466D01*
X21357Y2343D01*
X21234Y2184D01*
X21158Y1999D01*
X21131Y1800D01*
X21158Y1601D01*
X21234Y1416D01*
X21357Y1257D01*
X21516Y1134D01*
X21701Y1058D01*
X21900Y1031D01*
X22099Y1058D01*
X22284Y1134D01*
X22443Y1257D01*
X22566Y1416D01*
X22642Y1601D01*
X22669Y1800D01*
X22642Y1999D01*
X22566Y2184D01*
X22443Y2343D01*
X22284Y2466D01*
X22099Y2542D01*
X21900Y2569D01*
D02*
G37*
G36*
X19100D02*
X18901Y2542D01*
X18716Y2466D01*
X18557Y2343D01*
X18434Y2184D01*
X18358Y1999D01*
X18331Y1800D01*
X18358Y1601D01*
X18434Y1416D01*
X18557Y1257D01*
X18716Y1134D01*
X18901Y1058D01*
X19100Y1031D01*
X19299Y1058D01*
X19484Y1134D01*
X19643Y1257D01*
X19766Y1416D01*
X19842Y1601D01*
X19869Y1800D01*
X19842Y1999D01*
X19766Y2184D01*
X19643Y2343D01*
X19484Y2466D01*
X19299Y2542D01*
X19100Y2569D01*
D02*
G37*
G36*
X12800Y1869D02*
X12601Y1842D01*
X12416Y1766D01*
X12257Y1643D01*
X12134Y1484D01*
X12058Y1299D01*
X12031Y1100D01*
X12058Y901D01*
X12134Y716D01*
X12257Y557D01*
X12416Y434D01*
X12601Y358D01*
X12800Y331D01*
X12999Y358D01*
X13184Y434D01*
X13343Y557D01*
X13466Y716D01*
X13542Y901D01*
X13569Y1100D01*
X13542Y1299D01*
X13466Y1484D01*
X13343Y1643D01*
X13184Y1766D01*
X12999Y1842D01*
X12800Y1869D01*
D02*
G37*
%LPD*%
D11*
X35400Y55200D02*
Y58200D01*
X36200Y55200D02*
Y57722D01*
X34700Y58900D02*
X35400Y58200D01*
X32900Y58800D02*
X32947Y58847D01*
X33119D01*
X33172Y58900D01*
X34700D01*
X52700Y7600D02*
Y8000D01*
X69100Y51800D02*
X69532Y52232D01*
X36200Y57722D02*
X37403Y58925D01*
X52600Y24200D02*
X52700Y24100D01*
X14900Y12400D02*
X14964Y12336D01*
X48600Y8300D02*
Y8300D01*
X57700Y7800D02*
X57900D01*
X39100Y20000D02*
X39200Y20100D01*
D16*
X53000Y13500D02*
Y18100D01*
X51300Y19800D02*
X53000Y18100D01*
X30300Y23400D02*
X30400Y23500D01*
X22100Y22200D02*
X23300Y23400D01*
X30300D01*
X26500Y13400D02*
Y14300D01*
X21900Y18900D02*
X26500Y14300D01*
D33*
X31300Y59000D02*
D03*
X33200Y52500D02*
D03*
X38148Y55824D02*
D03*
X37700Y56700D02*
D03*
X32900Y58800D02*
D03*
X37403Y58925D02*
D03*
X31300Y62700D02*
D03*
X45400Y48300D02*
D03*
X31300Y60300D02*
D03*
Y61500D02*
D03*
X37700Y60200D02*
D03*
X37573Y62627D02*
D03*
X37700Y61400D02*
D03*
D70*
X36600Y55200D02*
D03*
X36200Y54800D02*
D03*
X36600Y54400D02*
D03*
Y54800D02*
D03*
X36200Y53600D02*
D03*
X36600Y54000D02*
D03*
Y52800D02*
D03*
X36200Y55200D02*
D03*
X34600Y54400D02*
D03*
Y55200D02*
D03*
Y54800D02*
D03*
X35400Y54400D02*
D03*
Y54800D02*
D03*
Y55200D02*
D03*
Y54000D02*
D03*
Y53600D02*
D03*
X36200Y54000D02*
D03*
Y54400D02*
D03*
D73*
Y54800D02*
Y55200D01*
Y54400D02*
Y54800D01*
Y53600D02*
Y54000D01*
X35400Y54400D02*
Y54800D01*
Y54000D02*
Y54400D01*
Y54800D02*
Y55200D01*
Y53600D02*
Y54000D01*
X36200D02*
Y54400D01*
D74*
X37465Y50565D02*
Y51999D01*
X37453Y52011D02*
X37465Y51999D01*
X36900Y50000D02*
X37465Y50565D01*
X36900Y47800D02*
Y50000D01*
D75*
X36600Y52800D02*
X36664D01*
D79*
X9000Y59900D02*
D03*
D81*
X70000Y27800D02*
D03*
Y31800D02*
D03*
Y35800D02*
D03*
Y39800D02*
D03*
Y43800D02*
D03*
Y51800D02*
D03*
Y47800D02*
D03*
X66000Y53800D02*
D03*
D83*
X25670Y69600D02*
D03*
X29330Y69651D02*
D03*
X21200Y69600D02*
D03*
X17540D02*
D03*
D84*
X25500Y55600D02*
D03*
X27500Y55700D02*
D03*
X25200Y57600D02*
D03*
X27400D02*
D03*
X27600Y53700D02*
D03*
X25200D02*
D03*
X52700Y7600D02*
D03*
X30100Y8200D02*
D03*
X34736Y22836D02*
D03*
X62600Y4600D02*
D03*
X60800Y9300D02*
D03*
X62600Y7400D02*
D03*
X17700Y6900D02*
D03*
X17400Y12600D02*
D03*
X17700Y16000D02*
D03*
X5100Y32100D02*
D03*
X8500Y30900D02*
D03*
X11400Y31000D02*
D03*
Y28300D02*
D03*
X20800Y27100D02*
D03*
X18600D02*
D03*
Y24800D02*
D03*
X20700D02*
D03*
X30200Y3200D02*
D03*
X56800Y12600D02*
D03*
X31700Y10900D02*
D03*
X26100Y26900D02*
D03*
X39700Y37300D02*
D03*
X48100Y49700D02*
D03*
Y53100D02*
D03*
X41100Y48300D02*
D03*
X39300Y46800D02*
D03*
X47300D02*
D03*
X49400D02*
D03*
X51400D02*
D03*
X72900Y36000D02*
D03*
Y38500D02*
D03*
Y40600D02*
D03*
Y42600D02*
D03*
X46400Y61600D02*
D03*
X44000Y61900D02*
D03*
Y64000D02*
D03*
Y66000D02*
D03*
X46100Y66000D02*
D03*
X32700Y45800D02*
D03*
X53900Y49700D02*
D03*
X53300Y53100D02*
D03*
X20000Y36300D02*
D03*
X29200Y35400D02*
D03*
X48400Y37700D02*
D03*
X29500Y55700D02*
D03*
X57100Y61900D02*
D03*
X57500Y66200D02*
D03*
X54800D02*
D03*
X51900D02*
D03*
X49100D02*
D03*
X52800Y63700D02*
D03*
X55300D02*
D03*
X50600Y63600D02*
D03*
X50000Y17200D02*
D03*
X36700Y12600D02*
D03*
X53000Y13500D02*
D03*
X30600Y23500D02*
D03*
X22100Y22200D02*
D03*
X14900Y12400D02*
D03*
X57900Y7800D02*
D03*
X18000Y17900D02*
D03*
X46500Y20700D02*
D03*
X21900Y18900D02*
D03*
X25800Y20500D02*
D03*
X39200Y20100D02*
D03*
X8550Y28250D02*
D03*
X36500Y26900D02*
D03*
X19700Y22400D02*
D03*
D85*
X32000Y19000D02*
D03*
X43000Y13500D02*
D03*
X50000Y20800D02*
D03*
X52700Y21100D02*
D03*
X29850Y18050D02*
D03*
X44700Y25800D02*
D03*
X19700Y17400D02*
D03*
X21400Y16500D02*
D03*
X19700Y15900D02*
D03*
X17700Y8900D02*
D03*
Y10700D02*
D03*
X14300Y6800D02*
D03*
X15800Y18700D02*
D03*
X13800D02*
D03*
X36900Y47800D02*
D03*
X41200Y50400D02*
D03*
X46600Y13600D02*
D03*
X46237Y27500D02*
D03*
X51300Y19800D02*
D03*
X52600Y24200D02*
D03*
X50400Y10600D02*
D03*
X48600Y8300D02*
D03*
X51400Y12200D02*
D03*
X26500Y13400D02*
D03*
D86*
X36664Y52800D02*
X37453Y52011D01*
M02*
