G04*
G04 #@! TF.GenerationSoftware,Altium Limited,Altium Designer,20.2.6 (244)*
G04*
G04 Layer_Physical_Order=4*
G04 Layer_Color=16711680*
%FSLAX43Y43*%
%MOMM*%
G71*
G04*
G04 #@! TF.SameCoordinates,AB413B8A-FF02-4A9D-ADD2-1BA9649D16F0*
G04*
G04*
G04 #@! TF.FilePolarity,Positive*
G04*
G01*
G75*
%ADD10C,0.254*%
%ADD11C,0.500*%
%ADD19C,0.076*%
%ADD22R,0.500X0.550*%
%ADD23R,0.900X1.000*%
%ADD24R,0.350X1.400*%
%ADD25R,1.000X0.900*%
%ADD26C,0.500*%
%ADD27R,0.850X0.700*%
%ADD32R,3.750X3.700*%
%ADD33R,0.550X0.500*%
%ADD34R,0.600X0.600*%
%ADD35R,0.580X0.580*%
%ADD37R,1.328X0.279*%
%ADD38R,0.900X0.800*%
%ADD39R,0.350X0.600*%
%ADD40R,0.700X0.850*%
%ADD42R,3.208X1.155*%
%ADD43R,1.100X1.250*%
%ADD66C,2.108*%
%ADD67R,2.108X2.108*%
%ADD74C,1.499*%
%ADD78C,0.102*%
%ADD79C,0.108*%
%ADD80C,0.128*%
%ADD82C,1.000*%
%ADD83R,2.300X2.300*%
%ADD84C,2.300*%
%ADD85C,3.000*%
%ADD86C,3.200*%
%ADD87C,6.000*%
%ADD88C,0.700*%
%ADD89C,1.270*%
%ADD90C,0.300*%
%ADD92R,0.950X2.750*%
%ADD93R,5.550X6.400*%
%ADD94R,0.600X1.100*%
%ADD95R,0.600X0.600*%
%ADD96R,1.350X1.150*%
G36*
X74767Y54210D02*
X70904D01*
X70873Y54337D01*
X70950Y54378D01*
X71209Y54591D01*
X71422Y54850D01*
X71580Y55146D01*
X71677Y55466D01*
X71710Y55800D01*
X71677Y56134D01*
X71580Y56454D01*
X71422Y56750D01*
X71209Y57009D01*
X70950Y57222D01*
X70654Y57380D01*
X70334Y57477D01*
X70000Y57510D01*
X69666Y57477D01*
X69346Y57380D01*
X69050Y57222D01*
X68791Y57009D01*
X68767Y57008D01*
X60356Y65419D01*
X60301Y65456D01*
X60236Y65469D01*
X58007D01*
X57964Y65596D01*
X58043Y65657D01*
X58166Y65816D01*
X58242Y66001D01*
X58269Y66200D01*
X58242Y66399D01*
X58166Y66584D01*
X58043Y66743D01*
X57884Y66866D01*
X57699Y66942D01*
X57500Y66969D01*
X57301Y66942D01*
X57116Y66866D01*
X56957Y66743D01*
X56834Y66584D01*
X56758Y66399D01*
X56731Y66200D01*
X56758Y66001D01*
X56834Y65816D01*
X56957Y65657D01*
X57036Y65596D01*
X56993Y65469D01*
X55307D01*
X55264Y65596D01*
X55343Y65657D01*
X55466Y65816D01*
X55542Y66001D01*
X55569Y66200D01*
X55542Y66399D01*
X55466Y66584D01*
X55343Y66743D01*
X55184Y66866D01*
X54999Y66942D01*
X54800Y66969D01*
X54601Y66942D01*
X54416Y66866D01*
X54257Y66743D01*
X54134Y66584D01*
X54058Y66399D01*
X54031Y66200D01*
X54058Y66001D01*
X54134Y65816D01*
X54257Y65657D01*
X54336Y65596D01*
X54293Y65469D01*
X52407D01*
X52364Y65596D01*
X52443Y65657D01*
X52566Y65816D01*
X52642Y66001D01*
X52669Y66200D01*
X52642Y66399D01*
X52566Y66584D01*
X52443Y66743D01*
X52284Y66866D01*
X52099Y66942D01*
X51900Y66969D01*
X51701Y66942D01*
X51516Y66866D01*
X51357Y66743D01*
X51234Y66584D01*
X51158Y66399D01*
X51131Y66200D01*
X51158Y66001D01*
X51234Y65816D01*
X51357Y65657D01*
X51436Y65596D01*
X51393Y65469D01*
X49607D01*
X49564Y65596D01*
X49643Y65657D01*
X49766Y65816D01*
X49842Y66001D01*
X49869Y66200D01*
X49842Y66399D01*
X49766Y66584D01*
X49643Y66743D01*
X49484Y66866D01*
X49299Y66942D01*
X49100Y66969D01*
X48901Y66942D01*
X48716Y66866D01*
X48557Y66743D01*
X48434Y66584D01*
X48358Y66399D01*
X48331Y66200D01*
X48358Y66001D01*
X48434Y65816D01*
X48557Y65657D01*
X48636Y65596D01*
X48593Y65469D01*
X46900D01*
X46835Y65456D01*
X46797Y65430D01*
X46781Y65419D01*
X46773Y65417D01*
X46689Y65515D01*
X46766Y65616D01*
X46842Y65801D01*
X46869Y66000D01*
X46842Y66199D01*
X46766Y66384D01*
X46643Y66543D01*
X46484Y66666D01*
X46299Y66742D01*
X46100Y66769D01*
X45901Y66742D01*
X45716Y66666D01*
X45557Y66543D01*
X45434Y66384D01*
X45358Y66199D01*
X45331Y66000D01*
X45358Y65801D01*
X45434Y65616D01*
X45557Y65457D01*
X45716Y65334D01*
X45901Y65258D01*
X46100Y65231D01*
X46299Y65258D01*
X46484Y65334D01*
X46569Y65400D01*
X46621Y65439D01*
X46705Y65343D01*
X45181Y63819D01*
X45144Y63765D01*
X45131Y63700D01*
Y55470D01*
X43730Y54069D01*
X42362D01*
X42309Y54195D01*
X42912Y54798D01*
X43527D01*
Y55702D01*
X42473D01*
Y54798D01*
X42473Y54798D01*
X42473D01*
X42395Y54709D01*
X41169Y53483D01*
X41052Y53531D01*
Y53745D01*
X40500D01*
X39948D01*
Y53194D01*
X40014D01*
X40063Y53077D01*
X39937Y52951D01*
X38763D01*
X38637Y53077D01*
X38686Y53194D01*
X39452D01*
Y54397D01*
X39233D01*
Y54846D01*
X39552D01*
Y56049D01*
X39279D01*
Y56648D01*
X39648D01*
Y57170D01*
X40097D01*
Y56648D01*
X41300D01*
Y57752D01*
X40097D01*
Y57636D01*
X39648D01*
Y57752D01*
X38445D01*
Y57333D01*
X38198D01*
X38172Y57372D01*
X38047Y57455D01*
X37900Y57484D01*
X37753Y57455D01*
X37628Y57372D01*
X37545Y57247D01*
X37516Y57100D01*
X37545Y56953D01*
X37628Y56828D01*
X37714Y56771D01*
X37718Y56759D01*
Y56641D01*
X37714Y56629D01*
X37628Y56572D01*
X37545Y56447D01*
X37516Y56300D01*
X37545Y56153D01*
X37628Y56028D01*
X37753Y55945D01*
X37900Y55916D01*
X38047Y55945D01*
X38172Y56028D01*
X38255Y56153D01*
X38284Y56300D01*
X38255Y56447D01*
X38172Y56572D01*
X38086Y56629D01*
X38082Y56641D01*
Y56759D01*
X38086Y56771D01*
X38172Y56828D01*
X38198Y56867D01*
X38445D01*
Y56648D01*
X38813D01*
Y56049D01*
X38448D01*
Y54846D01*
X38767D01*
Y54397D01*
X38405D01*
X38347Y54399D01*
X38266Y54490D01*
X38255Y54547D01*
X38172Y54672D01*
X38065Y54743D01*
Y55100D01*
X38017Y55217D01*
X37067Y56166D01*
X37102Y56248D01*
X37102D01*
Y57352D01*
X35898D01*
Y56248D01*
X36582D01*
X36626Y56140D01*
X37735Y55032D01*
Y54743D01*
X37628Y54672D01*
X37545Y54547D01*
X37516Y54400D01*
X37545Y54253D01*
X37628Y54128D01*
X37753Y54045D01*
X37900Y54016D01*
X38047Y54045D01*
X38172Y54128D01*
X38221Y54202D01*
X38348Y54164D01*
Y53531D01*
X38231Y53483D01*
X38007Y53707D01*
X37900Y53751D01*
X36920D01*
X36852Y53878D01*
X36861Y53892D01*
X36882Y54000D01*
X36861Y54108D01*
X36800Y54200D01*
X36861Y54292D01*
X36882Y54400D01*
X36861Y54508D01*
X36800Y54600D01*
X36861Y54692D01*
X36882Y54800D01*
X36861Y54908D01*
X36800Y55000D01*
X36861Y55092D01*
X36883Y55200D01*
X36861Y55308D01*
X36800Y55400D01*
X36708Y55461D01*
X36600Y55483D01*
X36492Y55461D01*
X36400Y55400D01*
X36308Y55461D01*
X36200Y55482D01*
X36092Y55461D01*
X36000Y55400D01*
X35939Y55308D01*
X35918Y55200D01*
X35939Y55092D01*
X36000Y55000D01*
Y55000D01*
X35939Y54908D01*
X35918Y54800D01*
X35939Y54692D01*
X36000Y54600D01*
X35939Y54508D01*
X35918Y54400D01*
X35939Y54292D01*
X36000Y54200D01*
X35939Y54108D01*
X35918Y54000D01*
X35939Y53892D01*
X36000Y53800D01*
Y53800D01*
X35939Y53708D01*
X35918Y53600D01*
X35802Y53553D01*
X35798D01*
X35682Y53600D01*
X35661Y53708D01*
X35600Y53800D01*
Y53800D01*
X35661Y53892D01*
X35682Y54000D01*
X35661Y54108D01*
X35600Y54200D01*
X35661Y54292D01*
X35682Y54400D01*
X35661Y54508D01*
X35600Y54600D01*
X35661Y54692D01*
X35682Y54800D01*
X35661Y54908D01*
X35600Y55000D01*
Y55000D01*
X35661Y55092D01*
X35682Y55200D01*
X35661Y55308D01*
X35600Y55400D01*
X35508Y55461D01*
X35400Y55482D01*
X35292Y55461D01*
X35200Y55400D01*
X35139Y55308D01*
X35118Y55200D01*
X35139Y55092D01*
X35200Y55000D01*
Y55000D01*
X35139Y54908D01*
X35118Y54800D01*
X35139Y54692D01*
X35200Y54600D01*
X35139Y54508D01*
X35118Y54400D01*
X35139Y54292D01*
X35200Y54200D01*
X35139Y54108D01*
X35118Y54000D01*
X35139Y53892D01*
X35200Y53800D01*
Y53800D01*
X35139Y53708D01*
X35118Y53600D01*
X35139Y53492D01*
X35148Y53478D01*
X35110Y53377D01*
X35085Y53345D01*
X34993Y53307D01*
X34991Y53305D01*
X34950Y53306D01*
X34842Y53336D01*
X34800Y53400D01*
X34708Y53461D01*
X34600Y53482D01*
X34492Y53461D01*
X34400Y53400D01*
X34373Y53359D01*
X34063D01*
X34010Y53486D01*
X34278Y53754D01*
X34400Y53800D01*
X34492Y53739D01*
X34600Y53718D01*
X34708Y53739D01*
X34800Y53800D01*
X34861Y53892D01*
X34882Y54000D01*
X34861Y54108D01*
X34800Y54200D01*
X34861Y54292D01*
X34882Y54400D01*
X34861Y54508D01*
X34800Y54600D01*
X34861Y54692D01*
X34882Y54800D01*
X34861Y54908D01*
X34800Y55000D01*
X34861Y55092D01*
X34882Y55200D01*
X34861Y55308D01*
X34800Y55400D01*
X34708Y55461D01*
X34701Y55463D01*
X34650Y55555D01*
X34648Y55609D01*
X34675Y55648D01*
X35302D01*
Y56752D01*
X34350D01*
X34327Y56756D01*
X34311D01*
X33982Y57086D01*
X33984Y57100D01*
X33955Y57247D01*
X33872Y57372D01*
X33747Y57455D01*
X33600Y57484D01*
X33453Y57455D01*
X33328Y57372D01*
X33245Y57247D01*
X33216Y57100D01*
X33245Y56953D01*
X33328Y56828D01*
X33453Y56745D01*
X33600Y56716D01*
X33677Y56731D01*
X33849Y56559D01*
X33777Y56452D01*
X33251D01*
Y55900D01*
Y55348D01*
X33763D01*
X33802Y55348D01*
X33890Y55258D01*
Y55019D01*
X33726Y54856D01*
X33523D01*
X33500Y54852D01*
X32598D01*
Y53748D01*
X33644D01*
X33697Y53621D01*
X33434Y53359D01*
X32270D01*
X32002Y53627D01*
Y54556D01*
X30798D01*
Y53453D01*
X31727D01*
X32049Y53131D01*
X31996Y53004D01*
X31648D01*
Y51801D01*
X32752D01*
Y52209D01*
X32957D01*
X33053Y52145D01*
X33200Y52116D01*
X33347Y52145D01*
X33472Y52228D01*
X33539Y52329D01*
X33656Y52312D01*
X33666Y52308D01*
Y51027D01*
X33453D01*
X32915Y51565D01*
X32839Y51615D01*
X32750Y51633D01*
X30300D01*
X30211Y51615D01*
X30135Y51565D01*
X28935Y50365D01*
X28885Y50289D01*
X28867Y50200D01*
Y47528D01*
X28716Y47466D01*
X28557Y47343D01*
X28434Y47184D01*
X28358Y46999D01*
X28331Y46800D01*
X28358Y46601D01*
X28434Y46416D01*
X28557Y46257D01*
X28716Y46134D01*
X28901Y46058D01*
X29100Y46031D01*
X29299Y46058D01*
X29484Y46134D01*
X29643Y46257D01*
X29766Y46416D01*
X29842Y46601D01*
X29869Y46800D01*
X29842Y46999D01*
X29766Y47184D01*
X29643Y47343D01*
X29484Y47466D01*
X29333Y47528D01*
Y50103D01*
X30397Y51167D01*
X32549D01*
X32557Y51154D01*
X32490Y51027D01*
X31898D01*
Y50933D01*
X30800D01*
X30711Y50915D01*
X30635Y50865D01*
X30035Y50265D01*
X29985Y50189D01*
X29967Y50100D01*
Y49300D01*
X29985Y49211D01*
X30035Y49135D01*
X30635Y48535D01*
X30711Y48485D01*
X30800Y48467D01*
X32098D01*
Y48173D01*
X32392D01*
Y46497D01*
X32316Y46466D01*
X32157Y46343D01*
X32034Y46184D01*
X31958Y45999D01*
X31931Y45800D01*
X31958Y45601D01*
X32034Y45416D01*
X32157Y45257D01*
X32293Y45151D01*
X32279Y45062D01*
X32260Y45024D01*
X29309D01*
X27417Y46917D01*
X27300Y46965D01*
X21247D01*
X21242Y46999D01*
X21166Y47184D01*
X21043Y47343D01*
X20884Y47466D01*
X20699Y47542D01*
X20500Y47569D01*
X20301Y47542D01*
X20116Y47466D01*
X19957Y47343D01*
X19834Y47184D01*
X19758Y46999D01*
X19731Y46800D01*
X19758Y46601D01*
X19834Y46416D01*
X19957Y46257D01*
X20116Y46134D01*
X20301Y46058D01*
X20500Y46031D01*
X20699Y46058D01*
X20884Y46134D01*
X21043Y46257D01*
X21166Y46416D01*
X21242Y46601D01*
X21247Y46635D01*
X27232D01*
X29055Y44812D01*
X29083Y44743D01*
X29200Y44695D01*
X33760D01*
X33876Y44743D01*
X34917Y45783D01*
X34965Y45900D01*
Y47657D01*
X35072Y47728D01*
X35155Y47853D01*
X35184Y48000D01*
X35155Y48147D01*
X35072Y48272D01*
X34965Y48343D01*
Y48400D01*
X34917Y48517D01*
X34617Y48817D01*
X34500Y48865D01*
X34302D01*
Y49227D01*
X33398D01*
Y48173D01*
X34302D01*
Y48535D01*
X34432D01*
X34557Y48409D01*
X34545Y48283D01*
X34528Y48272D01*
X34445Y48147D01*
X34416Y48000D01*
X34445Y47853D01*
X34528Y47728D01*
X34635Y47657D01*
Y45968D01*
X33691Y45024D01*
X33140D01*
X33121Y45062D01*
X33107Y45151D01*
X33243Y45257D01*
X33366Y45416D01*
X33442Y45601D01*
X33469Y45800D01*
X33442Y45999D01*
X33366Y46184D01*
X33243Y46343D01*
X33084Y46466D01*
X32899Y46542D01*
X32858Y46548D01*
Y48173D01*
X33002D01*
Y49227D01*
X32098D01*
Y48933D01*
X30897D01*
X30438Y49392D01*
X30448Y49492D01*
X30576Y49507D01*
X30628Y49428D01*
X30753Y49345D01*
X30900Y49316D01*
X31047Y49345D01*
X31172Y49428D01*
X31241Y49531D01*
X35415D01*
X35483Y49404D01*
X35445Y49347D01*
X35416Y49200D01*
X35445Y49053D01*
X35528Y48928D01*
X35567Y48902D01*
Y46800D01*
X35585Y46711D01*
X35635Y46635D01*
X37135Y45135D01*
X37211Y45085D01*
X37300Y45067D01*
X41400D01*
X41489Y45085D01*
X41565Y45135D01*
X42265Y45835D01*
X42315Y45911D01*
X42333Y46000D01*
Y52402D01*
X42372Y52428D01*
X42455Y52553D01*
X42484Y52700D01*
X42455Y52847D01*
X42372Y52972D01*
X42247Y53055D01*
X42100Y53084D01*
X41953Y53055D01*
X41828Y52972D01*
X41745Y52847D01*
X41716Y52700D01*
X41745Y52553D01*
X41828Y52428D01*
X41867Y52402D01*
Y48760D01*
X41740Y48718D01*
X41643Y48843D01*
X41484Y48966D01*
X41299Y49042D01*
X41100Y49069D01*
X40901Y49042D01*
X40716Y48966D01*
X40557Y48843D01*
X40434Y48684D01*
X40358Y48499D01*
X40331Y48300D01*
X40358Y48101D01*
X40434Y47916D01*
X40557Y47757D01*
X40716Y47634D01*
X40901Y47558D01*
X41100Y47531D01*
X41299Y47558D01*
X41484Y47634D01*
X41643Y47757D01*
X41740Y47882D01*
X41867Y47840D01*
Y46097D01*
X41303Y45533D01*
X37397D01*
X36033Y46897D01*
Y48902D01*
X36072Y48928D01*
X36155Y49053D01*
X36184Y49200D01*
X36155Y49347D01*
X36117Y49404D01*
X36185Y49531D01*
X36500D01*
X36565Y49544D01*
X36619Y49581D01*
X37119Y50081D01*
X37156Y50135D01*
X37169Y50200D01*
Y51159D01*
X37272Y51228D01*
X37355Y51353D01*
X37384Y51500D01*
X37502Y51559D01*
X37792Y51269D01*
Y49339D01*
X37805Y49274D01*
X37842Y49219D01*
X38981Y48081D01*
X39035Y48044D01*
X39100Y48031D01*
X39259D01*
X39328Y47928D01*
X39453Y47845D01*
X39600Y47816D01*
X39747Y47845D01*
X39872Y47928D01*
X39955Y48053D01*
X39984Y48200D01*
X39955Y48347D01*
X39872Y48472D01*
X39747Y48555D01*
X39600Y48584D01*
X39453Y48555D01*
X39328Y48472D01*
X39283Y48404D01*
X39145Y48394D01*
X38130Y49409D01*
Y51339D01*
X38125Y51366D01*
X38241Y51429D01*
X39367Y50303D01*
Y49718D01*
X39256Y49644D01*
X39151Y49486D01*
X39114Y49300D01*
X39151Y49114D01*
X39256Y48956D01*
X39414Y48851D01*
X39600Y48814D01*
X39786Y48851D01*
X39944Y48956D01*
X40049Y49114D01*
X40086Y49300D01*
X40049Y49486D01*
X39944Y49644D01*
X39833Y49718D01*
Y50400D01*
X39815Y50489D01*
X39765Y50565D01*
X39074Y51256D01*
X39122Y51373D01*
X39802D01*
Y52048D01*
X39817D01*
X39882Y52061D01*
X39936Y52098D01*
X40081Y52242D01*
X40198Y52194D01*
Y51951D01*
X40650D01*
X41102D01*
Y52427D01*
X41102Y52427D01*
X41141Y52537D01*
X41175Y52544D01*
X41230Y52581D01*
X42381Y53731D01*
X43800D01*
X43865Y53744D01*
X43919Y53781D01*
X45419Y55281D01*
X45456Y55335D01*
X45469Y55400D01*
Y63630D01*
X46970Y65131D01*
X60166D01*
X68568Y56730D01*
X68420Y56454D01*
X68323Y56134D01*
X68290Y55800D01*
X68323Y55466D01*
X68420Y55146D01*
X68578Y54850D01*
X68791Y54591D01*
X69050Y54378D01*
X69346Y54220D01*
X69666Y54123D01*
X70000Y54090D01*
X70334Y54123D01*
X70595Y54202D01*
X70690Y54100D01*
Y53502D01*
X70563Y53407D01*
X70334Y53477D01*
X70000Y53510D01*
X69666Y53477D01*
X69346Y53380D01*
X69050Y53222D01*
X68791Y53009D01*
X68578Y52750D01*
X68420Y52454D01*
X68323Y52134D01*
X68290Y51800D01*
X68323Y51466D01*
X68420Y51146D01*
X68578Y50850D01*
X68791Y50591D01*
X69050Y50378D01*
X69346Y50220D01*
X69666Y50123D01*
X70000Y50090D01*
X70334Y50123D01*
X70563Y50193D01*
X70690Y50098D01*
Y49502D01*
X70563Y49407D01*
X70334Y49477D01*
X70000Y49510D01*
X69666Y49477D01*
X69346Y49380D01*
X69050Y49222D01*
X68791Y49009D01*
X68578Y48750D01*
X68420Y48454D01*
X68323Y48134D01*
X68290Y47800D01*
X68323Y47466D01*
X68420Y47146D01*
X68578Y46850D01*
X68791Y46591D01*
X69050Y46378D01*
X69346Y46220D01*
X69666Y46123D01*
X70000Y46090D01*
X70334Y46123D01*
X70563Y46193D01*
X70690Y46098D01*
Y45922D01*
X70698Y45902D01*
X70698Y45880D01*
X70698Y45880D01*
X70705Y45864D01*
X70705Y45864D01*
X70720Y45849D01*
X70722Y45844D01*
X70727Y45842D01*
X70742Y45827D01*
X70744Y45822D01*
X70749Y45820D01*
X70764Y45805D01*
X70764Y45805D01*
X70780Y45798D01*
X70780Y45798D01*
X70802Y45798D01*
X70822Y45790D01*
X72349D01*
X72369Y45798D01*
X72391D01*
X72413Y45807D01*
X72413Y45808D01*
X72523Y45848D01*
X72523Y45848D01*
X74077D01*
Y45848D01*
X74187Y45808D01*
X74187Y45807D01*
X74209Y45798D01*
X74209Y45798D01*
X74231Y45798D01*
X74251Y45790D01*
X74629D01*
X74633Y45780D01*
X74550Y45652D01*
X74249Y45647D01*
X74231Y45640D01*
X74231Y45640D01*
X74230Y45640D01*
X74228Y45639D01*
X74207Y45638D01*
X74189Y45631D01*
X74189Y45631D01*
X74189D01*
X74187Y45630D01*
X74176Y45618D01*
X74167Y45613D01*
X74154Y45607D01*
X74153Y45606D01*
X74151Y45606D01*
X74096Y45565D01*
X74000Y45552D01*
X72523D01*
X72523Y45552D01*
Y45552D01*
X72396Y45541D01*
X72349Y45582D01*
X72331Y45588D01*
X72318Y45600D01*
X72300Y45608D01*
X72278Y45607D01*
X72257Y45616D01*
X70848Y45593D01*
X70837Y45588D01*
X70824Y45590D01*
X70817Y45588D01*
X70787Y45567D01*
X70771Y45560D01*
X70769Y45554D01*
X70751Y45542D01*
X70716Y45489D01*
X70716Y45487D01*
X70714Y45486D01*
X70711Y45481D01*
X70628Y45418D01*
X70582Y45402D01*
X70581Y45402D01*
X70334Y45477D01*
X70000Y45510D01*
X69666Y45477D01*
X69346Y45380D01*
X69050Y45222D01*
X68791Y45009D01*
X68578Y44750D01*
X68420Y44454D01*
X68323Y44134D01*
X68290Y43800D01*
X68323Y43466D01*
X68420Y43146D01*
X68578Y42850D01*
X68582Y42846D01*
X68549Y42685D01*
X68538Y42672D01*
X68522Y42666D01*
X68512Y42641D01*
X68495Y42621D01*
X68497Y42604D01*
X68490Y42588D01*
Y41214D01*
X68491Y41212D01*
X68491Y41212D01*
X68491Y41211D01*
X68498Y41195D01*
X68497Y41175D01*
X68497Y41175D01*
X68498Y41173D01*
X68514Y41156D01*
X68523Y41134D01*
X68524Y41133D01*
X68524Y41133D01*
X68542Y41125D01*
X68554Y41113D01*
X68555Y41112D01*
X68555D01*
X68556Y41111D01*
X68668Y41060D01*
X68682Y41043D01*
X68720Y40922D01*
X68578Y40750D01*
X68420Y40454D01*
X68323Y40134D01*
X68290Y39800D01*
X68323Y39466D01*
X68420Y39146D01*
X68578Y38850D01*
X68720Y38678D01*
X68683Y38557D01*
X68668Y38540D01*
X68556Y38489D01*
X68555Y38488D01*
X68555Y38488D01*
X68554Y38487D01*
X68542Y38475D01*
X68524Y38467D01*
X68524Y38467D01*
X68523Y38466D01*
X68514Y38444D01*
X68498Y38427D01*
X68497Y38425D01*
X68497Y38425D01*
X68498Y38405D01*
X68491Y38389D01*
X68491Y38388D01*
X68491Y38388D01*
X68490Y38386D01*
Y37214D01*
X68491Y37212D01*
X68491Y37212D01*
X68491Y37211D01*
X68498Y37195D01*
X68497Y37175D01*
X68497Y37175D01*
X68498Y37173D01*
X68514Y37156D01*
X68523Y37134D01*
X68524Y37133D01*
X68524Y37133D01*
X68542Y37125D01*
X68554Y37113D01*
X68555Y37112D01*
X68555D01*
X68556Y37111D01*
X68668Y37060D01*
X68682Y37043D01*
X68720Y36922D01*
X68578Y36750D01*
X68420Y36454D01*
X68323Y36134D01*
X68290Y35800D01*
X68323Y35466D01*
X68420Y35146D01*
X68578Y34850D01*
X68720Y34678D01*
X68683Y34557D01*
X68668Y34540D01*
X68556Y34489D01*
X68555Y34488D01*
X68555Y34488D01*
X68554Y34487D01*
X68542Y34475D01*
X68524Y34467D01*
X68524Y34467D01*
X68523Y34466D01*
X68514Y34444D01*
X68498Y34427D01*
X68497Y34425D01*
X68497Y34425D01*
X68498Y34405D01*
X68491Y34389D01*
X68491Y34388D01*
X68491Y34388D01*
X68490Y34386D01*
Y33214D01*
X68491Y33212D01*
X68491Y33212D01*
X68491Y33211D01*
X68498Y33195D01*
X68497Y33175D01*
X68497Y33175D01*
X68498Y33173D01*
X68514Y33156D01*
X68523Y33134D01*
X68524Y33133D01*
X68524Y33133D01*
X68542Y33125D01*
X68554Y33113D01*
X68555Y33112D01*
X68555D01*
X68556Y33111D01*
X68668Y33060D01*
X68682Y33043D01*
X68720Y32922D01*
X68578Y32750D01*
X68420Y32454D01*
X68323Y32134D01*
X68290Y31800D01*
X68323Y31466D01*
X68420Y31146D01*
X68578Y30850D01*
X68791Y30591D01*
X69050Y30378D01*
X69346Y30220D01*
X69666Y30123D01*
X70000Y30090D01*
X70334Y30123D01*
X70654Y30220D01*
X70911Y30358D01*
X70939Y30351D01*
X70945Y30348D01*
X71018Y30305D01*
X71037Y30285D01*
X71061Y30191D01*
X71064Y30187D01*
X71064Y30182D01*
X71064Y30182D01*
X71070Y30164D01*
X71087Y30146D01*
X71096Y30123D01*
X71114Y30116D01*
X71127Y30102D01*
X71127Y30102D01*
X71149Y30100D01*
X71150Y30099D01*
X71153Y30098D01*
X71153Y30098D01*
X71156Y30098D01*
X71174Y30091D01*
X71193D01*
X71195Y30090D01*
X71478D01*
X71498Y30098D01*
X71520D01*
X71558Y30114D01*
X71573Y30129D01*
X71593Y30138D01*
X74640Y33184D01*
X74685Y33180D01*
X74767Y33145D01*
Y11300D01*
X65100D01*
X56600Y19800D01*
Y29800D01*
X54400Y32000D01*
X52566D01*
X52517Y32117D01*
X54365Y33965D01*
X54415Y34040D01*
X54433Y34130D01*
Y36900D01*
X54415Y36989D01*
X54365Y37065D01*
X53957Y37473D01*
X53881Y37523D01*
X53792Y37541D01*
X51479D01*
Y37542D01*
X49948D01*
Y37059D01*
X49948D01*
Y37042D01*
X49948D01*
Y36748D01*
X49830Y36699D01*
X49109Y37421D01*
X49142Y37501D01*
X49169Y37700D01*
X49142Y37899D01*
X49066Y38084D01*
X48952Y38232D01*
X48971Y38326D01*
X48983Y38359D01*
X52392D01*
X52481Y38377D01*
X52557Y38427D01*
X55365Y41235D01*
X55368Y41240D01*
X55499Y41258D01*
X55684Y41334D01*
X55843Y41457D01*
X55966Y41616D01*
X56042Y41801D01*
X56069Y42000D01*
X56042Y42199D01*
X55966Y42384D01*
X55843Y42543D01*
X55684Y42666D01*
X55499Y42742D01*
X55433Y42751D01*
Y45303D01*
X57097Y46967D01*
X58100D01*
X58189Y46985D01*
X58265Y47035D01*
X58797Y47567D01*
X60313D01*
X60323Y47466D01*
X60420Y47146D01*
X60578Y46850D01*
X60791Y46591D01*
X61050Y46378D01*
X61346Y46220D01*
X61666Y46123D01*
X62000Y46090D01*
X62334Y46123D01*
X62654Y46220D01*
X62950Y46378D01*
X63209Y46591D01*
X63422Y46850D01*
X63580Y47146D01*
X63677Y47466D01*
X63710Y47800D01*
X63677Y48134D01*
X63580Y48454D01*
X63422Y48750D01*
X63209Y49009D01*
X62950Y49222D01*
X62654Y49380D01*
X62334Y49477D01*
X62000Y49510D01*
X61666Y49477D01*
X61346Y49380D01*
X61050Y49222D01*
X60791Y49009D01*
X60578Y48750D01*
X60420Y48454D01*
X60323Y48134D01*
X60313Y48033D01*
X58938D01*
X58917Y48062D01*
X58890Y48160D01*
X61088Y50358D01*
X61346Y50220D01*
X61666Y50123D01*
X62000Y50090D01*
X62334Y50123D01*
X62654Y50220D01*
X62950Y50378D01*
X63209Y50591D01*
X63422Y50850D01*
X63580Y51146D01*
X63677Y51466D01*
X63710Y51800D01*
X63677Y52134D01*
X63580Y52454D01*
X63422Y52750D01*
X63209Y53009D01*
X62950Y53222D01*
X62654Y53380D01*
X62574Y53404D01*
X62593Y53531D01*
X63230D01*
X64931Y51830D01*
Y51391D01*
X64944Y51327D01*
X64981Y51272D01*
X64975Y51160D01*
X64791Y51009D01*
X64578Y50750D01*
X64420Y50454D01*
X64323Y50134D01*
X64290Y49800D01*
X64323Y49466D01*
X64420Y49146D01*
X64578Y48850D01*
X64791Y48591D01*
X65050Y48378D01*
X65346Y48220D01*
X65666Y48123D01*
X66000Y48090D01*
X66334Y48123D01*
X66654Y48220D01*
X66950Y48378D01*
X67209Y48591D01*
X67422Y48850D01*
X67580Y49146D01*
X67677Y49466D01*
X67710Y49800D01*
X67677Y50134D01*
X67580Y50454D01*
X67422Y50750D01*
X67209Y51009D01*
X66950Y51222D01*
X66654Y51380D01*
X66334Y51477D01*
X66000Y51510D01*
X65666Y51477D01*
X65365Y51385D01*
X65269Y51467D01*
Y51900D01*
X65256Y51965D01*
X65219Y52019D01*
X64909Y52330D01*
X64994Y52424D01*
X65050Y52378D01*
X65346Y52220D01*
X65666Y52123D01*
X66000Y52090D01*
X66334Y52123D01*
X66654Y52220D01*
X66950Y52378D01*
X67209Y52591D01*
X67422Y52850D01*
X67580Y53146D01*
X67677Y53466D01*
X67710Y53800D01*
X67677Y54134D01*
X67580Y54454D01*
X67422Y54750D01*
X67209Y55009D01*
X66950Y55222D01*
X66654Y55380D01*
X66334Y55477D01*
X66000Y55510D01*
X65666Y55477D01*
X65346Y55380D01*
X65050Y55222D01*
X64791Y55009D01*
X64578Y54750D01*
X64420Y54454D01*
X64323Y54134D01*
X64290Y53800D01*
X64323Y53466D01*
X64420Y53146D01*
X64578Y52850D01*
X64624Y52794D01*
X64530Y52709D01*
X63419Y53819D01*
X63365Y53856D01*
X63300Y53869D01*
X60000D01*
X59935Y53856D01*
X59881Y53819D01*
X57208Y51147D01*
X57184Y51166D01*
X56999Y51242D01*
X56800Y51269D01*
X56601Y51242D01*
X56416Y51166D01*
X56257Y51043D01*
X56134Y50884D01*
X56058Y50699D01*
X56031Y50500D01*
X56058Y50301D01*
X56134Y50116D01*
X56257Y49957D01*
X56416Y49834D01*
X56601Y49758D01*
X56800Y49731D01*
X56999Y49758D01*
X57184Y49834D01*
X57343Y49957D01*
X57466Y50116D01*
X57542Y50301D01*
X57569Y50500D01*
X57542Y50699D01*
X57466Y50884D01*
X57447Y50908D01*
X60070Y53531D01*
X61408D01*
X61426Y53404D01*
X61346Y53380D01*
X61050Y53222D01*
X60791Y53009D01*
X60578Y52750D01*
X60420Y52454D01*
X60323Y52134D01*
X60290Y51800D01*
X60323Y51466D01*
X60420Y51146D01*
X60578Y50850D01*
X60733Y50662D01*
X58603Y48533D01*
X58229D01*
X58211Y48667D01*
X58134Y48852D01*
X58012Y49011D01*
X57853Y49134D01*
X57668Y49210D01*
X57469Y49237D01*
X57270Y49210D01*
X57084Y49134D01*
X56925Y49011D01*
X56803Y48852D01*
X56726Y48667D01*
X56700Y48468D01*
X56726Y48269D01*
X56730Y48260D01*
X54197Y45727D01*
X54146Y45651D01*
X54129Y45562D01*
Y42773D01*
X50689Y39333D01*
X49218D01*
X49199Y39458D01*
X49384Y39534D01*
X49543Y39657D01*
X49666Y39816D01*
X49742Y40001D01*
X49769Y40200D01*
X49742Y40399D01*
X49680Y40550D01*
X50797Y41667D01*
X51072D01*
X51134Y41516D01*
X51257Y41357D01*
X51416Y41234D01*
X51601Y41158D01*
X51800Y41131D01*
X51999Y41158D01*
X52184Y41234D01*
X52343Y41357D01*
X52466Y41516D01*
X52542Y41701D01*
X52569Y41900D01*
X52542Y42099D01*
X52466Y42284D01*
X52343Y42443D01*
X52184Y42566D01*
X51999Y42642D01*
X51800Y42669D01*
X51601Y42642D01*
X51416Y42566D01*
X51257Y42443D01*
X51134Y42284D01*
X51072Y42133D01*
X50700D01*
X50611Y42115D01*
X50535Y42065D01*
X49350Y40880D01*
X49199Y40942D01*
X49000Y40969D01*
X48801Y40942D01*
X48616Y40866D01*
X48457Y40743D01*
X48334Y40584D01*
X48272Y40433D01*
X45300D01*
X45211Y40415D01*
X45135Y40365D01*
X43135Y38365D01*
X43085Y38289D01*
X43067Y38200D01*
Y36000D01*
X43085Y35911D01*
X43135Y35835D01*
X43851Y35119D01*
X43834Y34978D01*
X43812Y34952D01*
X39578D01*
X38580Y35950D01*
X38642Y36101D01*
X38669Y36300D01*
X38642Y36499D01*
X38566Y36684D01*
X38443Y36843D01*
X38284Y36966D01*
X38099Y37042D01*
X37900Y37069D01*
X37701Y37042D01*
X37550Y36980D01*
X35365Y39165D01*
X35289Y39215D01*
X35200Y39233D01*
X29800D01*
X29711Y39215D01*
X29635Y39165D01*
X28335Y37865D01*
X28285Y37789D01*
X28267Y37700D01*
Y36997D01*
X27853Y36583D01*
X27642D01*
X27552Y36673D01*
X27552Y37042D01*
X27552Y37169D01*
Y37250D01*
X26021D01*
Y37059D01*
X26021Y36932D01*
Y36559D01*
X26021Y36559D01*
Y36541D01*
X26021D01*
X26021Y36432D01*
Y36059D01*
X26021Y36059D01*
Y36041D01*
X26021D01*
X26021Y35932D01*
Y35583D01*
X23547D01*
X22833Y36297D01*
Y38103D01*
X27497Y42767D01*
X49672D01*
X49734Y42616D01*
X49857Y42457D01*
X50016Y42334D01*
X50201Y42258D01*
X50400Y42231D01*
X50599Y42258D01*
X50784Y42334D01*
X50943Y42457D01*
X51066Y42616D01*
X51142Y42801D01*
X51169Y43000D01*
X51142Y43199D01*
X51066Y43384D01*
X50943Y43543D01*
X50784Y43666D01*
X50599Y43742D01*
X50400Y43769D01*
X50201Y43742D01*
X50016Y43666D01*
X49857Y43543D01*
X49734Y43384D01*
X49672Y43233D01*
X27400D01*
X27311Y43215D01*
X27235Y43165D01*
X22435Y38365D01*
X22385Y38289D01*
X22367Y38200D01*
Y36200D01*
X22385Y36111D01*
X22435Y36035D01*
X22770Y35700D01*
X22721Y35583D01*
X22408D01*
X22366Y35684D01*
X22243Y35843D01*
X22084Y35966D01*
X21899Y36042D01*
X21700Y36069D01*
X21501Y36042D01*
X21316Y35966D01*
X21157Y35843D01*
X21034Y35684D01*
X20958Y35499D01*
X20931Y35300D01*
X20958Y35101D01*
X21034Y34916D01*
X21157Y34757D01*
X21316Y34634D01*
X21501Y34558D01*
X21700Y34531D01*
X21899Y34558D01*
X22084Y34634D01*
X22243Y34757D01*
X22366Y34916D01*
X22442Y35101D01*
X22444Y35117D01*
X26021D01*
Y35058D01*
X27552D01*
Y35541D01*
X27651Y35609D01*
X28160D01*
X28250Y35627D01*
X28325Y35677D01*
X28372Y35724D01*
X28480Y35652D01*
X28458Y35599D01*
X28431Y35400D01*
X28458Y35201D01*
X28534Y35016D01*
X28657Y34857D01*
X28816Y34734D01*
X29001Y34658D01*
X29200Y34631D01*
X29399Y34658D01*
X29584Y34734D01*
X29743Y34857D01*
X29866Y35016D01*
X29942Y35201D01*
X29969Y35400D01*
X29942Y35599D01*
X29880Y35750D01*
X30184Y36054D01*
X30326D01*
X30448Y36041D01*
X30448Y35927D01*
Y35558D01*
X30448D01*
Y35541D01*
X30448D01*
Y35058D01*
X30597D01*
X30645Y34941D01*
X29938Y34233D01*
X25600D01*
X25511Y34215D01*
X25435Y34165D01*
X23335Y32065D01*
X23292Y32000D01*
X21500D01*
X17100Y36400D01*
X233D01*
Y74767D01*
X22690D01*
Y67746D01*
X21054Y66110D01*
X14222D01*
X14202Y66102D01*
X14180D01*
X14142Y66086D01*
X14127Y66071D01*
X14107Y66062D01*
X13838Y65793D01*
X13829Y65773D01*
X13814Y65758D01*
X13798Y65720D01*
Y65698D01*
X13790Y65678D01*
Y57800D01*
Y57322D01*
X13798Y57302D01*
X13798Y57280D01*
X13798Y57280D01*
X13805Y57264D01*
X13805Y57264D01*
X13820Y57249D01*
X13822Y57244D01*
X13827Y57242D01*
X13842Y57227D01*
X13844Y57222D01*
X13849Y57220D01*
X13864Y57205D01*
X13864Y57205D01*
X13880Y57198D01*
X13880Y57198D01*
X13902Y57198D01*
X13922Y57190D01*
X22078D01*
X22098Y57198D01*
X22120Y57198D01*
X22120Y57198D01*
X22136Y57205D01*
X22136Y57205D01*
X22151Y57220D01*
X22156Y57222D01*
X22158Y57227D01*
X22173Y57242D01*
X22178Y57244D01*
X22180Y57249D01*
X22195Y57264D01*
X22195Y57264D01*
X22202Y57280D01*
X22202Y57280D01*
X22202Y57302D01*
X22210Y57322D01*
Y64754D01*
X22446Y64990D01*
X32578D01*
X32598Y64998D01*
X32620Y64998D01*
X32620Y64998D01*
X32636Y65005D01*
X32636Y65005D01*
X32651Y65020D01*
X32656Y65022D01*
X32658Y65027D01*
X32673Y65042D01*
X32678Y65044D01*
X32680Y65049D01*
X32695Y65064D01*
X32695Y65064D01*
X32702Y65080D01*
X32702Y65080D01*
X32702Y65102D01*
X32710Y65122D01*
Y74767D01*
X74767D01*
Y54210D01*
D02*
G37*
G36*
X32600Y65122D02*
X32594Y65106D01*
X32578Y65100D01*
X22400D01*
X22368Y65068D01*
X22132Y64832D01*
X22100Y64800D01*
Y64754D01*
Y57322D01*
X22094Y57306D01*
X22078Y57300D01*
X13922D01*
X13906Y57306D01*
X13900Y57322D01*
Y57800D01*
Y65678D01*
X13915Y65715D01*
X14095Y65895D01*
X14185Y65985D01*
X14222Y66000D01*
X21100D01*
X22800Y67700D01*
Y74767D01*
X32600D01*
Y65122D01*
D02*
G37*
G36*
X34400Y53000D02*
X34464Y52958D01*
X34494Y52850D01*
X34495Y52809D01*
X34493Y52807D01*
X34449Y52700D01*
Y51852D01*
X34328Y51772D01*
X34245Y51647D01*
X34216Y51500D01*
X34245Y51353D01*
X34328Y51228D01*
X34453Y51145D01*
X34600Y51116D01*
X34747Y51145D01*
X34872Y51228D01*
X34955Y51353D01*
X34984Y51500D01*
X34955Y51647D01*
X34872Y51772D01*
X34751Y51852D01*
Y52637D01*
X35007Y52893D01*
X35124Y52830D01*
X35118Y52800D01*
X35139Y52692D01*
X35200Y52600D01*
X35231Y52580D01*
Y51270D01*
X34821Y50860D01*
X34700Y50884D01*
X34553Y50855D01*
X34428Y50772D01*
X34345Y50647D01*
X34316Y50500D01*
X34345Y50353D01*
X34428Y50228D01*
X34553Y50145D01*
X34700Y50116D01*
X34847Y50145D01*
X34972Y50228D01*
X35055Y50353D01*
X35084Y50500D01*
X35060Y50621D01*
X35504Y51065D01*
X35566Y51055D01*
X35631Y51019D01*
Y50741D01*
X35528Y50672D01*
X35445Y50547D01*
X35416Y50400D01*
X35445Y50253D01*
X35528Y50128D01*
X35653Y50045D01*
X35800Y50016D01*
X35947Y50045D01*
X36072Y50128D01*
X36155Y50253D01*
X36184Y50400D01*
X36155Y50547D01*
X36072Y50672D01*
X35969Y50741D01*
Y52147D01*
X36034Y52182D01*
X36096Y52193D01*
X36408Y51881D01*
X36463Y51844D01*
X36527Y51831D01*
X36615D01*
X36683Y51704D01*
X36645Y51647D01*
X36616Y51500D01*
X36645Y51353D01*
X36728Y51228D01*
X36831Y51159D01*
Y50270D01*
X36430Y49869D01*
X34156D01*
X34102Y49973D01*
Y51027D01*
X33984D01*
Y52959D01*
X34066Y53041D01*
X34373D01*
X34400Y53000D01*
D02*
G37*
G36*
X74767Y45900D02*
X74251D01*
X74229Y45909D01*
Y46269D01*
X73300D01*
X72371D01*
Y45909D01*
X72349Y45900D01*
X70822D01*
X70806Y45906D01*
X70800Y45922D01*
Y46098D01*
Y46298D01*
X70950Y46378D01*
X71209Y46591D01*
X71422Y46850D01*
X71580Y47146D01*
X71677Y47466D01*
X71710Y47800D01*
X71677Y48134D01*
X71580Y48454D01*
X71422Y48750D01*
X71209Y49009D01*
X70950Y49222D01*
X70800Y49302D01*
Y50298D01*
X70950Y50378D01*
X71209Y50591D01*
X71422Y50850D01*
X71580Y51146D01*
X71677Y51466D01*
X71710Y51800D01*
X71677Y52134D01*
X71580Y52454D01*
X71422Y52750D01*
X71209Y53009D01*
X70950Y53222D01*
X70800Y53302D01*
Y54100D01*
X74767D01*
Y45900D01*
D02*
G37*
G36*
Y45455D02*
Y33467D01*
X74572Y33272D01*
X71515Y30215D01*
X71478Y30200D01*
X71195D01*
X71193Y30201D01*
X71174D01*
X71167Y30219D01*
X71138Y30335D01*
X71317Y30483D01*
X71549Y30765D01*
X71721Y31087D01*
X71786Y31300D01*
X70000D01*
Y31800D01*
X69500D01*
Y33586D01*
X69287Y33521D01*
X68965Y33349D01*
X68723Y33150D01*
X68714Y33160D01*
X68602Y33211D01*
X68601Y33212D01*
X68600Y33214D01*
Y34386D01*
X68601Y34388D01*
X68602Y34389D01*
X68714Y34440D01*
X68723Y34450D01*
X68965Y34251D01*
X69287Y34079D01*
X69500Y34014D01*
Y35800D01*
Y37586D01*
X69287Y37521D01*
X68965Y37349D01*
X68723Y37150D01*
X68714Y37160D01*
X68602Y37211D01*
X68601Y37212D01*
X68600Y37214D01*
Y38386D01*
X68601Y38388D01*
X68602Y38389D01*
X68714Y38440D01*
X68723Y38450D01*
X68965Y38251D01*
X69287Y38079D01*
X69500Y38014D01*
Y39800D01*
Y41586D01*
X69287Y41521D01*
X68965Y41349D01*
X68723Y41150D01*
X68714Y41160D01*
X68602Y41211D01*
X68601Y41212D01*
X68600Y41214D01*
Y42588D01*
X68704Y42642D01*
X68718Y42646D01*
X68752Y42638D01*
X68791Y42591D01*
X69050Y42378D01*
X69346Y42220D01*
X69666Y42123D01*
X70000Y42090D01*
X70334Y42123D01*
X70654Y42220D01*
X70950Y42378D01*
X71209Y42591D01*
X71422Y42850D01*
X71580Y43146D01*
X71677Y43466D01*
X71710Y43800D01*
X71677Y44134D01*
X71580Y44454D01*
X71422Y44750D01*
X71209Y45009D01*
X70950Y45222D01*
X70844Y45278D01*
X70808Y45429D01*
X70842Y45482D01*
X70850Y45483D01*
X72259Y45506D01*
X72277Y45498D01*
X72371Y45417D01*
Y45131D01*
X73300D01*
X74229D01*
Y45528D01*
X74231Y45529D01*
X74232Y45530D01*
X74233Y45530D01*
X74251Y45537D01*
X74676Y45544D01*
X74767Y45455D01*
D02*
G37*
G36*
X32367Y35303D02*
Y34797D01*
X31295Y33725D01*
X30263D01*
X30229Y33784D01*
X30216Y33852D01*
X31422Y35058D01*
X31979D01*
Y35541D01*
X32038Y35561D01*
X32106Y35564D01*
X32367Y35303D01*
D02*
G37*
G36*
X37220Y36650D02*
X37158Y36499D01*
X37131Y36300D01*
X37158Y36101D01*
X37234Y35916D01*
X37357Y35757D01*
X37516Y35634D01*
X37701Y35558D01*
X37900Y35531D01*
X38099Y35558D01*
X38250Y35620D01*
X39316Y34554D01*
X39392Y34504D01*
X39481Y34486D01*
X47352D01*
X47441Y34504D01*
X47517Y34554D01*
X48005Y35042D01*
X48016Y35034D01*
X48201Y34958D01*
X48400Y34931D01*
X48599Y34958D01*
X48784Y35034D01*
X48943Y35157D01*
X49066Y35316D01*
X49142Y35501D01*
X49169Y35700D01*
X49142Y35899D01*
X49066Y36084D01*
X48943Y36243D01*
X48784Y36366D01*
X48599Y36442D01*
X48400Y36469D01*
X48201Y36442D01*
X48016Y36366D01*
X47857Y36243D01*
X47734Y36084D01*
X47658Y35899D01*
X47631Y35700D01*
X47658Y35501D01*
X47701Y35397D01*
X47256Y34952D01*
X47103D01*
X47052Y35058D01*
X47052Y35079D01*
X47052Y35541D01*
X47052Y35668D01*
X47052Y36041D01*
X47052Y36168D01*
X47052Y36541D01*
X47052Y36668D01*
X47052Y37042D01*
X47052Y37169D01*
Y37250D01*
X45521D01*
Y37059D01*
X45521Y36932D01*
X45521Y36559D01*
X45405Y36533D01*
X44797D01*
X44633Y36697D01*
Y37203D01*
X45789Y38359D01*
X47817D01*
X47829Y38326D01*
X47848Y38232D01*
X47734Y38084D01*
X47658Y37899D01*
X47631Y37700D01*
X47658Y37501D01*
X47734Y37316D01*
X47857Y37157D01*
X48016Y37034D01*
X48201Y36958D01*
X48400Y36931D01*
X48599Y36958D01*
X48784Y37034D01*
X48814Y37057D01*
X49725Y36146D01*
X49800Y36095D01*
X49840Y36087D01*
X49948Y36041D01*
Y35558D01*
X49948D01*
Y35541D01*
X49948D01*
Y35058D01*
X50463D01*
X50468Y35050D01*
X50567Y34951D01*
Y33397D01*
X50325Y33155D01*
X50090D01*
X50046Y33282D01*
X50143Y33357D01*
X50266Y33516D01*
X50342Y33701D01*
X50369Y33900D01*
X50342Y34099D01*
X50266Y34284D01*
X50143Y34443D01*
X49984Y34566D01*
X49799Y34642D01*
X49600Y34669D01*
X49401Y34642D01*
X49216Y34566D01*
X49057Y34443D01*
X48934Y34284D01*
X48858Y34099D01*
X48856Y34083D01*
X37808D01*
X37766Y34184D01*
X37643Y34343D01*
X37484Y34466D01*
X37299Y34542D01*
X37100Y34569D01*
X36901Y34542D01*
X36750Y34480D01*
X35933Y35297D01*
Y37600D01*
X35915Y37689D01*
X35865Y37765D01*
X35047Y38583D01*
X35094Y38716D01*
X35149Y38722D01*
X37220Y36650D01*
D02*
G37*
G36*
X33467Y36203D02*
Y34797D01*
X30670Y32000D01*
X27043D01*
X26933Y32110D01*
Y32400D01*
X26915Y32489D01*
X26865Y32565D01*
X26789Y32615D01*
X26700Y32633D01*
X26609Y32744D01*
X26605Y32776D01*
X27089Y33259D01*
X31392D01*
X31481Y33277D01*
X31557Y33327D01*
X32765Y34535D01*
X32815Y34611D01*
X32833Y34700D01*
Y35400D01*
X32815Y35489D01*
X32765Y35565D01*
X32352Y35977D01*
X32277Y36028D01*
X32188Y36045D01*
X32100D01*
X31979Y36059D01*
X31979Y36172D01*
X31979Y36541D01*
X31982Y36667D01*
X33003D01*
X33467Y36203D01*
D02*
G37*
G36*
X30571Y28001D02*
X26935Y24365D01*
X26885Y24289D01*
X26867Y24200D01*
Y23249D01*
X26885Y23160D01*
X26935Y23084D01*
X27084Y22935D01*
X27160Y22885D01*
X27249Y22867D01*
X27505D01*
X27621Y22841D01*
X27621Y22732D01*
X27621Y22359D01*
X27501Y22341D01*
X26989D01*
X25033Y24297D01*
Y27858D01*
X25575Y28400D01*
X28167D01*
Y27297D01*
X26335Y25465D01*
X26285Y25389D01*
X26267Y25300D01*
X26285Y25211D01*
X26335Y25135D01*
X26411Y25085D01*
X26500Y25067D01*
X26589Y25085D01*
X26665Y25135D01*
X28565Y27035D01*
X28615Y27111D01*
X28633Y27200D01*
Y28400D01*
X30571D01*
Y28001D01*
D02*
G37*
G36*
X37567Y21303D02*
Y16897D01*
X36835Y16165D01*
X36785Y16089D01*
X36767Y16000D01*
Y15360D01*
X34340Y12933D01*
X32857D01*
X32821Y13055D01*
X32835Y13065D01*
X32969Y13264D01*
X32991Y13373D01*
X32400D01*
Y13627D01*
X32991D01*
X32969Y13736D01*
X32835Y13935D01*
X32636Y14069D01*
X32400Y14116D01*
X32369Y14110D01*
X32306Y14227D01*
X32490Y14410D01*
X32540Y14486D01*
X32553Y14498D01*
X32811D01*
Y15302D01*
X32767D01*
Y15438D01*
X35465Y18135D01*
X35515Y18211D01*
X35533Y18300D01*
Y20900D01*
X35515Y20989D01*
X35465Y21065D01*
X34568Y21961D01*
X34628Y22082D01*
X34736Y22067D01*
X34935Y22094D01*
X35120Y22170D01*
X35279Y22292D01*
X35402Y22452D01*
X35478Y22637D01*
X35505Y22836D01*
X35478Y23035D01*
X35402Y23220D01*
X35279Y23379D01*
X35120Y23502D01*
X34935Y23578D01*
X34736Y23604D01*
X34537Y23578D01*
X34352Y23502D01*
X34192Y23379D01*
X34070Y23220D01*
X33994Y23035D01*
X33967Y22836D01*
X33982Y22728D01*
X33861Y22668D01*
X33778Y22752D01*
X33702Y22803D01*
X33684Y22806D01*
X33579Y22859D01*
Y23342D01*
X33579D01*
Y23359D01*
X33579D01*
Y23842D01*
X33333D01*
Y24300D01*
X33388Y24367D01*
X34503D01*
X37567Y21303D01*
D02*
G37*
G36*
X20600Y28500D02*
Y28400D01*
X23267D01*
Y23400D01*
X23285Y23311D01*
X23335Y23235D01*
X25135Y21435D01*
X25211Y21385D01*
X25300Y21367D01*
X25582D01*
X25601Y21242D01*
X25416Y21166D01*
X25257Y21043D01*
X25134Y20884D01*
X25058Y20699D01*
X25031Y20500D01*
X25058Y20301D01*
X25134Y20116D01*
X25257Y19957D01*
X25416Y19834D01*
X25601Y19758D01*
X25800Y19731D01*
X25999Y19758D01*
X26184Y19834D01*
X26343Y19957D01*
X26466Y20116D01*
X26542Y20301D01*
X26569Y20500D01*
X26542Y20699D01*
X26466Y20884D01*
X26343Y21043D01*
X26184Y21166D01*
X25999Y21242D01*
X26018Y21367D01*
X27621D01*
Y21358D01*
X29152D01*
Y21841D01*
X29152D01*
Y21858D01*
X29152D01*
X29152Y22341D01*
X29272Y22357D01*
X29690D01*
X29779Y22375D01*
X29855Y22425D01*
X30250Y22820D01*
X30367Y22772D01*
Y22297D01*
X29421Y21351D01*
X29371Y21275D01*
X29353Y21186D01*
Y20154D01*
X29371Y20065D01*
X29421Y19989D01*
X29738Y19672D01*
Y19198D01*
X30531D01*
X30542Y19198D01*
X30658D01*
X30669Y19198D01*
X31009D01*
Y19600D01*
Y20002D01*
X30669D01*
X30658Y20002D01*
X30542D01*
X30531Y20002D01*
X30068D01*
X29819Y20251D01*
Y21089D01*
X30765Y22035D01*
X30815Y22111D01*
X30833Y22200D01*
Y22772D01*
X30984Y22834D01*
X31143Y22957D01*
X31266Y23116D01*
X31342Y23301D01*
X31369Y23500D01*
X31342Y23699D01*
X31266Y23884D01*
X31200Y23970D01*
X31597Y24367D01*
X32703D01*
X32867Y24203D01*
Y23842D01*
X32048D01*
Y23359D01*
X31932Y23333D01*
X31890D01*
X31801Y23316D01*
X31725Y23265D01*
X31576Y23116D01*
X31526Y23041D01*
X31508Y22951D01*
Y21059D01*
X31526Y20970D01*
X31576Y20894D01*
X32235Y20235D01*
X32311Y20185D01*
X32400Y20167D01*
X32903D01*
X33467Y19603D01*
Y19272D01*
X32497Y18302D01*
X32273D01*
Y18180D01*
X31947D01*
X31858Y18162D01*
X31782Y18112D01*
X31282Y17612D01*
X31231Y17536D01*
X31214Y17447D01*
Y16443D01*
X30228Y15458D01*
X29877D01*
Y15577D01*
X29123D01*
Y15458D01*
X24875D01*
X24786Y15440D01*
X24710Y15390D01*
X24135Y14815D01*
X24085Y14739D01*
X24067Y14650D01*
Y14427D01*
X23923D01*
Y13723D01*
X24677D01*
Y14427D01*
X24533D01*
X24533Y14554D01*
X24972Y14992D01*
X28972D01*
X28972Y14991D01*
X28895Y14868D01*
X28885Y14864D01*
X25981D01*
X25892Y14846D01*
X25816Y14796D01*
X25447Y14427D01*
X25023D01*
Y13723D01*
X25777D01*
Y14097D01*
X26078Y14398D01*
X26658D01*
X26697Y14271D01*
X26656Y14244D01*
X26551Y14086D01*
X26514Y13900D01*
X26551Y13714D01*
X26656Y13556D01*
X26814Y13451D01*
X27000Y13414D01*
X27186Y13451D01*
X27344Y13556D01*
X27449Y13714D01*
X27486Y13900D01*
X27449Y14086D01*
X27344Y14244D01*
X27303Y14271D01*
X27342Y14398D01*
X28039D01*
X28107Y14271D01*
X28051Y14186D01*
X28014Y14000D01*
X28051Y13814D01*
X28156Y13656D01*
X28267Y13582D01*
Y12242D01*
X27778Y11753D01*
X26952D01*
Y12177D01*
X26429D01*
X26398Y12177D01*
X26302D01*
X26271Y12177D01*
X26076D01*
Y11375D01*
Y10573D01*
X26271D01*
X26302Y10573D01*
X26398D01*
X26429Y10573D01*
X26952D01*
Y11287D01*
X27875D01*
X27964Y11305D01*
X28039Y11355D01*
X28665Y11981D01*
X28715Y12056D01*
X28733Y12145D01*
Y13582D01*
X28844Y13656D01*
X28949Y13814D01*
X28986Y14000D01*
X28949Y14186D01*
X28906Y14252D01*
X28953Y14372D01*
X28978Y14379D01*
X29067Y14361D01*
X29933D01*
X29963Y14367D01*
X31621D01*
X31670Y14250D01*
X29647Y12227D01*
X29223D01*
Y11523D01*
X29977D01*
Y11897D01*
X31673Y13594D01*
X31790Y13531D01*
X31784Y13500D01*
X31831Y13264D01*
X31965Y13065D01*
X31979Y13055D01*
X31943Y12933D01*
X31863D01*
X31774Y12915D01*
X31698Y12865D01*
X30104Y11270D01*
X29977Y11277D01*
Y11277D01*
X29223D01*
Y10573D01*
X29977D01*
Y10711D01*
X30107D01*
X30196Y10729D01*
X30272Y10779D01*
X31960Y12467D01*
X34437D01*
X34526Y12485D01*
X34602Y12535D01*
X37165Y15098D01*
X37215Y15174D01*
X37233Y15263D01*
Y15903D01*
X37965Y16635D01*
X38015Y16711D01*
X38033Y16800D01*
Y21400D01*
X38015Y21489D01*
X37965Y21565D01*
X34765Y24765D01*
X34689Y24815D01*
X34600Y24833D01*
X31500D01*
X31411Y24815D01*
X31335Y24765D01*
X30809Y24238D01*
X30799Y24242D01*
X30600Y24269D01*
X30401Y24242D01*
X30216Y24166D01*
X30057Y24043D01*
X29934Y23884D01*
X29858Y23699D01*
X29831Y23500D01*
X29858Y23301D01*
X29920Y23150D01*
X29594Y22823D01*
X29264D01*
X29152Y22859D01*
X29152Y22968D01*
Y23342D01*
X29152D01*
Y23359D01*
X29152D01*
Y23842D01*
X28533D01*
Y24585D01*
X29215Y25267D01*
X32400D01*
X32489Y25285D01*
X32565Y25335D01*
X33373Y26144D01*
X33424Y26219D01*
X33442Y26309D01*
Y28400D01*
X41163D01*
Y24704D01*
X41180Y24615D01*
X41231Y24539D01*
X43635Y22135D01*
X43711Y22085D01*
X43800Y22067D01*
X45921D01*
Y22058D01*
X47452D01*
Y22541D01*
X47452D01*
Y22558D01*
X47452D01*
Y22882D01*
X47579Y22934D01*
X48167Y22347D01*
Y19800D01*
X48185Y19711D01*
X48235Y19635D01*
X49767Y18103D01*
Y17928D01*
X49616Y17866D01*
X49457Y17743D01*
X49334Y17584D01*
X49312Y17531D01*
X49196Y17453D01*
X48351Y16608D01*
X47152D01*
Y16752D01*
X46048D01*
Y15748D01*
X47152D01*
Y15892D01*
X48351D01*
X48523Y15720D01*
Y15523D01*
X48840D01*
X48875Y15517D01*
X48910Y15523D01*
X49277D01*
Y16227D01*
X49163D01*
X49111Y16354D01*
X49416Y16659D01*
X49457Y16657D01*
X49616Y16534D01*
X49801Y16458D01*
X50000Y16431D01*
X50199Y16458D01*
X50384Y16534D01*
X50543Y16657D01*
X50666Y16816D01*
X50742Y17001D01*
X50769Y17200D01*
X50742Y17399D01*
X50666Y17584D01*
X50543Y17743D01*
X50384Y17866D01*
X50233Y17928D01*
Y18200D01*
X50215Y18289D01*
X50165Y18365D01*
X48633Y19897D01*
Y22443D01*
X48615Y22532D01*
X48565Y22608D01*
X48223Y22950D01*
X48272Y23067D01*
X48400D01*
X48489Y23085D01*
X48565Y23135D01*
X49497Y24068D01*
X50066D01*
X50102Y23997D01*
X50111Y23941D01*
X48935Y22765D01*
X48885Y22689D01*
X48867Y22600D01*
Y20000D01*
X48885Y19911D01*
X48935Y19835D01*
X50967Y17803D01*
Y16297D01*
X49828Y15158D01*
X49277D01*
Y15277D01*
X48523D01*
Y15158D01*
X44425D01*
X44336Y15140D01*
X44260Y15090D01*
X43883Y14713D01*
X43833Y14637D01*
X43815Y14548D01*
Y14127D01*
X43672D01*
Y13423D01*
X44425D01*
Y14127D01*
X44281D01*
Y14452D01*
X44522Y14692D01*
X48406D01*
X48407Y14688D01*
X48284Y14564D01*
X45681D01*
X45592Y14546D01*
X45516Y14496D01*
X45147Y14127D01*
X44723D01*
Y13423D01*
X45477D01*
Y13797D01*
X45778Y14098D01*
X46258D01*
X46297Y13971D01*
X46256Y13944D01*
X46151Y13786D01*
X46114Y13600D01*
X46140Y13469D01*
X45604Y12933D01*
X45477Y12986D01*
Y13177D01*
X44723D01*
Y12667D01*
X44596Y12628D01*
X44590Y12638D01*
X44425Y12803D01*
Y13177D01*
X43672D01*
Y12473D01*
X44095D01*
X44192Y12377D01*
Y12175D01*
X44148D01*
Y10572D01*
X44671D01*
X44702Y10572D01*
X44798D01*
X44829Y10572D01*
X45321D01*
X45352Y10572D01*
X45448D01*
X45479Y10572D01*
X45971D01*
X46002Y10572D01*
X46098D01*
X46129Y10572D01*
X46652D01*
Y11845D01*
X47933Y13127D01*
X48000Y13114D01*
X48186Y13151D01*
X48344Y13256D01*
X48449Y13414D01*
X48486Y13600D01*
X48449Y13786D01*
X48344Y13944D01*
X48303Y13971D01*
X48342Y14098D01*
X50977D01*
X51026Y13981D01*
X49459Y12414D01*
X49277D01*
Y12427D01*
X48523D01*
Y11723D01*
X49277D01*
Y11948D01*
X49556D01*
X49645Y11966D01*
X49721Y12016D01*
X51871Y14166D01*
X52203Y14498D01*
X52427D01*
Y15302D01*
X52383D01*
Y15653D01*
X53665Y16935D01*
X53715Y17011D01*
X53733Y17100D01*
Y23000D01*
X53733Y23000D01*
X53733Y23000D01*
X53724Y23044D01*
X53715Y23089D01*
X53715Y23089D01*
X53715Y23089D01*
X53684Y23137D01*
X53665Y23165D01*
X53665Y23165D01*
X53665Y23165D01*
X53365Y23465D01*
X53318Y23496D01*
X53289Y23515D01*
X53289Y23515D01*
X53289Y23515D01*
X53244Y23524D01*
X53200Y23533D01*
X51995D01*
X51879Y23559D01*
X51879Y24042D01*
X51995Y24068D01*
X52140D01*
X52151Y24014D01*
X52256Y23856D01*
X52414Y23751D01*
X52600Y23714D01*
X52786Y23751D01*
X52944Y23856D01*
X53049Y24014D01*
X53086Y24200D01*
X53049Y24386D01*
X52944Y24544D01*
X52786Y24649D01*
X52600Y24686D01*
X52414Y24649D01*
X52256Y24544D01*
X52249Y24534D01*
X51879D01*
Y24542D01*
X50348D01*
Y24534D01*
X49401D01*
X49307Y24645D01*
X49304Y24675D01*
X51210Y26581D01*
X51261Y26656D01*
X51279Y26745D01*
Y28400D01*
X53600D01*
X55300Y26700D01*
X55300D01*
Y18800D01*
X65200Y8900D01*
Y8900D01*
X74767D01*
Y233D01*
X233D01*
Y33300D01*
X15800D01*
X20600Y28500D01*
D02*
G37*
%LPC*%
G36*
X20656Y72159D02*
X18344D01*
Y69848D01*
X20656D01*
Y72159D01*
D02*
G37*
G36*
X37300Y73011D02*
X36813Y72973D01*
X36339Y72859D01*
X35888Y72672D01*
X35471Y72417D01*
X35100Y72100D01*
X34783Y71729D01*
X34528Y71312D01*
X34341Y70861D01*
X34227Y70387D01*
X34189Y69900D01*
X34227Y69413D01*
X34341Y68939D01*
X34528Y68488D01*
X34783Y68071D01*
X35100Y67700D01*
X35471Y67383D01*
X35888Y67128D01*
X36339Y66941D01*
X36813Y66827D01*
X37300Y66789D01*
X37787Y66827D01*
X38261Y66941D01*
X38712Y67128D01*
X39129Y67383D01*
X39500Y67700D01*
X39817Y68071D01*
X40072Y68488D01*
X40259Y68939D01*
X40373Y69413D01*
X40411Y69900D01*
X40373Y70387D01*
X40259Y70861D01*
X40072Y71312D01*
X39817Y71729D01*
X39500Y72100D01*
X39129Y72417D01*
X38712Y72672D01*
X38261Y72859D01*
X37787Y72973D01*
X37300Y73011D01*
D02*
G37*
G36*
X19500Y68766D02*
X19198Y68726D01*
X18917Y68609D01*
X18676Y68424D01*
X18490Y68183D01*
X18374Y67902D01*
X18334Y67600D01*
X18374Y67298D01*
X18490Y67017D01*
X18676Y66776D01*
X18917Y66590D01*
X19198Y66474D01*
X19500Y66434D01*
X19802Y66474D01*
X20083Y66590D01*
X20324Y66776D01*
X20510Y67017D01*
X20626Y67298D01*
X20666Y67600D01*
X20626Y67902D01*
X20510Y68183D01*
X20324Y68424D01*
X20083Y68609D01*
X19802Y68726D01*
X19500Y68766D01*
D02*
G37*
G36*
X6900Y68858D02*
X6577Y68826D01*
X6266Y68732D01*
X5979Y68579D01*
X5728Y68372D01*
X5521Y68121D01*
X5368Y67834D01*
X5274Y67523D01*
X5242Y67200D01*
X5274Y66877D01*
X5368Y66566D01*
X5521Y66279D01*
X5728Y66028D01*
X5979Y65821D01*
X6266Y65668D01*
X6577Y65574D01*
X6900Y65542D01*
X7223Y65574D01*
X7534Y65668D01*
X7821Y65821D01*
X8072Y66028D01*
X8279Y66279D01*
X8432Y66566D01*
X8526Y66877D01*
X8558Y67200D01*
X8526Y67523D01*
X8432Y67834D01*
X8279Y68121D01*
X8072Y68372D01*
X7821Y68579D01*
X7534Y68732D01*
X7223Y68826D01*
X6900Y68858D01*
D02*
G37*
G36*
X44000Y66769D02*
X43801Y66742D01*
X43616Y66666D01*
X43457Y66543D01*
X43334Y66384D01*
X43258Y66199D01*
X43231Y66000D01*
X43258Y65801D01*
X43334Y65616D01*
X43457Y65457D01*
X43616Y65334D01*
X43801Y65258D01*
X44000Y65231D01*
X44199Y65258D01*
X44384Y65334D01*
X44543Y65457D01*
X44666Y65616D01*
X44742Y65801D01*
X44769Y66000D01*
X44742Y66199D01*
X44666Y66384D01*
X44543Y66543D01*
X44384Y66666D01*
X44199Y66742D01*
X44000Y66769D01*
D02*
G37*
G36*
Y64769D02*
X43801Y64742D01*
X43616Y64666D01*
X43457Y64543D01*
X43334Y64384D01*
X43258Y64199D01*
X43231Y64000D01*
X43258Y63801D01*
X43334Y63616D01*
X43457Y63457D01*
X43616Y63334D01*
X43801Y63258D01*
X44000Y63231D01*
X44199Y63258D01*
X44384Y63334D01*
X44543Y63457D01*
X44666Y63616D01*
X44742Y63801D01*
X44769Y64000D01*
X44742Y64199D01*
X44666Y64384D01*
X44543Y64543D01*
X44384Y64666D01*
X44199Y64742D01*
X44000Y64769D01*
D02*
G37*
G36*
X55300Y64469D02*
X55101Y64442D01*
X54916Y64366D01*
X54757Y64243D01*
X54634Y64084D01*
X54558Y63899D01*
X54531Y63700D01*
X54558Y63501D01*
X54634Y63316D01*
X54757Y63157D01*
X54916Y63034D01*
X55101Y62958D01*
X55300Y62931D01*
X55499Y62958D01*
X55684Y63034D01*
X55843Y63157D01*
X55966Y63316D01*
X56042Y63501D01*
X56069Y63700D01*
X56042Y63899D01*
X55966Y64084D01*
X55843Y64243D01*
X55684Y64366D01*
X55499Y64442D01*
X55300Y64469D01*
D02*
G37*
G36*
X52800D02*
X52601Y64442D01*
X52416Y64366D01*
X52257Y64243D01*
X52134Y64084D01*
X52058Y63899D01*
X52031Y63700D01*
X52058Y63501D01*
X52134Y63316D01*
X52257Y63157D01*
X52416Y63034D01*
X52601Y62958D01*
X52800Y62931D01*
X52999Y62958D01*
X53184Y63034D01*
X53343Y63157D01*
X53466Y63316D01*
X53542Y63501D01*
X53569Y63700D01*
X53542Y63899D01*
X53466Y64084D01*
X53343Y64243D01*
X53184Y64366D01*
X52999Y64442D01*
X52800Y64469D01*
D02*
G37*
G36*
X50600Y64369D02*
X50401Y64342D01*
X50216Y64266D01*
X50057Y64143D01*
X49934Y63984D01*
X49858Y63799D01*
X49831Y63600D01*
X49858Y63401D01*
X49934Y63216D01*
X50057Y63057D01*
X50216Y62934D01*
X50401Y62858D01*
X50600Y62831D01*
X50799Y62858D01*
X50984Y62934D01*
X51143Y63057D01*
X51266Y63216D01*
X51342Y63401D01*
X51369Y63600D01*
X51342Y63799D01*
X51266Y63984D01*
X51143Y64143D01*
X50984Y64266D01*
X50799Y64342D01*
X50600Y64369D01*
D02*
G37*
G36*
X31300Y63084D02*
X31153Y63055D01*
X31028Y62972D01*
X30945Y62847D01*
X30916Y62700D01*
X30945Y62553D01*
X31028Y62428D01*
X31153Y62345D01*
X31300Y62316D01*
X31447Y62345D01*
X31572Y62428D01*
X31655Y62553D01*
X31684Y62700D01*
X31655Y62847D01*
X31572Y62972D01*
X31447Y63055D01*
X31300Y63084D01*
D02*
G37*
G36*
X37573Y63011D02*
X37426Y62982D01*
X37301Y62899D01*
X37218Y62774D01*
X37189Y62627D01*
X37218Y62480D01*
X37301Y62355D01*
X37426Y62272D01*
X37573Y62243D01*
X37720Y62272D01*
X37845Y62355D01*
X37928Y62480D01*
X37957Y62627D01*
X37928Y62774D01*
X37845Y62899D01*
X37720Y62982D01*
X37573Y63011D01*
D02*
G37*
G36*
X57100Y62669D02*
X56901Y62642D01*
X56716Y62566D01*
X56557Y62443D01*
X56434Y62284D01*
X56358Y62099D01*
X56331Y61900D01*
X56358Y61701D01*
X56434Y61516D01*
X56557Y61357D01*
X56716Y61234D01*
X56901Y61158D01*
X57100Y61131D01*
X57299Y61158D01*
X57484Y61234D01*
X57643Y61357D01*
X57766Y61516D01*
X57842Y61701D01*
X57869Y61900D01*
X57842Y62099D01*
X57766Y62284D01*
X57643Y62443D01*
X57484Y62566D01*
X57299Y62642D01*
X57100Y62669D01*
D02*
G37*
G36*
X44000D02*
X43801Y62642D01*
X43616Y62566D01*
X43457Y62443D01*
X43334Y62284D01*
X43258Y62099D01*
X43231Y61900D01*
X43258Y61701D01*
X43334Y61516D01*
X43457Y61357D01*
X43616Y61234D01*
X43801Y61158D01*
X44000Y61131D01*
X44199Y61158D01*
X44384Y61234D01*
X44543Y61357D01*
X44666Y61516D01*
X44742Y61701D01*
X44769Y61900D01*
X44742Y62099D01*
X44666Y62284D01*
X44543Y62443D01*
X44384Y62566D01*
X44199Y62642D01*
X44000Y62669D01*
D02*
G37*
G36*
X31300Y61884D02*
X31153Y61855D01*
X31028Y61772D01*
X30945Y61647D01*
X30916Y61500D01*
X30945Y61353D01*
X31028Y61228D01*
X31153Y61145D01*
X31300Y61116D01*
X31447Y61145D01*
X31572Y61228D01*
X31655Y61353D01*
X31684Y61500D01*
X31655Y61647D01*
X31572Y61772D01*
X31447Y61855D01*
X31300Y61884D01*
D02*
G37*
G36*
X37700Y61784D02*
X37553Y61755D01*
X37428Y61672D01*
X37345Y61547D01*
X37316Y61400D01*
X37345Y61253D01*
X37428Y61128D01*
X37553Y61045D01*
X37700Y61016D01*
X37847Y61045D01*
X37972Y61128D01*
X38055Y61253D01*
X38084Y61400D01*
X38055Y61547D01*
X37972Y61672D01*
X37847Y61755D01*
X37700Y61784D01*
D02*
G37*
G36*
X46400Y62369D02*
X46201Y62342D01*
X46016Y62266D01*
X45857Y62143D01*
X45734Y61984D01*
X45658Y61799D01*
X45631Y61600D01*
X45658Y61401D01*
X45734Y61216D01*
X45857Y61057D01*
X46016Y60934D01*
X46201Y60858D01*
X46400Y60831D01*
X46599Y60858D01*
X46784Y60934D01*
X46943Y61057D01*
X47066Y61216D01*
X47142Y61401D01*
X47169Y61600D01*
X47142Y61799D01*
X47066Y61984D01*
X46943Y62143D01*
X46784Y62266D01*
X46599Y62342D01*
X46400Y62369D01*
D02*
G37*
G36*
X66500Y63883D02*
X66191Y63852D01*
X65894Y63762D01*
X65621Y63616D01*
X65381Y63419D01*
X65184Y63179D01*
X65038Y62906D01*
X64948Y62609D01*
X64917Y62300D01*
X64948Y61991D01*
X65038Y61694D01*
X65184Y61421D01*
X65381Y61181D01*
X65621Y60984D01*
X65894Y60838D01*
X66191Y60748D01*
X66500Y60717D01*
X66809Y60748D01*
X67106Y60838D01*
X67379Y60984D01*
X67619Y61181D01*
X67816Y61421D01*
X67962Y61694D01*
X68052Y61991D01*
X68083Y62300D01*
X68052Y62609D01*
X67962Y62906D01*
X67816Y63179D01*
X67619Y63419D01*
X67379Y63616D01*
X67106Y63762D01*
X66809Y63852D01*
X66500Y63883D01*
D02*
G37*
G36*
X31300Y60684D02*
X31153Y60655D01*
X31028Y60572D01*
X30945Y60447D01*
X30916Y60300D01*
X30945Y60153D01*
X31028Y60028D01*
X31153Y59945D01*
X31300Y59916D01*
X31447Y59945D01*
X31572Y60028D01*
X31655Y60153D01*
X31684Y60300D01*
X31655Y60447D01*
X31572Y60572D01*
X31447Y60655D01*
X31300Y60684D01*
D02*
G37*
G36*
X54302Y60427D02*
X53951D01*
Y59826D01*
X54302D01*
Y60427D01*
D02*
G37*
G36*
X53849D02*
X53498D01*
Y59826D01*
X53849D01*
Y60427D01*
D02*
G37*
G36*
X37700Y60584D02*
X37553Y60555D01*
X37428Y60472D01*
X37345Y60347D01*
X37316Y60200D01*
X37345Y60053D01*
X37428Y59928D01*
X37553Y59845D01*
X37700Y59816D01*
X37847Y59845D01*
X37972Y59928D01*
X38055Y60053D01*
X38084Y60200D01*
X38055Y60347D01*
X37972Y60472D01*
X37847Y60555D01*
X37700Y60584D01*
D02*
G37*
G36*
X55252Y60427D02*
X54448D01*
Y59123D01*
X55252D01*
Y60427D01*
D02*
G37*
G36*
X54302Y59724D02*
X53951D01*
Y59123D01*
X54302D01*
Y59724D01*
D02*
G37*
G36*
X53849D02*
X53498D01*
Y59123D01*
X53849D01*
Y59724D01*
D02*
G37*
G36*
X53352Y60427D02*
X52548D01*
Y59123D01*
X53352D01*
Y60427D01*
D02*
G37*
G36*
X39648Y59352D02*
X39097D01*
Y58851D01*
X39648D01*
Y59352D01*
D02*
G37*
G36*
X41300D02*
X40749D01*
Y58851D01*
X41300D01*
Y59352D01*
D02*
G37*
G36*
X38995D02*
X38445D01*
Y58851D01*
X38995D01*
Y59352D01*
D02*
G37*
G36*
X40647D02*
X40097D01*
Y58851D01*
X40647D01*
Y59352D01*
D02*
G37*
G36*
X6052Y61152D02*
X3548D01*
Y58648D01*
X6052D01*
Y61152D01*
D02*
G37*
G36*
X9000Y61162D02*
X8673Y61119D01*
X8369Y60993D01*
X8107Y60793D01*
X7907Y60531D01*
X7781Y60227D01*
X7738Y59900D01*
X7781Y59573D01*
X7907Y59269D01*
X8107Y59007D01*
X8369Y58807D01*
X8673Y58681D01*
X9000Y58638D01*
X9327Y58681D01*
X9631Y58807D01*
X9893Y59007D01*
X10093Y59269D01*
X10219Y59573D01*
X10262Y59900D01*
X10219Y60227D01*
X10093Y60531D01*
X9893Y60793D01*
X9631Y60993D01*
X9327Y61119D01*
X9000Y61162D01*
D02*
G37*
G36*
X37403Y59310D02*
X37256Y59280D01*
X37132Y59197D01*
X37103Y59154D01*
X37036Y59141D01*
X36960Y59090D01*
X36822Y58952D01*
X35898D01*
Y57848D01*
X37102D01*
Y58521D01*
X37219Y58595D01*
X37256Y58570D01*
X37403Y58541D01*
X37550Y58570D01*
X37675Y58653D01*
X37758Y58778D01*
X37788Y58925D01*
X37758Y59072D01*
X37675Y59197D01*
X37550Y59280D01*
X37403Y59310D01*
D02*
G37*
G36*
X32900Y59184D02*
X32753Y59155D01*
X32628Y59072D01*
X32545Y58947D01*
X32516Y58800D01*
X32545Y58653D01*
X32628Y58528D01*
X32753Y58445D01*
X32900Y58416D01*
X33047Y58445D01*
X33172Y58528D01*
X33255Y58653D01*
X33284Y58800D01*
X33255Y58947D01*
X33172Y59072D01*
X33047Y59155D01*
X32900Y59184D01*
D02*
G37*
G36*
X41300Y58749D02*
X40749D01*
Y58248D01*
X41300D01*
Y58749D01*
D02*
G37*
G36*
X40647D02*
X40097D01*
Y58248D01*
X40647D01*
Y58749D01*
D02*
G37*
G36*
X39648D02*
X39097D01*
Y58248D01*
X39648D01*
Y58749D01*
D02*
G37*
G36*
X38995D02*
X38445D01*
Y58248D01*
X38995D01*
Y58749D01*
D02*
G37*
G36*
X35302Y58352D02*
X34751D01*
Y57851D01*
X35302D01*
Y58352D01*
D02*
G37*
G36*
X34649D02*
X34098D01*
Y57851D01*
X34649D01*
Y58352D01*
D02*
G37*
G36*
X35302Y57749D02*
X34751D01*
Y57248D01*
X35302D01*
Y57749D01*
D02*
G37*
G36*
X34649D02*
X34098D01*
Y57248D01*
X34649D01*
Y57749D01*
D02*
G37*
G36*
X27400Y58369D02*
X27201Y58342D01*
X27016Y58266D01*
X26857Y58143D01*
X26734Y57984D01*
X26658Y57799D01*
X26631Y57600D01*
X26658Y57401D01*
X26734Y57216D01*
X26857Y57057D01*
X27016Y56934D01*
X27201Y56858D01*
X27400Y56831D01*
X27599Y56858D01*
X27784Y56934D01*
X27943Y57057D01*
X28066Y57216D01*
X28142Y57401D01*
X28169Y57600D01*
X28142Y57799D01*
X28066Y57984D01*
X27943Y58143D01*
X27784Y58266D01*
X27599Y58342D01*
X27400Y58369D01*
D02*
G37*
G36*
X25200D02*
X25001Y58342D01*
X24816Y58266D01*
X24657Y58143D01*
X24534Y57984D01*
X24458Y57799D01*
X24431Y57600D01*
X24458Y57401D01*
X24534Y57216D01*
X24657Y57057D01*
X24816Y56934D01*
X25001Y56858D01*
X25200Y56831D01*
X25399Y56858D01*
X25584Y56934D01*
X25743Y57057D01*
X25866Y57216D01*
X25942Y57401D01*
X25969Y57600D01*
X25942Y57799D01*
X25866Y57984D01*
X25743Y58143D01*
X25584Y58266D01*
X25399Y58342D01*
X25200Y58369D01*
D02*
G37*
G36*
X43527Y57002D02*
X43051D01*
Y56601D01*
X43527D01*
Y57002D01*
D02*
G37*
G36*
X42949D02*
X42473D01*
Y56601D01*
X42949D01*
Y57002D01*
D02*
G37*
G36*
X43527Y56499D02*
X43051D01*
Y56098D01*
X43527D01*
Y56499D01*
D02*
G37*
G36*
X42949D02*
X42473D01*
Y56098D01*
X42949D01*
Y56499D01*
D02*
G37*
G36*
X33149Y56452D02*
X32598D01*
Y55951D01*
X33149D01*
Y56452D01*
D02*
G37*
G36*
X41152Y56049D02*
X40651D01*
Y55498D01*
X41152D01*
Y56049D01*
D02*
G37*
G36*
X40549D02*
X40048D01*
Y55498D01*
X40549D01*
Y56049D01*
D02*
G37*
G36*
X33149Y55849D02*
X32598D01*
Y55348D01*
X33149D01*
Y55849D01*
D02*
G37*
G36*
X21129Y56429D02*
X20656D01*
Y55056D01*
X21129D01*
Y56429D01*
D02*
G37*
G36*
X20144D02*
X19671D01*
Y55056D01*
X20144D01*
Y56429D01*
D02*
G37*
G36*
X16549D02*
X16076D01*
Y55056D01*
X16549D01*
Y56429D01*
D02*
G37*
G36*
X15564D02*
X15091D01*
Y55056D01*
X15564D01*
Y56429D01*
D02*
G37*
G36*
X31300Y59384D02*
X31153Y59355D01*
X31028Y59272D01*
X30945Y59147D01*
X30916Y59000D01*
X30945Y58853D01*
X31028Y58728D01*
X31040Y58720D01*
Y56156D01*
X30798D01*
Y55053D01*
X32002D01*
Y56156D01*
X31506D01*
Y58684D01*
X31572Y58728D01*
X31655Y58853D01*
X31684Y59000D01*
X31655Y59147D01*
X31572Y59272D01*
X31447Y59355D01*
X31300Y59384D01*
D02*
G37*
G36*
X29500Y56469D02*
X29301Y56442D01*
X29116Y56366D01*
X28957Y56243D01*
X28834Y56084D01*
X28758Y55899D01*
X28731Y55700D01*
X28758Y55501D01*
X28834Y55316D01*
X28957Y55157D01*
X29116Y55034D01*
X29301Y54958D01*
X29500Y54931D01*
X29699Y54958D01*
X29884Y55034D01*
X30043Y55157D01*
X30166Y55316D01*
X30242Y55501D01*
X30269Y55700D01*
X30242Y55899D01*
X30166Y56084D01*
X30043Y56243D01*
X29884Y56366D01*
X29699Y56442D01*
X29500Y56469D01*
D02*
G37*
G36*
X27500D02*
X27301Y56442D01*
X27116Y56366D01*
X26957Y56243D01*
X26834Y56084D01*
X26758Y55899D01*
X26731Y55700D01*
X26758Y55501D01*
X26834Y55316D01*
X26957Y55157D01*
X27116Y55034D01*
X27301Y54958D01*
X27500Y54931D01*
X27699Y54958D01*
X27884Y55034D01*
X28043Y55157D01*
X28166Y55316D01*
X28242Y55501D01*
X28269Y55700D01*
X28242Y55899D01*
X28166Y56084D01*
X28043Y56243D01*
X27884Y56366D01*
X27699Y56442D01*
X27500Y56469D01*
D02*
G37*
G36*
X9500Y55713D02*
Y54900D01*
X10313D01*
X10226Y55108D01*
X10001Y55401D01*
X9708Y55626D01*
X9500Y55713D01*
D02*
G37*
G36*
X5300D02*
Y54900D01*
X6113D01*
X6026Y55108D01*
X5801Y55401D01*
X5508Y55626D01*
X5300Y55713D01*
D02*
G37*
G36*
X8500D02*
X8292Y55626D01*
X7999Y55401D01*
X7774Y55108D01*
X7687Y54900D01*
X8500D01*
Y55713D01*
D02*
G37*
G36*
X4300D02*
X4092Y55626D01*
X3799Y55401D01*
X3574Y55108D01*
X3487Y54900D01*
X4300D01*
Y55713D01*
D02*
G37*
G36*
X41152Y55397D02*
X40651D01*
Y54846D01*
X41152D01*
Y55397D01*
D02*
G37*
G36*
X40549D02*
X40048D01*
Y54846D01*
X40549D01*
Y55397D01*
D02*
G37*
G36*
X25500Y56369D02*
X25301Y56342D01*
X25116Y56266D01*
X24957Y56143D01*
X24834Y55984D01*
X24758Y55799D01*
X24731Y55600D01*
X24758Y55401D01*
X24834Y55216D01*
X24957Y55057D01*
X25116Y54934D01*
X25301Y54858D01*
X25500Y54831D01*
X25699Y54858D01*
X25884Y54934D01*
X26043Y55057D01*
X26166Y55216D01*
X26242Y55401D01*
X26269Y55600D01*
X26242Y55799D01*
X26166Y55984D01*
X26043Y56143D01*
X25884Y56266D01*
X25699Y56342D01*
X25500Y56369D01*
D02*
G37*
G36*
X55252Y57877D02*
X54448D01*
Y56573D01*
X54617D01*
Y55850D01*
X54635Y55761D01*
X54685Y55685D01*
X54920Y55450D01*
X54858Y55299D01*
X54831Y55100D01*
X54858Y54901D01*
X54934Y54716D01*
X55057Y54557D01*
X55216Y54434D01*
X55401Y54358D01*
X55600Y54331D01*
X55799Y54358D01*
X55984Y54434D01*
X56143Y54557D01*
X56266Y54716D01*
X56342Y54901D01*
X56369Y55100D01*
X56342Y55299D01*
X56266Y55484D01*
X56143Y55643D01*
X55984Y55766D01*
X55799Y55842D01*
X55600Y55869D01*
X55401Y55842D01*
X55250Y55780D01*
X55083Y55947D01*
Y56573D01*
X55252D01*
Y57877D01*
D02*
G37*
G36*
X62000Y57510D02*
X61666Y57477D01*
X61346Y57380D01*
X61050Y57222D01*
X60791Y57009D01*
X60578Y56750D01*
X60420Y56454D01*
X60323Y56134D01*
X60290Y55800D01*
X60323Y55466D01*
X60420Y55146D01*
X60578Y54850D01*
X60791Y54591D01*
X61050Y54378D01*
X61346Y54220D01*
X61666Y54123D01*
X62000Y54090D01*
X62334Y54123D01*
X62654Y54220D01*
X62950Y54378D01*
X63209Y54591D01*
X63422Y54850D01*
X63580Y55146D01*
X63677Y55466D01*
X63710Y55800D01*
X63677Y56134D01*
X63580Y56454D01*
X63422Y56750D01*
X63209Y57009D01*
X62950Y57222D01*
X62654Y57380D01*
X62334Y57477D01*
X62000Y57510D01*
D02*
G37*
G36*
X41052Y54397D02*
X40551D01*
Y53847D01*
X41052D01*
Y54397D01*
D02*
G37*
G36*
X40449D02*
X39948D01*
Y53847D01*
X40449D01*
Y54397D01*
D02*
G37*
G36*
X21129Y54544D02*
X20656D01*
Y53171D01*
X21129D01*
Y54544D01*
D02*
G37*
G36*
X20144D02*
X19671D01*
Y53171D01*
X20144D01*
Y54544D01*
D02*
G37*
G36*
X16549D02*
X16076D01*
Y53171D01*
X16549D01*
Y54544D01*
D02*
G37*
G36*
X15564D02*
X15091D01*
Y53171D01*
X15564D01*
Y54544D01*
D02*
G37*
G36*
X10313Y53900D02*
X9500D01*
Y53087D01*
X9708Y53174D01*
X10001Y53399D01*
X10226Y53692D01*
X10313Y53900D01*
D02*
G37*
G36*
X6113D02*
X5300D01*
Y53087D01*
X5508Y53174D01*
X5801Y53399D01*
X6026Y53692D01*
X6113Y53900D01*
D02*
G37*
G36*
X8500D02*
X7687D01*
X7774Y53692D01*
X7999Y53399D01*
X8292Y53174D01*
X8500Y53087D01*
Y53900D01*
D02*
G37*
G36*
X4300D02*
X3487D01*
X3574Y53692D01*
X3799Y53399D01*
X4092Y53174D01*
X4300Y53087D01*
Y53900D01*
D02*
G37*
G36*
X27600Y54469D02*
X27401Y54442D01*
X27216Y54366D01*
X27057Y54243D01*
X26934Y54084D01*
X26858Y53899D01*
X26831Y53700D01*
X26858Y53501D01*
X26934Y53316D01*
X27057Y53157D01*
X27216Y53034D01*
X27401Y52958D01*
X27600Y52931D01*
X27799Y52958D01*
X27984Y53034D01*
X28143Y53157D01*
X28266Y53316D01*
X28342Y53501D01*
X28369Y53700D01*
X28342Y53899D01*
X28266Y54084D01*
X28143Y54243D01*
X27984Y54366D01*
X27799Y54442D01*
X27600Y54469D01*
D02*
G37*
G36*
X25200D02*
X25001Y54442D01*
X24816Y54366D01*
X24657Y54243D01*
X24534Y54084D01*
X24458Y53899D01*
X24431Y53700D01*
X24458Y53501D01*
X24534Y53316D01*
X24657Y53157D01*
X24816Y53034D01*
X25001Y52958D01*
X25200Y52931D01*
X25399Y52958D01*
X25584Y53034D01*
X25743Y53157D01*
X25866Y53316D01*
X25942Y53501D01*
X25969Y53700D01*
X25942Y53899D01*
X25866Y54084D01*
X25743Y54243D01*
X25584Y54366D01*
X25399Y54442D01*
X25200Y54469D01*
D02*
G37*
G36*
X53352Y57877D02*
X52548D01*
Y56573D01*
X52717D01*
Y55950D01*
X52735Y55861D01*
X52785Y55785D01*
X54920Y53650D01*
X54858Y53499D01*
X54831Y53300D01*
X54858Y53101D01*
X54934Y52916D01*
X55057Y52757D01*
X55216Y52634D01*
X55401Y52558D01*
X55600Y52531D01*
X55799Y52558D01*
X55984Y52634D01*
X56143Y52757D01*
X56266Y52916D01*
X56342Y53101D01*
X56369Y53300D01*
X56342Y53499D01*
X56266Y53684D01*
X56143Y53843D01*
X55984Y53966D01*
X55799Y54042D01*
X55600Y54069D01*
X55401Y54042D01*
X55250Y53980D01*
X53183Y56047D01*
Y56573D01*
X53352D01*
Y57877D01*
D02*
G37*
G36*
X31152Y53004D02*
X30651D01*
Y52453D01*
X31152D01*
Y53004D01*
D02*
G37*
G36*
X30549D02*
X30048D01*
Y52453D01*
X30549D01*
Y53004D01*
D02*
G37*
G36*
X53300Y53869D02*
X53101Y53842D01*
X52916Y53766D01*
X52757Y53643D01*
X52634Y53484D01*
X52558Y53299D01*
X52531Y53100D01*
X52558Y52901D01*
X52634Y52716D01*
X52757Y52557D01*
X52916Y52434D01*
X53101Y52358D01*
X53300Y52331D01*
X53499Y52358D01*
X53684Y52434D01*
X53843Y52557D01*
X53966Y52716D01*
X54042Y52901D01*
X54069Y53100D01*
X54042Y53299D01*
X53966Y53484D01*
X53843Y53643D01*
X53684Y53766D01*
X53499Y53842D01*
X53300Y53869D01*
D02*
G37*
G36*
X48100D02*
X47901Y53842D01*
X47716Y53766D01*
X47557Y53643D01*
X47434Y53484D01*
X47358Y53299D01*
X47331Y53100D01*
X47358Y52901D01*
X47434Y52716D01*
X47557Y52557D01*
X47716Y52434D01*
X47901Y52358D01*
X48100Y52331D01*
X48299Y52358D01*
X48484Y52434D01*
X48643Y52557D01*
X48766Y52716D01*
X48842Y52901D01*
X48869Y53100D01*
X48842Y53299D01*
X48766Y53484D01*
X48643Y53643D01*
X48484Y53766D01*
X48299Y53842D01*
X48100Y53869D01*
D02*
G37*
G36*
X47000Y56984D02*
X46853Y56955D01*
X46728Y56872D01*
X46645Y56747D01*
X46616Y56600D01*
X46645Y56453D01*
X46728Y56328D01*
X46767Y56302D01*
Y55297D01*
X43546Y52075D01*
X43500Y52084D01*
X43353Y52055D01*
X43228Y51972D01*
X43145Y51847D01*
X43116Y51700D01*
X43145Y51553D01*
X43228Y51428D01*
X43267Y51402D01*
Y51200D01*
X43285Y51111D01*
X43335Y51035D01*
X45016Y49354D01*
X44945Y49247D01*
X44916Y49100D01*
X44945Y48953D01*
X45028Y48828D01*
X45153Y48745D01*
X45300Y48716D01*
X45447Y48745D01*
X45572Y48828D01*
X45655Y48953D01*
X45684Y49100D01*
X45655Y49247D01*
X45572Y49372D01*
X45533Y49398D01*
Y49400D01*
X45515Y49489D01*
X45465Y49565D01*
X43745Y51285D01*
X43753Y51415D01*
X43772Y51428D01*
X43855Y51553D01*
X43884Y51700D01*
X43875Y51746D01*
X47165Y55035D01*
X47215Y55111D01*
X47233Y55200D01*
Y56302D01*
X47272Y56328D01*
X47355Y56453D01*
X47384Y56600D01*
X47355Y56747D01*
X47272Y56872D01*
X47147Y56955D01*
X47000Y56984D01*
D02*
G37*
G36*
X31152Y52352D02*
X30651D01*
Y51801D01*
X31152D01*
Y52352D01*
D02*
G37*
G36*
X30549D02*
X30048D01*
Y51801D01*
X30549D01*
Y52352D01*
D02*
G37*
G36*
X41102Y51849D02*
X40701D01*
Y51373D01*
X41102D01*
Y51849D01*
D02*
G37*
G36*
X40599D02*
X40198D01*
Y51373D01*
X40599D01*
Y51849D01*
D02*
G37*
G36*
X41200Y50886D02*
X41014Y50849D01*
X40856Y50744D01*
X40751Y50586D01*
X40714Y50400D01*
X40751Y50214D01*
X40856Y50056D01*
X41014Y49951D01*
X41200Y49914D01*
X41386Y49951D01*
X41544Y50056D01*
X41649Y50214D01*
X41686Y50400D01*
X41649Y50586D01*
X41544Y50744D01*
X41386Y50849D01*
X41200Y50886D01*
D02*
G37*
G36*
X53900Y50469D02*
X53701Y50442D01*
X53516Y50366D01*
X53357Y50243D01*
X53234Y50084D01*
X53158Y49899D01*
X53131Y49700D01*
X53158Y49501D01*
X53234Y49316D01*
X53357Y49157D01*
X53516Y49034D01*
X53701Y48958D01*
X53900Y48931D01*
X54099Y48958D01*
X54284Y49034D01*
X54443Y49157D01*
X54566Y49316D01*
X54642Y49501D01*
X54669Y49700D01*
X54642Y49899D01*
X54566Y50084D01*
X54443Y50243D01*
X54284Y50366D01*
X54099Y50442D01*
X53900Y50469D01*
D02*
G37*
G36*
X48100D02*
X47901Y50442D01*
X47716Y50366D01*
X47557Y50243D01*
X47434Y50084D01*
X47358Y49899D01*
X47331Y49700D01*
X47358Y49501D01*
X47434Y49316D01*
X47557Y49157D01*
X47716Y49034D01*
X47901Y48958D01*
X48100Y48931D01*
X48299Y48958D01*
X48484Y49034D01*
X48643Y49157D01*
X48766Y49316D01*
X48842Y49501D01*
X48869Y49700D01*
X48842Y49899D01*
X48766Y50084D01*
X48643Y50243D01*
X48484Y50366D01*
X48299Y50442D01*
X48100Y50469D01*
D02*
G37*
G36*
X36900Y48286D02*
X36714Y48249D01*
X36556Y48144D01*
X36451Y47986D01*
X36414Y47800D01*
X36451Y47614D01*
X36556Y47456D01*
X36714Y47351D01*
X36900Y47314D01*
X37086Y47351D01*
X37244Y47456D01*
X37349Y47614D01*
X37386Y47800D01*
X37349Y47986D01*
X37244Y48144D01*
X37086Y48249D01*
X36900Y48286D01*
D02*
G37*
G36*
X51400Y47569D02*
X51201Y47542D01*
X51016Y47466D01*
X50857Y47343D01*
X50734Y47184D01*
X50658Y46999D01*
X50631Y46800D01*
X50658Y46601D01*
X50734Y46416D01*
X50857Y46257D01*
X51016Y46134D01*
X51201Y46058D01*
X51400Y46031D01*
X51599Y46058D01*
X51784Y46134D01*
X51943Y46257D01*
X52066Y46416D01*
X52142Y46601D01*
X52169Y46800D01*
X52142Y46999D01*
X52066Y47184D01*
X51943Y47343D01*
X51784Y47466D01*
X51599Y47542D01*
X51400Y47569D01*
D02*
G37*
G36*
X49400D02*
X49201Y47542D01*
X49016Y47466D01*
X48857Y47343D01*
X48734Y47184D01*
X48658Y46999D01*
X48631Y46800D01*
X48658Y46601D01*
X48734Y46416D01*
X48857Y46257D01*
X49016Y46134D01*
X49201Y46058D01*
X49400Y46031D01*
X49599Y46058D01*
X49784Y46134D01*
X49943Y46257D01*
X50066Y46416D01*
X50142Y46601D01*
X50169Y46800D01*
X50142Y46999D01*
X50066Y47184D01*
X49943Y47343D01*
X49784Y47466D01*
X49599Y47542D01*
X49400Y47569D01*
D02*
G37*
G36*
X47300D02*
X47101Y47542D01*
X46916Y47466D01*
X46757Y47343D01*
X46634Y47184D01*
X46558Y46999D01*
X46531Y46800D01*
X46558Y46601D01*
X46620Y46450D01*
X44503Y44333D01*
X27897D01*
X27680Y44550D01*
X27742Y44701D01*
X27769Y44900D01*
X27742Y45099D01*
X27666Y45284D01*
X27543Y45443D01*
X27384Y45566D01*
X27199Y45642D01*
X27000Y45669D01*
X26801Y45642D01*
X26616Y45566D01*
X26457Y45443D01*
X26334Y45284D01*
X26258Y45099D01*
X26231Y44900D01*
X26258Y44701D01*
X26334Y44516D01*
X26457Y44357D01*
X26616Y44234D01*
X26801Y44158D01*
X27000Y44131D01*
X27199Y44158D01*
X27350Y44220D01*
X27635Y43935D01*
X27711Y43885D01*
X27800Y43867D01*
X44600D01*
X44689Y43885D01*
X44765Y43935D01*
X46950Y46120D01*
X47101Y46058D01*
X47300Y46031D01*
X47499Y46058D01*
X47684Y46134D01*
X47843Y46257D01*
X47966Y46416D01*
X48042Y46601D01*
X48069Y46800D01*
X48042Y46999D01*
X47966Y47184D01*
X47843Y47343D01*
X47684Y47466D01*
X47499Y47542D01*
X47300Y47569D01*
D02*
G37*
G36*
X39300D02*
X39101Y47542D01*
X38916Y47466D01*
X38757Y47343D01*
X38634Y47184D01*
X38558Y46999D01*
X38531Y46800D01*
X38558Y46601D01*
X38634Y46416D01*
X38757Y46257D01*
X38916Y46134D01*
X39101Y46058D01*
X39300Y46031D01*
X39499Y46058D01*
X39684Y46134D01*
X39843Y46257D01*
X39966Y46416D01*
X40042Y46601D01*
X40069Y46800D01*
X40042Y46999D01*
X39966Y47184D01*
X39843Y47343D01*
X39684Y47466D01*
X39499Y47542D01*
X39300Y47569D01*
D02*
G37*
G36*
X62500Y45586D02*
Y44300D01*
X63786D01*
X63721Y44513D01*
X63549Y44835D01*
X63317Y45117D01*
X63035Y45349D01*
X62713Y45521D01*
X62500Y45586D01*
D02*
G37*
G36*
X61500D02*
X61287Y45521D01*
X60965Y45349D01*
X60683Y45117D01*
X60451Y44835D01*
X60279Y44513D01*
X60214Y44300D01*
X61500D01*
Y45586D01*
D02*
G37*
G36*
X66000Y47510D02*
X65666Y47477D01*
X65346Y47380D01*
X65050Y47222D01*
X64791Y47009D01*
X64578Y46750D01*
X64420Y46454D01*
X64323Y46134D01*
X64290Y45800D01*
X64323Y45466D01*
X64420Y45146D01*
X64578Y44850D01*
X64791Y44591D01*
X65050Y44378D01*
X65346Y44220D01*
X65666Y44123D01*
X66000Y44090D01*
X66334Y44123D01*
X66654Y44220D01*
X66950Y44378D01*
X67209Y44591D01*
X67422Y44850D01*
X67580Y45146D01*
X67677Y45466D01*
X67710Y45800D01*
X67677Y46134D01*
X67580Y46454D01*
X67422Y46750D01*
X67209Y47009D01*
X66950Y47222D01*
X66654Y47380D01*
X66334Y47477D01*
X66000Y47510D01*
D02*
G37*
G36*
X63786Y43300D02*
X62500D01*
Y42014D01*
X62713Y42079D01*
X63035Y42251D01*
X63317Y42483D01*
X63549Y42765D01*
X63721Y43087D01*
X63786Y43300D01*
D02*
G37*
G36*
X61500D02*
X60214D01*
X60279Y43087D01*
X60451Y42765D01*
X60683Y42483D01*
X60965Y42251D01*
X61287Y42079D01*
X61500Y42014D01*
Y43300D01*
D02*
G37*
G36*
X5100Y47911D02*
X4613Y47873D01*
X4139Y47759D01*
X3688Y47572D01*
X3271Y47317D01*
X2900Y47000D01*
X2583Y46629D01*
X2328Y46212D01*
X2141Y45761D01*
X2027Y45287D01*
X1989Y44800D01*
X2027Y44313D01*
X2141Y43839D01*
X2328Y43388D01*
X2583Y42971D01*
X2900Y42600D01*
X3271Y42283D01*
X3688Y42028D01*
X4139Y41841D01*
X4613Y41727D01*
X5100Y41689D01*
X5587Y41727D01*
X6061Y41841D01*
X6512Y42028D01*
X6929Y42283D01*
X7300Y42600D01*
X7617Y42971D01*
X7872Y43388D01*
X8059Y43839D01*
X8173Y44313D01*
X8211Y44800D01*
X8173Y45287D01*
X8059Y45761D01*
X7872Y46212D01*
X7617Y46629D01*
X7300Y47000D01*
X6929Y47317D01*
X6512Y47572D01*
X6061Y47759D01*
X5587Y47873D01*
X5100Y47911D01*
D02*
G37*
G36*
X66000Y43510D02*
X65666Y43477D01*
X65346Y43380D01*
X65050Y43222D01*
X64791Y43009D01*
X64578Y42750D01*
X64420Y42454D01*
X64323Y42134D01*
X64290Y41800D01*
X64323Y41466D01*
X64420Y41146D01*
X64578Y40850D01*
X64791Y40591D01*
X65050Y40378D01*
X65346Y40220D01*
X65666Y40123D01*
X66000Y40090D01*
X66334Y40123D01*
X66654Y40220D01*
X66950Y40378D01*
X67209Y40591D01*
X67422Y40850D01*
X67580Y41146D01*
X67677Y41466D01*
X67710Y41800D01*
X67677Y42134D01*
X67580Y42454D01*
X67422Y42750D01*
X67209Y43009D01*
X66950Y43222D01*
X66654Y43380D01*
X66334Y43477D01*
X66000Y43510D01*
D02*
G37*
G36*
X38432Y39292D02*
X38091D01*
Y38951D01*
X38432D01*
Y39292D01*
D02*
G37*
G36*
X37989D02*
X37648D01*
Y38951D01*
X37989D01*
Y39292D01*
D02*
G37*
G36*
X38432Y38849D02*
X38091D01*
Y38508D01*
X38432D01*
Y38849D01*
D02*
G37*
G36*
X37989D02*
X37648D01*
Y38508D01*
X37989D01*
Y38849D01*
D02*
G37*
G36*
X66500Y39586D02*
Y38300D01*
X67786D01*
X67721Y38513D01*
X67549Y38835D01*
X67317Y39117D01*
X67035Y39349D01*
X66713Y39521D01*
X66500Y39586D01*
D02*
G37*
G36*
X65500D02*
X65287Y39521D01*
X64965Y39349D01*
X64683Y39117D01*
X64451Y38835D01*
X64279Y38513D01*
X64214Y38300D01*
X65500D01*
Y39586D01*
D02*
G37*
G36*
X56400Y44269D02*
X56201Y44242D01*
X56016Y44166D01*
X55857Y44043D01*
X55734Y43884D01*
X55658Y43699D01*
X55631Y43500D01*
X55658Y43301D01*
X55734Y43116D01*
X55857Y42957D01*
X56016Y42834D01*
X56201Y42758D01*
X56400Y42731D01*
X56599Y42758D01*
X56784Y42834D01*
X56943Y42957D01*
X57066Y43116D01*
X57128Y43267D01*
X57875D01*
X60513Y40628D01*
X60420Y40454D01*
X60323Y40134D01*
X60290Y39800D01*
X60323Y39466D01*
X60420Y39146D01*
X60578Y38850D01*
X60791Y38591D01*
X61050Y38378D01*
X61346Y38220D01*
X61666Y38123D01*
X62000Y38090D01*
X62334Y38123D01*
X62654Y38220D01*
X62950Y38378D01*
X63209Y38591D01*
X63422Y38850D01*
X63580Y39146D01*
X63677Y39466D01*
X63710Y39800D01*
X63677Y40134D01*
X63580Y40454D01*
X63422Y40750D01*
X63209Y41009D01*
X62950Y41222D01*
X62654Y41380D01*
X62334Y41477D01*
X62000Y41510D01*
X61666Y41477D01*
X61346Y41380D01*
X61050Y41222D01*
X60792Y41010D01*
X58136Y43665D01*
X58061Y43715D01*
X57971Y43733D01*
X57128D01*
X57066Y43884D01*
X56943Y44043D01*
X56784Y44166D01*
X56599Y44242D01*
X56400Y44269D01*
D02*
G37*
G36*
X18132Y38392D02*
X17791D01*
Y38051D01*
X18132D01*
Y38392D01*
D02*
G37*
G36*
X17689D02*
X17348D01*
Y38051D01*
X17689D01*
Y38392D01*
D02*
G37*
G36*
X18132Y37949D02*
X17791D01*
Y37608D01*
X18132D01*
Y37949D01*
D02*
G37*
G36*
X17689D02*
X17348D01*
Y37608D01*
X17689D01*
Y37949D01*
D02*
G37*
G36*
X27552Y37542D02*
X26837D01*
Y37352D01*
X27552D01*
Y37542D01*
D02*
G37*
G36*
X26736D02*
X26021D01*
Y37352D01*
X26736D01*
Y37542D01*
D02*
G37*
G36*
X39352Y39292D02*
X38568D01*
Y38508D01*
X38750D01*
Y38017D01*
X38768Y37927D01*
X38819Y37852D01*
X39020Y37650D01*
X38958Y37499D01*
X38931Y37300D01*
X38958Y37101D01*
X39034Y36916D01*
X39157Y36757D01*
X39316Y36634D01*
X39501Y36558D01*
X39700Y36531D01*
X39899Y36558D01*
X40084Y36634D01*
X40243Y36757D01*
X40366Y36916D01*
X40442Y37101D01*
X40469Y37300D01*
X40442Y37499D01*
X40366Y37684D01*
X40243Y37843D01*
X40084Y37966D01*
X39899Y38042D01*
X39700Y38069D01*
X39501Y38042D01*
X39350Y37980D01*
X39216Y38113D01*
Y38508D01*
X39352D01*
Y39292D01*
D02*
G37*
G36*
X67786Y37300D02*
X66500D01*
Y36014D01*
X66713Y36079D01*
X67035Y36251D01*
X67317Y36483D01*
X67549Y36765D01*
X67721Y37087D01*
X67786Y37300D01*
D02*
G37*
G36*
X65500D02*
X64214D01*
X64279Y37087D01*
X64451Y36765D01*
X64683Y36483D01*
X64965Y36251D01*
X65287Y36079D01*
X65500Y36014D01*
Y37300D01*
D02*
G37*
G36*
X19052Y38392D02*
X18268D01*
Y37608D01*
X18722D01*
X19458Y36872D01*
X19457Y36843D01*
X19334Y36684D01*
X19258Y36499D01*
X19231Y36300D01*
X19258Y36101D01*
X19334Y35916D01*
X19457Y35757D01*
X19616Y35634D01*
X19801Y35558D01*
X20000Y35531D01*
X20199Y35558D01*
X20384Y35634D01*
X20543Y35757D01*
X20666Y35916D01*
X20742Y36101D01*
X20769Y36300D01*
X20742Y36499D01*
X20666Y36684D01*
X20543Y36843D01*
X20384Y36966D01*
X20199Y37042D01*
X20000Y37069D01*
X19930Y37059D01*
X19052Y37938D01*
Y38392D01*
D02*
G37*
G36*
X66500Y35586D02*
Y34300D01*
X67786D01*
X67721Y34513D01*
X67549Y34835D01*
X67317Y35117D01*
X67035Y35349D01*
X66713Y35521D01*
X66500Y35586D01*
D02*
G37*
G36*
X65500D02*
X65287Y35521D01*
X64965Y35349D01*
X64683Y35117D01*
X64451Y34835D01*
X64279Y34513D01*
X64214Y34300D01*
X65500D01*
Y35586D01*
D02*
G37*
G36*
X55700Y40769D02*
X55501Y40742D01*
X55316Y40666D01*
X55157Y40543D01*
X55034Y40384D01*
X54958Y40199D01*
X54931Y40000D01*
X54958Y39801D01*
X55034Y39616D01*
X55157Y39457D01*
X55316Y39334D01*
X55501Y39258D01*
X55700Y39231D01*
X55899Y39258D01*
X56084Y39334D01*
X56243Y39457D01*
X56366Y39616D01*
X56428Y39767D01*
X57678D01*
X60631Y36814D01*
X60578Y36750D01*
X60420Y36454D01*
X60323Y36134D01*
X60290Y35800D01*
X60323Y35466D01*
X60420Y35146D01*
X60578Y34850D01*
X60791Y34591D01*
X61050Y34378D01*
X61346Y34220D01*
X61666Y34123D01*
X62000Y34090D01*
X62334Y34123D01*
X62654Y34220D01*
X62950Y34378D01*
X63209Y34591D01*
X63422Y34850D01*
X63580Y35146D01*
X63677Y35466D01*
X63710Y35800D01*
X63677Y36134D01*
X63580Y36454D01*
X63422Y36750D01*
X63209Y37009D01*
X62950Y37222D01*
X62654Y37380D01*
X62334Y37477D01*
X62000Y37510D01*
X61666Y37477D01*
X61346Y37380D01*
X61050Y37222D01*
X60958Y37146D01*
X57940Y40165D01*
X57864Y40215D01*
X57775Y40233D01*
X56428D01*
X56366Y40384D01*
X56243Y40543D01*
X56084Y40666D01*
X55899Y40742D01*
X55700Y40769D01*
D02*
G37*
G36*
X67786Y33300D02*
X66500D01*
Y32014D01*
X66713Y32079D01*
X67035Y32251D01*
X67317Y32483D01*
X67549Y32765D01*
X67721Y33087D01*
X67786Y33300D01*
D02*
G37*
G36*
X65500D02*
X64214D01*
X64279Y33087D01*
X64451Y32765D01*
X64683Y32483D01*
X64965Y32251D01*
X65287Y32079D01*
X65500Y32014D01*
Y33300D01*
D02*
G37*
G36*
X66500Y31586D02*
Y30300D01*
X67786D01*
X67721Y30513D01*
X67549Y30835D01*
X67317Y31117D01*
X67035Y31349D01*
X66713Y31521D01*
X66500Y31586D01*
D02*
G37*
G36*
X65500D02*
X65287Y31521D01*
X64965Y31349D01*
X64683Y31117D01*
X64451Y30835D01*
X64279Y30513D01*
X64214Y30300D01*
X65500D01*
Y31586D01*
D02*
G37*
G36*
X54800Y38669D02*
X54601Y38642D01*
X54416Y38566D01*
X54257Y38443D01*
X54134Y38284D01*
X54058Y38099D01*
X54031Y37900D01*
X54058Y37701D01*
X54134Y37516D01*
X54257Y37357D01*
X54416Y37234D01*
X54601Y37158D01*
X54800Y37131D01*
X54999Y37158D01*
X55184Y37234D01*
X55214Y37257D01*
X60326Y32144D01*
X60323Y32134D01*
X60290Y31800D01*
X60323Y31466D01*
X60420Y31146D01*
X60578Y30850D01*
X60791Y30591D01*
X61050Y30378D01*
X61346Y30220D01*
X61666Y30123D01*
X62000Y30090D01*
X62334Y30123D01*
X62654Y30220D01*
X62950Y30378D01*
X63209Y30591D01*
X63422Y30850D01*
X63580Y31146D01*
X63677Y31466D01*
X63710Y31800D01*
X63677Y32134D01*
X63580Y32454D01*
X63422Y32750D01*
X63209Y33009D01*
X62950Y33222D01*
X62654Y33380D01*
X62334Y33477D01*
X62000Y33510D01*
X61666Y33477D01*
X61346Y33380D01*
X61050Y33222D01*
X60791Y33009D01*
X60578Y32750D01*
X60559Y32714D01*
X60434Y32696D01*
X55509Y37621D01*
X55542Y37701D01*
X55569Y37900D01*
X55542Y38099D01*
X55466Y38284D01*
X55343Y38443D01*
X55184Y38566D01*
X54999Y38642D01*
X54800Y38669D01*
D02*
G37*
G36*
X67786Y29300D02*
X66500D01*
Y28014D01*
X66713Y28079D01*
X67035Y28251D01*
X67317Y28483D01*
X67549Y28765D01*
X67721Y29087D01*
X67786Y29300D01*
D02*
G37*
G36*
X65500D02*
X64214D01*
X64279Y29087D01*
X64451Y28765D01*
X64683Y28483D01*
X64965Y28251D01*
X65287Y28079D01*
X65500Y28014D01*
Y29300D01*
D02*
G37*
G36*
X70000Y29510D02*
X69666Y29477D01*
X69346Y29380D01*
X69050Y29222D01*
X68791Y29009D01*
X68578Y28750D01*
X68420Y28454D01*
X68323Y28134D01*
X68290Y27800D01*
X68323Y27466D01*
X68420Y27146D01*
X68578Y26850D01*
X68791Y26591D01*
X69050Y26378D01*
X69346Y26220D01*
X69666Y26123D01*
X70000Y26090D01*
X70334Y26123D01*
X70654Y26220D01*
X70950Y26378D01*
X71209Y26591D01*
X71422Y26850D01*
X71580Y27146D01*
X71677Y27466D01*
X71710Y27800D01*
X71677Y28134D01*
X71580Y28454D01*
X71422Y28750D01*
X71209Y29009D01*
X70950Y29222D01*
X70654Y29380D01*
X70334Y29477D01*
X70000Y29510D01*
D02*
G37*
G36*
X55600Y35469D02*
X55401Y35442D01*
X55216Y35366D01*
X55057Y35243D01*
X54934Y35084D01*
X54858Y34899D01*
X54831Y34700D01*
X54858Y34501D01*
X54934Y34316D01*
X55057Y34157D01*
X55216Y34034D01*
X55367Y33972D01*
Y33300D01*
X55385Y33211D01*
X55435Y33135D01*
X60350Y28221D01*
X60323Y28134D01*
X60290Y27800D01*
X60323Y27466D01*
X60420Y27146D01*
X60578Y26850D01*
X60791Y26591D01*
X61050Y26378D01*
X61346Y26220D01*
X61666Y26123D01*
X62000Y26090D01*
X62334Y26123D01*
X62654Y26220D01*
X62950Y26378D01*
X63209Y26591D01*
X63422Y26850D01*
X63580Y27146D01*
X63677Y27466D01*
X63710Y27800D01*
X63677Y28134D01*
X63580Y28454D01*
X63422Y28750D01*
X63209Y29009D01*
X62950Y29222D01*
X62654Y29380D01*
X62334Y29477D01*
X62000Y29510D01*
X61666Y29477D01*
X61346Y29380D01*
X61050Y29222D01*
X60791Y29009D01*
X60615Y28794D01*
X60461Y28768D01*
X55833Y33397D01*
Y33972D01*
X55984Y34034D01*
X56143Y34157D01*
X56266Y34316D01*
X56342Y34501D01*
X56369Y34700D01*
X56342Y34899D01*
X56266Y35084D01*
X56143Y35243D01*
X55984Y35366D01*
X55799Y35442D01*
X55600Y35469D01*
D02*
G37*
G36*
X66500Y22883D02*
X66191Y22852D01*
X65894Y22762D01*
X65621Y22616D01*
X65381Y22419D01*
X65184Y22179D01*
X65038Y21906D01*
X64948Y21609D01*
X64917Y21300D01*
X64948Y20991D01*
X65038Y20694D01*
X65184Y20421D01*
X65381Y20181D01*
X65621Y19984D01*
X65894Y19838D01*
X66191Y19748D01*
X66500Y19717D01*
X66809Y19748D01*
X67106Y19838D01*
X67379Y19984D01*
X67619Y20181D01*
X67816Y20421D01*
X67962Y20694D01*
X68052Y20991D01*
X68083Y21300D01*
X68052Y21609D01*
X67962Y21906D01*
X67816Y22179D01*
X67619Y22419D01*
X67379Y22616D01*
X67106Y22762D01*
X66809Y22852D01*
X66500Y22883D01*
D02*
G37*
G36*
X29906Y72212D02*
Y71504D01*
X30615D01*
X30549Y71663D01*
X30339Y71937D01*
X30066Y72146D01*
X29906Y72212D01*
D02*
G37*
G36*
X28906D02*
X28746Y72146D01*
X28473Y71937D01*
X28263Y71663D01*
X28197Y71504D01*
X28906D01*
Y72212D01*
D02*
G37*
G36*
X30615Y70504D02*
X29906D01*
Y69795D01*
X30066Y69861D01*
X30339Y70071D01*
X30549Y70344D01*
X30615Y70504D01*
D02*
G37*
G36*
X28906D02*
X28197D01*
X28263Y70344D01*
X28473Y70071D01*
X28746Y69861D01*
X28906Y69795D01*
Y70504D01*
D02*
G37*
G36*
X29906Y68809D02*
Y68100D01*
X30615D01*
X30549Y68260D01*
X30339Y68533D01*
X30066Y68743D01*
X29906Y68809D01*
D02*
G37*
G36*
X28906D02*
X28746Y68743D01*
X28473Y68533D01*
X28263Y68260D01*
X28197Y68100D01*
X28906D01*
Y68809D01*
D02*
G37*
G36*
X30615Y67100D02*
X29906D01*
Y66391D01*
X30066Y66457D01*
X30339Y66667D01*
X30549Y66940D01*
X30615Y67100D01*
D02*
G37*
G36*
X28906D02*
X28197D01*
X28263Y66940D01*
X28473Y66667D01*
X28746Y66457D01*
X28906Y66391D01*
Y67100D01*
D02*
G37*
G36*
X21139Y64804D02*
X18366D01*
Y61606D01*
X21139D01*
Y64804D01*
D02*
G37*
G36*
X17854D02*
X15081D01*
Y61606D01*
X17854D01*
Y64804D01*
D02*
G37*
G36*
X21139Y61094D02*
X18366D01*
Y57896D01*
X21139D01*
Y61094D01*
D02*
G37*
G36*
X17854D02*
X15081D01*
Y57896D01*
X17854D01*
Y61094D01*
D02*
G37*
G36*
X74229Y47354D02*
X73556D01*
Y46781D01*
X74229D01*
Y47354D01*
D02*
G37*
G36*
X73044D02*
X72371D01*
Y46781D01*
X73044D01*
Y47354D01*
D02*
G37*
G36*
X74229Y44619D02*
X73556D01*
Y44046D01*
X74229D01*
Y44619D01*
D02*
G37*
G36*
X73044D02*
X72371D01*
Y44046D01*
X73044D01*
Y44619D01*
D02*
G37*
G36*
X70500Y41586D02*
Y40300D01*
X71786D01*
X71721Y40513D01*
X71549Y40835D01*
X71317Y41117D01*
X71035Y41349D01*
X70713Y41521D01*
X70500Y41586D01*
D02*
G37*
G36*
X71786Y39300D02*
X70500D01*
Y38014D01*
X70713Y38079D01*
X71035Y38251D01*
X71317Y38483D01*
X71549Y38765D01*
X71721Y39087D01*
X71786Y39300D01*
D02*
G37*
G36*
X70500Y37586D02*
Y36300D01*
X71786D01*
X71721Y36513D01*
X71549Y36835D01*
X71317Y37117D01*
X71035Y37349D01*
X70713Y37521D01*
X70500Y37586D01*
D02*
G37*
G36*
X71786Y35300D02*
X70500D01*
Y34014D01*
X70713Y34079D01*
X71035Y34251D01*
X71317Y34483D01*
X71549Y34765D01*
X71721Y35087D01*
X71786Y35300D01*
D02*
G37*
G36*
X70500Y33586D02*
Y32300D01*
X71786D01*
X71721Y32513D01*
X71549Y32835D01*
X71317Y33117D01*
X71035Y33349D01*
X70713Y33521D01*
X70500Y33586D01*
D02*
G37*
G36*
X47052Y37542D02*
X46337D01*
Y37352D01*
X47052D01*
Y37542D01*
D02*
G37*
G36*
X46236D02*
X45521D01*
Y37352D01*
X46236D01*
Y37542D01*
D02*
G37*
G36*
X26100Y27669D02*
X25901Y27642D01*
X25716Y27566D01*
X25557Y27443D01*
X25434Y27284D01*
X25358Y27099D01*
X25331Y26900D01*
X25358Y26701D01*
X25434Y26516D01*
X25557Y26357D01*
X25716Y26234D01*
X25901Y26158D01*
X26100Y26131D01*
X26299Y26158D01*
X26484Y26234D01*
X26643Y26357D01*
X26766Y26516D01*
X26842Y26701D01*
X26869Y26900D01*
X26842Y27099D01*
X26766Y27284D01*
X26643Y27443D01*
X26484Y27566D01*
X26299Y27642D01*
X26100Y27669D01*
D02*
G37*
G36*
X36627Y19491D02*
Y19027D01*
X37091D01*
X37069Y19136D01*
X36935Y19335D01*
X36736Y19469D01*
X36627Y19491D01*
D02*
G37*
G36*
X36373D02*
X36264Y19469D01*
X36065Y19335D01*
X35931Y19136D01*
X35909Y19027D01*
X36373D01*
Y19491D01*
D02*
G37*
G36*
X37091Y18773D02*
X36627D01*
Y18309D01*
X36736Y18331D01*
X36935Y18465D01*
X37069Y18664D01*
X37091Y18773D01*
D02*
G37*
G36*
X36373D02*
X35909D01*
X35931Y18664D01*
X36065Y18465D01*
X36264Y18331D01*
X36373Y18309D01*
Y18773D01*
D02*
G37*
G36*
X33511Y15302D02*
X33285D01*
Y14951D01*
X33511D01*
Y15302D01*
D02*
G37*
G36*
X33183D02*
X32958D01*
Y14951D01*
X33183D01*
Y15302D01*
D02*
G37*
G36*
X33511Y14849D02*
X33285D01*
Y14498D01*
X33511D01*
Y14849D01*
D02*
G37*
G36*
X33183D02*
X32958D01*
Y14498D01*
X33183D01*
Y14849D01*
D02*
G37*
G36*
X5100Y32869D02*
X4901Y32842D01*
X4716Y32766D01*
X4557Y32643D01*
X4434Y32484D01*
X4358Y32299D01*
X4331Y32100D01*
X4358Y31901D01*
X4434Y31716D01*
X4557Y31557D01*
X4716Y31434D01*
X4901Y31358D01*
X5100Y31331D01*
X5299Y31358D01*
X5484Y31434D01*
X5643Y31557D01*
X5766Y31716D01*
X5842Y31901D01*
X5869Y32100D01*
X5842Y32299D01*
X5766Y32484D01*
X5643Y32643D01*
X5484Y32766D01*
X5299Y32842D01*
X5100Y32869D01*
D02*
G37*
G36*
X11400Y31769D02*
X11201Y31742D01*
X11016Y31666D01*
X10857Y31543D01*
X10734Y31384D01*
X10658Y31199D01*
X10631Y31000D01*
X10658Y30801D01*
X10734Y30616D01*
X10857Y30457D01*
X11016Y30334D01*
X11201Y30258D01*
X11400Y30231D01*
X11599Y30258D01*
X11784Y30334D01*
X11943Y30457D01*
X12066Y30616D01*
X12142Y30801D01*
X12169Y31000D01*
X12142Y31199D01*
X12066Y31384D01*
X11943Y31543D01*
X11784Y31666D01*
X11599Y31742D01*
X11400Y31769D01*
D02*
G37*
G36*
X8500Y31669D02*
X8301Y31642D01*
X8116Y31566D01*
X7957Y31443D01*
X7834Y31284D01*
X7758Y31099D01*
X7731Y30900D01*
X7758Y30701D01*
X7834Y30516D01*
X7957Y30357D01*
X8116Y30234D01*
X8301Y30158D01*
X8500Y30131D01*
X8699Y30158D01*
X8884Y30234D01*
X9043Y30357D01*
X9166Y30516D01*
X9242Y30701D01*
X9269Y30900D01*
X9242Y31099D01*
X9166Y31284D01*
X9043Y31443D01*
X8884Y31566D01*
X8699Y31642D01*
X8500Y31669D01*
D02*
G37*
G36*
X11400Y29069D02*
X11201Y29042D01*
X11016Y28966D01*
X10857Y28843D01*
X10734Y28684D01*
X10658Y28499D01*
X10631Y28300D01*
X10658Y28101D01*
X10734Y27916D01*
X10857Y27757D01*
X11016Y27634D01*
X11201Y27558D01*
X11400Y27531D01*
X11599Y27558D01*
X11784Y27634D01*
X11943Y27757D01*
X12066Y27916D01*
X12142Y28101D01*
X12169Y28300D01*
X12142Y28499D01*
X12066Y28684D01*
X11943Y28843D01*
X11784Y28966D01*
X11599Y29042D01*
X11400Y29069D01*
D02*
G37*
G36*
X8550Y29019D02*
X8351Y28992D01*
X8166Y28916D01*
X8007Y28793D01*
X7884Y28634D01*
X7808Y28449D01*
X7781Y28250D01*
X7808Y28051D01*
X7884Y27866D01*
X8007Y27707D01*
X8166Y27584D01*
X8351Y27508D01*
X8550Y27481D01*
X8749Y27508D01*
X8934Y27584D01*
X9093Y27707D01*
X9216Y27866D01*
X9292Y28051D01*
X9319Y28250D01*
X9292Y28449D01*
X9216Y28634D01*
X9093Y28793D01*
X8934Y28916D01*
X8749Y28992D01*
X8550Y29019D01*
D02*
G37*
G36*
X20800Y27869D02*
X20601Y27842D01*
X20416Y27766D01*
X20257Y27643D01*
X20134Y27484D01*
X20058Y27299D01*
X20031Y27100D01*
X20058Y26901D01*
X20134Y26716D01*
X20257Y26557D01*
X20416Y26434D01*
X20601Y26358D01*
X20800Y26331D01*
X20999Y26358D01*
X21184Y26434D01*
X21343Y26557D01*
X21466Y26716D01*
X21542Y26901D01*
X21569Y27100D01*
X21542Y27299D01*
X21466Y27484D01*
X21343Y27643D01*
X21184Y27766D01*
X20999Y27842D01*
X20800Y27869D01*
D02*
G37*
G36*
X18600D02*
X18401Y27842D01*
X18216Y27766D01*
X18057Y27643D01*
X17934Y27484D01*
X17858Y27299D01*
X17831Y27100D01*
X17858Y26901D01*
X17934Y26716D01*
X18057Y26557D01*
X18216Y26434D01*
X18401Y26358D01*
X18600Y26331D01*
X18799Y26358D01*
X18984Y26434D01*
X19143Y26557D01*
X19266Y26716D01*
X19342Y26901D01*
X19369Y27100D01*
X19342Y27299D01*
X19266Y27484D01*
X19143Y27643D01*
X18984Y27766D01*
X18799Y27842D01*
X18600Y27869D01*
D02*
G37*
G36*
X36500Y27669D02*
X36301Y27642D01*
X36116Y27566D01*
X35957Y27443D01*
X35834Y27284D01*
X35758Y27099D01*
X35731Y26900D01*
X35758Y26701D01*
X35834Y26516D01*
X35957Y26357D01*
X36116Y26234D01*
X36301Y26158D01*
X36500Y26131D01*
X36699Y26158D01*
X36884Y26234D01*
X37043Y26357D01*
X37166Y26516D01*
X37242Y26701D01*
X37269Y26900D01*
X37242Y27099D01*
X37166Y27284D01*
X37043Y27443D01*
X36884Y27566D01*
X36699Y27642D01*
X36500Y27669D01*
D02*
G37*
G36*
X20700Y25569D02*
X20501Y25542D01*
X20316Y25466D01*
X20157Y25343D01*
X20034Y25184D01*
X19958Y24999D01*
X19931Y24800D01*
X19852Y24710D01*
X19448D01*
X19369Y24800D01*
X19342Y24999D01*
X19266Y25184D01*
X19143Y25343D01*
X18984Y25466D01*
X18799Y25542D01*
X18600Y25569D01*
X18401Y25542D01*
X18216Y25466D01*
X18057Y25343D01*
X17934Y25184D01*
X17858Y24999D01*
X17831Y24800D01*
X17752Y24710D01*
X10500D01*
X10422Y24678D01*
X10390Y24600D01*
Y6800D01*
X10422Y6722D01*
X11522Y5622D01*
X11600Y5590D01*
X18796D01*
X18800Y5590D01*
X18923Y5504D01*
Y4573D01*
X22877D01*
Y6167D01*
X23225D01*
X23362Y6194D01*
X23478Y6272D01*
X23948Y6742D01*
X25104D01*
X25301Y6544D01*
X25253Y6427D01*
X25098D01*
Y6427D01*
X25002D01*
Y6427D01*
X24448D01*
Y4823D01*
X24492D01*
Y4475D01*
X24510Y4386D01*
X24560Y4310D01*
X25435Y3435D01*
X25511Y3385D01*
X25600Y3367D01*
X27503D01*
X29635Y1235D01*
X29711Y1185D01*
X29800Y1167D01*
X31800D01*
X31889Y1185D01*
X31965Y1235D01*
X32897Y2167D01*
X33348D01*
Y2008D01*
X34132D01*
Y2792D01*
X33348D01*
Y2633D01*
X32800D01*
X32711Y2615D01*
X32635Y2565D01*
X31703Y1633D01*
X30418D01*
X30399Y1758D01*
X30584Y1834D01*
X30743Y1957D01*
X30866Y2116D01*
X30942Y2301D01*
X30969Y2500D01*
X30942Y2699D01*
X30866Y2884D01*
X30743Y3043D01*
X30585Y3165D01*
Y4120D01*
X30827D01*
Y4873D01*
X30708D01*
Y5172D01*
X30827D01*
Y5925D01*
X30708D01*
Y6223D01*
X30827D01*
Y6977D01*
X30123D01*
Y6500D01*
X30119Y6477D01*
X30123Y6454D01*
Y6223D01*
X30242D01*
Y5925D01*
X30123D01*
Y5172D01*
X30242D01*
Y4873D01*
X30123D01*
Y4396D01*
X30119Y4373D01*
Y3258D01*
X30001Y3242D01*
X29816Y3166D01*
X29657Y3043D01*
X29534Y2884D01*
X29458Y2699D01*
X29431Y2500D01*
X29458Y2301D01*
X29493Y2217D01*
X29385Y2145D01*
X28280Y3250D01*
X28329Y3367D01*
X28654D01*
X28743Y3385D01*
X28819Y3435D01*
X29503Y4120D01*
X29877D01*
Y4873D01*
X29758D01*
Y5172D01*
X29877D01*
Y5925D01*
X29370D01*
X29322Y6042D01*
X29503Y6223D01*
X29877D01*
Y6977D01*
X29173D01*
Y6553D01*
X27203Y4583D01*
X25647D01*
X25608Y4622D01*
Y4714D01*
X25652Y4823D01*
X25748D01*
Y4823D01*
X26271D01*
X26302Y4823D01*
X26398D01*
X26429Y4823D01*
X26952D01*
Y6427D01*
X26429D01*
X26398Y6427D01*
X26302D01*
X26271Y6427D01*
X26078D01*
X25990Y6514D01*
X25943Y6584D01*
X25913Y6615D01*
X25966Y6742D01*
X26500D01*
X26637Y6769D01*
X26753Y6847D01*
X29148Y9242D01*
X30452D01*
X34408Y5285D01*
Y5078D01*
X33379D01*
Y3720D01*
X36790D01*
Y5078D01*
X35125D01*
Y5434D01*
X35098Y5571D01*
X35020Y5687D01*
X30853Y9853D01*
X30737Y9931D01*
X30600Y9958D01*
X29000D01*
X28863Y9931D01*
X28747Y9853D01*
X26578Y7685D01*
X26542Y7690D01*
X26449Y7735D01*
X26438Y7792D01*
X26387Y7867D01*
X26312Y7918D01*
X26222Y7935D01*
X26133Y7918D01*
X26058Y7867D01*
X26035Y7845D01*
X25985Y7769D01*
X25967Y7680D01*
X25985Y7591D01*
X25988Y7585D01*
X25920Y7458D01*
X23800D01*
X23663Y7431D01*
X23547Y7353D01*
X23077Y6883D01*
X22877D01*
Y8477D01*
X19037D01*
X18923Y8477D01*
X18910Y8598D01*
Y10802D01*
X18923Y10923D01*
X22877D01*
Y14345D01*
X24953Y16421D01*
X25031Y16538D01*
X25058Y16675D01*
Y16698D01*
X25452D01*
Y17476D01*
X25569Y17524D01*
X26342Y16751D01*
Y16400D01*
X26348Y16365D01*
Y15748D01*
X27452D01*
Y15942D01*
X29123D01*
Y15823D01*
X29877D01*
Y16527D01*
X29123D01*
Y16408D01*
X27452D01*
Y16752D01*
X27059D01*
Y16900D01*
X27031Y17037D01*
X26954Y17153D01*
X26576Y17531D01*
X26624Y17648D01*
X27452D01*
Y18072D01*
X28038Y18658D01*
X28056Y18656D01*
X28214Y18551D01*
X28400Y18514D01*
X28586Y18551D01*
X28744Y18656D01*
X28849Y18814D01*
X28886Y19000D01*
X28849Y19186D01*
X28744Y19344D01*
X28586Y19449D01*
X28400Y19486D01*
X28214Y19449D01*
X28056Y19344D01*
X27972Y19217D01*
X27961Y19215D01*
X27885Y19165D01*
X27372Y18652D01*
X26348D01*
Y17924D01*
X26231Y17876D01*
X24258Y19848D01*
Y20900D01*
X24231Y21037D01*
X24153Y21153D01*
X23012Y22295D01*
X22987Y22351D01*
X22978Y22433D01*
X22992Y22467D01*
X23009Y22500D01*
X23008Y22505D01*
X23010Y22510D01*
Y24600D01*
X22978Y24678D01*
X22900Y24710D01*
X21548D01*
X21469Y24800D01*
X21442Y24999D01*
X21366Y25184D01*
X21243Y25343D01*
X21084Y25466D01*
X20899Y25542D01*
X20700Y25569D01*
D02*
G37*
G36*
X46500Y21469D02*
X46301Y21442D01*
X46116Y21366D01*
X45957Y21243D01*
X45834Y21084D01*
X45758Y20899D01*
X45731Y20700D01*
X45758Y20501D01*
X45834Y20316D01*
X45957Y20157D01*
X46116Y20034D01*
X46301Y19958D01*
X46500Y19931D01*
X46699Y19958D01*
X46884Y20034D01*
X47043Y20157D01*
X47166Y20316D01*
X47242Y20501D01*
X47269Y20700D01*
X47242Y20899D01*
X47166Y21084D01*
X47043Y21243D01*
X46884Y21366D01*
X46699Y21442D01*
X46500Y21469D01*
D02*
G37*
G36*
X31111Y20002D02*
Y19651D01*
X31462D01*
Y20002D01*
X31111D01*
D02*
G37*
G36*
X39200Y20869D02*
X39001Y20842D01*
X38816Y20766D01*
X38657Y20643D01*
X38534Y20484D01*
X38458Y20299D01*
X38431Y20100D01*
X38458Y19901D01*
X38534Y19716D01*
X38657Y19557D01*
X38816Y19434D01*
X39001Y19358D01*
X39200Y19331D01*
X39399Y19358D01*
X39584Y19434D01*
X39743Y19557D01*
X39866Y19716D01*
X39942Y19901D01*
X39969Y20100D01*
X39942Y20299D01*
X39866Y20484D01*
X39743Y20643D01*
X39584Y20766D01*
X39399Y20842D01*
X39200Y20869D01*
D02*
G37*
G36*
X47900Y19486D02*
X47714Y19449D01*
X47556Y19344D01*
X47457Y19195D01*
X47412D01*
X47323Y19177D01*
X47247Y19127D01*
X46772Y18652D01*
X46048D01*
Y17648D01*
X47152D01*
Y18372D01*
X47446Y18667D01*
X47556Y18656D01*
X47714Y18551D01*
X47900Y18514D01*
X48086Y18551D01*
X48244Y18656D01*
X48349Y18814D01*
X48386Y19000D01*
X48349Y19186D01*
X48244Y19344D01*
X48086Y19449D01*
X47900Y19486D01*
D02*
G37*
G36*
X31462Y19549D02*
X31111D01*
Y19198D01*
X31369Y19198D01*
X31424Y19198D01*
X31490Y19140D01*
X31517Y19019D01*
X31514Y19000D01*
X31551Y18814D01*
X31656Y18656D01*
X31814Y18551D01*
X32000Y18514D01*
X32186Y18551D01*
X32344Y18656D01*
X32449Y18814D01*
X32486Y19000D01*
X32449Y19186D01*
X32344Y19344D01*
X32186Y19449D01*
X32000Y19486D01*
X31814Y19449D01*
X31656Y19344D01*
X31645Y19327D01*
X31553Y19254D01*
X31462Y19281D01*
X31462Y19309D01*
X31462Y19309D01*
X31462Y19310D01*
Y19549D01*
D02*
G37*
G36*
X29850Y18536D02*
X29664Y18499D01*
X29506Y18394D01*
X29401Y18236D01*
X29364Y18050D01*
X29401Y17864D01*
X29506Y17706D01*
X29664Y17601D01*
X29850Y17564D01*
X30036Y17601D01*
X30194Y17706D01*
X30299Y17864D01*
X30336Y18050D01*
X30299Y18236D01*
X30194Y18394D01*
X30036Y18499D01*
X29850Y18536D01*
D02*
G37*
G36*
X45152Y17702D02*
X44048D01*
Y17559D01*
X41500D01*
X41363Y17531D01*
X41247Y17454D01*
X39847Y16053D01*
X39769Y15937D01*
X39742Y15800D01*
Y14927D01*
X37923D01*
Y11023D01*
X41877D01*
Y14927D01*
X40458D01*
Y15652D01*
X41649Y16842D01*
X44048D01*
Y16698D01*
X45152D01*
Y17702D01*
D02*
G37*
G36*
X57040Y15593D02*
X54260D01*
X54171Y15575D01*
X54095Y15525D01*
X53703Y15133D01*
X53127D01*
Y15302D01*
X52573D01*
Y14498D01*
X53127D01*
Y14667D01*
X53800D01*
X53889Y14685D01*
X53965Y14735D01*
X54357Y15127D01*
X56943D01*
X59667Y12403D01*
Y10458D01*
X58306D01*
Y10730D01*
X54894D01*
Y10483D01*
X54767Y10440D01*
X54432Y10775D01*
X54442Y10801D01*
X54469Y11000D01*
X54442Y11199D01*
X54366Y11384D01*
X54243Y11543D01*
X54084Y11666D01*
X54058Y11676D01*
Y12763D01*
X54031Y12900D01*
X53953Y13017D01*
X53721Y13249D01*
X53742Y13301D01*
X53769Y13500D01*
X53742Y13699D01*
X53666Y13884D01*
X53543Y14043D01*
X53384Y14166D01*
X53199Y14242D01*
X53000Y14269D01*
X52801Y14242D01*
X52616Y14166D01*
X52457Y14043D01*
X52334Y13884D01*
X52258Y13699D01*
X52231Y13500D01*
X52258Y13301D01*
X52334Y13116D01*
X52457Y12957D01*
X52616Y12834D01*
X52801Y12758D01*
X53000Y12731D01*
X53199Y12758D01*
X53342Y12615D01*
Y11676D01*
X53316Y11666D01*
X53157Y11543D01*
X53034Y11384D01*
X52958Y11199D01*
X52931Y11000D01*
X52958Y10801D01*
X53034Y10616D01*
X53157Y10457D01*
X53316Y10334D01*
X53501Y10258D01*
X53700Y10231D01*
X53899Y10258D01*
X53925Y10268D01*
X54396Y9797D01*
X54512Y9720D01*
X54649Y9692D01*
X54894D01*
Y9372D01*
X58306D01*
Y9742D01*
X59752D01*
X60050Y9443D01*
X60031Y9300D01*
X60058Y9101D01*
X60134Y8916D01*
X60257Y8757D01*
X60416Y8634D01*
X60601Y8558D01*
X60800Y8531D01*
X60943Y8550D01*
X61868Y7625D01*
X61858Y7599D01*
X61831Y7400D01*
X61858Y7201D01*
X61934Y7016D01*
X62057Y6857D01*
X62216Y6734D01*
X62242Y6724D01*
Y5276D01*
X62216Y5266D01*
X62057Y5143D01*
X61934Y4984D01*
X61858Y4799D01*
X61831Y4600D01*
X61858Y4401D01*
X61920Y4250D01*
X60603Y2933D01*
X54652D01*
Y3092D01*
X53868D01*
Y2308D01*
X54652D01*
Y2467D01*
X60700D01*
X60789Y2485D01*
X60865Y2535D01*
X62250Y3920D01*
X62401Y3858D01*
X62600Y3831D01*
X62799Y3858D01*
X62984Y3934D01*
X63143Y4057D01*
X63266Y4216D01*
X63342Y4401D01*
X63369Y4600D01*
X63342Y4799D01*
X63266Y4984D01*
X63143Y5143D01*
X62984Y5266D01*
X62958Y5276D01*
Y6724D01*
X62984Y6734D01*
X63143Y6857D01*
X63266Y7016D01*
X63342Y7201D01*
X63369Y7400D01*
X63342Y7599D01*
X63266Y7784D01*
X63143Y7943D01*
X62984Y8066D01*
X62799Y8142D01*
X62600Y8169D01*
X62401Y8142D01*
X62375Y8132D01*
X61502Y9005D01*
X61542Y9101D01*
X61569Y9300D01*
X61542Y9499D01*
X61466Y9684D01*
X61343Y9843D01*
X61184Y9966D01*
X60999Y10042D01*
X60800Y10069D01*
X60601Y10042D01*
X60505Y10002D01*
X60153Y10353D01*
X60133Y10367D01*
Y12500D01*
X60115Y12589D01*
X60065Y12665D01*
X57205Y15525D01*
X57129Y15575D01*
X57040Y15593D01*
D02*
G37*
G36*
X25777Y13477D02*
X25023D01*
Y12918D01*
X24896Y12880D01*
X24890Y12890D01*
X24677Y13103D01*
Y13477D01*
X23923D01*
Y12773D01*
X24347D01*
X24492Y12628D01*
Y12177D01*
X24448D01*
Y10573D01*
X24971D01*
X25002Y10573D01*
X25098D01*
X25129Y10573D01*
X25621D01*
X25652Y10573D01*
X25748D01*
X25779Y10573D01*
X25974D01*
Y11375D01*
Y12177D01*
X25779D01*
X25748Y12177D01*
X25652D01*
X25621Y12208D01*
Y12773D01*
X25777D01*
Y13477D01*
D02*
G37*
G36*
X3700Y14434D02*
X3478Y14405D01*
X3271Y14319D01*
X3093Y14183D01*
X2957Y14005D01*
X2871Y13798D01*
X2842Y13576D01*
X2871Y13354D01*
X2957Y13147D01*
X3093Y12969D01*
X3271Y12833D01*
X3478Y12747D01*
X3700Y12718D01*
X3922Y12747D01*
X4129Y12833D01*
X4307Y12969D01*
X4443Y13147D01*
X4529Y13354D01*
X4558Y13576D01*
X4529Y13798D01*
X4443Y14005D01*
X4307Y14183D01*
X4129Y14319D01*
X3922Y14405D01*
X3700Y14434D01*
D02*
G37*
G36*
X56800Y13369D02*
X56601Y13342D01*
X56416Y13266D01*
X56257Y13143D01*
X56134Y12984D01*
X56058Y12799D01*
X56031Y12600D01*
X56058Y12401D01*
X56134Y12216D01*
X56257Y12057D01*
X56416Y11934D01*
X56601Y11858D01*
X56800Y11831D01*
X56999Y11858D01*
X57184Y11934D01*
X57343Y12057D01*
X57466Y12216D01*
X57542Y12401D01*
X57569Y12600D01*
X57542Y12799D01*
X57466Y12984D01*
X57343Y13143D01*
X57184Y13266D01*
X56999Y13342D01*
X56800Y13369D01*
D02*
G37*
G36*
X36700D02*
X36501Y13342D01*
X36316Y13266D01*
X36157Y13143D01*
X36034Y12984D01*
X35958Y12799D01*
X35931Y12600D01*
X35958Y12401D01*
X36034Y12216D01*
X36157Y12057D01*
X36316Y11934D01*
X36501Y11858D01*
X36700Y11831D01*
X36899Y11858D01*
X37084Y11934D01*
X37243Y12057D01*
X37366Y12216D01*
X37442Y12401D01*
X37469Y12600D01*
X37442Y12799D01*
X37366Y12984D01*
X37243Y13143D01*
X37084Y13266D01*
X36899Y13342D01*
X36700Y13369D01*
D02*
G37*
G36*
X51400Y12686D02*
X51214Y12649D01*
X51056Y12544D01*
X50951Y12386D01*
X50914Y12200D01*
X50951Y12014D01*
X51056Y11856D01*
X51214Y11751D01*
X51400Y11714D01*
X51586Y11751D01*
X51744Y11856D01*
X51849Y12014D01*
X51886Y12200D01*
X51849Y12386D01*
X51744Y12544D01*
X51586Y12649D01*
X51400Y12686D01*
D02*
G37*
G36*
X3700Y11934D02*
X3478Y11905D01*
X3271Y11819D01*
X3093Y11683D01*
X2957Y11505D01*
X2871Y11298D01*
X2842Y11076D01*
X2871Y10854D01*
X2957Y10647D01*
X3093Y10469D01*
X3271Y10333D01*
X3478Y10247D01*
X3700Y10218D01*
X3922Y10247D01*
X4129Y10333D01*
X4307Y10469D01*
X4443Y10647D01*
X4529Y10854D01*
X4558Y11076D01*
X4529Y11298D01*
X4443Y11505D01*
X4307Y11683D01*
X4129Y11819D01*
X3922Y11905D01*
X3700Y11934D01*
D02*
G37*
G36*
X36790Y10780D02*
X35135D01*
Y10152D01*
X36790D01*
Y10780D01*
D02*
G37*
G36*
X35033D02*
X33379D01*
Y10152D01*
X35033D01*
Y10780D01*
D02*
G37*
G36*
X31700Y11669D02*
X31501Y11642D01*
X31316Y11566D01*
X31157Y11443D01*
X31034Y11284D01*
X30958Y11099D01*
X30931Y10900D01*
X30958Y10701D01*
X31034Y10516D01*
X31157Y10357D01*
X31316Y10234D01*
X31501Y10158D01*
X31700Y10131D01*
X31899Y10158D01*
X32084Y10234D01*
X32243Y10357D01*
X32366Y10516D01*
X32442Y10701D01*
X32469Y10900D01*
X32442Y11099D01*
X32366Y11284D01*
X32243Y11443D01*
X32084Y11566D01*
X31899Y11642D01*
X31700Y11669D01*
D02*
G37*
G36*
X49277Y11477D02*
X48523D01*
Y10773D01*
X48922D01*
X49260Y10435D01*
X49336Y10385D01*
X49425Y10367D01*
X49982D01*
X50056Y10256D01*
X50214Y10151D01*
X50400Y10114D01*
X50586Y10151D01*
X50744Y10256D01*
X50849Y10414D01*
X50886Y10600D01*
X50849Y10786D01*
X50744Y10944D01*
X50586Y11049D01*
X50400Y11086D01*
X50214Y11049D01*
X50056Y10944D01*
X49982Y10833D01*
X49522D01*
X49277Y11078D01*
Y11477D01*
D02*
G37*
G36*
X35033Y10050D02*
X33379D01*
Y9422D01*
X35033D01*
Y10050D01*
D02*
G37*
G36*
X36790D02*
X35135D01*
Y9422D01*
X35777D01*
X35800Y9417D01*
X35823Y9422D01*
X36790D01*
Y10050D01*
D02*
G37*
G36*
X47800Y9486D02*
X47614Y9449D01*
X47456Y9344D01*
X47351Y9186D01*
X47314Y9000D01*
X47351Y8814D01*
X47456Y8656D01*
X47614Y8551D01*
X47800Y8514D01*
X47986Y8551D01*
X48144Y8656D01*
X48249Y8814D01*
X48286Y9000D01*
X48249Y9186D01*
X48144Y9344D01*
X47986Y9449D01*
X47800Y9486D01*
D02*
G37*
G36*
X3700Y9434D02*
X3478Y9405D01*
X3271Y9319D01*
X3093Y9183D01*
X2957Y9005D01*
X2871Y8798D01*
X2842Y8576D01*
X2871Y8354D01*
X2957Y8147D01*
X3093Y7969D01*
X3271Y7833D01*
X3478Y7747D01*
X3700Y7718D01*
X3922Y7747D01*
X4129Y7833D01*
X4307Y7969D01*
X4443Y8147D01*
X4529Y8354D01*
X4558Y8576D01*
X4529Y8798D01*
X4443Y9005D01*
X4307Y9183D01*
X4129Y9319D01*
X3922Y9405D01*
X3700Y9434D01*
D02*
G37*
G36*
X30100Y8969D02*
X29901Y8942D01*
X29716Y8866D01*
X29557Y8743D01*
X29434Y8584D01*
X29358Y8399D01*
X29331Y8200D01*
X29358Y8001D01*
X29434Y7816D01*
X29557Y7657D01*
X29716Y7534D01*
X29901Y7458D01*
X30100Y7431D01*
X30299Y7458D01*
X30484Y7534D01*
X30643Y7657D01*
X30766Y7816D01*
X30842Y8001D01*
X30869Y8200D01*
X30842Y8399D01*
X30766Y8584D01*
X30643Y8743D01*
X30484Y8866D01*
X30299Y8942D01*
X30100Y8969D01*
D02*
G37*
G36*
X57900Y8569D02*
X57701Y8542D01*
X57516Y8466D01*
X57357Y8343D01*
X57234Y8184D01*
X57158Y7999D01*
X57131Y7800D01*
X57158Y7601D01*
X57234Y7416D01*
X57357Y7257D01*
X57516Y7134D01*
X57701Y7058D01*
X57900Y7031D01*
X58099Y7058D01*
X58284Y7134D01*
X58443Y7257D01*
X58566Y7416D01*
X58642Y7601D01*
X58669Y7800D01*
X58642Y7999D01*
X58566Y8184D01*
X58443Y8343D01*
X58284Y8466D01*
X58099Y8542D01*
X57900Y8569D01*
D02*
G37*
G36*
X3700Y6934D02*
X3478Y6905D01*
X3271Y6819D01*
X3093Y6683D01*
X2957Y6505D01*
X2871Y6298D01*
X2842Y6076D01*
X2871Y5854D01*
X2957Y5647D01*
X3093Y5469D01*
X3271Y5332D01*
X3478Y5247D01*
X3700Y5217D01*
X3922Y5247D01*
X4129Y5332D01*
X4307Y5469D01*
X4443Y5647D01*
X4529Y5854D01*
X4558Y6076D01*
X4529Y6298D01*
X4443Y6505D01*
X4307Y6683D01*
X4129Y6819D01*
X3922Y6905D01*
X3700Y6934D01*
D02*
G37*
G36*
X41877Y8577D02*
X37923D01*
Y4673D01*
X41877D01*
Y6267D01*
X42725D01*
X42862Y6294D01*
X42978Y6372D01*
X43648Y7042D01*
X45492D01*
Y6468D01*
X45448Y6425D01*
X45352D01*
X45321Y6425D01*
X44798D01*
Y6425D01*
X44702D01*
Y6425D01*
X44148D01*
Y4822D01*
X44192D01*
Y4675D01*
X44210Y4586D01*
X44260Y4510D01*
X45187Y3583D01*
X45263Y3533D01*
X45352Y3515D01*
X49373D01*
Y3372D01*
X49747D01*
X50583Y2535D01*
X50659Y2485D01*
X50748Y2467D01*
X52948D01*
Y2308D01*
X53732D01*
Y3092D01*
X52948D01*
Y2933D01*
X50845D01*
X50524Y3254D01*
X50572Y3372D01*
X51027D01*
Y4125D01*
X50908D01*
Y4423D01*
X51027D01*
Y5177D01*
X50908D01*
Y5523D01*
X51027D01*
Y6277D01*
X50785D01*
Y6399D01*
X50767Y6488D01*
X50717Y6564D01*
X50616Y6665D01*
X50540Y6715D01*
X50451Y6733D01*
X48918D01*
X48844Y6844D01*
X48738Y6915D01*
X48777Y7042D01*
X51291D01*
X51336Y6915D01*
X51251Y6786D01*
X51214Y6600D01*
X51251Y6414D01*
X51356Y6256D01*
X51514Y6151D01*
X51700Y6114D01*
X51886Y6151D01*
X52044Y6256D01*
X52149Y6414D01*
X52186Y6600D01*
X52149Y6786D01*
X52064Y6915D01*
X52109Y7042D01*
X54452D01*
X56242Y5252D01*
Y5028D01*
X54894D01*
Y3670D01*
X58306D01*
Y5028D01*
X56958D01*
Y5400D01*
X56931Y5537D01*
X56853Y5654D01*
X54853Y7653D01*
X54737Y7731D01*
X54600Y7758D01*
X43500D01*
X43363Y7731D01*
X43247Y7653D01*
X42577Y6983D01*
X41877D01*
Y8577D01*
D02*
G37*
G36*
X3700Y4434D02*
X3478Y4405D01*
X3271Y4319D01*
X3093Y4182D01*
X2957Y4005D01*
X2871Y3798D01*
X2842Y3576D01*
X2871Y3353D01*
X2957Y3146D01*
X3093Y2969D01*
X3271Y2832D01*
X3478Y2747D01*
X3700Y2717D01*
X3922Y2747D01*
X4129Y2832D01*
X4307Y2969D01*
X4443Y3146D01*
X4529Y3353D01*
X4558Y3576D01*
X4529Y3798D01*
X4443Y4005D01*
X4307Y4182D01*
X4129Y4319D01*
X3922Y4405D01*
X3700Y4434D01*
D02*
G37*
G36*
X35052Y2792D02*
X34711D01*
Y2451D01*
X35052D01*
Y2792D01*
D02*
G37*
G36*
X34609D02*
X34268D01*
Y2451D01*
X34609D01*
Y2792D01*
D02*
G37*
G36*
X35052Y2349D02*
X34711D01*
Y2008D01*
X35052D01*
Y2349D01*
D02*
G37*
G36*
X34609D02*
X34268D01*
Y2008D01*
X34609D01*
Y2349D01*
D02*
G37*
G36*
X68400Y7911D02*
X67913Y7873D01*
X67439Y7759D01*
X66988Y7572D01*
X66571Y7317D01*
X66200Y7000D01*
X65883Y6629D01*
X65628Y6212D01*
X65441Y5761D01*
X65327Y5287D01*
X65289Y4800D01*
X65327Y4313D01*
X65441Y3839D01*
X65628Y3388D01*
X65883Y2971D01*
X66200Y2600D01*
X66571Y2283D01*
X66988Y2028D01*
X67439Y1841D01*
X67913Y1727D01*
X68400Y1689D01*
X68887Y1727D01*
X69361Y1841D01*
X69812Y2028D01*
X70229Y2283D01*
X70600Y2600D01*
X70917Y2971D01*
X71172Y3388D01*
X71359Y3839D01*
X71473Y4313D01*
X71511Y4800D01*
X71473Y5287D01*
X71359Y5761D01*
X71172Y6212D01*
X70917Y6629D01*
X70600Y7000D01*
X70229Y7317D01*
X69812Y7572D01*
X69361Y7759D01*
X68887Y7873D01*
X68400Y7911D01*
D02*
G37*
%LPD*%
G36*
X22900Y22510D02*
X22773Y22406D01*
X22747Y22411D01*
X22396D01*
X22353Y22453D01*
X22237Y22531D01*
X22100Y22558D01*
X21963Y22531D01*
X21847Y22453D01*
X21769Y22337D01*
X21742Y22200D01*
X21769Y22063D01*
X21847Y21947D01*
X21994Y21799D01*
X22110Y21721D01*
X22247Y21694D01*
X22599D01*
X22900Y21393D01*
Y20600D01*
X21961Y19661D01*
X21900Y19669D01*
X21701Y19642D01*
X21516Y19566D01*
X21357Y19443D01*
X21234Y19284D01*
X21158Y19099D01*
X21131Y18900D01*
X21139Y18839D01*
X20060Y17760D01*
X19895Y17871D01*
X19700Y17910D01*
X19505Y17871D01*
X19340Y17760D01*
X19229Y17595D01*
X19190Y17400D01*
X19229Y17205D01*
X19340Y17040D01*
X18800Y16500D01*
Y5700D01*
X11600D01*
X10500Y6800D01*
Y24600D01*
X17858D01*
X17934Y24416D01*
X18057Y24257D01*
X18216Y24134D01*
X18401Y24058D01*
X18600Y24031D01*
X18799Y24058D01*
X18984Y24134D01*
X19143Y24257D01*
X19266Y24416D01*
X19342Y24600D01*
X19958D01*
X20034Y24416D01*
X20157Y24257D01*
X20316Y24134D01*
X20501Y24058D01*
X20700Y24031D01*
X20899Y24058D01*
X21084Y24134D01*
X21243Y24257D01*
X21366Y24416D01*
X21442Y24600D01*
X22900D01*
Y22510D01*
D02*
G37*
%LPC*%
G36*
X19700Y23169D02*
X19501Y23142D01*
X19316Y23066D01*
X19157Y22943D01*
X19034Y22784D01*
X18958Y22599D01*
X18931Y22400D01*
X18958Y22201D01*
X19034Y22016D01*
X19157Y21857D01*
X19316Y21734D01*
X19501Y21658D01*
X19700Y21631D01*
X19899Y21658D01*
X20084Y21734D01*
X20243Y21857D01*
X20366Y22016D01*
X20442Y22201D01*
X20469Y22400D01*
X20442Y22599D01*
X20366Y22784D01*
X20243Y22943D01*
X20084Y23066D01*
X19899Y23142D01*
X19700Y23169D01*
D02*
G37*
G36*
X15800Y19210D02*
X15605Y19171D01*
X15440Y19060D01*
X15329Y18895D01*
X15290Y18700D01*
X15329Y18505D01*
X15440Y18340D01*
X15605Y18229D01*
X15800Y18190D01*
X15995Y18229D01*
X16160Y18340D01*
X16271Y18505D01*
X16310Y18700D01*
X16271Y18895D01*
X16160Y19060D01*
X15995Y19171D01*
X15800Y19210D01*
D02*
G37*
G36*
X13800D02*
X13605Y19171D01*
X13440Y19060D01*
X13329Y18895D01*
X13290Y18700D01*
X13329Y18505D01*
X13440Y18340D01*
X13605Y18229D01*
X13800Y18190D01*
X13995Y18229D01*
X14160Y18340D01*
X14271Y18505D01*
X14310Y18700D01*
X14271Y18895D01*
X14160Y19060D01*
X13995Y19171D01*
X13800Y19210D01*
D02*
G37*
G36*
X18000Y18669D02*
X17801Y18642D01*
X17616Y18566D01*
X17457Y18443D01*
X17334Y18284D01*
X17258Y18099D01*
X17231Y17900D01*
X17258Y17701D01*
X17334Y17516D01*
X17457Y17357D01*
X17616Y17234D01*
X17801Y17158D01*
X18000Y17131D01*
X18199Y17158D01*
X18384Y17234D01*
X18543Y17357D01*
X18666Y17516D01*
X18742Y17701D01*
X18769Y17900D01*
X18742Y18099D01*
X18666Y18284D01*
X18543Y18443D01*
X18384Y18566D01*
X18199Y18642D01*
X18000Y18669D01*
D02*
G37*
G36*
X17700Y16769D02*
X17501Y16742D01*
X17316Y16666D01*
X17157Y16543D01*
X17034Y16384D01*
X16958Y16199D01*
X16931Y16000D01*
X16958Y15801D01*
X17034Y15616D01*
X17157Y15457D01*
X17316Y15334D01*
X17501Y15258D01*
X17700Y15231D01*
X17899Y15258D01*
X18084Y15334D01*
X18243Y15457D01*
X18366Y15616D01*
X18442Y15801D01*
X18469Y16000D01*
X18442Y16199D01*
X18366Y16384D01*
X18243Y16543D01*
X18084Y16666D01*
X17899Y16742D01*
X17700Y16769D01*
D02*
G37*
%LPD*%
D10*
X48500Y6500D02*
X50451D01*
X50552Y6023D02*
X50675Y5900D01*
X50552Y6023D02*
Y6399D01*
X50451Y6500D02*
X50552Y6399D01*
X45725Y11373D02*
Y12725D01*
X46600Y13600D01*
X45500Y7400D02*
X45725Y7175D01*
Y5623D02*
Y7175D01*
X50675Y4800D02*
Y5900D01*
Y3748D02*
Y4800D01*
X50748Y2700D02*
X53340D01*
X49725Y3723D02*
X50748Y2700D01*
X49725Y3723D02*
Y3748D01*
Y5875D02*
Y5900D01*
X49602Y5752D02*
X49725Y5875D01*
X49252Y5752D02*
X49602D01*
X49100Y5600D02*
X49252Y5752D01*
X48400Y4300D02*
X49100Y5000D01*
Y5600D01*
X45075Y4625D02*
X45400Y4300D01*
X48400D01*
X45075Y4625D02*
Y5623D01*
X44425Y4675D02*
Y5623D01*
Y4675D02*
X45352Y3748D01*
X49725D01*
Y4800D01*
X46375Y11373D02*
Y11898D01*
X48000Y13523D01*
Y13600D01*
X45100Y13775D02*
X45125D01*
X45681Y14331D01*
X45075Y11373D02*
X45088Y11386D01*
Y12812D01*
X45100Y12825D01*
X44048D02*
X44073D01*
X44425Y12473D01*
Y11373D02*
Y12473D01*
X44048Y13775D02*
Y14548D01*
X44425Y14925D01*
X35000Y4483D02*
X35084Y4399D01*
X32534Y14900D02*
Y15534D01*
Y14775D02*
Y14900D01*
X29600Y11875D02*
X29625D01*
X32325Y14575D01*
Y14600D01*
X25400Y14075D02*
X25425D01*
X25981Y14631D01*
X24300Y14075D02*
Y14650D01*
X24875Y15225D01*
X24725Y11375D02*
Y12725D01*
X24325Y13125D02*
X24725Y12725D01*
X24300Y13125D02*
X24325D01*
X25388Y13113D02*
X25400Y13125D01*
X25388Y11387D02*
Y13113D01*
X25375Y11375D02*
X25388Y11387D01*
X27600Y3600D02*
X28654D01*
X27600D02*
X29800Y1400D01*
X25600Y3600D02*
X27600D01*
X30352Y6477D02*
X30475Y6600D01*
X30200Y2500D02*
X30352Y2652D01*
X29800Y1400D02*
X31800D01*
X32800Y2400D02*
X33740D01*
X31800Y1400D02*
X32800Y2400D01*
X30352Y4373D02*
X30475Y4496D01*
X30352Y2652D02*
Y4373D01*
X30475Y5548D02*
Y6600D01*
Y4496D02*
Y5548D01*
X24725Y4475D02*
Y5625D01*
Y4475D02*
X25600Y3600D01*
X29525Y4471D02*
Y4496D01*
X28654Y3600D02*
X29525Y4471D01*
X27300Y4350D02*
X29525Y6575D01*
X25550Y4350D02*
X27300D01*
X29525Y4496D02*
Y5548D01*
X25375Y4525D02*
Y5625D01*
Y4525D02*
X25550Y4350D01*
X29525Y6575D02*
Y6600D01*
X25621Y6554D02*
X25645D01*
X25075Y7100D02*
X25621Y6554D01*
X25645D02*
X25779Y6420D01*
Y6396D02*
Y6420D01*
Y6396D02*
X25977Y6198D01*
Y5673D02*
X26025Y5625D01*
X25977Y5673D02*
Y6198D01*
X28500Y12145D02*
Y14000D01*
X27875Y11520D02*
X28500Y12145D01*
X26700Y11520D02*
X27875D01*
X29067Y14594D02*
X29933D01*
X29030Y14631D02*
X29067Y14594D01*
X25981Y14631D02*
X29030D01*
X29933Y14594D02*
X29939Y14600D01*
X32325D01*
X38100Y51900D02*
X39600Y50400D01*
X39000Y53996D02*
Y55448D01*
X43500Y51200D02*
X45300Y49400D01*
Y49100D02*
Y49400D01*
X38955Y57403D02*
X40495D01*
X39046Y55494D02*
Y57200D01*
X37900Y57100D02*
X38946D01*
X40495Y57403D02*
X40698Y57200D01*
X42100Y46000D02*
Y52700D01*
X69736Y55800D02*
X70000D01*
X33600Y57100D02*
X33638D01*
X34537Y56200D02*
X34700D01*
X34537D02*
Y56312D01*
X34215Y56523D02*
X34327D01*
X34537Y56312D01*
X33638Y57100D02*
X34215Y56523D01*
X33200Y54300D02*
X33523Y54623D01*
X34123Y55398D02*
X34327Y55602D01*
Y56019D01*
X34123Y54923D02*
Y55398D01*
X33823Y54623D02*
X34123Y54923D01*
X33523Y54623D02*
X33823D01*
X34327Y56019D02*
X34579Y56271D01*
X31273Y55931D02*
Y58973D01*
Y55931D02*
X31600Y55604D01*
X31273Y58973D02*
X31300Y59000D01*
X43500Y51200D02*
Y51700D01*
X54850Y55850D02*
X55600Y55100D01*
X54850Y55850D02*
Y57225D01*
X52950Y55950D02*
Y57225D01*
Y55950D02*
X55600Y53300D01*
X32625Y45875D02*
Y48625D01*
Y45875D02*
X32700Y45800D01*
X29100Y46800D02*
Y50200D01*
X30300Y51400D01*
X27000Y44900D02*
X27800Y44100D01*
X44600D02*
X47300Y46800D01*
X27800Y44100D02*
X44600D01*
X32750Y51400D02*
X33650Y50500D01*
X30300Y51400D02*
X32750D01*
X35800Y46800D02*
Y49200D01*
X33133Y52500D02*
X33200D01*
X32360Y52500D02*
X32418Y52442D01*
X33076D01*
X33133Y52500D01*
X35800Y46800D02*
X37300Y45300D01*
X32550Y18025D02*
X33700Y19175D01*
Y19700D01*
X49100Y20000D02*
X51200Y17900D01*
X49100Y20000D02*
Y22600D01*
X50290Y23790D01*
X51090D02*
X51100Y23800D01*
X50290Y23790D02*
X51090D01*
X48400Y23300D02*
X49401Y24301D01*
X47543Y23300D02*
X48400D01*
X49401Y24301D02*
X51113D01*
X46500Y24300D02*
X48600D01*
X51046Y26745D02*
Y29200D01*
X48600Y24300D02*
X51046Y26745D01*
X45849Y23813D02*
X46487D01*
X45700Y23962D02*
X45849Y23813D01*
X45700Y23962D02*
Y24700D01*
X46487Y23813D02*
X46500Y23800D01*
X45700Y24700D02*
X48493Y27493D01*
X62000Y39800D02*
X62100D01*
X61671D02*
X62000D01*
X56400Y43500D02*
X57971D01*
X61671Y39800D01*
X55200Y41900D02*
X55300Y42000D01*
X55200Y41400D02*
Y41900D01*
X52392Y38592D02*
X55200Y41400D01*
X45692Y38592D02*
X52392D01*
X54362Y42676D02*
Y45562D01*
X50785Y39100D02*
X54362Y42676D01*
X45482Y39100D02*
X50785D01*
X49000Y40200D02*
X50700Y41900D01*
X51800D01*
X55200Y42400D02*
Y45400D01*
X57000Y47200D02*
X58100D01*
X55200Y45400D02*
X57000Y47200D01*
X54362Y45562D02*
X57319Y48519D01*
X57469D01*
X35300Y18300D02*
Y20900D01*
X32900Y22600D02*
X32913Y22587D01*
X33613D01*
X35300Y20900D01*
X32534Y15534D02*
X35300Y18300D01*
X34563Y20700D02*
X34600D01*
X30800Y48700D02*
X32550D01*
X30200Y49300D02*
Y50100D01*
Y49300D02*
X30800Y48700D01*
X33100Y36900D02*
X33700Y36300D01*
X31213Y36800D02*
X31738D01*
X31837Y36900D01*
X33100D01*
X33700Y34700D02*
Y36300D01*
X32600Y34700D02*
Y35400D01*
X31226Y35812D02*
X32188D01*
X32600Y35400D01*
X31213Y35800D02*
X31226Y35812D01*
X41400Y45300D02*
X42100Y46000D01*
X37300Y45300D02*
X41400D01*
X61475Y35800D02*
X62100D01*
X26700Y32013D02*
X27365Y31348D01*
X26700Y32013D02*
Y32400D01*
X27365Y31348D02*
X27977D01*
X28400Y30925D01*
X37125Y58925D02*
X37403D01*
X36600Y58400D02*
X37125Y58925D01*
X46237Y30850D02*
X46300Y30913D01*
Y31800D01*
X29586Y20154D02*
X30140Y19600D01*
X29586Y21186D02*
X30600Y22200D01*
X29586Y20154D02*
Y21186D01*
X32800Y24600D02*
X34600D01*
X31500D02*
X32800D01*
X33000Y20400D02*
X33700Y19700D01*
X24875Y15225D02*
X30325D01*
X32550Y17900D02*
Y18025D01*
Y17947D02*
Y18025D01*
X31947Y17947D02*
X32550D01*
X32400Y20400D02*
X33000D01*
X31741Y21059D02*
Y22951D01*
Y21059D02*
X32400Y20400D01*
X31890Y23100D02*
X32813D01*
X31741Y22951D02*
X31890Y23100D01*
X31447Y16347D02*
Y17447D01*
X31947Y17947D01*
X53000Y13463D02*
Y13500D01*
X56600Y10051D02*
X56649Y10100D01*
X44425Y14925D02*
X49925D01*
X46687Y23300D02*
X47543D01*
X48400Y19800D02*
Y22443D01*
X47543Y23300D02*
X48400Y22443D01*
X45440Y23300D02*
X46687D01*
X48400Y19800D02*
X50000Y18200D01*
X20384Y6975D02*
X20409D01*
X32813Y21600D02*
X32813Y21599D01*
X30600Y22200D02*
Y23500D01*
X51113Y24301D02*
X52379D01*
X45681Y14331D02*
X51706D01*
X51100Y23300D02*
X53200D01*
X51706Y14331D02*
X52150Y14775D01*
X49556Y12181D02*
X51706Y14331D01*
X44800Y24860D02*
X46152Y26212D01*
Y27415D01*
X44800Y23940D02*
X45440Y23300D01*
X46152Y27415D02*
X46237Y27500D01*
X48493Y27493D02*
Y29002D01*
X60700Y2700D02*
X62600Y4600D01*
X54260Y2700D02*
X60700D01*
X30325Y15225D02*
X31447Y16347D01*
X33662Y21600D02*
X34563Y20700D01*
X33100Y21600D02*
X33662D01*
X26784Y36350D02*
X27950D01*
X48500Y37700D02*
X49889Y36311D01*
X50703D02*
X50713Y36300D01*
X49889Y36311D02*
X50703D01*
X48400Y37700D02*
X48500D01*
X48641Y30850D02*
X48783Y30992D01*
X49423D01*
X50337Y31906D01*
X50338D02*
X50338Y31906D01*
X50337Y31906D02*
X50338D01*
X26200Y7680D02*
X26222Y7702D01*
X54260Y15360D02*
X57040D01*
X46686Y22300D02*
X46687Y22299D01*
X41396Y24704D02*
X43800Y22300D01*
X46686D01*
X48493Y29002D02*
X48641Y29150D01*
X52379Y24301D02*
X52479Y24200D01*
X52600D01*
X46600Y13479D02*
Y13600D01*
X32400Y16736D02*
X33202Y17538D01*
X32400Y16600D02*
Y16736D01*
X33650Y50500D02*
X33825Y50675D01*
X28400Y27200D02*
Y29150D01*
X26500Y25300D02*
X28400Y27200D01*
X26992Y33492D02*
X31392D01*
X45326Y32376D02*
X50089D01*
X50127Y32414D01*
X50714D01*
X44298Y31348D02*
X45326Y32376D01*
X44223Y31348D02*
X44298D01*
X43800Y30925D02*
X44223Y31348D01*
X50714Y32414D02*
X51856Y33556D01*
X38960Y38900D02*
X38983Y38877D01*
X39700Y37300D02*
Y37300D01*
X38983Y38017D02*
Y38877D01*
Y38017D02*
X39700Y37300D01*
X37900Y36300D02*
X39481Y34719D01*
X35200Y39000D02*
X37900Y36300D01*
X39481Y34719D02*
X47352D01*
X47937Y35304D01*
X36500Y58400D02*
X36600D01*
X24800Y27954D02*
X25996Y29150D01*
X24800Y24200D02*
X26892Y22108D01*
X24800Y24200D02*
Y27954D01*
X28400Y30850D02*
Y30925D01*
X61100Y27800D02*
X62100D01*
X61000Y31800D02*
X61100D01*
X54900Y37900D02*
X61000Y31800D01*
X55700Y40000D02*
X57775D01*
X61975Y35800D02*
X62100D01*
X57775Y40000D02*
X61975Y35800D01*
X58700Y47800D02*
X62100D01*
X58100Y47200D02*
X58700Y47800D01*
X57469Y48431D02*
X57600Y48300D01*
X57469Y48431D02*
Y48519D01*
X57600Y48300D02*
X58700D01*
X62100Y51700D02*
Y51800D01*
X58700Y48300D02*
X62100Y51700D01*
X46100Y35792D02*
Y35800D01*
X26784Y35842D02*
X28160D01*
X65433Y50133D02*
Y51058D01*
X35700Y35200D02*
Y37600D01*
X37100Y33800D02*
Y33800D01*
X35700Y35200D02*
X37100Y33800D01*
X44031Y35299D02*
X46287D01*
X44016Y35284D02*
X44031Y35299D01*
X45300Y40200D02*
X49000D01*
X43300Y38200D02*
X45300Y40200D01*
X43892Y37510D02*
X45482Y39100D01*
X44400Y36600D02*
Y37300D01*
X45692Y38592D01*
X43892Y36390D02*
Y37510D01*
Y36390D02*
X44490Y35792D01*
X46100D01*
X43300Y36000D02*
Y38200D01*
Y36000D02*
X44016Y35284D01*
X21700Y35300D02*
X21750Y35350D01*
X23450D01*
X27400Y43000D02*
X50400D01*
X47000Y55200D02*
Y56600D01*
X43500Y51700D02*
X47000Y55200D01*
X30200Y50100D02*
X30800Y50700D01*
X32350D01*
X32550Y48700D02*
X32625Y48625D01*
X18660Y38000D02*
X19806Y36854D01*
Y36494D02*
Y36854D01*
Y36494D02*
X20000Y36300D01*
X29200Y35400D02*
X30087Y36287D01*
X31201D01*
X31213Y36300D01*
X39600Y49300D02*
Y50400D01*
X39241Y52008D02*
X39350Y51900D01*
X31284Y37300D02*
Y37301D01*
X29008Y36690D02*
Y37490D01*
X28160Y35842D02*
X29008Y36690D01*
X44700Y36300D02*
X46100D01*
X34809Y38491D02*
X35700Y37600D01*
X30009Y38491D02*
X34809D01*
X26784Y35842D02*
Y35850D01*
X29008Y37490D02*
X30009Y38491D01*
X33202Y17538D02*
Y17852D01*
X52702Y17948D02*
X52750Y17900D01*
X52702Y17948D02*
Y18398D01*
X51300Y19800D02*
X52702Y18398D01*
X50000Y17200D02*
Y18200D01*
X27050Y18000D02*
X28050Y19000D01*
X35084Y10101D02*
X35350D01*
X35800Y9650D01*
X28500Y22590D02*
X29690D01*
X46237Y29075D02*
Y29150D01*
X51100Y22000D02*
Y22219D01*
Y22000D02*
X51331Y21769D01*
Y19831D02*
Y21769D01*
X51300Y19800D02*
X51331Y19831D01*
X53500Y17100D02*
Y23000D01*
X52150Y14775D02*
Y15750D01*
X53500Y17100D01*
X52850Y14900D02*
X53800D01*
X54260Y15360D01*
X57040D02*
X59900Y12500D01*
Y10100D02*
Y12500D01*
X29619Y10944D02*
X30107D01*
X29600Y10925D02*
X29619Y10944D01*
X30107D02*
X31863Y12700D01*
X34437D01*
X37000Y15263D01*
Y16000D01*
X37800Y16800D01*
Y21400D01*
X34600Y24600D02*
X37800Y21400D01*
X26975Y16175D02*
X29500D01*
X26900Y16250D02*
X26975Y16175D01*
X29690Y22590D02*
X30600Y23500D01*
X32800Y24600D02*
X33100Y24300D01*
Y23681D02*
Y24300D01*
X30600Y23500D02*
Y23700D01*
X31500Y24600D01*
X26779Y16371D02*
X26900Y16250D01*
X47862Y18962D02*
X47900Y19000D01*
X47412Y18962D02*
X47862D01*
X49425Y10600D02*
X50400D01*
X48900Y11125D02*
X49425Y10600D01*
X28050Y19000D02*
X28400D01*
X46600Y18150D02*
X46650D01*
X46923Y18423D01*
Y18473D01*
X47412Y18962D01*
X55600Y33300D02*
X61100Y27800D01*
X55600Y33300D02*
Y34700D01*
X54800Y37900D02*
X54900D01*
X22600Y38200D02*
X27400Y43000D01*
X22600Y36200D02*
X23450Y35350D01*
X26784D01*
X22600Y36200D02*
Y38200D01*
X49925Y14925D02*
X51200Y16200D01*
X48900Y12075D02*
X49006Y12181D01*
X49556D01*
X39900Y12975D02*
X40100Y13175D01*
X20384Y13325D02*
X20400Y13341D01*
X26900Y18150D02*
X27050Y18000D01*
X32325Y14600D02*
X32452Y14727D01*
X50700Y37308D02*
X53792D01*
X26892Y22108D02*
X28300D01*
X31384Y37400D02*
X34000D01*
X53200Y23300D02*
X53500Y23000D01*
X51200Y17900D02*
X52050D01*
X41396Y30850D02*
X41400Y30854D01*
Y31968D02*
X42316Y32884D01*
X49879D02*
X49917Y32922D01*
X50422D01*
X50800Y33300D01*
Y35048D01*
X43800Y30850D02*
Y30925D01*
Y23600D02*
Y29150D01*
Y23600D02*
X44600Y22800D01*
X46500D01*
X53200Y33900D02*
Y36100D01*
X52500Y36800D02*
X53200Y36100D01*
X50700Y37300D02*
Y37308D01*
X53792D02*
X54200Y36900D01*
Y34130D02*
Y36900D01*
X51046Y30975D02*
X54200Y34130D01*
X23500Y30850D02*
Y31900D01*
X25600Y34000D01*
X30034D01*
X23500Y23400D02*
Y29150D01*
Y23400D02*
X25300Y21600D01*
X28300D01*
X25996Y30850D02*
Y32496D01*
X26992Y33492D01*
X27249Y23100D02*
X28300D01*
X27100Y23249D02*
X27249Y23100D01*
X27100Y23249D02*
Y24200D01*
X30804Y27904D01*
Y29150D01*
X34000Y37400D02*
X34700Y36700D01*
Y34700D02*
Y36700D01*
X33209Y33209D02*
X34700Y34700D01*
X29118Y25500D02*
X32400D01*
X33209Y26309D02*
Y29150D01*
X29800Y39000D02*
X35200D01*
X28500Y36900D02*
Y37700D01*
X29800Y39000D01*
X27950Y36350D02*
X28500Y36900D01*
X44400Y36600D02*
X44700Y36300D01*
X37150Y33850D02*
X49550D01*
X28300Y23600D02*
Y24682D01*
X29118Y25500D01*
X32400D02*
X33209Y26309D01*
Y30850D02*
Y33209D01*
X30804Y31804D02*
X33700Y34700D01*
X30804Y30850D02*
Y31804D01*
X28300Y22100D02*
Y22108D01*
X31392Y33492D02*
X32600Y34700D01*
X30034Y34000D02*
X31303Y35269D01*
X51046Y30900D02*
Y30975D01*
X50700Y36800D02*
X52500D01*
X51206Y31906D02*
X53200Y33900D01*
X50338Y31906D02*
X51206D01*
X50700Y35800D02*
X51600D01*
X51856Y35544D01*
Y33556D02*
Y35544D01*
X41396Y24704D02*
Y29150D01*
X50633Y35233D02*
X50700Y35300D01*
X50633Y35215D02*
Y35233D01*
Y35215D02*
X50800Y35048D01*
X42316Y32884D02*
X49879D01*
X41400Y30854D02*
Y31968D01*
X32486Y14727D02*
X32534Y14775D01*
X32452Y14727D02*
X32486D01*
X51200Y16200D02*
Y17900D01*
D11*
X30600Y9600D02*
X34766Y5434D01*
X26500Y7100D02*
X29000Y9600D01*
X30600D01*
X34766Y4717D02*
X35000Y4483D01*
X34766Y4717D02*
Y5434D01*
X56600Y4349D02*
Y5400D01*
X45500Y7400D02*
X54600D01*
X56600Y5400D01*
X43500Y7400D02*
X45500D01*
X39900Y6625D02*
X42725D01*
X43500Y7400D01*
X25075Y7100D02*
X26500D01*
X23225Y6525D02*
X23800Y7100D01*
X25075D01*
X20900Y6525D02*
X23225D01*
X24700Y16675D02*
Y17050D01*
X20900Y12875D02*
X20925D01*
X22525Y14475D02*
Y14500D01*
X20925Y12875D02*
X22525Y14475D01*
Y14500D02*
X24700Y16675D01*
X53700Y11000D02*
Y12763D01*
X53000Y13463D02*
X53700Y12763D01*
X59900Y10100D02*
X62600Y7400D01*
X56649Y10100D02*
X59900D01*
X54649Y10051D02*
X56600D01*
X53700Y11000D02*
X54649Y10051D01*
X24700Y17050D02*
X24850Y17200D01*
X24900D01*
X62600Y4600D02*
Y7400D01*
X26700Y16400D02*
Y16900D01*
X23900Y19700D02*
Y20900D01*
Y19700D02*
X26700Y16900D01*
X26729Y16371D02*
X26779D01*
X26700Y16400D02*
X26729Y16371D01*
X22100Y22200D02*
X22247Y22053D01*
X22747D01*
X23900Y20900D01*
X48500Y16250D02*
X49450Y17200D01*
X46237Y27500D02*
Y29150D01*
X49450Y17200D02*
X50000D01*
X46600Y16250D02*
X48500D01*
X48875Y15875D01*
X40100Y13175D02*
Y15800D01*
X41500Y17200D02*
X44600D01*
X40100Y15800D02*
X41500Y17200D01*
D19*
X36198Y53201D02*
X36597Y53600D01*
X36597Y53200D02*
X37600D01*
X36597Y53600D02*
X37900D01*
X37600Y53200D02*
X37900Y52900D01*
X38700Y52800D02*
X40000D01*
X37900Y53600D02*
X38700Y52800D01*
X40300Y53100D02*
X41000D01*
X43000Y55100D01*
X34600Y51500D02*
Y52700D01*
X35100Y53200D02*
X35800D01*
X40000Y52800D02*
X40300Y53100D01*
X34600Y52700D02*
X35100Y53200D01*
D22*
X49725Y3748D02*
D03*
X50675D02*
D03*
X49725Y4800D02*
D03*
X50675D02*
D03*
Y5900D02*
D03*
X49725D02*
D03*
X29525Y4496D02*
D03*
X30475D02*
D03*
X29525Y5548D02*
D03*
X30475D02*
D03*
Y6600D02*
D03*
X29525D02*
D03*
D23*
X39000Y55448D02*
D03*
X40600D02*
D03*
X38900Y53796D02*
D03*
X40500D02*
D03*
X32200Y52402D02*
D03*
X30600D02*
D03*
D24*
X26675Y11375D02*
D03*
X26025D02*
D03*
X25375D02*
D03*
X24725D02*
D03*
Y5625D02*
D03*
X25375D02*
D03*
X26025D02*
D03*
X26675D02*
D03*
X46375Y11373D02*
D03*
X45725D02*
D03*
X45075D02*
D03*
X44425D02*
D03*
Y5623D02*
D03*
X45075D02*
D03*
X45725D02*
D03*
X46375D02*
D03*
D25*
X39046Y57200D02*
D03*
Y58800D02*
D03*
X40698Y57200D02*
D03*
Y58800D02*
D03*
X33200Y54300D02*
D03*
Y55900D02*
D03*
X34700Y56200D02*
D03*
Y57800D02*
D03*
X31400Y54004D02*
D03*
Y55604D02*
D03*
X36500Y56800D02*
D03*
Y58400D02*
D03*
D26*
X29300Y59600D02*
D03*
X43500Y58300D02*
D03*
X34482Y58373D02*
D03*
X37000Y51500D02*
D03*
X38100Y51900D02*
D03*
X37900Y52900D02*
D03*
X45300Y49100D02*
D03*
X37900Y56300D02*
D03*
X42100Y52700D02*
D03*
X37900Y54400D02*
D03*
X34600Y51500D02*
D03*
X34700Y50500D02*
D03*
X35800Y50400D02*
D03*
X33600Y57100D02*
D03*
X29700Y54200D02*
D03*
X32900Y58800D02*
D03*
X34800Y48000D02*
D03*
X35800Y49200D02*
D03*
X37800Y58200D02*
D03*
X31300Y59000D02*
D03*
X33200Y52500D02*
D03*
X23300Y61100D02*
D03*
X37900Y57100D02*
D03*
X26700Y32400D02*
D03*
X37403Y58925D02*
D03*
X31300Y62700D02*
D03*
X30900Y49700D02*
D03*
X31100Y34100D02*
D03*
X46300Y31800D02*
D03*
X73300Y48100D02*
D03*
X72400Y49200D02*
D03*
X74200D02*
D03*
Y50500D02*
D03*
X72200Y53200D02*
D03*
X74200D02*
D03*
Y51800D02*
D03*
X72400Y50500D02*
D03*
X72473Y51711D02*
D03*
X38200Y47900D02*
D03*
Y34600D02*
D03*
X47000Y56600D02*
D03*
X43500Y51700D02*
D03*
X31300Y60300D02*
D03*
Y61500D02*
D03*
X37700Y60200D02*
D03*
X37573Y62627D02*
D03*
X37700Y61400D02*
D03*
X39600Y48200D02*
D03*
D27*
X43000Y55250D02*
D03*
Y56550D02*
D03*
D32*
X20900Y6525D02*
D03*
Y12875D02*
D03*
X39900Y12975D02*
D03*
Y6625D02*
D03*
D33*
X25400Y14075D02*
D03*
Y13125D02*
D03*
X24300Y14075D02*
D03*
Y13125D02*
D03*
X48900Y11125D02*
D03*
Y12075D02*
D03*
X44048Y13775D02*
D03*
Y12825D02*
D03*
X45100Y13775D02*
D03*
Y12825D02*
D03*
X48900Y15875D02*
D03*
Y14925D02*
D03*
X29600Y11875D02*
D03*
Y10925D02*
D03*
X29500Y15225D02*
D03*
Y16175D02*
D03*
D34*
X44800Y24860D02*
D03*
Y23940D02*
D03*
D35*
X53340Y2700D02*
D03*
X54260D02*
D03*
X34660Y2400D02*
D03*
X33740D02*
D03*
X38040Y38900D02*
D03*
X38960D02*
D03*
X18660Y38000D02*
D03*
X17740D02*
D03*
D37*
X46687Y24301D02*
D03*
Y23800D02*
D03*
Y23300D02*
D03*
Y22800D02*
D03*
Y22299D02*
D03*
X51113D02*
D03*
Y22800D02*
D03*
Y23300D02*
D03*
Y23800D02*
D03*
Y24301D02*
D03*
X28387Y23601D02*
D03*
Y23100D02*
D03*
Y22600D02*
D03*
Y22100D02*
D03*
Y21599D02*
D03*
X32813D02*
D03*
Y22100D02*
D03*
Y22600D02*
D03*
Y23100D02*
D03*
Y23601D02*
D03*
X50713Y35299D02*
D03*
Y35800D02*
D03*
Y36300D02*
D03*
Y36800D02*
D03*
Y37301D02*
D03*
X46287D02*
D03*
Y36800D02*
D03*
Y36300D02*
D03*
Y35800D02*
D03*
Y35299D02*
D03*
X31213D02*
D03*
Y35800D02*
D03*
Y36300D02*
D03*
Y36800D02*
D03*
Y37301D02*
D03*
X26787D02*
D03*
Y36800D02*
D03*
Y36300D02*
D03*
Y35800D02*
D03*
Y35299D02*
D03*
D38*
X26900Y18150D02*
D03*
Y16250D02*
D03*
X24900Y17200D02*
D03*
X46600Y18150D02*
D03*
Y16250D02*
D03*
X44600Y17200D02*
D03*
D39*
X33250Y17900D02*
D03*
X32550D02*
D03*
X33234Y14900D02*
D03*
X32534D02*
D03*
X52750Y17900D02*
D03*
X52050D02*
D03*
X52850Y14900D02*
D03*
X52150D02*
D03*
D40*
X33650Y50500D02*
D03*
X32350D02*
D03*
X39350Y51900D02*
D03*
X40650D02*
D03*
X33850Y48700D02*
D03*
X32550D02*
D03*
D42*
X56600Y4349D02*
D03*
Y10051D02*
D03*
X35084Y10101D02*
D03*
Y4399D02*
D03*
D43*
X46237Y30850D02*
D03*
Y29150D02*
D03*
X41396D02*
D03*
Y30850D02*
D03*
X43800Y29150D02*
D03*
Y30850D02*
D03*
X48641Y29150D02*
D03*
Y30850D02*
D03*
X51046Y29200D02*
D03*
Y30900D02*
D03*
X25996Y30850D02*
D03*
Y29150D02*
D03*
X23500D02*
D03*
Y30850D02*
D03*
X33209D02*
D03*
Y29150D02*
D03*
X28400Y30850D02*
D03*
Y29150D02*
D03*
X30804Y30850D02*
D03*
Y29150D02*
D03*
D66*
X29406Y71004D02*
D03*
Y67600D02*
D03*
X19500D02*
D03*
D67*
Y71004D02*
D03*
D74*
X3700Y13576D02*
D03*
Y11076D02*
D03*
Y8576D02*
D03*
Y6076D02*
D03*
Y3576D02*
D03*
D78*
X18110Y61350D02*
Y61775D01*
X20834Y64499D01*
X38800Y53796D02*
X39000Y53996D01*
Y55448D02*
X39046Y55494D01*
X38946Y57100D02*
X39046Y57200D01*
X36743Y56257D02*
Y56557D01*
X36500Y56800D02*
X36743Y56557D01*
Y56257D02*
X37900Y55100D01*
Y54400D02*
Y55100D01*
X34800Y48000D02*
Y48400D01*
Y45900D02*
Y48000D01*
X29200Y44860D02*
X33760D01*
X34800Y45900D01*
X29200Y44860D02*
Y44900D01*
X27300Y46800D02*
X29200Y44900D01*
X33850Y48700D02*
X34500D01*
X34800Y48400D01*
X20500Y46800D02*
X27300D01*
D79*
X43000Y55100D02*
Y55250D01*
X33825Y50675D02*
Y53025D01*
X34000Y53200D02*
X34600D01*
X33825Y53025D02*
X34000Y53200D01*
X34304Y54004D02*
X34600D01*
X31400D02*
X32204Y53200D01*
X33500D01*
X34304Y54004D01*
D80*
X36200Y52327D02*
X36527Y52000D01*
X37300D01*
X37000Y50200D02*
Y51500D01*
X36200Y52327D02*
Y52800D01*
X36600Y52400D02*
X38850D01*
X37300Y52000D02*
X37961Y51339D01*
Y49339D02*
Y51339D01*
X42311Y53900D02*
X43800D01*
X41111Y52700D02*
X42311Y53900D01*
X40300Y52700D02*
X41111D01*
X35800Y50400D02*
Y52800D01*
X35400Y51200D02*
Y52800D01*
X43800Y53900D02*
X45300Y55400D01*
X38850Y52400D02*
X39241Y52008D01*
X34700Y50500D02*
Y50500D01*
X39817Y52217D02*
X40300Y52700D01*
X39350Y51900D02*
Y51931D01*
X39636Y52217D01*
X39817D01*
X34700Y50500D02*
X35400Y51200D01*
X30900Y49700D02*
X36500D01*
X56800Y50500D02*
X60000Y53700D01*
X63300D01*
X65100Y51900D01*
X36500Y49700D02*
X37000Y50200D01*
X65100Y51391D02*
Y51900D01*
Y51391D02*
X65433Y51058D01*
X46900Y65300D02*
X60236D01*
X69736Y55800D01*
X39100Y48200D02*
X39600D01*
X37961Y49339D02*
X39100Y48200D01*
X45300Y55400D02*
Y63700D01*
X46900Y65300D01*
D82*
X28400Y29150D02*
X28400Y29150D01*
D83*
X4800Y59900D02*
D03*
D84*
X9000D02*
D03*
X4800Y54400D02*
D03*
X9000D02*
D03*
D85*
X6900Y67200D02*
D03*
D86*
X62000Y27800D02*
D03*
Y31800D02*
D03*
Y35800D02*
D03*
Y39800D02*
D03*
Y43800D02*
D03*
X66000Y29800D02*
D03*
Y33800D02*
D03*
Y37800D02*
D03*
Y41800D02*
D03*
X70000Y27800D02*
D03*
Y31800D02*
D03*
Y35800D02*
D03*
Y39800D02*
D03*
Y43800D02*
D03*
Y55800D02*
D03*
Y51800D02*
D03*
Y47800D02*
D03*
X66000Y53800D02*
D03*
Y49800D02*
D03*
Y45800D02*
D03*
X62000Y55800D02*
D03*
Y51800D02*
D03*
Y47800D02*
D03*
D87*
X37300Y69900D02*
D03*
X68400Y4800D02*
D03*
X5100Y44800D02*
D03*
D88*
X48500Y6500D02*
D03*
X51700Y6600D02*
D03*
X47800Y9000D02*
D03*
X28500Y14000D02*
D03*
X27000Y13900D02*
D03*
X32000Y19000D02*
D03*
X34600Y20700D02*
D03*
X30300Y17000D02*
D03*
X50000Y20800D02*
D03*
X52700Y21100D02*
D03*
X29850Y18050D02*
D03*
X44700Y25800D02*
D03*
X19700Y17400D02*
D03*
X21400Y16500D02*
D03*
X19700Y15900D02*
D03*
X17700Y8900D02*
D03*
Y10700D02*
D03*
X14300Y6800D02*
D03*
X15800Y18700D02*
D03*
X13800D02*
D03*
X32400Y16600D02*
D03*
X36900Y47800D02*
D03*
X41200Y50400D02*
D03*
X39600Y49300D02*
D03*
X36500Y18900D02*
D03*
X32400Y13500D02*
D03*
X48000Y13600D02*
D03*
X46600D02*
D03*
X46237Y27500D02*
D03*
X51300Y19800D02*
D03*
X52600Y24200D02*
D03*
X47900Y19000D02*
D03*
X50400Y10600D02*
D03*
X51400Y12200D02*
D03*
X28400Y19000D02*
D03*
D89*
X30200Y2500D02*
D03*
X30100Y8200D02*
D03*
X32700Y45800D02*
D03*
X20500Y46800D02*
D03*
X29100D02*
D03*
X27000Y44900D02*
D03*
X47300Y46800D02*
D03*
X49400D02*
D03*
X51400D02*
D03*
X25500Y55600D02*
D03*
X27500Y55700D02*
D03*
X25200Y57600D02*
D03*
X27400D02*
D03*
X27600Y53700D02*
D03*
X25200D02*
D03*
X57469Y48468D02*
D03*
X56400Y43500D02*
D03*
X55300Y42000D02*
D03*
X51800Y41900D02*
D03*
X34736Y22836D02*
D03*
X12800Y1100D02*
D03*
X24800Y1800D02*
D03*
X21900D02*
D03*
X62600Y4600D02*
D03*
X60800Y9300D02*
D03*
X62600Y7400D02*
D03*
X53700Y11000D02*
D03*
X17700Y6900D02*
D03*
X17400Y12600D02*
D03*
X17700Y16000D02*
D03*
X5100Y32100D02*
D03*
X8500Y30900D02*
D03*
X11400Y31000D02*
D03*
Y28300D02*
D03*
X20800Y27100D02*
D03*
X18600D02*
D03*
Y24800D02*
D03*
X20700D02*
D03*
X56800Y12600D02*
D03*
X35800Y8200D02*
D03*
X31700Y10900D02*
D03*
X26100Y26900D02*
D03*
X39700Y37300D02*
D03*
X37900Y36300D02*
D03*
X49000Y40200D02*
D03*
X21700Y35300D02*
D03*
X48100Y49700D02*
D03*
Y53100D02*
D03*
X41100Y48300D02*
D03*
X39300Y46800D02*
D03*
X50400Y43000D02*
D03*
X72900Y36000D02*
D03*
Y38500D02*
D03*
Y40600D02*
D03*
Y42600D02*
D03*
X46400Y61600D02*
D03*
X44000Y61900D02*
D03*
Y64000D02*
D03*
Y66000D02*
D03*
X46100Y66000D02*
D03*
X53900Y49700D02*
D03*
X53300Y53100D02*
D03*
X20000Y36300D02*
D03*
X29200Y35400D02*
D03*
X48400Y37700D02*
D03*
X29500Y55700D02*
D03*
X57100Y61900D02*
D03*
X57500Y66200D02*
D03*
X54800D02*
D03*
X51900D02*
D03*
X49100D02*
D03*
X52800Y63700D02*
D03*
X55300D02*
D03*
X50600Y63600D02*
D03*
X56800Y50500D02*
D03*
X55600Y53300D02*
D03*
X37100Y33800D02*
D03*
X48400Y35700D02*
D03*
X49600Y33900D02*
D03*
X50000Y17200D02*
D03*
X36700Y12600D02*
D03*
X26500Y25300D02*
D03*
X19100Y1800D02*
D03*
X53000Y13500D02*
D03*
X30600Y23500D02*
D03*
X22100Y22200D02*
D03*
X14900Y12400D02*
D03*
X57900Y7800D02*
D03*
X18000Y17900D02*
D03*
X46500Y20700D02*
D03*
X21900Y18900D02*
D03*
X25800Y20500D02*
D03*
X39200Y20100D02*
D03*
X8550Y28250D02*
D03*
X36500Y26900D02*
D03*
X19700Y22400D02*
D03*
X55700Y40000D02*
D03*
X55600Y34700D02*
D03*
X54800Y37900D02*
D03*
X55600Y55100D02*
D03*
D90*
X35800Y55200D02*
D03*
X36600Y55200D02*
D03*
X36200Y54800D02*
D03*
X36600D02*
D03*
Y54400D02*
D03*
Y53200D02*
D03*
Y54000D02*
D03*
X35800Y54400D02*
D03*
X36200Y53600D02*
D03*
Y52800D02*
D03*
X36600Y52400D02*
D03*
Y52800D02*
D03*
X36200Y54000D02*
D03*
X35400Y52800D02*
D03*
X35000Y52400D02*
D03*
X35800Y53200D02*
D03*
X34600Y54000D02*
D03*
X35800Y52800D02*
D03*
X34600Y53200D02*
D03*
X36200Y55200D02*
D03*
X35800Y54800D02*
D03*
X34600Y54400D02*
D03*
X35800Y54000D02*
D03*
X34600Y55200D02*
D03*
Y54800D02*
D03*
X35400Y54400D02*
D03*
Y54800D02*
D03*
Y55200D02*
D03*
X36200Y53200D02*
D03*
X35800Y53600D02*
D03*
X35400Y54000D02*
D03*
Y53600D02*
D03*
X36200Y54400D02*
D03*
D92*
X20400Y54800D02*
D03*
X15820D02*
D03*
D93*
X18110Y61350D02*
D03*
D94*
X52950Y59775D02*
D03*
X53900D02*
D03*
X54850D02*
D03*
Y57225D02*
D03*
X52950D02*
D03*
D95*
X31060Y19600D02*
D03*
X30140D02*
D03*
D96*
X73300Y46525D02*
D03*
Y44875D02*
D03*
M02*
