G04*
G04 #@! TF.GenerationSoftware,Altium Limited,Altium Designer,20.2.6 (244)*
G04*
G04 Layer_Color=16711935*
%FSLAX43Y43*%
%MOMM*%
G71*
G04*
G04 #@! TF.SameCoordinates,AB413B8A-FF02-4A9D-ADD2-1BA9649D16F0*
G04*
G04*
G04 #@! TF.FilePolarity,Positive*
G04*
G01*
G75*
%ADD17C,0.200*%
G36*
X27088Y24784D02*
X34112D01*
Y20416D01*
X27088D01*
Y24784D01*
D02*
G37*
G36*
X45388Y25484D02*
X52412D01*
Y21116D01*
X45388D01*
Y25484D01*
D02*
G37*
G36*
X25488Y38484D02*
X32512D01*
Y34116D01*
X25488D01*
Y38484D01*
D02*
G37*
G36*
X37616Y51768D02*
X33984D01*
Y55832D01*
X37616D01*
Y51768D01*
D02*
G37*
G36*
X44988Y38484D02*
X52012D01*
Y34116D01*
X44988D01*
Y38484D01*
D02*
G37*
G36*
X45214Y9531D02*
X45222Y9530D01*
X45230Y9528D01*
X45239Y9526D01*
X45249Y9524D01*
X45271Y9517D01*
X45284Y9511D01*
X45295Y9506D01*
X45307Y9499D01*
X45319Y9490D01*
X45331Y9481D01*
X45342Y9470D01*
X45343Y9469D01*
X45345Y9467D01*
X45347Y9463D01*
X45351Y9459D01*
X45356Y9453D01*
X45360Y9446D01*
X45366Y9437D01*
X45370Y9427D01*
X45376Y9417D01*
X45382Y9405D01*
X45386Y9393D01*
X45391Y9379D01*
X45394Y9364D01*
X45397Y9349D01*
X45399Y9333D01*
X45400Y9315D01*
Y9307D01*
X45399Y9302D01*
X45398Y9294D01*
X45397Y9286D01*
X45395Y9277D01*
X45394Y9266D01*
X45388Y9244D01*
X45379Y9221D01*
X45373Y9209D01*
X45367Y9198D01*
X45358Y9187D01*
X45350Y9176D01*
X45349Y9175D01*
X45347Y9173D01*
X45345Y9170D01*
X45341Y9168D01*
X45336Y9163D01*
X45330Y9158D01*
X45323Y9153D01*
X45315Y9147D01*
X45306Y9142D01*
X45296Y9136D01*
X45274Y9126D01*
X45248Y9118D01*
X45235Y9115D01*
X45220Y9113D01*
X45210Y9192D01*
X45210D01*
X45212Y9192D01*
X45216Y9193D01*
X45221Y9194D01*
X45226Y9195D01*
X45233Y9197D01*
X45247Y9202D01*
X45263Y9208D01*
X45279Y9217D01*
X45294Y9226D01*
X45307Y9237D01*
X45308Y9239D01*
X45311Y9242D01*
X45316Y9250D01*
X45320Y9259D01*
X45326Y9270D01*
X45331Y9284D01*
X45334Y9300D01*
X45335Y9316D01*
Y9322D01*
X45334Y9326D01*
X45333Y9336D01*
X45331Y9349D01*
X45326Y9364D01*
X45320Y9379D01*
X45310Y9395D01*
X45297Y9410D01*
X45296Y9412D01*
X45290Y9416D01*
X45282Y9422D01*
X45271Y9429D01*
X45257Y9437D01*
X45241Y9442D01*
X45222Y9447D01*
X45202Y9449D01*
X45201D01*
X45199D01*
X45197D01*
X45193Y9448D01*
X45183Y9447D01*
X45171Y9444D01*
X45156Y9440D01*
X45141Y9434D01*
X45126Y9425D01*
X45112Y9413D01*
X45111Y9411D01*
X45107Y9406D01*
X45101Y9399D01*
X45095Y9388D01*
X45088Y9376D01*
X45083Y9360D01*
X45079Y9342D01*
X45077Y9323D01*
Y9315D01*
X45078Y9308D01*
X45079Y9300D01*
X45081Y9290D01*
X45083Y9279D01*
X45086Y9267D01*
X45016Y9277D01*
Y9281D01*
X45017Y9285D01*
Y9297D01*
X45015Y9307D01*
X45014Y9319D01*
X45011Y9333D01*
X45006Y9349D01*
X45000Y9364D01*
X44991Y9379D01*
Y9380D01*
X44990Y9381D01*
X44987Y9386D01*
X44980Y9392D01*
X44972Y9400D01*
X44960Y9407D01*
X44946Y9413D01*
X44930Y9418D01*
X44921Y9420D01*
X44911D01*
X44910D01*
X44909D01*
X44904D01*
X44896Y9418D01*
X44886Y9416D01*
X44875Y9413D01*
X44863Y9408D01*
X44851Y9401D01*
X44840Y9390D01*
X44839Y9389D01*
X44835Y9385D01*
X44830Y9378D01*
X44825Y9370D01*
X44820Y9359D01*
X44816Y9346D01*
X44812Y9331D01*
X44811Y9315D01*
Y9307D01*
X44813Y9299D01*
X44815Y9288D01*
X44818Y9276D01*
X44823Y9264D01*
X44830Y9251D01*
X44840Y9239D01*
X44841Y9238D01*
X44845Y9234D01*
X44852Y9229D01*
X44861Y9222D01*
X44873Y9216D01*
X44888Y9209D01*
X44905Y9204D01*
X44926Y9200D01*
X44912Y9121D01*
X44911D01*
X44908Y9122D01*
X44904Y9123D01*
X44899Y9124D01*
X44892Y9126D01*
X44885Y9129D01*
X44867Y9134D01*
X44847Y9143D01*
X44827Y9155D01*
X44807Y9168D01*
X44790Y9186D01*
X44789Y9187D01*
X44788Y9189D01*
X44786Y9192D01*
X44783Y9195D01*
X44780Y9200D01*
X44776Y9206D01*
X44772Y9213D01*
X44768Y9221D01*
X44760Y9240D01*
X44753Y9261D01*
X44748Y9286D01*
X44746Y9299D01*
Y9322D01*
X44747Y9332D01*
X44749Y9344D01*
X44752Y9359D01*
X44757Y9376D01*
X44762Y9392D01*
X44769Y9409D01*
Y9410D01*
X44770Y9411D01*
X44773Y9416D01*
X44779Y9425D01*
X44785Y9434D01*
X44794Y9445D01*
X44805Y9456D01*
X44817Y9467D01*
X44830Y9476D01*
X44832Y9477D01*
X44837Y9480D01*
X44845Y9484D01*
X44855Y9488D01*
X44867Y9493D01*
X44881Y9497D01*
X44897Y9499D01*
X44913Y9500D01*
X44915D01*
X44920D01*
X44928Y9499D01*
X44938Y9498D01*
X44950Y9495D01*
X44963Y9490D01*
X44976Y9485D01*
X44989Y9477D01*
X44990Y9476D01*
X44994Y9474D01*
X45001Y9468D01*
X45008Y9461D01*
X45016Y9451D01*
X45026Y9440D01*
X45034Y9427D01*
X45042Y9412D01*
Y9413D01*
X45043Y9414D01*
X45044Y9417D01*
X45045Y9421D01*
X45049Y9431D01*
X45054Y9444D01*
X45062Y9459D01*
X45071Y9474D01*
X45083Y9487D01*
X45097Y9500D01*
X45099Y9501D01*
X45104Y9505D01*
X45113Y9511D01*
X45125Y9516D01*
X45140Y9522D01*
X45158Y9527D01*
X45178Y9531D01*
X45200Y9532D01*
X45201D01*
X45204D01*
X45209D01*
X45214Y9531D01*
D02*
G37*
G36*
X45143Y9002D02*
X45152D01*
X45163Y9001D01*
X45174Y9000D01*
X45199Y8997D01*
X45225Y8994D01*
X45250Y8988D01*
X45262Y8984D01*
X45273Y8981D01*
X45274D01*
X45276Y8980D01*
X45279Y8978D01*
X45283Y8976D01*
X45293Y8971D01*
X45306Y8962D01*
X45320Y8951D01*
X45335Y8938D01*
X45351Y8922D01*
X45365Y8901D01*
Y8900D01*
X45367Y8898D01*
X45368Y8896D01*
X45370Y8891D01*
X45373Y8886D01*
X45376Y8878D01*
X45379Y8871D01*
X45382Y8861D01*
X45386Y8851D01*
X45389Y8840D01*
X45392Y8828D01*
X45394Y8814D01*
X45396Y8800D01*
X45398Y8786D01*
X45400Y8752D01*
Y8744D01*
X45399Y8738D01*
Y8730D01*
X45398Y8721D01*
X45397Y8711D01*
X45396Y8701D01*
X45393Y8677D01*
X45387Y8653D01*
X45380Y8628D01*
X45369Y8605D01*
Y8604D01*
X45368Y8603D01*
X45366Y8600D01*
X45364Y8596D01*
X45357Y8586D01*
X45346Y8574D01*
X45333Y8560D01*
X45319Y8547D01*
X45300Y8534D01*
X45280Y8524D01*
X45279D01*
X45277Y8523D01*
X45273Y8522D01*
X45269Y8520D01*
X45263Y8518D01*
X45256Y8517D01*
X45247Y8514D01*
X45237Y8512D01*
X45226Y8510D01*
X45214Y8507D01*
X45201Y8506D01*
X45187Y8504D01*
X45172Y8502D01*
X45155Y8501D01*
X45137Y8500D01*
X45119D01*
X44749D01*
Y8585D01*
X45119D01*
X45120D01*
X45123D01*
X45127D01*
X45133D01*
X45139Y8586D01*
X45148D01*
X45165Y8587D01*
X45186Y8589D01*
X45206Y8592D01*
X45225Y8595D01*
X45234Y8597D01*
X45242Y8600D01*
X45244Y8601D01*
X45248Y8603D01*
X45255Y8607D01*
X45264Y8613D01*
X45273Y8619D01*
X45284Y8628D01*
X45294Y8640D01*
X45302Y8653D01*
X45303Y8654D01*
X45306Y8659D01*
X45308Y8667D01*
X45312Y8678D01*
X45317Y8691D01*
X45320Y8708D01*
X45322Y8726D01*
X45323Y8745D01*
Y8754D01*
X45322Y8760D01*
Y8768D01*
X45321Y8776D01*
X45318Y8797D01*
X45313Y8819D01*
X45306Y8840D01*
X45296Y8861D01*
X45289Y8870D01*
X45282Y8878D01*
X45281Y8879D01*
X45280Y8880D01*
X45277Y8882D01*
X45273Y8885D01*
X45268Y8887D01*
X45262Y8891D01*
X45254Y8895D01*
X45246Y8898D01*
X45235Y8902D01*
X45223Y8905D01*
X45210Y8909D01*
X45195Y8911D01*
X45178Y8914D01*
X45161Y8916D01*
X45140Y8918D01*
X45119D01*
X44749D01*
Y9003D01*
X45119D01*
X45120D01*
X45124D01*
X45128D01*
X45135D01*
X45143Y9002D01*
D02*
G37*
G36*
X25693Y9101D02*
X25692D01*
X25689D01*
X25683D01*
X25676Y9102D01*
X25667Y9103D01*
X25658Y9105D01*
X25649Y9106D01*
X25639Y9110D01*
X25638D01*
X25637Y9111D01*
X25631Y9113D01*
X25623Y9117D01*
X25612Y9122D01*
X25599Y9130D01*
X25584Y9139D01*
X25569Y9149D01*
X25554Y9162D01*
X25553D01*
X25552Y9164D01*
X25546Y9168D01*
X25538Y9177D01*
X25526Y9189D01*
X25512Y9203D01*
X25495Y9220D01*
X25477Y9241D01*
X25457Y9265D01*
X25456Y9266D01*
X25454Y9269D01*
X25449Y9275D01*
X25444Y9281D01*
X25436Y9290D01*
X25428Y9300D01*
X25419Y9310D01*
X25408Y9322D01*
X25386Y9345D01*
X25364Y9368D01*
X25353Y9379D01*
X25342Y9389D01*
X25332Y9399D01*
X25321Y9406D01*
X25321D01*
X25320Y9408D01*
X25317Y9410D01*
X25313Y9412D01*
X25303Y9418D01*
X25291Y9425D01*
X25276Y9432D01*
X25260Y9438D01*
X25243Y9442D01*
X25226Y9444D01*
X25225D01*
X25224D01*
X25219Y9443D01*
X25210Y9442D01*
X25199Y9439D01*
X25187Y9436D01*
X25174Y9429D01*
X25161Y9421D01*
X25148Y9410D01*
X25146Y9408D01*
X25142Y9403D01*
X25138Y9397D01*
X25131Y9387D01*
X25125Y9374D01*
X25120Y9359D01*
X25116Y9341D01*
X25115Y9322D01*
Y9316D01*
X25116Y9313D01*
X25117Y9302D01*
X25120Y9289D01*
X25124Y9275D01*
X25130Y9259D01*
X25138Y9244D01*
X25150Y9230D01*
X25151Y9229D01*
X25156Y9225D01*
X25163Y9219D01*
X25174Y9214D01*
X25187Y9207D01*
X25204Y9202D01*
X25223Y9198D01*
X25244Y9196D01*
X25236Y9116D01*
X25235D01*
X25232Y9117D01*
X25227D01*
X25221Y9118D01*
X25213Y9119D01*
X25205Y9121D01*
X25195Y9124D01*
X25185Y9127D01*
X25162Y9134D01*
X25140Y9145D01*
X25129Y9152D01*
X25118Y9160D01*
X25108Y9168D01*
X25099Y9178D01*
X25098Y9179D01*
X25097Y9180D01*
X25094Y9183D01*
X25091Y9188D01*
X25088Y9193D01*
X25084Y9200D01*
X25079Y9207D01*
X25075Y9217D01*
X25070Y9227D01*
X25065Y9238D01*
X25062Y9250D01*
X25058Y9263D01*
X25055Y9277D01*
X25052Y9291D01*
X25052Y9307D01*
X25051Y9324D01*
Y9333D01*
X25052Y9339D01*
X25052Y9347D01*
X25053Y9356D01*
X25055Y9366D01*
X25057Y9376D01*
X25064Y9401D01*
X25073Y9425D01*
X25078Y9437D01*
X25085Y9449D01*
X25093Y9460D01*
X25102Y9470D01*
X25103Y9471D01*
X25104Y9473D01*
X25108Y9474D01*
X25112Y9478D01*
X25116Y9483D01*
X25123Y9487D01*
X25129Y9492D01*
X25138Y9498D01*
X25155Y9507D01*
X25177Y9516D01*
X25188Y9520D01*
X25201Y9522D01*
X25214Y9523D01*
X25228Y9524D01*
X25230D01*
X25235D01*
X25242Y9523D01*
X25252Y9523D01*
X25263Y9521D01*
X25276Y9517D01*
X25290Y9513D01*
X25304Y9508D01*
X25306Y9507D01*
X25310Y9505D01*
X25318Y9501D01*
X25328Y9496D01*
X25339Y9488D01*
X25353Y9479D01*
X25367Y9468D01*
X25383Y9455D01*
X25384Y9453D01*
X25390Y9449D01*
X25395Y9444D01*
X25399Y9439D01*
X25405Y9434D01*
X25412Y9426D01*
X25419Y9419D01*
X25428Y9410D01*
X25437Y9401D01*
X25447Y9389D01*
X25457Y9377D01*
X25469Y9364D01*
X25481Y9350D01*
X25494Y9335D01*
X25495Y9334D01*
X25497Y9332D01*
X25500Y9328D01*
X25504Y9324D01*
X25509Y9318D01*
X25515Y9312D01*
X25527Y9297D01*
X25541Y9281D01*
X25554Y9266D01*
X25566Y9253D01*
X25571Y9248D01*
X25576Y9243D01*
X25577Y9242D01*
X25579Y9240D01*
X25583Y9236D01*
X25589Y9231D01*
X25595Y9227D01*
X25602Y9221D01*
X25617Y9210D01*
Y9525D01*
X25693D01*
Y9101D01*
D02*
G37*
G36*
X25447Y9002D02*
X25456D01*
X25468Y9001D01*
X25479Y9000D01*
X25504Y8997D01*
X25530Y8994D01*
X25554Y8988D01*
X25566Y8984D01*
X25578Y8981D01*
X25579D01*
X25580Y8980D01*
X25583Y8978D01*
X25587Y8976D01*
X25597Y8971D01*
X25610Y8962D01*
X25625Y8951D01*
X25640Y8938D01*
X25655Y8922D01*
X25669Y8901D01*
Y8900D01*
X25671Y8898D01*
X25672Y8896D01*
X25675Y8891D01*
X25677Y8886D01*
X25680Y8878D01*
X25683Y8871D01*
X25687Y8861D01*
X25690Y8851D01*
X25693Y8840D01*
X25696Y8828D01*
X25699Y8814D01*
X25701Y8800D01*
X25702Y8786D01*
X25704Y8752D01*
Y8744D01*
X25703Y8738D01*
Y8730D01*
X25702Y8721D01*
X25701Y8711D01*
X25701Y8701D01*
X25697Y8677D01*
X25691Y8653D01*
X25684Y8628D01*
X25674Y8605D01*
Y8604D01*
X25672Y8603D01*
X25670Y8600D01*
X25668Y8596D01*
X25661Y8586D01*
X25651Y8574D01*
X25638Y8560D01*
X25623Y8547D01*
X25604Y8534D01*
X25584Y8524D01*
X25583D01*
X25581Y8523D01*
X25578Y8522D01*
X25573Y8520D01*
X25567Y8518D01*
X25560Y8517D01*
X25552Y8514D01*
X25542Y8512D01*
X25530Y8510D01*
X25518Y8507D01*
X25505Y8506D01*
X25492Y8504D01*
X25476Y8502D01*
X25459Y8501D01*
X25442Y8500D01*
X25423D01*
X25053D01*
Y8585D01*
X25423D01*
X25424D01*
X25427D01*
X25432D01*
X25437D01*
X25444Y8586D01*
X25452D01*
X25469Y8587D01*
X25490Y8589D01*
X25510Y8592D01*
X25530Y8595D01*
X25538Y8597D01*
X25546Y8600D01*
X25548Y8601D01*
X25553Y8603D01*
X25559Y8607D01*
X25568Y8613D01*
X25578Y8619D01*
X25588Y8628D01*
X25598Y8640D01*
X25606Y8653D01*
X25607Y8654D01*
X25610Y8659D01*
X25613Y8667D01*
X25616Y8678D01*
X25621Y8691D01*
X25624Y8708D01*
X25627Y8726D01*
X25628Y8745D01*
Y8754D01*
X25627Y8760D01*
Y8768D01*
X25626Y8776D01*
X25622Y8797D01*
X25617Y8819D01*
X25610Y8840D01*
X25600Y8861D01*
X25593Y8870D01*
X25586Y8878D01*
X25585Y8879D01*
X25584Y8880D01*
X25581Y8882D01*
X25578Y8885D01*
X25572Y8887D01*
X25566Y8891D01*
X25558Y8895D01*
X25550Y8898D01*
X25540Y8902D01*
X25528Y8905D01*
X25514Y8909D01*
X25499Y8911D01*
X25482Y8914D01*
X25465Y8916D01*
X25444Y8918D01*
X25423D01*
X25053D01*
Y9003D01*
X25423D01*
X25424D01*
X25428D01*
X25432D01*
X25439D01*
X25447Y9002D01*
D02*
G37*
G36*
X22938Y44153D02*
X22945Y44152D01*
X22954Y44152D01*
X22965Y44150D01*
X22975Y44148D01*
X22999Y44141D01*
X23023Y44132D01*
X23035Y44127D01*
X23047Y44120D01*
X23058Y44112D01*
X23068Y44103D01*
X23069Y44102D01*
X23071Y44101D01*
X23073Y44097D01*
X23077Y44093D01*
X23081Y44089D01*
X23086Y44082D01*
X23090Y44076D01*
X23096Y44067D01*
X23105Y44050D01*
X23114Y44028D01*
X23118Y44017D01*
X23120Y44004D01*
X23122Y43991D01*
X23123Y43977D01*
Y43975D01*
Y43970D01*
X23122Y43963D01*
X23121Y43953D01*
X23119Y43942D01*
X23115Y43929D01*
X23112Y43915D01*
X23106Y43901D01*
X23105Y43899D01*
X23103Y43895D01*
X23100Y43887D01*
X23094Y43877D01*
X23087Y43866D01*
X23077Y43852D01*
X23066Y43838D01*
X23053Y43822D01*
X23052Y43821D01*
X23047Y43815D01*
X23042Y43810D01*
X23038Y43806D01*
X23032Y43800D01*
X23025Y43793D01*
X23017Y43785D01*
X23008Y43777D01*
X22999Y43768D01*
X22988Y43758D01*
X22976Y43748D01*
X22963Y43736D01*
X22948Y43723D01*
X22933Y43711D01*
X22932Y43710D01*
X22930Y43708D01*
X22927Y43705D01*
X22922Y43701D01*
X22917Y43696D01*
X22910Y43690D01*
X22895Y43678D01*
X22880Y43664D01*
X22865Y43650D01*
X22852Y43638D01*
X22846Y43634D01*
X22842Y43629D01*
X22841Y43628D01*
X22838Y43625D01*
X22834Y43622D01*
X22830Y43616D01*
X22825Y43610D01*
X22819Y43603D01*
X22808Y43588D01*
X23124D01*
Y43512D01*
X22699D01*
Y43513D01*
Y43516D01*
Y43522D01*
X22700Y43529D01*
X22701Y43538D01*
X22703Y43547D01*
X22705Y43556D01*
X22709Y43566D01*
Y43567D01*
X22709Y43568D01*
X22711Y43574D01*
X22715Y43582D01*
X22721Y43593D01*
X22728Y43606D01*
X22737Y43621D01*
X22747Y43636D01*
X22760Y43651D01*
Y43652D01*
X22762Y43653D01*
X22767Y43659D01*
X22775Y43667D01*
X22787Y43679D01*
X22801Y43693D01*
X22819Y43710D01*
X22840Y43728D01*
X22863Y43748D01*
X22864Y43748D01*
X22868Y43751D01*
X22873Y43756D01*
X22880Y43761D01*
X22888Y43769D01*
X22898Y43777D01*
X22908Y43786D01*
X22920Y43797D01*
X22943Y43819D01*
X22966Y43841D01*
X22978Y43852D01*
X22988Y43863D01*
X22997Y43873D01*
X23004Y43883D01*
Y43884D01*
X23006Y43885D01*
X23008Y43888D01*
X23010Y43892D01*
X23016Y43902D01*
X23024Y43914D01*
X23030Y43929D01*
X23037Y43944D01*
X23040Y43962D01*
X23042Y43979D01*
Y43980D01*
Y43981D01*
X23041Y43986D01*
X23040Y43995D01*
X23038Y44005D01*
X23034Y44018D01*
X23028Y44031D01*
X23019Y44044D01*
X23008Y44057D01*
X23006Y44059D01*
X23002Y44063D01*
X22995Y44067D01*
X22985Y44074D01*
X22972Y44079D01*
X22957Y44085D01*
X22940Y44089D01*
X22920Y44090D01*
X22915D01*
X22911Y44089D01*
X22900Y44088D01*
X22887Y44085D01*
X22873Y44081D01*
X22857Y44075D01*
X22843Y44066D01*
X22829Y44055D01*
X22827Y44054D01*
X22823Y44049D01*
X22818Y44042D01*
X22812Y44030D01*
X22806Y44017D01*
X22800Y44001D01*
X22796Y43982D01*
X22795Y43961D01*
X22714Y43969D01*
Y43970D01*
X22715Y43973D01*
Y43978D01*
X22716Y43984D01*
X22718Y43992D01*
X22720Y44000D01*
X22722Y44010D01*
X22725Y44020D01*
X22733Y44042D01*
X22744Y44065D01*
X22750Y44076D01*
X22758Y44087D01*
X22767Y44097D01*
X22776Y44106D01*
X22777Y44107D01*
X22779Y44108D01*
X22782Y44111D01*
X22786Y44114D01*
X22792Y44117D01*
X22798Y44121D01*
X22806Y44126D01*
X22815Y44130D01*
X22825Y44135D01*
X22836Y44140D01*
X22848Y44143D01*
X22861Y44147D01*
X22875Y44150D01*
X22890Y44152D01*
X22905Y44153D01*
X22922Y44154D01*
X22931D01*
X22938Y44153D01*
D02*
G37*
G36*
X22509Y43512D02*
X22430D01*
Y44012D01*
X22429Y44011D01*
X22425Y44007D01*
X22419Y44002D01*
X22410Y43995D01*
X22400Y43987D01*
X22387Y43978D01*
X22372Y43968D01*
X22355Y43957D01*
X22354D01*
X22354Y43956D01*
X22348Y43953D01*
X22339Y43948D01*
X22328Y43943D01*
X22315Y43936D01*
X22301Y43930D01*
X22287Y43923D01*
X22273Y43918D01*
Y43993D01*
X22274D01*
X22276Y43995D01*
X22280Y43996D01*
X22284Y43999D01*
X22290Y44002D01*
X22296Y44005D01*
X22312Y44015D01*
X22330Y44025D01*
X22349Y44038D01*
X22368Y44053D01*
X22388Y44068D01*
X22389Y44069D01*
X22390Y44070D01*
X22392Y44073D01*
X22396Y44076D01*
X22404Y44085D01*
X22415Y44096D01*
X22427Y44109D01*
X22439Y44124D01*
X22449Y44139D01*
X22458Y44154D01*
X22509D01*
Y43512D01*
D02*
G37*
G36*
X21863Y44151D02*
X21881Y44150D01*
X21900Y44148D01*
X21918Y44145D01*
X21934Y44142D01*
X21935D01*
X21937Y44141D01*
X21939D01*
X21943Y44140D01*
X21953Y44137D01*
X21966Y44132D01*
X21981Y44126D01*
X21997Y44117D01*
X22012Y44108D01*
X22027Y44096D01*
X22028Y44095D01*
X22029Y44094D01*
X22032Y44091D01*
X22035Y44089D01*
X22045Y44079D01*
X22056Y44066D01*
X22068Y44051D01*
X22081Y44032D01*
X22093Y44011D01*
X22103Y43987D01*
Y43986D01*
X22104Y43984D01*
X22106Y43981D01*
X22107Y43975D01*
X22109Y43968D01*
X22111Y43961D01*
X22113Y43953D01*
X22116Y43943D01*
X22119Y43932D01*
X22121Y43920D01*
X22125Y43895D01*
X22128Y43866D01*
X22129Y43834D01*
Y43833D01*
Y43832D01*
Y43827D01*
Y43822D01*
X22128Y43816D01*
Y43809D01*
X22127Y43791D01*
X22124Y43771D01*
X22121Y43749D01*
X22117Y43727D01*
X22111Y43705D01*
Y43704D01*
X22110Y43702D01*
X22109Y43699D01*
X22109Y43696D01*
X22105Y43686D01*
X22099Y43673D01*
X22094Y43658D01*
X22086Y43643D01*
X22077Y43627D01*
X22068Y43613D01*
X22067Y43611D01*
X22063Y43606D01*
X22058Y43600D01*
X22050Y43591D01*
X22042Y43582D01*
X22032Y43573D01*
X22022Y43563D01*
X22010Y43554D01*
X22008Y43553D01*
X22004Y43551D01*
X21998Y43547D01*
X21988Y43542D01*
X21977Y43537D01*
X21964Y43532D01*
X21949Y43527D01*
X21933Y43522D01*
X21931D01*
X21928Y43521D01*
X21925Y43520D01*
X21916Y43519D01*
X21903Y43517D01*
X21888Y43515D01*
X21871Y43514D01*
X21851Y43513D01*
X21830Y43512D01*
X21600D01*
Y44152D01*
X21846D01*
X21863Y44151D01*
D02*
G37*
G36*
X57240Y6871D02*
X57239Y6863D01*
Y6855D01*
X57238Y6836D01*
X57235Y6815D01*
X57232Y6793D01*
X57228Y6773D01*
X57225Y6763D01*
X57222Y6754D01*
Y6753D01*
X57221Y6753D01*
X57219Y6747D01*
X57215Y6739D01*
X57208Y6728D01*
X57200Y6717D01*
X57189Y6705D01*
X57176Y6694D01*
X57161Y6683D01*
X57160D01*
X57159Y6682D01*
X57154Y6679D01*
X57145Y6675D01*
X57133Y6669D01*
X57119Y6665D01*
X57102Y6660D01*
X57084Y6657D01*
X57065Y6656D01*
X57064D01*
X57062D01*
X57059D01*
X57054Y6657D01*
X57047D01*
X57041Y6658D01*
X57025Y6662D01*
X57007Y6667D01*
X56987Y6675D01*
X56968Y6686D01*
X56959Y6693D01*
X56949Y6701D01*
X56949Y6702D01*
X56948Y6703D01*
X56945Y6705D01*
X56942Y6709D01*
X56938Y6714D01*
X56935Y6719D01*
X56930Y6727D01*
X56925Y6734D01*
X56920Y6743D01*
X56915Y6753D01*
X56910Y6765D01*
X56905Y6777D01*
X56901Y6790D01*
X56897Y6804D01*
X56894Y6820D01*
X56891Y6837D01*
X56890Y6835D01*
X56888Y6831D01*
X56885Y6826D01*
X56881Y6818D01*
X56871Y6802D01*
X56864Y6793D01*
X56859Y6786D01*
X56857Y6784D01*
X56852Y6779D01*
X56845Y6772D01*
X56836Y6763D01*
X56823Y6753D01*
X56809Y6741D01*
X56792Y6728D01*
X56774Y6716D01*
X56600Y6606D01*
Y6711D01*
X56733Y6795D01*
X56734D01*
X56736Y6797D01*
X56739Y6799D01*
X56742Y6802D01*
X56753Y6808D01*
X56765Y6816D01*
X56779Y6826D01*
X56794Y6837D01*
X56808Y6847D01*
X56821Y6856D01*
X56822Y6857D01*
X56826Y6860D01*
X56831Y6864D01*
X56838Y6871D01*
X56851Y6885D01*
X56858Y6892D01*
X56863Y6900D01*
X56864Y6900D01*
X56865Y6902D01*
X56867Y6906D01*
X56870Y6912D01*
X56873Y6917D01*
X56875Y6924D01*
X56880Y6938D01*
Y6939D01*
X56881Y6941D01*
Y6945D01*
X56882Y6949D01*
X56883Y6956D01*
Y6963D01*
X56884Y6973D01*
Y7083D01*
X56600D01*
Y7168D01*
X57240D01*
Y6871D01*
D02*
G37*
G36*
Y6289D02*
Y6226D01*
X56826D01*
Y6139D01*
X56753D01*
Y6226D01*
X56600D01*
Y6304D01*
X56753D01*
Y6582D01*
X56826D01*
X57240Y6289D01*
D02*
G37*
G36*
X56618Y6068D02*
X56626Y6067D01*
X56635Y6066D01*
X56644Y6064D01*
X56655Y6060D01*
X56655D01*
X56656Y6059D01*
X56662Y6057D01*
X56670Y6054D01*
X56681Y6048D01*
X56694Y6041D01*
X56709Y6031D01*
X56724Y6021D01*
X56740Y6008D01*
X56741D01*
X56741Y6006D01*
X56747Y6002D01*
X56755Y5993D01*
X56767Y5981D01*
X56781Y5968D01*
X56798Y5950D01*
X56816Y5929D01*
X56836Y5906D01*
X56837Y5905D01*
X56839Y5901D01*
X56844Y5895D01*
X56850Y5889D01*
X56857Y5881D01*
X56865Y5871D01*
X56875Y5860D01*
X56885Y5848D01*
X56907Y5825D01*
X56929Y5802D01*
X56940Y5791D01*
X56951Y5781D01*
X56961Y5772D01*
X56972Y5764D01*
X56973D01*
X56974Y5762D01*
X56976Y5760D01*
X56980Y5759D01*
X56990Y5752D01*
X57002Y5745D01*
X57017Y5738D01*
X57033Y5732D01*
X57050Y5728D01*
X57067Y5726D01*
X57068D01*
X57069D01*
X57074Y5727D01*
X57084Y5728D01*
X57094Y5731D01*
X57107Y5735D01*
X57120Y5741D01*
X57133Y5749D01*
X57145Y5760D01*
X57147Y5762D01*
X57151Y5767D01*
X57156Y5773D01*
X57162Y5784D01*
X57168Y5797D01*
X57173Y5811D01*
X57177Y5829D01*
X57178Y5848D01*
Y5854D01*
X57177Y5858D01*
X57176Y5869D01*
X57173Y5882D01*
X57170Y5895D01*
X57163Y5911D01*
X57155Y5926D01*
X57144Y5940D01*
X57142Y5942D01*
X57137Y5945D01*
X57130Y5951D01*
X57119Y5956D01*
X57106Y5963D01*
X57089Y5969D01*
X57071Y5972D01*
X57049Y5974D01*
X57058Y6054D01*
X57059D01*
X57061Y6054D01*
X57066D01*
X57072Y6053D01*
X57080Y6051D01*
X57088Y6049D01*
X57098Y6046D01*
X57108Y6043D01*
X57131Y6036D01*
X57153Y6025D01*
X57164Y6018D01*
X57175Y6010D01*
X57185Y6002D01*
X57194Y5993D01*
X57195Y5992D01*
X57196Y5990D01*
X57199Y5987D01*
X57202Y5982D01*
X57206Y5977D01*
X57209Y5970D01*
X57214Y5963D01*
X57219Y5954D01*
X57223Y5944D01*
X57228Y5932D01*
X57231Y5920D01*
X57235Y5907D01*
X57238Y5894D01*
X57241Y5879D01*
X57242Y5863D01*
X57243Y5846D01*
Y5837D01*
X57242Y5831D01*
X57241Y5823D01*
X57240Y5814D01*
X57238Y5804D01*
X57236Y5794D01*
X57230Y5770D01*
X57220Y5746D01*
X57215Y5734D01*
X57208Y5722D01*
X57200Y5711D01*
X57191Y5700D01*
X57190Y5699D01*
X57189Y5698D01*
X57185Y5696D01*
X57182Y5692D01*
X57177Y5687D01*
X57170Y5683D01*
X57164Y5678D01*
X57156Y5673D01*
X57138Y5663D01*
X57116Y5654D01*
X57105Y5650D01*
X57092Y5649D01*
X57079Y5647D01*
X57065Y5646D01*
X57063D01*
X57059D01*
X57051Y5647D01*
X57041Y5648D01*
X57030Y5650D01*
X57017Y5653D01*
X57003Y5657D01*
X56989Y5662D01*
X56987Y5663D01*
X56983Y5665D01*
X56975Y5669D01*
X56965Y5674D01*
X56954Y5682D01*
X56940Y5691D01*
X56926Y5702D01*
X56911Y5715D01*
X56909Y5717D01*
X56903Y5722D01*
X56899Y5726D01*
X56894Y5731D01*
X56888Y5736D01*
X56881Y5744D01*
X56874Y5751D01*
X56865Y5760D01*
X56856Y5770D01*
X56846Y5781D01*
X56836Y5793D01*
X56824Y5806D01*
X56812Y5821D01*
X56799Y5835D01*
X56798Y5836D01*
X56796Y5838D01*
X56793Y5842D01*
X56790Y5846D01*
X56784Y5852D01*
X56778Y5858D01*
X56766Y5873D01*
X56753Y5889D01*
X56739Y5904D01*
X56727Y5917D01*
X56722Y5922D01*
X56717Y5927D01*
X56716Y5928D01*
X56714Y5931D01*
X56710Y5934D01*
X56704Y5939D01*
X56698Y5944D01*
X56692Y5949D01*
X56676Y5960D01*
Y5645D01*
X56600D01*
Y6069D01*
X56601D01*
X56605D01*
X56610D01*
X56618Y6068D01*
D02*
G37*
G36*
X35744Y6928D02*
X35743Y6921D01*
Y6913D01*
X35742Y6893D01*
X35739Y6873D01*
X35737Y6851D01*
X35732Y6830D01*
X35729Y6820D01*
X35726Y6812D01*
Y6811D01*
X35726Y6810D01*
X35723Y6804D01*
X35719Y6796D01*
X35713Y6786D01*
X35704Y6775D01*
X35693Y6763D01*
X35680Y6752D01*
X35665Y6741D01*
X35665D01*
X35664Y6740D01*
X35658Y6736D01*
X35649Y6732D01*
X35637Y6727D01*
X35623Y6722D01*
X35606Y6717D01*
X35589Y6715D01*
X35569Y6714D01*
X35568D01*
X35567D01*
X35563D01*
X35558Y6715D01*
X35552D01*
X35545Y6716D01*
X35530Y6719D01*
X35511Y6725D01*
X35492Y6732D01*
X35472Y6743D01*
X35463Y6751D01*
X35454Y6758D01*
X35453Y6759D01*
X35452Y6760D01*
X35449Y6763D01*
X35446Y6766D01*
X35443Y6771D01*
X35439Y6777D01*
X35434Y6784D01*
X35429Y6791D01*
X35424Y6801D01*
X35420Y6811D01*
X35414Y6822D01*
X35409Y6834D01*
X35406Y6848D01*
X35401Y6862D01*
X35398Y6877D01*
X35395Y6894D01*
X35395Y6892D01*
X35393Y6888D01*
X35389Y6883D01*
X35385Y6876D01*
X35375Y6859D01*
X35369Y6851D01*
X35363Y6843D01*
X35361Y6841D01*
X35357Y6837D01*
X35349Y6829D01*
X35340Y6820D01*
X35327Y6810D01*
X35313Y6798D01*
X35297Y6786D01*
X35278Y6773D01*
X35104Y6663D01*
Y6768D01*
X35237Y6852D01*
X35238D01*
X35240Y6854D01*
X35243Y6856D01*
X35247Y6859D01*
X35257Y6865D01*
X35270Y6874D01*
X35284Y6884D01*
X35298Y6894D01*
X35312Y6904D01*
X35325Y6913D01*
X35326Y6914D01*
X35330Y6917D01*
X35335Y6922D01*
X35342Y6928D01*
X35356Y6942D01*
X35362Y6949D01*
X35368Y6957D01*
X35369Y6958D01*
X35370Y6960D01*
X35371Y6963D01*
X35374Y6969D01*
X35377Y6974D01*
X35380Y6981D01*
X35384Y6996D01*
Y6997D01*
X35385Y6998D01*
Y7002D01*
X35386Y7007D01*
X35387Y7013D01*
Y7021D01*
X35388Y7031D01*
Y7140D01*
X35104D01*
Y7225D01*
X35744D01*
Y6928D01*
D02*
G37*
G36*
Y6347D02*
Y6283D01*
X35330D01*
Y6196D01*
X35258D01*
Y6283D01*
X35104D01*
Y6361D01*
X35258D01*
Y6640D01*
X35330D01*
X35744Y6347D01*
D02*
G37*
G36*
X35586Y6055D02*
X35588Y6053D01*
X35589Y6049D01*
X35591Y6044D01*
X35594Y6039D01*
X35598Y6032D01*
X35607Y6017D01*
X35617Y5998D01*
X35630Y5980D01*
X35645Y5960D01*
X35661Y5941D01*
X35662Y5940D01*
X35663Y5939D01*
X35665Y5936D01*
X35668Y5932D01*
X35677Y5924D01*
X35689Y5913D01*
X35701Y5902D01*
X35716Y5890D01*
X35731Y5880D01*
X35747Y5871D01*
Y5820D01*
X35104D01*
Y5898D01*
X35604D01*
X35603Y5899D01*
X35600Y5904D01*
X35594Y5909D01*
X35588Y5919D01*
X35579Y5929D01*
X35570Y5942D01*
X35560Y5957D01*
X35550Y5973D01*
Y5974D01*
X35549Y5975D01*
X35545Y5981D01*
X35541Y5990D01*
X35535Y6001D01*
X35529Y6014D01*
X35522Y6028D01*
X35516Y6042D01*
X35510Y6055D01*
X35586D01*
Y6055D01*
D02*
G37*
%LPC*%
G36*
X21833Y44076D02*
X21685D01*
Y43588D01*
X21837D01*
X21843Y43588D01*
X21857Y43589D01*
X21873Y43590D01*
X21889Y43592D01*
X21906Y43595D01*
X21920Y43599D01*
X21922Y43600D01*
X21926Y43601D01*
X21933Y43603D01*
X21941Y43607D01*
X21950Y43613D01*
X21960Y43618D01*
X21969Y43625D01*
X21978Y43632D01*
X21979Y43634D01*
X21983Y43637D01*
X21988Y43644D01*
X21995Y43653D01*
X22002Y43665D01*
X22010Y43679D01*
X22018Y43695D01*
X22024Y43712D01*
Y43713D01*
X22025Y43715D01*
X22026Y43718D01*
X22027Y43722D01*
X22028Y43726D01*
X22030Y43733D01*
X22032Y43739D01*
X22034Y43747D01*
X22036Y43765D01*
X22039Y43786D01*
X22041Y43810D01*
X22042Y43836D01*
Y43837D01*
Y43841D01*
Y43846D01*
X22041Y43853D01*
Y43861D01*
X22040Y43870D01*
X22039Y43882D01*
X22038Y43893D01*
X22034Y43918D01*
X22028Y43944D01*
X22020Y43968D01*
X22014Y43980D01*
X22009Y43990D01*
Y43991D01*
X22007Y43993D01*
X22005Y43995D01*
X22003Y43999D01*
X21996Y44008D01*
X21986Y44019D01*
X21974Y44031D01*
X21961Y44043D01*
X21945Y44054D01*
X21928Y44062D01*
X21926Y44063D01*
X21922Y44064D01*
X21913Y44066D01*
X21901Y44069D01*
X21887Y44071D01*
X21868Y44074D01*
X21857Y44075D01*
X21845D01*
X21833Y44076D01*
D02*
G37*
G36*
X57169Y7083D02*
X56957D01*
Y6892D01*
X56958Y6881D01*
X56959Y6868D01*
X56960Y6853D01*
X56961Y6839D01*
X56964Y6824D01*
X56968Y6811D01*
X56969Y6809D01*
X56971Y6805D01*
X56974Y6800D01*
X56977Y6792D01*
X56983Y6784D01*
X56989Y6776D01*
X56998Y6767D01*
X57007Y6761D01*
X57008Y6760D01*
X57011Y6758D01*
X57017Y6755D01*
X57024Y6752D01*
X57033Y6749D01*
X57042Y6746D01*
X57053Y6744D01*
X57064Y6743D01*
X57065D01*
X57066D01*
X57072Y6744D01*
X57080Y6745D01*
X57091Y6747D01*
X57102Y6752D01*
X57115Y6757D01*
X57127Y6765D01*
X57139Y6777D01*
X57140Y6778D01*
X57144Y6783D01*
X57148Y6790D01*
X57154Y6802D01*
X57159Y6816D01*
X57164Y6835D01*
X57168Y6856D01*
X57169Y6881D01*
Y7083D01*
D02*
G37*
G36*
X56826Y6506D02*
Y6304D01*
X57112D01*
X56826Y6506D01*
D02*
G37*
G36*
X35673Y7140D02*
X35461D01*
Y6949D01*
X35462Y6938D01*
X35463Y6925D01*
X35464Y6911D01*
X35466Y6896D01*
X35469Y6881D01*
X35472Y6868D01*
X35473Y6866D01*
X35475Y6863D01*
X35478Y6857D01*
X35481Y6850D01*
X35487Y6841D01*
X35493Y6833D01*
X35502Y6825D01*
X35511Y6818D01*
X35512Y6817D01*
X35516Y6815D01*
X35521Y6813D01*
X35529Y6809D01*
X35537Y6806D01*
X35546Y6803D01*
X35557Y6802D01*
X35568Y6801D01*
X35569D01*
X35570D01*
X35576Y6802D01*
X35584Y6802D01*
X35595Y6804D01*
X35606Y6809D01*
X35619Y6815D01*
X35631Y6823D01*
X35643Y6834D01*
X35644Y6836D01*
X35648Y6840D01*
X35653Y6848D01*
X35658Y6860D01*
X35664Y6874D01*
X35668Y6892D01*
X35672Y6913D01*
X35673Y6938D01*
Y7140D01*
D02*
G37*
G36*
X35330Y6563D02*
Y6361D01*
X35616D01*
X35330Y6563D01*
D02*
G37*
%LPD*%
D17*
X43750Y4825D02*
X47050D01*
Y12175D01*
X43750D02*
X47050D01*
X43750Y4825D02*
Y12175D01*
X24054Y4825D02*
X27354D01*
Y12175D01*
X24054D02*
X27354D01*
X24054Y4825D02*
Y12175D01*
X20275Y43150D02*
Y44250D01*
Y43150D02*
X22925D01*
Y44250D01*
X20275D02*
X22925D01*
X54850Y10696D02*
X58350D01*
X54850Y3640D02*
Y10696D01*
Y3640D02*
X58350D01*
Y10696D01*
X36854Y3697D02*
Y10753D01*
X33354Y3697D02*
X36854D01*
X33354D02*
Y10753D01*
X36854D01*
M02*
