G04*
G04 #@! TF.GenerationSoftware,Altium Limited,Altium Designer,20.2.6 (244)*
G04*
G04 Layer_Color=16711935*
%FSLAX43Y43*%
%MOMM*%
G71*
G04*
G04 #@! TF.SameCoordinates,2F8EC30A-7D6A-479A-A738-A0A0F7C0B456*
G04*
G04*
G04 #@! TF.FilePolarity,Positive*
G04*
G01*
G75*
%ADD13C,0.100*%
%ADD14C,0.508*%
%ADD15C,0.127*%
%ADD20C,0.076*%
%ADD96C,0.000*%
%ADD97C,0.025*%
D13*
X29250Y6700D02*
X29750D01*
X29250Y5700D02*
X29750D01*
Y6700D01*
X29250Y5700D02*
Y6700D01*
X30550D02*
X31050D01*
X30550Y5700D02*
X31050D01*
Y6700D01*
X30550Y5700D02*
Y6700D01*
X46750Y64275D02*
X48850D01*
X46750Y62925D02*
X48850D01*
X46750D02*
Y64275D01*
X48850Y62925D02*
Y64275D01*
X9650Y2325D02*
Y5475D01*
X16150Y2325D02*
Y5475D01*
X9650D02*
X16150D01*
X9650Y2325D02*
X16150D01*
X22750Y5050D02*
Y14350D01*
X19050Y5050D02*
Y14350D01*
Y5050D02*
X22750D01*
X19050Y14350D02*
X22750D01*
X19050Y4850D02*
Y14150D01*
X22750Y4850D02*
Y14150D01*
X19050Y4850D02*
X22750D01*
X19050Y14150D02*
X22750D01*
X23950Y13600D02*
Y14600D01*
X24450Y13600D02*
Y14600D01*
X23950D02*
X24450D01*
X23950Y13600D02*
X24450D01*
X25250Y12800D02*
Y13800D01*
X25750Y12800D02*
Y13800D01*
X25250D02*
X25750D01*
X25250Y12800D02*
X25750D01*
X31125Y19325D02*
Y19875D01*
X30075Y19325D02*
Y19875D01*
X31125D01*
X30075Y19325D02*
X31125D01*
X48650Y11100D02*
X49150D01*
X48650Y12100D02*
X49150D01*
Y11100D02*
Y12100D01*
X48650Y11100D02*
Y12100D01*
X45350Y12800D02*
Y13800D01*
X45850Y12800D02*
Y13800D01*
X45350D02*
X45850D01*
X45350Y12800D02*
X45850D01*
X44150D02*
Y13800D01*
X44650Y12800D02*
Y13800D01*
X44150D02*
X44650D01*
X44150Y12800D02*
X44650D01*
X44525Y24925D02*
X45075D01*
X44525Y23875D02*
X45075D01*
X44525D02*
Y24925D01*
X45075Y23875D02*
Y24925D01*
X49650Y11700D02*
X50150D01*
X49650Y12700D02*
X50150D01*
X49650Y11700D02*
Y12700D01*
X50150Y11700D02*
Y12700D01*
X46800Y12250D02*
X47800D01*
X46800Y12750D02*
X47800D01*
Y12250D02*
Y12750D01*
X46800Y12250D02*
Y12750D01*
X48100Y10950D02*
X49100D01*
X48100Y11450D02*
X49100D01*
Y10950D02*
Y11450D01*
X48100Y10950D02*
Y11450D01*
X43625Y24925D02*
X44175D01*
X43625Y23875D02*
X44175D01*
Y24925D01*
X43625Y23875D02*
Y24925D01*
X26400Y12150D02*
X27400D01*
X26400Y12650D02*
X27400D01*
Y12150D02*
Y12650D01*
X26400Y12150D02*
Y12650D01*
X28100Y10750D02*
X29100D01*
X28100Y11250D02*
X29100D01*
Y10750D02*
Y11250D01*
X28100Y10750D02*
Y11250D01*
X35725Y23825D02*
X36275D01*
X35725Y22775D02*
X36275D01*
Y23825D01*
X35725Y22775D02*
Y23825D01*
X31375Y52775D02*
X32425D01*
X31375Y52225D02*
X32425D01*
Y52775D01*
X31375Y52225D02*
Y52775D01*
X32421Y54725D02*
Y55275D01*
X33471Y54725D02*
Y55275D01*
X32421D02*
X33471D01*
X32421Y54725D02*
X33471D01*
X33425Y56475D02*
Y57525D01*
X33975Y56475D02*
Y57525D01*
X33425Y56475D02*
X33975D01*
X33425Y57525D02*
X33975D01*
X35225D02*
X35775D01*
X35225Y56475D02*
X35775D01*
Y57525D01*
X35225Y56475D02*
Y57525D01*
X34975Y56475D02*
Y57525D01*
X34425Y56475D02*
Y57525D01*
Y56475D02*
X34975D01*
X34425Y57525D02*
X34975D01*
X32925Y55625D02*
X33475D01*
X32925Y54575D02*
X33475D01*
X32925D02*
Y55625D01*
X33475Y54575D02*
Y55625D01*
X39575Y55475D02*
X40625D01*
X39575Y54925D02*
X40625D01*
X39575D02*
Y55475D01*
X40625Y54925D02*
Y55475D01*
X36721Y57479D02*
X37271D01*
X36721Y56429D02*
X37271D01*
Y57479D01*
X36721Y56429D02*
Y57479D01*
X38417Y57343D02*
Y58393D01*
X38967Y57343D02*
Y58393D01*
X38417Y57343D02*
X38967D01*
X38417Y58393D02*
X38967D01*
X39925Y57425D02*
X40475D01*
X39925Y56375D02*
X40475D01*
X39925D02*
Y57425D01*
X40475Y56375D02*
Y57425D01*
X39075Y56375D02*
Y57425D01*
X38525Y56375D02*
Y57425D01*
Y56375D02*
X39075D01*
X38525Y57425D02*
X39075D01*
X39625Y53521D02*
Y54071D01*
X38575Y53521D02*
Y54071D01*
X39625D01*
X38575Y53521D02*
X39625D01*
X38575Y54825D02*
X39625D01*
X38575Y55375D02*
X39625D01*
X38575Y54825D02*
Y55375D01*
X39625Y54825D02*
Y55375D01*
X25275Y59025D02*
Y59575D01*
X26325Y59025D02*
Y59575D01*
X25275D02*
X26325D01*
X25275Y59025D02*
X26325D01*
X33675Y2675D02*
X34725D01*
X33675Y2125D02*
X34725D01*
X33675D02*
Y2675D01*
X34725Y2125D02*
Y2675D01*
X54325Y2425D02*
Y2975D01*
X53275Y2425D02*
Y2975D01*
Y2425D02*
X54325D01*
X53275Y2975D02*
X54325D01*
X53275Y2425D02*
X54325D01*
X53275Y2975D02*
X54325D01*
X53275Y2425D02*
Y2975D01*
X54325Y2425D02*
Y2975D01*
X34725Y2125D02*
Y2675D01*
X33675Y2125D02*
Y2675D01*
X34725D01*
X33675Y2125D02*
X34725D01*
X20275Y37725D02*
X21325D01*
X20275Y38275D02*
X21325D01*
Y37725D02*
Y38275D01*
X20275Y37725D02*
Y38275D01*
X40175Y38625D02*
Y39175D01*
X41225Y38625D02*
Y39175D01*
X40175D02*
X41225D01*
X40175Y38625D02*
X41225D01*
X37975D02*
X39025D01*
X37975Y39175D02*
X39025D01*
X37975Y38625D02*
Y39175D01*
X39025Y38625D02*
Y39175D01*
X18725Y37725D02*
Y38275D01*
X17675Y37725D02*
Y38275D01*
X18725D01*
X17675Y37725D02*
X18725D01*
X26600Y15700D02*
Y18700D01*
X25200Y15700D02*
Y18700D01*
X26600D01*
X25200Y15700D02*
X26600D01*
X30550Y6700D02*
X31050D01*
X30550Y5700D02*
X31050D01*
X30550D02*
Y6700D01*
X31050Y5700D02*
Y6700D01*
X29250D02*
X29750D01*
X29250Y5700D02*
X29750D01*
X29250D02*
Y6700D01*
X29750Y5700D02*
Y6700D01*
X32350Y17550D02*
Y18250D01*
X33450Y17550D02*
Y18250D01*
X32350Y17550D02*
X33450D01*
X32350Y18250D02*
X33450D01*
X32334Y14550D02*
Y15250D01*
X33434Y14550D02*
Y15250D01*
X32334Y14550D02*
X33434D01*
X32334Y15250D02*
X33434D01*
X46300Y15700D02*
Y18700D01*
X44900Y15700D02*
Y18700D01*
X46300D01*
X44900Y15700D02*
X46300D01*
X48650Y15900D02*
X49150D01*
X48650Y14900D02*
X49150D01*
X48650D02*
Y15900D01*
X49150Y14900D02*
Y15900D01*
X51850Y17550D02*
Y18250D01*
X52950Y17550D02*
Y18250D01*
X51850Y17550D02*
X52950D01*
X51850Y18250D02*
X52950D01*
X51950Y14550D02*
Y15250D01*
X53050Y14550D02*
Y15250D01*
X51950Y14550D02*
X53050D01*
X51950Y15250D02*
X53050D01*
X32075Y53929D02*
Y55679D01*
X31125Y53929D02*
Y55679D01*
Y53929D02*
X32075D01*
X31125Y55679D02*
X32075D01*
X42700Y55150D02*
Y56650D01*
X41900Y55150D02*
Y56650D01*
Y55150D02*
X42700D01*
X41900Y56650D02*
X42700D01*
X72625Y46750D02*
X73975D01*
X72625Y44650D02*
X73975D01*
X72625D02*
Y46750D01*
X73975Y44650D02*
Y46750D01*
X44900Y18700D02*
X46300D01*
X44900Y15700D02*
X46300D01*
X44900D02*
Y18700D01*
X46300Y15700D02*
Y18700D01*
X51850Y17550D02*
Y18250D01*
X52950Y17550D02*
Y18250D01*
X51850D02*
X52950D01*
X51850Y17550D02*
X52950D01*
X51950Y14550D02*
Y15250D01*
X53050Y14550D02*
Y15250D01*
X51950D02*
X53050D01*
X51950Y14550D02*
X53050D01*
X48650Y15900D02*
X49150D01*
X48650Y14900D02*
X49150D01*
Y15900D01*
X48650Y14900D02*
Y15900D01*
X25204Y18725D02*
X26604D01*
X25204Y15725D02*
X26604D01*
X25204D02*
Y18725D01*
X26604Y15725D02*
Y18725D01*
X44800Y51450D02*
X45600D01*
X44800Y52950D02*
X45600D01*
X44800Y51450D02*
Y52950D01*
X45600Y51450D02*
Y52950D01*
X44800Y57950D02*
X45600D01*
X44800Y56450D02*
X45600D01*
Y57950D01*
X44800Y56450D02*
Y57950D01*
X49850Y52325D02*
X51950D01*
X49850Y53675D02*
X51950D01*
Y52325D02*
Y53675D01*
X49850Y52325D02*
Y53675D01*
X49750Y50375D02*
X51850D01*
X49750Y49025D02*
X51850D01*
X49750D02*
Y50375D01*
X51850Y49025D02*
Y50375D01*
X40750Y47475D02*
X42850D01*
X40750Y46125D02*
X42850D01*
X40750D02*
Y47475D01*
X42850Y46125D02*
Y47475D01*
X43750Y49100D02*
Y49900D01*
X42250Y49100D02*
Y49900D01*
Y49100D02*
X43750D01*
X42250Y49900D02*
X43750D01*
X36500Y50250D02*
X37300D01*
X36500Y48750D02*
X37300D01*
Y50250D01*
X36500Y48750D02*
Y50250D01*
X38750Y50100D02*
Y50900D01*
X40250Y50100D02*
Y50900D01*
X38750D02*
X40250D01*
X38750Y50100D02*
X40250D01*
X38925Y53875D02*
X40675D01*
X38925Y52925D02*
X40675D01*
X38925D02*
Y53875D01*
X40675Y52925D02*
Y53875D01*
X31225Y52971D02*
X32975D01*
X31225Y53921D02*
X32975D01*
Y52971D02*
Y53921D01*
X31225Y52971D02*
Y53921D01*
X33450Y49900D02*
Y50900D01*
X32950Y49900D02*
Y50900D01*
X33450D01*
X32950Y49900D02*
X33450D01*
X32050Y50100D02*
Y51100D01*
X31550Y50100D02*
Y51100D01*
X32050D01*
X31550Y50100D02*
X32050D01*
X30846Y50991D02*
Y51991D01*
X30346Y50991D02*
Y51991D01*
X30846D01*
X30346Y50991D02*
X30846D01*
X30850Y47800D02*
Y48800D01*
X30350Y47800D02*
Y48800D01*
X30850D01*
X30350Y47800D02*
X30850D01*
X29150Y49300D02*
Y50100D01*
X27650Y49300D02*
Y50100D01*
Y49300D02*
X29150D01*
X27650Y50100D02*
X29150D01*
X41900Y56650D02*
X42700D01*
X41900Y55150D02*
X42700D01*
Y56650D01*
X41900Y55150D02*
Y56650D01*
X32250Y50900D02*
X33750D01*
X32250Y50100D02*
X33750D01*
Y50900D01*
X32250Y50100D02*
Y50900D01*
X39250Y51891D02*
Y52691D01*
X40750Y51891D02*
Y52691D01*
X39250Y51891D02*
X40750D01*
X39250Y52691D02*
X40750D01*
X32450Y49100D02*
X33950D01*
X32450Y48300D02*
X33950D01*
Y49100D01*
X32450Y48300D02*
Y49100D01*
X32650Y59500D02*
Y62300D01*
X36350Y59500D02*
Y62300D01*
X32650D02*
X36350D01*
X32650Y59500D02*
X36350D01*
X36025Y56725D02*
X36975D01*
X36025Y58475D02*
X36975D01*
Y56725D02*
Y58475D01*
X36025Y56725D02*
Y58475D01*
X32350Y17550D02*
X33450D01*
X32350Y18250D02*
X33450D01*
Y17550D02*
Y18250D01*
X32350Y17550D02*
Y18250D01*
Y14550D02*
X33450D01*
X32350Y15250D02*
X33450D01*
Y14550D02*
Y15250D01*
X32350Y14550D02*
Y15250D01*
X38050Y14450D02*
X41750D01*
X38050Y5150D02*
X41750D01*
Y14450D01*
X38050Y5150D02*
Y14450D01*
X41750D01*
X38050Y5150D02*
X41750D01*
X38050D02*
Y14450D01*
X41750Y5150D02*
Y14450D01*
X49750Y6225D02*
Y7225D01*
X50250Y6225D02*
Y7225D01*
X49750Y6225D02*
X50250D01*
X49750Y7225D02*
X50250D01*
X51050Y6225D02*
Y7225D01*
X51550Y6225D02*
Y7225D01*
X51050Y6225D02*
X51550D01*
X51050Y7225D02*
X51550D01*
X51550Y6200D02*
Y7200D01*
X51050Y6200D02*
Y7200D01*
Y6200D02*
X51550D01*
X51050Y7200D02*
X51550D01*
X50250Y6200D02*
Y7200D01*
X49750Y6200D02*
Y7200D01*
Y6200D02*
X50250D01*
X49750Y7200D02*
X50250D01*
X29250Y15200D02*
Y16200D01*
X29750Y15200D02*
Y16200D01*
X29250Y15200D02*
X29750D01*
X29250Y16200D02*
X29750D01*
X30538Y10900D02*
Y11900D01*
X30038Y10900D02*
Y11900D01*
X30538D01*
X30038Y10900D02*
X30538D01*
X29350D02*
Y11900D01*
X29850Y10900D02*
Y11900D01*
X29350D02*
X29850D01*
X29350Y10900D02*
X29850D01*
X29750Y15200D02*
Y16200D01*
X29250Y15200D02*
Y16200D01*
Y15200D02*
X29750D01*
X29250Y16200D02*
X29750D01*
X45757Y30875D02*
X46717D01*
X45757Y29125D02*
X46717D01*
X45757D02*
Y30875D01*
X46717Y29125D02*
Y30875D01*
X41876Y29125D02*
Y30875D01*
X40916Y29125D02*
Y30875D01*
Y29125D02*
X41876D01*
X40916Y30875D02*
X41876D01*
X44280Y29125D02*
Y30875D01*
X43320Y29125D02*
Y30875D01*
Y29125D02*
X44280D01*
X43320Y30875D02*
X44280D01*
X49121Y29125D02*
Y30875D01*
X48161Y29125D02*
Y30875D01*
Y29125D02*
X49121D01*
X48161Y30875D02*
X49121D01*
X51526Y29175D02*
Y30925D01*
X50566Y29175D02*
Y30925D01*
Y29175D02*
X51526D01*
X50566Y30925D02*
X51526D01*
X45757Y29125D02*
Y30875D01*
X46717Y29125D02*
Y30875D01*
X45757Y29125D02*
X46717D01*
X45757Y30875D02*
X46717D01*
X40949Y29125D02*
Y30875D01*
X41909Y29125D02*
Y30875D01*
X40949Y29125D02*
X41909D01*
X40949Y30875D02*
X41909D01*
X43353Y29125D02*
Y30875D01*
X44313Y29125D02*
Y30875D01*
X43353Y29125D02*
X44313D01*
X43353Y30875D02*
X44313D01*
X48161Y29125D02*
Y30875D01*
X49122Y29125D02*
Y30875D01*
X48161Y29125D02*
X49122D01*
X48161Y30875D02*
X49122D01*
X50566Y29125D02*
Y30875D01*
X51526Y29125D02*
Y30875D01*
X50566Y29125D02*
X51526D01*
X50566Y30875D02*
X51526D01*
X27920Y29125D02*
Y30875D01*
X28880Y29125D02*
Y30875D01*
X27920Y29125D02*
X28880D01*
X27920Y30875D02*
X28880D01*
X23016Y29125D02*
Y30875D01*
X23976Y29125D02*
Y30875D01*
X23016Y29125D02*
X23976D01*
X23016Y30875D02*
X23976D01*
X25516Y29125D02*
Y30875D01*
X26476Y29125D02*
Y30875D01*
X25516Y29125D02*
X26476D01*
X25516Y30875D02*
X26476D01*
X30324Y29125D02*
Y30875D01*
X31284Y29125D02*
Y30875D01*
X30324Y29125D02*
X31284D01*
X30324Y30875D02*
X31284D01*
X32729Y29125D02*
Y30875D01*
X33688Y29125D02*
Y30875D01*
X32729Y29125D02*
X33688D01*
X32729Y30875D02*
X33688D01*
X9650Y8025D02*
X16150D01*
X9650Y11175D02*
X16150D01*
Y8025D02*
Y11175D01*
X9650Y8025D02*
Y11175D01*
X25516Y30875D02*
X26476D01*
X25516Y29125D02*
X26476D01*
X25516D02*
Y30875D01*
X26476Y29125D02*
Y30875D01*
X23980Y29125D02*
Y30875D01*
X23020Y29125D02*
Y30875D01*
Y29125D02*
X23980D01*
X23020Y30875D02*
X23980D01*
X32729D02*
X33688D01*
X32729Y29125D02*
X33688D01*
X32729D02*
Y30875D01*
X33688Y29125D02*
Y30875D01*
X27920D02*
X28880D01*
X27920Y29125D02*
X28880D01*
X27920D02*
Y30875D01*
X28880Y29125D02*
Y30875D01*
X30324D02*
X31284D01*
X30324Y29125D02*
X31284D01*
X30324D02*
Y30875D01*
X31284Y29125D02*
Y30875D01*
X9350Y20825D02*
Y23975D01*
X15850Y20825D02*
Y23975D01*
X9350D02*
X15850D01*
X9350Y20825D02*
X15850D01*
X5575Y22550D02*
Y29050D01*
X2425Y22550D02*
Y29050D01*
X5575D01*
X2425Y22550D02*
X5575D01*
X9450Y14425D02*
X15950D01*
X9450Y17575D02*
X15950D01*
Y14425D02*
Y17575D01*
X9450Y14425D02*
Y17575D01*
D14*
X2176Y13576D02*
G03*
X2176Y13576I-381J0D01*
G01*
D15*
X322Y59265D02*
X1846Y59900D01*
X322Y59265D02*
Y60535D01*
X1846Y59900D01*
X2100Y73800D02*
X11700D01*
X2100Y53865D02*
Y73800D01*
Y53865D02*
X11700D01*
Y73800D01*
D20*
X50386Y24561D02*
X49540Y23715D01*
X50386D02*
X49540Y24561D01*
X50386Y24138D02*
X49540D01*
X49963Y23715D02*
Y24561D01*
X32086Y23861D02*
X31240Y23015D01*
X32086D02*
X31240Y23861D01*
X32086Y23438D02*
X31240D01*
X31663Y23015D02*
Y23861D01*
X47014Y35039D02*
X47860Y35885D01*
X47014D02*
X47860Y35039D01*
X47014Y35462D02*
X47860D01*
X47437Y35885D02*
Y35039D01*
X27514D02*
X28360Y35885D01*
X27514D02*
X28360Y35039D01*
X27514Y35462D02*
X28360D01*
X27937Y35885D02*
Y35039D01*
X32086Y21339D02*
X31240Y22185D01*
X32086D02*
X31240Y21339D01*
X32086Y21762D02*
X31240D01*
X31663Y22185D02*
Y21339D01*
X50386Y22039D02*
X49540Y22885D01*
X50386D02*
X49540Y22039D01*
X50386Y22462D02*
X49540D01*
X49963Y22885D02*
Y22039D01*
X30486Y35039D02*
X29640Y35885D01*
X30486D02*
X29640Y35039D01*
X30486Y35462D02*
X29640D01*
X30063Y35885D02*
Y35039D01*
X49986D02*
X49140Y35885D01*
X49986D02*
X49140Y35039D01*
X49986Y35462D02*
X49140D01*
X49563Y35885D02*
Y35039D01*
D96*
X48595Y24849D02*
G03*
X49205Y24849I305J0D01*
G01*
X30295Y24149D02*
G03*
X30905Y24149I305J0D01*
G01*
X48805Y34751D02*
G03*
X48195Y34751I-305J0D01*
G01*
X29305D02*
G03*
X28695Y34751I-305J0D01*
G01*
X30905Y21051D02*
G03*
X30295Y21051I-305J0D01*
G01*
X49205Y21751D02*
G03*
X48595Y21751I-305J0D01*
G01*
X29305Y34751D02*
G03*
X28695Y34751I-305J0D01*
G01*
X48805D02*
G03*
X48195Y34751I-305J0D01*
G01*
D97*
X34365Y52149D02*
Y55451D01*
X37235D01*
Y52149D02*
Y55451D01*
X34365Y52149D02*
X37235D01*
X34365Y55251D02*
X34565Y55451D01*
X50449Y21751D02*
Y24849D01*
X47351D02*
X50449D01*
X47351Y21751D02*
Y24849D01*
Y21751D02*
X50449D01*
X46373Y24440D02*
X47351D01*
X46373Y24161D02*
Y24440D01*
Y24161D02*
X47351D01*
Y24440D01*
X46373Y23940D02*
X47351D01*
X46373Y23661D02*
Y23940D01*
Y23661D02*
X47351D01*
Y23940D01*
X46373Y23440D02*
X47351D01*
X46373Y23160D02*
Y23440D01*
Y23160D02*
X47351D01*
Y23440D01*
X46373Y22939D02*
X47351D01*
X46373Y22660D02*
Y22939D01*
Y22660D02*
X47351D01*
Y22939D01*
X46373Y22439D02*
X47351D01*
X46373Y22160D02*
Y22439D01*
Y22160D02*
X47351D01*
Y22439D01*
X50449Y22160D02*
X51427D01*
Y22439D01*
X50449D02*
X51427D01*
X50449Y22160D02*
Y22439D01*
Y22660D02*
X51427D01*
Y22939D01*
X50449D02*
X51427D01*
X50449Y22660D02*
Y22939D01*
Y23160D02*
X51427D01*
Y23440D01*
X50449D02*
X51427D01*
X50449Y23160D02*
Y23440D01*
Y23661D02*
X51427D01*
Y23940D01*
X50449D02*
X51427D01*
X50449Y23661D02*
Y23940D01*
Y24161D02*
X51427D01*
Y24440D01*
X50449D02*
X51427D01*
X50449Y24161D02*
Y24440D01*
X32149Y21051D02*
Y24149D01*
X29051D02*
X32149D01*
X29051Y21051D02*
Y24149D01*
Y21051D02*
X32149D01*
X28073Y23740D02*
X29051D01*
X28073Y23461D02*
Y23740D01*
Y23461D02*
X29051D01*
Y23740D01*
X28073Y23240D02*
X29051D01*
X28073Y22961D02*
Y23240D01*
Y22961D02*
X29051D01*
Y23240D01*
X28073Y22740D02*
X29051D01*
X28073Y22460D02*
Y22740D01*
Y22460D02*
X29051D01*
Y22740D01*
X28073Y22239D02*
X29051D01*
X28073Y21960D02*
Y22239D01*
Y21960D02*
X29051D01*
Y22239D01*
X28073Y21739D02*
X29051D01*
X28073Y21460D02*
Y21739D01*
Y21460D02*
X29051D01*
Y21739D01*
X32149Y21460D02*
X33127D01*
Y21739D01*
X32149D02*
X33127D01*
X32149Y21460D02*
Y21739D01*
Y21960D02*
X33127D01*
Y22239D01*
X32149D02*
X33127D01*
X32149Y21960D02*
Y22239D01*
Y22460D02*
X33127D01*
Y22740D01*
X32149D02*
X33127D01*
X32149Y22460D02*
Y22740D01*
Y22961D02*
X33127D01*
Y23240D01*
X32149D02*
X33127D01*
X32149Y22961D02*
Y23240D01*
Y23461D02*
X33127D01*
Y23740D01*
X32149D02*
X33127D01*
X32149Y23461D02*
Y23740D01*
X46951Y34751D02*
Y37849D01*
Y34751D02*
X50049D01*
Y37849D01*
X46951D02*
X50049D01*
Y35160D02*
X51027D01*
Y35439D01*
X50049D02*
X51027D01*
X50049Y35160D02*
Y35439D01*
Y35660D02*
X51027D01*
Y35939D01*
X50049D02*
X51027D01*
X50049Y35660D02*
Y35939D01*
Y36160D02*
X51027D01*
Y36440D01*
X50049D02*
X51027D01*
X50049Y36160D02*
Y36440D01*
Y36661D02*
X51027D01*
Y36940D01*
X50049D02*
X51027D01*
X50049Y36661D02*
Y36940D01*
Y37161D02*
X51027D01*
Y37440D01*
X50049D02*
X51027D01*
X50049Y37161D02*
Y37440D01*
X45973D02*
X46951D01*
X45973Y37161D02*
Y37440D01*
Y37161D02*
X46951D01*
Y37440D01*
X45973Y36940D02*
X46951D01*
X45973Y36661D02*
Y36940D01*
Y36661D02*
X46951D01*
Y36940D01*
X45973Y36440D02*
X46951D01*
X45973Y36160D02*
Y36440D01*
Y36160D02*
X46951D01*
Y36440D01*
X45973Y35939D02*
X46951D01*
X45973Y35660D02*
Y35939D01*
Y35660D02*
X46951D01*
Y35939D01*
X45973Y35439D02*
X46951D01*
X45973Y35160D02*
Y35439D01*
Y35160D02*
X46951D01*
Y35439D01*
X27451Y34751D02*
Y37849D01*
Y34751D02*
X30549D01*
Y37849D01*
X27451D02*
X30549D01*
Y35160D02*
X31527D01*
Y35439D01*
X30549D02*
X31527D01*
X30549Y35160D02*
Y35439D01*
Y35660D02*
X31527D01*
Y35939D01*
X30549D02*
X31527D01*
X30549Y35660D02*
Y35939D01*
Y36160D02*
X31527D01*
Y36440D01*
X30549D02*
X31527D01*
X30549Y36160D02*
Y36440D01*
Y36661D02*
X31527D01*
Y36940D01*
X30549D02*
X31527D01*
X30549Y36661D02*
Y36940D01*
Y37161D02*
X31527D01*
Y37440D01*
X30549D02*
X31527D01*
X30549Y37161D02*
Y37440D01*
X26473D02*
X27451D01*
X26473Y37161D02*
Y37440D01*
Y37161D02*
X27451D01*
Y37440D01*
X26473Y36940D02*
X27451D01*
X26473Y36661D02*
Y36940D01*
Y36661D02*
X27451D01*
Y36940D01*
X26473Y36440D02*
X27451D01*
X26473Y36160D02*
Y36440D01*
Y36160D02*
X27451D01*
Y36440D01*
X26473Y35939D02*
X27451D01*
X26473Y35660D02*
Y35939D01*
Y35660D02*
X27451D01*
Y35939D01*
X26473Y35439D02*
X27451D01*
X26473Y35160D02*
Y35439D01*
Y35160D02*
X27451D01*
Y35439D01*
X32149Y21051D02*
Y24149D01*
X29051Y21051D02*
X32149D01*
X29051D02*
Y24149D01*
X32149D01*
X28073Y21460D02*
X29051D01*
X28073D02*
Y21739D01*
X29051D01*
Y21460D02*
Y21739D01*
X28073Y21960D02*
X29051D01*
X28073D02*
Y22239D01*
X29051D01*
Y21960D02*
Y22239D01*
X28073Y22460D02*
X29051D01*
X28073D02*
Y22740D01*
X29051D01*
Y22460D02*
Y22740D01*
X28073Y22961D02*
X29051D01*
X28073D02*
Y23240D01*
X29051D01*
Y22961D02*
Y23240D01*
X28073Y23461D02*
X29051D01*
X28073D02*
Y23740D01*
X29051D01*
Y23461D02*
Y23740D01*
X32149D02*
X33127D01*
Y23461D02*
Y23740D01*
X32149Y23461D02*
X33127D01*
X32149D02*
Y23740D01*
Y23240D02*
X33127D01*
Y22961D02*
Y23240D01*
X32149Y22961D02*
X33127D01*
X32149D02*
Y23240D01*
Y22740D02*
X33127D01*
Y22460D02*
Y22740D01*
X32149Y22460D02*
X33127D01*
X32149D02*
Y22740D01*
Y22239D02*
X33127D01*
Y21960D02*
Y22239D01*
X32149Y21960D02*
X33127D01*
X32149D02*
Y22239D01*
Y21739D02*
X33127D01*
Y21460D02*
Y21739D01*
X32149Y21460D02*
X33127D01*
X32149D02*
Y21739D01*
X50449Y21751D02*
Y24849D01*
X47351Y21751D02*
X50449D01*
X47351D02*
Y24849D01*
X50449D01*
X46373Y22160D02*
X47351D01*
X46373D02*
Y22439D01*
X47351D01*
Y22160D02*
Y22439D01*
X46373Y22660D02*
X47351D01*
X46373D02*
Y22939D01*
X47351D01*
Y22660D02*
Y22939D01*
X46373Y23160D02*
X47351D01*
X46373D02*
Y23440D01*
X47351D01*
Y23160D02*
Y23440D01*
X46373Y23661D02*
X47351D01*
X46373D02*
Y23940D01*
X47351D01*
Y23661D02*
Y23940D01*
X46373Y24161D02*
X47351D01*
X46373D02*
Y24440D01*
X47351D01*
Y24161D02*
Y24440D01*
X50449D02*
X51427D01*
Y24161D02*
Y24440D01*
X50449Y24161D02*
X51427D01*
X50449D02*
Y24440D01*
Y23940D02*
X51427D01*
Y23661D02*
Y23940D01*
X50449Y23661D02*
X51427D01*
X50449D02*
Y23940D01*
Y23440D02*
X51427D01*
Y23160D02*
Y23440D01*
X50449Y23160D02*
X51427D01*
X50449D02*
Y23440D01*
Y22939D02*
X51427D01*
Y22660D02*
Y22939D01*
X50449Y22660D02*
X51427D01*
X50449D02*
Y22939D01*
Y22439D02*
X51427D01*
Y22160D02*
Y22439D01*
X50449Y22160D02*
X51427D01*
X50449D02*
Y22439D01*
X30549Y34751D02*
Y37849D01*
X27451Y34751D02*
X30549D01*
X27451D02*
Y37849D01*
X30549D01*
X26473Y35160D02*
X27451D01*
X26473D02*
Y35439D01*
X27451D01*
Y35160D02*
Y35439D01*
X26473Y35660D02*
X27451D01*
X26473D02*
Y35939D01*
X27451D01*
Y35660D02*
Y35939D01*
X26473Y36160D02*
X27451D01*
X26473D02*
Y36440D01*
X27451D01*
Y36160D02*
Y36440D01*
X26473Y36661D02*
X27451D01*
X26473D02*
Y36940D01*
X27451D01*
Y36661D02*
Y36940D01*
X26473Y37161D02*
X27451D01*
X26473D02*
Y37440D01*
X27451D01*
Y37161D02*
Y37440D01*
X30549D02*
X31527D01*
Y37161D02*
Y37440D01*
X30549Y37161D02*
X31527D01*
X30549D02*
Y37440D01*
Y36940D02*
X31527D01*
Y36661D02*
Y36940D01*
X30549Y36661D02*
X31527D01*
X30549D02*
Y36940D01*
Y36440D02*
X31527D01*
Y36160D02*
Y36440D01*
X30549Y36160D02*
X31527D01*
X30549D02*
Y36440D01*
Y35939D02*
X31527D01*
Y35660D02*
Y35939D01*
X30549Y35660D02*
X31527D01*
X30549D02*
Y35939D01*
Y35439D02*
X31527D01*
Y35160D02*
Y35439D01*
X30549Y35160D02*
X31527D01*
X30549D02*
Y35439D01*
X50049Y34751D02*
Y37849D01*
X46951Y34751D02*
X50049D01*
X46951D02*
Y37849D01*
X50049D01*
X45973Y35160D02*
X46951D01*
X45973D02*
Y35439D01*
X46951D01*
Y35160D02*
Y35439D01*
X45973Y35660D02*
X46951D01*
X45973D02*
Y35939D01*
X46951D01*
Y35660D02*
Y35939D01*
X45973Y36160D02*
X46951D01*
X45973D02*
Y36440D01*
X46951D01*
Y36160D02*
Y36440D01*
X45973Y36661D02*
X46951D01*
X45973D02*
Y36940D01*
X46951D01*
Y36661D02*
Y36940D01*
X45973Y37161D02*
X46951D01*
X45973D02*
Y37440D01*
X46951D01*
Y37161D02*
Y37440D01*
X50049D02*
X51027D01*
Y37161D02*
Y37440D01*
X50049Y37161D02*
X51027D01*
X50049D02*
Y37440D01*
Y36940D02*
X51027D01*
Y36661D02*
Y36940D01*
X50049Y36661D02*
X51027D01*
X50049D02*
Y36940D01*
Y36440D02*
X51027D01*
Y36160D02*
Y36440D01*
X50049Y36160D02*
X51027D01*
X50049D02*
Y36440D01*
Y35939D02*
X51027D01*
Y35660D02*
Y35939D01*
X50049Y35660D02*
X51027D01*
X50049D02*
Y35939D01*
Y35439D02*
X51027D01*
Y35160D02*
Y35439D01*
X50049Y35160D02*
X51027D01*
X50049D02*
Y35439D01*
X1360Y1121D02*
Y16031D01*
Y1121D02*
X7100D01*
Y16031D01*
X1360D02*
X7100D01*
M02*
